<svg xmlns="http://www.w3.org/2000/svg" width="102.912" height="127.583" viewBox="0 0 102.912 127.583">
  <g id="Grupo_639" data-name="Grupo 639" transform="translate(-226.411 -89.183)">
    <path id="Trazado_618" data-name="Trazado 618" d="M278.392,94.58c-9.769.582-18.843,10.028-19.128,18.467,9.269-.676,18.178-9.205,19.128-18.467m6.2.1c-.785,8.236,10.884,20.146,18.768,19.154-.961-9.739-9.25-18.2-18.768-19.154m-25.731,23.169c.252,11.8,10.651,21.573,22.508,21.415,13.228-.176,21.693-10.734,22.118-20.454a26.542,26.542,0,0,1-13.4-5.356,28.392,28.392,0,0,1-8.875-11.714,28.229,28.229,0,0,1-9.085,11.158,27.415,27.415,0,0,1-13.265,4.95m-4.9.116c-9.682.146-18.993,9.449-19.883,19.966h9.765v4.409h-14.5a26.758,26.758,0,0,1,6.4-19.7c4.841-5.727,11.121-8.672,18.565-9.491a26.984,26.984,0,0,1,11.568-18.722A26.032,26.032,0,0,1,283.9,89.855a27.005,27.005,0,0,1,.713,53.655c-15,1.833-29.066-8.387-30.651-25.543" transform="translate(6.472 0)" fill="#ef8b44" stroke="#ef8b44" stroke-width="1"/>
    <path id="Trazado_619" data-name="Trazado 619" d="M246.255,143.27c-1.668.53-3.211,1.01-4.747,1.514-5.9,1.927-9.145,6.156-9.859,12.157-.676,5.671,1.754,10.227,6.437,13.28a13.435,13.435,0,0,0,15.1.248q15.183-9.076,30.32-18.223c.582-.349,1.134-.747,1.75-1.153-6.265-5.2-7.91-8.713-8.379-17.953l-26.223,8.68c1.514,5.791,4.89,10.227,8.349,14.186-1.055,1.228-1.961,2.287-2.93,3.414a40.324,40.324,0,0,1-9.821-16.15m-1.164-4.484c-1.919-13.491,1.457-25.032,11.064-34.966l2.7,3.6a34.7,34.7,0,0,0-8.06,13.446,33.29,33.29,0,0,0-1.127,16.383c1.018-.3,1.889-.533,2.746-.815,8.5-2.806,16.984-5.641,25.5-8.387a2.91,2.91,0,0,1,2.419.263c.935.853,2.231,1.484,1.735,3.455-1.743,6.9,1.172,13.1,7.594,16.345,1.758.89,1.292,2.362,1.468,3.621.075.563-.631,1.495-1.224,1.855-11.782,7.173-23.473,14.508-35.451,21.348-10.167,5.806-24.871.083-27.267-13.615-1.547-8.852,4.128-18.587,13-20.856,1.637-.421,3.215-1.093,4.9-1.675" transform="translate(0 38.946)" fill="#ef8b44" stroke="#ef8b44" stroke-width="1"/>
    <path id="Trazado_620" data-name="Trazado 620" d="M261.013,110.934a14.231,14.231,0,1,0,14.343,14.118,14.25,14.25,0,0,0-14.343-14.118m-.319,32.983a18.81,18.81,0,1,1,19.286-18.689,18.967,18.967,0,0,1-19.286,18.689" transform="translate(42.007 45.789)" fill="#ef8b44" stroke="#ef8b44" stroke-width="1"/>
    <path id="Trazado_621" data-name="Trazado 621" d="M253.156,159.11c-.988-1.078-1.893-2.062-2.843-3.095,13.258-16.259,13.3-32.705-.083-49.279l2.873-2.828c14.028,12.751,16.638,38.7.053,55.2" transform="translate(64.189 39.189)" fill="#ef8b44" stroke="#ef8b44" stroke-width="1"/>
  </g>
</svg>
