<svg xmlns="http://www.w3.org/2000/svg" width="83.885" height="34.101" viewBox="0 0 83.885 34.101">
  <g id="Objeto_inteligente_vectorial" data-name="Objeto inteligente vectorial" transform="translate(-136.635 -564.063)">
    <g id="Objeto_inteligente_vectorial-2" data-name="Objeto inteligente vectorial">
      <path id="Trazado_11" data-name="Trazado 11" d="M197.279,567.308a2.464,2.464,0,0,1-.456-3.226l-.025-.019a2.515,2.515,0,0,1-3.352.423l-.007.01a2.467,2.467,0,0,1,.586,3.245l.038.028a2.51,2.51,0,0,1,3.195-.432Z" fill="#fff"/>
      <path id="Trazado_12" data-name="Trazado 12" d="M188.6,597.7a2.464,2.464,0,0,1-.456-3.226l-.025-.019a2.515,2.515,0,0,1-3.352.423l-.007.01a2.467,2.467,0,0,1,.586,3.245l.038.028a2.51,2.51,0,0,1,3.195-.432Z" fill="#fff"/>
      <path id="Trazado_13" data-name="Trazado 13" d="M140.476,591.9a2.464,2.464,0,0,1-.456-3.226l-.025-.019a2.515,2.515,0,0,1-3.352.423l-.007.01a2.467,2.467,0,0,1,.586,3.245l.038.028a2.51,2.51,0,0,1,3.195-.432Z" fill="#fff"/>
      <path id="Trazado_14" data-name="Trazado 14" d="M218.582,595.884a1.219,1.219,0,0,0,1.7-.245,1.2,1.2,0,0,0-.248-1.684,1.218,1.218,0,0,0-1.7.245,1.2,1.2,0,0,0,.247,1.684" fill="#fff"/>
      <path id="Trazado_15" data-name="Trazado 15" d="M171.231,569.738a1.219,1.219,0,0,0,1.7-.245,1.2,1.2,0,0,0-.248-1.684,1.218,1.218,0,0,0-1.7.245,1.2,1.2,0,0,0,.247,1.684" fill="#fff"/>
    </g>
    <path id="Color_Overlay" data-name="Color Overlay" d="M185.344,598.135a2.468,2.468,0,0,0-.586-3.245l.007-.01a2.515,2.515,0,0,0,3.353-.423l.025.018a2.465,2.465,0,0,0,.456,3.227l-.022.03a2.51,2.51,0,0,0-3.2.432Zm33.238-2.252a1.2,1.2,0,0,1-.247-1.684,1.218,1.218,0,0,1,1.7-.245,1.2,1.2,0,0,1,.247,1.684,1.218,1.218,0,0,1-1.7.245Zm-57.351-11.146a1.2,1.2,0,0,1-.247-1.684,1.219,1.219,0,0,1,1.7-.246,1.2,1.2,0,0,1,.248,1.684,1.22,1.22,0,0,1-1.7.246Zm32.792-17a2.469,2.469,0,0,0-.586-3.245l.007-.01a2.514,2.514,0,0,0,3.353-.423l.025.019a2.464,2.464,0,0,0,.456,3.226l-.022.03a2.51,2.51,0,0,0-3.2.432Z" fill="#fff"/>
  </g>
</svg>
