<svg xmlns="http://www.w3.org/2000/svg" width="104.848" height="56.666" viewBox="0 0 104.848 56.666">
  <g id="Grupo_1149" data-name="Grupo 1149" transform="translate(-253.218 -1607.102)">
    <g id="Grupo_315" data-name="Grupo 315" transform="translate(309.147 1607.626)">
      <path id="Trazado_622" data-name="Trazado 622" d="M427.693,390.782a29.787,29.787,0,0,1,7.723,8.012,64.447,64.447,0,0,1,4.236,6.981c.439.835.824,1.609,1.153,2.3.2.413.329.7.394.852a1.439,1.439,0,0,0,2.636-1.155c-.078-.174-.222-.492-.431-.933-.346-.726-.75-1.535-1.207-2.4a67.287,67.287,0,0,0-4.426-7.3,32.45,32.45,0,0,0-8.525-8.78,1.438,1.438,0,0,0-1.553,2.421" transform="translate(-399.485 -354.221)" fill="#ae96b2" stroke="#ae96b2" stroke-width="1"/>
      <path id="Trazado_623" data-name="Trazado 623" d="M431.149,403.284h0A14.384,14.384,0,1,1,445.533,388.9a14.385,14.385,0,0,1-14.384,14.384m0-2.877h0A11.507,11.507,0,1,0,419.642,388.9a11.507,11.507,0,0,0,11.507,11.507" transform="translate(-408.224 -365.812)" fill="#ae96b2" stroke="#ae96b2" stroke-width="1"/>
      <path id="Trazado_624" data-name="Trazado 624" d="M422.2,375.184a18.222,18.222,0,0,0,6.044,9.793c4.843,3.76,7.138,3.98,11.678,3.98,0,0,.574-9.4-6.4-12.635s-11.322-1.138-11.322-1.138" transform="translate(-403.594 -365.812)" fill="#ae96b2" stroke="#ae96b2" stroke-width="1"/>
      <path id="Trazado_625" data-name="Trazado 625" d="M434.479,375.817a15.987,15.987,0,0,1-6.033,8.769c-4.832,3.367-7.125,3.565-11.655,3.565a13.664,13.664,0,0,1,7.9-11.291c7.681-3.6,9.784-1.044,9.784-1.044" transform="translate(-408.203 -365.456)" fill="#ae96b2" stroke="#ae96b2" stroke-width="1"/>
      <path id="Trazado_626" data-name="Trazado 626" d="M445.735,372.718c1.388,2.136-1.126,6.233-5.613,9.147s-9.251,3.543-10.637,1.407,1.124-6.233,5.611-9.147,9.251-3.545,10.639-1.407" transform="translate(-397.722 -368.422)" fill="#ae96b2" stroke="#ae96b2" stroke-width="1"/>
      <path id="Trazado_627" data-name="Trazado 627" d="M413.1,370.451c1.894-1.7,6.331.135,9.912,4.112s4.948,8.582,3.055,10.289-6.331-.137-9.912-4.113-4.948-8.582-3.055-10.287" transform="translate(-412.069 -369.814)" fill="#ae96b2" stroke="#ae96b2" stroke-width="1"/>
      <path id="Trazado_628" data-name="Trazado 628" d="M425.139,396.7h0a2.158,2.158,0,1,1,2.157-2.157,2.156,2.156,0,0,1-2.157,2.157" transform="translate(-402.932 -350.6)" fill="#ae96b2" stroke="#ae96b2" stroke-width="1"/>
      <path id="Trazado_629" data-name="Trazado 629" d="M425.139,401.364h0a2.158,2.158,0,1,1,2.157-2.157,2.157,2.157,0,0,1-2.157,2.157" transform="translate(-402.932 -346.631)" fill="#ae96b2" stroke="#ae96b2" stroke-width="1"/>
      <path id="Trazado_630" data-name="Trazado 630" d="M414.852,407.644c.076-.137.226-.4.45-.783.376-.639.814-1.351,1.309-2.12a65.09,65.09,0,0,1,4.7-6.435,30.66,30.66,0,0,1,8.882-7.727,1.439,1.439,0,1,0-1.316-2.558,33.257,33.257,0,0,0-9.773,8.442,67.445,67.445,0,0,0-4.915,6.722c-.517.8-.974,1.546-1.37,2.216-.239.405-.405.7-.494.861a1.439,1.439,0,1,0,2.523,1.383" transform="translate(-412.152 -354.452)" fill="#ae96b2" stroke="#ae96b2" stroke-width="1"/>
    </g>
    <g id="Grupo_318" data-name="Grupo 318" transform="translate(261.973 1628.224) rotate(19)">
      <path id="Trazado_359" data-name="Trazado 359" d="M1.952.5H1.888C1.345.49.8.464.259.423A.251.251,0,0,1,0,.191.248.248,0,0,1,.288,0c.525.04,1.059.066,1.589.076h.064A.263.263,0,0,1,2.22.3C2.223.413,2.1.505,1.952.5Z" transform="matrix(0.996, -0.087, 0.087, 0.996, 6.613, 25.068)" fill="#ae96b2" stroke="#ae96b2" stroke-width="1"/>
      <path id="Trazado_360" data-name="Trazado 360" d="M.279.542A.27.27,0,0,1,0,.341C-.014.224.1.124.247.117.793.1,1.344.056,1.884,0A.287.287,0,0,1,2.2.185c.026.116-.073.223-.222.238C1.424.478.86.518.3.542Z" transform="matrix(0.996, -0.087, 0.087, 0.996, 9.939, 24.718)" fill="#ae96b2" stroke="#ae96b2" stroke-width="1"/>
      <path id="Trazado_361" data-name="Trazado 361" d="M1.929.7,1.888.7C1.331.62.769.526.218.418.07.388-.025.273.006.159A.272.272,0,0,1,.33.006C.867.113,1.415.2,1.958.277c.15.02.255.13.236.246A.248.248,0,0,1,1.929.7Z" transform="matrix(0.996, -0.087, 0.087, 0.996, 3.271, 24.908)" fill="#ae96b2" stroke="#ae96b2" stroke-width="1"/>
      <path id="Trazado_362" data-name="Trazado 362" d="M.279.734A.284.284,0,0,1,.008.565C-.029.45.06.338.206.314.74.228,1.273.125,1.792.008a.307.307,0,0,1,.346.145c.048.113-.029.23-.172.263C1.435.536.888.641.341.73A.344.344,0,0,1,.279.734Z" transform="matrix(0.996, -0.087, 0.087, 0.996, 13.174, 23.91)" fill="#ae96b2" stroke="#ae96b2" stroke-width="1"/>
      <path id="Trazado_363" data-name="Trazado 363" d="M1.866.891A.348.348,0,0,1,1.784.879C1.245.739.7.58.177.407.036.36-.036.235.018.128A.3.3,0,0,1,.371.017C.884.186,1.411.341,1.937.478c.145.038.228.158.186.269A.262.262,0,0,1,1.866.891Z" transform="matrix(0.996, -0.087, 0.087, 0.996, 0, 24.353)" fill="#ae96b2" stroke="#ae96b2" stroke-width="1"/>
      <path id="Trazado_364" data-name="Trazado 364" d="M.279.92A.3.3,0,0,1,.022.782.192.192,0,0,1,.167.509C.642.37,1.115.216,1.573.052L1.66.02a.326.326,0,0,1,.37.1A.186.186,0,0,1,1.918.4l-.1.035C1.352.607.867.765.38.907A.342.342,0,0,1,.279.92Z" transform="matrix(0.996, -0.087, 0.087, 0.996, 16.253, 22.736)" fill="#ae96b2" stroke="#ae96b2" stroke-width="1"/>
      <path id="Trazado_365" data-name="Trazado 365" d="M.279,1.092A.31.31,0,0,1,.04.983.183.183,0,0,1,.131.694C.6.489,1.059.268,1.508.034A.332.332,0,0,1,1.89.1.181.181,0,0,1,1.827.39C1.367.629.893.856.417,1.066A.325.325,0,0,1,.279,1.092Z" transform="matrix(0.996, -0.087, 0.087, 0.996, 19.104, 21.229)" fill="#ae96b2" stroke="#ae96b2" stroke-width="1"/>
      <path id="Trazado_366" data-name="Trazado 366" d="M.279,1.238a.322.322,0,0,1-.217-.085A.18.18,0,0,1,.1.856C.523.6.94.33,1.34.051a.334.334,0,0,1,.387.022.18.18,0,0,1-.012.3C1.307.657.88.934.448,1.2A.314.314,0,0,1,.279,1.238Z" transform="matrix(0.996, -0.087, 0.087, 0.996, 21.678, 19.442)" fill="#ae96b2" stroke="#ae96b2" stroke-width="1"/>
      <path id="Trazado_367" data-name="Trazado 367" d="M1.673.47Q.97.456.27.424A.257.257,0,0,1,0,.2.24.24,0,0,1,.277,0Q.969.032,1.663.046l.276,0,.015.425Z" transform="matrix(0.996, -0.087, 0.087, 0.996, 43.485, 18.525)" fill="#ae96b2" stroke="#ae96b2" stroke-width="1"/>
      <path id="Trazado_368" data-name="Trazado 368" d="M.279.474A.267.267,0,0,1,0,.266C-.009.149.1.052.256.05.808.041,1.365.025,1.911,0a.272.272,0,0,1,.3.2c.015.117-.094.217-.244.224C1.414.449.851.466.291.474Z" transform="matrix(0.996, -0.087, 0.087, 0.996, 46.815, 18.233)" fill="#ae96b2" stroke="#ae96b2" stroke-width="1"/>
      <path id="Trazado_369" data-name="Trazado 369" d="M1.948.58h-.02C1.371.536.805.483.248.422.1.406-.013.3,0,.182A.254.254,0,0,1,.3,0c.55.06,1.108.112,1.657.154a.251.251,0,0,1,.259.232A.241.241,0,0,1,1.948.58Z" transform="matrix(0.996, -0.087, 0.087, 0.996, 40.135, 18.56)" fill="#ae96b2" stroke="#ae96b2" stroke-width="1"/>
      <path id="Trazado_370" data-name="Trazado 370" d="M.279.569A.274.274,0,0,1,0,.376C-.018.259.086.156.236.145.785.1,1.337.057,1.877,0a.289.289,0,0,1,.317.183c.026.116-.073.223-.222.238C1.426.478.867.527.311.568Z" transform="matrix(0.996, -0.087, 0.087, 0.996, 50.106, 17.703)" fill="#ae96b2" stroke="#ae96b2" stroke-width="1"/>
      <path id="Trazado_371" data-name="Trazado 371" d="M1.931.691l-.044,0L1.508.632Q.866.534.223.419C.075.392-.023.278,0,.164A.266.266,0,0,1,.324.006Q.956.12,1.59.215l.373.055c.15.021.254.132.233.248A.248.248,0,0,1,1.931.691Z" transform="matrix(0.996, -0.087, 0.087, 0.996, 36.792, 18.373)" fill="#ae96b2" stroke="#ae96b2" stroke-width="1"/>
      <path id="Trazado_373" data-name="Trazado 373" d="M1.894.821a.352.352,0,0,1-.07-.008C1.265.688.717.553.194.412.05.373-.032.252.012.141A.285.285,0,0,1,.353.012C.866.151,1.4.283,1.953.4c.147.033.237.151.2.263A.257.257,0,0,1,1.894.821Z" transform="matrix(0.996, -0.087, 0.087, 0.996, 33.49, 17.935)" fill="#ae96b2" stroke="#ae96b2" stroke-width="1"/>
      <path id="Trazado_375" data-name="Trazado 375" d="M.279,1.36A.331.331,0,0,1,.087,1.3.181.181,0,0,1,.074,1C.446.7.813.389,1.165.07A.328.328,0,0,1,1.551.055a.183.183,0,0,1,.037.3C1.228.68.853,1,.474,1.3A.305.305,0,0,1,.279,1.36Z" transform="matrix(0.996, -0.087, 0.087, 0.996, 23.946, 17.424)" fill="#ae96b2" stroke="#ae96b2" stroke-width="1"/>
      <path id="Trazado_376" data-name="Trazado 376" d="M1.822.979a.354.354,0,0,1-.1-.017C1.182.786.657.6.159.4.022.346-.038.218.025.114A.3.3,0,0,1,.389.024c.486.192,1,.376,1.525.548.141.046.213.171.159.279A.268.268,0,0,1,1.822.979Z" transform="matrix(0.996, -0.087, 0.087, 0.996, 30.284, 17.185)" fill="#ae96b2" stroke="#ae96b2" stroke-width="1"/>
      <path id="Trazado_378" data-name="Trazado 378" d="M1.7,1.163a.341.341,0,0,1-.14-.033C1.058.893.574.641.118.381a.187.187,0,0,1-.07-.3A.322.322,0,0,1,.429.043c.442.252.913.5,1.4.727a.193.193,0,0,1,.1.293A.284.284,0,0,1,1.7,1.163Z" transform="matrix(0.996, -0.087, 0.087, 0.996, 27.268, 16.062)" fill="#ae96b2" stroke="#ae96b2" stroke-width="1"/>
      <path id="Trazado_380" data-name="Trazado 380" d="M.279,1.463a.337.337,0,0,1-.166-.046.186.186,0,0,1-.061-.3C.374.786.688.44.984.09A.32.32,0,0,1,1.362.039a.19.19,0,0,1,.084.3c-.3.357-.622.71-.95,1.049A.294.294,0,0,1,.279,1.463Z" transform="matrix(0.996, -0.087, 0.087, 0.996, 25.887, 15.219)" fill="#ae96b2" stroke="#ae96b2" stroke-width="1"/>
      <path id="Trazado_382" data-name="Trazado 382" d="M1.5,1.352A.334.334,0,0,1,1.321,1.3C.927,1.024.545.737.184.441L.077.352a.18.18,0,0,1,.007-.3A.332.332,0,0,1,.471.072l.1.084c.35.287.72.565,1.1.828a.182.182,0,0,1,.033.3A.3.3,0,0,1,1.5,1.352Z" transform="matrix(0.996, -0.087, 0.087, 0.996, 24.571, 14.531)" fill="#ae96b2" stroke="#ae96b2" stroke-width="1"/>
      <path id="Trazado_384" data-name="Trazado 384" d="M.279,1.548a.341.341,0,0,1-.138-.032.194.194,0,0,1-.106-.292C.3.862.558.487.8.112A.306.306,0,0,1,1.162.025.2.2,0,0,1,1.29.313C1.047.7.785,1.078.513,1.448A.283.283,0,0,1,.279,1.548Z" transform="matrix(0.996, -0.087, 0.087, 0.996, 27.486, 12.864)" fill="#ae96b2" stroke="#ae96b2" stroke-width="1"/>
      <path id="Trazado_385" data-name="Trazado 385" d="M1.222,1.529A.319.319,0,0,1,1,1.438,13.171,13.171,0,0,1,.04.314.183.183,0,0,1,.132.026.328.328,0,0,1,.508.111,12.659,12.659,0,0,0,1.433,1.2a.18.18,0,0,1-.051.3A.316.316,0,0,1,1.222,1.529Z" transform="matrix(0.996, -0.087, 0.087, 0.996, 22.361, 12.59)" fill="#ae96b2" stroke="#ae96b2" stroke-width="1"/>
      <path id="Trazado_387" data-name="Trazado 387" d="M.279,1.618A.352.352,0,0,1,.17,1.6c-.14-.049-.207-.176-.15-.282C.229.929.424.531.6.135A.29.29,0,0,1,.949.015c.143.043.219.166.171.275-.18.4-.38.81-.592,1.205A.271.271,0,0,1,.279,1.618Z" transform="matrix(0.996, -0.087, 0.087, 0.996, 28.725, 10.392)" fill="#ae96b2" stroke="#ae96b2" stroke-width="1"/>
      <path id="Trazado_389" data-name="Trazado 389" d="M.908,1.648a.3.3,0,0,1-.253-.131A11.479,11.479,0,0,1,.015.272C-.034.159.042.041.185.008A.31.31,0,0,1,.532.152a11.129,11.129,0,0,0,.618,1.2.189.189,0,0,1-.132.277A.335.335,0,0,1,.908,1.648Z" transform="matrix(0.996, -0.087, 0.087, 0.996, 20.74, 10.329)" fill="#ae96b2" stroke="#ae96b2" stroke-width="1"/>
      <path id="Trazado_391" data-name="Trazado 391" d="M.279,1.673A.345.345,0,0,1,.2,1.663C.056,1.627-.03,1.507.01,1.4l.074-.212C.2.836.306.493.391.162A.267.267,0,0,1,.712.007C.86.035.957.149.928.263.841.6.735.954.613,1.31l-.076.216A.261.261,0,0,1,.279,1.673Z" transform="matrix(0.996, -0.087, 0.087, 0.996, 29.583, 7.837)" fill="#ae96b2" stroke="#ae96b2" stroke-width="1"/>
      <path id="Trazado_392" data-name="Trazado 392" d="M.552,1.713A.281.281,0,0,1,.28,1.538,9.317,9.317,0,0,1,0,.225C-.014.108.094.008.245,0a.276.276,0,0,1,.3.2A8.99,8.99,0,0,0,.814,1.464c.033.115-.059.226-.207.246A.36.36,0,0,1,.552,1.713Z" transform="matrix(0.996, -0.087, 0.087, 0.996, 19.789, 7.851)" fill="#ae96b2" stroke="#ae96b2" stroke-width="1"/>
      <path id="Trazado_394" data-name="Trazado 394" d="M.28,1.709l-.033,0C.1,1.69-.014,1.582,0,1.466A8.114,8.114,0,0,0,.071.215.241.241,0,0,1,.339,0C.49,0,.614.093.617.21A8.5,8.5,0,0,1,.546,1.528.245.245,0,0,1,.28,1.709Z" transform="matrix(0.996, -0.087, 0.087, 0.996, 29.992, 5.234)" fill="#ae96b2" stroke="#ae96b2" stroke-width="1"/>
      <path id="Trazado_396" data-name="Trazado 396" d="M.279,1.712H.269A.256.256,0,0,1,0,1.486,7.759,7.759,0,0,1,.143.171.262.262,0,0,1,.455,0C.6.028.707.139.684.254A7.43,7.43,0,0,0,.547,1.513.239.239,0,0,1,.279,1.712Z" transform="matrix(0.996, -0.087, 0.087, 0.996, 19.489, 5.283)" fill="#ae96b2" stroke="#ae96b2" stroke-width="1"/>
      <path id="Trazado_397" data-name="Trazado 397" d="M.731,1.687A.277.277,0,0,1,.456,1.5,5.516,5.516,0,0,0,.019.281.194.194,0,0,1,.174.012.314.314,0,0,1,.528.143a5.89,5.89,0,0,1,.466,1.3c.027.116-.072.223-.22.238Z" transform="matrix(0.996, -0.087, 0.087, 0.996, 29.227, 2.726)" fill="#ae96b2" stroke="#ae96b2" stroke-width="1"/>
      <path id="Trazado_399" data-name="Trazado 399" d="M.279,1.609A.355.355,0,0,1,.195,1.6c-.145-.039-.227-.16-.183-.271q.046-.116.1-.232A6.5,6.5,0,0,1,.639.109.309.309,0,0,1,1.006.026a.2.2,0,0,1,.123.289,6.135,6.135,0,0,0-.5.93c-.032.074-.062.148-.092.222A.263.263,0,0,1,.279,1.609Z" transform="matrix(0.996, -0.087, 0.087, 0.996, 19.781, 2.813)" fill="#ae96b2" stroke="#ae96b2" stroke-width="1"/>
      <path id="Trazado_401" data-name="Trazado 401" d="M1.451,1.385a.318.318,0,0,1-.225-.093A5.57,5.57,0,0,0,.108.375a.185.185,0,0,1-.052-.3A.325.325,0,0,1,.439.05a6.105,6.105,0,0,1,1.226,1,.18.18,0,0,1-.055.295A.317.317,0,0,1,1.451,1.385Z" transform="matrix(0.996, -0.087, 0.087, 0.996, 27.066, 0.788)" fill="#ae96b2" stroke="#ae96b2" stroke-width="1"/>
      <path id="Trazado_402" data-name="Trazado 402" d="M.279,1.242A.336.336,0,0,1,.1,1.187a.183.183,0,0,1-.038-.3A4.924,4.924,0,0,1,1.371.027a.329.329,0,0,1,.377.082A.183.183,0,0,1,1.659.4a4.413,4.413,0,0,0-1.174.773A.3.3,0,0,1,.279,1.242Z" transform="matrix(0.996, -0.087, 0.087, 0.996, 21.121, 0.812)" fill="#ae96b2" stroke="#ae96b2" stroke-width="1"/>
      <path id="Trazado_403" data-name="Trazado 403" d="M1.928.635A.369.369,0,0,1,1.837.621,4.749,4.749,0,0,0,.6.426a1.927,1.927,0,0,0-.3,0,.271.271,0,0,1-.3-.2C-.014.114.095.013.245.006.359,0,.472,0,.588,0A5.478,5.478,0,0,1,2.009.224c.143.042.221.165.174.274A.265.265,0,0,1,1.928.635Z" transform="matrix(0.996, -0.087, 0.087, 0.996, 23.884, 0.191)" fill="#ae96b2" stroke="#ae96b2" stroke-width="1"/>
    </g>
  </g>
</svg>
