<svg xmlns="http://www.w3.org/2000/svg" width="107.827" height="107.827" viewBox="0 0 107.827 107.827">
  <g id="Grupo_1235" data-name="Grupo 1235" transform="translate(0.5 0.5)">
    <g id="Grupo_1117" data-name="Grupo 1117">
      <path id="Trazado_1833" data-name="Trazado 1833" d="M80.546,310.479l-7.2-1.046a.522.522,0,0,1-.393-.286l-3.219-6.522a3.652,3.652,0,0,0-6.549,0l-3.219,6.523a.521.521,0,0,1-.393.285l-7.2,1.046a3.651,3.651,0,0,0-2.024,6.228l5.208,5.077a.523.523,0,0,1,.15.462l-1.23,7.169a3.646,3.646,0,0,0,5.3,3.85l6.438-3.385a.531.531,0,0,1,.486,0l6.438,3.385a3.617,3.617,0,0,0,1.7.424,3.655,3.655,0,0,0,3.6-4.273l-1.23-7.169a.522.522,0,0,1,.15-.462l5.209-5.077a3.652,3.652,0,0,0-2.024-6.228Zm-.161,3.987-5.209,5.077a3.651,3.651,0,0,0-1.05,3.232l1.23,7.169a.485.485,0,0,1-.107.417.55.55,0,0,1-.407.2.514.514,0,0,1-.243-.065l-6.438-3.385a3.652,3.652,0,0,0-3.4,0l-6.438,3.385a.515.515,0,0,1-.243.064.551.551,0,0,1-.407-.2.485.485,0,0,1-.107-.417l1.23-7.169a3.651,3.651,0,0,0-1.05-3.232l-5.209-5.077a.522.522,0,0,1,.289-.89l7.2-1.046a3.651,3.651,0,0,0,2.749-2l3.219-6.523a.522.522,0,0,1,.936,0l3.219,6.522a3.651,3.651,0,0,0,2.749,2l7.2,1.046a.522.522,0,0,1,.289.89Z" transform="translate(-38.972 -237.872)" fill="#f7b919" stroke="#f7b919" stroke-width="1"/>
      <path id="Trazado_1834" data-name="Trazado 1834" d="M191.9,83.677A17.213,17.213,0,1,0,175.03,63.022a1.565,1.565,0,1,0,3.067.623,14.084,14.084,0,1,1,0,5.659,1.565,1.565,0,1,0-3.066.627A17.265,17.265,0,0,0,191.9,83.677Z" transform="translate(-138.486 -38.974)" fill="#f7b919" stroke="#f7b919" stroke-width="1"/>
      <path id="Trazado_1835" data-name="Trazado 1835" d="M325.412,320.41a1.565,1.565,0,1,0-2.71,1.565l6.306,10.923a.522.522,0,0,1-.452.782H301.47a.522.522,0,0,1-.452-.782l13.543-23.457a.522.522,0,0,1,.9,0l4,6.921a1.565,1.565,0,1,0,2.71-1.565l-4-6.921a3.651,3.651,0,0,0-6.324,0l-13.543,23.457a3.651,3.651,0,0,0,3.162,5.477h27.086a3.651,3.651,0,0,0,3.162-5.477Z" transform="translate(-235.675 -242.194)" fill="#f7b919" stroke="#f7b919" stroke-width="1"/>
      <path id="Trazado_1836" data-name="Trazado 1836" d="M92.743,51.848H75.657A14.061,14.061,0,0,0,80.9,40.895V14.084A14.1,14.1,0,0,0,66.819,0H40.008A14.1,14.1,0,0,0,25.924,14.084V40.895a14.061,14.061,0,0,0,5.245,10.954H14.084A14.1,14.1,0,0,0,0,65.932V92.743a14.1,14.1,0,0,0,14.084,14.084H40.895a14.1,14.1,0,0,0,12.519-7.644,14.1,14.1,0,0,0,12.519,7.644H92.743a14.1,14.1,0,0,0,14.084-14.084V65.932A14.1,14.1,0,0,0,92.743,51.848ZM29.054,40.895V14.084A10.966,10.966,0,0,1,40.008,3.13H66.819A10.966,10.966,0,0,1,77.773,14.084V40.895A10.966,10.966,0,0,1,66.819,51.848H40.008A10.966,10.966,0,0,1,29.054,40.895Zm28.04,14.084a14.177,14.177,0,0,0-3.68,4.514,14.174,14.174,0,0,0-3.68-4.514ZM40.895,103.7H14.084A10.966,10.966,0,0,1,3.13,92.743V65.932A10.966,10.966,0,0,1,14.084,54.978H40.895A10.966,10.966,0,0,1,51.848,65.932V92.743A10.966,10.966,0,0,1,40.895,103.7Zm62.8-10.954A10.966,10.966,0,0,1,92.743,103.7H65.932A10.966,10.966,0,0,1,54.978,92.743V65.932A10.966,10.966,0,0,1,65.932,54.978H92.743A10.966,10.966,0,0,1,103.7,65.932Z" fill="#f7b919" stroke="#f7b919" stroke-width="1"/>
    </g>
  </g>
</svg>
