<svg xmlns="http://www.w3.org/2000/svg" width="33.008" height="40.966" viewBox="0 0 33.008 40.966">
  <g id="Grupo_761" data-name="Grupo 761" transform="translate(-226.937 -89.687)">
    <path id="Trazado_618" data-name="Trazado 618" d="M245.2,91.272c-3.165.189-6.1,3.249-6.2,5.983a7.112,7.112,0,0,0,6.2-5.983m2.01.033c-.254,2.668,3.526,6.527,6.08,6.206a7.08,7.08,0,0,0-6.08-6.206m-8.336,7.507a7.268,7.268,0,0,0,7.292,6.938,7.172,7.172,0,0,0,7.166-6.627,8.6,8.6,0,0,1-4.342-1.735,9.2,9.2,0,0,1-2.875-3.8,9.145,9.145,0,0,1-2.943,3.615,8.882,8.882,0,0,1-4.3,1.6m-1.588.038c-3.137.047-6.153,3.061-6.442,6.469H234v1.429h-4.7a8.669,8.669,0,0,1,2.072-6.381,8.788,8.788,0,0,1,6.015-3.075,8.742,8.742,0,0,1,3.748-6.066,8.434,8.434,0,0,1,5.839-1.483,8.749,8.749,0,0,1,.231,17.383,8.82,8.82,0,0,1-9.93-8.276" transform="translate(0.509 0)" fill="#7dc7c5"/>
    <path id="Trazado_619" data-name="Trazado 619" d="M233.2,116.6c-.54.172-1.04.327-1.538.49a4.412,4.412,0,0,0-3.194,3.939,4.306,4.306,0,0,0,2.086,4.3,4.353,4.353,0,0,0,4.893.08q4.919-2.94,9.823-5.9c.189-.113.367-.242.567-.374-2.03-1.684-2.563-2.823-2.715-5.816l-8.5,2.812a11.377,11.377,0,0,0,2.7,4.6l-.949,1.106A13.065,13.065,0,0,1,233.2,116.6m-.377-1.453A12.775,12.775,0,0,1,236.4,103.82l.876,1.166a11.242,11.242,0,0,0-2.611,4.356,10.785,10.785,0,0,0-.365,5.308c.33-.1.612-.173.889-.264,2.752-.909,5.5-1.828,8.261-2.717a.943.943,0,0,1,.784.085c.3.276.723.481.562,1.119a4.465,4.465,0,0,0,2.46,5.3c.569.288.419.765.476,1.173.024.183-.2.484-.4.6-3.817,2.324-7.605,4.7-11.485,6.916a6.07,6.07,0,1,1-4.623-11.168c.531-.136,1.042-.354,1.588-.543" transform="translate(0 3.064)" fill="#7dc7c5"/>
    <path id="Trazado_620" data-name="Trazado 620" d="M248.282,107.8a4.611,4.611,0,1,0,4.647,4.574,4.617,4.617,0,0,0-4.647-4.574m-.1,10.686a6.094,6.094,0,1,1,6.248-6.055,6.145,6.145,0,0,1-6.248,6.055" transform="translate(3.305 3.602)" fill="#7dc7c5"/>
    <path id="Trazado_621" data-name="Trazado 621" d="M251.178,121.793l-.921-1c4.3-5.268,4.309-10.6-.027-15.966l.931-.916c4.545,4.131,5.391,12.537.017,17.885" transform="translate(5.05 3.083)" fill="#7dc7c5"/>
  </g>
</svg>
