<svg xmlns="http://www.w3.org/2000/svg" width="120.452" height="112.12" viewBox="0 0 120.452 112.12">
  <path id="Trazado_1838" data-name="Trazado 1838" d="M119.269,118.74l-18.36-37.964a1.769,1.769,0,0,0-3.186,1.541l17.59,36.371-12.953,6.265L73.706,65.7,86.66,59.44l7.184,14.854a1.769,1.769,0,1,0,3.185-1.541L89.075,56.306a1.77,1.77,0,0,0-2.363-.822L72.89,62.168V55.59a1.769,1.769,0,0,0-1.769-1.769H49.773V39.432H71.121a1.769,1.769,0,0,0,1.769-1.77V19.735a1.769,1.769,0,0,0-1.769-1.77H56.184a1.769,1.769,0,1,0,0,3.538H69.352V35.893H3.538V21.5H47.928a1.769,1.769,0,1,0,0-3.538H1.77A1.769,1.769,0,0,0,0,19.735V37.663a1.769,1.769,0,0,0,1.77,1.769H23.118V53.821H1.77A1.769,1.769,0,0,0,0,55.59V127.3a1.769,1.769,0,0,0,1.77,1.769H71.121a1.769,1.769,0,0,0,1.77-1.769V91.446a1.769,1.769,0,0,0-1.77-1.77H49.773V75.286H71.121a1.769,1.769,0,0,0,1.769-1.77V72.145l27.054,55.941a1.769,1.769,0,0,0,2.363.822l16.14-7.805a1.769,1.769,0,0,0,.822-2.363ZM26.656,39.432H46.235V53.821H26.656ZM23.118,89.676H3.538V75.286H23.118ZM3.538,111.142H23.118v14.389H3.538Zm23.117,0H46.235v14.389H26.656Zm42.7,14.389H49.773V111.142H69.352Zm0-17.928H3.538V93.215H69.352ZM46.235,89.676H26.656V75.286H46.235ZM69.352,71.748H3.538V57.358H69.352Z" transform="translate(0.5 -17.465)" fill="#eb477a" stroke="#eb477a" stroke-width="1"/>
</svg>
