<svg xmlns="http://www.w3.org/2000/svg" width="109.537" height="125.558" viewBox="0 0 109.537 125.558">
  <g id="Grupo_1234" data-name="Grupo 1234" transform="translate(0.675 0.552)">
    <path id="Trazado_622" data-name="Trazado 622" d="M428.512,394.063c5.85,3.754,11.684,9.96,17.285,17.932a144.246,144.246,0,0,1,9.48,15.624c.982,1.868,1.844,3.6,2.581,5.15.439.924.737,1.574.883,1.906a3.221,3.221,0,0,0,5.9-2.585c-.174-.389-.5-1.1-.966-2.088-.775-1.624-1.678-3.435-2.7-5.378a150.59,150.59,0,0,0-9.906-16.328c-6.045-8.6-12.409-15.371-19.079-19.651a3.219,3.219,0,0,0-3.476,5.419" transform="translate(-365.38 -312.237)" fill="#ae96b2" stroke="#ae96b2" stroke-width="1"/>
    <path id="Trazado_623" data-name="Trazado 623" d="M448.957,438.9h0a32.192,32.192,0,1,1,32.192-32.192A32.194,32.194,0,0,1,448.957,438.9m0-6.439h0A25.754,25.754,0,1,0,423.2,406.708a25.754,25.754,0,0,0,25.754,25.754" transform="translate(-397.65 -355.037)" fill="#ae96b2" stroke="#ae96b2" stroke-width="1"/>
    <path id="Trazado_624" data-name="Trazado 624" d="M422.2,376.012s2.689,13.5,13.527,21.917,15.976,8.908,26.135,8.908c0,0,1.284-21.031-14.323-28.277s-25.34-2.548-25.34-2.548" transform="translate(-380.554 -355.037)" fill="#ae96b2" stroke="#ae96b2" stroke-width="1"/>
    <path id="Trazado_625" data-name="Trazado 625" d="M456.378,376.908s-2.685,12.09-13.5,19.626-15.947,7.98-26.085,7.98a30.58,30.58,0,0,1,17.691-25.269c17.19-8.067,21.9-2.337,21.9-2.337" transform="translate(-397.572 -353.72)" fill="#ae96b2" stroke="#ae96b2" stroke-width="1"/>
    <path id="Trazado_626" data-name="Trazado 626" d="M466.327,374.287c3.107,4.781-2.519,13.95-12.562,20.471s-20.7,7.93-23.807,3.149,2.515-13.95,12.558-20.472,20.7-7.934,23.811-3.149" transform="translate(-358.871 -364.673)" fill="#ae96b2" stroke="#ae96b2" stroke-width="1"/>
    <path id="Trazado_627" data-name="Trazado 627" d="M414.156,371.238c4.238-3.816,14.169.3,22.182,9.2s11.075,19.208,6.836,23.028-14.17-.307-22.183-9.206-11.075-19.208-6.836-23.024" transform="translate(-411.846 -369.814)" fill="#ae96b2" stroke="#ae96b2" stroke-width="1"/>
    <path id="Trazado_628" data-name="Trazado 628" d="M427.809,402.045h0a4.829,4.829,0,1,1,4.827-4.827,4.826,4.826,0,0,1-4.827,4.827" transform="translate(-378.109 -298.865)" fill="#ae96b2" stroke="#ae96b2" stroke-width="1"/>
    <path id="Trazado_629" data-name="Trazado 629" d="M427.809,406.707h0a4.829,4.829,0,1,1,4.827-4.827,4.826,4.826,0,0,1-4.827,4.827" transform="translate(-378.109 -284.211)" fill="#ae96b2" stroke="#ae96b2" stroke-width="1"/>
    <path id="Trazado_630" data-name="Trazado 630" d="M418.195,432.136c.17-.307.506-.9,1.007-1.753.841-1.429,1.823-3.025,2.929-4.744a145.678,145.678,0,0,1,10.528-14.4c6.608-7.9,13.337-13.925,19.879-17.294a3.22,3.22,0,1,0-2.946-5.726c-7.437,3.828-14.762,10.383-21.872,18.893a150.948,150.948,0,0,0-11,15.044c-1.156,1.794-2.179,3.459-3.066,4.959-.535.907-.907,1.562-1.106,1.926a3.22,3.22,0,1,0,5.647,3.1" transform="translate(-412.151 -313.088)" fill="#ae96b2" stroke="#ae96b2" stroke-width="1"/>
  </g>
</svg>
