<svg xmlns="http://www.w3.org/2000/svg" width="87.532" height="116.377" viewBox="0 0 87.532 116.377">
  <g id="Grupo_1237" data-name="Grupo 1237" transform="translate(-63.504 0.5)">
    <g id="Grupo_1128" data-name="Grupo 1128" transform="translate(64.004 0)">
      <g id="Grupo_1127" data-name="Grupo 1127" transform="translate(0)">
        <path id="Trazado_1839" data-name="Trazado 1839" d="M140.921,14.424h-4.807V9.457A9.477,9.477,0,0,0,126.5,0a9.627,9.627,0,0,0-2.149.3L73.1,14.476A9.6,9.6,0,0,0,64,24.039v81.724a9.624,9.624,0,0,0,9.615,9.615h67.3a9.624,9.624,0,0,0,9.615-9.615V24.039A9.624,9.624,0,0,0,140.921,14.424ZM125.586,4.95a4.69,4.69,0,0,1,5.72,4.507v4.967H91.329Zm20.142,100.813a4.814,4.814,0,0,1-4.807,4.807h-67.3a4.814,4.814,0,0,1-4.807-4.807V24.039a4.814,4.814,0,0,1,4.807-4.807h67.3a4.814,4.814,0,0,1,4.807,4.807Z" transform="translate(-64.004 0)" fill="#7dc7c5" stroke="#7dc7c5" stroke-width="1"/>
        <path id="Trazado_1840" data-name="Trazado 1840" d="M205.524,215.176a14.086,14.086,0,0,1-3.606.519A14.438,14.438,0,0,1,187.5,201.273a14.086,14.086,0,0,1,.519-3.605,2.4,2.4,0,0,0-2.929-2.932,19.195,19.195,0,1,0,23.37,23.37,2.4,2.4,0,0,0-2.932-2.929ZM189.9,227.713a14.385,14.385,0,0,1-7.206-26.856c0,.139,0,.277,0,.416A19.282,19.282,0,0,0,202.334,220.5,14.359,14.359,0,0,1,189.9,227.713Z" transform="translate(-146.634 -150.794)" fill="#7dc7c5" stroke="#7dc7c5" stroke-width="1"/>
      </g>
    </g>
  </g>
</svg>
