<svg xmlns="http://www.w3.org/2000/svg" width="80" height="80" viewBox="0 0 80 80">
  <g id="Grupo_863" data-name="Grupo 863" transform="translate(877 -1398.845)">
    <path id="Trazado_1837" data-name="Trazado 1837" d="M40,0A40,40,0,1,1,0,40,40,40,0,0,1,40,0Z" transform="translate(-877 1398.845)" fill="#7dc7c5"/>
    <g id="_5" data-name="5" transform="translate(-858.438 1416.409)">
      <g id="Grupo_91" data-name="Grupo 91" transform="translate(0)">
        <path id="Trazado_239" data-name="Trazado 239" d="M57.623,27.051a8.427,8.427,0,0,0-7.108,3.909l-9.052-5.174a7.945,7.945,0,0,0,.546-6.237l9.419-5.382A8.427,8.427,0,1,0,49.17,8.454a8.377,8.377,0,0,0,.4,2.43l-9.419,5.383a8.463,8.463,0,1,0-1.091,12.41l10.2,5.914a8.647,8.647,0,0,0-.091.915,8.454,8.454,0,1,0,8.453-8.454Z" transform="translate(-25.5 0)" fill="#fff"/>
      </g>
    </g>
  </g>
</svg>
