<svg xmlns="http://www.w3.org/2000/svg" width="254.308" height="199.412" viewBox="0 0 254.308 199.412">
  <g id="Objeto_inteligente_vectorial" data-name="Objeto inteligente vectorial" transform="matrix(0.875, 0.485, -0.485, 0.875, 200.726, -559.583)">
    <g id="Objeto_inteligente_vectorial-2" data-name="Objeto inteligente vectorial" transform="translate(136.636 564.063)">
      <path id="Trazado_11" data-name="Trazado 11" d="M204.3,573.241a6.971,6.971,0,0,1-1.289-9.125l-.072-.053a7.114,7.114,0,0,1-9.483,1.2l-.021.028a6.98,6.98,0,0,1,1.657,9.179l.107.079a7.1,7.1,0,0,1,9.037-1.222Z" transform="translate(-32.756 -564.063)" fill="#fff"/>
      <path id="Trazado_12" data-name="Trazado 12" d="M195.624,603.636a6.971,6.971,0,0,1-1.289-9.125l-.072-.053a7.114,7.114,0,0,1-9.483,1.2l-.021.028a6.979,6.979,0,0,1,1.657,9.178l.107.079a7.1,7.1,0,0,1,9.037-1.222Z" transform="translate(-48.629 -508.478)" fill="#fff"/>
      <path id="Trazado_13" data-name="Trazado 13" d="M147.5,597.833a6.971,6.971,0,0,1-1.289-9.125l-.072-.053a7.114,7.114,0,0,1-9.483,1.2l-.021.028a6.979,6.979,0,0,1,1.657,9.178l.107.08a7.1,7.1,0,0,1,9.037-1.222Z" transform="translate(-136.635 -519.09)" fill="#fff"/>
      <path id="Trazado_14" data-name="Trazado 14" d="M219.474,599.848a3.448,3.448,0,0,0,4.8-.694,3.386,3.386,0,0,0-.7-4.763,3.446,3.446,0,0,0-4.8.694,3.385,3.385,0,0,0,.7,4.763" transform="translate(12.337 -509.834)" fill="#fff"/>
      <path id="Trazado_15" data-name="Trazado 15" d="M172.123,573.7a3.449,3.449,0,0,0,4.8-.694,3.386,3.386,0,0,0-.7-4.763,3.446,3.446,0,0,0-4.8.694,3.385,3.385,0,0,0,.7,4.763" transform="translate(-74.259 -557.65)" fill="#fff"/>
    </g>
    <path id="Color_Overlay" data-name="Color Overlay" d="M137.787,96.383a6.981,6.981,0,0,0-1.657-9.178l.02-.028a7.115,7.115,0,0,0,9.484-1.2l.071.051A6.974,6.974,0,0,0,147,95.159l-.064.084a7.1,7.1,0,0,0-9.038,1.222Zm94.023-6.37a3.387,3.387,0,0,1-.7-4.763,3.447,3.447,0,0,1,4.8-.693,3.385,3.385,0,0,1,.7,4.763,3.446,3.446,0,0,1-4.8.693ZM1.657,79.97A6.978,6.978,0,0,0,0,70.792l.023-.028a7.113,7.113,0,0,0,9.481-1.2l.074.053a6.97,6.97,0,0,0,1.288,9.125l-.064.084a7.1,7.1,0,0,0-9.038,1.222ZM97.865,16.052a3.385,3.385,0,0,1-.7-4.763,3.447,3.447,0,0,1,4.8-.695,3.39,3.39,0,0,1,.7,4.763,3.45,3.45,0,0,1-4.8.695Zm64.475-5.647a6.984,6.984,0,0,0-1.657-9.181l.02-.028A7.113,7.113,0,0,0,170.187,0l.071.054a6.971,6.971,0,0,0,1.291,9.125l-.064.084a7.1,7.1,0,0,0-9.038,1.222Z" transform="translate(136.635 564.063)" fill="#2e335e"/>
  </g>
</svg>
