<svg xmlns="http://www.w3.org/2000/svg" width="434.439" height="184.206" viewBox="0 0 434.439 184.206">
  <g id="Grupo_1149" data-name="Grupo 1149" transform="translate(3 2.148)">
    <g id="Grupo_289" data-name="Grupo 289" transform="translate(0 71.468)">
      <text id="PROPOSITO" transform="translate(101.821 95.59)" fill="#7dc7c5" stroke="#7dc7c5" stroke-width="3" font-size="51" font-family="Helvetica" letter-spacing="0.05em"><tspan x="0" y="0">PROPOSITO</tspan></text>
      <text id="_" data-name="´" transform="translate(271.988 81.192)" fill="#7dc7c5" stroke="#7dc7c5" stroke-width="3" font-size="50" font-family="Helvetica" letter-spacing="0.05em"><tspan x="0" y="0">´</tspan></text>
      <text id="NUESTRO" transform="translate(0 42)" fill="#7dc7c5" stroke="#7dc7c5" stroke-width="3" font-size="51" font-family="Helvetica" letter-spacing="0.05em"><tspan x="0" y="0">NUESTRO</tspan></text>
    </g>
    <path id="Trazado_605" data-name="Trazado 605" d="M176.348,237.749a7.1,7.1,0,0,0-5.913-3.048c-3.815.19-5.577,4.322-4.767,6.477,1.715,4.572,9.535,9.539,10.68,10.858,3.052-2.286,9.538-8.763,9.92-11.049C187.413,238.13,183.429,230.455,176.348,237.749ZM155.358,251.5a6.411,6.411,0,0,0-5.339-2.752,4.781,4.781,0,0,0-4.305,5.848c1.55,4.128,8.61,8.611,9.644,9.8,2.753-2.063,8.609-7.91,8.952-9.974C165.343,251.846,161.747,244.918,155.358,251.5ZM131.8,236.582s-2.85-4.4-8.03-4.139-7.573,5.869-6.476,8.8c2.331,6.209,12.952,12.955,14.506,14.746,4.145-3.1,12.952-11.9,13.469-15C146.829,237.1,141.42,226.677,131.8,236.582Zm91.181,78.648,23.833,12.936m-19.688-21.473L252,319.37m-24.869-22.249H252m-24.869-9.831H252m-24.869-10.866L252,265.3m-29.014,3.1,25.127-12.419M119.63,290.319a10.615,10.615,0,0,1,10.621-10.607m10.621-6.392v40.248m62.947-60.945s-17.874,14.488-28.872,17.334c-8.059,2.085-34.075,3.363-34.075,3.363H128.7s-16.062,2.025-16.062,18.734,14.247,21.884,19.43,21.884,26.939-1.812,32.637,0c17.1,1.293,39.115,17.075,39.115,19.919m6.994,9.831h0a7.01,7.01,0,0,1-6.994-6.985V251.588a6.994,6.994,0,0,1,13.988,0V336.7A7.01,7.01,0,0,1,210.812,343.688Zm-84.2-30.634,6.491,33.738s1.555,4.916,6.477,4.916,5.7-5.174,5.7-8.8.068-29.513.068-29.513" transform="translate(176.749 -232.43)" fill="none" stroke="#7dc7c5" stroke-linecap="round" stroke-linejoin="round" stroke-width="4"/>
  </g>
</svg>
