<svg id="Grupo_206" data-name="Grupo 206" xmlns="http://www.w3.org/2000/svg" width="49.998" height="50" viewBox="0 0 49.998 50">
  <path id="Trazado_463" data-name="Trazado 463" d="M192.983,452a.983.983,0,1,0,.7.288A.991.991,0,0,0,192.983,452Z" transform="translate(-173.255 -407.899)" fill="#2e335e"/>
  <path id="Trazado_464" data-name="Trazado 464" d="M48.957,13.313a3.563,3.563,0,0,0-5.033,0l-4.471,4.471V3.32A3.324,3.324,0,0,0,36.133,0H3.32A3.324,3.324,0,0,0,0,3.32V46.68A3.324,3.324,0,0,0,3.32,50H36.133a3.324,3.324,0,0,0,3.32-3.32V27.851l9.5-9.5A3.563,3.563,0,0,0,48.957,13.313ZM37.5,3.32V19.737L35.547,21.69V4.883a.977.977,0,0,0-.977-.977H28.044V1.953h8.089A1.369,1.369,0,0,1,37.5,3.32ZM32.168,30.1l1.318-2.962,1.643,1.643ZM26.091,1.953V5.933a1.1,1.1,0,0,1-1.1,1.1H14.461a1.1,1.1,0,0,1-1.1-1.1V1.953ZM36.133,48.047H3.32A1.369,1.369,0,0,1,1.953,46.68V3.32A1.369,1.369,0,0,1,3.32,1.953h8.089V3.906H4.883a.977.977,0,0,0-.977.977V45.117a.977.977,0,0,0,.977.977H15.82a.977.977,0,1,0,0-1.953H5.859V5.859h5.55v.073a3.055,3.055,0,0,0,3.052,3.052H24.992a3.055,3.055,0,0,0,3.052-3.052V5.859h5.55V23.643l-1.112,1.112a.989.989,0,0,0-.2.293l-2.931,6.584a.977.977,0,0,0,1.289,1.29l2.956-1.316V44.141H23.633a.977.977,0,0,0,0,1.953H34.57a.977.977,0,0,0,.977-.977V30.736l1.675-.746A.974.974,0,0,0,37.5,29.8V46.68A1.369,1.369,0,0,1,36.133,48.047Zm7.8-27.442-7.112,7.112-2.272-2.272,8.805-8.805,2.272,2.272Zm3.64-3.64-.565.565L44.74,15.259l.565-.565a1.606,1.606,0,0,1,2.272,2.271Z" fill="#2e335e"/>
  <path id="Trazado_465" data-name="Trazado 465" d="M95.275,120H88.983a.983.983,0,0,0-.983.983v6.292a.983.983,0,0,0,.983.983h6.292a.983.983,0,0,0,.983-.983v-6.292A.983.983,0,0,0,95.275,120Zm-.983,6.292H89.966v-4.326h4.326Z" transform="translate(-79.418 -108.297)" fill="#2e335e"/>
  <path id="Trazado_466" data-name="Trazado 466" d="M95.275,230H88.983a.983.983,0,0,0-.983.983v6.292a.983.983,0,0,0,.983.983h6.292a.983.983,0,0,0,.983-.983v-6.292A.983.983,0,0,0,95.275,230Zm-.983,6.292H89.966v-4.326h4.326Z" transform="translate(-79.418 -207.569)" fill="#2e335e"/>
  <path id="Trazado_467" data-name="Trazado 467" d="M95.275,340H88.983a.983.983,0,0,0-.983.983v6.292a.983.983,0,0,0,.983.983h6.292a.983.983,0,0,0,.983-.983v-6.292A.983.983,0,0,0,95.275,340Zm-.983,6.292H89.966v-4.326h4.326Z" transform="translate(-79.418 -306.84)" fill="#2e335e"/>
  <path id="Trazado_468" data-name="Trazado 468" d="M210.877,135.542a.983.983,0,0,0,1.39,0l4.438-4.439a.983.983,0,1,0-1.39-1.39l-3.743,3.743-1.492-1.492a.983.983,0,0,0-1.391,1.39Z" transform="translate(-188.078 -116.799)" fill="#2e335e"/>
  <path id="Trazado_469" data-name="Trazado 469" d="M210.877,245.545a.983.983,0,0,0,1.39,0l4.438-4.438a.983.983,0,1,0-1.39-1.391l-3.743,3.744-1.492-1.492a.983.983,0,0,0-1.391,1.39Z" transform="translate(-188.078 -216.07)" fill="#2e335e"/>
  <path id="Trazado_470" data-name="Trazado 470" d="M222.729,354.018l1.524,1.524a.983.983,0,1,0,1.39-1.39l-1.524-1.524,1.524-1.524a.983.983,0,0,0-1.39-1.39l-1.524,1.524-1.524-1.524a.983.983,0,0,0-1.391,1.39l1.524,1.524-1.524,1.524a.983.983,0,0,0,1.391,1.39Z" transform="translate(-198.109 -315.335)" fill="#2e335e"/>
</svg>
