<svg xmlns="http://www.w3.org/2000/svg" width="38.238" height="53.619" viewBox="0 0 38.238 53.619">
  <g id="Grupo_1086" data-name="Grupo 1086" transform="translate(-173.086 -121.365)">
    <path id="Trazado_5" data-name="Trazado 5" d="M179.282,144.063l-2.972,1.51.194-3.449a10.437,10.437,0,0,1,3.31-7.136l.985-.887a1.3,1.3,0,0,1,1.584-.118l1.852,1.293a1.361,1.361,0,0,1,.5,1.574l-.405,1.29a10.487,10.487,0,0,1-5.048,5.923m7.442-6.526a3.649,3.649,0,0,0-1.29-4.137l-1.851-1.293a3.24,3.24,0,0,0-4.151.339l-.986.887a13.026,13.026,0,0,0-4.024,8.648l-.277,5.142a1.178,1.178,0,0,0,.5,1.049,1.068,1.068,0,0,0,1.119.082l4.443-2.233a12.309,12.309,0,0,0,6.108-7.194Z" transform="translate(2.301 26.428)" fill="#ef8b44" stroke="#ef8b44" stroke-miterlimit="10" stroke-width="0.349"/>
    <path id="Trazado_6" data-name="Trazado 6" d="M187.1,131.54a3.04,3.04,0,0,1-4.346.9,3.349,3.349,0,0,1-.864-4.539,3.038,3.038,0,0,1,4.345-.9,3.4,3.4,0,0,1,.865,4.539m-6.946-4.849a5.648,5.648,0,0,0,1.44,7.565,5.121,5.121,0,0,0,7.242-1.5,5.648,5.648,0,0,0-1.441-7.565,5.12,5.12,0,0,0-7.241,1.5" transform="translate(15.951 7.229)" fill="#ef8b44" stroke="#ef8b44" stroke-miterlimit="10" stroke-width="0.349"/>
    <path id="Trazado_7" data-name="Trazado 7" d="M199.068,158.995a47.23,47.23,0,0,0,5.511-7.7,18.476,18.476,0,0,1-1.016,10.75l-1.064,2.581Zm-4.133,1.225c-.077.121-.232.1-.346.02l-3.319-2.667a45.95,45.95,0,0,0-5.151-3.6l-3.8-2.3a.259.259,0,0,1-.116-.342l.039-.061a46.134,46.134,0,0,1,24.875-26.716l1.99-.884-.022,2.782a46.7,46.7,0,0,1-14.149,33.768m-19.484-14.565,1.874-2.016a16.863,16.863,0,0,1,9.177-5.052,54.362,54.362,0,0,0-4.8,8.285Zm30.023,17.2a21.093,21.093,0,0,0,.536-14.32,49.028,49.028,0,0,0,5.14-22.04l-.035-2.824a2.171,2.171,0,0,0-.887-1.755,1.887,1.887,0,0,0-1.891-.184l-2.086.9a46.273,46.273,0,0,0-17.892,13.574,18.725,18.725,0,0,0-12.575,5.915l-1.913,2.075a2.221,2.221,0,0,0-.485,2.2,1.963,1.963,0,0,0,.752,1.049,2.089,2.089,0,0,0,.869.344l5.79,1.158c-.193.564-.445,1.089-.638,1.652l-.02.161a2.5,2.5,0,0,0,.982,2.785l.115.081,3.8,2.3a41.746,41.746,0,0,1,4.919,3.435l3.319,2.667a2.313,2.313,0,0,0,3.031-.159,14.654,14.654,0,0,0,1.218-1.249l3.238,5.147a2.2,2.2,0,0,0,.636.707,1.837,1.837,0,0,0,1.216.324,2.07,2.07,0,0,0,1.759-1.31Z" transform="translate(0 0)" fill="#ef8b44" stroke="#ef8b44" stroke-miterlimit="10" stroke-width="0.349"/>
  </g>
</svg>
