<svg id="Grupo_1111" data-name="Grupo 1111" xmlns="http://www.w3.org/2000/svg" width="50" height="50" viewBox="0 0 50 50">
  <g id="Grupo_1090" data-name="Grupo 1090">
    <g id="Grupo_1089" data-name="Grupo 1089">
      <path id="Trazado_1872" data-name="Trazado 1872" d="M45.117,4.3H40.462V2.93a2.93,2.93,0,1,0-5.859,0V4.3H18.2V2.93a2.93,2.93,0,0,0-5.859,0v1.4a.974.974,0,0,0-.26-.036H8.186A4.888,4.888,0,0,0,3.3,9.18V25.814a.977.977,0,0,0,1.953,0V14.355H40.462a.977.977,0,0,0,0-1.953H5.256V9.18a2.933,2.933,0,0,1,2.93-2.93h3.891a.978.978,0,0,0,.26-.036V7.471a2.93,2.93,0,0,0,5.859,0V6.25H34.6V7.471a2.93,2.93,0,0,0,5.859,0V6.25h4.655a2.933,2.933,0,0,1,2.93,2.93V46.288a1.758,1.758,0,1,1-3.517,0V43.762a.977.977,0,0,0-.977-.977H32.194a.977.977,0,1,0,0,1.953H42.577v1.55a3.689,3.689,0,0,0,.444,1.758H3.711a1.76,1.76,0,0,1-1.758-1.758v-1.55H23.811a.977.977,0,1,0,0-1.953H14.054a8.008,8.008,0,1,0-10.436,0H.977A.977.977,0,0,0,0,43.762v2.527A3.715,3.715,0,0,0,3.711,50H46.288A3.716,3.716,0,0,0,50,46.288V9.18A4.888,4.888,0,0,0,45.117,4.3ZM16.243,7.471a.977.977,0,1,1-1.953,0V2.93a.977.977,0,1,1,1.953,0Zm22.266,0a.977.977,0,1,1-1.953,0V2.93a.977.977,0,1,1,1.953,0ZM2.781,36.719a6.055,6.055,0,1,1,6.055,6.055A6.062,6.062,0,0,1,2.781,36.719Z" fill="#2e335e"/>
    </g>
  </g>
  <g id="Grupo_1092" data-name="Grupo 1092" transform="translate(42.983 12.31)">
    <g id="Grupo_1091" data-name="Grupo 1091">
      <path id="Trazado_1873" data-name="Trazado 1873" d="M453.211,127.338a1.154,1.154,0,1,0,.339.816A1.163,1.163,0,0,0,453.211,127.338Z" transform="translate(-451.24 -127)" fill="#2e335e"/>
    </g>
  </g>
  <g id="Grupo_1094" data-name="Grupo 1094" transform="translate(27.294 41.47)">
    <g id="Grupo_1093" data-name="Grupo 1093">
      <path id="Trazado_1874" data-name="Trazado 1874" d="M283.551,438.467a1.156,1.156,0,1,0,.338.817A1.162,1.162,0,0,0,283.551,438.467Z" transform="translate(-281.58 -438.13)" fill="#2e335e"/>
    </g>
  </g>
  <g id="Grupo_1096" data-name="Grupo 1096" transform="translate(17.798 28.743)">
    <g id="Grupo_1095" data-name="Grupo 1095">
      <path id="Trazado_1875" data-name="Trazado 1875" d="M192.633,304a4.388,4.388,0,1,0,4.388,4.388A4.393,4.393,0,0,0,192.633,304Zm0,6.467a2.079,2.079,0,1,1,2.079-2.079A2.081,2.081,0,0,1,192.633,310.467Z" transform="translate(-188.245 -304)" fill="#2e335e"/>
    </g>
  </g>
  <g id="Grupo_1098" data-name="Grupo 1098" transform="translate(26.623 28.743)">
    <g id="Grupo_1097" data-name="Grupo 1097">
      <path id="Trazado_1876" data-name="Trazado 1876" d="M285.966,304a4.388,4.388,0,1,0,4.388,4.388A4.393,4.393,0,0,0,285.966,304Zm0,6.467a2.079,2.079,0,1,1,2.079-2.079A2.081,2.081,0,0,1,285.966,310.467Z" transform="translate(-281.578 -304)" fill="#2e335e"/>
    </g>
  </g>
  <g id="Grupo_1100" data-name="Grupo 1100" transform="translate(34.169 28.743)">
    <g id="Grupo_1099" data-name="Grupo 1099">
      <path id="Trazado_1877" data-name="Trazado 1877" d="M379.3,304a4.388,4.388,0,1,0,4.388,4.388A4.393,4.393,0,0,0,379.3,304Zm0,6.467a2.079,2.079,0,1,1,2.079-2.079A2.081,2.081,0,0,1,379.3,310.467Z" transform="translate(-374.912 -304)" fill="#2e335e"/>
    </g>
  </g>
  <g id="Grupo_1102" data-name="Grupo 1102" transform="translate(8.974 18.91)">
    <g id="Grupo_1101" data-name="Grupo 1101">
      <path id="Trazado_1878" data-name="Trazado 1878" d="M99.3,200a4.388,4.388,0,1,0,4.388,4.388A4.393,4.393,0,0,0,99.3,200Zm0,6.467a2.079,2.079,0,1,1,2.079-2.079A2.081,2.081,0,0,1,99.3,206.467Z" transform="translate(-94.912 -200)" fill="#2e335e"/>
    </g>
  </g>
  <g id="Grupo_1104" data-name="Grupo 1104" transform="translate(26.623 18.91)">
    <g id="Grupo_1103" data-name="Grupo 1103">
      <path id="Trazado_1879" data-name="Trazado 1879" d="M285.966,200a4.388,4.388,0,1,0,4.388,4.388A4.393,4.393,0,0,0,285.966,200Zm0,6.467a2.079,2.079,0,1,1,2.079-2.079A2.081,2.081,0,0,1,285.966,206.467Z" transform="translate(-281.578 -200)" fill="#2e335e"/>
    </g>
  </g>
  <g id="Grupo_1106" data-name="Grupo 1106" transform="translate(34.169 18.91)">
    <g id="Grupo_1105" data-name="Grupo 1105">
      <path id="Trazado_1880" data-name="Trazado 1880" d="M379.3,200a4.388,4.388,0,1,0,4.388,4.388A4.393,4.393,0,0,0,379.3,200Zm0,6.467a2.079,2.079,0,1,1,2.079-2.079A2.081,2.081,0,0,1,379.3,206.467Z" transform="translate(-374.912 -200)" fill="#2e335e"/>
    </g>
  </g>
  <g id="Grupo_1108" data-name="Grupo 1108" transform="translate(17.798 18.91)">
    <g id="Grupo_1107" data-name="Grupo 1107">
      <path id="Trazado_1881" data-name="Trazado 1881" d="M192.633,200a4.388,4.388,0,1,0,4.388,4.388A4.393,4.393,0,0,0,192.633,200Zm0,6.467a2.079,2.079,0,1,1,2.079-2.079A2.081,2.081,0,0,1,192.633,206.467Z" transform="translate(-188.245 -200)" fill="#2e335e"/>
    </g>
  </g>
  <g id="Grupo_1110" data-name="Grupo 1110" transform="translate(5.912 33.233)">
    <g id="Grupo_1109" data-name="Grupo 1109">
      <path id="Trazado_1882" data-name="Trazado 1882" d="M59.845,349.039a1.155,1.155,0,0,0-1.633,0L54.451,352.8l-1.285-1.285a1.155,1.155,0,0,0-1.633,1.633l2.1,2.1a1.155,1.155,0,0,0,1.633,0l4.577-4.577A1.155,1.155,0,0,0,59.845,349.039Z" transform="translate(-51.194 -348.7)" fill="#2e335e"/>
    </g>
  </g>
</svg>
