<svg xmlns="http://www.w3.org/2000/svg" width="59.075" height="50" viewBox="0 0 59.075 50">
  <g id="Grupo_1114" data-name="Grupo 1114" transform="translate(0 -39.328)">
    <path id="Trazado_1891" data-name="Trazado 1891" d="M56.124,39.328H2.951A2.955,2.955,0,0,0,0,42.279V75.592a2.955,2.955,0,0,0,2.951,2.953H23.663a5.589,5.589,0,0,1-2.246,5.992H20.136a2.759,2.759,0,0,0-2.651,1.685l-.521,1.427a1.25,1.25,0,0,0,1.174,1.678h22.8a1.25,1.25,0,0,0,1.174-1.678l-.521-1.427a2.759,2.759,0,0,0-2.651-1.685H37.658a5.589,5.589,0,0,1-2.246-5.992h8.714a.865.865,0,1,0,0-1.731H2.951a1.223,1.223,0,0,1-1.221-1.222v-6.4H57.345v6.4a1.223,1.223,0,0,1-1.221,1.222H47.586a.865.865,0,1,0,0,1.731h8.538a2.955,2.955,0,0,0,2.951-2.953V42.279a2.955,2.955,0,0,0-2.951-2.951ZM39.964,86.816l.285.781H18.826l.285-.781a1.064,1.064,0,0,1,1.025-.548h18.8a1.063,1.063,0,0,1,1.025.548Zm-6.321-8.271a7.056,7.056,0,0,0,1.526,5.992H23.906a7.056,7.056,0,0,0,1.526-5.992Zm22.2-11.088V43.424a.865.865,0,0,0-.865-.865H4.1a.865.865,0,0,0-.865.865V59.183a.865.865,0,0,0,1.731,0V44.289H54.114V67.457H4.961V62.642a.865.865,0,0,0-1.731,0v4.814h-1.5V42.279a1.222,1.222,0,0,1,1.221-1.221H56.124a1.222,1.222,0,0,1,1.221,1.221V67.457Z" transform="translate(0 0)" fill="#2e335e"/>
    <path id="Trazado_1892" data-name="Trazado 1892" d="M240.035,323.667a.882.882,0,0,0,0,1.764h2.2a.882.882,0,1,0,0-1.764Z" transform="translate(-211.597 -251.554)" fill="#2e335e"/>
    <path id="Trazado_1893" data-name="Trazado 1893" d="M59.614,108.669a.882.882,0,0,0,1.334-1.155l-.785-.907.785-.907a.882.882,0,0,0-1.334-1.155l-1.285,1.484a.882.882,0,0,0,0,1.155Z" transform="translate(-51.279 -57.279)" fill="#2e335e"/>
    <path id="Trazado_1894" data-name="Trazado 1894" d="M134.14,108.76a.882.882,0,0,0,1.244-.089l1.285-1.484a.882.882,0,0,0,0-1.155l-1.285-1.484a.882.882,0,0,0-1.334,1.155l.785.907-.785.907A.882.882,0,0,0,134.14,108.76Z" transform="translate(-118.409 -57.28)" fill="#2e335e"/>
    <path id="Trazado_1895" data-name="Trazado 1895" d="M90.436,103.277a.882.882,0,0,0,1.2-.325l2.692-4.684a.882.882,0,0,0-1.53-.879l-2.692,4.684a.882.882,0,0,0,.325,1.2Z" transform="translate(-79.625 -50.842)" fill="#2e335e"/>
    <path id="Trazado_1896" data-name="Trazado 1896" d="M64.46,181.027h3.107a.882.882,0,0,0,0-1.764H64.46a.882.882,0,1,0,0,1.764Z" transform="translate(-56.101 -123.8)" fill="#2e335e"/>
    <path id="Trazado_1897" data-name="Trazado 1897" d="M64.46,213.536H76.251a.882.882,0,1,0,0-1.764H64.46a.882.882,0,1,0,0,1.764Z" transform="translate(-56.101 -152.561)" fill="#2e335e"/>
    <path id="Trazado_1898" data-name="Trazado 1898" d="M198.372,212.654a.882.882,0,0,0,.882.882h3.008a.882.882,0,0,0,0-1.764h-3.008A.882.882,0,0,0,198.372,212.654Z" transform="translate(-175.522 -152.561)" fill="#2e335e"/>
    <path id="Trazado_1899" data-name="Trazado 1899" d="M258.73,213.536h3.008a.882.882,0,0,0,0-1.764H258.73a.882.882,0,0,0,0,1.764Z" transform="translate(-228.147 -152.561)" fill="#2e335e"/>
    <path id="Trazado_1900" data-name="Trazado 1900" d="M318.2,213.536H330.53a.882.882,0,0,0,0-1.764H318.2a.882.882,0,1,0,0,1.764Z" transform="translate(-281.143 -152.561)" fill="#2e335e"/>
    <path id="Trazado_1901" data-name="Trazado 1901" d="M67.567,244.283H64.46a.882.882,0,1,0,0,1.764h3.107a.882.882,0,1,0,0-1.764Z" transform="translate(-56.101 -181.323)" fill="#2e335e"/>
    <path id="Trazado_1902" data-name="Trazado 1902" d="M117.7,244.283h-3.107a.882.882,0,1,0,0,1.764H117.7a.882.882,0,1,0,0-1.764Z" transform="translate(-100.609 -181.323)" fill="#2e335e"/>
    <path id="Trazado_1903" data-name="Trazado 1903" d="M163.835,245.165a.882.882,0,0,0,.882.882h8.268a.882.882,0,1,0,0-1.764h-8.268a.882.882,0,0,0-.882.882Z" transform="translate(-145.005 -181.323)" fill="#2e335e"/>
    <path id="Trazado_1904" data-name="Trazado 1904" d="M279.964,244.283H264.973a.882.882,0,1,0,0,1.764h14.991a.882.882,0,0,0,0-1.764Z" transform="translate(-233.847 -181.323)" fill="#2e335e"/>
    <path id="Trazado_1905" data-name="Trazado 1905" d="M120.627,180.145a.882.882,0,0,0,.882.882h10.163a.882.882,0,1,0,0-1.764H121.509A.882.882,0,0,0,120.627,180.145Z" transform="translate(-106.775 -123.8)" fill="#2e335e"/>
  </g>
</svg>
