<svg xmlns="http://www.w3.org/2000/svg" width="36.046" height="50" viewBox="0 0 36.046 50">
  <g id="Grupo_1116" data-name="Grupo 1116" transform="translate(-71.445 -0.001)">
    <g id="Grupo_1115" data-name="Grupo 1115" transform="translate(71.445 0.001)">
      <path id="Trazado_1906" data-name="Trazado 1906" d="M105.307,35.822a4.943,4.943,0,0,0-3.766-3.868h0c-.033-.01.284.07-7.553-1.873v-.266h5.769a2.159,2.159,0,0,0,2.157-2.157v-11a2.7,2.7,0,0,0,0-1.244V11.4a.733.733,0,0,0-1.465,0v2.1a3.8,3.8,0,0,0-1.3-.478,1.911,1.911,0,0,0-1.61-1.472A2.388,2.388,0,0,1,95.647,10.1a1.256,1.256,0,0,0-2.141-.2,13.4,13.4,0,0,1-10.8,5.557c-.46,0-.772-.022-.88-.027a1.937,1.937,0,0,0-2.05,1.934v1.683A9.936,9.936,0,0,0,82.833,26.2a9.81,9.81,0,0,0,2.116,1.539v.609H79.207a.692.692,0,0,1-.692-.692V11.2a9.728,9.728,0,0,1,9.607-9.733h.051a12.484,12.484,0,0,1,5.539,1.362c.939.518,1.519.106,2.446.106,2.263,0,4.077,2.327,4.294,4.42,0,.031,0,.153,0,.624a.747.747,0,0,0,.733.732.732.732,0,0,0,.732-.733c0-.13,0-.64-.011-.758-.295-2.914-2.78-5.749-5.753-5.749-1.161,0-1.342.294-1.738.076A14.059,14.059,0,0,0,88.18,0,11.19,11.19,0,0,0,77.05,11.2v16.46a2.159,2.159,0,0,0,2.157,2.157h5.743v.266l-7.523,1.865-.03.008-.55.162-.049.016a4.861,4.861,0,0,0-3.167,3.69c-2.23,11.2-2.136,10.721-2.141,10.76A2.746,2.746,0,0,0,74.459,50h7.921a.733.733,0,0,0,0-1.465H79.624V41.626a.733.733,0,1,0-1.465,0v6.909h-3.7c-.973,0-1.538-.313-1.547-1.335,0-.5-.024-.013,2.156-11.092a3.433,3.433,0,0,1,2.22-2.595l.508-.15,4.32-1.071c4.806,5.662,4.521,5.362,4.8,5.633a3.55,3.55,0,0,0,5.4-.315L96.838,32.3l4.3,1.067a3.551,3.551,0,0,1,2.728,2.744c2.161,10.983,2.16,10.591,2.156,11.091-.007,1-.549,1.336-1.547,1.336H100.8V41.626a.733.733,0,1,0-1.465,0v6.909H85.8A.733.733,0,1,0,85.8,50h18.679a2.692,2.692,0,0,0,3.013-2.789C107.5,46.374,107.447,46.774,105.307,35.822Zm-6.114-21.29a1.838,1.838,0,0,1,1.257,1.083v.839a1.838,1.838,0,0,1-1.257,1.083Zm0,4.643V19.04a3.8,3.8,0,0,0,1.257-.47v9.089a.692.692,0,0,1-.692.691H93.988v-.566A9.7,9.7,0,0,0,99.192,19.175ZM83.845,25.142a8.465,8.465,0,0,1-2.608-6.1c.044-1.595-.106-1.788.149-2.028a.462.462,0,0,1,.348-.126,14.714,14.714,0,0,0,12.753-5.859A3.758,3.758,0,0,0,97.344,13a.44.44,0,0,1,.383.434v5.74A8.228,8.228,0,0,1,83.845,25.142ZM91.2,36.661a2.12,2.12,0,0,1-3.467-.006l-1.528-1.8H92.74Zm2.788-3.275H84.962L83.7,31.9l2.156-.534a.741.741,0,0,0,.556-.718V28.381a9.7,9.7,0,0,0,6.109.021,13.11,13.11,0,0,0,.041,2.494.733.733,0,0,0,.515.469l2.17.538Z" transform="translate(-71.445 -0.001)" fill="#2e335e"/>
    </g>
  </g>
</svg>
