<svg xmlns="http://www.w3.org/2000/svg" xmlns:xlink="http://www.w3.org/1999/xlink" width="60" height="60" viewBox="0 0 60 60">
  <defs>
    <filter id="Elipse_177" x="0" y="0" width="60" height="60" filterUnits="userSpaceOnUse">
      <feOffset dy="2" input="SourceAlpha"/>
      <feGaussianBlur stdDeviation="2.5" result="blur"/>
      <feFlood flood-opacity="0.102"/>
      <feComposite operator="in" in2="blur"/>
      <feComposite in="SourceGraphic"/>
    </filter>
  </defs>
  <g id="Grupo_1221" data-name="Grupo 1221" transform="translate(-136.5 -937.5)">
    <g transform="matrix(1, 0, 0, 1, 136.5, 937.5)" filter="url(#Elipse_177)">
      <circle id="Elipse_177-2" data-name="Elipse 177" cx="22.5" cy="22.5" r="22.5" transform="translate(7.5 5.5)" fill="#fff"/>
    </g>
    <g id="Grupo_188" data-name="Grupo 188" transform="translate(154 953)">
      <path id="Trazado_434" data-name="Trazado 434" d="M.262,15.164a4.285,4.285,0,0,0,3.971,2.82l-.8,7.235a.428.428,0,0,0,.426.475H8.993a.428.428,0,0,0,.426-.475l-.8-7.235a4.286,4.286,0,0,0,4.232-4.28v-.428a.428.428,0,0,0-.428-.428H9.32a7.056,7.056,0,0,0,3.1-6C12.419,3.074,9.73,0,6.424,0s-6,3.074-6,6.852a7.056,7.056,0,0,0,3.1,6H.428A.428.428,0,0,0,0,13.276V13.7A4.252,4.252,0,0,0,.253,15.14C.256,15.148.258,15.156.262,15.164Zm4.071,9.675.762-6.852H7.753l.762,6.852ZM1.285,6.852c0-3.306,2.305-6,5.139-6s5.139,2.689,5.139,6-2.305,6-5.139,6a4.428,4.428,0,0,1-.856-.09V10.706A.428.428,0,0,1,6,10.278h.428a.429.429,0,0,1,.428.428.428.428,0,1,0,.857,0A1.286,1.286,0,0,0,6.424,9.421H6a1.286,1.286,0,0,0-1.285,1.285V12.5A6.013,6.013,0,0,1,1.285,6.852ZM11.991,13.7A3.43,3.43,0,0,1,8.565,17.13H4.282A3.425,3.425,0,0,1,1.32,15.417H3a.428.428,0,0,0,0-.856H.969A3.414,3.414,0,0,1,.856,13.7Z" fill="#ef8b44"/>
      <path id="Trazado_435" data-name="Trazado 435" d="M85.76,290.989h.428a.428.428,0,1,0,0-.856H85.76a.428.428,0,1,0,0,.856Z" transform="translate(-81.05 -275.573)" fill="#ef8b44"/>
      <path id="Trazado_436" data-name="Trazado 436" d="M60.162,45.136a.427.427,0,0,0,.3-.125L62.178,43.3a.428.428,0,1,0-.606-.606l-1.713,1.713a.428.428,0,0,0,.3.731Z" transform="translate(-56.736 -40.426)" fill="#ef8b44"/>
      <path id="Trazado_437" data-name="Trazado 437" d="M56.543,43.3a.428.428,0,1,0-.606-.606L51.227,47.4a.428.428,0,1,0,.606.606Z" transform="translate(-48.532 -40.426)" fill="#ef8b44"/>
      <path id="Trazado_438" data-name="Trazado 438" d="M284.629,266.248H284.2v-.428a.428.428,0,0,0-.856,0v.428h-.857v-.428a1.286,1.286,0,0,0-1.285-1.285H276.92a1.286,1.286,0,0,0-1.285,1.285v.428h-.857v-.428a.428.428,0,0,0-.856,0v.428h-.428a.428.428,0,1,0,0,.856h.428v.428a.428.428,0,1,0,.856,0V267.1h.857v6a.858.858,0,0,0,.856.857h3.426a.858.858,0,0,0,.856-.857v-.428h.856a.858.858,0,0,0,.857-.856V267.1h.857v.428a.428.428,0,1,0,.856,0V267.1h.428a.428.428,0,1,0,0-.856Zm-3.854-.428a.428.428,0,0,1,.856,0v.428h-.856Zm-.856,7.28h-3.426v-7.28a.429.429,0,0,1,.428-.428H280a1.266,1.266,0,0,0-.079.428Zm1.713-1.285h-.856V267.1h.856Z" transform="translate(-259.362 -251.259)" fill="#ef8b44"/>
      <path id="Trazado_439" data-name="Trazado 439" d="M300.411,0h-9.421a.857.857,0,0,0-.856.856V11.134a.857.857,0,0,0,.856.857h9.421a.858.858,0,0,0,.856-.857V.856A.858.858,0,0,0,300.411,0Zm0,8.565h-4.283V.856h4.282ZM295.272.856V8.565h-4.283V.856Zm-4.283,10.278V9.421h9.422v1.713Z" transform="translate(-275.573)" fill="#ef8b44"/>
      <path id="Trazado_440" data-name="Trazado 440" d="M358.826,86.188h.428a.428.428,0,1,0,0-.856h-.428a.428.428,0,1,0,0,.856Z" transform="translate(-340.412 -81.05)" fill="#ef8b44"/>
      <path id="Trazado_441" data-name="Trazado 441" d="M418.561,86.188h.428a.428.428,0,1,0,0-.856h-.428a.428.428,0,1,0,0,.856Z" transform="translate(-397.149 -81.05)" fill="#ef8b44"/>
    </g>
  </g>
</svg>
