<svg xmlns="http://www.w3.org/2000/svg" xmlns:xlink="http://www.w3.org/1999/xlink" width="60" height="60" viewBox="0 0 60 60">
  <defs>
    <filter id="Elipse_176" x="0" y="0" width="60" height="60" filterUnits="userSpaceOnUse">
      <feOffset dy="2" input="SourceAlpha"/>
      <feGaussianBlur stdDeviation="2.5" result="blur"/>
      <feFlood flood-opacity="0.102"/>
      <feComposite operator="in" in2="blur"/>
      <feComposite in="SourceGraphic"/>
    </filter>
  </defs>
  <g id="Grupo_1221" data-name="Grupo 1221" transform="translate(-59.5 -937.5)">
    <g transform="matrix(1, 0, 0, 1, 59.5, 937.5)" filter="url(#Elipse_176)">
      <circle id="Elipse_176-2" data-name="Elipse 176" cx="22.5" cy="22.5" r="22.5" transform="translate(7.5 5.5)" fill="#fff"/>
    </g>
    <g id="Grupo_187" data-name="Grupo 187" transform="translate(75.005 946.833)">
      <path id="Trazado_425" data-name="Trazado 425" d="M53.259,17.537a2.9,2.9,0,0,0-1.024-2.025,2.655,2.655,0,0,0-1.983-.616,2.841,2.841,0,0,0-2.268,1.662l-.891.079-.879-.246a.221.221,0,0,1-.147-.145,8.249,8.249,0,0,0-1.084-2.135l.311-.836.982-1.062a2,2,0,0,0,1.45-.694,2.029,2.029,0,0,0-.064-2.709,2,2,0,0,0-1.475-.625,2.023,2.023,0,0,0-1.463.647,2,2,0,0,0-.533,1.453l-.982,1.062-.823.382A8.252,8.252,0,0,0,38.338,10.6L37.8,9.744l-.19-.943a2.558,2.558,0,0,0,.907-2.523,2.822,2.822,0,0,0-5.058-.884,2.519,2.519,0,0,0-.373,1.934,2.661,2.661,0,0,0,1.719,1.935l.21,1.041-.167,1.015a8.258,8.258,0,0,0-2.087,1.342l-.617-.11-.7-.526a2.015,2.015,0,1,0-1.6,2.353l.584.44.262.536a.087.087,0,0,1,0,.075,8.19,8.19,0,0,0-.753,3.446c0,.222.009.448.027.671a.092.092,0,0,1-.036.084l-.986.7-1.125.354a2.639,2.639,0,0,0-2.446-.418l-.05.018-.014.005a.446.446,0,1,0,.3.839l.021-.008.021-.008a1.749,1.749,0,0,1,1.756.394.446.446,0,0,0,.441.1l1.428-.449a.447.447,0,0,0,.125-.062l1.043-.743a.989.989,0,0,0,.408-.883c-.016-.2-.024-.4-.024-.6a7.3,7.3,0,0,1,.671-3.073.976.976,0,0,0-.01-.839l-.309-.632a.446.446,0,0,0-.132-.16l-.839-.633a.446.446,0,0,0-.4-.069,1.126,1.126,0,0,1-1.02-.172,1.123,1.123,0,0,1-.175-1.63,1.135,1.135,0,0,1,1.475-.2,1.121,1.121,0,0,1,.5.841.446.446,0,0,0,.176.319l.93.7a.445.445,0,0,0,.19.083l.937.167a.446.446,0,0,0,.382-.112,7.378,7.378,0,0,1,2.217-1.42.446.446,0,0,0,.27-.34l.22-1.336a.447.447,0,0,0,0-.16l-.278-1.38a.446.446,0,0,0-.326-.344,1.8,1.8,0,0,1-1.343-1.342A1.634,1.634,0,0,1,34.2,5.888a1.931,1.931,0,0,1,3.443.576,1.69,1.69,0,0,1-.77,1.771.446.446,0,0,0-.195.462l.262,1.3a.447.447,0,0,0,.059.149l.644,1.027a.672.672,0,0,0,.574.317h0a7.359,7.359,0,0,1,3.8,1.058.672.672,0,0,0,.631.035l1.008-.468a.446.446,0,0,0,.14-.1l1.177-1.273a.446.446,0,0,0,.113-.371,1.123,1.123,0,0,1,1.924-.947,1.13,1.13,0,0,1,.035,1.509,1.116,1.116,0,0,1-.935.384.446.446,0,0,0-.361.142l-1.177,1.273a.446.446,0,0,0-.091.147l-.383,1.029a.671.671,0,0,0,.088.63,7.364,7.364,0,0,1,1.028,1.989,1.111,1.111,0,0,0,.752.719l.957.268a.446.446,0,0,0,.16.015l1.243-.11a.446.446,0,0,0,.382-.3,1.966,1.966,0,0,1,1.625-1.341,1.771,1.771,0,0,1,1.322.412,2.019,2.019,0,0,1,.708,1.41,2.172,2.172,0,0,1-.195,1.081.446.446,0,1,0,.808.376,3.07,3.07,0,0,0,.275-1.526Z" transform="translate(-23.572 0)" fill="#ef8b44"/>
      <path id="Trazado_426" data-name="Trazado 426" d="M27.443,252.194a1.8,1.8,0,0,1-.384.082,1.827,1.827,0,0,1-1.838-1.089.446.446,0,0,0-.443-.255l-1.167.1a.446.446,0,0,0-.155.043l-.881.425a1.111,1.111,0,0,0-.616.851,7.329,7.329,0,0,1-.419,1.618,1.108,1.108,0,0,0,.065.942l.314.561a.446.446,0,0,0,.141.153l.873.586a.446.446,0,0,0,.408.046,1.126,1.126,0,0,1,1.028.115,1.123,1.123,0,0,1,.265,1.617,1.134,1.134,0,0,1-1.462.283,1.121,1.121,0,0,1-.541-.812.446.446,0,0,0-.193-.308l-.967-.649a.445.445,0,0,0-.195-.072l-.609-.074a1.145,1.145,0,0,0-.931.311,7.422,7.422,0,0,1-1.627,1.176,1.146,1.146,0,0,0-.6.935l-.077,1.233a.445.445,0,0,0,.013.137l.383,1.519a.446.446,0,0,0,.312.32A1.509,1.509,0,0,1,19.2,263.07a1.5,1.5,0,0,1-1.133,1.836,1.5,1.5,0,0,1-1.378-2.542.446.446,0,0,0,.12-.427l-.385-1.528a.447.447,0,0,0-.054-.126l-.594-.955a1.312,1.312,0,0,0-1.126-.618h0a7.407,7.407,0,0,1-1.435-.14,1.309,1.309,0,0,0-1.212.382l-.785.828a.446.446,0,0,0-.078.113l-.879,1.823a.446.446,0,0,0,0,.391A1.123,1.123,0,0,1,8.7,263.58a1.136,1.136,0,0,1-.487-1.4,1.114,1.114,0,0,1,.787-.67.446.446,0,0,0,.3-.241l.884-1.835a.445.445,0,0,0,.04-.131l.173-1.232A1.106,1.106,0,0,0,10,257.062a7.419,7.419,0,0,1-1.677-1.922,1.107,1.107,0,0,0-.931-.527L6.167,254.6a.44.44,0,0,0-.138.021l-1.346.423a.446.446,0,0,0-.309.376,1.749,1.749,0,0,1-3.4.349,1.725,1.725,0,0,1,.011-1.106.446.446,0,1,0-.843-.29,2.611,2.611,0,0,0-.016,1.673,2.652,2.652,0,0,0,2.516,1.819,2.614,2.614,0,0,0,.786-.121,2.644,2.644,0,0,0,1.782-1.931l1.019-.321,1.159.011a.209.209,0,0,1,.177.1,8.309,8.309,0,0,0,1.878,2.153.209.209,0,0,1,.073.192l-.164,1.163L8.584,260.7a2.015,2.015,0,0,0-.32,3.654,2,2,0,0,0,1.595.168,2.023,2.023,0,0,0,1.211-1.047,2,2,0,0,0,.081-1.556l.761-1.579.737-.778a.422.422,0,0,1,.391-.121,8.318,8.318,0,0,0,1.613.157h0a.423.423,0,0,1,.364.2l.557.9.31,1.229a2.385,2.385,0,0,0-.421,2.261,2.417,2.417,0,0,0,2.286,1.649,2.343,2.343,0,0,0,.51-.056,2.4,2.4,0,0,0,1.8-2.924,2.4,2.4,0,0,0-1.426-1.636L18.328,260l.073-1.164a.248.248,0,0,1,.128-.2,8.317,8.317,0,0,0,1.823-1.317.257.257,0,0,1,.208-.072l.5.061.725.486a2.015,2.015,0,1,0,1.465-2.438l-.607-.407-.262-.468a.219.219,0,0,1-.011-.186,8.223,8.223,0,0,0,.469-1.815.221.221,0,0,1,.12-.171l.808-.39.793-.07a2.683,2.683,0,0,0,3.158,1.2.446.446,0,0,0-.279-.847Z" transform="translate(0 -232.449)" fill="#ef8b44"/>
      <path id="Trazado_427" data-name="Trazado 427" d="M152.625,150.286a6.246,6.246,0,1,0,1.9.8.446.446,0,1,0-.477.754,5.328,5.328,0,1,1-1.629-.685.446.446,0,1,0,.2-.868Z" transform="translate(-136.545 -137.488)" fill="#ef8b44"/>
      <path id="Trazado_428" data-name="Trazado 428" d="M50.362,15.633a2.1,2.1,0,1,0-2.1-2.1A2.1,2.1,0,0,0,50.362,15.633Zm0-3.3a1.205,1.205,0,1,1-1.205,1.205A1.206,1.206,0,0,1,50.362,12.331Z" transform="translate(-45.469 -6.85)" fill="#ef8b44"/>
      <path id="Trazado_429" data-name="Trazado 429" d="M51.683,396.271a1.536,1.536,0,1,0,1.536,1.536A1.538,1.538,0,0,0,51.683,396.271Zm0,2.181a.645.645,0,1,1,.645-.645A.645.645,0,0,1,51.683,398.452Z" transform="translate(-47.242 -369.359)" fill="#ef8b44"/>
      <path id="Trazado_430" data-name="Trazado 430" d="M388.476,418.263a2.052,2.052,0,1,0,2.052,2.052A2.054,2.054,0,0,0,388.476,418.263Zm0,3.212a1.16,1.16,0,1,1,1.16-1.16A1.162,1.162,0,0,1,388.476,421.475Z" transform="translate(-364.013 -390.076)" fill="#ef8b44"/>
      <path id="Trazado_431" data-name="Trazado 431" d="M192.285,198.629a1.943,1.943,0,1,0-1.943,1.943,1.946,1.946,0,0,0,1.943-1.943Zm-1.943,1.052a1.052,1.052,0,1,1,1.052-1.052A1.053,1.053,0,0,1,190.341,199.681Z" transform="translate(-177.474 -181.352)" fill="#ef8b44"/>
      <path id="Trazado_432" data-name="Trazado 432" d="M218.831,288.043a1.465,1.465,0,1,0-1.465-1.465A1.467,1.467,0,0,0,218.831,288.043Zm0-2.039a.573.573,0,1,1-.573.573A.574.574,0,0,1,218.831,286Z" transform="translate(-204.761 -264.649)" fill="#ef8b44"/>
      <path id="Trazado_433" data-name="Trazado 433" d="M275.356,236.61a1.3,1.3,0,1,0,1.3-1.3,1.3,1.3,0,0,0-1.3,1.3Zm1.3-.41a.41.41,0,1,1-.41.41A.411.411,0,0,1,276.658,236.2Z" transform="translate(-259.387 -217.733)" fill="#ef8b44"/>
    </g>
  </g>
</svg>
