<svg xmlns="http://www.w3.org/2000/svg" width="143.674" height="118.417" viewBox="0 0 143.674 118.417">
  <g id="Grupo_1223" data-name="Grupo 1223" transform="translate(-88.16 -1302.975)">
    <g id="Grupo_198" data-name="Grupo 198" transform="translate(-2663 -508)">
      <path id="Trazado_457" data-name="Trazado 457" d="M243.351-245.469a2.082,2.082,0,0,1-1.925-1.946H241.4a2.086,2.086,0,0,1-2.028,1.956v.01a2.084,2.084,0,0,1,2.022,1.894h.039a2.081,2.081,0,0,1,1.918-1.883Z" transform="translate(2533.372 2060.147)" fill="#fff"/>
      <path id="Trazado_458" data-name="Trazado 458" d="M206.91-222.373a2.082,2.082,0,0,1-1.925-1.946h-.026a2.086,2.086,0,0,1-2.028,1.956v.01a2.084,2.084,0,0,1,2.022,1.894h.04a2.081,2.081,0,0,1,1.918-1.883Z" transform="translate(2554.816 2052.725)" fill="#fff"/>
      <path id="Trazado_459" data-name="Trazado 459" d="M294.578-285.117a2.082,2.082,0,0,1-1.925-1.946h-.026a2.086,2.086,0,0,1-2.028,1.956v.01a2.084,2.084,0,0,1,2.022,1.894h.04a2.081,2.081,0,0,1,1.918-1.883Z" transform="translate(2506.256 2098.038)" fill="#fff"/>
      <path id="Trazado_460" data-name="Trazado 460" d="M248.166-189.248a1.011,1.011,0,0,0,1.011-1.011,1.011,1.011,0,0,0-1.011-1.011,1.011,1.011,0,0,0-1.011,1.011,1.011,1.011,0,0,0,1.011,1.011" transform="translate(2525.86 2031.812)" fill="#fff"/>
      <path id="Trazado_461" data-name="Trazado 461" d="M215.629-165.87a1.011,1.011,0,0,0,1.011-1.011,1.011,1.011,0,0,0-1.011-1.011,1.011,1.011,0,0,0-1.011,1.011,1.011,1.011,0,0,0,1.011,1.011" transform="translate(2536.542 2019.262)" fill="#fff"/>
    </g>
    <g id="Grupo_199" data-name="Grupo 199" transform="translate(182.16 1378.975)">
      <path id="Trazado_457-2" data-name="Trazado 457" d="M239.371-245.5a2.082,2.082,0,0,1,1.925,1.946h.026a2.086,2.086,0,0,1,2.028-1.956v-.01a2.084,2.084,0,0,1-2.022-1.894h-.039a2.081,2.081,0,0,1-1.918,1.883Z" transform="translate(-215.26 284.215)" fill="#fff"/>
      <path id="Trazado_458-2" data-name="Trazado 458" d="M202.93-222.4a2.082,2.082,0,0,1,1.925,1.946h.026a2.086,2.086,0,0,1,2.028-1.956v-.01a2.084,2.084,0,0,1-2.022-1.894h-.04a2.081,2.081,0,0,1-1.918,1.883Z" transform="translate(-163.822 245.445)" fill="#fff"/>
      <path id="Trazado_459-2" data-name="Trazado 459" d="M290.6-285.148a2.082,2.082,0,0,1,1.925,1.946h.026a2.086,2.086,0,0,1,2.028-1.956v-.01a2.084,2.084,0,0,1-2.022-1.894h-.04a2.081,2.081,0,0,1-1.918,1.883Z" transform="translate(-290.598 325.62)" fill="#fff"/>
      <path id="Trazado_460-2" data-name="Trazado 460" d="M248.166-191.27a1.011,1.011,0,0,0-1.011,1.011,1.011,1.011,0,0,0,1.011,1.011,1.011,1.011,0,0,0,1.011-1.011,1.011,1.011,0,0,0-1.011-1.011" transform="translate(-221.358 202.099)" fill="#fff"/>
      <path id="Trazado_461-2" data-name="Trazado 461" d="M215.629-167.892a1.011,1.011,0,0,0-1.011,1.011,1.011,1.011,0,0,0,1.011,1.011,1.011,1.011,0,0,0,1.011-1.011,1.011,1.011,0,0,0-1.011-1.011" transform="translate(-166.966 167.892)" fill="#fff"/>
    </g>
    <g id="Grupo_841" data-name="Grupo 841" transform="translate(122 1319.122)">
      <path id="Trazado_339" data-name="Trazado 339" d="M33.916,73.68h6.051a8.613,8.613,0,0,0,4.175,2.56,5.952,5.952,0,0,0,.014,7.482l5.415,6.646a5.92,5.92,0,0,0,8.32.85L62.57,87.4a9.236,9.236,0,0,0,6.812-2.022l8.354-6.815a7.206,7.206,0,0,0,5.97,3.186H96.045a7.142,7.142,0,0,0,7.135-7.172V45.088A7.147,7.147,0,0,0,97.743,38.1V34.734a3.449,3.449,0,0,0-3.431-3.4h-.523V28.7h1.077A1.2,1.2,0,0,0,96.1,27.571v-7.45a1.211,1.211,0,0,0-1.229-1.141H84.885a1.137,1.137,0,0,0-1.147,1.141v2.746A5.816,5.816,0,0,0,80.5,21.739l-8.562-.123h-.013a1.181,1.181,0,0,0-1.153,1.172,1.168,1.168,0,0,0,1.141,1.182l8.552.1a3.291,3.291,0,0,1,3.228,3.34,1.083,1.083,0,0,0,.059.37,1.143,1.143,0,0,0,1.131.923h1v2.636h-.441a3.378,3.378,0,0,0-3.349,3.4V38.1a7.292,7.292,0,0,0-5.6,6.992V53.65a1.085,1.085,0,0,0-.3-.047,3.489,3.489,0,0,0-2.583.777l-4.737,3.867a6.043,6.043,0,0,0-1.367-3.769,2.21,2.21,0,0,0-3.043-.344l-1.182.929h-.019a5.931,5.931,0,0,0,1.324-3.777,2.159,2.159,0,0,0-2.164-2.155H45.58a8.1,8.1,0,0,0-7.189,4.284H33.916A5.822,5.822,0,0,0,28.05,59.26v8.57a5.827,5.827,0,0,0,5.866,5.85Zm62.129,5.766H83.706a4.89,4.89,0,0,1-4.17-2.351L81.3,75.657h8.574a1.113,1.113,0,0,0,1.112-1.146V56.133l.082.018a7.357,7.357,0,0,0,5.381-.526,4.964,4.964,0,0,1,3.624-.371l.8.227v19.1a4.832,4.832,0,0,1-4.828,4.866ZM84.851,68.211a3.512,3.512,0,0,0-.95-.809l1.125-.917a3.531,3.531,0,0,0-.55-5.844,3.532,3.532,0,0,0-5.08-4.828l-.22.165a3.13,3.13,0,0,0-.381-.76V48.8h9.886V73.351h-4.55l.214-.171A3.531,3.531,0,0,0,84.851,68.211Zm1.194-46.925h7.744v5.108H86.045ZM88.187,28.7h3.3v2.636h-3.3Zm-2.747,4.943h8.872a1.141,1.141,0,0,1,1.125,1.091v3.193H84.4V34.734A1.069,1.069,0,0,1,85.439,33.643Zm-1.733,6.59H96.045a4.822,4.822,0,0,1,4.828,4.854v8l-.178-.056a7.3,7.3,0,0,0-5.3.541,5.053,5.053,0,0,1-3.695.361l-.71-.2V47.708a1.172,1.172,0,0,0-1.112-1.214H78.8V45.088A4.894,4.894,0,0,1,83.706,40.234ZM66.554,58.711a3.763,3.763,0,0,1-1.374,2.552l-4.386,3.576a1.154,1.154,0,1,0,1.458,1.788l4.385-3.576,8.442-6.882a1.227,1.227,0,0,1,1.551,1.9l-10.977,8.95a1.153,1.153,0,1,0,1.458,1.787l10.977-8.951L80.854,57.6A1.227,1.227,0,1,1,82.4,59.5l-1.845,1.5-2.767,2.256L68.66,70.709A1.153,1.153,0,1,0,70.118,72.5l11.749-9.579.151-.122a1.227,1.227,0,1,1,1.551,1.9l-3.23,2.633a1.136,1.136,0,0,0-.154.153,3.349,3.349,0,0,0-.306.223l-6.365,5.19a1.154,1.154,0,1,0,1.458,1.788l6.364-5.19a1.227,1.227,0,1,1,1.551,1.9L67.924,83.6a6.92,6.92,0,0,1-5.375,1.483,1.154,1.154,0,0,0-1.041.217l-5.073,4.136a3.611,3.611,0,0,1-5.076-.517l-5.415-6.642A3.607,3.607,0,0,1,46.46,77.2l3.081-2.512.057-.05.9-.841a1.154,1.154,0,0,0,.335-1.121A6.019,6.019,0,0,1,52.868,66.6L65.809,56.046A3.757,3.757,0,0,1,66.554,58.711Zm-36.2.549a3.513,3.513,0,0,1,3.56-3.539H37.49a7.363,7.363,0,0,0-.2,1.788,9.955,9.955,0,0,0,2.946,7.1l.486.477a1.156,1.156,0,0,0,1.631-1.639l-.485-.487a7.76,7.76,0,0,1-2.271-5.507,6.016,6.016,0,0,1,5.987-6.013h16.7a3.694,3.694,0,0,1-3.784,3.625H51.65A1.183,1.183,0,0,0,50.5,56.249a3.269,3.269,0,0,1-3.25,3.269,1.161,1.161,0,0,0-1.154,1.162A1.127,1.127,0,0,0,47.247,61.8a5.471,5.471,0,0,0,5.437-4.434h7.769L57.442,59.84H55.222a1.177,1.177,0,0,0-.479,2.241L51.41,64.8a8.349,8.349,0,0,0-2.95,7.737l-.405.379L46.328,74.33a7.265,7.265,0,0,1-6.554-5.492,1.155,1.155,0,0,0-1.386-.861,1.12,1.12,0,0,0-.861,1.354,8.789,8.789,0,0,0,.77,2.042h-4.38a3.517,3.517,0,0,1-3.56-3.544Z" transform="translate(-28.05 -18.98)" fill="#f5ffff"/>
      <path id="Trazado_340" data-name="Trazado 340" d="M321.311,116.091a5.324,5.324,0,0,0,1.024-6.083,1.024,1.024,0,0,0-.062-.112l-3.746-5.938a1.154,1.154,0,0,0-1.952,0l-3.746,5.938a1.093,1.093,0,0,0-.062.112,5.318,5.318,0,0,0,8.545,6.082Zm-5.891-1.631a3.013,3.013,0,0,1-.6-3.39l2.735-4.334,2.736,4.334a3.012,3.012,0,0,1-4.864,3.391Z" transform="translate(-274.728 -92.277)" fill="#fff"/>
      <path id="Trazado_341" data-name="Trazado 341" d="M207.71,160.557a4.469,4.469,0,1,0,4.47-4.47A4.47,4.47,0,0,0,207.71,160.557Zm6.632,0a2.163,2.163,0,1,1-2.162-2.163A2.162,2.162,0,0,1,214.342,160.557Z" transform="translate(-184 -137.993)" fill="#fff"/>
      <path id="Trazado_342" data-name="Trazado 342" d="M115.324,110.618a4.469,4.469,0,1,0,4.47-4.47A4.47,4.47,0,0,0,115.324,110.618Zm6.632,0a2.163,2.163,0,1,1-2.162-2.163A2.162,2.162,0,0,1,121.956,110.618Z" transform="translate(-103.806 -94.644)" fill="#fff"/>
      <path id="Trazado_343" data-name="Trazado 343" d="M337.552,542.587a4.469,4.469,0,1,0,4.469-4.47A4.47,4.47,0,0,0,337.552,542.587Zm6.632,0a2.163,2.163,0,1,1-2.163-2.164A2.163,2.163,0,0,1,344.184,542.587Z" transform="translate(-296.707 -469.606)" fill="#fff"/>
      <path id="Trazado_344" data-name="Trazado 344" d="M441.172,535.095a4.47,4.47,0,1,0,4.47-4.47A4.47,4.47,0,0,0,441.172,535.095Zm6.632,0a2.163,2.163,0,1,1-2.162-2.163A2.162,2.162,0,0,1,447.8,535.095Z" transform="translate(-386.652 -463.103)" fill="#fff"/>
    </g>
  </g>
</svg>
