<svg xmlns="http://www.w3.org/2000/svg" width="164.151" height="99.027" viewBox="0 0 164.151 99.027">
  <g id="Grupo_1219" data-name="Grupo 1219" transform="translate(-75.029 -519.201)">
    <g id="Grupo_173" data-name="Grupo 173" transform="translate(-323.088 789.413) rotate(-111)">
      <path id="Trazado_254" data-name="Trazado 254" d="M352.869-251.665a2.94,2.94,0,0,0,2.678-2.785h.037a2.94,2.94,0,0,0,2.822,2.8v.015a2.935,2.935,0,0,0-2.812,2.71h-.055a2.935,2.935,0,0,0-2.669-2.7Z" transform="translate(-50.535 873.966) rotate(-41)" fill="#fff"/>
      <path id="Trazado_252" data-name="Trazado 252" d="M347.775-174.808a2.94,2.94,0,0,0,2.678-2.785h.037a2.94,2.94,0,0,0,2.822,2.8v.015a2.935,2.935,0,0,0-2.812,2.71h-.055a2.935,2.935,0,0,0-2.669-2.7Z" transform="translate(-143.419 850.102) rotate(-41)" fill="#fff"/>
      <path id="Trazado_256" data-name="Trazado 256" d="M290.6-284.278a2.94,2.94,0,0,0,2.678-2.785h.037a2.94,2.94,0,0,0,2.821,2.8v.015a2.935,2.935,0,0,0-2.812,2.71h-.055a2.935,2.935,0,0,0-2.669-2.7Z" transform="translate(38.744 884.885) rotate(-41)" fill="#fff"/>
      <path id="Trazado_255" data-name="Trazado 255" d="M394.907-188.417a1.427,1.427,0,0,1-1.427-1.427,1.427,1.427,0,0,1,1.427-1.426,1.426,1.426,0,0,1,1.426,1.426,1.426,1.426,0,0,1-1.426,1.427" transform="translate(-163.683 859.872) rotate(-41)" fill="#fff"/>
      <path id="Trazado_253" data-name="Trazado 253" d="M330.508-219.791a1.427,1.427,0,0,1-1.427-1.427,1.426,1.426,0,0,1,1.427-1.426,1.426,1.426,0,0,1,1.426,1.426,1.426,1.426,0,0,1-1.426,1.427" transform="translate(-71.102 858.752) rotate(-41)" fill="#fff"/>
    </g>
    <g id="Grupo_174" data-name="Grupo 174" transform="matrix(0.966, 0.259, -0.259, 0.966, 164.027, 509.654)">
      <path id="Trazado_254-2" data-name="Trazado 254" d="M0,2.74A2.94,2.94,0,0,1,2.678,5.524h.037a2.94,2.94,0,0,1,2.822-2.8V2.71A2.935,2.935,0,0,1,2.724,0H2.669A2.935,2.935,0,0,1,0,2.7Z" transform="translate(41.709 7.801) rotate(-139)" fill="#fff"/>
      <path id="Trazado_252-2" data-name="Trazado 252" d="M0,2.74A2.94,2.94,0,0,1,2.678,5.524h.037a2.94,2.94,0,0,1,2.822-2.8V2.71A2.935,2.935,0,0,1,2.724,0H2.669A2.935,2.935,0,0,1,0,2.7Z" transform="translate(67.269 41.465) rotate(-139)" fill="#fff"/>
      <path id="Trazado_256-2" data-name="Trazado 256" d="M0,2.74A2.94,2.94,0,0,1,2.678,5.524h.037a2.94,2.94,0,0,1,2.821-2.8V2.71A2.935,2.935,0,0,1,2.724,0H2.669A2.935,2.935,0,0,1,0,2.7Z" transform="translate(4.178 16.713) rotate(-139)" fill="#fff"/>
      <path id="Trazado_255-2" data-name="Trazado 255" d="M1.427,0A1.426,1.426,0,1,0,2.853,1.427,1.427,1.427,0,0,0,1.427,0" transform="translate(80.343 18.615) rotate(-139)" fill="#fff"/>
      <path id="Trazado_253-2" data-name="Trazado 253" d="M1.427,0A1.426,1.426,0,1,0,2.853,1.427,1.427,1.427,0,0,0,1.427,0" transform="translate(42.377 28.806) rotate(-139)" fill="#fff"/>
    </g>
    <g id="Grupo_364" data-name="Grupo 364" transform="translate(-53.473 20.604)">
      <path id="Trazado_674" data-name="Trazado 674" d="M211.636,593.51c-2.218-2.339-4.546-4.574-6.836-6.846-.994-.987-9.341-9.256-10.484-10.365.514-.47,1.268-.213,1.795-.694,3.378,3.431,13.644,13.509,16.935,16.909a9.306,9.306,0,0,0,4.155,2.276,15.136,15.136,0,0,1,5.362,2.441c.441.382.873.775,1.3,1.173l-1.564.782a9.159,9.159,0,0,0-5.106-2.7,9.471,9.471,0,0,1-5.558-2.974" transform="translate(-3.82 -13.313)" fill="#ef8b44" stroke="#ef8b44" stroke-width="1"/>
      <path id="Trazado_675" data-name="Trazado 675" d="M211.636,593.51c-2.218-2.339-4.546-4.574-6.836-6.846-.994-.987-9.341-9.256-10.484-10.365.514-.47,1.268-.213,1.795-.694,3.378,3.431,13.644,13.509,16.935,16.909a9.306,9.306,0,0,0,4.155,2.276,15.136,15.136,0,0,1,5.362,2.441c.441.382.873.775,1.3,1.173l-1.564.782a9.159,9.159,0,0,0-5.106-2.7A9.471,9.471,0,0,1,211.636,593.51Z" transform="translate(-3.82 -13.313)" fill="#ef8b44" stroke="#ef8b44" stroke-miterlimit="10" stroke-width="1.3"/>
      <path id="Trazado_676" data-name="Trazado 676" d="M247.3,518.686a2.15,2.15,0,0,0-1.406,1.418c-.085.495.616,1.125.97,1.7l.7.028c.405-.537,1.04-1.025,1.163-1.62a1.216,1.216,0,0,0-1.423-1.522m.009,4.612a3.211,3.211,0,0,1-3.254-3.089,3.294,3.294,0,0,1,3.223-3.3,3.225,3.225,0,0,1,3.23,3.268,3.16,3.16,0,0,1-3.2,3.12" transform="translate(-15.101)" fill="#ef8b44" stroke="#ef8b44" stroke-width="1"/>
      <path id="Trazado_677" data-name="Trazado 677" d="M247.3,518.686a2.15,2.15,0,0,0-1.406,1.418c-.085.495.616,1.125.97,1.7l.7.028c.405-.537,1.04-1.025,1.163-1.62A1.216,1.216,0,0,0,247.3,518.686Zm.009,4.612a3.211,3.211,0,0,1-3.254-3.089,3.294,3.294,0,0,1,3.223-3.3,3.225,3.225,0,0,1,3.23,3.268A3.16,3.16,0,0,1,247.306,523.3Z" transform="translate(-15.101)" fill="#ef8b44" stroke="#ef8b44" stroke-miterlimit="10" stroke-width="1.3"/>
      <path id="Trazado_678" data-name="Trazado 678" d="M180.6,552.5a2.167,2.167,0,0,0-1.363,1.5c-.05.506.724,1.095,1.136,1.647l.649-.008c.4-.561,1.065-1.093,1.13-1.689A1.276,1.276,0,0,0,180.6,552.5m-.061,4.611a3.1,3.1,0,0,1-3.063-3.23,3.2,3.2,0,0,1,3.187-3.153,3.346,3.346,0,0,1,3.262,3.282,3.2,3.2,0,0,1-3.387,3.1" transform="translate(0 -7.67)" fill="#ef8b44" stroke="#ef8b44" stroke-width="1"/>
      <path id="Trazado_679" data-name="Trazado 679" d="M180.6,552.5a2.167,2.167,0,0,0-1.363,1.5c-.05.506.724,1.095,1.136,1.647l.649-.008c.4-.561,1.065-1.093,1.13-1.689A1.276,1.276,0,0,0,180.6,552.5Zm-.061,4.611a3.1,3.1,0,0,1-3.063-3.23,3.2,3.2,0,0,1,3.187-3.153,3.346,3.346,0,0,1,3.262,3.282A3.2,3.2,0,0,1,180.536,557.108Z" transform="translate(0 -7.67)" fill="#ef8b44" stroke="#ef8b44" stroke-miterlimit="10" stroke-width="1.3"/>
      <path id="Trazado_680" data-name="Trazado 680" d="M200.41,536.766a1.8,1.8,0,0,0-2.368,1.329,1.963,1.963,0,0,0,1.538,2.272,6.121,6.121,0,0,1,1.532,1.175l-.359.414c-2.142.247-3.68-.561-4.245-2.228a3.654,3.654,0,0,1,1.553-4.319,3.534,3.534,0,0,1,4.342.673c-.425.934-1.041,1.028-1.994.684" transform="translate(-4.273 -4.09)" fill="#ef8b44" stroke="#ef8b44" stroke-width="1"/>
      <path id="Trazado_681" data-name="Trazado 681" d="M200.41,536.766a1.8,1.8,0,0,0-2.368,1.329,1.963,1.963,0,0,0,1.538,2.272,6.121,6.121,0,0,1,1.532,1.175l-.359.414c-2.142.247-3.68-.561-4.245-2.228a3.654,3.654,0,0,1,1.553-4.319,3.534,3.534,0,0,1,4.342.673C201.979,537.016,201.363,537.11,200.41,536.766Z" transform="translate(-4.273 -4.09)" fill="#ef8b44" stroke="#ef8b44" stroke-miterlimit="10" stroke-width="1.3"/>
      <path id="Trazado_682" data-name="Trazado 682" d="M228.612,543.05a9.136,9.136,0,0,1,2.238.032,2.02,2.02,0,0,0,2.577-.96,1.789,1.789,0,0,0-1.249-2.535c-1.133-.255-1.065-.879-.958-1.8,2.413.2,3.807,1.29,4.028,3.03a3.647,3.647,0,0,1-2.213,3.889c-1.628.643-3.137.177-4.423-1.657" transform="translate(-11.599 -4.735)" fill="#ef8b44" stroke="#ef8b44" stroke-width="1"/>
      <path id="Trazado_683" data-name="Trazado 683" d="M228.612,543.05a9.136,9.136,0,0,1,2.238.032,2.02,2.02,0,0,0,2.577-.96,1.789,1.789,0,0,0-1.249-2.535c-1.133-.255-1.065-.879-.958-1.8,2.413.2,3.807,1.29,4.028,3.03a3.647,3.647,0,0,1-2.213,3.889C231.407,545.351,229.9,544.884,228.612,543.05Z" transform="translate(-11.599 -4.735)" fill="#ef8b44" stroke="#ef8b44" stroke-miterlimit="10" stroke-width="1.3"/>
      <path id="Trazado_684" data-name="Trazado 684" d="M192.154,544.593v1.321h-1.471c-.081-1.638-.081-1.638,1.471-1.321" transform="translate(-2.99 -6.242)" fill="#ef8b44" stroke="#ef8b44" stroke-width="1"/>
      <path id="Trazado_685" data-name="Trazado 685" d="M192.154,544.593v1.321h-1.471C190.6,544.276,190.6,544.276,192.154,544.593Z" transform="translate(-2.99 -6.242)" fill="#ef8b44" stroke="#ef8b44" stroke-miterlimit="10" stroke-width="1.3"/>
      <path id="Trazado_686" data-name="Trazado 686" d="M228.737,528.63v1.312h-1.4c-.063-1.584-.063-1.584,1.4-1.312" transform="translate(-11.304 -2.628)" fill="#ef8b44" stroke="#ef8b44" stroke-width="1"/>
      <path id="Trazado_687" data-name="Trazado 687" d="M228.737,528.63v1.312h-1.4C227.271,528.359,227.271,528.359,228.737,528.63Z" transform="translate(-11.304 -2.628)" fill="#ef8b44" stroke="#ef8b44" stroke-miterlimit="10" stroke-width="1.3"/>
      <path id="Trazado_688" data-name="Trazado 688" d="M240.318,553.983H241.7v1.5l-1.379-.093Z" transform="translate(-14.254 -8.409)" fill="#ef8b44" stroke="#ef8b44" stroke-width="1"/>
      <path id="Trazado_689" data-name="Trazado 689" d="M240.318,553.983H241.7v1.5l-1.379-.093Z" transform="translate(-14.254 -8.409)" fill="#ef8b44" stroke="#ef8b44" stroke-miterlimit="10" stroke-width="1.3"/>
      <path id="Trazado_690" data-name="Trazado 690" d="M257.19,597.293l-1.283,1.188c-1.179-1.226-2.276-2.458-3.446-3.6l1.643-.822,3.086,3.234" transform="translate(-17.008 -17.498)" fill="#ef8b44" stroke="#ef8b44" stroke-width="1"/>
      <path id="Trazado_691" data-name="Trazado 691" d="M257.19,597.293l-1.283,1.188c-1.179-1.226-2.276-2.458-3.446-3.6l1.643-.822Z" transform="translate(-17.008 -17.498)" fill="#ef8b44" stroke="#ef8b44" stroke-miterlimit="10" stroke-width="1.3"/>
      <path id="Trazado_692" data-name="Trazado 692" d="M239.409,612.547l-1.195,1.111c-2.606-2.633-5.115-5.164-7.618-7.7-.028-.029-.057-.054-.085-.082l1.563-.782c2.531,2.352,4.862,4.946,7.334,7.456" transform="translate(-12.03 -20)" fill="#ef8b44" stroke="#ef8b44" stroke-width="1"/>
      <path id="Trazado_693" data-name="Trazado 693" d="M239.409,612.547l-1.195,1.111c-2.606-2.633-5.115-5.164-7.618-7.7-.028-.029-.057-.054-.085-.082l1.563-.782C234.605,607.443,236.936,610.037,239.409,612.547Z" transform="translate(-12.03 -20)" fill="#ef8b44" stroke="#ef8b44" stroke-miterlimit="10" stroke-width="1.3"/>
      <path id="Trazado_694" data-name="Trazado 694" d="M187.795,554.105c.083-.085.167-.169.25-.254a2.852,2.852,0,0,1,2.334-.864,2.73,2.73,0,0,0-.846-.687c-.334-.448-.6-.833-.818-1.184a10.568,10.568,0,0,1-.581-1.686,6.814,6.814,0,0,1,.835-2.851c-3.353-3.431-4.5-7.457-2.5-11.92,2.338-5.22,6.728-6.855,12.149-6.1.55-3.415,2.013-5.38,4.436-5.838a5.771,5.771,0,0,1,6.648,3.139c4.286-3.869,9.073-5.13,14.284-2.378,5.421,2.862,7.009,7.669,5.942,13.532,2.59,1.579,5.187,3.09,7.7,4.727a30.662,30.662,0,0,1,3.026,2.53c.668.569,1.3,1.19,2,1.713a15.682,15.682,0,0,0,8.621,3.038l-.066,1.652a17.275,17.275,0,0,1-12.3-5.759,22.122,22.122,0,0,0-2.657-2.11c1,5.124-.227,9.155-4.553,12.2-.317-.511-.587-.946-.872-1.4,3.179-2.359,4.648-5.383,3.665-9.233a7.665,7.665,0,0,0-5.238-5.67c-1.379,2.4-2.986,4.441-5.652,5.533l-.633-1.313c5.093-3.9,6.78-8.169,5.027-12.569a10.06,10.06,0,0,0-10.985-6.469c-3.864.537-7.982,3.462-8.706,9.834h-1.847a41.437,41.437,0,0,1,1.556-5.025,2.492,2.492,0,0,0-.269-2.7,3.932,3.932,0,0,0-5.049-1.319,4.037,4.037,0,0,0-2.218,3.23c-.235,1.434.794,1.822,1.672,2.409.468.313.886.7,1.475,1.177l-1.121,1.046c-.974-.588-1.814-1.188-2.729-1.633a8.757,8.757,0,0,0-10.5,2.311,8.654,8.654,0,0,0-.576,10.362c1.761,2.416,1.272,2.019,3.9,1.378.3-3.227,2.6-5.283,6.5-3.812,1.5-2.833,3.148-3.735,5.548-2.867a5.922,5.922,0,0,1,2.01,1.4c2.59,2.56,5.13,5.17,7.719,7.793,2.287-3.254,3.358-3.343,6-.7,2.668,2.661,5.309,5.349,8.01,7.975a14.127,14.127,0,0,1,4.475,10.759,22.738,22.738,0,0,0,.722,4.749,1.327,1.327,0,0,0,.91.845,8.136,8.136,0,0,0,5.7-1.394,12.081,12.081,0,0,1,7.4-2.381l2.95,0-.068,1.7c-1.025.015-2.048.043-3.07.091a11.552,11.552,0,0,0-5.137,1.357c-2.314,1.355-4.566,2.561-7.368,2.386q-.114.213-.227.428l4.231,4.433-1.643.822c-.192-.187-.38-.378-.577-.559a16.593,16.593,0,0,1-5.577-13.187,10.465,10.465,0,0,0-2.829-7.65c-3.225-3.413-6.605-6.679-9.918-10.009-.7-.7-1.263-.528-1.807.212a3.662,3.662,0,0,0,.591,5.03c1.712,1.724,3.489,3.384,5.244,5.078l-1.291,1.461c-1.217-1.279-2.341-2.5-3.511-3.677-1.583-1.594-3.352-3.053-3.525-5.551-.017-.248-.274-.51-.475-.711-2.838-2.836-5.67-5.679-8.539-8.483a2.384,2.384,0,0,0-3.517-.107c-.994,1.047-.926,2.27.277,3.495q2.828,2.881,5.72,5.7c1.073,1.044,2.211,2.021,3.392,3.094l-1.374,1.271c-.415-.387-.775-.705-1.114-1.043-3.124-3.1-6.237-6.22-9.377-9.307a4.448,4.448,0,0,0-1.638-1.171,2.167,2.167,0,0,0-2.647,1.038,2.271,2.271,0,0,0,.541,3.033q4.883,4.876,9.772,9.743c.364.363.711.743,1.1,1.153l-1.318,1.232c-2.658-2.711-5.255-5.368-7.862-8.014-1.03-1.045-2.05-2.106-3.138-3.088a2.389,2.389,0,0,0-3.312.013,2.363,2.363,0,0,0,.022,3.3c.385.441.821.839,1.235,1.256l9.777,9.855-1.262,1.205c-2.636-2.681-5.156-5.278-7.716-7.837-1.2-1.2-2.652-1.294-3.635-.341-1.1,1.071-1,2.349.344,3.7q2.574,2.585,5.161,5.156a8.033,8.033,0,0,1-1.176,1.33c-1.564-1.586-3.118-3.168-4.659-4.762-.237-.246-.462-.5-.682-.771-1.746-2.343-1.556-3.9-.281-5.408.034-.04.068-.074.1-.111" transform="translate(-1.817 -1.156)" fill="#ef8b44" stroke="#ef8b44" stroke-width="1"/>
      <path id="Trazado_695" data-name="Trazado 695" d="M187.795,554.105c.083-.085.167-.169.25-.254a2.852,2.852,0,0,1,2.334-.864,2.73,2.73,0,0,0-.846-.687c-.334-.448-.6-.833-.818-1.184a10.568,10.568,0,0,1-.581-1.686,6.814,6.814,0,0,1,.835-2.851c-3.353-3.431-4.5-7.457-2.5-11.92,2.338-5.22,6.728-6.855,12.149-6.1.55-3.415,2.013-5.38,4.436-5.838a5.771,5.771,0,0,1,6.648,3.139c4.286-3.869,9.073-5.13,14.284-2.378,5.421,2.862,7.009,7.669,5.942,13.532,2.59,1.579,5.187,3.09,7.7,4.727a30.662,30.662,0,0,1,3.026,2.53c.668.569,1.3,1.19,2,1.713a15.682,15.682,0,0,0,8.621,3.038l-.066,1.652a17.275,17.275,0,0,1-12.3-5.759,22.122,22.122,0,0,0-2.657-2.11c1,5.124-.227,9.155-4.553,12.2-.317-.511-.587-.946-.872-1.4,3.179-2.359,4.648-5.383,3.665-9.233a7.665,7.665,0,0,0-5.238-5.67c-1.379,2.4-2.986,4.441-5.652,5.533l-.633-1.313c5.093-3.9,6.78-8.169,5.027-12.569a10.06,10.06,0,0,0-10.985-6.469c-3.864.537-7.982,3.462-8.706,9.834h-1.847a41.437,41.437,0,0,1,1.556-5.025,2.492,2.492,0,0,0-.269-2.7,3.932,3.932,0,0,0-5.049-1.319,4.037,4.037,0,0,0-2.218,3.23c-.235,1.434.794,1.822,1.672,2.409.468.313.886.7,1.475,1.177l-1.121,1.046c-.974-.588-1.814-1.188-2.729-1.633a8.757,8.757,0,0,0-10.5,2.311,8.654,8.654,0,0,0-.576,10.362c1.761,2.416,1.272,2.019,3.9,1.378.3-3.227,2.6-5.283,6.5-3.812,1.5-2.833,3.148-3.735,5.548-2.867a5.922,5.922,0,0,1,2.01,1.4c2.59,2.56,5.13,5.17,7.719,7.793,2.287-3.254,3.358-3.343,6-.7,2.668,2.661,5.309,5.349,8.01,7.975a14.127,14.127,0,0,1,4.475,10.759,22.738,22.738,0,0,0,.722,4.749,1.327,1.327,0,0,0,.91.845,8.136,8.136,0,0,0,5.7-1.394,12.081,12.081,0,0,1,7.4-2.381l2.95,0-.068,1.7c-1.025.015-2.048.043-3.07.091a11.552,11.552,0,0,0-5.137,1.357c-2.314,1.355-4.566,2.561-7.368,2.386q-.114.213-.227.428l4.231,4.433-1.643.822c-.192-.187-.38-.378-.577-.559a16.593,16.593,0,0,1-5.577-13.187,10.465,10.465,0,0,0-2.829-7.65c-3.225-3.413-6.605-6.679-9.918-10.009-.7-.7-1.263-.528-1.807.212a3.662,3.662,0,0,0,.591,5.03c1.712,1.724,3.489,3.384,5.244,5.078l-1.291,1.461c-1.217-1.279-2.341-2.5-3.511-3.677-1.583-1.594-3.352-3.053-3.525-5.551-.017-.248-.274-.51-.475-.711-2.838-2.836-5.67-5.679-8.539-8.483a2.384,2.384,0,0,0-3.517-.107c-.994,1.047-.926,2.27.277,3.495q2.828,2.881,5.72,5.7c1.073,1.044,2.211,2.021,3.392,3.094l-1.374,1.271c-.415-.387-.775-.705-1.114-1.043-3.124-3.1-6.237-6.22-9.377-9.307a4.448,4.448,0,0,0-1.638-1.171,2.167,2.167,0,0,0-2.647,1.038,2.271,2.271,0,0,0,.541,3.033q4.883,4.876,9.772,9.743c.364.363.711.743,1.1,1.153l-1.318,1.232c-2.658-2.711-5.255-5.368-7.862-8.014-1.03-1.045-2.05-2.106-3.138-3.088a2.389,2.389,0,0,0-3.312.013,2.363,2.363,0,0,0,.022,3.3c.385.441.821.839,1.235,1.256l9.777,9.855-1.262,1.205c-2.636-2.681-5.156-5.278-7.716-7.837-1.2-1.2-2.652-1.294-3.635-.341-1.1,1.071-1,2.349.344,3.7q2.574,2.585,5.161,5.156a8.033,8.033,0,0,1-1.176,1.33c-1.564-1.586-3.118-3.168-4.659-4.762-.237-.246-.462-.5-.682-.771-1.746-2.343-1.556-3.9-.281-5.408C187.727,554.177,187.761,554.143,187.795,554.105Z" transform="translate(-1.817 -1.156)" fill="#ef8b44" stroke="#ef8b44" stroke-miterlimit="10" stroke-width="1.3"/>
      <path id="Trazado_696" data-name="Trazado 696" d="M188.911,557.474a10.571,10.571,0,0,0,.581,1.686,3.391,3.391,0,0,1-.581-1.686" transform="translate(-2.594 -9.2)" fill="#ef8b44" stroke="#ef8b44" stroke-width="1"/>
      <path id="Trazado_697" data-name="Trazado 697" d="M188.911,557.474a10.571,10.571,0,0,0,.581,1.686A3.391,3.391,0,0,1,188.911,557.474Z" transform="translate(-2.594 -9.2)" fill="#ef8b44" stroke="#ef8b44" stroke-miterlimit="10" stroke-width="1.3"/>
    </g>
  </g>
</svg>
