<svg xmlns="http://www.w3.org/2000/svg" width="78.167" height="54.522" viewBox="0 0 78.167 54.522">
  <g id="Grupo_478" data-name="Grupo 478" transform="translate(0 0)">
    <path id="Trazado_776" data-name="Trazado 776" d="M338.445,269.8l-11.651.007a7.144,7.144,0,0,0-7.131,7.141v23.017a7.145,7.145,0,0,0,7.131,7.142l63.9-.007a7.147,7.147,0,0,0,7.137-7.141V276.943a7.147,7.147,0,0,0-7.137-7.141H378.776a20.418,20.418,0,0,0-40.331,0" transform="translate(-319.663 -252.587)" fill="#05ab4c"/>
    <path id="Trazado_777" data-name="Trazado 777" d="M391.329,271.1H378.857a19.776,19.776,0,0,0-39.219,0l-12.207.006a6.483,6.483,0,0,0-6.468,6.478V300.6a6.484,6.484,0,0,0,6.468,6.478l63.9-.007A6.485,6.485,0,0,0,397.8,300.6V277.579a6.484,6.484,0,0,0-6.473-6.477" transform="translate(-320.3 -253.224)" fill="#ffd400"/>
    <path id="Trazado_778" data-name="Trazado 778" d="M331.407,294.942a3.119,3.119,0,0,0-3.112,3.117v22.279a3.112,3.112,0,0,0,3.112,3.1l63.127-.007a3.112,3.112,0,0,0,3.114-3.1V298.052a3.119,3.119,0,0,0-3.114-3.117Z" transform="translate(-323.89 -273.325)" fill="#05ab4c"/>
    <path id="Trazado_779" data-name="Trazado 779" d="M397.621,298.689a2.456,2.456,0,0,0-2.45-2.455l-63.127.008a2.454,2.454,0,0,0-2.449,2.454v22.279a2.447,2.447,0,0,0,2.449,2.44l63.127-.007a2.448,2.448,0,0,0,2.45-2.441Z" transform="translate(-324.527 -273.961)" fill="#05ab4c"/>
    <path id="Trazado_780" data-name="Trazado 780" d="M366.656,273.078l-.012.063v.064a1.474,1.474,0,0,0,.4,1.073,1.407,1.407,0,0,0,.962.409H395.2a1.4,1.4,0,0,0,1.392-1.446v-.066l-.012-.065c-1.267-6.668-7.84-11.893-14.965-11.893s-13.689,5.209-14.961,11.86" transform="translate(-342.669 -256.814)" fill="#05ab4c"/>
    <path id="Trazado_781" data-name="Trazado 781" d="M368.154,274.449a.752.752,0,0,0,.491.213h27.194a.743.743,0,0,0,.728-.79c-1.209-6.367-7.494-11.353-14.312-11.353s-13.1,4.969-14.31,11.321a.845.845,0,0,0,.209.61" transform="translate(-343.306 -257.45)" fill="#05ab4c"/>
    <path id="Trazado_782" data-name="Trazado 782" d="M383.721,269.521a1.089,1.089,0,0,1-1.007.9l-.034,0v.789h.871V276h1.227v-6.5h-1.049Z" transform="translate(-350.522 -260.866)" fill="#fff"/>
    <path id="Trazado_783" data-name="Trazado 783" d="M393.679,273a2.3,2.3,0,0,0,1.074-1.932,1.706,1.706,0,0,0-1.9-1.777,2.236,2.236,0,0,0-1.817.9l-.02.025.762.9.029-.034a1.323,1.323,0,0,1,1-.562.621.621,0,0,1,.7.706,1.106,1.106,0,0,1-.59.95,3.993,3.993,0,0,0-1.915,3.684l0,.04h3.768v-1.2h-2.382c.057-.664.483-1.1,1.29-1.7" transform="translate(-354.598 -260.764)" fill="#fff"/>
    <path id="Trazado_784" data-name="Trazado 784" d="M404.27,272.407a1.347,1.347,0,0,0,.83-1.328,1.722,1.722,0,0,0-1.88-1.793,2.173,2.173,0,0,0-1.805.851l-.024.027.828.833.027-.027a1.209,1.209,0,0,1,.9-.465.641.641,0,0,1,.717.713c0,.544-.432.659-.8.659h-.492v1.194h.483c.632,0,.981.315.981.886a.763.763,0,0,1-.823.836,1.253,1.253,0,0,1-1.07-.675l-.021-.032-.941.668-.03.021.019.031A2.211,2.211,0,0,0,403.188,276a1.915,1.915,0,0,0,2.1-2.068,1.493,1.493,0,0,0-1.018-1.522" transform="translate(-359.57 -260.764)" fill="#fff"/>
    <path id="Trazado_785" data-name="Trazado 785" d="M341.971,323.234c-2.7,0-3.919-1.892-4.189-5.108l2.892-.514c.216,2.3.622,2.866,1.3,2.866.757,0,1.081-.486,1.081-1.7,0-1.811-.567-2.65-2.27-4.541-1.919-1.945-2.865-3.729-2.865-5.891,0-2.648,1.3-4.621,3.892-4.621,2.648,0,3.7,1.784,4.053,4.568l-2.838.594c-.216-1.864-.54-2.432-1.216-2.432-.649,0-.973.46-.973,1.649,0,1.324.459,2.108,1.946,3.7,2.19,2.215,3.216,4.107,3.216,6.7,0,2.784-1.459,4.73-4.027,4.73" transform="translate(-328.536 -277.627)" fill="#fff"/>
    <path id="Trazado_786" data-name="Trazado 786" d="M377.667,323.234c-2.7,0-3.919-1.892-4.189-5.108l2.891-.514c.216,2.3.622,2.866,1.3,2.866.756,0,1.08-.486,1.08-1.7,0-1.811-.567-2.65-2.269-4.541-1.92-1.945-2.865-3.729-2.865-5.891,0-2.648,1.3-4.621,3.892-4.621,2.648,0,3.7,1.784,4.053,4.568l-2.838.594c-.216-1.864-.54-2.432-1.216-2.432-.649,0-.973.46-.973,1.649,0,1.324.46,2.108,1.946,3.7,2.19,2.215,3.216,4.107,3.216,6.7,0,2.784-1.459,4.73-4.027,4.73" transform="translate(-346.016 -277.627)" fill="#fff"/>
    <path id="Trazado_787" data-name="Trazado 787" d="M396.518,316.33h-1.676l.406-3.432c.163-1.351.352-2.918.406-4.4.08,1.486.269,3.026.432,4.378Zm3.839,6.892-3-18.918h-3.243l-3,18.918h3l.486-4.162h2.217l.513,4.162Z" transform="translate(-354.652 -277.912)" fill="#fff"/>
    <path id="Trazado_788" data-name="Trazado 788" d="M420.187,323.222v-4.945c0-2.3.081-4.486.135-6.433-.27,1.486-.864,4.3-1.351,6.217l-1.351,5.729-1.325-5.729c-.459-1.839-1.053-4.784-1.324-6.217.027,1.784.135,4.217.135,6.433v4.945h-2.7V304.3h2.971l1.245,5.756a48.752,48.752,0,0,1,1,5.433,49.361,49.361,0,0,1,1.026-5.46l1.271-5.729h2.972v18.918Z" transform="translate(-365.078 -277.912)" fill="#fff"/>
    <path id="Trazado_789" data-name="Trazado 789" d="M442.573,313.531c0,5.73-.323,6.919-1.3,6.919-.946,0-1.3-1.244-1.3-7.027,0-5.729.27-6.918,1.27-6.918.974,0,1.324,1.244,1.324,7.026m3.136-.108c0-6.458-1.081-9.7-4.433-9.7s-4.4,3.216-4.4,9.81c0,6.541,1.026,9.7,4.35,9.7,3.406,0,4.487-3.216,4.487-9.811" transform="translate(-377.059 -277.627)" fill="#fff"/>
    <path id="Trazado_790" data-name="Trazado 790" d="M357.164,323.222V304.3h7.082v2.81h-4.055v4.729H363.3v2.811h-3.108v5.756h4.3v2.811Z" transform="translate(-338.027 -277.913)" fill="#fff"/>
    <path id="Trazado_791" data-name="Trazado 791" d="M363.291,300.529h-1.545l1.662-2.28h2.76Z" transform="translate(-340.271 -274.947)" fill="#fff"/>
  </g>
</svg>
