<svg xmlns="http://www.w3.org/2000/svg" width="43.914" height="23.899" viewBox="0 0 43.914 23.899">
  <g id="Grupo_186" data-name="Grupo 186" transform="translate(-25.135 -877.353)">
    <path id="Trazado_269" data-name="Trazado 269" d="M3.98,1.915A2.082,2.082,0,0,0,2.055,3.86H2.028A2.086,2.086,0,0,0,0,1.9v-.01A2.084,2.084,0,0,0,2.022,0h.039A2.081,2.081,0,0,0,3.98,1.883Z" transform="translate(30.124 897.513) rotate(110)" fill="#2e335e"/>
    <path id="Trazado_268" data-name="Trazado 268" d="M3.98,1.915A2.082,2.082,0,0,0,2.055,3.86H2.028A2.086,2.086,0,0,0,0,1.9v-.01A2.084,2.084,0,0,0,2.022,0h.04A2.081,2.081,0,0,0,3.98,1.883Z" transform="translate(41.873 884.056) rotate(110)" fill="#2e335e"/>
    <path id="Trazado_270" data-name="Trazado 270" d="M1.011,0A1.011,1.011,0,1,1,0,1.011,1.011,1.011,0,0,1,1.011,0" transform="translate(55.887 894.435) rotate(110)" fill="#2e335e"/>
    <path id="Trazado_271" data-name="Trazado 271" d="M1.011,0A1.011,1.011,0,1,1,0,1.011,1.011,1.011,0,0,1,1.011,0" transform="translate(69.049 878.045) rotate(110)" fill="#2e335e"/>
  </g>
</svg>
