<svg xmlns="http://www.w3.org/2000/svg" xmlns:xlink="http://www.w3.org/1999/xlink" width="60" height="60" viewBox="0 0 60 60">
  <defs>
    <filter id="Elipse_179" x="0" y="0" width="60" height="60" filterUnits="userSpaceOnUse">
      <feOffset dy="2" input="SourceAlpha"/>
      <feGaussianBlur stdDeviation="2.5" result="blur"/>
      <feFlood flood-opacity="0.102"/>
      <feComposite operator="in" in2="blur"/>
      <feComposite in="SourceGraphic"/>
    </filter>
  </defs>
  <g id="Grupo_1222" data-name="Grupo 1222" transform="translate(-218.5 -937.5)">
    <g transform="matrix(1, 0, 0, 1, 218.5, 937.5)" filter="url(#Elipse_179)">
      <circle id="Elipse_179-2" data-name="Elipse 179" cx="22.5" cy="22.5" r="22.5" transform="translate(7.5 5.5)" fill="#fff"/>
    </g>
    <g id="Grupo_169" data-name="Grupo 169" transform="translate(227.392 951)">
      <path id="Trazado_328" data-name="Trazado 328" d="M8.876,303.749a.366.366,0,0,0,.363.322h5.694a.366.366,0,0,0,.35-.473l-.746-2.445,2.321-1.467a1.391,1.391,0,0,1,1.013-.131l.023,0,4.739.873a6.146,6.146,0,0,0,3.8-.536.362.362,0,0,0,.045-.026l8.2-5.628a.366.366,0,0,0,.106-.49,2.262,2.262,0,0,0-3.016-.825l-.131.071a1.937,1.937,0,0,0-2.3-.568l-.008,0-.322.173a2.518,2.518,0,0,0-2.876-.255l-1.773.964H22a3.4,3.4,0,0,1-1.472-.337l-.325-.157a5.59,5.59,0,0,0-5.817.568l-.023.019-.785.7a2.71,2.71,0,0,1-1.011.567l-.442-1.451a.366.366,0,0,0-.35-.259h-3.8a.366.366,0,0,0-.363.41ZM29.669,293.08a1.189,1.189,0,0,1,1.293.278l-3.093,1.669-.169.089a2.708,2.708,0,0,0-.414-.751Zm-3.187-.088.009,0a1.785,1.785,0,0,1,1.8.006l-1.554.837a2.7,2.7,0,0,0-.975-.444Zm-12.424,1.661.773-.689a4.861,4.861,0,0,1,5.047-.485l.325.157a4.137,4.137,0,0,0,1.791.41h3.152a1.981,1.981,0,0,1,1.94,1.593l-2.269-.1a13.673,13.673,0,0,0-2.489.115.366.366,0,0,0,.1.725,12.95,12.95,0,0,1,2.355-.109l2.689.122h.017a.366.366,0,0,0,.366-.366c0-.055,0-.109-.005-.163l.362-.191,3.9-2.1a1.531,1.531,0,0,1,1.833.285l-7.859,5.4a5.408,5.408,0,0,1-3.318.461l-4.727-.87a2.12,2.12,0,0,0-1.545.21l-.017.01-2.16,1.366-1.54-5.052a3.442,3.442,0,0,0,1.284-.721ZM11.5,293.7l2.94,9.643H9.563L8.387,293.7Z" transform="translate(0 -276.015)" fill="#ef8b44"/>
      <path id="Trazado_329" data-name="Trazado 329" d="M64.482,453.911a1.125,1.125,0,1,0-1.125-1.125h0A1.126,1.126,0,0,0,64.482,453.911Zm0-1.518a.393.393,0,1,1-.393.393h0a.394.394,0,0,1,.393-.393Z" transform="translate(-52.694 -426.911)" fill="#ef8b44"/>
      <path id="Trazado_330" data-name="Trazado 330" d="M182.521,14.4a5.617,5.617,0,0,0,4.853-2.832,4.964,4.964,0,0,0,.025-5.03l-.018-.028L182.819.152a.366.366,0,0,0-.594,0l-4.563,6.34q-.01.014-.019.03a4.992,4.992,0,0,0,.031,5.053,5.615,5.615,0,0,0,4.848,2.825Zm-4.256-7.495L182.521.993l4.256,5.93a4.187,4.187,0,0,1-.037,4.282,4.842,4.842,0,0,1-8.432.005A4.214,4.214,0,0,1,178.266,6.905Z" transform="translate(-160.083)" fill="#ef8b44"/>
      <path id="Trazado_331" data-name="Trazado 331" d="M271.309,159.339a3.131,3.131,0,0,0,3.135-3.12.366.366,0,1,0-.732,0,2.4,2.4,0,0,1-2.4,2.388.366.366,0,0,0,0,.732Z" transform="translate(-248.905 -147.313)" fill="#ef8b44"/>
    </g>
  </g>
</svg>
