<?xml version="1.0" encoding="utf-8"?>
<!-- Generator: Adobe Illustrator 24.1.0, SVG Export Plug-In . SVG Version: 6.00 Build 0)  -->
<svg version="1.1" id="Capa_1" xmlns="http://www.w3.org/2000/svg" xmlns:xlink="http://www.w3.org/1999/xlink" x="0px" y="0px"
	 viewBox="0 0 1080 1080" style="enable-background:new 0 0 1080 1080;" xml:space="preserve">
<style type="text/css">
	.st0{fill:#FFFFFF;}
</style>
<path class="st0" d="M540,604.2c-8.8,0-16,7.2-16,16.1v224.8c0,8.9,7.2,16.1,16.1,16.1c8.9,0,16-7.2,16.1-16.1V620.2
	C556.1,611.4,548.9,604.2,540,604.2C540,604.2,540,604.2,540,604.2z"/>
<path class="st0" d="M442.9,695.5c0-0.1,0-0.1-0.1-0.2l-48.1-144.4c-2.1-6.2-7.6-10.5-14.1-10.9c-6.5-0.4-12.6,3-15.5,8.8
	l-64.2,128.5c-4,7.9-0.7,17.6,7.2,21.5s17.6,0.7,21.5-7.2l0,0l8.9-17.7l76,38l14,41.9c2.2,6.6,8.3,11,15.3,11c1.7,0,3.4-0.3,5-0.9
	c8.4-2.8,12.9-11.9,10.1-20.3L442.9,695.5z M352.8,645.1l23.6-47.3l23.6,71L352.8,645.1z"/>
<path class="st0" d="M483,509.5l-192.7-96.4c-7.9-4-17.6-0.8-21.6,7.2s-0.8,17.6,7.2,21.6l192.7,96.4c7.9,4,17.6,0.8,21.6-7.2
	C494.1,523.1,490.9,513.5,483,509.5L483,509.5z"/>
<path class="st0" d="M789.8,413.2l-192.7,96.4c-8,3.9-11.2,13.5-7.3,21.5c2.7,5.5,8.3,9,14.5,9c2.5,0,5-0.6,7.2-1.7L804.2,442
	c7.9-4,11.2-13.6,7.2-21.5S797.7,409.3,789.8,413.2L789.8,413.2L789.8,413.2z"/>
<path class="st0" d="M839.7,309.4c-0.7-0.5-1.4-1-2.2-1.5L579.5,164.1c-1.1-0.6-2.2-1-3.3-1.4c-22.9-10.8-49.4-10.8-72.3-0.1
	c-1.2,0.3-2.4,0.8-3.5,1.4L242.5,308c-0.7,0.4-1.5,0.9-2.1,1.4c-23.3,13.4-37.7,36.9-37.7,61.9v337.2c0,25,14.3,48.5,37.6,61.9
	c0.7,0.6,1.4,1,2.2,1.5l257.9,143.9c1.1,0.6,2.2,1,3.3,1.3c22.9,10.8,49.4,10.9,72.3,0.1c1.2-0.3,2.4-0.8,3.5-1.4L837.5,772
	c0.8-0.4,1.5-0.9,2.2-1.5c23.3-13.4,37.6-36.9,37.6-61.9V371.3C877.3,346.3,862.9,322.8,839.7,309.4z M845.1,708.6
	c0,14.2-8.6,27.3-23,35c-0.9,0.4-1.7,1-2.5,1.6L566.3,886.5c-0.7,0.2-1.3,0.5-2,0.8c-15.2,7.8-33.3,7.8-48.5,0
	c-0.7-0.3-1.3-0.6-2-0.8L260.5,745.2c-0.8-0.6-1.6-1.2-2.5-1.6c-14.4-7.6-23.1-20.7-23.1-34.9V371.3c0-14.2,8.6-27.3,23-35
	c0.9-0.4,1.7-1,2.5-1.6l253.3-141.4c0.7-0.2,1.4-0.5,2-0.8c15.2-7.8,33.3-7.8,48.5,0c0.7,0.3,1.3,0.6,2,0.8l253.4,141.4
	c0.8,0.6,1.6,1.2,2.5,1.6c14.5,7.6,23.1,20.7,23.1,34.9V708.6z"/>
<path class="st0" d="M661.7,348.3c-0.8-19.4-12.1-36.8-29.6-45.3c-27.9-13.8-60.9-12.3-87.3,4.1l-5.9,3.7c-2.9-14-12.1-25.9-25-32.2
	c-13.9-7-30.3-6.6-43.8,0.9l-98.4,53.5c-7.8,4.2-10.7,13.9-6.6,21.7c1.7,3.1,4.3,5.6,7.6,7.1l176.6,80.3c2.1,0.9,4.4,1.4,6.7,1.4
	c3,0,6-0.8,8.5-2.5l72.1-45.1C653.2,386,662.8,367.6,661.7,348.3z M415.4,346l70.2-38.2c4.3-2.4,9.6-2.5,14-0.3
	c4.9,2.4,8.1,7.3,8.3,12.7c0.3,5.5-2.5,10.7-7.3,13.6l-46.2,29.9L415.4,346z M619.7,368.9l-64.8,40.5l-65.3-29.7l72.3-45.2
	c17-10.5,38.2-11.5,56.1-2.6c10.5,5.2,14.7,18,9.5,28.4C625.7,363.8,623,366.8,619.7,368.9L619.7,368.9z"/>
<path class="st0" d="M764.9,654.7c-8.9,0-16.1,7.2-16.1,16.1c0,17.7-14.4,32.1-32.1,32.1c-6,0-11.8-1.7-16.9-4.8
	c-9.6-5.8-15.4-16.2-15.3-27.3v-42.9c-0.1-18.3,10.3-35,26.6-43.1c12.9-6.4,28.5-1.2,34.9,11.7c1.8,3.6,2.7,7.5,2.7,11.6
	c0,8.9,7.2,16.1,16.1,16.1c8.9,0,16.1-7.2,16.1-16.1c0,0,0,0,0,0c0-32.1-26-58.1-58.1-58.1c-9,0-17.9,2.1-26,6.1
	c-27.3,13.5-44.5,41.4-44.4,71.8v42.9c0,35.5,28.7,64.2,64.2,64.3c10,0,19.9-2.4,28.8-6.8c21.8-10.8,35.6-33.1,35.5-57.5
	C780.9,661.9,773.7,654.7,764.9,654.7z"/>
</svg>
