<?xml version="1.0" encoding="utf-8"?>
<!-- Generator: Adobe Illustrator 24.1.0, SVG Export Plug-In . SVG Version: 6.00 Build 0)  -->
<svg version="1.1" id="Capa_1" xmlns="http://www.w3.org/2000/svg" xmlns:xlink="http://www.w3.org/1999/xlink" x="0px" y="0px"
	 viewBox="0 0 1080 1080" style="enable-background:new 0 0 1080 1080;" xml:space="preserve">
<style type="text/css">
	.st0{fill:#FFFFFF;}
</style>
<path class="st0" d="M540,138.9C319,138.9,138.9,319,138.9,540S319,941.1,540,941.1S941.1,761,941.1,540S761,138.9,540,138.9z
	 M540,915.2c-206,0-375.2-167.8-375.2-375.2S332.6,164.8,540,164.8c206,0,375.2,167.8,375.2,375.2S747.4,915.2,540,915.2z"/>
<path class="st0" d="M317.6,309.4l-19.1-19.1c-8.2,8.2-16.4,16.4-23.2,24.6l20.5,17.7C302.6,324.4,309.4,316.2,317.6,309.4z"/>
<path class="st0" d="M193.4,512.7l27.3,2.7C225,458,244.8,402.9,278,355.8l-21.8-15C219.5,391.1,197.7,450.6,193.4,512.7
	L193.4,512.7z"/>
<path class="st0" d="M726.9,278c0-31.4-25.9-57.3-57.3-57.3c-26.9-0.1-50.2,18.7-55.9,45c-2.7,9.5-4.1,20.5-5.5,31.4
	c-21.8-5.5-43.7-9.5-66.9-9.5v-66.8h-27.3v161c0,15-4.1,28.6-13.6,39.6c-3.8,5.2-8.4,9.8-13.6,13.6c-16.4,12.3-25.9,32.8-25.9,54.6
	l12.3,307c-0.2,6.9-2.6,13.6-6.8,19.1c-9.5,9.5-25.9,9.5-36.8,0c-5.5-5.5-6.8-12.3-6.8-19.1l9.5-307c1.4-21.8-8.2-42.3-25.9-54.6
	c-5.2-3.8-9.8-8.4-13.6-13.6c-8.2-10.9-13.6-25.9-13.6-39.6V219.4h-27.3v150.1c-94.1,103.7-88.7,263.3,15,358.8
	c9.5,8.2,19.1,16.4,28.7,23.2l-1.4,43.7c-1.4,28.7,21.8,53.2,50.5,54.6s53.2-21.8,54.6-50.5v-6.8c41.7,6.7,84.3,2.9,124.2-10.9
	l-1.4,12.3c-1.4,28.6,19.1,53.2,49.1,55.9s53.2-19.1,55.9-49.1v-88.7c88.7-96.9,88.7-245.6,0-342.5L726.9,278L726.9,278z
	 M398.1,718.7c-95.5-76.4-113.2-214.2-40.9-311.1c5.8,19.6,17.8,36.8,34.1,49.1c9.5,6.8,15,19.1,15,32.8L398.1,718.7z M626,751.5
	c-40.9,17.7-84.6,21.8-128.3,13.6l-9.5-277c-0.2-12.6,5.3-24.7,15-32.7c7-5.7,13.4-12.1,19.1-19.1c12.3-16.4,19.1-35.5,19.1-55.9
	v-66.8c21.2-0.1,42.3,2.7,62.8,8.2c-5.5,39.6-9.5,79.1-9.5,118.7v140.5c0,7.5,6.1,13.6,13.6,13.7h31.3L626,751.5z M701,796.5
	c-0.3,14.3-12.1,25.7-26.4,25.4c-13.9-0.3-25.1-11.5-25.4-25.4v-1.4l15-212.8c-0.3-7.2-5.3-13.3-12.3-15h-32.7V440.4
	c0-57.3,6.8-114.6,19.1-170.6c4.1-16.4,20.5-27.3,36.8-23.2c13.6,2.7,24.5,16.4,24.5,30L701,796.5L701,796.5z M767.8,541.3
	c0,46.4-13.6,91.4-39.6,128.3V411.8C754.2,450,768,495.2,767.8,541.3L767.8,541.3z"/>
<path class="st0" d="M406.3,219.4h27.3v147.4h-27.3V219.4z"/>
<path class="st0" d="M459.5,219.4h27.3v147.4h-27.3V219.4z"/>
</svg>
