<?xml version="1.0" encoding="utf-8"?>
<!-- Generator: Adobe Illustrator 24.1.0, SVG Export Plug-In . SVG Version: 6.00 Build 0)  -->
<svg version="1.1" id="Capa_1" xmlns="http://www.w3.org/2000/svg" xmlns:xlink="http://www.w3.org/1999/xlink" x="0px" y="0px"
	 viewBox="0 0 1080 1080" style="enable-background:new 0 0 1080 1080;" xml:space="preserve">
<style type="text/css">
	.st0{fill:#FFFFFF;}
</style>
<path class="st0" d="M549.6,790.7l-49.8-32.5c2.5-2.5,3.8-5,5-8.7c17.5-37.4,6.4-81-27.2-106l-59.8-43.8l16.3-36.1
	c17.5-39.9,5.2-87.3-31-112.3l-43.6-30c-10-7.5-16.2-18.7-16.1-31.2c0-0.7,0.5-1.2,1.2-1.2c0,0,0,0,0,0
	c41.1,0.1,76.1-33.5,76.2-75.9l0.1-32.4c0-18.7-6.2-37.4-16.1-52.4c8.8-13.7,12.5-28.6,12.6-46.1c0.1-48.6-39.7-88.6-88.3-88.7
	l-36.2-0.1c-38.6-0.1-74.8,14.8-101.1,42.2c-25,24.9-40,58.5-41.3,93.4c-36.5,31.6-57.6,77.5-57.6,125.8l-0.1,36.2
	c-0.3,43.2,34.5,78.4,77.7,78.7c0.2,0,0.4,0,0.6,0c15,0,29.9-4.9,42.4-12.4v7.5l-0.2,93.5c0,15,3.7,29.9,9.9,43.7L207,630.4
	c-16.3,28.6-23.8,59.8-20.1,92.2s16.1,62.4,38.5,86.1c5,5,9.9,10,14.9,15l-61.1-0.1c-47.9-0.4-87.1,38.1-87.4,86c0,0.4,0,0.7,0,1.1
	l-0.1,28.7c0,18.9,11.2,36.1,28.6,43.7c5.9,2.5,12.3,3.7,18.7,3.8c12.2,0,23.9-4.9,32.4-13.6l20-19.9c2.2-2.5,5.4-3.8,8.7-3.7
	l64.8,0.1c9.6,0.2,17.7-7.4,17.9-17c0.2-9.6-7.4-17.7-17-17.9c-0.3,0-0.6,0-0.8,0l-64.8-0.1c-12.2,0-23.9,4.9-32.4,13.7l-20,19.9
	c-5,5-10,3.7-12.5,2.5s-7.5-3.8-7.4-11.2v-28.7c0.2-28.8,23.6-52.1,52.5-52.3l270.5,0.5c9.6,0.2,17.7-7.4,17.9-17
	c0.2-9.6-7.4-17.7-17-17.9c-0.3,0-0.6,0-0.8,0h-21.2l42.5-42.3l59.8,40c14.7,9.7,23.6,26.1,23.6,43.7c-0.1,28.7-23.8,51.1-51.2,51
	l-81-0.2c-9.6,0.2-17.3,8.2-17.1,17.8c0.2,9.3,7.7,16.8,17,17.1l81,0.2c47.5,0,86-38.4,86.2-85.8
	C589.3,834.4,574.4,806.9,549.6,790.7L549.6,790.7z M473.6,735.7c-1.2,1.2-1.3,2.5-2.5,2.5h-3.7L276.9,610.6
	c-17.7-11.6-28.5-31.3-28.6-52.4l0.2-93.5c0-15,11.3-26.2,26.2-26.1s26.2,11.3,26.1,26.2l-0.2,84.8c0,5,2.5,11.2,7.5,13.7l150.6,110
	C478.2,687.7,484.5,714,473.6,735.7L473.6,735.7z M384.4,481.1c22.4,15,29.8,44.9,18.6,68.6l-13.8,29.9l-54.8-40l0.1-74.8
	c0.1-7.2-1.2-14.4-3.7-21.2c2.5,2.5,6.2,6.2,10,7.5L384.4,481.1z M387.2,314.1c-0.2,22.6-18.6,40.9-41.2,41.1
	c-20,0-36.2,16.1-36.2,36.1c0.1,9.9,2.2,19.6,6.2,28.7c-11.2-10-24.9-16.3-41.1-16.3c-9.1,0-18.1,2.1-26.2,6.2
	c1.3-6.2,2.5-12.5,2.5-18.7l0.1-39.9c-0.1-43.2,34.9-78.3,78.1-78.4c0.2,0,0.4,0,0.6,0c18.7,0,37.4-6.2,51.1-16.1
	c4.1,8.1,6.2,17.1,6.2,26.2L387.2,314.1L387.2,314.1z M171.3,433.3c-23.7,0-43.6-20-43.5-43.7l0.1-36.1
	c0.1-41.1,18.9-78.5,51.3-103.4c3.8-3.7,6.3-8.7,6.3-13.7c0.1-28.7,11.3-56.1,31.3-77.2s47.4-32.3,77.4-32.3l36.2,0.1
	c29.6,0.1,53.6,24.1,53.5,53.7s-24.1,53.6-53.7,53.5C267.7,234,216.4,285,216.3,347.4l-0.1,39.9
	C216.2,413.5,196.2,433.4,171.3,433.3L171.3,433.3z M378.7,822.7l-42.4-0.1c-32.9-0.1-64.2-14.2-86-38.8
	c-34.8-38.7-40.9-93.6-14.7-138.4l10-16.2c3.4,3.3,7.2,6.2,11.2,8.8l184.3,121.3L378.7,822.7z"/>
<path class="st0" d="M951,769l-19.8-78.6c-7.4-27.4-24.8-49.9-49.7-62.4c-5-2.5-10-3.8-15-6.3c10-13.7,17.5-32.4,17.6-51.1
	c0.1-47.5-38.3-86.1-85.8-86.2c-47.5-0.1-86.1,38.3-86.2,85.8c-0.1,31.2,17.3,58.6,42.2,73.6L693.2,670c-10,3.7-18.7,12.4-23.7,22.4
	l-13.7-13.7c5-8.7,7.5-18.6,7.5-28.7c0-33.7-27.3-61.1-61-61.2c-33.7,0-61.1,27.3-61.2,61c0,33.7,27.2,61.1,61,61.2
	c10,0.1,19.9-2.5,28.7-7.4l77.1,77.4c3.7,3.8,7.5,5,12.5,5s8.7-1.2,12.5-5c5-5,6.3-11.2,5-16.2l44.9,0.1l13.6,64.9L672.9,847
	c-24.9,3.7-44.9,26.1-45,51c0.1,28.8,23.4,52.2,52.2,52.5l204.5,0.4l0,0c57.4,0.1,103.6-47.1,103.7-103.2
	C984.6,816.5,972.2,789,951,769z M797,519.3c27.4,0.1,51.1,22.5,51,51.2s-22.5,51.1-51.2,51c-28.2-0.6-50.6-24-50-52.2
	C747.4,541.9,769.6,519.8,797,519.3z M573.5,648.6c0-14.5,11.8-26.2,26.2-26.1c14.5,0,26.2,11.8,26.1,26.2
	c0,14.5-11.8,26.1-26.2,26.1C585.2,674.7,573.6,663,573.5,648.6z M829,728.9l-118.4-0.2c-5.2,0.1-10.1-2.8-12.5-7.5
	c-1.2-3.8-2.5-7.5,0-11.2s3.8-6.2,7.5-7.5l108.6-44.7c16.2-7.5,34.9-6.2,51.1,1.3s27.4,22.5,32.3,40l17.3,69.8l-89.8,39.7l-8.6-44.9
	h13.7c9.4,0.3,17.2-7.1,17.5-16.5c0-0.3,0-0.6,0-0.9C847.7,736.4,839,728.9,829,728.9L829,728.9z M659.1,896.9
	c-0.1-8.7,6.3-16.2,15-17.4L803.8,861l21.1,53.7l-149.6-0.3C667.8,914.3,659,906.8,659.1,896.9L659.1,896.9z M881,914.8h-17.5
	l-29.8-72.4l97.3-43.4c12.4,12.5,18.6,30,18.6,47.4c0,37.8-30.5,68.4-68.3,68.4C881.3,914.8,881.1,914.8,881,914.8L881,914.8z"/>
<path class="st0" d="M342.4,913.7c-5,0-8.7,1.2-12.5,5s-5,7.5-5,12.5s1.2,8.7,5,12.5s7.5,5,12.5,5s8.7-1.2,12.5-5s5-7.5,5-12.5
	s-1.2-8.7-5-12.5C351.1,916.2,347.3,913.7,342.4,913.7z"/>
</svg>
