<?xml version="1.0" encoding="utf-8"?>
<!-- Generator: Adobe Illustrator 24.1.0, SVG Export Plug-In . SVG Version: 6.00 Build 0)  -->
<svg version="1.1" id="Capa_1" xmlns="http://www.w3.org/2000/svg" xmlns:xlink="http://www.w3.org/1999/xlink" x="0px" y="0px"
	 viewBox="0 0 1080 1080" style="enable-background:new 0 0 1080 1080;" xml:space="preserve">
<style type="text/css">
	.st0{fill:#FFFFFF;stroke:#FFFFFF;stroke-width:10;stroke-miterlimit:10;}
</style>
<path class="st0" d="M981.5,86h-64.3c-6.9,0-12.4,5.6-12.4,12.4v72.7H760.1v-17.7c0-22.5-18.3-40.8-40.8-40.8h-17.7
	c-22.5,0-40.8,18.3-40.8,40.8v17.7H516.1v-17.7c0-22.5-18.3-40.8-40.8-40.8h-17.7c-10.6,0-20.8,4.1-28.4,11.6
	c-7.6-7.4-17.8-11.5-28.4-11.6h-17.7c-10.6,0-20.8,4.1-28.4,11.6c-7.6-7.4-17.8-11.5-28.4-11.6h-17.7c-22.5,0-40.8,18.3-40.8,40.8
	v17.7h-92.7V98.4c0-6.9-5.5-12.4-12.4-12.4c0,0,0,0,0,0H98.4C91.6,86,86,91.5,86,98.4c0,0,0,0,0,0v883.1c0,6.9,5.5,12.4,12.4,12.4
	c0,0,0,0,0,0h883.1c6.9,0,12.4-5.5,12.4-12.4c0,0,0,0,0,0V98.4C994,91.6,988.5,86,981.5,86C981.6,86,981.6,86,981.5,86L981.5,86z
	 M929.7,110.8h39.5v787.4h-39.5V110.8z M175.1,898.2V776.3h92.7V794c0,22.5,18.3,40.8,40.8,40.8h17.7c10.6,0,20.8-4.2,28.4-11.5
	c7.6,7.4,17.8,11.5,28.4,11.5h17.7c10.6,0,20.8-4.2,28.4-11.5c7.6,7.4,17.8,11.5,28.4,11.5h17.7c22.5,0,40.8-18.3,40.8-40.8v-17.7
	h144.7V794c0,22.5,18.3,40.8,40.8,40.8h17.7c22.5,0,40.8-18.3,40.8-40.8v-17.7h144.7v121.9H175.1z M342.3,407.2c0,8.8-7.2,16-16,16
	h-17.7c-8.8,0-16-7.2-16-16v-60.3c0-8.8,7.2-16,16-16h17.7c8.8,0,16,7.2,16,16L342.3,407.2z M308.6,448h17.7
	c10.6,0,20.8-4.1,28.4-11.5c7.6,7.4,17.8,11.5,28.4,11.5h17.7c22.5,0,40.8-18.3,40.8-40.8v-17.8h73.8v17.7
	c0,22.5,18.3,40.8,40.8,40.8h17.7c10.6,0,20.8-4.1,28.4-11.5c7.6,7.4,17.8,11.5,28.4,11.5h17.7c22.5,0,40.8-18.3,40.8-40.8v-17.7
	h215.7V558h-73.8v-17.7c0-22.5-18.3-40.8-40.8-40.8h-17.7c-10.6,0-20.8,4.1-28.4,11.5c-7.6-7.4-17.8-11.6-28.4-11.5h-17.7
	c-10.6,0-20.8,4.1-28.4,11.5c-7.6-7.4-17.8-11.6-28.4-11.5h-17.7c-22.5,0-40.8,18.3-40.8,40.8V558H438.1v-17.7
	c0-22.5-18.3-40.8-40.8-40.8h-17.7c-22.5,0-40.8,18.3-40.8,40.8V558H175.1V389.4h92.7v17.7C267.8,429.7,286.1,447.9,308.6,448
	L308.6,448z M416.8,407.2c0,8.8-7.2,16-16,16h-17.7c-8.8,0-16-7.2-16-16v-60.3c0-8.8,7.2-16,16-16h17.7c8.8,0,16,7.2,16,16
	L416.8,407.2z M589.8,407.2c0,8.8-7.2,16-16,16h-17.7c-8.8,0-16-7.2-16-16v-60.3c0-8.8,7.2-16,16-16h17.7c8.8,0,16,7.2,16,16
	L589.8,407.2z M664.3,407.2c0,8.8-7.2,16-16,16h-17.7c-8.8,0-16-7.2-16-16v-60.3c0-8.8,7.2-16,16-16h17.7c8.8,0,16,7.2,16,16
	L664.3,407.2z M685.6,733.8c0-8.8,7.2-16,16-16h17.7c8.8,0,16,7.2,16,16V794c0,8.8-7.2,16-16,16h-17.8c-8.8,0-16-7.2-16-16
	L685.6,733.8z M719.3,693h-17.7c-22.5,0-40.8,18.3-40.8,40.8v17.7H516.1v-17.8c0-22.5-18.3-40.7-40.8-40.7h-17.7
	c-10.6,0-20.8,4.1-28.4,11.5c-7.6-7.4-17.8-11.5-28.4-11.5h-17.7c-10.6,0-20.8,4.1-28.4,11.5c-7.6-7.4-17.8-11.5-28.4-11.5h-17.7
	c-22.5,0-40.8,18.3-40.8,40.8v17.7h-92.7V582.9h163.7v17.7c0,22.5,18.3,40.8,40.8,40.8h17.7c22.5,0,40.8-18.3,40.8-40.8v-17.7h144.8
	v17.7c0,22.5,18.3,40.8,40.8,40.8h17.7c10.6,0,20.8-4.1,28.4-11.5c7.6,7.4,17.8,11.5,28.4,11.5h17.7c10.6,0,20.8-4.1,28.4-11.5
	c7.6,7.4,17.8,11.5,28.4,11.5h17.7c22.5,0,40.8-18.3,40.8-40.8v-17.7h73.8v168.6H760.1v-17.7C760.1,711.2,741.8,693,719.3,693
	L719.3,693z M441.6,733.7c0-8.8,7.2-16,16-16h17.7c8.8,0,16,7.2,16,16V794c0,8.8-7.2,16-16,16h-17.8c-8.8,0-16-7.2-16-16
	L441.6,733.7z M367.1,733.7c0-8.8,7.2-16,16-16h17.7c8.8,0,16,7.2,16,16V794c0,8.8-7.2,16-16,16h-17.8c-8.8,0-16-7.2-16-16
	L367.1,733.7z M292.6,733.7c0-8.8,7.2-16,16-16h17.7c8.8,0,16,7.2,16,16V794c0,8.8-7.2,16-16,16h-17.8c-8.8,0-16-7.2-16-16
	L292.6,733.7z M413.3,600.6c0,8.8-7.2,16-16,16h-17.7c-8.8,0-16-7.2-16-16v-60.3c0-8.8,7.2-16,16-16h17.7c8.8,0,16,7.2,16,16
	L413.3,600.6z M657.3,600.6c0,8.8-7.2,16-16,16h-17.7c-8.8,0-16-7.2-16-16v-60.3c0-8.8,7.2-16,16-16h17.7c8.8,0,16,7.2,16,16
	L657.3,600.6z M731.8,600.6c0,8.8-7.2,16-16,16h-17.7c-8.8,0-16-7.2-16-16v-60.3c0-8.8,7.2-16,16-16h17.7c8.8,0,16,7.2,16,16
	L731.8,600.6z M806.3,600.6c0,8.8-7.2,16-16,16h-17.7c-8.8,0-16-7.2-16-16v-60.3c0-8.8,7.2-16,16-16h17.7c8.8,0,16,7.2,16,16
	L806.3,600.6z M685.6,153.4c0-8.8,7.2-16,16-16h17.7c8.8,0,16,7.2,16,16v60.3c0,8.8-7.2,16-16,16h-17.8c-8.8,0-16-7.2-16-16
	L685.6,153.4z M457.5,137.5h17.7c8.8,0,16,7.2,16,16v60.3c0,8.8-7.2,16-16,16h-17.7c-8.8,0-16-7.2-16-16v-60.3
	C441.6,144.6,448.7,137.5,457.5,137.5z M383.1,137.5h17.7c8.8,0,16,7.2,16,16v60.3c0,8.8-7.2,16-16,16h-17.7c-8.8,0-16-7.2-16-16
	v-60.3C367.1,144.6,374.2,137.5,383.1,137.5z M292.6,153.4c0-8.8,7.2-16,16-16h17.7c8.8,0,16,7.2,16,16v60.3c0,8.8-7.2,16-16,16
	h-17.8c-8.8,0-16-7.2-16-16L292.6,153.4z M267.8,196v17.7c0,22.5,18.3,40.8,40.8,40.8h17.7c10.6,0,20.8-4.1,28.4-11.5
	c7.6,7.4,17.8,11.5,28.4,11.6h17.7c10.6,0,20.8-4.1,28.4-11.6c7.6,7.4,17.8,11.5,28.4,11.6h17.7c22.5,0,40.8-18.3,40.8-40.8V196
	h144.7v17.7c0,22.5,18.3,40.8,40.8,40.8h17.7c22.5,0,40.8-18.3,40.8-40.8V196h144.7v168.6H689.1v-17.7c0-22.5-18.3-40.8-40.8-40.8
	h-17.7c-10.6,0-20.8,4.1-28.4,11.5c-7.6-7.4-17.8-11.6-28.4-11.5h-17.7c-22.5,0-40.8,18.3-40.8,40.8v17.7h-73.8v-17.7
	c0-22.5-18.3-40.8-40.8-40.8H383c-10.6,0-20.8,4.1-28.4,11.5c-7.6-7.4-17.8-11.5-28.4-11.5h-17.7c-22.5,0-40.8,18.3-40.8,40.8v17.7
	h-92.6V196H267.8z M110.9,110.9h39.4v787.4h-39.4V110.9z M969.1,969.1H110.9V923h858.3V969.1z"/>
</svg>
