<?xml version="1.0" encoding="utf-8"?>
<!-- Generator: Adobe Illustrator 24.1.0, SVG Export Plug-In . SVG Version: 6.00 Build 0)  -->
<svg version="1.1" id="Capa_1" xmlns="http://www.w3.org/2000/svg" xmlns:xlink="http://www.w3.org/1999/xlink" x="0px" y="0px"
	 viewBox="0 0 1080 1080" style="enable-background:new 0 0 1080 1080;" xml:space="preserve">
<style type="text/css">
	.st0{fill:#FFFFFF;stroke:#FFFFFF;stroke-width:2.27;stroke-miterlimit:10;}
	.st1{fill:none;stroke:#FFFFFF;stroke-width:34;stroke-miterlimit:10;}
</style>
<path class="st0" d="M807.5,518.5h-95.7v-24.7c0-6.4-5.2-11.7-11.7-11.7H448.1c-6.4-0.3-11.9,4.8-12.1,11.2
	c-0.3,6.4,4.8,11.9,11.2,12.1c0.1,0,0.2,0,0.3,0h241v89.5c-0.1,78.7-41.8,151.5-109.7,191.4h-224C286.9,746.4,245.1,673.6,245,594.9
	v-89.5h78.2c6.4,0.1,11.7-5.1,11.8-11.5c0.1-6.3-4.9-11.5-11.2-11.8h-90.5c-6.4,0-11.7,5.2-11.7,11.6c0,0,0,0,0,0v101.2
	c-0.1,74.5,33.8,144.9,92,191.4h-80.4c-6.4,0-11.7,5.2-11.7,11.7l0,0c0.1,42.5,34.5,76.9,77,77h364.2c42.5-0.1,76.9-34.5,77-77
	c0-6.4-5.2-11.7-11.7-11.7c0,0,0,0,0,0H619.8c21.2-17,39.4-37.4,54-60.3h33c62.1-0.1,112.4-50.3,112.5-112.4v-83.5
	C819.2,523.7,814,518.5,807.5,518.5L807.5,518.5z M715.2,809.7c-5.5,24.5-27.3,42-52.4,42H298.7c-25.1,0-46.9-17.5-52.4-42H715.2z
	 M711.8,594.9v-6.4h37.4v25.1c0,23.4-19,42.4-42.4,42.4h-2.7C709.3,636,711.8,615.5,711.8,594.9z M795.8,613.6
	c0,49.2-39.9,89-89.1,89.1h-19.8c3.7-7.6,7.1-15.4,10-23.3h9.9c36.3,0,65.7-29.4,65.8-65.7v-36.8c0-6.4-5.2-11.7-11.7-11.7h-49
	v-23.4h84L795.8,613.6z"/>
<path class="st0" d="M472.3,335.5l-6-7.6c-8.9-11.1-8.9-26.9,0-38c4-5.1,3.2-12.4-1.9-16.4s-12.4-3.2-16.4,1.9l0,0
	c-15.7,19.6-15.7,47.5,0.1,67.1l6,7.6c11.6,14.5,11.6,35.2,0,49.7l-6.2,7.9c-4.1,4.9-3.5,12.3,1.5,16.4c4.9,4.1,12.3,3.5,16.4-1.5
	c0.1-0.2,0.2-0.3,0.4-0.5l0,0l6.2-7.8C490.8,391.3,490.8,358.5,472.3,335.5z"/>
<path class="st0" d="M537,361.8l-6.1-7.6c-8.9-11.1-8.9-26.9,0-38c4-5.1,3.1-12.4-1.9-16.4c-5.1-4-12.4-3.1-16.4,1.9l0,0
	c-15.7,19.6-15.7,47.5,0,67.1l6,7.6c11.6,14.5,11.7,35.2,0,49.7l-6.1,7.8c-4.1,5-3.5,12.3,1.5,16.4s12.3,3.5,16.4-1.5l0.3-0.4
	l6.2-7.8C555.4,417.5,555.4,384.8,537,361.8z"/>
<path class="st0" d="M407.6,361.8l-6-7.6c-8.9-11.1-8.9-26.9,0-38c4-5.1,3.2-12.4-1.9-16.4c-5.1-4-12.4-3.2-16.4,1.9
	c-15.7,19.6-15.7,47.5,0.1,67.1l6,7.6c11.6,14.5,11.6,35.2,0,49.7l-6.2,7.8c-4,5-3.2,12.4,1.8,16.4s12.4,3.2,16.4-1.8l0.1-0.1
	l6.2-7.8C426.1,417.5,426.1,384.8,407.6,361.8z"/>
<path class="st0" d="M391.5,479c-4.6-4.6-11.9-4.6-16.5,0s-4.6,11.9,0,16.5c4.6,4.6,11.9,4.6,16.5,0c2.2-2.2,3.4-5.2,3.4-8.3
	C394.9,484.2,393.6,481.2,391.5,479z"/>
<path class="st0" d="M638.6,576.7c-6.4,0-11.7,5.2-11.7,11.7c-0.2,43.7-17.5,85.7-48.2,116.8c-4.5,4.6-4.5,12,0.1,16.5
	c4.6,4.5,12,4.5,16.5-0.1c35.1-35.5,54.8-83.3,55-133.2C650.3,581.9,645.1,576.7,638.6,576.7L638.6,576.7z"/>
<path class="st0" d="M559.1,736.9c-3.1-5.6-10.3-7.6-15.9-4.5c0,0,0,0,0,0l0,0l-0.3,0.2c-5.6,3.2-7.6,10.3-4.4,15.9
	c3.2,5.6,10.3,7.6,15.9,4.4l0.3-0.2C560.3,749.6,562.2,742.5,559.1,736.9L559.1,736.9z"/>
<circle class="st1" cx="520.4" cy="573" r="467.5"/>
<line class="st1" x1="191.6" y1="240.7" x2="835.6" y2="918.2"/>
</svg>
