<?xml version="1.0" encoding="utf-8"?>
<!-- Generator: Adobe Illustrator 24.1.0, SVG Export Plug-In . SVG Version: 6.00 Build 0)  -->
<svg version="1.1" id="Capa_1" xmlns="http://www.w3.org/2000/svg" xmlns:xlink="http://www.w3.org/1999/xlink" x="0px" y="0px"
	 viewBox="0 0 1080 1080" style="enable-background:new 0 0 1080 1080;" xml:space="preserve">
<style type="text/css">
	.st0{fill:#FFFFFF;}
</style>
<path class="st0" d="M190.1,126.4h-39.1c-10.8,0-19.5,8.8-19.5,19.6v39c0,10.8,8.8,19.5,19.5,19.5h39.1c10.8,0,19.5-8.8,19.5-19.5
	v-39C209.7,135.2,201,126.4,190.1,126.4C190.2,126.4,190.2,126.4,190.1,126.4z M181.8,176.7h-22.3v-22.3h22.3V176.7z"/>
<path class="st0" d="M979.7,362.3h-45.9v-13.9c0-12.8-10.4-23.2-23.3-23.3H792.4c-12.8,0-23.3,10.4-23.3,23.3v13.9h-45.9
	c-12.8,0-23.2,10.4-23.3,23.3v121.8c0,12.8,10.4,23.2,23.3,23.3h14.3v107.6c0,7,0,11.2,4.3,15.4c0.4,0.4,0.8,0.7,1.3,1.1
	c0.5,0.5,1.4,1.3,2.7,2.6l25.4,25.7c7.6,7.6,19.9,7.7,27.5,0.2c0.1-0.1,0.1-0.1,0.2-0.2l19.4-19.6l19.4,19.6
	c7.6,7.6,19.9,7.7,27.5,0.2c0.1-0.1,0.1-0.1,0.2-0.2l19.4-19.6l19.4,19.6c7.6,7.6,19.9,7.7,27.5,0.2c0.1-0.1,0.1-0.1,0.2-0.2
	l25.4-25.7c1.2-1.2,2.1-2.1,2.6-2.6c2.9-2.1,5.4-5.9,5.5-12.4c0-1.1,0-2.5,0-4.2V530.7h14.3c12.8,0,23.3-10.4,23.3-23.3V385.6
	C1003,372.7,992.6,362.3,979.7,362.3z M937.6,563.6L937.6,563.6c-7.3,2.4-11.3,10.3-8.8,17.6c1.4,4.2,4.7,7.4,8.8,8.8v47.6l-0.1,0.1
	L918,657.4l-19.4-19.6c-7.6-7.6-19.9-7.7-27.5-0.2c-0.1,0.1-0.1,0.1-0.2,0.2l-19.4,19.6L832,637.8c-7.6-7.6-19.9-7.7-27.5-0.2
	c-0.1,0.1-0.1,0.1-0.2,0.2l-19.4,19.6l-19.4-19.6l-0.1-0.1v-46.9c7.7-0.2,13.8-6.6,13.6-14.3c-0.2-7.4-6.2-13.4-13.6-13.6v-32.2
	h172.2V563.6z M975.1,502.8H727.8V390.2h41.3v9.3c0,12.8,10.4,23.2,23.3,23.3H834c7.7,0.6,14.5-5.1,15.1-12.8
	c0.6-7.7-5.1-14.5-12.8-15.1c-0.7-0.1-1.5-0.1-2.2,0h-37V353h108.9v41.9H901c-7.7,0.6-13.5,7.4-12.8,15.1c0.6,6.8,6,12.3,12.8,12.8
	h9.5c12.8,0,23.2-10.4,23.3-23.3v-9.3h41.3L975.1,502.8z"/>
<path class="st0" d="M811.7,562.9h-9.3c-7.7,0.6-13.5,7.4-12.8,15.1c0.6,6.8,6,12.3,12.8,12.8h9.3c7.7-0.6,13.5-7.4,12.8-15.1
	C824,568.9,818.6,563.4,811.7,562.9z"/>
<path class="st0" d="M904.8,562.9h-9.3c-7.7-0.6-14.5,5.1-15.1,12.8c-0.6,7.7,5.1,14.5,12.8,15.1c0.7,0.1,1.5,0.1,2.2,0h9.3
	c7.7,0.6,14.5-5.1,15.1-12.8c0.6-7.7-5.1-14.5-12.8-15.1C906.3,562.8,905.5,562.8,904.8,562.9z"/>
<path class="st0" d="M858.3,562.9H849c-7.7,0.6-13.5,7.4-12.8,15.1c0.6,6.8,6,12.3,12.8,12.8h9.3c7.7,0.6,14.5-5.1,15.1-12.8
	c0.6-7.7-5.1-14.5-12.8-15.1C859.8,562.8,859.1,562.8,858.3,562.9L858.3,562.9z"/>
<path class="st0" d="M1002.4,963.1H541.3v-29.5c0-12.8-10.4-23.2-23.3-23.3h-28.7l-44.8-116.7c67.2-29.2,113.3-92.4,120.6-165.2h9.9
	c12.8,0,23.2-10.4,23.3-23.3V571c0-12.8-10.4-23.2-23.3-23.3h-81.8c8.7-8.6,16.7-17.8,23.9-27.7h87.9c18,0,32.5-14.6,32.6-32.6
	V255.9h27.6c12.8,0,23.2-10.4,23.3-23.3v-73.2c0-12.8-10.4-23.2-23.3-23.3h-27.6v-14.6c0-18-14.6-32.5-32.6-32.5H126.9
	c-18,0-32.5,14.6-32.6,32.5v365.9c0,18,14.6,32.6,32.6,32.6h87.8c7.2,9.9,15.2,19.2,23.9,27.8h-81.8c-12.8,0-23.2,10.4-23.3,23.2
	v34.2c0,12.8,10.4,23.2,23.3,23.3h9.9c7.3,72.8,53.5,136,120.6,165.2l-44.8,116.7h-28.7c-12.8,0-23.2,10.4-23.3,23.3v29.5h-109
	c-7.7,0.6-13.5,7.3-12.9,15c0.5,6.9,6,12.4,12.9,12.9h920.8c7.7,0.6,14.4-5.2,15-12.9c0.6-7.7-5.2-14.4-12.9-15
	C1003.9,963.1,1003.2,963.1,1002.4,963.1L1002.4,963.1z M637.7,164.1h23V228h-23V164.1z M605.1,492.1h-70.5
	c5.5-10.5,10.3-21.4,14.3-32.5h60.9v27.9l0,0C609.7,490,607.6,492,605.1,492.1L605.1,492.1z M126.9,492.1c-2.6,0-4.6-2.1-4.7-4.6
	v-27.9h60.9c4,11.2,8.7,22.1,14.3,32.5H126.9z M196.1,372.1c0-111.4,76.2-202,169.8-202c22.7,0,45.1,5.3,65.5,15.6
	c7.1,2.9,15.3-0.5,18.3-7.6c2.7-6.4,0.2-13.8-5.8-17.4c-24.2-12.1-50.8-18.5-77.9-18.5c-109,0-197.8,103.1-197.8,229.9
	c0,20,2.3,40,6.8,59.5h-52.8V121.5c0-2.6,2.1-4.6,4.7-4.7h478.2c2.6,0,4.6,2.1,4.7,4.7v310.1H557c4.5-19.5,6.8-39.5,6.7-59.5
	c0-64.1-23.2-125.7-63.7-169.1c-4.8-6.1-13.6-7.1-19.7-2.3c-6.1,4.8-7.1,13.6-2.3,19.7c0.5,0.6,1,1.2,1.6,1.7
	c35.8,38.3,56.3,93,56.3,150.1c0,75.2-34.8,140.9-86.1,175.6H282.3C230.9,513,196.1,447.3,196.1,372.1L196.1,372.1z M161.5,600.5
	v-24.9h409v24.9H161.5z M245,731.7c-27.9-27.8-45.6-64.2-50.1-103.2h342.2c-4.5,39.1-22.2,75.5-50.1,103.2
	c-66.7,66.8-175,66.9-241.8,0.2C245.1,731.8,245.1,731.8,245,731.7z M513.4,963.1H218.6v-24.9h159.6c7.7-0.6,13.5-7.3,12.9-15
	c-0.5-6.9-6-12.4-12.9-12.9H272.5l41.2-107.4c34.2,9.3,70.3,9.3,104.5,0l41.2,107.4h-16.2c-7.7,0.6-13.5,7.3-12.9,15
	c0.5,6.9,6,12.4,12.9,12.9h70.2L513.4,963.1z"/>
<path class="st0" d="M875.7,157.2c-28.3-8.9-31.7-12.4-40.5-41c-3.3-10.8-14.8-16.8-25.5-13.5c-6.4,2-11.5,7-13.5,13.5
	c-8.8,28.6-12.2,32.1-40.5,41c-10.8,3.4-16.8,14.9-13.4,25.7c2,6.4,7,11.4,13.4,13.4c28.3,8.9,31.7,12.4,40.5,41
	c3.3,10.8,14.8,16.8,25.5,13.5c6.4-2,11.5-7,13.5-13.5c8.8-28.6,12.2-32.1,40.5-41c10.8-3.4,16.8-15,13.4-25.8
	C887,164.2,882,159.2,875.7,157.2L875.7,157.2z M815.7,209.3c-7.3-16.3-16.2-25.2-32.5-32.6c16.3-7.3,25.2-16.2,32.5-32.6
	c7.2,16.3,16.1,25.2,32.4,32.6C831.8,184.1,822.9,193,815.7,209.3L815.7,209.3z"/>
<path class="st0" d="M185.3,819.4c-24.8-7.8-27.4-10.4-35.1-35.5c-3.2-10.4-14.2-16.3-24.6-13.1c-6.3,1.9-11.2,6.8-13.1,13.1
	c-7.7,25.1-10.3,27.7-35.1,35.5c-10.4,3.3-16.2,14.5-12.9,24.9c1.9,6.1,6.8,10.9,12.9,12.9c24.5,7.7,27.4,10.7,35.1,35.5
	c3.2,10.4,14.2,16.3,24.6,13.1c6.3-1.9,11.2-6.8,13.1-13.1c7.6-24.8,10.6-27.8,35.1-35.5c10.4-3.3,16.2-14.4,12.9-24.8
	C196.3,826.2,191.5,821.3,185.3,819.4L185.3,819.4z M131.4,863.7c-5.9-12.1-13.2-19.4-25.3-25.4c12.1-6,19.4-13.2,25.3-25.3
	c5.9,12.1,13.2,19.4,25.3,25.3C144.6,844.3,137.3,851.6,131.4,863.7z"/>
<path class="st0" d="M711.8,697.3c-23.2-7.3-25.6-9.8-32.8-33.2c-3.1-10.3-14-16-24.2-12.9c-6.2,1.9-11,6.7-12.9,12.9
	c-7.2,23.5-9.7,25.9-32.8,33.2c-10.3,3.2-16,14.2-12.7,24.5c1.9,6.1,6.7,10.8,12.7,12.7c23.2,7.3,25.6,9.8,32.8,33.2
	c3.1,10.3,14,16,24.2,12.9c6.2-1.9,11-6.7,12.9-12.9c7.2-23.5,9.7-25.9,32.8-33.2c10.3-3.3,16-14.2,12.7-24.5
	C722.6,703.9,717.8,699.2,711.8,697.3L711.8,697.3z M660.4,738.3c-5.4-10.4-11.9-17-22.4-22.4c10.5-5.4,17-12,22.4-22.5
	c5.3,10.5,11.9,17.1,22.4,22.4C672.3,721.3,665.7,727.8,660.4,738.3L660.4,738.3z"/>
<path class="st0" d="M259.6,272.9c-5.5-5.4-14.3-5.4-19.7,0c-5.4,5.5-5.4,14.3,0,19.7c5.5,5.4,14.3,5.4,19.7,0
	c2.6-2.6,4.1-6.1,4.1-9.8C263.7,279,262.2,275.5,259.6,272.9z"/>
<path class="st0" d="M494,272.9c-5.5-5.5-14.3-5.5-19.8,0c-5.5,5.5-5.5,14.3,0,19.8c5.5,5.5,14.3,5.5,19.8,0
	c2.6-2.6,4.1-6.2,4.1-9.9C498.1,279,496.6,275.5,494,272.9z"/>
<path class="st0" d="M259.6,449.6c-5.5-5.4-14.3-5.4-19.7,0c-5.4,5.5-5.4,14.3,0,19.7c5.5,5.4,14.3,5.4,19.7,0
	c2.6-2.6,4.1-6.1,4.1-9.8C263.6,455.8,262.2,452.3,259.6,449.6z"/>
<path class="st0" d="M494,449.6c-5.5-5.5-14.3-5.5-19.8,0s-5.5,14.3,0,19.8s14.3,5.5,19.8,0c2.6-2.6,4.1-6.2,4.1-9.9
	C498.1,455.8,496.6,452.3,494,449.6z"/>
</svg>
