<?xml version="1.0" encoding="utf-8"?>
<!-- Generator: Adobe Illustrator 24.1.0, SVG Export Plug-In . SVG Version: 6.00 Build 0)  -->
<svg version="1.1" id="Capa_1" xmlns="http://www.w3.org/2000/svg" xmlns:xlink="http://www.w3.org/1999/xlink" x="0px" y="0px"
	 viewBox="0 0 1080 1080" style="enable-background:new 0 0 1080 1080;" xml:space="preserve">
<style type="text/css">
	.st0{fill:#FFFFFF;}
</style>
<path class="st0" d="M231.1,621c-8.5-1.1-16.3,4.9-17.4,13.5s4.9,16.3,13.5,17.4c8.5,1.1,16.3-4.9,17.4-13.4
	C245.6,629.9,239.6,622.1,231.1,621z"/>
<path class="st0" d="M1037.7,664.5c0-77.5-63-140-140-140c-49,0-51.6-5.3-110.5-39.7c7.3-14.7-10.2-29.2-23.2-19.4l-4.4,3.3
	l-50.7-29.6c8.6-14.6-9.1-30.6-22.7-20.4l-5.3,4l-50.3-29.4c10.1-14.5-8.1-31.8-22.1-21.3l-6.3,4.7l-107.4-62.7
	c-24.8-14.5-56.6-7.1-72.4,16.8l-5.3,8c-12.2,18.2-12.2,41.9,0,60.1l7.1,10.6l-49.5,24.8c-31.2,15.6-69.2,5.5-88.5-23.5l-27.7-41.5
	c-29.5-44.2-95.4-41.2-120.8,5.4c-35.1,64.3-34.8,63.5-39.5,73.3c-22.5,44.2-34.2,107.3-25,168.1l-29.5,73.8
	c-2.9,7.2,0,15.4,6.7,19.2c73.7,42.1,157.1,64.2,242,64.3h600.6c63,0,122-38.9,144.3-104C1037.4,667.7,1037.7,666.1,1037.7,664.5
	L1037.7,664.5z M1006.1,653.9c-47.5,16.9-109.9,26.1-161,26.1c-76.9,0-154.3-3.5-231.2-10.3l67.2-89.7
	c64.1,25,132.3,37.8,201.1,37.8c25.8,0,46.7-20.9,46.7-46.7c0-3.8-0.5-7.7-1.4-11.4C970.5,572,1001.7,609.3,1006.1,653.9z
	 M442.8,356.1c6.2-9.3,10.8-18.3,24.6-18.3c8.9,0,5.2-0.6,107.8,59.2l-28.9,21.7c-6.9,5.2-8.3,14.9-3.1,21.8
	c5.2,6.9,14.9,8.3,21.8,3.1l0,0l39.4-29.6l49.6,29L624,465.3c-6.9,5.2-8.3,14.9-3.1,21.8c5.2,6.9,14.9,8.3,21.8,3.1L683,460
	l49.6,28.9L701.8,512c-6.9,5.2-8.3,14.9-3.1,21.8c5.2,6.9,14.9,8.3,21.8,3.1l41.3-31l52.4,30.6c22,12.8,47.4,19.1,68,19.1
	c8.6,0.2,15.4,7.4,15.2,15.9c-0.2,8.3-6.9,15-15.2,15.2c-108.1,0-213.6-33.5-301.9-95.8L458,404.5l-15.2-22.8
	C437.6,374,437.6,363.9,442.8,356.1L442.8,356.1z M164.7,389.5c14.2-26.1,51.2-27.7,67.7-3L260,428c28.1,42.1,83.1,56.7,128.3,34.1
	l57-28.5c124.5,87.9,146.9,106.7,206.3,133.9l-74,98.7c-18.4-1.9-36.7-4-55-6.3c-4.8-26.8-19.2-50.9-40.4-67.9
	c-28.7-23-60.9-41.1-95.5-53.6l-253-92L164.7,389.5z M892.7,742.2H292.1c-74.9,0-148.6-18.5-214.7-53.6l21.5-53.8l66.2,8.8
	c8.5,1,16.2-5.2,17.2-13.7c0.9-8.3-4.8-15.9-13.1-17.1l-66.5-8.9c-5.3-43.9,0.8-88.4,17.5-129.3l255.9,93.1
	c31.4,11.4,60.6,27.8,86.7,48.7c12.6,10.1,22,23.8,26.9,39.2c-0.2,0-198.7-26.6-200.5-26.6c-8.6,0-15.6,6.9-15.6,15.5
	c0,7.9,5.9,14.6,13.8,15.5c210.4,28.1,346.6,51.2,557.9,51.2c46.8,0,100.8-7.2,146.3-20C968.8,723.2,932,742.2,892.7,742.2z"/>
</svg>
