<svg xmlns="http://www.w3.org/2000/svg" width="38.383" height="37.101" viewBox="0 0 38.383 37.101">
  <path id="stand" d="M37.251,14.261H35.407V10.237A1.689,1.689,0,0,0,33.72,8.55H4.663a1.689,1.689,0,0,0-1.687,1.687v4.024H1.132A1.134,1.134,0,0,0,0,15.393V19.35c0,.267,0,1.08,2.737,2.559A1.027,1.027,0,0,0,2.976,22v4.18a.562.562,0,1,0,1.125,0v-4.49a8.5,8.5,0,0,0,1.784-1.274l.076.074V32.7H5.92a.9.9,0,0,0-.9.9v1.832a.9.9,0,0,0,.9.9H32.463a.9.9,0,0,0,.9-.9V33.59a.9.9,0,0,0-.9-.9h-.041v-12.2l.076-.074a8.5,8.5,0,0,0,1.784,1.274V44.527H4.1v-16.1a.562.562,0,1,0-1.125,0V44.714a.938.938,0,0,0,.937.937H34.47a.938.938,0,0,0,.937-.937V22a1.027,1.027,0,0,0,.239-.093c2.737-1.479,2.737-2.292,2.737-2.559V15.393a1.134,1.134,0,0,0-1.132-1.132ZM4.1,10.237a.563.563,0,0,1,.562-.562H33.72a.563.563,0,0,1,.562.562v4.024H4.1Zm27.835,9.095c-.137.4-1.561,1.263-1.937,1.473l-.162.09-.162-.09a7.43,7.43,0,0,1-1.911-1.42l-.006-.011-.006-.012-.005-.01,0-.01,0-.01v-.814a.562.562,0,1,0-1.125,0v.814a5.564,5.564,0,0,1-2.1,1.562,5.565,5.565,0,0,1-2.1-1.562V15.386h4.2v.882a.562.562,0,0,0,1.125,0v-.882h4.2ZM19.321,20.822l-.13.071c-.41-.223-1.949-1.121-2.1-1.562V15.386h4.2v3.946C21.149,19.747,19.711,20.606,19.321,20.822ZM8.708,20.8l-.162.09-.162-.09c-.4-.224-1.8-1.072-1.937-1.473V15.386h4.2v3.946C10.509,19.735,9.088,20.592,8.708,20.8ZM24.414,31.072h1.367L25.447,32.7h-.7ZM29.062,32.7h-.7l-.334-1.623H29.4Zm-2.157-1.506.31,1.506H26.6Zm.349-1.242h-.7l-.334-1.623h1.367ZM7.086,32.7v-2.31H16.53V32.7Zm9.444-3.434H7.086v-2.31h9.257a.188.188,0,0,1,.187.187ZM11.77,15.386h4.2v3.946a5.564,5.564,0,0,1-2.1,1.562,5.565,5.565,0,0,1-2.1-1.562ZM3.224,20.894a5.569,5.569,0,0,1-2.1-1.562V15.393a.008.008,0,0,1,.008-.008h4.19v3.946a5.564,5.564,0,0,1-2.1,1.563Zm29.011,14.3H6.149V33.82H32.234v1.373ZM30.21,32.7l.346-1.683a.885.885,0,0,0-.867-1.064H28.4l.347-1.683a.885.885,0,0,0-.867-1.064H25.928a.885.885,0,0,0-.867,1.064l.347,1.683H24.12a.885.885,0,0,0-.867,1.064L23.6,32.7H17.655V27.138a1.313,1.313,0,0,0-1.312-1.312H7.086V21.341c.308.2.643.39.969.565l0,0h0a1.021,1.021,0,0,0,.973,0h0l0,0a10.155,10.155,0,0,0,2.143-1.462l.02-.019.007-.006a9.454,9.454,0,0,0,2.175,1.491,1.021,1.021,0,0,0,.973,0,9.454,9.454,0,0,0,2.175-1.491l.007.006.02.019A10,10,0,0,0,18.926,22l.016.005.017,0a1.019,1.019,0,0,0,.58-.034l.023-.007.016-.008a10.463,10.463,0,0,0,2.275-1.537,9.456,9.456,0,0,0,2.175,1.491,1.021,1.021,0,0,0,.973,0,9.452,9.452,0,0,0,2.175-1.491,10.65,10.65,0,0,0,2.175,1.491,1.021,1.021,0,0,0,.973,0h0l0,0c.314-.17.655-.366.969-.565V32.7H30.21Zm7.049-13.364a5.569,5.569,0,0,1-2.1,1.562,5.565,5.565,0,0,1-2.1-1.562V15.386h4.19a.008.008,0,0,1,.008.008Z" transform="translate(0 -8.55)" fill="#eb477a"/>
</svg>
