<svg id="Grupo_1117" data-name="Grupo 1117" xmlns="http://www.w3.org/2000/svg" width="40.629" height="51.921" viewBox="0 0 40.629 51.921">
  <path id="Trazado_1907" data-name="Trazado 1907" d="M126.35,75.308a1.013,1.013,0,0,0,1.281-.644,11.739,11.739,0,0,1,22.882,3.687c0,5-2.24,7.99-4.04,10.392-1.31,1.747-2.441,3.255-2.441,5.085q0,.181,0,.358h-4.237v-2.33a1.014,1.014,0,1,0-2.028,0v2.33h-4.238q0-.178,0-.358c0-1.83-1.131-3.338-2.44-5.085a18.545,18.545,0,0,1-3.574-6.622,1.014,1.014,0,1,0-1.962.513,20.5,20.5,0,0,0,3.913,7.326c1.137,1.517,2.035,2.715,2.035,3.869,0,.486.021.959.061,1.411v8.578c0,.027,0,.054,0,.08,0,.006,0,.013,0,.019a.994.994,0,0,0,.017.111h0a7.6,7.6,0,0,0,2.54,4.229,7.242,7.242,0,0,0,9.324,0,7.6,7.6,0,0,0,2.539-4.229h0a1.106,1.106,0,0,0,.017-.11c0-.006,0-.013,0-.019,0-.027,0-.053,0-.081V95.239c.04-.452.061-.926.061-1.411,0-1.154.9-2.352,2.035-3.869,1.876-2.5,4.446-5.93,4.446-11.608a13.767,13.767,0,0,0-26.836-4.324A1.014,1.014,0,0,0,126.35,75.308Zm12.427,32.621a5.369,5.369,0,0,1-4.8-3.1h9.6A5.37,5.37,0,0,1,138.777,107.929Zm5.2-5.127H133.581v-2.28h10.391Zm0-4.308H133.581v-2.28h10.391Z" transform="translate(-118.463 -58.036)" fill="#ef8b44" fill-rule="evenodd"/>
  <path id="Trazado_1908" data-name="Trazado 1908" d="M247.338,4.73a1.014,1.014,0,0,0,1.014-1.014v-2.7a1.014,1.014,0,1,0-2.028,0v2.7A1.014,1.014,0,0,0,247.338,4.73Z" transform="translate(-227.024)" fill="#ef8b44" fill-rule="evenodd"/>
  <path id="Trazado_1909" data-name="Trazado 1909" d="M57.014,192.352h2.7a1.014,1.014,0,0,0,0-2.028h-2.7a1.014,1.014,0,0,0,0,2.028Z" transform="translate(-56 -171.024)" fill="#ef8b44" fill-rule="evenodd"/>
  <path id="Trazado_1910" data-name="Trazado 1910" d="M219.825,211.541a1.014,1.014,0,0,0-1.014-1.014h-7.258a1.014,1.014,0,0,0,0,2.028h2.615v2.33a1.014,1.014,0,1,0,2.028,0v-2.33h2.615A1.014,1.014,0,0,0,219.825,211.541Z" transform="translate(-194.868 -189.178)" fill="#ef8b44" fill-rule="evenodd"/>
  <path id="Trazado_1911" data-name="Trazado 1911" d="M113.953,59.388a1.014,1.014,0,1,0,1.434-1.434l-1.911-1.911a1.014,1.014,0,0,0-1.434,1.434Z" transform="translate(-106.092 -50.093)" fill="#ef8b44" fill-rule="evenodd"/>
  <path id="Trazado_1912" data-name="Trazado 1912" d="M105.861,316.9a1.011,1.011,0,0,0,.717-.3l1.911-1.911a1.014,1.014,0,1,0-1.434-1.434l-1.911,1.91a1.014,1.014,0,0,0,.717,1.731Z" transform="translate(-99.893 -281.224)" fill="#ef8b44" fill-rule="evenodd"/>
  <path id="Trazado_1913" data-name="Trazado 1913" d="M363.076,59.683a1.011,1.011,0,0,0,.717-.3l1.911-1.911a1.014,1.014,0,0,0-1.434-1.434l-1.911,1.911a1.014,1.014,0,0,0,.717,1.731Z" transform="translate(-331.025 -50.091)" fill="#ef8b44" fill-rule="evenodd"/>
  <path id="Trazado_1914" data-name="Trazado 1914" d="M369.258,313.258a1.013,1.013,0,0,0,0,1.434l1.91,1.911a1.014,1.014,0,1,0,1.434-1.434l-1.911-1.91A1.013,1.013,0,0,0,369.258,313.258Z" transform="translate(-337.224 -281.224)" fill="#ef8b44" fill-rule="evenodd"/>
  <path id="Trazado_1915" data-name="Trazado 1915" d="M411.018,192.352h2.7a1.014,1.014,0,0,0,0-2.028h-2.7a1.014,1.014,0,1,0,0,2.028Z" transform="translate(-374.105 -171.024)" fill="#ef8b44" fill-rule="evenodd"/>
  <path id="Trazado_1916" data-name="Trazado 1916" d="M247.338,283.5a1.014,1.014,0,1,0,1.014,1.014A1.016,1.016,0,0,0,247.338,283.5Z" transform="translate(-227.024 -254.751)" fill="#ef8b44" fill-rule="evenodd"/>
  <path id="Trazado_1917" data-name="Trazado 1917" d="M122.614,191.338a1.014,1.014,0,1,0-1.014,1.014A1.016,1.016,0,0,0,122.614,191.338Z" transform="translate(-114.036 -171.024)" fill="#ef8b44" fill-rule="evenodd"/>
</svg>
