<svg xmlns="http://www.w3.org/2000/svg" width="51.084" height="51.092" viewBox="0 0 51.084 51.092">
  <g id="familia_Mesa_de_trabajo_1" data-name="familia_Mesa de trabajo 1" transform="translate(-84.82 -84.667)">
    <path id="Trazado_1957" data-name="Trazado 1957" d="M131.854,117.239V106.971a10.631,10.631,0,0,0-5.863-9.534,1,1,0,0,0-.9,1.782,8.645,8.645,0,0,1,4.77,7.75v9.4a8.326,8.326,0,0,0-2.3-.325h-2.673v-1.521a6.437,6.437,0,0,0,2.733-5.261v-3.056a1,1,0,0,0-1-1h-1.809a2.165,2.165,0,0,1-1.6-.708,4.525,4.525,0,0,0,.393-1.844,1,1,0,0,0-2,0,2.555,2.555,0,0,1-2.55,2.552h-3.327a1,1,0,0,0-1,1v3.056a6.436,6.436,0,0,0,2.711,5.247v1.537h-3.025a6.085,6.085,0,0,0-1.924-1.178v-7.9a8.647,8.647,0,0,1,4.76-7.744,1,1,0,1,0-.9-1.779,10.633,10.633,0,0,0-5.853,9.526v7.463h-7.09v-1.476a7.807,7.807,0,0,0,3.339-6.644v-2.651a6.647,6.647,0,0,0,1.865-4.62v-2.63l.333.332a1.981,1.981,0,0,0,2.8,0l4.316-4.316a4.542,4.542,0,0,0-5.717-7,4.541,4.541,0,0,0-5.717,7l2.961,2.961H99.036a6.678,6.678,0,0,0-6.67,6.668v4.849a7.193,7.193,0,0,0,3.339,6.066v1.459H92.278a7.467,7.467,0,0,0-7.458,7.459v8.88a4.994,4.994,0,0,0,4.989,4.989h41.107a4.994,4.994,0,0,0,4.989-4.989v-6.375a8.352,8.352,0,0,0-4.05-7.155ZM106.041,91.016a2.546,2.546,0,1,1,3.6-3.6,1,1,0,0,0,1.411,0,2.546,2.546,0,1,1,3.6,3.6l-4.306,4.306Zm10.689,18.248v-2.058h2.329a4.527,4.527,0,0,0,2.949-1.09,4.16,4.16,0,0,0,2.806,1.09h.81v2.058a4.447,4.447,0,1,1-8.894,0Zm6.16,6.207v1.74a1.724,1.724,0,1,1-3.449,0v-1.746a6.4,6.4,0,0,0,3.449.006Zm-12.542,1a4.078,4.078,0,1,1-4.077,4.078A4.078,4.078,0,0,1,110.349,116.469ZM94.361,102.058a4.68,4.68,0,0,1,4.675-4.675h7.584v1.66a4.68,4.68,0,0,1-4.675,4.675H94.361Zm0,4.846v-1.19h7.584a6.633,6.633,0,0,0,2.81-.623v1.222c0,3.354-2.186,5.789-5.2,5.789a5.2,5.2,0,0,1-5.2-5.194Zm7.055,6.951v1.754a1.858,1.858,0,1,1-3.716,0v-1.756A7.215,7.215,0,0,0,101.416,113.855Zm-1.547,19.908H89.809a3,3,0,0,1-2.993-2.993v-8.881a5.469,5.469,0,0,1,5.463-5.463h3.516a3.852,3.852,0,0,0,7.529,0h2.569a6.06,6.06,0,0,0,.617,8.818,8.512,8.512,0,0,0-3.995,3.329H91.991a1,1,0,0,0,0,2h7.878Zm3.311,0h-1.314V130.57h1.314a1.6,1.6,0,1,1,0,3.193Zm11.12,0h-7.9a3.587,3.587,0,0,0-1.671-4.838,6.509,6.509,0,0,1,4.973-2.3H111a6.509,6.509,0,0,1,4.974,2.3,3.587,3.587,0,0,0-1.672,4.838Zm4.532,0h-1.314a1.6,1.6,0,1,1,0-3.193h1.318Zm15.076-2.993a3,3,0,0,1-2.993,2.993H120.828V130.57h7.88a1,1,0,0,0,0-2H118.187a8.514,8.514,0,0,0-3.995-3.329,6.06,6.06,0,0,0,1.687-7.206h1.662a3.719,3.719,0,0,0,7.252,0h2.762a6.362,6.362,0,0,1,6.354,6.354v6.375Z" fill="#ef8b44"/>
    <path id="Trazado_1958" data-name="Trazado 1958" d="M715.846,293.725a1,1,0,1,0-.705-.292A1,1,0,0,0,715.846,293.725Z" transform="translate(-594.675 -195.442)" fill="#ef8b44"/>
  </g>
</svg>
