<svg id="Page-1" xmlns="http://www.w3.org/2000/svg" width="45.408" height="50.453" viewBox="0 0 45.408 50.453">
  <g id="_008---Mobile-Conversation" data-name="008---Mobile-Conversation" transform="translate(0)">
    <path id="Shape" d="M94.708,8.409a.841.841,0,0,0,.841-.841V6.727a5.05,5.05,0,0,1,4.584-5.022l2.018,3.364a1.688,1.688,0,0,0,1.442.817h12.5a1.688,1.688,0,0,0,1.441-.817l2.018-3.364a5.05,5.05,0,0,1,4.584,5.021V20.181a.841.841,0,0,0,1.682,0V6.727A6.735,6.735,0,0,0,119.094,0h-18.5a6.735,6.735,0,0,0-6.727,6.727v.841A.841.841,0,0,0,94.708,8.409Zm21.387-4.2h-12.5l-1.514-2.523h15.53Z" transform="translate(-87.14)" fill="#eb477a"/>
    <path id="Shape-2" data-name="Shape" d="M125.821,305.269v-5.045a.841.841,0,1,0-1.682,0v5.045a5.05,5.05,0,0,1-5.045,5.045h-18.5a5.05,5.05,0,0,1-5.045-5.045v-14.3a.841.841,0,1,0-1.682,0v14.3A6.735,6.735,0,0,0,100.594,312h18.5A6.735,6.735,0,0,0,125.821,305.269Z" transform="translate(-87.14 -261.543)" fill="#eb477a"/>
    <path id="Shape-3" data-name="Shape" d="M179.792,453.948a.841.841,0,1,0,0-1.682H162.974a.841.841,0,1,0,0,1.682Z" transform="translate(-148.679 -407.7)" fill="#eb477a"/>
    <path id="Shape-4" data-name="Shape" d="M28.964,119.218h9.892l5.531,4.838a.841.841,0,0,0,1.387-.738l-.512-4.1h.519a3.364,3.364,0,0,0,3.364-3.364V105.764a3.364,3.364,0,0,0-3.364-3.363H28.964a3.364,3.364,0,0,0-3.364,3.363v10.091A3.364,3.364,0,0,0,28.964,119.218Zm-1.682-13.454a1.682,1.682,0,0,1,1.682-1.682H45.781a1.682,1.682,0,0,1,1.682,1.682v10.091a1.682,1.682,0,0,1-1.682,1.682H44.31a.841.841,0,0,0-.834.945l.357,2.855-4.105-3.592a.841.841,0,0,0-.555-.208H28.964a1.682,1.682,0,0,1-1.682-1.682Z" transform="translate(-25.6 -92.309)" fill="#eb477a"/>
    <path id="Shape-5" data-name="Shape" d="M60.574,163.815h1.682a.841.841,0,1,0,0-1.682H60.574a.841.841,0,1,0,0,1.682Z" transform="translate(-56.369 -146.156)" fill="#eb477a"/>
    <path id="Shape-6" data-name="Shape" d="M111.774,163.815h10.091a.841.841,0,0,0,0-1.682H111.774a.841.841,0,1,0,0,1.682Z" transform="translate(-102.524 -146.156)" fill="#eb477a"/>
    <path id="Shape-7" data-name="Shape" d="M198.79,196.267h-1.682a.841.841,0,0,0,0,1.682h1.682a.841.841,0,1,0,0-1.682Z" transform="translate(-179.449 -176.927)" fill="#eb477a"/>
    <path id="Shape-8" data-name="Shape" d="M60.574,197.949H70.665a.841.841,0,1,0,0-1.682H60.574a.841.841,0,1,0,0,1.682Z" transform="translate(-56.369 -176.927)" fill="#eb477a"/>
    <path id="Shape-9" data-name="Shape" d="M281.6,233.763v6.727a3.364,3.364,0,0,0,3.364,3.363h.519l-.512,4.1a.841.841,0,0,0,1.388.738l5.531-4.838h6.529a3.364,3.364,0,0,0,3.364-3.363v-6.727a3.364,3.364,0,0,0-3.364-3.363H284.964a3.364,3.364,0,0,0-3.364,3.363Zm18.5,0v6.727a1.682,1.682,0,0,1-1.682,1.682h-6.845a.841.841,0,0,0-.553.208l-4.107,3.592.356-2.855a.841.841,0,0,0-.834-.945h-1.472a1.681,1.681,0,0,1-1.682-1.682v-6.727a1.682,1.682,0,0,1,1.682-1.682h13.454A1.682,1.682,0,0,1,300.1,233.763Z" transform="translate(-256.373 -207.696)" fill="#eb477a"/>
    <path id="Shape-10" data-name="Shape" d="M418.974,274.749h1.681a.841.841,0,1,0,0-1.682h-1.681a.841.841,0,1,0,0,1.682Z" transform="translate(-379.452 -246.159)" fill="#eb477a"/>
    <path id="Shape-11" data-name="Shape" d="M316.574,274.749H323.3a.841.841,0,1,0,0-1.682h-6.727a.841.841,0,1,0,0,1.682Z" transform="translate(-287.143 -246.159)" fill="#eb477a"/>
    <path id="Shape-12" data-name="Shape" d="M318.256,307.2h-1.682a.841.841,0,1,0,0,1.682h1.682a.841.841,0,1,0,0-1.682Z" transform="translate(-287.143 -276.928)" fill="#eb477a"/>
    <path id="Shape-13" data-name="Shape" d="M374.5,307.2h-6.727a.841.841,0,1,0,0,1.682H374.5a.841.841,0,1,0,0-1.682Z" transform="translate(-333.297 -276.928)" fill="#eb477a"/>
  </g>
</svg>
