<svg xmlns="http://www.w3.org/2000/svg" width="40.393" height="43.242" viewBox="0 0 40.393 43.242">
  <g id="Grupo_1118" data-name="Grupo 1118" transform="translate(0.25 0.25)">
    <path id="Trazado_1918" data-name="Trazado 1918" d="M35.562,58.742H61.919a9.972,9.972,0,0,0,4.274-18.983v-14.5a.712.712,0,0,0-.209-.5l-8.548-8.548a.712.712,0,0,0-.5-.209H35.562A3.566,3.566,0,0,0,32,19.562V55.18A3.566,3.566,0,0,0,35.562,58.742Zm34.906-9.973a8.548,8.548,0,1,1-8.548-8.548A8.548,8.548,0,0,1,70.468,48.769ZM57.645,18.432l6.116,6.116H59.782a2.139,2.139,0,0,1-2.137-2.137Zm-24.22,1.13a2.14,2.14,0,0,1,2.137-2.137H56.22v4.987a3.566,3.566,0,0,0,3.562,3.562h4.987V39.211a9.972,9.972,0,0,0-7.981,18.106H35.562a2.14,2.14,0,0,1-2.137-2.137Z" transform="translate(-32 -16)" fill="#ef8b44" stroke="#ef8b44" stroke-width="0.5"/>
    <path id="Trazado_1919" data-name="Trazado 1919" d="M160,160.712a.712.712,0,0,0,.712.712h17.1a.712.712,0,1,0,0-1.425h-17.1A.712.712,0,0,0,160,160.712Z" transform="translate(-148.602 -147.177)" fill="#ef8b44" stroke="#ef8b44" stroke-width="0.5"/>
    <path id="Trazado_1920" data-name="Trazado 1920" d="M80.712,209.425H94.96a.712.712,0,0,0,0-1.425H80.712a.712.712,0,0,0,0,1.425Z" transform="translate(-75.726 -190.903)" fill="#ef8b44" stroke="#ef8b44" stroke-width="0.5"/>
    <path id="Trazado_1921" data-name="Trazado 1921" d="M214.411,256h-5.7a.712.712,0,1,0,0,1.425h5.7a.712.712,0,0,0,0-1.425Z" transform="translate(-192.328 -234.629)" fill="#ef8b44" stroke="#ef8b44" stroke-width="0.5"/>
    <path id="Trazado_1922" data-name="Trazado 1922" d="M80.712,305.425H93.535a.712.712,0,0,0,0-1.425H80.712a.712.712,0,1,0,0,1.425Z" transform="translate(-75.726 -278.355)" fill="#ef8b44" stroke="#ef8b44" stroke-width="0.5"/>
    <path id="Trazado_1923" data-name="Trazado 1923" d="M80.712,161.425h4.274a.712.712,0,0,0,0-1.425H80.712a.712.712,0,1,0,0,1.425Z" transform="translate(-75.726 -147.177)" fill="#ef8b44" stroke="#ef8b44" stroke-width="0.5"/>
    <path id="Trazado_1924" data-name="Trazado 1924" d="M279.836,208h-7.124a.712.712,0,0,0,0,1.425h7.124a.712.712,0,0,0,0-1.425Z" transform="translate(-250.629 -190.903)" fill="#ef8b44" stroke="#ef8b44" stroke-width="0.5"/>
    <path id="Trazado_1925" data-name="Trazado 1925" d="M80.712,257.425h8.548a.712.712,0,1,0,0-1.425H80.712a.712.712,0,1,0,0,1.425Z" transform="translate(-75.726 -234.629)" fill="#ef8b44" stroke="#ef8b44" stroke-width="0.5"/>
    <path id="Trazado_1926" data-name="Trazado 1926" d="M179.562,400h-2.849a.712.712,0,0,0,0,1.425h2.849a.712.712,0,1,0,0-1.425Z" transform="translate(-163.177 -365.806)" fill="#ef8b44" stroke="#ef8b44" stroke-width="0.5"/>
    <path id="Trazado_1927" data-name="Trazado 1927" d="M80.712,401.425h5.7a.712.712,0,1,0,0-1.425h-5.7a.712.712,0,1,0,0,1.425Z" transform="translate(-75.726 -365.806)" fill="#ef8b44" stroke="#ef8b44" stroke-width="0.5"/>
    <path id="Trazado_1928" data-name="Trazado 1928" d="M80.712,353.425h4.274a.712.712,0,1,0,0-1.425H80.712a.712.712,0,1,0,0,1.425Z" transform="translate(-75.726 -322.081)" fill="#ef8b44" stroke="#ef8b44" stroke-width="0.5"/>
    <path id="Trazado_1929" data-name="Trazado 1929" d="M80.712,113.425h8.548a.712.712,0,0,0,0-1.425H80.712a.712.712,0,1,0,0,1.425Z" transform="translate(-75.726 -103.452)" fill="#ef8b44" stroke="#ef8b44" stroke-width="0.5"/>
    <path id="Trazado_1930" data-name="Trazado 1930" d="M164.987,352h-4.274a.712.712,0,1,0,0,1.425h4.274a.712.712,0,1,0,0-1.425Z" transform="translate(-148.602 -322.081)" fill="#ef8b44" stroke="#ef8b44" stroke-width="0.5"/>
    <path id="Trazado_1931" data-name="Trazado 1931" d="M313.216,341.938a.712.712,0,0,0-1.008,1.007l2.849,2.849a.712.712,0,0,0,.5.209q.035,0,.07,0a.713.713,0,0,0,.523-.314l5.7-8.548a.712.712,0,0,0-1.185-.79l-5.217,7.825Z" transform="translate(-287.067 -307.536)" fill="#ef8b44" stroke="#ef8b44" stroke-width="0.5"/>
  </g>
</svg>
