<svg xmlns="http://www.w3.org/2000/svg" width="45.218" height="42.457" viewBox="0 0 45.218 42.457">
  <g id="Grupo_1161" data-name="Grupo 1161" transform="translate(0.25 -16.716)">
    <path id="Trazado_287" data-name="Trazado 287" d="M39.914,24.86H14.153L33.19,19.572a1.31,1.31,0,0,0-.7-2.525L4.24,24.895A4.81,4.81,0,0,0,0,29.664V54.119a4.809,4.809,0,0,0,4.8,4.8h35.11a4.809,4.809,0,0,0,4.8-4.8V29.664A4.809,4.809,0,0,0,39.914,24.86ZM4.8,27.481h35.11A2.186,2.186,0,0,1,42.1,29.664v5.677H10.568v-3.93a1.31,1.31,0,1,0-2.62,0v3.93H2.62V29.664A2.186,2.186,0,0,1,4.8,27.481ZM39.914,56.3H4.8A2.186,2.186,0,0,1,2.62,54.119V37.961H42.1V54.119A2.186,2.186,0,0,1,39.914,56.3Z" fill="#eb477a" stroke="#fff" stroke-width="0.5"/>
    <path id="Trazado_288" data-name="Trazado 288" d="M67.55,287a6.55,6.55,0,1,0,6.55,6.55A6.558,6.558,0,0,0,67.55,287Zm0,10.481a3.93,3.93,0,1,1,3.93-3.93A3.935,3.935,0,0,1,67.55,297.485Z" transform="translate(-55.672 -246.423)" fill="#eb477a" stroke="#fff" stroke-width="0.5"/>
    <path id="Trazado_289" data-name="Trazado 289" d="M244.93,347a3.93,3.93,0,1,0,3.93,3.93A3.935,3.935,0,0,0,244.93,347Zm0,5.24a1.31,1.31,0,1,1,1.31-1.31A1.312,1.312,0,0,1,244.93,352.244Z" transform="translate(-219.951 -301.182)" fill="#eb477a" stroke="#fff" stroke-width="0.5"/>
    <path id="Trazado_290" data-name="Trazado 290" d="M364.93,347a3.93,3.93,0,1,0,3.93,3.93A3.935,3.935,0,0,0,364.93,347Zm0,5.24a1.31,1.31,0,1,1,1.31-1.31A1.312,1.312,0,0,1,364.93,352.244Z" transform="translate(-329.471 -301.182)" fill="#eb477a" stroke="#fff" stroke-width="0.5"/>
  </g>
</svg>
