<svg xmlns="http://www.w3.org/2000/svg" width="26.291" height="45.661" viewBox="0 0 26.291 45.661">
  <g id="Grupo_205" data-name="Grupo 205" transform="translate(-29.746 -209.732)">
    <path id="Trazado_242" data-name="Trazado 242" d="M243.351-245.469a2.082,2.082,0,0,1-1.925-1.946H241.4a2.086,2.086,0,0,1-2.028,1.956v.01a2.084,2.084,0,0,1,2.022,1.894h.039a2.081,2.081,0,0,1,1.918-1.883Z" transform="translate(-189.628 457.147)" fill="#fff"/>
    <path id="Trazado_243" data-name="Trazado 243" d="M206.91-222.373a2.082,2.082,0,0,1-1.925-1.946h-.026a2.086,2.086,0,0,1-2.028,1.956v.01a2.084,2.084,0,0,1,2.022,1.894h.04a2.081,2.081,0,0,1,1.918-1.883Z" transform="translate(-173.184 446.725)" fill="#fff"/>
    <path id="Trazado_249" data-name="Trazado 249" d="M248.166-189.248a1.011,1.011,0,0,0,1.011-1.011,1.011,1.011,0,0,0-1.011-1.011,1.011,1.011,0,0,0-1.011,1.011,1.011,1.011,0,0,0,1.011,1.011" transform="translate(-193.14 431.811)" fill="#fff"/>
    <path id="Trazado_250" data-name="Trazado 250" d="M215.629-165.87a1.011,1.011,0,0,0,1.011-1.011,1.011,1.011,0,0,0-1.011-1.011,1.011,1.011,0,0,0-1.011,1.011,1.011,1.011,0,0,0,1.011,1.011" transform="translate(-178.458 421.262)" fill="#fff"/>
  </g>
</svg>
