<svg id="Grupo_1157" data-name="Grupo 1157" xmlns="http://www.w3.org/2000/svg" width="26.291" height="45.661" viewBox="0 0 26.291 45.661">
  <path id="Trazado_242" data-name="Trazado 242" d="M239.371-245.469a2.082,2.082,0,0,0,1.925-1.946h.026a2.086,2.086,0,0,0,2.028,1.956v.01a2.084,2.084,0,0,0-2.022,1.894h-.039a2.081,2.081,0,0,0-1.918-1.883Z" transform="translate(-237.057 247.415)" fill="#fff"/>
  <path id="Trazado_243" data-name="Trazado 243" d="M202.93-222.373a2.082,2.082,0,0,0,1.925-1.946h.026a2.086,2.086,0,0,0,2.028,1.956v.01a2.084,2.084,0,0,0-2.022,1.894h-.04a2.081,2.081,0,0,0-1.918-1.883Z" transform="translate(-180.619 236.993)" fill="#fff"/>
  <path id="Trazado_249" data-name="Trazado 249" d="M248.166-189.248a1.011,1.011,0,0,1-1.011-1.011,1.011,1.011,0,0,1,1.011-1.011,1.011,1.011,0,0,1,1.011,1.011,1.011,1.011,0,0,1-1.011,1.011" transform="translate(-247.155 222.08)" fill="#fff"/>
  <path id="Trazado_250" data-name="Trazado 250" d="M215.629-165.87a1.011,1.011,0,0,1-1.011-1.011,1.011,1.011,0,0,1,1.011-1.011,1.011,1.011,0,0,1,1.011,1.011,1.011,1.011,0,0,1-1.011,1.011" transform="translate(-196.763 211.53)" fill="#fff"/>
</svg>
