<svg xmlns="http://www.w3.org/2000/svg" width="45.27" height="62.795" viewBox="0 0 45.27 62.795">
  <g id="woman" transform="translate(-71.445 -0.001)">
    <g id="Grupo_1146" data-name="Grupo 1146" transform="translate(71.445 0.001)">
      <path id="Trazado_1956" data-name="Trazado 1956" d="M113.972,44.989a6.207,6.207,0,0,0-4.729-4.857h0c-.042-.012.357.088-9.486-2.352v-.334H107a2.712,2.712,0,0,0,2.708-2.708V20.919a3.385,3.385,0,0,0,0-1.563V14.313a.92.92,0,0,0-1.84,0v2.64a4.776,4.776,0,0,0-1.638-.6,2.4,2.4,0,0,0-2.022-1.849,3,3,0,0,1-2.371-1.824,1.577,1.577,0,0,0-2.689-.246,16.833,16.833,0,0,1-13.569,6.979c-.578,0-.969-.027-1.106-.033A2.433,2.433,0,0,0,81.9,21.808v2.114a12.479,12.479,0,0,0,3.845,8.986,12.32,12.32,0,0,0,2.658,1.933v.765H81.193a.87.87,0,0,1-.869-.868V14.065A12.218,12.218,0,0,1,92.389,1.841h.064a15.678,15.678,0,0,1,6.956,1.711c1.179.651,1.908.134,3.072.134,2.842,0,5.12,2.923,5.393,5.551,0,.039.006.193.006.783a.938.938,0,0,0,.921.919.92.92,0,0,0,.919-.921c0-.163,0-.8-.014-.953-.37-3.659-3.491-7.221-7.225-7.221-1.458,0-1.686.37-2.183.1A17.656,17.656,0,0,0,92.463,0,14.054,14.054,0,0,0,78.484,14.065V34.737a2.712,2.712,0,0,0,2.709,2.708h7.212v.334l-9.449,2.342-.037.01-.69.2-.061.02a6.1,6.1,0,0,0-3.978,4.634C71.39,59.055,71.508,58.454,71.5,58.5c-.337,2.386.857,4.294,3.73,4.294h9.949a.92.92,0,0,0,0-1.84H81.717V52.279a.92.92,0,1,0-1.84,0v8.677H75.231c-1.222,0-1.932-.393-1.943-1.677-.005-.626-.03-.016,2.707-13.93a4.312,4.312,0,0,1,2.788-3.259l.638-.188,5.426-1.345c6.036,7.111,5.678,6.734,6.027,7.074a4.458,4.458,0,0,0,6.781-.4l5.682-6.674,5.405,1.34a4.46,4.46,0,0,1,3.426,3.447c2.713,13.794,2.712,13.3,2.707,13.93-.009,1.257-.69,1.678-1.943,1.678h-4.614V52.279a.92.92,0,0,0-1.84,0v8.677H89.472a.92.92,0,0,0,0,1.84h23.459c2.273,0,3.762-1.251,3.783-3.5C116.723,58.241,116.66,58.744,113.972,44.989ZM106.293,18.25a2.309,2.309,0,0,1,1.578,1.36v1.054a2.308,2.308,0,0,1-1.578,1.36Zm0,5.831v-.17a4.766,4.766,0,0,0,1.578-.59V34.737a.869.869,0,0,1-.868.868H99.757v-.711A12.179,12.179,0,0,0,106.293,24.082ZM87.018,31.577a10.631,10.631,0,0,1-3.276-7.655c.055-2-.133-2.246.187-2.547a.58.58,0,0,1,.437-.159,18.48,18.48,0,0,0,16.016-7.358,4.72,4.72,0,0,0,3.589,2.47.553.553,0,0,1,.482.545v7.209A10.333,10.333,0,0,1,87.018,31.577Zm9.236,14.466a2.662,2.662,0,0,1-4.355-.008l-1.92-2.266h8.21Zm3.5-4.113H88.42l-1.581-1.866,2.707-.671a.93.93,0,0,0,.7-.9V35.644a12.186,12.186,0,0,0,7.672.026c.017,2.94-.039,2.873.051,3.133a.92.92,0,0,0,.647.589l2.725.675Z" transform="translate(-71.445 -0.001)" fill="#ef8b44"/>
    </g>
  </g>
</svg>
