<svg xmlns="http://www.w3.org/2000/svg" width="80.5" height="80.478" viewBox="0 0 80.5 80.478">
  <g id="Grupo_1323" data-name="Grupo 1323" transform="translate(753.65 -749.858)">
    <g id="Grupo_1284" data-name="Grupo 1284" transform="translate(-753.184 800.897)">
      <g id="Grupo_1283" data-name="Grupo 1283">
        <path id="Trazado_1907" data-name="Trazado 1907" d="M-674.814,773.6H-752a1.4,1.4,0,0,0-1.3,1.3,27.96,27.96,0,0,0,27.892,27.892h24A27.96,27.96,0,0,0-673.516,774.9,1.246,1.246,0,0,0-674.814,773.6Zm-26.595,26.595h-24a25.373,25.373,0,0,1-25.3-24h74.378A24.887,24.887,0,0,1-701.408,800.195Z" transform="translate(753.3 -773.6)" fill="#7dc7c5" stroke="#7dc7c5" stroke-width="0.5"/>
      </g>
    </g>
    <g id="Grupo_1286" data-name="Grupo 1286" transform="translate(-725.292 750.112)">
      <g id="Grupo_1285" data-name="Grupo 1285">
        <path id="Trazado_1908" data-name="Trazado 1908" d="M-700.4,768.9v-.432a5.679,5.679,0,0,0-3.676-4.757l1.513-1.514a7.259,7.259,0,0,0,.649-9.514,6.934,6.934,0,0,0-9.946-.865c-.216.216-.432.216-.432.432l-1.73,1.73a5.679,5.679,0,0,0-4.757-3.676,5.321,5.321,0,0,0-5.622,4.973v2.162a5.758,5.758,0,0,0-2.595-.649h-.432a5.627,5.627,0,0,0-4.973,5.622v1.73a5.759,5.759,0,0,0-2.595-.649h-.432a5.627,5.627,0,0,0-4.973,5.622v19.676a1.4,1.4,0,0,0,1.3,1.3h22.7a5.353,5.353,0,0,0,5.405-5.405,5.137,5.137,0,0,0-.649-2.594h1.73a5.627,5.627,0,0,0,5.622-4.973,6.908,6.908,0,0,0-.649-3.027,5.681,5.681,0,0,0,3.243-1.514A6.241,6.241,0,0,0-700.4,768.9Zm-3.459,1.946a2.74,2.74,0,0,1-1.946.865H-709.7a1.4,1.4,0,0,0-1.3,1.3,1.4,1.4,0,0,0,1.3,1.3h.216a2.681,2.681,0,0,1,2.595,2.811,2.822,2.822,0,0,1-2.811,2.595h-6.486a1.4,1.4,0,0,0-1.3,1.3,1.4,1.4,0,0,0,1.3,1.3,2.629,2.629,0,0,1,2.595,2.595,2.79,2.79,0,0,1-2.595,2.595h-21.405V769.113a2.681,2.681,0,0,1,2.594-2.811h.216a2.629,2.629,0,0,1,2.595,2.595h0a1.4,1.4,0,0,0,1.3,1.3h0a1.4,1.4,0,0,0,1.3-1.3h0V762.41a2.681,2.681,0,0,1,2.595-2.811h.216a2.629,2.629,0,0,1,2.594,2.595h0a1.4,1.4,0,0,0,1.3,1.3h0a1.4,1.4,0,0,0,1.3-1.3h0v-6.919a2.681,2.681,0,0,1,2.811-2.595,2.822,2.822,0,0,1,2.595,2.811v1.081a1.778,1.778,0,0,0,.865,1.3,1.9,1.9,0,0,0,1.514-.216l3.676-3.676.216-.216a4.2,4.2,0,0,1,6.054.649,4.4,4.4,0,0,1-.432,6.054l-3.459,3.459a1.281,1.281,0,0,0-.216,1.514,1.46,1.46,0,0,0,1.3.865h1.081a2.822,2.822,0,0,1,2.811,2.595v.216A7.587,7.587,0,0,1-703.859,770.843Z" transform="translate(740.4 -750.112)" fill="#7dc7c5" stroke="#7dc7c5" stroke-width="0.5"/>
      </g>
    </g>
    <g id="Grupo_1288" data-name="Grupo 1288" transform="translate(-732.702 758.639)">
      <g id="Grupo_1287" data-name="Grupo 1287" transform="translate(0 0)">
        <rect id="Rectángulo_249" data-name="Rectángulo 249" width="52.756" height="2.595" transform="translate(0 37.304) rotate(-45)" fill="#7dc7c5" stroke="#7dc7c5" stroke-width="0.5"/>
      </g>
    </g>
    <g id="Grupo_1290" data-name="Grupo 1290" transform="translate(-703.886 760.897)">
      <g id="Grupo_1289" data-name="Grupo 1289">
        <rect id="Rectángulo_250" data-name="Rectángulo 250" width="2.595" height="6.703" fill="#7dc7c5" stroke="#7dc7c5" stroke-width="0.5"/>
      </g>
    </g>
    <g id="Grupo_1292" data-name="Grupo 1292" transform="translate(-711.886 767.6)">
      <g id="Grupo_1291" data-name="Grupo 1291">
        <rect id="Rectángulo_251" data-name="Rectángulo 251" width="2.595" height="8" fill="#7dc7c5" stroke="#7dc7c5" stroke-width="0.5"/>
      </g>
    </g>
    <g id="Grupo_1294" data-name="Grupo 1294" transform="translate(-719.886 774.302)">
      <g id="Grupo_1293" data-name="Grupo 1293">
        <rect id="Rectángulo_252" data-name="Rectángulo 252" width="2.595" height="9.297" fill="#7dc7c5" stroke="#7dc7c5" stroke-width="0.5"/>
      </g>
    </g>
    <g id="Grupo_1296" data-name="Grupo 1296" transform="translate(-702.589 766.302)">
      <g id="Grupo_1295" data-name="Grupo 1295">
        <rect id="Rectángulo_253" data-name="Rectángulo 253" width="6.703" height="2.595" fill="#7dc7c5" stroke="#7dc7c5" stroke-width="0.5"/>
      </g>
    </g>
    <g id="Grupo_1298" data-name="Grupo 1298" transform="translate(-710.589 774.302)">
      <g id="Grupo_1297" data-name="Grupo 1297">
        <rect id="Rectángulo_254" data-name="Rectángulo 254" width="8" height="2.595" fill="#7dc7c5" stroke="#7dc7c5" stroke-width="0.5"/>
      </g>
    </g>
    <g id="Grupo_1300" data-name="Grupo 1300" transform="translate(-718.589 782.302)">
      <g id="Grupo_1299" data-name="Grupo 1299">
        <rect id="Rectángulo_255" data-name="Rectángulo 255" width="9.297" height="2.595" fill="#7dc7c5" stroke="#7dc7c5" stroke-width="0.5"/>
      </g>
    </g>
    <g id="Grupo_1302" data-name="Grupo 1302" transform="translate(-748.211 753.163)">
      <g id="Grupo_1301" data-name="Grupo 1301">
        <path id="Trazado_1909" data-name="Trazado 1909" d="M-731.108,754.716h0a6.016,6.016,0,0,0-8.432-1.73l-.216.216-.432.432-.432-.432a6.138,6.138,0,0,0-8.649.216,6.428,6.428,0,0,0-1.73,4.324,5.762,5.762,0,0,0,1.946,4.324,3.8,3.8,0,0,0,1.081.865l1.081.865v.649a6.736,6.736,0,0,0,6.7,6.7,6.736,6.736,0,0,0,6.7-6.7V763.8l1.081-.865A6.285,6.285,0,0,0-731.108,754.716Zm-3.027,6.27-1.73,1.3a1.651,1.651,0,0,0-.432,1.081v1.3a3.876,3.876,0,0,1-3.892,3.892,3.876,3.876,0,0,1-3.892-3.892v-1.3a1.652,1.652,0,0,0-.432-1.081l-1.73-1.3h-.216c-.216-.216-.432-.216-.649-.432a3.472,3.472,0,0,1-1.081-2.378,4.534,4.534,0,0,1,.865-2.378,3.581,3.581,0,0,1,2.595-1.081,3.252,3.252,0,0,1,2.378.865l.216.216,1.3.865a1.045,1.045,0,0,0,1.514,0l1.3-1.081a3.721,3.721,0,0,1,2.595-.432,3.126,3.126,0,0,1,2.162,1.514A3.2,3.2,0,0,1-734.135,760.986Z" transform="translate(751 -751.523)" fill="#7dc7c5" stroke="#7dc7c5" stroke-width="0.5"/>
      </g>
    </g>
    <g id="Grupo_1304" data-name="Grupo 1304" transform="translate(-723.995 751.6)">
      <g id="Grupo_1303" data-name="Grupo 1303">
        <rect id="Rectángulo_256" data-name="Rectángulo 256" width="2.595" height="2.595" fill="#7dc7c5" stroke="#7dc7c5" stroke-width="0.5"/>
      </g>
    </g>
    <g id="Grupo_1306" data-name="Grupo 1306" transform="translate(-715.995 794.194)">
      <g id="Grupo_1305" data-name="Grupo 1305">
        <rect id="Rectángulo_257" data-name="Rectángulo 257" width="2.595" height="2.595" fill="#7dc7c5" stroke="#7dc7c5" stroke-width="0.5"/>
      </g>
    </g>
    <g id="Grupo_1308" data-name="Grupo 1308" transform="translate(-681.4 758.302)">
      <g id="Grupo_1307" data-name="Grupo 1307">
        <path id="Trazado_1910" data-name="Trazado 1910" d="M-720.1,753.9v2.594a2.629,2.629,0,0,1,2.594,2.595,2.79,2.79,0,0,1-2.594,2.594v2.595a5.353,5.353,0,0,0,5.405-5.405C-714.694,755.846-717.073,753.9-720.1,753.9Z" transform="translate(720.1 -753.9)" fill="#7dc7c5" stroke="#7dc7c5" stroke-width="0.5"/>
      </g>
    </g>
    <g id="Grupo_1310" data-name="Grupo 1310" transform="translate(-750.589 770.194)">
      <g id="Grupo_1309" data-name="Grupo 1309">
        <rect id="Rectángulo_258" data-name="Rectángulo 258" width="2.595" height="2.595" fill="#7dc7c5" stroke="#7dc7c5" stroke-width="0.5"/>
      </g>
    </g>
    <g id="Grupo_1312" data-name="Grupo 1312" transform="translate(-753.184 765.005)">
      <g id="Grupo_1311" data-name="Grupo 1311">
        <rect id="Rectángulo_259" data-name="Rectángulo 259" width="2.595" height="2.595" fill="#7dc7c5" stroke="#7dc7c5" stroke-width="0.5"/>
      </g>
    </g>
    <g id="Grupo_1314" data-name="Grupo 1314" transform="translate(-706.697 792.897)">
      <g id="Grupo_1313" data-name="Grupo 1313">
        <path id="Trazado_1911" data-name="Trazado 1911" d="M-726.395,769.9a5.353,5.353,0,0,0-5.405,5.405h2.595a2.629,2.629,0,0,1,2.595-2.595,2.629,2.629,0,0,1,2.595,2.595h2.595A4.775,4.775,0,0,0-726.395,769.9Z" transform="translate(731.8 -769.9)" fill="#7dc7c5" stroke="#7dc7c5" stroke-width="0.5"/>
      </g>
    </g>
    <g id="Grupo_1316" data-name="Grupo 1316" transform="translate(-753.4 777.113)">
      <g id="Grupo_1315" data-name="Grupo 1315">
        <path id="Trazado_1912" data-name="Trazado 1912" d="M-737.184,766.492h0a5.58,5.58,0,0,0-5.405-3.892,5.381,5.381,0,0,0-5.189,3.892h-.216A5.353,5.353,0,0,0-753.4,771.9a5.353,5.353,0,0,0,5.405,5.405H-737.4a5.353,5.353,0,0,0,5.405-5.405A5.31,5.31,0,0,0-737.184,766.492Zm0,7.784h-10.594a2.629,2.629,0,0,1-2.595-2.595,2.629,2.629,0,0,1,2.595-2.595h1.3a1.4,1.4,0,0,0,1.3-1.3,2.629,2.629,0,0,1,2.594-2.595,2.79,2.79,0,0,1,2.595,2.595,1.4,1.4,0,0,0,1.3,1.3h1.3a2.629,2.629,0,0,1,2.595,2.595A2.228,2.228,0,0,1-737.184,774.276Z" transform="translate(753.4 -762.6)" fill="#7dc7c5" stroke="#7dc7c5" stroke-width="0.5"/>
      </g>
    </g>
    <g id="Grupo_1318" data-name="Grupo 1318" transform="translate(-746.481 788.789)">
      <g id="Grupo_1317" data-name="Grupo 1317">
        <path id="Trazado_1913" data-name="Trazado 1913" d="M-743.5,768H-748.9a1.4,1.4,0,0,0-1.3,1.3V774.7a1.4,1.4,0,0,0,1.3,1.3h5.405a1.4,1.4,0,0,0,1.3-1.3V769.3A1.4,1.4,0,0,0-743.5,768Zm-1.514,5.405h-2.595v-2.595h2.595v2.595Z" transform="translate(750.2 -768)" fill="#7dc7c5" stroke="#7dc7c5" stroke-width="0.5"/>
      </g>
    </g>
    <g id="Grupo_1320" data-name="Grupo 1320" transform="translate(-686.589 784.897)">
      <g id="Grupo_1319" data-name="Grupo 1319">
        <path id="Trazado_1914" data-name="Trazado 1914" d="M-718.608,766.2a3.876,3.876,0,0,0-3.892,3.892,3.876,3.876,0,0,0,3.892,3.892,3.876,3.876,0,0,0,3.892-3.892A3.746,3.746,0,0,0-718.608,766.2Zm0,5.405a1.4,1.4,0,0,1-1.3-1.3,1.4,1.4,0,0,1,1.3-1.3,1.4,1.4,0,0,1,1.3,1.3A1.246,1.246,0,0,1-718.608,771.605Z" transform="translate(722.5 -766.2)" fill="#7dc7c5" stroke="#7dc7c5" stroke-width="0.5"/>
      </g>
    </g>
    <g id="Grupo_1322" data-name="Grupo 1322" transform="translate(-691.995 779.491)">
      <g id="Grupo_1321" data-name="Grupo 1321">
        <path id="Trazado_1915" data-name="Trazado 1915" d="M-715.7,763.7A9.229,9.229,0,0,0-725,773a9.228,9.228,0,0,0,9.3,9.3,9.228,9.228,0,0,0,9.3-9.3A9.366,9.366,0,0,0-715.7,763.7Zm0,16a6.736,6.736,0,0,1-6.7-6.7,6.736,6.736,0,0,1,6.7-6.7A6.736,6.736,0,0,1-709,773,6.736,6.736,0,0,1-715.7,779.7Z" transform="translate(725 -763.7)" fill="#7dc7c5" stroke="#7dc7c5" stroke-width="0.5"/>
      </g>
    </g>
  </g>
</svg>
