<svg xmlns="http://www.w3.org/2000/svg" width="70.866" height="68.521" viewBox="0 0 70.866 68.521">
  <g id="drawing" transform="translate(-15.75 -23.75)">
    <path id="Trazado_1898" data-name="Trazado 1898" d="M85.193,26.346H78.157V25.173a1.173,1.173,0,1,0-2.346,0v1.173H73.466V25.173a1.173,1.173,0,1,0-2.346,0v1.173H68.775V25.173a1.173,1.173,0,1,0-2.346,0v1.173H64.084V25.173a1.173,1.173,0,1,0-2.346,0v1.173H59.392V25.173a1.173,1.173,0,1,0-2.346,0v1.173H54.7V25.173a1.173,1.173,0,1,0-2.346,0v1.173H50.01V25.173a1.173,1.173,0,1,0-2.346,0v1.173H45.319V25.173a1.173,1.173,0,1,0-2.346,0v1.173H40.628V25.173a1.173,1.173,0,1,0-2.346,0v1.173H35.937V25.173a1.173,1.173,0,1,0-2.346,0v1.173H31.246V25.173a1.173,1.173,0,1,0-2.346,0v1.173H26.555V25.173a1.173,1.173,0,1,0-2.346,0v1.173H17.173A1.173,1.173,0,0,0,16,27.518V83.811a1.173,1.173,0,0,0,1.173,1.173H66.346l6.006,6.006a3.517,3.517,0,0,0,4.975,0l3.317-3.317a3.5,3.5,0,0,0,1.031-2.488c0-.067,0-.134-.006-.2h3.524a1.173,1.173,0,0,0,1.173-1.173V27.518A1.173,1.173,0,0,0,85.193,26.346ZM52.832,63.178l3.04,1.169L54,66.218Zm9.11,6.534a1.173,1.173,0,0,0,.8-1.113v-.486L73.181,78.551l-1.659,1.659L61.254,69.941Zm12.9,10.5L76.5,81.867l-4.976,4.976-1.658-1.658ZM60.4,67.754l-1.686.562a1.173,1.173,0,0,0-.742.742l-.562,1.686H55.742l-.819-2.13,3.345-3.345,2.13.819Zm-2.144,5.335a1.173,1.173,0,0,0,1.113-.8L59.6,71.6,69.864,81.867l-1.658,1.658L57.769,73.089ZM78.986,86.013l-3.318,3.319a1.171,1.171,0,0,1-1.657,0l-.83-.829,4.975-4.976.829.829a1.173,1.173,0,0,1,0,1.659Zm5.035-3.375H80.586L62.4,64.452l0,0a1.167,1.167,0,0,0-.406-.267L51.212,60.041A1.173,1.173,0,0,0,49.7,61.557l.891,2.317H26.555A1.174,1.174,0,0,1,25.382,62.7V58.01A8.219,8.219,0,0,1,33.592,49.8H62.911a5.874,5.874,0,0,0,5.747-4.694l.117,0a1.173,1.173,0,0,0,0-2.346,3.522,3.522,0,0,1-3.518-3.518V38.073h3.033l2,2a1.173,1.173,0,0,0,1.659,0l2-2h3.033v1.173a3.522,3.522,0,0,1-3.518,3.518,1.173,1.173,0,1,0,0,2.346V49.8c0,4.052-1.837,8.615-4.369,10.848a1.173,1.173,0,1,0,1.552,1.759c3.04-2.683,5.162-7.866,5.162-12.607V44.619a5.871,5.871,0,0,0,3.518-5.373V36.9a1.173,1.173,0,0,0-1.173-1.173H73.466a1.173,1.173,0,0,0-.829.344L71.12,37.588,69.6,36.071a1.173,1.173,0,0,0-.829-.343H64.084A1.173,1.173,0,0,0,62.911,36.9v2.346a5.871,5.871,0,0,0,3.456,5.345,3.524,3.524,0,0,1-3.456,2.865H52.942l-3.166-4.222a1.173,1.173,0,0,0-1.876,0l-3.166,4.222H33.592A10.567,10.567,0,0,0,23.037,58.01V62.7a3.522,3.522,0,0,0,3.518,3.518h8.209v1.173a5.87,5.87,0,0,0,5.864,5.864h2.346a1.173,1.173,0,0,0,1.173-1.173V66.22h7.343l2.353,6.118a1.166,1.166,0,0,0,.267.407h0L64,82.638H18.346V28.691h5.864v1.173a1.173,1.173,0,0,0,2.346,0V28.691H28.9v1.173a1.173,1.173,0,1,0,2.346,0V28.691h2.346v1.173a1.173,1.173,0,1,0,2.346,0V28.691h2.346v1.173a1.173,1.173,0,1,0,2.346,0V28.691h2.346v1.173a1.173,1.173,0,0,0,2.346,0V28.691h2.346v1.173a1.173,1.173,0,1,0,2.346,0V28.691h2.346v1.173a1.173,1.173,0,1,0,2.346,0V28.691h2.346v1.173a1.173,1.173,0,0,0,2.346,0V28.691h2.346v1.173a1.173,1.173,0,1,0,2.346,0V28.691h2.346v1.173a1.173,1.173,0,0,0,2.346,0V28.691H71.12v1.173a1.173,1.173,0,0,0,2.346,0V28.691h2.346v1.173a1.173,1.173,0,1,0,2.346,0V28.691h5.864ZM37.11,66.22H41.8v4.691H40.628a3.522,3.522,0,0,1-3.518-3.518ZM47.665,47.455l1.173-1.564,1.173,1.564Z" fill="#7dc7c5" stroke="#7dc7c5" stroke-width="0.5"/>
    <circle id="Elipse_215" data-name="Elipse 215" cx="1" cy="1" r="1" transform="translate(31.366 57.021)" fill="#7dc7c5" stroke="#7dc7c5" stroke-width="0.5"/>
  </g>
</svg>
