<svg xmlns="http://www.w3.org/2000/svg" width="105.117" height="117" viewBox="0 0 105.117 117">
  <g id="brain" transform="translate(-26)">
    <g id="Grupo_1201" data-name="Grupo 1201" transform="translate(87.699 18.967)">
      <g id="Grupo_1200" data-name="Grupo 1200">
        <path id="Trazado_1863" data-name="Trazado 1863" d="M298.285,83a2.285,2.285,0,1,0,2.285,2.285A2.286,2.286,0,0,0,298.285,83Z" transform="translate(-296 -83)" fill="#7dc7c5"/>
      </g>
    </g>
    <g id="Grupo_1203" data-name="Grupo 1203" transform="translate(64.848 18.967)">
      <g id="Grupo_1202" data-name="Grupo 1202">
        <path id="Trazado_1864" data-name="Trazado 1864" d="M198.285,83a2.285,2.285,0,1,0,2.285,2.285A2.286,2.286,0,0,0,198.285,83Z" transform="translate(-196 -83)" fill="#7dc7c5"/>
      </g>
    </g>
    <g id="Grupo_1205" data-name="Grupo 1205" transform="translate(26)">
      <g id="Grupo_1204" data-name="Grupo 1204">
        <path id="Trazado_1865" data-name="Trazado 1865" d="M128.174,68.3a18.275,18.275,0,0,0,2.943-9.8,15.872,15.872,0,0,0-5.789-12.278,15.448,15.448,0,0,0,1.218-6,17.033,17.033,0,0,0-9.238-15.064,13.7,13.7,0,0,0-10.4-14.946C104.28,4.137,98.434,0,92.269,0A16.059,16.059,0,0,0,78.558,8.23,16.06,16.06,0,0,0,64.848,0C58.683,0,52.836,4.137,50.21,10.21a13.7,13.7,0,0,0-10.4,14.945A17.033,17.033,0,0,0,30.57,40.219a15.448,15.448,0,0,0,1.218,6A15.872,15.872,0,0,0,26,58.5a18.273,18.273,0,0,0,2.943,9.8,15.776,15.776,0,0,0,1.833,20.483c-1.569,9.482,5.993,19.077,15.791,19.077q.106,0,.209,0a18.015,18.015,0,0,0,31.783-.8,18.015,18.015,0,0,0,31.783.8c.069,0,.138,0,.209,0,8.671,0,16-7.639,16-16.682a14.628,14.628,0,0,0-.205-2.4A15.776,15.776,0,0,0,128.174,68.3Zm-51.9-33.706a9.082,9.082,0,0,0-4.57-1.23,2.285,2.285,0,0,0,0,4.57,4.575,4.575,0,0,1,4.57,4.57V85.96a18.239,18.239,0,0,0-13.711-6.209,2.285,2.285,0,1,0,0,4.57A13.726,13.726,0,0,1,76.273,98.033c0,7.8-6.279,14.4-13.711,14.4a13.749,13.749,0,0,1-12.408-7.971,2.286,2.286,0,0,0-2.331-1.308c-.162.019-.322.04-.483.062-6.5.889-13.827-6.475-11.845-14.713a2.285,2.285,0,0,0-.76-2.291,11.376,11.376,0,0,1-4.165-8.741,11.245,11.245,0,0,1,1.677-5.88A15.418,15.418,0,0,0,42,75.181a2.285,2.285,0,1,0,0-4.57c-6.2,0-11.426-5.66-11.426-12.111a11.362,11.362,0,0,1,5.336-9.63,2.285,2.285,0,0,0,.765-3.058,11.245,11.245,0,0,1-1.531-5.594c0-6.168,5.028-12.111,11.426-12.111,6.087,0,11.426,5.66,11.426,12.111a2.285,2.285,0,1,0,4.57,0c0-9.042-7.325-16.682-16-16.682a14.818,14.818,0,0,0-2.279.179c0-.06-.006-.119-.006-.179a9.142,9.142,0,0,1,15.606-6.464,2.285,2.285,0,0,0,3.23-3.233A13.618,13.618,0,0,0,55.538,9.99a11.545,11.545,0,0,1,9.31-5.419c6.087,0,11.426,5.659,11.426,12.111Zm38.848,40.589a15.423,15.423,0,0,0,9.749-3.594,11.245,11.245,0,0,1,1.677,5.879,11.377,11.377,0,0,1-4.165,8.741,2.284,2.284,0,0,0-.76,2.291,11.276,11.276,0,0,1,.355,2.678c0,7.093-6.416,12.826-12.2,12.035-.161-.022-.322-.044-.483-.062a2.284,2.284,0,0,0-2.331,1.308,13.75,13.75,0,0,1-12.408,7.971c-7.432,0-13.711-6.593-13.711-14.4A13.726,13.726,0,0,1,94.555,84.322a2.285,2.285,0,0,0,0-4.57A18.239,18.239,0,0,0,80.844,85.96V42.5a4.575,4.575,0,0,1,4.57-4.57,2.285,2.285,0,1,0,0-4.57,9.081,9.081,0,0,0-4.57,1.23V16.682c0-6.452,5.339-12.111,11.426-12.111a11.545,11.545,0,0,1,9.309,5.419A13.619,13.619,0,0,0,94,13.84a2.285,2.285,0,1,0,3.23,3.233,9.142,9.142,0,0,1,15.606,6.464c0,.06,0,.119-.006.179a14.818,14.818,0,0,0-2.279-.179c-8.671,0-16,7.639-16,16.682a2.285,2.285,0,1,0,4.57,0c0-6.452,5.339-12.111,11.426-12.111,6.394,0,11.426,5.941,11.426,12.111a11.245,11.245,0,0,1-1.531,5.594,2.285,2.285,0,0,0,.765,3.058,11.362,11.362,0,0,1,5.336,9.63c0,6.474-5.242,12.111-11.426,12.111a2.285,2.285,0,1,0,0,4.57Z" transform="translate(-26)" fill="#7dc7c5"/>
      </g>
    </g>
    <g id="Grupo_1207" data-name="Grupo 1207" transform="translate(44.281 37.934)">
      <g id="Grupo_1206" data-name="Grupo 1206">
        <path id="Trazado_1866" data-name="Trazado 1866" d="M132.84,176.981a2.285,2.285,0,0,0-3.227-.18,11.446,11.446,0,0,1-19.043-8.516,2.285,2.285,0,0,0-4.57,0,16.02,16.02,0,0,0,13.391,15.781,6.868,6.868,0,0,1-6.536,4.786,2.285,2.285,0,1,0,0,4.57,11.443,11.443,0,0,0,11.221-9.278,15.969,15.969,0,0,0,8.584-3.936A2.285,2.285,0,0,0,132.84,176.981Z" transform="translate(-106 -166)" fill="#7dc7c5"/>
      </g>
    </g>
    <g id="Grupo_1209" data-name="Grupo 1209" transform="translate(44.281 88.892)">
      <g id="Grupo_1208" data-name="Grupo 1208">
        <path id="Trazado_1867" data-name="Trazado 1867" d="M108.285,389a2.285,2.285,0,1,0,0,4.57c6.087,0,11.426,5.66,11.426,12.111a2.285,2.285,0,1,0,4.57,0C124.281,396.639,116.956,389,108.285,389Z" transform="translate(-106 -389)" fill="#7dc7c5"/>
      </g>
    </g>
    <g id="Grupo_1211" data-name="Grupo 1211" transform="translate(46.657 70.611)">
      <g id="Grupo_1210" data-name="Grupo 1210">
        <path id="Trazado_1868" data-name="Trazado 1868" d="M134.588,309A20.524,20.524,0,0,0,116.7,319.422a2.285,2.285,0,1,0,3.976,2.254,15.96,15.96,0,0,1,13.917-8.106,2.285,2.285,0,0,0,0-4.57Z" transform="translate(-116.398 -309)" fill="#7dc7c5"/>
      </g>
    </g>
    <g id="Grupo_1213" data-name="Grupo 1213" transform="translate(85.414 37.934)">
      <g id="Grupo_1212" data-name="Grupo 1212">
        <path id="Trazado_1869" data-name="Trazado 1869" d="M306.566,188.851a6.868,6.868,0,0,1-6.536-4.786,16.02,16.02,0,0,0,13.391-15.781,2.285,2.285,0,0,0-4.57,0,11.426,11.426,0,0,1-19.043,8.516,2.285,2.285,0,1,0-3.047,3.406,15.97,15.97,0,0,0,8.584,3.936,11.443,11.443,0,0,0,11.221,9.278,2.285,2.285,0,0,0,0-4.57Z" transform="translate(-286 -166)" fill="#7dc7c5"/>
      </g>
    </g>
    <g id="Grupo_1215" data-name="Grupo 1215" transform="translate(94.555 88.892)">
      <g id="Grupo_1214" data-name="Grupo 1214">
        <path id="Trazado_1870" data-name="Trazado 1870" d="M342,389c-8.671,0-16,7.639-16,16.682a2.285,2.285,0,1,0,4.57,0c0-6.452,5.339-12.111,11.426-12.111a2.285,2.285,0,1,0,0-4.57Z" transform="translate(-326 -389)" fill="#7dc7c5"/>
      </g>
    </g>
    <g id="Grupo_1217" data-name="Grupo 1217" transform="translate(89.984 70.611)">
      <g id="Grupo_1216" data-name="Grupo 1216">
        <path id="Trazado_1871" data-name="Trazado 1871" d="M326.178,319.422A20.521,20.521,0,0,0,308.285,309a2.285,2.285,0,0,0,0,4.57,15.963,15.963,0,0,1,13.916,8.106,2.285,2.285,0,0,0,3.976-2.254Z" transform="translate(-306 -309)" fill="#7dc7c5"/>
      </g>
    </g>
  </g>
</svg>
