<svg xmlns="http://www.w3.org/2000/svg" width="104.904" height="116.957" viewBox="0 0 104.904 116.957">
  <g id="Grupo_1487" data-name="Grupo 1487" transform="translate(676.4 -380.6)">
    <g id="Grupo_1231" data-name="Grupo 1231" transform="translate(-605.645 380.6)">
      <g id="Grupo_1230" data-name="Grupo 1230">
        <path id="Trazado_1884" data-name="Trazado 1884" d="M-642.468,380.6a2.237,2.237,0,0,0-2.232,2.232v10.49a2.237,2.237,0,0,0,2.232,2.232,2.4,2.4,0,0,0,2.232-2.232v-10.49A2.237,2.237,0,0,0-642.468,380.6Z" transform="translate(644.7 -380.6)" fill="#7dc7c5"/>
      </g>
    </g>
    <g id="Grupo_1233" data-name="Grupo 1233" transform="translate(-658.321 452.024)">
      <g id="Grupo_1232" data-name="Grupo 1232">
        <path id="Trazado_1885" data-name="Trazado 1885" d="M-666.068,412.6a2.237,2.237,0,0,0-2.232,2.232,2.4,2.4,0,0,0,2.232,2.232,2.237,2.237,0,0,0,2.232-2.232A2.237,2.237,0,0,0-666.068,412.6Z" transform="translate(668.3 -412.6)" fill="#7dc7c5"/>
      </g>
    </g>
    <g id="Grupo_1235" data-name="Grupo 1235" transform="translate(-676.4 404.706)">
      <g id="Grupo_1234" data-name="Grupo 1234">
        <path id="Trazado_1886" data-name="Trazado 1886" d="M-571.5,434.031a9.051,9.051,0,0,0-9.151-9.151H-597.61a56.324,56.324,0,0,0,3.571-21.874,7.708,7.708,0,0,0-.223-2.678,9.3,9.3,0,0,0-9.151-8.928,9.051,9.051,0,0,0-9.151,9.151v2.232c0,14.508-18.526,22.543-32.587,26.114a6.869,6.869,0,0,0-6.25-4.018h-22.767a2.237,2.237,0,0,0-2.232,2.232V482.02a2.237,2.237,0,0,0,2.232,2.232H-651.4a7.269,7.269,0,0,0,6.25-4.018c1.116.223,2.232.67,3.125.893,8.035,2.009,12.276,3.125,22.99,3.125h24.552a9.051,9.051,0,0,0,9.151-9.151,10.613,10.613,0,0,0-1.562-5.134,9.212,9.212,0,0,0,6.026-8.7,8.683,8.683,0,0,0-1.562-5.134,9.212,9.212,0,0,0,6.026-8.7,10.614,10.614,0,0,0-1.562-5.134C-573.951,441.62-571.5,438.049-571.5,434.031Zm-77.674,43.524a2.237,2.237,0,0,1-2.232,2.232h-20.534v-50.22H-651.4a2.237,2.237,0,0,1,2.232,2.232Zm68.522-38.837H-592.03a2.237,2.237,0,0,0-2.232,2.232,2.4,2.4,0,0,0,2.232,2.232h6.919a4.477,4.477,0,0,1,4.464,4.464,4.477,4.477,0,0,1-4.464,4.464h-11.383a2.237,2.237,0,0,0-2.232,2.232,2.237,2.237,0,0,0,2.232,2.232h6.919a4.477,4.477,0,0,1,4.464,4.464,4.477,4.477,0,0,1-4.464,4.464h-11.383a2.237,2.237,0,0,0-2.232,2.232,2.4,2.4,0,0,0,2.232,2.232h6.919a4.477,4.477,0,0,1,4.464,4.464,4.477,4.477,0,0,1-4.464,4.464h-24.552c-10.044,0-14.062-1.116-21.874-3.125-1.116-.223-2.455-.67-3.795-.893V432.692c16.517-4.018,36.6-13.615,36.6-30.579v-2.232a4.477,4.477,0,0,1,4.464-4.464,4.477,4.477,0,0,1,4.464,4.464h0c0,.893,1.339,13.169-3.794,24.329h-7.589a2.237,2.237,0,0,0-2.232,2.232,2.4,2.4,0,0,0,2.232,2.232h29.686a4.477,4.477,0,0,1,4.464,4.464C-575.96,436.71-577.969,438.719-580.647,438.719Z" transform="translate(676.4 -391.4)" fill="#7dc7c5"/>
      </g>
    </g>
    <g id="Grupo_1237" data-name="Grupo 1237" transform="translate(-658.321 461.175)">
      <g id="Grupo_1236" data-name="Grupo 1236">
        <path id="Trazado_1887" data-name="Trazado 1887" d="M-666.068,416.7a2.237,2.237,0,0,0-2.232,2.232v18.3a2.237,2.237,0,0,0,2.232,2.232,2.237,2.237,0,0,0,2.232-2.232v-18.3C-663.613,417.593-664.729,416.7-666.068,416.7Z" transform="translate(668.3 -416.7)" fill="#7dc7c5"/>
      </g>
    </g>
    <g id="Grupo_1239" data-name="Grupo 1239" transform="translate(-633.099 409.393)">
      <g id="Grupo_1238" data-name="Grupo 1238">
        <path id="Trazado_1888" data-name="Trazado 1888" d="M-645.617,393.5h-9.151A2.237,2.237,0,0,0-657,395.732a2.4,2.4,0,0,0,2.232,2.232h9.151a2.237,2.237,0,0,0,2.232-2.232A2.237,2.237,0,0,0-645.617,393.5Z" transform="translate(657 -393.5)" fill="#7dc7c5"/>
      </g>
    </g>
    <g id="Grupo_1241" data-name="Grupo 1241" transform="translate(-587.343 409.393)">
      <g id="Grupo_1240" data-name="Grupo 1240">
        <path id="Trazado_1889" data-name="Trazado 1889" d="M-625.117,393.5h-9.151a2.237,2.237,0,0,0-2.232,2.232,2.4,2.4,0,0,0,2.232,2.232h9.151a2.237,2.237,0,0,0,2.232-2.232A2.4,2.4,0,0,0-625.117,393.5Z" transform="translate(636.5 -393.5)" fill="#7dc7c5"/>
      </g>
    </g>
    <g id="Grupo_1243" data-name="Grupo 1243" transform="translate(-592.7 390.198)">
      <g id="Grupo_1242" data-name="Grupo 1242">
        <path id="Trazado_1890" data-name="Trazado 1890" d="M-628.633,385.57a2.158,2.158,0,0,0-3.125,0l-6.473,6.473a2.157,2.157,0,0,0,0,3.125,2.157,2.157,0,0,0,3.125,0l6.473-6.473A2.157,2.157,0,0,0-628.633,385.57Z" transform="translate(638.9 -384.9)" fill="#7dc7c5"/>
      </g>
    </g>
    <g id="Grupo_1245" data-name="Grupo 1245" transform="translate(-625.064 389.974)">
      <g id="Grupo_1244" data-name="Grupo 1244">
        <path id="Trazado_1891" data-name="Trazado 1891" d="M-643.133,391.942l-6.473-6.473a2.157,2.157,0,0,0-3.125,0,2.158,2.158,0,0,0,0,3.125l6.473,6.473a2.158,2.158,0,0,0,3.125,0A2.154,2.154,0,0,0-643.133,391.942Z" transform="translate(653.4 -384.8)" fill="#7dc7c5"/>
      </g>
    </g>
  </g>
</svg>
