<svg xmlns="http://www.w3.org/2000/svg" width="95.393" height="118.473" viewBox="0 0 95.393 118.473">
  <path id="stress" d="M74.627,102.219c-2.058,6.732-8.348,11.746-18.693,14.9a3.4,3.4,0,0,1-1.987-6.507c8.049-2.457,12.818-5.952,14.174-10.387a3.4,3.4,0,1,1,6.506,1.99Zm-16.6-3.4a3.4,3.4,0,0,0-3.4-3.4A13.193,13.193,0,0,1,41.445,82.243V49.532a38.333,38.333,0,0,1,.22-4.1A3.4,3.4,0,0,0,34.9,44.7a45.268,45.268,0,0,0-.26,4.835V82.243a20,20,0,0,0,19.982,19.982A3.4,3.4,0,0,0,58.025,98.823ZM79.657,4.517a44.526,44.526,0,0,0-16.679,3.22,3.4,3.4,0,1,0,2.537,6.312A37.749,37.749,0,0,1,79.658,11.32,38.255,38.255,0,0,1,117.87,49.532V82.244a13.194,13.194,0,0,1-13.179,13.179,3.4,3.4,0,1,0,0,6.8,20,20,0,0,0,19.982-19.982V49.532A45.067,45.067,0,0,0,79.657,4.517ZM39.284,30.036A3.4,3.4,0,1,0,45.018,33.7l9.092-14.232a3.4,3.4,0,0,0-2.867-5.233H39.834l5.6-9.039a3.4,3.4,0,1,0-5.783-3.583L30.833,15.844a3.4,3.4,0,0,0,2.891,5.193H45.033Zm68.972,27.978a40.2,40.2,0,0,0-2.506-14.473,3.3,3.3,0,0,0-.165-.38,3.406,3.406,0,0,0-5.048-1.2c-4.969,3.438-12.545,5.419-20.8,5.435a3.4,3.4,0,0,0,.007,6.8h.007a48.358,48.358,0,0,0,20.813-4.4,36.354,36.354,0,0,1,.89,8.222A28.4,28.4,0,0,1,87.736,82.646c-3.294,1.92-5.786,2.779-8.079,2.784s-4.784-.864-8.078-2.784A28.4,28.4,0,0,1,57.863,58.014a36.353,36.353,0,0,1,.889-8.216q.943.464,1.943.883l.342.144c2.281.959,3.928,1.652,5.825.842,1.861-.794,2.5-2.451,3.235-4.371.156-.407.335-.871.546-1.4.9-2.232,1.891-4.981,2.254-6.258a3.4,3.4,0,1,0-6.544-1.859c-.264.931-1.138,3.391-2.018,5.57-.188.466-.352.888-.5,1.267l-.164-.069-.348-.146a24.9,24.9,0,0,1-4.546-2.449,3.4,3.4,0,0,0-5.048,1.2,3.332,3.332,0,0,0-.166.383,40.225,40.225,0,0,0-2.505,14.473A35.224,35.224,0,0,0,68.154,88.523c4.39,2.559,7.935,3.7,11.5,3.71h.017c3.56-.007,7.105-1.151,11.5-3.71A35.225,35.225,0,0,0,108.256,58.014Zm-3.088,52.6c-8.049-2.457-12.818-5.952-14.174-10.387a3.4,3.4,0,1,0-6.506,1.989c2.058,6.732,8.347,11.746,18.693,14.9a3.4,3.4,0,0,0,1.987-6.507Z" transform="translate(-29.78 0.7)" fill="#7dc7c5" stroke="#fff" stroke-width="1"/>
</svg>
