<svg xmlns="http://www.w3.org/2000/svg" width="67.621" height="67.621" viewBox="0 0 67.621 67.621">
  <g id="bacterium" transform="translate(0 0)">
    <g id="Grupo_1342" data-name="Grupo 1342" transform="translate(0 0)">
      <path id="Trazado_1932" data-name="Trazado 1932" d="M76.961,108.431l1.615.228a8.9,8.9,0,0,0,.147,2.771,7.487,7.487,0,0,0,.521,1.54l-1.374.741a.991.991,0,1,0,.94,1.744l1.518-.818a8.273,8.273,0,0,0,3.433,2.28l-.394,1.863a.991.991,0,0,0,1.938.41l.391-1.846a6.308,6.308,0,0,0,3.065-.5l1.37,1.683a.991.991,0,1,0,1.537-1.25l-1.216-1.495a8.333,8.333,0,0,0,1.641-1.914c.028-.044.326-.572.736-1.324l1.817.98a.991.991,0,1,0,.941-1.743l-1.821-.982c.235-.447.472-.9.693-1.345.51-1.016,1.069-1.241,3-1.207a9.578,9.578,0,0,0,1.347-.075l1.109,1.895a.991.991,0,0,0,1.71-1l-.8-1.372a9.581,9.581,0,0,0,3.263-1.963l1.1,1.033a.991.991,0,0,0,1.356-1.444l-1.144-1.074a9.437,9.437,0,0,0,1.705-4.516l1.929.1a.991.991,0,0,0,.1-1.978l-2.029-.1a9.612,9.612,0,0,0-1.172-3.716l1.523-1.32a.991.991,0,0,0-1.3-1.5l-1.376,1.193a9.4,9.4,0,0,0-.9-.9,9.24,9.24,0,0,0-2.077-1.357l.525-1.811a.991.991,0,0,0-1.9-.552L99.924,89.5a10.676,10.676,0,0,0-3.455-.229l-.526-1.87a.991.991,0,1,0-1.907.537l.47,1.67a14.374,14.374,0,0,0-4.342,1.925L89.3,90.419a.991.991,0,1,0-1.56,1.221l.844,1.078a28.462,28.462,0,0,0-3.2,3.186l-1.189-.949A.991.991,0,0,0,82.956,96.5l1.175.939a36.388,36.388,0,0,0-2.508,3.748l-1.541-.8a.99.99,0,1,0-.91,1.759l1.494.773a32.282,32.282,0,0,0-1.693,3.79l-1.735-.245a.99.99,0,0,0-.278,1.961Zm4.092-1.644c3.417-8.229,8.274-12.22,9.681-13.247,3.253-2.375,8.347-3.554,11.844-.531a7.555,7.555,0,0,1-5.087,13.262c-1.906-.034-3.71.117-4.805,2.3-.366.73-.767,1.491-1.13,2.167v0c-.595,1.107-1.085,1.98-1.148,2.092a4.8,4.8,0,0,1-6.493,2.012c-4.127-1.885-3.676-6.094-2.861-8.057Z" transform="translate(-66.058 -75.226)" fill="#7dc7c5"/>
      <path id="Trazado_1933" data-name="Trazado 1933" d="M67.018,95.775A28.757,28.757,0,1,0,38.261,67.018,28.569,28.569,0,0,0,67.018,95.775Zm13.536-5.663a4.393,4.393,0,1,1,6.427-5.27A26.963,26.963,0,0,1,80.554,90.112Zm7.813-6.952a6.374,6.374,0,1,0-9.736,7.982,26.591,26.591,0,0,1-3.32,1.335A9.7,9.7,0,1,1,90.327,80.183a26.85,26.85,0,0,1-1.96,2.977ZM76.66,42.039a26.784,26.784,0,0,1,6.876,3.919,4.41,4.41,0,0,1-6.876-3.919Zm-9.642-1.8a26.69,26.69,0,0,1,7.722,1.137,6.391,6.391,0,0,0,10.346,5.9A26.737,26.737,0,0,1,91.3,78.294a11.485,11.485,0,0,0-1.978-1.672l.7-1.1a.991.991,0,0,0-1.672-1.063l-.767,1.206a11.684,11.684,0,0,0-3.122-.9l.209-1.595a.991.991,0,0,0-1.964-.257l-.228,1.744a11.721,11.721,0,0,0-3.925.8L78.2,74.092a.99.99,0,0,0-1.917.5l.459,1.758a11.538,11.538,0,0,0-2.827,2.415l-1.462-1.148a.99.99,0,1,0-1.223,1.558l1.531,1.2a11.573,11.573,0,0,0-1.35,3.414l-1.966-.134a.991.991,0,0,0-.134,1.976l1.839.125a11.554,11.554,0,0,0,.231,2.965l-1.744.486a.991.991,0,1,0,.532,1.908l1.778-.5a11.6,11.6,0,0,0,1.316,2.435,26.777,26.777,0,1,1-6.244-52.816Z" transform="translate(-33.208 -33.208)" fill="#7dc7c5"/>
      <path id="Trazado_1934" data-name="Trazado 1934" d="M204.793,153.564a4.339,4.339,0,1,0-2.03-5.791A4.337,4.337,0,0,0,204.793,153.564Zm-.245-4.932a2.358,2.358,0,1,1,1.1,3.147A2.36,2.36,0,0,1,204.548,148.631Z" transform="translate(-175.612 -126.123)" fill="#7dc7c5"/>
      <path id="Trazado_1935" data-name="Trazado 1935" d="M127.868,241.364a3.331,3.331,0,1,0-2.338-4.089A3.329,3.329,0,0,0,127.868,241.364Zm-.427-3.568a1.349,1.349,0,1,1,.947,1.657A1.351,1.351,0,0,1,127.442,237.8Z" transform="translate(-108.849 -203.807)" fill="#7dc7c5"/>
      <path id="Trazado_1936" data-name="Trazado 1936" d="M54.544,133.16A31.83,31.83,0,0,1,9.658,88.278a.991.991,0,1,0-1.5-1.291,33.811,33.811,0,0,0,47.68,47.676.991.991,0,1,0-1.291-1.5Z" transform="translate(0 -75.199)" fill="#7dc7c5"/>
      <path id="Trazado_1937" data-name="Trazado 1937" d="M107.235,0a33.779,33.779,0,0,0-22.3,8.4.991.991,0,0,0,1.307,1.489A31.83,31.83,0,0,1,131.162,54.8a.991.991,0,1,0,1.489,1.307A33.811,33.811,0,0,0,107.235,0Z" transform="translate(-73.425 0)" fill="#7dc7c5"/>
      <path id="Trazado_1938" data-name="Trazado 1938" d="M362.483,196.624a4.669,4.669,0,1,0-3.277-5.732A4.674,4.674,0,0,0,362.483,196.624Zm-1.366-5.211a2.688,2.688,0,1,1,1.887,3.3A2.69,2.69,0,0,1,361.117,191.413Z" transform="translate(-311.621 -162.693)" fill="#7dc7c5"/>
      <path id="Trazado_1939" data-name="Trazado 1939" d="M163.04,363.263a3.968,3.968,0,1,0,2.786,4.872A3.966,3.966,0,0,0,163.04,363.263Zm.874,4.351a1.987,1.987,0,1,1-1.395-2.439A1.986,1.986,0,0,1,163.914,367.614Z" transform="translate(-137.157 -315.164)" fill="#7dc7c5"/>
    </g>
  </g>
</svg>
