<svg xmlns="http://www.w3.org/2000/svg" width="35.772" height="42.157" viewBox="0 0 35.772 42.157">
  <g id="poll" transform="translate(0.15 0.15)">
    <path id="Trazado_1841" data-name="Trazado 1841" d="M103.7,0H80.938a.579.579,0,0,0,0,1.158H103.7a1.764,1.764,0,0,1,1.762,1.762V30.533a.579.579,0,0,0,1.158,0V2.92A2.923,2.923,0,0,0,103.7,0Zm0,0" transform="translate(-71.147 0)" fill="#ef8b44" stroke="#ef8b44" stroke-width="0.3"/>
    <path id="Trazado_1842" data-name="Trazado 1842" d="M35.334,35.7a.638.638,0,0,0-.638.638v2.305a1.945,1.945,0,0,1-1.942,1.942H3.718a1.945,1.945,0,0,1-1.942-1.942V3.218A1.944,1.944,0,0,1,3.718,1.276H4.923A.638.638,0,1,0,4.923,0H3.718A3.222,3.222,0,0,0,.5,3.218V38.639a3.222,3.222,0,0,0,3.218,3.218H32.753a3.222,3.222,0,0,0,3.218-3.218V36.334A.638.638,0,0,0,35.334,35.7Zm0,0" transform="translate(-0.5)" fill="#ef8b44" stroke="#ef8b44" stroke-width="0.3"/>
    <path id="Trazado_1843" data-name="Trazado 1843" d="M54.28,50.363a4.393,4.393,0,1,0,4.393,4.393A4.4,4.4,0,0,0,54.28,50.363Zm0,7.628a3.235,3.235,0,1,1,3.235-3.235A3.239,3.239,0,0,1,54.28,57.992Zm0,0" transform="translate(-46.224 -46.628)" fill="#ef8b44" stroke="#ef8b44" stroke-width="0.3"/>
    <path id="Trazado_1844" data-name="Trazado 1844" d="M197.5,66.076h12.617a.579.579,0,1,0,0-1.158H197.5a.579.579,0,0,0,0,1.158Zm0,0" transform="translate(-179.067 -60.103)" fill="#ef8b44" stroke="#ef8b44" stroke-width="0.3"/>
    <path id="Trazado_1845" data-name="Trazado 1845" d="M197.5,102.943h9.133a.579.579,0,1,0,0-1.158H197.5a.579.579,0,0,0,0,1.158Zm0,0" transform="translate(-180.168 -93.44)" fill="#ef8b44" stroke="#ef8b44" stroke-width="0.3"/>
    <path id="Trazado_1846" data-name="Trazado 1846" d="M197.5,139.814h11.014a.579.579,0,0,0,0-1.158H197.5a.579.579,0,0,0,0,1.158Zm0,0" transform="translate(-179.962 -127.288)" fill="#ef8b44" stroke="#ef8b44" stroke-width="0.3"/>
    <path id="Trazado_1847" data-name="Trazado 1847" d="M197.5,212.6h12.617a.579.579,0,0,0,0-1.158H197.5a.579.579,0,0,0,0,1.158Zm0,0" transform="translate(-179.067 -194.109)" fill="#ef8b44" stroke="#ef8b44" stroke-width="0.3"/>
    <path id="Trazado_1848" data-name="Trazado 1848" d="M197.5,249.47h9.133a.579.579,0,1,0,0-1.158H197.5a.579.579,0,0,0,0,1.158Zm0,0" transform="translate(-180.168 -227.953)" fill="#ef8b44" stroke="#ef8b44" stroke-width="0.3"/>
    <path id="Trazado_1849" data-name="Trazado 1849" d="M197.5,286.341h11.014a.579.579,0,0,0,0-1.158H197.5a.579.579,0,0,0,0,1.158Zm0,0" transform="translate(-179.962 -261.801)" fill="#ef8b44" stroke="#ef8b44" stroke-width="0.3"/>
    <path id="Trazado_1850" data-name="Trazado 1850" d="M54.28,343.418a4.393,4.393,0,1,0,4.393,4.393A4.4,4.4,0,0,0,54.28,343.418Zm0,7.628a3.235,3.235,0,1,1,3.235-3.235A3.239,3.239,0,0,1,54.28,351.046Zm0,0" transform="translate(-46.224 -314.065)" fill="#ef8b44" stroke="#ef8b44" stroke-width="0.3"/>
    <path id="Trazado_1851" data-name="Trazado 1851" d="M197.5,359.13h12.617a.579.579,0,0,0,0-1.158H197.5a.579.579,0,0,0,0,1.158Zm0,0" transform="translate(-179.067 -328.622)" fill="#ef8b44" stroke="#ef8b44" stroke-width="0.3"/>
    <path id="Trazado_1852" data-name="Trazado 1852" d="M197.5,396h9.133a.579.579,0,1,0,0-1.157H197.5a.579.579,0,0,0,0,1.157Zm0,0" transform="translate(-180.168 -362.47)" fill="#ef8b44" stroke="#ef8b44" stroke-width="0.3"/>
    <path id="Trazado_1853" data-name="Trazado 1853" d="M197.5,432.869h11.014a.579.579,0,0,0,0-1.158H197.5a.579.579,0,0,0,0,1.158Zm0,0" transform="translate(-179.962 -395.809)" fill="#ef8b44" stroke="#ef8b44" stroke-width="0.3"/>
    <path id="Trazado_1854" data-name="Trazado 1854" d="M53.482,197.653a.579.579,0,0,0-.819.818l1.428,1.428a.579.579,0,0,0,.819,0l2.987-2.986.008-.008,1.983-1.983a.579.579,0,1,0-.819-.818l-1.514,1.514a4.394,4.394,0,1,0,1.118,2.929.579.579,0,1,0-1.158,0,3.237,3.237,0,1,1-.781-2.107L54.5,198.672Zm0,0" transform="translate(-46.224 -177.622)" fill="#ef8b44" stroke="#ef8b44" stroke-width="0.3"/>
  </g>
</svg>
