<svg xmlns="http://www.w3.org/2000/svg" width="85" height="89.183" viewBox="0 0 85 89.183">
  <g id="Grupo_1274" data-name="Grupo 1274" transform="translate(129 -537.322)">
    <g id="Grupo_1263" data-name="Grupo 1263" transform="translate(-112.632 537.322)">
      <g id="Grupo_1262" data-name="Grupo 1262">
        <path id="Trazado_1899" data-name="Trazado 1899" d="M-69.635,569.254-81.426,539.28a3.136,3.136,0,0,0-4.12-1.7l-29.975,11.791a3.088,3.088,0,0,0-1.7,4.12l11.791,29.975a3.088,3.088,0,0,0,4.12,1.7l29.833-11.791A3.2,3.2,0,0,0-69.635,569.254Zm-32.532,12.359-11.507-29.122,29.122-11.507,11.507,29.122Z" transform="translate(117.478 -537.322)" fill="#7dc7c5"/>
      </g>
    </g>
    <g id="Grupo_1265" data-name="Grupo 1265" transform="translate(-129 588.148)">
      <g id="Grupo_1264" data-name="Grupo 1264">
        <path id="Trazado_1900" data-name="Trazado 1900" d="M-93.769,573.1h-32.105A3.153,3.153,0,0,0-129,576.225v32.106a3.153,3.153,0,0,0,3.125,3.125h32.105a3.153,3.153,0,0,0,3.125-3.125V576.225A3.153,3.153,0,0,0-93.769,573.1Zm-.426,34.8h-31.253V576.651H-94.2Z" transform="translate(129 -573.1)" fill="#7dc7c5"/>
      </g>
    </g>
    <g id="Grupo_1267" data-name="Grupo 1267" transform="translate(-89.464 579.526)">
      <g id="Grupo_1266" data-name="Grupo 1266">
        <path id="Trazado_1901" data-name="Trazado 1901" d="M-58.027,575.369-89,567.129a3.132,3.132,0,0,0-3.836,2.273l-8.239,30.969a3.132,3.132,0,0,0,2.273,3.836h0l30.969,8.239a3.132,3.132,0,0,0,3.836-2.273h0l8.239-31.111A3.479,3.479,0,0,0-58.027,575.369ZM-67.4,608.895l-30.259-7.955,8.1-30.259,30.259,8.1Z" transform="translate(101.169 -567.031)" fill="#7dc7c5"/>
      </g>
    </g>
    <g id="Grupo_1269" data-name="Grupo 1269" transform="translate(-93.911 551.781)">
      <g id="Grupo_1268" data-name="Grupo 1268">
        <path id="Trazado_1902" data-name="Trazado 1902" d="M-88.389,560.569a4.442,4.442,0,0,0-1.279-1.563l-8.808-9.234-.994-1.137a3.767,3.767,0,0,0-.852-.71c-.284-.284-.71-.284-.994-.426a3.116,3.116,0,0,0-2.415.994,1.535,1.535,0,0,0-.426.994,3.933,3.933,0,0,0-.142,1.279v14.064a3.152,3.152,0,0,0,.142,1.279,1.064,1.064,0,0,0,.142.71,1.5,1.5,0,0,0,.994.852,1.971,1.971,0,0,0,1.279,0,1.5,1.5,0,0,0,.994-.852,10.751,10.751,0,0,0,.142-2.131v-2.557l6.961-2.7,1.7,1.7.71.71a2.492,2.492,0,0,0,.71.568,1.065,1.065,0,0,0,.71.142,1.065,1.065,0,0,0,.71-.142,1.909,1.909,0,0,0,.994-.852C-88.247,561.422-88.247,561-88.389,560.569Zm-12.643-1.279-.284-7.955,5.4,5.966Z" transform="translate(104.3 -547.5)" fill="#7dc7c5"/>
      </g>
    </g>
    <g id="Grupo_1271" data-name="Grupo 1271" transform="translate(-116.925 597.382)">
      <g id="Grupo_1270" data-name="Grupo 1270">
        <path id="Trazado_1903" data-name="Trazado 1903" d="M-108.993,588.123a3.961,3.961,0,0,0,2.7-3.978,6.04,6.04,0,0,0-.284-1.563,3.725,3.725,0,0,0-.71-1.279,3.828,3.828,0,0,0-1.136-.995,4.039,4.039,0,0,0-1.7-.568,12.212,12.212,0,0,0-2.273-.142h-5.824a2.48,2.48,0,0,0-1.7.568,2.48,2.48,0,0,0-.568,1.7v13.78a2.48,2.48,0,0,0,.568,1.7,2.619,2.619,0,0,0,1.847.568h5.682a12.508,12.508,0,0,0,2.415-.284c.71-.142,1.279-.284,1.989-.426a6.292,6.292,0,0,0,2.131-1.7,5.122,5.122,0,0,0,.852-2.841A5.154,5.154,0,0,0-108.993,588.123Zm-7.813-5.824h2.983a10.814,10.814,0,0,1,2.983.426,1.723,1.723,0,0,1,.994,1.7,2.677,2.677,0,0,1-.284,1.137,2.527,2.527,0,0,1-1.136.994,10.968,10.968,0,0,1-2.131.284h-3.409Zm7.671,10.086c0,1.847-1.279,2.7-3.836,2.7h-3.978l.142-5.4h3.836a7.419,7.419,0,0,1,2.983.568A2.438,2.438,0,0,1-109.135,592.385Z" transform="translate(120.5 -579.6)" fill="#7dc7c5"/>
      </g>
    </g>
    <g id="Grupo_1273" data-name="Grupo 1273" transform="translate(-75.159 592.212)">
      <g id="Grupo_1272" data-name="Grupo 1272">
        <path id="Trazado_1904" data-name="Trazado 1904" d="M-73.911,580.847a6.052,6.052,0,0,0-2.131-2.841,8.262,8.262,0,0,0-3.551-1.7,9.779,9.779,0,0,0-3.551-.284,8.965,8.965,0,0,0-3.267,1.136,8.26,8.26,0,0,0-2.557,2.415,17.434,17.434,0,0,0-1.7,3.694,8.045,8.045,0,0,0-.426,2.557,13.782,13.782,0,0,0,.142,2.415,12.5,12.5,0,0,0,.71,2.131,9.527,9.527,0,0,0,1.279,1.989,9.117,9.117,0,0,0,1.847,1.421,17.343,17.343,0,0,0,2.415.995,9.266,9.266,0,0,0,3.409.284,6.229,6.229,0,0,0,2.7-.994,6.055,6.055,0,0,0,1.7-1.563,4.8,4.8,0,0,0,.852-1.7,2.006,2.006,0,0,0-.142-1.279,1.644,1.644,0,0,0-.994-.71,1.381,1.381,0,0,0-1.279.142,6.18,6.18,0,0,0-.852.994,3.921,3.921,0,0,1-2.273,1.7,4.836,4.836,0,0,1-2.841,0,4.923,4.923,0,0,1-2.273-1.136,5.405,5.405,0,0,1-1.136-2.415,10.039,10.039,0,0,1,.284-3.552,8.132,8.132,0,0,1,2.557-4.546,4.4,4.4,0,0,1,3.978-.71,3.368,3.368,0,0,1,2.131,1.279,5.406,5.406,0,0,1,1.136,2.415l.426,1.279a1.438,1.438,0,0,0,.994.568,1.509,1.509,0,0,0,1.136-.142,1.644,1.644,0,0,0,.71-.994A2.494,2.494,0,0,0-73.911,580.847Z" transform="translate(91.1 -575.961)" fill="#7dc7c5"/>
      </g>
    </g>
  </g>
</svg>
