<svg xmlns="http://www.w3.org/2000/svg" width="95.336" height="118.083" viewBox="0 0 95.336 118.083">
  <g id="Grupo_1486" data-name="Grupo 1486" transform="translate(205.109 -768.348)">
    <path id="Trazado_1880" data-name="Trazado 1880" d="M-154.649,773.437c-9.062.533-17.413,9.24-17.591,17.058C-163.711,789.784-155.537,781.966-154.649,773.437Zm5.686,0c-.711,7.64,10.128,18.657,17.413,17.768C-132.438,782.144-140.079,774.325-148.963,773.437Zm-23.632,21.5c.178,10.839,9.773,19.9,20.789,19.723,12.26-.178,20.078-9.95,20.434-18.835a24.636,24.636,0,0,1-12.438-4.975,26.237,26.237,0,0,1-8.173-10.839,26.493,26.493,0,0,1-8.351,10.306A25.9,25.9,0,0,1-172.595,794.937Zm-4.62,0c-8.884.178-17.591,8.707-18.3,18.479h9.062V817.5h-13.326c-.355-6.93,1.421-12.971,5.864-18.124,4.442-5.331,10.306-8,17.235-8.707,1.244-7.285,4.62-13.149,10.661-17.235a24.244,24.244,0,0,1,16.7-4.265,24.674,24.674,0,0,1,22.388,25.409,24.618,24.618,0,0,1-21.855,24.165C-162.822,820.346-175.793,810.751-177.215,794.937Z" transform="translate(3.579 0)" fill="#7dc7c5" stroke="#7dc7c5" stroke-miterlimit="10" stroke-width="1.305"/>
    <path id="Trazado_1881" data-name="Trazado 1881" d="M-186.784,832.925c-1.6.533-3.021.888-4.442,1.421a12.29,12.29,0,0,0-9.062,11.194c-.711,5.153,1.6,9.417,5.864,12.26a12.609,12.609,0,0,0,14.037.178c9.417-5.508,18.657-11.194,28.074-16.88l1.6-1.066c-5.864-4.8-7.285-8-7.818-16.525-8.173,2.665-16.169,5.33-24.165,8,1.421,5.331,4.442,9.417,7.64,13.149l-2.665,3.2A36.763,36.763,0,0,1-186.784,832.925Zm-1.066-4.087c-1.777-12.438,1.421-23.1,10.306-32.339.888,1.066,1.6,2.132,2.488,3.376a32.35,32.35,0,0,0-7.463,12.438c-1.421,4.975-2.132,9.773-1.066,15.1a18.206,18.206,0,0,1,2.488-.711c7.818-2.665,15.636-5.153,23.632-7.818a3.379,3.379,0,0,1,2.31.178c.888.711,2.132,1.422,1.6,3.2-1.6,6.4,1.066,12.082,6.93,15.1,1.6.888,1.244,2.132,1.421,3.376a2.708,2.708,0,0,1-1.066,1.777c-10.839,6.574-21.678,13.326-32.694,19.723-9.417,5.33-22.921,0-25.231-12.616-1.421-8.173,3.731-17.235,12.083-19.19C-190.871,830.082-189.272,829.372-187.85,828.839Z" transform="translate(0 21.358)" fill="#7dc7c5" stroke="#7dc7c5" stroke-miterlimit="10" stroke-width="1.305"/>
    <path id="Trazado_1882" data-name="Trazado 1882" d="M-157.463,805.742a13.119,13.119,0,0,0-13.149,13.149,13.157,13.157,0,0,0,13.326,13.149,13.387,13.387,0,0,0,13.149-13.326A13.011,13.011,0,0,0-157.463,805.742Zm-.178,30.384A17.369,17.369,0,0,1-174.7,818.713,17.634,17.634,0,0,1-156.93,801.3c9.417,0,17.413,8.174,17.235,17.413A17.666,17.666,0,0,1-157.641,836.126Z" transform="translate(23.096 25.087)" fill="#7dc7c5" stroke="#7dc7c5" stroke-miterlimit="10" stroke-width="1.305"/>
    <path id="Trazado_1883" data-name="Trazado 1883" d="M-156.335,847.7c-.888-1.066-1.777-1.954-2.665-2.843,12.26-15.1,12.26-30.206,0-45.487l2.665-2.665C-143.364,808.427-141.054,832.414-156.335,847.7Z" transform="translate(35.294 21.514)" fill="#7dc7c5" stroke="#7dc7c5" stroke-miterlimit="10" stroke-width="1.305"/>
  </g>
</svg>
