<svg xmlns="http://www.w3.org/2000/svg" width="95.29" height="77.24" viewBox="0 0 95.29 77.24">
  <g id="Grupo_1341" data-name="Grupo 1341" transform="translate(994.4 -159.7)">
    <path id="Trazado_1924" data-name="Trazado 1924" d="M-932.608,209.767h-17.4a4.6,4.6,0,0,0,.65-2.927,6.021,6.021,0,0,0-1.951-4.065l-15.611-13.822a5.827,5.827,0,0,0-3.9-1.464H-979.6v-1.626a1.458,1.458,0,0,0-1.464-1.464h-11.87a1.458,1.458,0,0,0-1.464,1.464v11.871a1.457,1.457,0,0,0,1.464,1.464,1.457,1.457,0,0,0,1.464-1.464V187.327h9.106V208.3h-9.106v-4.065a1.457,1.457,0,0,0-1.464-1.464,1.458,1.458,0,0,0-1.464,1.464V209.6a1.457,1.457,0,0,0,1.464,1.464h11.87A1.457,1.457,0,0,0-979.6,209.6v-1.626h1.138l14.635,11.871a6.141,6.141,0,0,0,3.9,1.464h4.065a1.457,1.457,0,0,0,1.464-1.464,1.457,1.457,0,0,0-1.464-1.464h-4.065a3.885,3.885,0,0,1-2.276-.813l-14.96-12.2c-.325-.163-.488-.325-.813-.325H-979.6v-14.8h8.781a3.425,3.425,0,0,1,2.114.813l15.611,13.822a2.541,2.541,0,0,1,.976,1.951,3.424,3.424,0,0,1-.813,2.114,2.761,2.761,0,0,1-3.74.163l-8.456-7.48a1.328,1.328,0,0,0-1.951.163,1.328,1.328,0,0,0,.163,1.951l8.456,7.48a5.121,5.121,0,0,0,4.228,1.3h21.627a1.911,1.911,0,0,1,1.789,1.626,4.442,4.442,0,0,1-1.3,3.09,4.442,4.442,0,0,1-3.09,1.3h-14.147a1.457,1.457,0,0,0-1.464,1.464,1.457,1.457,0,0,0,1.464,1.464h14.147a7.134,7.134,0,0,0,5.041-2.114,7.434,7.434,0,0,0,2.114-5.041,4.545,4.545,0,0,0-4.553-4.553Z" transform="translate(0 15.465)" fill="#7dc7c5"/>
    <path id="Trazado_1925" data-name="Trazado 1925" d="M-918.2,167.993a1.457,1.457,0,0,0,1.464-1.464v-5.366A1.457,1.457,0,0,0-918.2,159.7h-11.871a1.457,1.457,0,0,0-1.464,1.464v4.878h-23.253A11.763,11.763,0,0,0-966.5,177.75v12.521a1.457,1.457,0,0,0,1.464,1.463h11.057a1.457,1.457,0,0,0,1.463-1.463V179.864h9.106a1.457,1.457,0,0,0,1.464-1.464,1.457,1.457,0,0,0-1.464-1.464h-10.57a1.457,1.457,0,0,0-1.464,1.464v4.878h-8.293v-5.2a8.918,8.918,0,0,1,8.944-8.944h23.416v8.293h-5.691a1.457,1.457,0,0,0-1.464,1.464,1.457,1.457,0,0,0,1.464,1.464h5.691v4.878a1.457,1.457,0,0,0,1.464,1.464h11.871a1.457,1.457,0,0,0,1.464-1.464V173.2a1.457,1.457,0,0,0-1.464-1.464,1.457,1.457,0,0,0-1.464,1.464v10.57h-9.106V162.79h9.106v3.9a1.283,1.283,0,0,0,1.3,1.3Zm-37.238,18.375v2.764h-8.293v-2.764Z" transform="translate(17.469)" fill="#7dc7c5"/>
    <path id="Trazado_1926" data-name="Trazado 1926" d="M-958.094,188.843c0-1.951-2.6-5.854-3.415-6.992a1.646,1.646,0,0,0-1.138-.65,1.227,1.227,0,0,0-1.138.65c-.813,1.138-3.415,4.878-3.415,6.992a4.545,4.545,0,0,0,4.553,4.553A4.446,4.446,0,0,0-958.094,188.843Zm-4.553,1.789a1.8,1.8,0,0,1-1.789-1.789,13.656,13.656,0,0,1,1.789-3.577,13.654,13.654,0,0,1,1.789,3.577A1.8,1.8,0,0,1-962.647,190.631Z" transform="translate(17.03 13.461)" fill="#7dc7c5"/>
    <path id="Trazado_1927" data-name="Trazado 1927" d="M-956.947,200.2a4.545,4.545,0,0,0,4.553-4.553c0-1.951-2.6-5.854-3.415-6.992a1.646,1.646,0,0,0-1.138-.65,1.228,1.228,0,0,0-1.138.65c-.813,1.138-3.415,4.878-3.415,6.992A4.653,4.653,0,0,0-956.947,200.2Zm0-8.131a13.652,13.652,0,0,1,1.789,3.577,1.8,1.8,0,0,1-1.789,1.789,1.8,1.8,0,0,1-1.789-1.789A13.652,13.652,0,0,1-956.947,192.065Z" transform="translate(20.599 17.719)" fill="#7dc7c5"/>
    <path id="Trazado_1928" data-name="Trazado 1928" d="M-958.136,188.192a1.457,1.457,0,0,0,1.464-1.464v-4.065a1.457,1.457,0,0,0-1.464-1.464,1.457,1.457,0,0,0-1.464,1.464v4.065C-959.437,187.542-958.95,188.192-958.136,188.192Z" transform="translate(21.789 13.461)" fill="#7dc7c5"/>
    <path id="Trazado_1929" data-name="Trazado 1929" d="M-964.536,190.6A1.457,1.457,0,0,0-966,192.063v4.065a1.457,1.457,0,0,0,1.464,1.464,1.457,1.457,0,0,0,1.464-1.464v-4.065A1.457,1.457,0,0,0-964.536,190.6Z" transform="translate(17.782 19.347)" fill="#7dc7c5"/>
    <path id="Trazado_1930" data-name="Trazado 1930" d="M-970.35,195.625h.325a1.237,1.237,0,0,0,1.3-.976l3.415-11.545a1.474,1.474,0,0,0-.976-1.789,1.474,1.474,0,0,0-1.789.976l-3.415,11.545a1.583,1.583,0,0,0,1.138,1.789Z" transform="translate(14.326 13.508)" fill="#7dc7c5"/>
    <path id="Trazado_1931" data-name="Trazado 1931" d="M-953.42,182.291a1.4,1.4,0,0,0-1.789-.976,1.4,1.4,0,0,0-.976,1.789l6.83,22.928a1.363,1.363,0,0,0,1.3.976h.325a1.4,1.4,0,0,0,.976-1.789Z" transform="translate(23.902 13.508)" fill="#7dc7c5"/>
  </g>
</svg>
