<svg xmlns="http://www.w3.org/2000/svg" width="81.424" height="75.063" viewBox="0 0 81.424 75.063">
  <g id="XMLID_2374_" transform="translate(0 -20)">
    <g id="XMLID_707_" transform="translate(0 20)">
      <g id="XMLID_708_">
        <path id="XMLID_713_" d="M76.653,33.995H74.427V31.768A4.776,4.776,0,0,0,69.656,27H65.839V25.089a5.089,5.089,0,0,0-10.178,0V27H42.3V25.089a5.089,5.089,0,0,0-10.178,0V27H18.766V25.089a5.089,5.089,0,0,0-10.178,0V27H4.771A4.776,4.776,0,0,0,0,31.768V83.295a4.776,4.776,0,0,0,4.771,4.771H7v2.226a4.776,4.776,0,0,0,4.771,4.771H76.653a4.776,4.776,0,0,0,4.771-4.771V38.766A4.776,4.776,0,0,0,76.653,33.995ZM58.842,25.089a1.908,1.908,0,1,1,3.817,0v7a1.908,1.908,0,1,1-3.817,0Zm-23.537,0a1.908,1.908,0,0,1,3.817,0v7a1.908,1.908,0,1,1-3.817,0Zm-23.537,0a1.908,1.908,0,0,1,3.817,0v7a1.908,1.908,0,0,1-3.817,0Zm-7,5.089H8.588v1.908a5.089,5.089,0,0,0,10.178,0V30.178H32.124v1.908a5.089,5.089,0,0,0,10.178,0V30.178H55.661v1.908a5.089,5.089,0,0,0,10.178,0V30.178h3.817a1.592,1.592,0,0,1,1.59,1.59V46.081H3.181V31.768A1.592,1.592,0,0,1,4.771,30.178ZM78.244,90.292a1.592,1.592,0,0,1-1.59,1.59H11.768a1.592,1.592,0,0,1-1.59-1.59V88.066H30.057a1.59,1.59,0,1,0,0-3.181H4.771a1.592,1.592,0,0,1-1.59-1.59V49.262H71.246V83.295a1.592,1.592,0,0,1-1.59,1.59H44.37a1.59,1.59,0,1,0,0,3.181H69.656a4.776,4.776,0,0,0,4.771-4.771V37.175h2.226a1.592,1.592,0,0,1,1.59,1.59Z" transform="translate(0 -20)" fill="#7dc7c5"/>
        <path id="XMLID_710_" d="M174.538,265.061a1.59,1.59,0,0,0,2.307-1.677l-1.13-6.59,4.788-4.667a1.59,1.59,0,0,0-.881-2.713l-6.617-.961-2.959-6a1.59,1.59,0,0,0-2.852,0l-2.959,6-6.617.961a1.59,1.59,0,0,0-.881,2.713l4.788,4.667-1.13,6.59a1.59,1.59,0,0,0,2.307,1.677l5.918-3.111Zm-10.464-4.315.727-4.238a1.59,1.59,0,0,0-.457-1.408l-3.079-3,4.255-.618a1.591,1.591,0,0,0,1.2-.87l1.9-3.856,1.9,3.856a1.591,1.591,0,0,0,1.2.87l4.255.618-3.079,3a1.59,1.59,0,0,0-.457,1.408l.727,4.238-3.806-2a1.59,1.59,0,0,0-1.48,0Z" transform="translate(-131.407 -206.334)" fill="#7dc7c5"/>
        <path id="XMLID_709_" d="M225.59,428a1.591,1.591,0,1,0,1.124.466A1.6,1.6,0,0,0,225.59,428Z" transform="translate(-188.377 -363.115)" fill="#7dc7c5"/>
      </g>
    </g>
  </g>
</svg>
