<svg xmlns="http://www.w3.org/2000/svg" width="65.257" height="116.987" viewBox="0 0 65.257 116.987">
  <g id="vitamins" transform="translate(-113.435 0.25)">
    <g id="Grupo_1248" data-name="Grupo 1248" transform="translate(113.685 0)">
      <path id="Trazado_1892" data-name="Trazado 1892" d="M176.326,43.894,174.2,40.749a1.705,1.705,0,1,0-2.824,1.913l2.131,3.145a8.851,8.851,0,0,1,1.529,4.983v5.616H117.1V50.79a8.851,8.851,0,0,1,1.529-4.983l8.352-12.327h38.174l1.777,2.622a1.705,1.705,0,0,0,2.824-1.913l-1.993-2.941v-6.8h1.971a3.634,3.634,0,0,0,3.63-3.63V3.63A3.634,3.634,0,0,0,169.729,0H122.4a3.634,3.634,0,0,0-3.63,3.63V20.822a3.634,3.634,0,0,0,3.63,3.63h1.971v6.8L115.8,43.894a12.248,12.248,0,0,0-2.116,6.9v56.63a9.078,9.078,0,0,0,9.068,9.068h46.621a9.078,9.078,0,0,0,9.068-9.068V50.79A12.247,12.247,0,0,0,176.326,43.894ZM164.348,30.069H127.78V24.452h36.568ZM122.4,21.041a.22.22,0,0,1-.219-.219V3.63a.22.22,0,0,1,.219-.219h47.331a.22.22,0,0,1,.219.219V20.822a.22.22,0,0,1-.219.219H122.4Zm52.633,73.336h-37.4a1.705,1.705,0,1,0,0,3.411h37.4v9.631a5.663,5.663,0,0,1-5.657,5.657H122.753a5.663,5.663,0,0,1-5.657-5.657V97.788h12.833a1.705,1.705,0,0,0,0-3.411H117.1V59.817h57.936v34.56Z" transform="translate(-113.685 0)" fill="#7dc7c5" stroke="#7dc7c5" stroke-width="0.5"/>
      <path id="Trazado_1893" data-name="Trazado 1893" d="M179.292,42.018A1.705,1.705,0,0,0,181,40.313V33.937a1.705,1.705,0,1,0-3.411,0v6.375A1.706,1.706,0,0,0,179.292,42.018Z" transform="translate(-163.048 -24.899)" fill="#7dc7c5" stroke="#7dc7c5" stroke-width="0.5"/>
      <path id="Trazado_1894" data-name="Trazado 1894" d="M214.751,42.018a1.705,1.705,0,0,0,1.705-1.705V33.937a1.705,1.705,0,0,0-3.411,0v6.375A1.705,1.705,0,0,0,214.751,42.018Z" transform="translate(-190.44 -24.899)" fill="#7dc7c5" stroke="#7dc7c5" stroke-width="0.5"/>
      <path id="Trazado_1895" data-name="Trazado 1895" d="M250.209,42.018a1.705,1.705,0,0,0,1.705-1.705V33.937a1.705,1.705,0,0,0-3.411,0v6.375A1.706,1.706,0,0,0,250.209,42.018Z" transform="translate(-217.831 -24.899)" fill="#7dc7c5" stroke="#7dc7c5" stroke-width="0.5"/>
      <path id="Trazado_1896" data-name="Trazado 1896" d="M285.667,42.018a1.705,1.705,0,0,0,1.705-1.705V33.937a1.705,1.705,0,0,0-3.411,0v6.375A1.706,1.706,0,0,0,285.667,42.018Z" transform="translate(-245.221 -24.899)" fill="#7dc7c5" stroke="#7dc7c5" stroke-width="0.5"/>
      <path id="Trazado_1897" data-name="Trazado 1897" d="M321.126,42.018a1.705,1.705,0,0,0,1.705-1.705V33.937a1.705,1.705,0,0,0-3.411,0v6.375A1.705,1.705,0,0,0,321.126,42.018Z" transform="translate(-272.613 -24.899)" fill="#7dc7c5" stroke="#7dc7c5" stroke-width="0.5"/>
    </g>
  </g>
</svg>
