<svg id="video" xmlns="http://www.w3.org/2000/svg" width="35.47" height="41.86" viewBox="0 0 35.47 41.86">
  <path id="Trazado_1835" data-name="Trazado 1835" d="M34.683,16.9H7.826l25.8-7.761a.8.8,0,0,0,.47-.391.845.845,0,0,0,.067-.622l-1.35-4.84A4.433,4.433,0,0,0,28.6,0a4.211,4.211,0,0,0-1.212.179L3.163,7.466A4.386,4.386,0,0,0,.548,9.644,4.674,4.674,0,0,0,.174,13.1l1.319,4.729V37.31a4.473,4.473,0,0,0,4.381,4.55h9.459a.818.818,0,0,0,0-1.635H5.874A2.865,2.865,0,0,1,3.067,37.31V26.184H33.9V37.31a2.865,2.865,0,0,1-2.807,2.915H21.63a.818.818,0,0,0,0,1.635h9.459a4.473,4.473,0,0,0,4.381-4.55v-19.6A.8.8,0,0,0,34.683,16.9ZM20.8,24.549l3.345-6.016H28.5l-3.344,6.016Zm-6.168,0,3.345-6.016h4.35l-3.344,6.016Zm-6.168,0,3.344-6.016h4.35l-3.345,6.016Zm2.927-10.584-5.6-5.587,4.2-1.262a.8.8,0,0,0,.1.126l5.6,5.587-4.2,1.262A.806.806,0,0,0,11.393,13.965ZM21.941,3.676l5.6,5.587-4.2,1.262a.79.79,0,0,0-.1-.126l-5.6-5.587,4.2-1.262A.8.8,0,0,0,21.941,3.676ZM16.016,5.459l5.6,5.587-4.2,1.263a.789.789,0,0,0-.1-.126L11.716,6.6l4.2-1.262A.856.856,0,0,0,16.016,5.459Zm11.8-3.709a2.687,2.687,0,0,1,.774-.115,2.841,2.841,0,0,1,2.7,2.1l1.131,4.054-3.158.95a.824.824,0,0,0-.1-.126l-5.6-5.587ZM1.927,10.432A2.809,2.809,0,0,1,3.6,9.037L4.063,8.9a.824.824,0,0,0,.1.126l5.6,5.587L2.817,16.7,1.686,12.648A2.993,2.993,0,0,1,1.927,10.432Zm1.14,8.1H9.992L6.648,24.549H3.067Zm23.9,6.016,3.344-6.016H33.9v6.016Zm0,0" transform="translate(0)" fill="#ef8b44" fill-rule="evenodd"/>
  <path id="Trazado_1836" data-name="Trazado 1836" d="M204.434,349.1a.776.776,0,0,0-.388-.672L197.23,344.5a.776.776,0,0,0-1.164.672v7.871a.775.775,0,0,0,1.164.672l6.816-3.935A.776.776,0,0,0,204.434,349.1Zm-6.816,2.592v-5.183l4.489,2.592Zm0,0" transform="translate(-180.562 -315.536)" fill="#ef8b44" fill-rule="evenodd"/>
  <path id="Trazado_1837" data-name="Trazado 1837" d="M225.549,492a.776.776,0,1,0,.776.776A.777.777,0,0,0,225.549,492Zm0,0" transform="translate(-207.068 -451.692)" fill="#ef8b44" fill-rule="evenodd"/>
</svg>
