<svg xmlns="http://www.w3.org/2000/svg" width="54.877" height="54.877" viewBox="0 0 54.877 54.877">
  <g id="Grupo_356" data-name="Grupo 356" transform="translate(0 0)">
    <g id="Grupo_343" data-name="Grupo 343" transform="translate(5.788 0)">
      <g id="Grupo_342" data-name="Grupo 342" transform="translate(0 0)">
        <path id="Trazado_656" data-name="Trazado 656" d="M102.548.141a1.072,1.072,0,0,0-1.077.008L81.83,11.764a1.072,1.072,0,0,0,1.091,1.845L97.014,5.275,70.764,32.512,57.708,28.518,74.747,18.443A1.072,1.072,0,0,0,73.656,16.6L54.526,27.909a1.072,1.072,0,0,0,.232,1.948l15.592,4.77,6.879,12.52a.253.253,0,0,0,.022.034,1.069,1.069,0,0,0,1.666.217l7.909-7.73L101.7,44.219a1.072,1.072,0,0,0,1.385-1.025V1.072A1.072,1.072,0,0,0,102.548.141ZM77.287,35.287a1.072,1.072,0,0,0-.191.61v6.556L72.4,33.9,93.184,12.339Zm1.953,8.8V37.347l5.251,1.606Zm21.706-2.339L79.884,35.3,100.945,4.9Z" transform="translate(-53.999 0)" fill="#2e335e"/>
      </g>
    </g>
    <g id="Grupo_345" data-name="Grupo 345" transform="translate(5.788 36.94)">
      <g id="Grupo_344" data-name="Grupo 344">
        <path id="Trazado_657" data-name="Trazado 657" d="M65.835,344.962a1.072,1.072,0,0,0-1.516,0L54.313,354.968a1.072,1.072,0,0,0,1.516,1.516l10.006-10.006A1.072,1.072,0,0,0,65.835,344.962Z" transform="translate(-53.999 -344.648)" fill="#2e335e"/>
      </g>
    </g>
    <g id="Grupo_347" data-name="Grupo 347" transform="translate(0 50.268)">
      <g id="Grupo_346" data-name="Grupo 346">
        <path id="Trazado_658" data-name="Trazado 658" d="M4.3,469.315a1.072,1.072,0,0,0-1.516,0L.314,471.78A1.072,1.072,0,1,0,1.83,473.3L4.3,470.83A1.072,1.072,0,0,0,4.3,469.315Z" transform="translate(0 -469.001)" fill="#2e335e"/>
      </g>
    </g>
    <g id="Grupo_349" data-name="Grupo 349" transform="translate(13.46 52.67)">
      <g id="Grupo_348" data-name="Grupo 348">
        <path id="Trazado_659" data-name="Trazado 659" d="M127.41,491.724a1.071,1.071,0,1,0,.314.758A1.08,1.08,0,0,0,127.41,491.724Z" transform="translate(-125.58 -491.41)" fill="#2e335e"/>
      </g>
    </g>
    <g id="Grupo_351" data-name="Grupo 351" transform="translate(16.135 44.696)">
      <g id="Grupo_350" data-name="Grupo 350">
        <path id="Trazado_660" data-name="Trazado 660" d="M157.664,417.32a1.072,1.072,0,0,0-1.516,0l-5.3,5.3a1.072,1.072,0,1,0,1.516,1.516l5.3-5.3A1.072,1.072,0,0,0,157.664,417.32Z" transform="translate(-150.534 -417.006)" fill="#2e335e"/>
      </g>
    </g>
    <g id="Grupo_353" data-name="Grupo 353" transform="translate(34.412 44.289)">
      <g id="Grupo_352" data-name="Grupo 352">
        <path id="Trazado_661" data-name="Trazado 661" d="M328.2,413.525a1.072,1.072,0,0,0-1.516,0l-5.314,5.314a1.072,1.072,0,1,0,1.516,1.516l5.314-5.314A1.072,1.072,0,0,0,328.2,413.525Z" transform="translate(-321.053 -413.211)" fill="#2e335e"/>
      </g>
    </g>
    <g id="Grupo_355" data-name="Grupo 355" transform="translate(28.557 14.296)">
      <g id="Grupo_354" data-name="Grupo 354">
        <path id="Trazado_662" data-name="Trazado 662" d="M268.26,133.694a1.071,1.071,0,1,0,.314.759A1.08,1.08,0,0,0,268.26,133.694Z" transform="translate(-266.43 -133.38)" fill="#2e335e"/>
      </g>
    </g>
  </g>
</svg>
