<svg xmlns="http://www.w3.org/2000/svg" width="122.045" height="128.328" viewBox="0 0 122.045 128.328">
  <g id="Grupo_108" data-name="Grupo 108" transform="translate(-221.542 -623.219)">
    <path id="Trazado_77" data-name="Trazado 77" d="M206.91-222.373a2.082,2.082,0,0,1-1.925-1.946h-.026a2.086,2.086,0,0,1-2.028,1.956v.01a2.084,2.084,0,0,1,2.022,1.894h.04a2.081,2.081,0,0,1,1.918-1.883Z" transform="translate(215.555 994.719) rotate(-41)" fill="#fff"/>
    <g id="Grupo_107" data-name="Grupo 107">
      <path id="Trazado_70" data-name="Trazado 70" d="M291.722-190.564l-1.051,1.814-1.067-1.8a6.218,6.218,0,0,1-.683-4.765l.217-.8a.847.847,0,0,1,.792-.621l1.413-.006a.809.809,0,0,1,.8.615l.224.794a6.446,6.446,0,0,1-.642,4.77m1.7-5.923a2.161,2.161,0,0,0-2.082-1.624l-1.412.006a2.124,2.124,0,0,0-2.068,1.642l-.217.8a7.773,7.773,0,0,0,.82,5.779l1.6,2.686a.7.7,0,0,0,.62.35.7.7,0,0,0,.616-.356l1.578-2.7a7.57,7.57,0,0,0,.769-5.786Z" transform="translate(179.025 1010.804) rotate(-41)" fill="#fff"/>
      <path id="Trazado_71" data-name="Trazado 71" d="M291.853-230.035a1.978,1.978,0,0,1-1.978,2,1.978,1.978,0,0,1-2-1.978,1.979,1.979,0,0,1,1.978-2,2.006,2.006,0,0,1,1.995,1.978m-5.3.023a3.335,3.335,0,0,0,3.325,3.3,3.334,3.334,0,0,0,3.3-3.325,3.335,3.335,0,0,0-3.325-3.3,3.335,3.335,0,0,0-3.3,3.325" transform="translate(189.745 1022.547) rotate(-41)" fill="#fff"/>
      <path id="Trazado_72" data-name="Trazado 72" d="M289.867-224.8a28.718,28.718,0,0,0,.284-5.828,10.766,10.766,0,0,1,3.115,5.77l.317,1.676Zm-1.757,2.082c0,.088-.088.133-.176.133l-2.649-.165a29.239,29.239,0,0,0-3.929.017l-2.78.189c-.088,0-.177-.043-.177-.132v-.044a28.536,28.536,0,0,1,4.01-22.266l.745-1.151.933,1.408a27.761,27.761,0,0,1,4.023,22.01m-15.187-.42.3-1.679a10.834,10.834,0,0,1,3.109-5.8,32.681,32.681,0,0,0,.29,5.87Zm21.622-1.991a12.3,12.3,0,0,0-4.579-7.4,28.723,28.723,0,0,0-4.779-12.913l-.977-1.409a1.3,1.3,0,0,0-1.062-.569,1.241,1.241,0,0,0-1.057.578l-.789,1.2a29.253,29.253,0,0,0-4.8,13.176,12.1,12.1,0,0,0-4.6,7.436l-.3,1.723a1.307,1.307,0,0,0,.491,1.278,1.2,1.2,0,0,0,.752.262,1.35,1.35,0,0,0,.573-.135l3.437-1.471c.089.353.135.706.225,1.059l.044.088a1.484,1.484,0,0,0,1.461,1.053h.088l2.781-.189a26.505,26.505,0,0,1,3.752-.016l2.649.165a1.518,1.518,0,0,0,1.54-1.155,9.112,9.112,0,0,0,.216-1.06l3.449,1.442a1.358,1.358,0,0,0,.574.13,1.2,1.2,0,0,0,.75-.268,1.307,1.307,0,0,0,.48-1.282Z" transform="translate(199.014 1022.907) rotate(-41)" fill="#fff"/>
      <path id="Trazado_251" data-name="Trazado 251" d="M36.112,0A36.112,36.112,0,1,1,0,36.112,36.112,36.112,0,0,1,36.112,0Z" transform="translate(265.433 745.442) rotate(-86)" fill="none" stroke="#fff" stroke-width="2"/>
      <path id="Trazado_73" data-name="Trazado 73" d="M268.4-134.168a6.29,6.29,0,0,0,6.29-6.29,6.29,6.29,0,0,0-6.29-6.29,6.29,6.29,0,0,0-6.29,6.29A6.29,6.29,0,0,0,268.4-134.168Z" transform="translate(172.435 985.822) rotate(-41)" fill="none" stroke="#fff" stroke-width="2"/>
      <path id="Trazado_74" data-name="Trazado 74" d="M303.371-114.056a5.1,5.1,0,0,0,5.1-5.1,5.1,5.1,0,0,0-5.1-5.1,5.1,5.1,0,0,0-5.1,5.1A5.1,5.1,0,0,0,303.371-114.056Z" transform="translate(153.466 988.868) rotate(-41)" fill="none" stroke="#fff" stroke-width="2"/>
      <path id="Trazado_75" data-name="Trazado 75" d="M295.752-140.233a2.552,2.552,0,0,0,2.552-2.552,2.552,2.552,0,0,0-2.552-2.552,2.552,2.552,0,0,0-2.552,2.552A2.552,2.552,0,0,0,295.752-140.233Z" transform="translate(161.43 994.545) rotate(-41)" fill="none" stroke="#fff" stroke-width="2"/>
      <path id="Trazado_76" data-name="Trazado 76" d="M243.351-245.469a2.082,2.082,0,0,1-1.925-1.946H241.4a2.086,2.086,0,0,1-2.028,1.956v.01a2.084,2.084,0,0,1,2.022,1.894h.039a2.081,2.081,0,0,1,1.918-1.883Z" transform="translate(209.982 1013.372) rotate(-41)" fill="#fff"/>
      <path id="Trazado_78" data-name="Trazado 78" d="M356.849-252.5a2.082,2.082,0,0,1-1.925-1.946H354.9a2.086,2.086,0,0,1-2.028,1.956v.01a2.084,2.084,0,0,1,2.022,1.894h.04a2.081,2.081,0,0,1,1.918-1.883Z" transform="translate(173.412 1049.369) rotate(-41)" fill="#fff"/>
      <path id="Trazado_79" data-name="Trazado 79" d="M351.755-175.647a2.082,2.082,0,0,1-1.925-1.946H349.8a2.086,2.086,0,0,1-2.028,1.956v.01a2.084,2.084,0,0,1,2.022,1.894h.039a2.081,2.081,0,0,1,1.918-1.883Z" transform="translate(152.393 1021.686) rotate(-41)" fill="#fff"/>
      <path id="Trazado_80" data-name="Trazado 80" d="M294.578-285.117a2.082,2.082,0,0,1-1.925-1.946h-.026a2.086,2.086,0,0,1-2.028,1.956v.01a2.084,2.084,0,0,1,2.022,1.894h.04a2.081,2.081,0,0,1,1.918-1.883Z" transform="translate(204.274 1042.041) rotate(-41)" fill="#fff"/>
      <path id="Trazado_81" data-name="Trazado 81" d="M394.491-189.248a1.011,1.011,0,0,0,1.011-1.011,1.011,1.011,0,0,0-1.011-1.011,1.011,1.011,0,0,0-1.011,1.011,1.011,1.011,0,0,0,1.011,1.011" transform="translate(140.877 1039.875) rotate(-41)" fill="#fff"/>
      <path id="Trazado_82" data-name="Trazado 82" d="M330.092-220.622a1.011,1.011,0,0,0,1.011-1.011,1.011,1.011,0,0,0-1.011-1.011,1.011,1.011,0,0,0-1.011,1.011,1.011,1.011,0,0,0,1.011,1.011" transform="translate(172.097 1031.495) rotate(-41)" fill="#fff"/>
      <path id="Trazado_83" data-name="Trazado 83" d="M248.166-189.248a1.011,1.011,0,0,0,1.011-1.011,1.011,1.011,0,0,0-1.011-1.011,1.011,1.011,0,0,0-1.011,1.011,1.011,1.011,0,0,0,1.011,1.011" transform="translate(190.71 996.556) rotate(-41)" fill="#fff"/>
      <path id="Trazado_84" data-name="Trazado 84" d="M215.629-165.87a1.011,1.011,0,0,0,1.011-1.011,1.011,1.011,0,0,0-1.011-1.011,1.011,1.011,0,0,0-1.011,1.011,1.011,1.011,0,0,0,1.011,1.011" transform="translate(194.869 978.962) rotate(-41)" fill="#fff"/>
    </g>
  </g>
</svg>
