<svg xmlns="http://www.w3.org/2000/svg" xmlns:xlink="http://www.w3.org/1999/xlink" width="60" height="60" viewBox="0 0 60 60">
  <defs>
    <filter id="Elipse_178" x="0" y="0" width="60" height="60" filterUnits="userSpaceOnUse">
      <feOffset dy="2" input="SourceAlpha"/>
      <feGaussianBlur stdDeviation="2.5" result="blur"/>
      <feFlood flood-opacity="0.102"/>
      <feComposite operator="in" in2="blur"/>
      <feComposite in="SourceGraphic"/>
    </filter>
  </defs>
  <g id="Grupo_821" data-name="Grupo 821" transform="translate(-178.5 -1085.5)">
    <g transform="matrix(1, 0, 0, 1, 178.5, 1085.5)" filter="url(#Elipse_178)">
      <circle id="Elipse_178-2" data-name="Elipse 178" cx="22.5" cy="22.5" r="22.5" transform="translate(7.5 5.5)" fill="#fff"/>
    </g>
    <g id="Grupo_869" data-name="Grupo 869" transform="translate(-1691.312 -599)">
      <g id="User_Female" data-name="User Female" transform="translate(1887.312 1699)">
        <g id="Outline" transform="translate(0 0)">
          <path id="Trazado_1529" data-name="Trazado 1529" d="M82.494,170.764a3.629,3.629,0,0,0-2.037-1.268l-4.087-.908a.4.4,0,0,1-.315-.392v-1.208a4.825,4.825,0,0,0,2.411-4.175V160.4a.4.4,0,0,0-.8,0v2.411a4.019,4.019,0,0,1-8.037,0V160.4a.4.4,0,1,0-.8,0v2.411a4.825,4.825,0,0,0,2.411,4.175V168.2a.4.4,0,0,1-.315.392l-4.087.908A3.617,3.617,0,0,0,64,173.028v4.253a.4.4,0,0,0,.8,0v-.4h2.411v.4a.4.4,0,0,0,.8,0v-2.411a.4.4,0,1,0-.8,0v1.206H64.8v-3.047a2.8,2.8,0,0,1,2.2-2.746l3.423-.761v.526A3.079,3.079,0,0,0,72,172.361a9.27,9.27,0,0,0,1.478.865l.164.074.164-.074a9.276,9.276,0,0,0,1.478-.865,3.079,3.079,0,0,0,1.573-2.315v-.526l3.423.761a2.8,2.8,0,0,1,2.2,2.746v3.047H80.075v-1.206a.4.4,0,1,0-.8,0v2.411a.4.4,0,1,0,.8,0v-.4h2.411v.4a.4.4,0,0,0,.8,0v-4.253A3.629,3.629,0,0,0,82.494,170.764Zm-6.438-.718c0,.985-1.61,1.977-2.411,2.369-.771-.38-2.411-1.39-2.411-2.369v-.715a1.2,1.2,0,0,0,.8-1.136v-.837a4.822,4.822,0,0,0,3.215,0v.837a1.2,1.2,0,0,0,.8,1.136Z" transform="translate(-64 -151.963)" fill="#ef8b44" stroke="#ef8b44" stroke-width="0.3"/>
          <path id="Trazado_1530" data-name="Trazado 1530" d="M160.77,28.572A.4.4,0,0,0,161,28.5l.007,0h0a.4.4,0,1,0-.238.078Z" transform="translate(-155.527 -26.373)" fill="#ef8b44" stroke="#ef8b44" stroke-width="0.3"/>
          <path id="Trazado_1531" data-name="Trazado 1531" d="M98.009,62.461h2.033a.4.4,0,1,0,0-.8H98.009A1.21,1.21,0,0,1,96.8,60.452V54.424a7.213,7.213,0,0,1,1.921-4.909.4.4,0,0,0-.59-.546A8.011,8.011,0,0,0,96,54.424v6.028A2.01,2.01,0,0,0,98.009,62.461Z" transform="translate(-94.392 -46.386)" fill="#ef8b44" stroke="#ef8b44" stroke-width="0.3"/>
          <path id="Trazado_1532" data-name="Trazado 1532" d="M188.636,1.416a.4.4,0,0,0,.158-.033,7.236,7.236,0,0,1,10.077,6.653.428.428,0,1,0,.8,0A8.031,8.031,0,0,0,191.638,0h0A8.1,8.1,0,0,0,190,.166a8,8,0,0,0-1.523.478.4.4,0,0,0,.158.772Z" transform="translate(-181.993 0)" fill="#ef8b44" stroke="#ef8b44" stroke-width="0.3"/>
          <path id="Trazado_1533" data-name="Trazado 1533" d="M144,96.4v1.206a.8.8,0,0,0,.8.8h9.645a.8.8,0,0,0,.8-.8V96.4a.4.4,0,0,0-.8,0v1.206H144.8V96.4a.4.4,0,0,0-.8,0Z" transform="translate(-139.981 -91.178)" fill="#ef8b44" stroke="#ef8b44" stroke-width="0.3"/>
          <path id="Trazado_1534" data-name="Trazado 1534" d="M248.773,440.251a.4.4,0,0,0-.037-.069.42.42,0,0,0-.05-.061.4.4,0,0,0-.363-.109.4.4,0,0,0-.075.023.4.4,0,0,0-.069.037.394.394,0,0,0-.061.05.415.415,0,0,0-.05.061.4.4,0,0,0-.037.069.4.4,0,0,0-.023.075.387.387,0,0,0,0,.157.4.4,0,0,0,.023.075.4.4,0,0,0,.037.069.413.413,0,0,0,.05.061.39.39,0,0,0,.061.05.392.392,0,0,0,.145.06.386.386,0,0,0,.157,0,.391.391,0,0,0,.145-.06.386.386,0,0,0,.061-.05.419.419,0,0,0,.05-.061.4.4,0,0,0,.037-.069.4.4,0,0,0,.023-.075.387.387,0,0,0,0-.157A.394.394,0,0,0,248.773,440.251Z" transform="translate(-238.757 -417.899)" fill="#ef8b44" stroke="#ef8b44" stroke-width="0.3"/>
          <path id="Trazado_1535" data-name="Trazado 1535" d="M248.625,472.07a.4.4,0,0,0-.3-.06.393.393,0,0,0-.145.06.38.38,0,0,0-.111.111.39.39,0,0,0-.06.145.387.387,0,0,0,0,.157.4.4,0,0,0,.023.075.4.4,0,0,0,.037.069.414.414,0,0,0,.05.061.389.389,0,0,0,.061.05.393.393,0,0,0,.145.06.388.388,0,0,0,.157,0,.392.392,0,0,0,.145-.06.385.385,0,0,0,.061-.05.42.42,0,0,0,.05-.061.4.4,0,0,0,.037-.069.4.4,0,0,0,.023-.075.376.376,0,0,0,.008-.078.4.4,0,0,0-.118-.284A.42.42,0,0,0,248.625,472.07Z" transform="translate(-238.757 -448.292)" fill="#ef8b44" stroke="#ef8b44" stroke-width="0.3"/>
        </g>
      </g>
      <g id="Grupo_868" data-name="Grupo 868" transform="translate(1902.646 1707.983)">
        <path id="Trazado_1451" data-name="Trazado 1451" d="M-386,2618.433a.8.8,0,0,0,.583-.284l.383,1.281a.4.4,0,0,0,.357.32.4.4,0,0,0,.394-.273l.841-1.9.992,3.307a.4.4,0,0,0,.357.32h.021a.407.407,0,0,0,.375-.271l1.108-2.462a.118.118,0,0,1,.054-.035h1.341a.313.313,0,0,0,.313-.313.313.313,0,0,0-.313-.313h-1.344a.71.71,0,0,0-.622.4l-.862,1.916-.995-3.315a.4.4,0,0,0-.357-.32.4.4,0,0,0-.394.273l-.841,1.9-.323-1.078a.424.424,0,0,0-.343-.322.42.42,0,0,0-.406.2l-.211.268-.009.015a.2.2,0,0,1-.1.056h-3.381v0a.313.313,0,0,0-.26.308.313.313,0,0,0,.26.308v0Z" transform="translate(389.639 -2611.754)" fill="#ef8b44" stroke="#ef8b44" stroke-width="0.2"/>
        <path id="Trazado_1452" data-name="Trazado 1452" d="M-375.993,2598.876a3.65,3.65,0,0,0-2.6-1.076,3.649,3.649,0,0,0-2.6,1.076l-.475.475-.475-.475a3.648,3.648,0,0,0-2.6-1.076,3.648,3.648,0,0,0-2.6,1.076,3.648,3.648,0,0,0-1.075,2.6,3.643,3.643,0,0,0,.535,1.911h.765a3.021,3.021,0,0,1-.674-1.911,3.025,3.025,0,0,1,.892-2.153,3.024,3.024,0,0,1,2.153-.892,3.024,3.024,0,0,1,2.153.892l.918.917.917-.917a3.025,3.025,0,0,1,2.153-.892,3.024,3.024,0,0,1,2.153.892,3.024,3.024,0,0,1,.892,2.153,3.024,3.024,0,0,1-.892,2.153l-5.223,5.224-3.9-3.9h-.886l4.787,4.787,5.667-5.667a3.648,3.648,0,0,0,1.075-2.6,3.649,3.649,0,0,0-1.075-2.6" transform="translate(388.716 -2597.801)" fill="#ef8b44" stroke="#ef8b44" stroke-width="0.2"/>
      </g>
    </g>
  </g>
</svg>
