<svg xmlns="http://www.w3.org/2000/svg" xmlns:xlink="http://www.w3.org/1999/xlink" width="60" height="60" viewBox="0 0 60 60">
  <defs>
    <filter id="Elipse_177" x="0" y="0" width="60" height="60" filterUnits="userSpaceOnUse">
      <feOffset dy="2" input="SourceAlpha"/>
      <feGaussianBlur stdDeviation="2.5" result="blur"/>
      <feFlood flood-opacity="0.102"/>
      <feComposite operator="in" in2="blur"/>
      <feComposite in="SourceGraphic"/>
    </filter>
  </defs>
  <g id="Grupo_817" data-name="Grupo 817" transform="translate(-67.5 -1014.5)">
    <g transform="matrix(1, 0, 0, 1, 67.5, 1014.5)" filter="url(#Elipse_177)">
      <circle id="Elipse_177-2" data-name="Elipse 177" cx="22.5" cy="22.5" r="22.5" transform="translate(7.5 5.5)" fill="#fff"/>
    </g>
    <g id="Grupo_158" data-name="Grupo 158" transform="translate(82.008 1031.998)">
      <path id="Trazado_308" data-name="Trazado 308" d="M201.636,160.793a.448.448,0,0,1-.088-.008.445.445,0,0,1-.161-.067.488.488,0,0,1-.069-.056.464.464,0,0,1-.055-.068.456.456,0,0,1-.041-.077.471.471,0,0,1-.025-.084.44.44,0,0,1-.009-.088.433.433,0,0,1,.009-.087.45.45,0,0,1,.067-.161.474.474,0,0,1,.055-.068.454.454,0,0,1,.4-.122.463.463,0,0,1,.084.026.469.469,0,0,1,.077.041.44.44,0,0,1,.068.055.433.433,0,0,1,.055.068.448.448,0,0,1,.041.077.46.46,0,0,1,.026.084.443.443,0,0,1,.009.087.45.45,0,0,1-.009.088.482.482,0,0,1-.026.084.456.456,0,0,1-.041.077.424.424,0,0,1-.055.068.443.443,0,0,1-.145.1.461.461,0,0,1-.084.026A.443.443,0,0,1,201.636,160.793Z" transform="translate(-188.35 -153.678)" fill="#ef8b44" stroke="#ef8b44" stroke-width="0.2"/>
      <path id="Trazado_309" data-name="Trazado 309" d="M26.453,36.622l-5.359-5.351,0-1.694a6.51,6.51,0,0,0-.052-.827,2.417,2.417,0,0,0-2.122-4.331l-1.649-2.36a1.706,1.706,0,0,0-2.4-.438,1.728,1.728,0,0,0-.485,2.255l-3.2-3.2A1.7,1.7,0,0,0,8.8,20.644a1.667,1.667,0,0,0-.432.726,1.69,1.69,0,0,0-2.114.175,1.649,1.649,0,0,0-.5,1.183,1.742,1.742,0,0,0,.289.974,1.669,1.669,0,0,0-.732.434,1.7,1.7,0,0,0-.118,2.221,1.678,1.678,0,0,0-.7,2.794l.014.013L5.41,30A2.757,2.757,0,0,0,5.7,32.316a3.555,3.555,0,0,0-.964,2.391,3.371,3.371,0,0,0,1.492,2.8,2.756,2.756,0,0,0,5.037,1.54,3.792,3.792,0,0,0,2.792,1.21,3.835,3.835,0,0,0,3.32-1.929l3.685,3.686a.448.448,0,0,0,.633,0l4.754-4.754A.448.448,0,0,0,26.453,36.622Zm-5.1-9.962a1.522,1.522,0,1,1-1.522-1.522A1.524,1.524,0,0,1,21.351,26.66ZM5.942,24.766A.784.784,0,0,1,7,24.717l3.566,3.566a.448.448,0,0,0,.633-.633L6.884,23.332a.835.835,0,0,1-.241-.6.76.76,0,0,1,.229-.546.787.787,0,0,1,1.1.011L11.8,26.033a.448.448,0,0,0,.633-.633L9.376,22.341a.784.784,0,0,1,.05-1.06.8.8,0,0,1,1.126.025l5.222,5.222a.629.629,0,0,0,.983-.771l-.014-.021L15.175,23.45a.831.831,0,0,1,.214-1.1.811.811,0,0,1,1.142.21l0,.007L18.169,24.9a2.417,2.417,0,0,0,2.007,4.148c.016.174.024.349.024.523l0,1.88a.447.447,0,0,0,.131.317l2.05,2.05-4.116,4.116-.4-.4a3.163,3.163,0,0,0,1.408-2.64,3.259,3.259,0,0,0-2.08-3.011,4.321,4.321,0,0,0-4.255-3.791,4.434,4.434,0,0,0-2.779,1,2.748,2.748,0,0,0-1.982-.992l-2.2-2.2A.8.8,0,0,1,5.942,24.766Zm-.831,3.747a.783.783,0,0,1,1.063-1.148l.9.9a2.769,2.769,0,0,0-1.233.917ZM14.06,39.357a2.909,2.909,0,0,1-2.494-1.4.448.448,0,0,0-.808.1A1.859,1.859,0,0,1,7.127,37.5a1.872,1.872,0,0,1,.01-.193.448.448,0,0,0-.228-.437,2.476,2.476,0,0,1-1.274-2.161,2.708,2.708,0,0,1,.953-2,.448.448,0,0,0,.047-.637,1.859,1.859,0,1,1,3.041-2.094.448.448,0,0,0,.718.1,3.546,3.546,0,0,1,2.537-1.091,3.43,3.43,0,0,1,3.39,3.258.448.448,0,0,0,.334.407,2.342,2.342,0,0,1,1.716,2.243,2.276,2.276,0,0,1-1.261,2.042.448.448,0,0,0-.23.28A2.933,2.933,0,0,1,14.06,39.357Zm7.322,1.7-2.487-2.488,4.121-4.121L25.5,36.939Z" transform="translate(0 -20.216)" fill="#ef8b44" stroke="#ef8b44" stroke-width="0.2"/>
      <path id="Trazado_310" data-name="Trazado 310" d="M304.912,2.519A1.759,1.759,0,1,1,306.67.761,1.761,1.761,0,0,1,304.912,2.519Zm0-2.622a.863.863,0,1,0,.863.863A.864.864,0,0,0,304.912-.1Z" transform="translate(-285.742)" fill="#ef8b44" stroke="#ef8b44" stroke-width="0.2"/>
      <path id="Trazado_311" data-name="Trazado 311" d="M404.206,53.743a1.759,1.759,0,1,1,1.759-1.759A1.761,1.761,0,0,1,404.206,53.743Zm0-2.622a.863.863,0,1,0,.863.863A.864.864,0,0,0,404.206,51.121Z" transform="translate(-380.581 -48.926)" fill="#ef8b44" stroke="#ef8b44" stroke-width="0.2"/>
    </g>
  </g>
</svg>
