<svg id="Grupo_144" data-name="Grupo 144" xmlns="http://www.w3.org/2000/svg" width="101.177" height="80.541" viewBox="0 0 101.177 80.541">
  <path id="Trazado_272" data-name="Trazado 272" d="M22.955,114.409a1.976,1.976,0,0,1,1.976,1.976v7.042a7.338,7.338,0,0,0,7.33,7.33H43.525a1.977,1.977,0,0,1,1.4.578l13.655,13.656V132.733a1.976,1.976,0,0,1,1.976-1.976H88.847a7.338,7.338,0,0,0,7.33-7.33V93.534a7.338,7.338,0,0,0-7.33-7.329H32.261a7.338,7.338,0,0,0-7.33,7.329v7.042a1.976,1.976,0,1,1-3.952,0V93.534A11.294,11.294,0,0,1,32.261,82.253H88.847a11.294,11.294,0,0,1,11.282,11.281v25.387h14.383a7.653,7.653,0,0,1,7.645,7.644v18.21a7.653,7.653,0,0,1-7.645,7.644h-6.044l-9.794,9.795a1.977,1.977,0,0,1-3.374-1.4v-8.4H80.04a7.653,7.653,0,0,1-7.644-7.644V134.709H62.53v15.052a1.976,1.976,0,0,1-3.374,1.4l-16.45-16.449H32.261a11.294,11.294,0,0,1-11.282-11.282v-7.042A1.977,1.977,0,0,1,22.955,114.409Zm53.392,30.367a3.7,3.7,0,0,0,3.693,3.692H97.275a1.976,1.976,0,0,1,1.976,1.976v5.6l7-7a1.977,1.977,0,0,1,1.4-.579h6.862a3.7,3.7,0,0,0,3.692-3.692v-18.21a3.7,3.7,0,0,0-3.692-3.692H100.128v.553a11.294,11.294,0,0,1-11.282,11.282h-12.5Z" transform="translate(-20.979 -82.253)" fill="#fff"/>
  <path id="Trazado_273" data-name="Trazado 273" d="M278,164.087h38.534a1.976,1.976,0,0,1,0,3.952H278a1.976,1.976,0,0,1,0-3.952Z" transform="translate(-257.692 -151.137)" fill="#fff"/>
  <path id="Trazado_274" data-name="Trazado 274" d="M276.023,233.5A1.976,1.976,0,0,1,278,231.525h38.534a1.976,1.976,0,0,1,0,3.952H278A1.976,1.976,0,0,1,276.023,233.5Z" transform="translate(-257.692 -207.904)" fill="#fff"/>
  <path id="Trazado_275" data-name="Trazado 275" d="M300.23,298.959a1.976,1.976,0,0,1,0,3.952H278a1.976,1.976,0,0,1,0-3.952Z" transform="translate(-241.389 -264.667)" fill="#fff"/>
  <path id="Trazado_276" data-name="Trazado 276" d="M637.355,235.5a1.976,1.976,0,1,1-1.976,1.976A1.98,1.98,0,0,1,637.355,235.5Z" transform="translate(-635.379 -211.254)" fill="#fff"/>
</svg>
