<svg id="Grupo_1208" data-name="Grupo 1208" xmlns="http://www.w3.org/2000/svg" width="25.765" height="25.765" viewBox="0 0 25.765 25.765">
  <path id="Trazado_702" data-name="Trazado 702" d="M112,144.831v3.324h.831v-3.324h1.662V144h-1.662A.832.832,0,0,0,112,144.831Z" transform="translate(-106.182 -136.52)" fill="#7dc7c5"/>
  <path id="Trazado_703" data-name="Trazado 703" d="M112,240h.831v.831H112Z" transform="translate(-106.182 -227.533)" fill="#7dc7c5"/>
  <path id="Trazado_704" data-name="Trazado 704" d="M112,272h.831v.831H112Z" transform="translate(-106.182 -257.871)" fill="#7dc7c5"/>
  <path id="Trazado_705" data-name="Trazado 705" d="M352,288h.831v.831H352Z" transform="translate(-333.715 -273.04)" fill="#7dc7c5"/>
  <path id="Trazado_706" data-name="Trazado 706" d="M352,320h.831v.831H352Z" transform="translate(-333.715 -303.378)" fill="#7dc7c5"/>
  <path id="Trazado_707" data-name="Trazado 707" d="M352,256h.831v.831H352Z" transform="translate(-333.715 -242.702)" fill="#7dc7c5"/>
  <path id="Trazado_708" data-name="Trazado 708" d="M32,272h.831v.831H32Z" transform="translate(-30.338 -257.871)" fill="#7dc7c5"/>
  <path id="Trazado_709" data-name="Trazado 709" d="M32,336h.831v.831H32Z" transform="translate(-30.338 -318.547)" fill="#7dc7c5"/>
  <path id="Trazado_710" data-name="Trazado 710" d="M32,304h.831v.831H32Z" transform="translate(-30.338 -288.209)" fill="#7dc7c5"/>
  <path id="Trazado_711" data-name="Trazado 711" d="M23.687,0H11.22A2.08,2.08,0,0,0,9.142,2.078v3.74H6.233A2.08,2.08,0,0,0,4.156,7.9v3.74H2.078A2.08,2.08,0,0,0,0,13.713v9.973a2.08,2.08,0,0,0,2.078,2.078H14.544a2.08,2.08,0,0,0,2.078-2.078v-3.74H18.7a2.08,2.08,0,0,0,2.078-2.078v-3.74h2.909a2.08,2.08,0,0,0,2.078-2.078V2.078A2.08,2.08,0,0,0,23.687,0Zm-7.9,23.687a1.248,1.248,0,0,1-1.247,1.247H2.078A1.248,1.248,0,0,1,.831,23.687V13.713a1.248,1.248,0,0,1,1.247-1.247H4.156v5.4a2.08,2.08,0,0,0,2.078,2.078h9.558Zm4.156-5.818A1.248,1.248,0,0,1,18.7,19.116H6.233a1.248,1.248,0,0,1-1.247-1.247V7.9A1.248,1.248,0,0,1,6.233,6.649H18.7A1.248,1.248,0,0,1,19.947,7.9ZM23.271,3.324H17.453V2.493h5.818Zm1.662,8.727A1.248,1.248,0,0,1,23.687,13.3H20.778V7.9A2.08,2.08,0,0,0,18.7,5.818H17.453V4.156h5.818V8.388a1.229,1.229,0,0,0-.416-.077A1.247,1.247,0,1,0,24.1,9.558v-7.9h-7.48V5.818H9.973V2.078A1.248,1.248,0,0,1,11.22.831H23.687a1.248,1.248,0,0,1,1.247,1.247ZM23.271,9.558a.416.416,0,1,1-.416-.416A.416.416,0,0,1,23.271,9.558Z" fill="#7dc7c5"/>
  <path id="Trazado_712" data-name="Trazado 712" d="M176,179.049l7.994-4-7.994-4Zm.831-6.649,5.3,2.652-5.3,2.652Z" transform="translate(-166.858 -162.17)" fill="#7dc7c5"/>
  <path id="Trazado_713" data-name="Trazado 713" d="M36.571,416H34.078v.831H32v.831h2.078v.831h2.493v-.831H45.3v-.831H36.571Zm-.831,1.662h-.831v-.831h.831Z" transform="translate(-30.338 -394.391)" fill="#7dc7c5"/>
  <path id="Trazado_714" data-name="Trazado 714" d="M208,32h4.987v.831H208Z" transform="translate(-197.196 -30.338)" fill="#7dc7c5"/>
  <path id="Trazado_715" data-name="Trazado 715" d="M208,64h4.987v.831H208Z" transform="translate(-197.196 -60.676)" fill="#7dc7c5"/>
</svg>
