<svg xmlns="http://www.w3.org/2000/svg" width="78.234" height="73.467" viewBox="0 0 78.234 73.467">
  <g id="Grupo_145" data-name="Grupo 145" transform="translate(0.5 -16.44)">
    <path id="Trazado_287" data-name="Trazado 287" d="M68.938,30.576H24.444l32.881-9.133a2.263,2.263,0,0,0-1.212-4.36L7.323,30.635A8.308,8.308,0,0,0,0,38.873V81.111a8.306,8.306,0,0,0,8.3,8.3H68.938a8.306,8.306,0,0,0,8.3-8.3V38.873A8.306,8.306,0,0,0,68.938,30.576ZM8.3,35.1H68.938a3.775,3.775,0,0,1,3.771,3.771v9.805H18.253V41.89a2.263,2.263,0,1,0-4.525,0v6.788h-9.2V38.873A3.775,3.775,0,0,1,8.3,35.1Zm60.641,49.78H8.3a3.775,3.775,0,0,1-3.771-3.771V53.2H72.709V81.111A3.775,3.775,0,0,1,68.938,84.882Z" fill="#fff" stroke="#ef8b44" stroke-width="1"/>
    <path id="Trazado_288" data-name="Trazado 288" d="M72.314,287a11.314,11.314,0,1,0,11.314,11.314A11.326,11.326,0,0,0,72.314,287Zm0,18.1a6.788,6.788,0,1,1,6.788-6.788A6.8,6.8,0,0,1,72.314,305.106Z" transform="translate(-51.798 -229.275)" fill="#fff" stroke="#ef8b44" stroke-width="1"/>
    <path id="Trazado_289" data-name="Trazado 289" d="M247.788,347a6.788,6.788,0,1,0,6.788,6.788A6.8,6.8,0,0,0,247.788,347Zm0,9.051a2.263,2.263,0,1,1,2.263-2.263A2.266,2.266,0,0,1,247.788,356.055Z" transform="translate(-204.646 -280.224)" fill="#fff" stroke="#ef8b44" stroke-width="1"/>
    <path id="Trazado_290" data-name="Trazado 290" d="M367.788,347a6.788,6.788,0,1,0,6.788,6.788A6.8,6.8,0,0,0,367.788,347Zm0,9.051a2.263,2.263,0,1,1,2.263-2.263A2.266,2.266,0,0,1,367.788,356.055Z" transform="translate(-306.544 -280.224)" fill="#fff" stroke="#ef8b44" stroke-width="1"/>
  </g>
</svg>
