<svg xmlns="http://www.w3.org/2000/svg" xmlns:xlink="http://www.w3.org/1999/xlink" width="60" height="60" viewBox="0 0 60 60">
  <defs>
    <filter id="Elipse_202" x="0" y="0" width="60" height="60" filterUnits="userSpaceOnUse">
      <feOffset dy="2" input="SourceAlpha"/>
      <feGaussianBlur stdDeviation="2.5" result="blur"/>
      <feFlood flood-opacity="0.102"/>
      <feComposite operator="in" in2="blur"/>
      <feComposite in="SourceGraphic"/>
    </filter>
  </defs>
  <g id="Grupo_814" data-name="Grupo 814" transform="translate(-60.5 -1063.5)">
    <g transform="matrix(1, 0, 0, 1, 60.5, 1063.5)" filter="url(#Elipse_202)">
      <circle id="Elipse_202-2" data-name="Elipse 202" cx="22.5" cy="22.5" r="22.5" transform="translate(7.5 5.5)" fill="#fff"/>
    </g>
    <path id="Trazado_767" data-name="Trazado 767" d="M297.389,260.744l-2.566,6.362a2.565,2.565,0,0,1-3.335,1.42l-2.215-.855-2.223.855a2.565,2.565,0,0,1-3.335-1.42l-2.566-6.362a5.131,5.131,0,0,1,7.646-6.166l.487.325.479-.325a5.131,5.131,0,0,1,7.646,6.166ZM288.3,249.831h-.214a2.352,2.352,0,0,1-2.352-2.352v-.214h.214a2.352,2.352,0,0,1,2.352,2.352Zm6.9,2.625a6.842,6.842,0,0,0-5.132,0,4.277,4.277,0,0,1,4.216-3.481v-1.71a5.987,5.987,0,0,0-4.327,1.856,4.054,4.054,0,0,0-4.011-3.567h-1.924v1.924a4.063,4.063,0,0,0,4.062,4.062h.462a6.292,6.292,0,0,0-.188.906,6.842,6.842,0,0,0-8.809,8.937l2.566,6.363a4.276,4.276,0,0,0,5.567,2.36l1.582-.607,1.574.633a4.269,4.269,0,0,0,5.567-2.343l2.566-6.363a6.842,6.842,0,0,0-3.719-8.933l-.053-.021Z" transform="translate(-199.054 833.445)" fill="#ef8b44" stroke="#fff" stroke-width="0.3"/>
  </g>
</svg>
