<svg xmlns="http://www.w3.org/2000/svg" width="123.334" height="135.979" viewBox="0 0 123.334 135.979">
  <g id="Grupo_1195" data-name="Grupo 1195" transform="translate(-10.733 -1573.659)">
    <g id="Grupo_125" data-name="Grupo 125" transform="translate(38 1557.741)">
      <path id="Trazado_287" data-name="Trazado 287" d="M84.854,33.711H30.088L70.56,22.469A2.785,2.785,0,0,0,69.069,17.1L9.014,33.784A10.226,10.226,0,0,0,0,43.923v51.99a10.224,10.224,0,0,0,10.212,10.212H84.854A10.224,10.224,0,0,0,95.067,95.913V43.923A10.224,10.224,0,0,0,84.854,33.711Zm-74.642,5.57H84.854A4.647,4.647,0,0,1,89.5,43.923V55.992H22.467V47.637a2.785,2.785,0,1,0-5.57,0v8.355H5.57V43.923A4.647,4.647,0,0,1,10.212,39.282Zm74.642,61.273H10.212A4.647,4.647,0,0,1,5.57,95.913V61.563H89.5v34.35A4.647,4.647,0,0,1,84.854,100.555Z" fill="#2e335e" stroke="#fff" stroke-width="2"/>
      <path id="Trazado_288" data-name="Trazado 288" d="M74.926,287A13.926,13.926,0,1,0,88.852,300.93,13.941,13.941,0,0,0,74.926,287Zm0,22.281a8.355,8.355,0,1,1,8.355-8.355A8.365,8.365,0,0,1,74.926,309.285Z" transform="translate(-49.674 -219.871)" fill="#2e335e" stroke="#fff" stroke-width="2"/>
      <path id="Trazado_289" data-name="Trazado 289" d="M249.355,347a8.355,8.355,0,1,0,8.355,8.355A8.365,8.365,0,0,0,249.355,347Zm0,11.141a2.785,2.785,0,1,1,2.785-2.785A2.789,2.789,0,0,1,249.355,358.145Z" transform="translate(-196.252 -268.73)" fill="#2e335e" stroke="#fff" stroke-width="2"/>
      <path id="Trazado_290" data-name="Trazado 290" d="M369.355,347a8.355,8.355,0,1,0,8.355,8.355A8.365,8.365,0,0,0,369.355,347Zm0,11.141a2.785,2.785,0,1,1,2.785-2.785A2.789,2.789,0,0,1,369.355,358.145Z" transform="translate(-293.971 -268.73)" fill="#2e335e" stroke="#fff" stroke-width="2"/>
    </g>
    <g id="Grupo_129" data-name="Grupo 129" transform="translate(-4.216 1676.507) rotate(-25)">
      <path id="Trazado_291" data-name="Trazado 291" d="M352.869-252.535a2.082,2.082,0,0,1,1.925,1.946h.026a2.086,2.086,0,0,1,2.028-1.956v-.01a2.084,2.084,0,0,1-2.022-1.894h-.04a2.081,2.081,0,0,1-1.918,1.883Z" transform="translate(-332.541 296.625)" fill="#2e335e"/>
      <path id="Trazado_292" data-name="Trazado 292" d="M347.775-175.678a2.082,2.082,0,0,1,1.925,1.946h.026a2.086,2.086,0,0,1,2.028-1.956v-.01a2.084,2.084,0,0,1-2.022-1.894h-.039a2.081,2.081,0,0,1-1.918,1.883Z" transform="translate(-324.651 177.593)" fill="#2e335e"/>
      <path id="Trazado_293" data-name="Trazado 293" d="M290.6-285.148a2.082,2.082,0,0,1,1.925,1.946h.026a2.086,2.086,0,0,1,2.028-1.956v-.01a2.084,2.084,0,0,1-2.022-1.894h-.04a2.081,2.081,0,0,1-1.918,1.883Z" transform="translate(-237.099 334.135)" fill="#2e335e"/>
      <path id="Trazado_294" data-name="Trazado 294" d="M330.092-222.644a1.011,1.011,0,0,0-1.011,1.011,1.011,1.011,0,0,0,1.011,1.011,1.011,1.011,0,0,0,1.011-1.011,1.011,1.011,0,0,0-1.011-1.011" transform="translate(-293.742 249.204)" fill="#2e335e"/>
      <path id="Trazado_295" data-name="Trazado 295" d="M394.491-191.27a1.011,1.011,0,0,0-1.011,1.011,1.011,1.011,0,0,0,1.011,1.011,1.011,1.011,0,0,0,1.011-1.011,1.011,1.011,0,0,0-1.011-1.011" transform="translate(-386.891 212.513)" fill="#2e335e"/>
    </g>
  </g>
</svg>
