<svg xmlns="http://www.w3.org/2000/svg" width="43.914" height="23.899" viewBox="0 0 43.914 23.899">
  <g id="Grupo_1209" data-name="Grupo 1209" transform="translate(-263.135 -793.353)">
    <path id="Trazado_265" data-name="Trazado 265" d="M243.351-245.469a2.082,2.082,0,0,1-1.925-1.946H241.4a2.086,2.086,0,0,1-2.028,1.956v.01a2.084,2.084,0,0,1,2.022,1.894h.039a2.081,2.081,0,0,1,1.918-1.883Z" transform="translate(-8.676 671.878) rotate(70)" fill="#2e335e"/>
    <path id="Trazado_266" data-name="Trazado 266" d="M206.91-222.373a2.082,2.082,0,0,1-1.925-1.946h-.026a2.086,2.086,0,0,1-2.028,1.956v.01a2.084,2.084,0,0,1,2.022,1.894h.04a2.081,2.081,0,0,1,1.918-1.883Z" transform="translate(13.742 684.766) rotate(70)" fill="#2e335e"/>
    <path id="Trazado_264" data-name="Trazado 264" d="M248.166-189.248a1.011,1.011,0,0,0,1.011-1.011,1.011,1.011,0,0,0-1.011-1.011,1.011,1.011,0,0,0-1.011,1.011,1.011,1.011,0,0,0,1.011,1.011" transform="translate(13.931 642.912) rotate(70)" fill="#2e335e"/>
    <path id="Trazado_267" data-name="Trazado 267" d="M215.629-165.87a1.011,1.011,0,0,0,1.011-1.011,1.011,1.011,0,0,0-1.011-1.011,1.011,1.011,0,0,0-1.011,1.011,1.011,1.011,0,0,0,1.011,1.011" transform="translate(33.865 649.101) rotate(70)" fill="#2e335e"/>
  </g>
</svg>
