<svg xmlns="http://www.w3.org/2000/svg" width="62.708" height="46.763" viewBox="0 0 62.708 46.763">
  <g id="Grupo_128" data-name="Grupo 128" transform="translate(-309.56 -1621.12) rotate(-8)">
    <path id="Trazado_291" data-name="Trazado 291" d="M356.849-252.5a2.082,2.082,0,0,1-1.925-1.946H354.9a2.086,2.086,0,0,1-2.028,1.956v.01a2.084,2.084,0,0,1,2.022,1.894h.04a2.081,2.081,0,0,1,1.918-1.883Z" transform="translate(-238.844 1908.321)" fill="#2e335e"/>
    <path id="Trazado_292" data-name="Trazado 292" d="M351.755-175.647a2.082,2.082,0,0,1-1.925-1.946H349.8a2.086,2.086,0,0,1-2.028,1.956v.01a2.084,2.084,0,0,1,2.022,1.894h.039a2.081,2.081,0,0,1,1.918-1.883Z" transform="translate(-236.545 1873.64)" fill="#2e335e"/>
    <path id="Trazado_293" data-name="Trazado 293" d="M294.578-285.117a2.082,2.082,0,0,1-1.925-1.946h-.026a2.086,2.086,0,0,1-2.028,1.956v.01a2.084,2.084,0,0,1,2.022,1.894h.04a2.081,2.081,0,0,1,1.918-1.883Z" transform="translate(-209.744 1936.038)" fill="#2e335e"/>
    <path id="Trazado_294" data-name="Trazado 294" d="M330.092-220.622a1.011,1.011,0,0,0,1.011-1.011,1.011,1.011,0,0,0-1.011-1.011,1.011,1.011,0,0,0-1.011,1.011,1.011,1.011,0,0,0,1.011,1.011" transform="translate(-228.109 1893.969)" fill="#2e335e"/>
    <path id="Trazado_295" data-name="Trazado 295" d="M394.491-189.248a1.011,1.011,0,0,0,1.011-1.011,1.011,1.011,0,0,0-1.011-1.011,1.011,1.011,0,0,0-1.011,1.011,1.011,1.011,0,0,0,1.011,1.011" transform="translate(-257.169 1879.812)" fill="#2e335e"/>
  </g>
</svg>
