<svg xmlns="http://www.w3.org/2000/svg" width="82.214" height="41.466" viewBox="0 0 82.214 41.466">
  <g id="Grupo_1207" data-name="Grupo 1207" transform="translate(-0.26 -446.587)">
    <path id="Trazado_254" data-name="Trazado 254" d="M352.869-251.665a2.94,2.94,0,0,0,2.678-2.785h.037a2.94,2.94,0,0,0,2.822,2.8v.015a2.935,2.935,0,0,0-2.812,2.71h-.055a2.935,2.935,0,0,0-2.669-2.7Z" transform="translate(-62.238 873.758) rotate(-41)" fill="#fff"/>
    <path id="Trazado_252" data-name="Trazado 252" d="M347.775-174.808a2.94,2.94,0,0,0,2.678-2.785h.037a2.94,2.94,0,0,0,2.822,2.8v.015a2.935,2.935,0,0,0-2.812,2.71h-.055a2.935,2.935,0,0,0-2.669-2.7Z" transform="translate(-134.376 846.076) rotate(-41)" fill="#fff"/>
    <path id="Trazado_256" data-name="Trazado 256" d="M290.6-284.278a2.94,2.94,0,0,0,2.678-2.785h.037a2.94,2.94,0,0,0,2.821,2.8v.015a2.935,2.935,0,0,0-2.812,2.71h-.055a2.935,2.935,0,0,0-2.669-2.7Z" transform="translate(43.686 866.43) rotate(-41)" fill="#fff"/>
    <path id="Trazado_255" data-name="Trazado 255" d="M394.907-188.417a1.427,1.427,0,0,1-1.427-1.427,1.427,1.427,0,0,1,1.427-1.426,1.426,1.426,0,0,1,1.426,1.426,1.426,1.426,0,0,1-1.426,1.427" transform="translate(-171.218 865.548) rotate(-41)" fill="#fff"/>
    <path id="Trazado_253" data-name="Trazado 253" d="M330.508-219.791a1.427,1.427,0,0,1-1.427-1.427,1.426,1.426,0,0,1,1.427-1.426,1.426,1.426,0,0,1,1.426,1.426,1.426,1.426,0,0,1-1.426,1.427" transform="translate(-64.067 857.168) rotate(-41)" fill="#fff"/>
  </g>
</svg>
