<svg id="Grupo_139" data-name="Grupo 139" xmlns="http://www.w3.org/2000/svg" width="108.951" height="83.364" viewBox="0 0 108.951 83.364">
  <g id="Grupo_138" data-name="Grupo 138" transform="translate(0 0)">
    <path id="Trazado_300" data-name="Trazado 300" d="M105.24,124.1l-6.463-3.231a.11.11,0,0,1-.061-.1V117.52a11.786,11.786,0,0,0,5-8.1,13.5,13.5,0,0,0-3.587-17.577,6.849,6.849,0,0,0,.292-1.976c0-4.172-3.777-7.566-8.419-7.566s-8.419,3.394-8.419,7.566a6.846,6.846,0,0,0,.291,1.977,13.605,13.605,0,0,0-4.429,5.772c-.4-3.888-.808-8.483-1.2-13.837-.521-7.064-3.062-13.029-7.346-17.25a22.828,22.828,0,0,0-16.421-6.4,22.827,22.827,0,0,0-16.421,6.4c-4.284,4.222-6.825,10.187-7.346,17.25-.139,1.875-.279,3.653-.42,5.345H15.242A10.137,10.137,0,0,0,5.117,99.244v.1a8.461,8.461,0,0,0,.889,3.765l.817,1.634v2.606a12.449,12.449,0,0,0,5.117,10.065v2.3a.668.668,0,0,1-.483.64l-6.589,1.883A6.741,6.741,0,0,0,0,128.691v13.2a1.6,1.6,0,1,0,3.192,0v-13.2a3.536,3.536,0,0,1,2.554-3.386l6.589-1.883a3.79,3.79,0,0,0,.678-.269l4.045,4.045v14.691a1.6,1.6,0,1,0,3.192,0V127.2l4.073-4.073a8.738,8.738,0,0,0,1.484.536l1.618.462a8.422,8.422,0,0,0-3.544,6.859v10.907a1.6,1.6,0,1,0,3.192,0V130.982a5.23,5.23,0,0,1,3.116-4.782l9.125-4.03a16.953,16.953,0,0,0,30.328,0l9.122,4.029a5.23,5.23,0,0,1,3.116,4.782v10.907a1.6,1.6,0,1,0,3.192,0V130.982a8.417,8.417,0,0,0-2.016-5.46l2.47-1.235,1.854,1.762a6.71,6.71,0,0,0,9.249,0l1.854-1.762,5.331,2.665a3.5,3.5,0,0,1,1.947,3.15v11.786a1.6,1.6,0,1,0,3.192,0V130.1A6.678,6.678,0,0,0,105.24,124.1ZM92,85.488c2.882,0,5.227,1.962,5.227,4.374,0,.1-.008.2-.016.3a13.521,13.521,0,0,0-10.421,0c-.008-.1-.017-.2-.017-.3C86.776,87.45,89.121,85.488,92,85.488ZM18.654,124.28l-3.637-3.637a3.82,3.82,0,0,0,.115-.929v-.673a11.18,11.18,0,0,0,3.159.558c.123,0,.245.006.367.006a11.853,11.853,0,0,0,3.516-.532v.641a4.385,4.385,0,0,0,.1.947Zm-.267-7.872a8.929,8.929,0,0,1-8.372-9.063v-2.983a1.6,1.6,0,0,0-.169-.714l-.985-1.971a5.256,5.256,0,0,1-.552-2.338v-.1a6.941,6.941,0,0,1,6.933-6.933H29v6.625a6.966,6.966,0,0,1-.732,3.1l-.805,1.611a1.6,1.6,0,0,0-.169.714v3.412a8.639,8.639,0,0,1-8.906,8.635Zm13.339,5.625-5.042-1.44c-1.317-.376-1.317-.523-1.317-.878v-2.2a11.786,11.786,0,0,0,2.428-2.232,3.272,3.272,0,0,0,1.157,1.3,35.242,35.242,0,0,0,7.244,3.472Zm22.75,6.32a13.743,13.743,0,0,1-12.241-7.472l2.323-1.026a5.01,5.01,0,0,0,2.984-4.581v-3.829a18.647,18.647,0,0,0,13.866,0v3.829a5.01,5.01,0,0,0,2.984,4.581l2.323,1.026A13.709,13.709,0,0,1,54.475,128.353ZM68.314,118.1l-2.632-1.163a1.817,1.817,0,0,1-1.082-1.661v-5.487a18.654,18.654,0,0,0,8.529-15.66V91.134A6.656,6.656,0,0,0,70.861,86.1c-3.207-2.789-10.465-7.656-23.05-8.914a1.6,1.6,0,0,0-.317,3.176c11.7,1.17,18.352,5.607,21.272,8.147a3.466,3.466,0,0,1,1.171,2.625v2.993a15.462,15.462,0,1,1-30.924,0V92.792a1.739,1.739,0,0,1,.909-1.5A12.633,12.633,0,0,0,45.755,84.4a1.6,1.6,0,0,0-3.028-1.009,9.491,9.491,0,0,1-4.4,5.135,4.961,4.961,0,0,0-2.509,4.269v1.335a18.653,18.653,0,0,0,8.529,15.66v5.487a1.817,1.817,0,0,1-1.082,1.661L40.637,118.1a35.257,35.257,0,0,1-9.95-4.19.079.079,0,0,1-.039-.092c.557-3.291,1.987-12.782,3.244-29.8.463-6.281,2.678-11.541,6.4-15.212a19.7,19.7,0,0,1,14.18-5.485A19.7,19.7,0,0,1,68.656,68.8c3.725,3.671,5.94,8.931,6.4,15.211,1.257,17.022,2.687,26.514,3.244,29.8a.079.079,0,0,1-.039.093A35.267,35.267,0,0,1,68.314,118.1Zm16.975,2.672a.109.109,0,0,1-.061.1l-5,2.5c-.059-.028-.116-.059-.176-.086l-7.3-3.223A35.248,35.248,0,0,0,80,116.586a3.281,3.281,0,0,0,1.451-3.3l-.038-.225a11.805,11.805,0,0,0,3.877,4.463Zm9.139,2.967a3.519,3.519,0,0,1-4.851,0l-1.483-1.41a3.3,3.3,0,0,0,.388-1.558v-1.7a11.879,11.879,0,0,0,7.042,0v1.7a3.3,3.3,0,0,0,.388,1.559ZM92,116.412a8.617,8.617,0,0,1-8.585-7.7,1.6,1.6,0,0,0-.227-.663,10.345,10.345,0,1,1,18.631-2.167c-4.532-4.6-12.5-6.408-12.888-6.493A1.6,1.6,0,0,0,87,100.95a3.9,3.9,0,0,1-1.238,2.283,1.6,1.6,0,0,0,2.257,2.257,7.722,7.722,0,0,0,1.734-2.578c2.685.8,8.259,2.813,10.761,6.349A8.616,8.616,0,0,1,92,116.412Z" transform="translate(0 -60.121)" fill="#fff"/>
  </g>
</svg>
