<svg xmlns="http://www.w3.org/2000/svg" width="122.914" height="105.016" viewBox="0 0 122.914 105.016">
  <g id="Grupo_1193" data-name="Grupo 1193" transform="translate(-16.135 -878.353)">
    <g id="Grupo_117" data-name="Grupo 117" transform="translate(35 905.252)">
      <g id="Grupo_110" data-name="Grupo 110">
        <g id="Grupo_109" data-name="Grupo 109">
          <path id="Trazado_257" data-name="Trazado 257" d="M71.884,0H6.233A6.24,6.24,0,0,0,0,6.233v39.89a6.24,6.24,0,0,0,6.233,6.233H15.79a1.247,1.247,0,0,0,0-2.493H6.233a3.744,3.744,0,0,1-3.74-3.74V6.233a3.744,3.744,0,0,1,3.74-3.74H71.884a3.744,3.744,0,0,1,3.74,3.74v39.89a3.744,3.744,0,0,1-3.74,3.74H63.158a1.247,1.247,0,1,0,0,2.493h8.726a6.24,6.24,0,0,0,6.233-6.233V6.233A6.24,6.24,0,0,0,71.884,0Z" fill="#2e335e"/>
        </g>
      </g>
      <g id="Grupo_112" data-name="Grupo 112" transform="translate(9.972 4.986)">
        <g id="Grupo_111" data-name="Grupo 111">
          <path id="Trazado_258" data-name="Trazado 258" d="M122.288,32.681H66.609a1.246,1.246,0,0,0-1.247,1.247v39.89a1.246,1.246,0,0,0,1.247,1.247h4.571a1.247,1.247,0,0,0,0-2.493H67.855v-37.4h53.186v37.4h-2.493a1.247,1.247,0,1,0,0,2.493h3.74a1.246,1.246,0,0,0,1.247-1.247V33.928A1.247,1.247,0,0,0,122.288,32.681Z" transform="translate(-65.362 -32.681)" fill="#2e335e"/>
        </g>
      </g>
      <g id="Grupo_114" data-name="Grupo 114" transform="translate(4.986 24.931)">
        <g id="Grupo_113" data-name="Grupo 113">
          <circle id="Elipse_175" data-name="Elipse 175" cx="1.247" cy="1.247" r="1.247" fill="#2e335e"/>
        </g>
      </g>
      <g id="Grupo_116" data-name="Grupo 116" transform="translate(19.529 15.79)">
        <g id="Grupo_115" data-name="Grupo 115">
          <path id="Trazado_259" data-name="Trazado 259" d="M162.488,122.188a5.373,5.373,0,0,0-3.356,1.174,5.395,5.395,0,0,0-8.31-2.078,5.394,5.394,0,0,0-7.863-2.4v-10a5.4,5.4,0,1,0-10.8,0v19.676A5.41,5.41,0,0,0,128,133.823v6.233a20.037,20.037,0,0,0,8.31,16.195v8.321a1.247,1.247,0,0,0,2.493,0v-6.787c.237.123.476.242.72.355a1.247,1.247,0,0,0,1.054-2.259,17.525,17.525,0,0,1-10.084-15.824v-6.233a2.909,2.909,0,0,1,1.662-2.624v7.61a1.247,1.247,0,1,0,2.493,0V108.892a2.909,2.909,0,0,1,5.817,0v20.845a1.247,1.247,0,1,0,2.493,0v-6.3a2.909,2.909,0,1,1,5.817,0v6.233a1.247,1.247,0,1,0,2.493,0v-4.155a2.909,2.909,0,1,1,5.817,0v4.155a1.247,1.247,0,1,0,2.493,0V127.59a2.909,2.909,0,1,1,5.817,0v12.465a17.525,17.525,0,0,1-10.084,15.824,1.247,1.247,0,1,0,1.054,2.259c.243-.114.482-.233.72-.355v6.787a1.247,1.247,0,1,0,2.493,0V156.25a20.037,20.037,0,0,0,8.31-16.195V127.59A5.408,5.408,0,0,0,162.488,122.188Z" transform="translate(-128 -103.49)" fill="#2e335e"/>
        </g>
      </g>
    </g>
    <g id="Grupo_360" data-name="Grupo 360" transform="translate(1 -4)">
      <path id="Trazado_260" data-name="Trazado 260" d="M243.351-245.469a2.082,2.082,0,0,1-1.925-1.946H241.4a2.086,2.086,0,0,1-2.028,1.956v.01a2.084,2.084,0,0,1,2.022,1.894h.039a2.081,2.081,0,0,1,1.918-1.883Z" transform="translate(-177.676 749.878) rotate(70)" fill="#2e335e"/>
      <path id="Trazado_261" data-name="Trazado 261" d="M206.91-222.373a2.082,2.082,0,0,1-1.925-1.946h-.026a2.086,2.086,0,0,1-2.028,1.956v.01a2.084,2.084,0,0,1,2.022,1.894h.04a2.081,2.081,0,0,1,1.918-1.883Z" transform="translate(-158.258 770.766) rotate(70)" fill="#2e335e"/>
      <path id="Trazado_262" data-name="Trazado 262" d="M248.166-189.248a1.011,1.011,0,0,0,1.011-1.011,1.011,1.011,0,0,0-1.011-1.011,1.011,1.011,0,0,0-1.011,1.011,1.011,1.011,0,0,0,1.011,1.011" transform="translate(-147.069 737.912) rotate(70)" fill="#2e335e"/>
      <path id="Trazado_263" data-name="Trazado 263" d="M215.629-165.87a1.011,1.011,0,0,0,1.011-1.011,1.011,1.011,0,0,0-1.011-1.011,1.011,1.011,0,0,0-1.011,1.011,1.011,1.011,0,0,0,1.011,1.011" transform="translate(-133.135 738.101) rotate(70)" fill="#2e335e"/>
    </g>
    <g id="Grupo_361" data-name="Grupo 361" transform="translate(0 -5)">
      <path id="Trazado_269" data-name="Trazado 269" d="M3.98,1.915A2.082,2.082,0,0,0,2.055,3.86H2.028A2.086,2.086,0,0,0,0,1.9v-.01A2.084,2.084,0,0,0,2.022,0h.039A2.081,2.081,0,0,0,3.98,1.883Z" transform="translate(21.124 909.513) rotate(110)" fill="#2e335e"/>
      <path id="Trazado_268" data-name="Trazado 268" d="M3.98,1.915A2.082,2.082,0,0,0,2.055,3.86H2.028A2.086,2.086,0,0,0,0,1.9v-.01A2.084,2.084,0,0,0,2.022,0h.04A2.081,2.081,0,0,0,3.98,1.883Z" transform="translate(29.873 887.056) rotate(110)" fill="#2e335e"/>
      <path id="Trazado_270" data-name="Trazado 270" d="M1.011,0A1.011,1.011,0,1,1,0,1.011,1.011,1.011,0,0,1,1.011,0" transform="translate(43.887 899.435) rotate(110)" fill="#2e335e"/>
      <path id="Trazado_271" data-name="Trazado 271" d="M1.011,0A1.011,1.011,0,1,1,0,1.011,1.011,1.011,0,0,1,1.011,0" transform="translate(56.049 884.045) rotate(110)" fill="#2e335e"/>
    </g>
  </g>
</svg>
