<svg id="Grupo_143" data-name="Grupo 143" xmlns="http://www.w3.org/2000/svg" width="83.177" height="83.177" viewBox="0 0 83.177 83.177">
  <g id="Grupo_110" data-name="Grupo 110">
    <g id="Grupo_109" data-name="Grupo 109">
      <path id="Trazado_257" data-name="Trazado 257" d="M76.541,0H6.636A6.644,6.644,0,0,0,0,6.636V49.11a6.644,6.644,0,0,0,6.636,6.636H16.812a1.327,1.327,0,0,0,0-2.655H6.636A3.986,3.986,0,0,1,2.655,49.11V6.636A3.986,3.986,0,0,1,6.636,2.655h69.9a3.986,3.986,0,0,1,3.982,3.982V49.11a3.986,3.986,0,0,1-3.982,3.982H67.25a1.327,1.327,0,1,0,0,2.655h9.291a6.644,6.644,0,0,0,6.636-6.636V6.636A6.644,6.644,0,0,0,76.541,0Z" fill="#fff"/>
    </g>
  </g>
  <g id="Grupo_112" data-name="Grupo 112" transform="translate(10.618 5.309)">
    <g id="Grupo_111" data-name="Grupo 111">
      <path id="Trazado_258" data-name="Trazado 258" d="M125.975,32.681H66.689a1.327,1.327,0,0,0-1.327,1.327V76.482a1.327,1.327,0,0,0,1.327,1.327h4.867a1.327,1.327,0,0,0,0-2.655H68.017V35.336h56.631V75.154h-2.655a1.327,1.327,0,1,0,0,2.655h3.982a1.327,1.327,0,0,0,1.327-1.327V34.008A1.327,1.327,0,0,0,125.975,32.681Z" transform="translate(-65.362 -32.681)" fill="#fff"/>
    </g>
  </g>
  <g id="Grupo_114" data-name="Grupo 114" transform="translate(5.309 26.546)">
    <g id="Grupo_113" data-name="Grupo 113">
      <circle id="Elipse_175" data-name="Elipse 175" cx="1.327" cy="1.327" r="1.327" fill="#fff"/>
    </g>
  </g>
  <g id="Grupo_116" data-name="Grupo 116" transform="translate(20.794 16.812)">
    <g id="Grupo_115" data-name="Grupo 115">
      <path id="Trazado_259" data-name="Trazado 259" d="M164.722,123.4a5.721,5.721,0,0,0-3.574,1.25,5.744,5.744,0,0,0-8.849-2.212,5.744,5.744,0,0,0-8.372-2.553V109.242a5.752,5.752,0,0,0-11.5,0v20.951a5.76,5.76,0,0,0-4.424,5.6v6.636a21.335,21.335,0,0,0,8.849,17.244v8.86a1.327,1.327,0,1,0,2.655,0V161.3c.252.13.507.257.766.378a1.327,1.327,0,0,0,1.122-2.406,18.66,18.66,0,0,1-10.737-16.849v-6.636a3.1,3.1,0,0,1,1.77-2.794v8.1a1.327,1.327,0,1,0,2.655,0V109.242a3.1,3.1,0,0,1,6.194,0v22.2a1.327,1.327,0,1,0,2.655,0v-6.71a3.1,3.1,0,1,1,6.194,0v6.636a1.327,1.327,0,1,0,2.655,0v-4.424a3.1,3.1,0,0,1,6.194,0v4.424a1.327,1.327,0,1,0,2.655,0v-2.212a3.1,3.1,0,1,1,6.194,0v13.273a18.66,18.66,0,0,1-10.737,16.849,1.327,1.327,0,1,0,1.122,2.406c.259-.121.514-.248.766-.378v7.227a1.327,1.327,0,1,0,2.655,0v-8.86a21.335,21.335,0,0,0,8.849-17.244V129.151A5.758,5.758,0,0,0,164.722,123.4Z" transform="translate(-128 -103.49)" fill="#fff"/>
    </g>
  </g>
</svg>
