<svg id="Grupo_640" data-name="Grupo 640" xmlns="http://www.w3.org/2000/svg" width="101.75" height="141.328" viewBox="0 0 101.75 141.328">
  <path id="Trazado_236" data-name="Trazado 236" d="M215.431,504.5a40.6,40.6,0,0,1-28.989,11.9,41.407,41.407,0,0,1-28.988-11.9,40.6,40.6,0,0,1-11.9-28.989c0-16.127,21.693-48.187,36.091-69.5,1.728-2.5,3.264-4.992,4.8-7.1,1.536,2.112,3.072,4.608,4.8,7.1,14.4,21.5,36.093,53.37,36.093,69.5a41.412,41.412,0,0,1-11.9,28.989M199.5,400.639c-3.264-4.8-6.144-9.215-8.831-13.247a5.843,5.843,0,0,0-1.536-1.536,5,5,0,0,0-6.911,1.536c-2.5,4.032-5.376,8.255-8.831,13.247-15.165,22.27-37.819,55.866-37.819,75.064a50.647,50.647,0,0,0,14.975,35.9,51.288,51.288,0,0,0,35.9,14.781,51.127,51.127,0,0,0,50.875-50.874c0-19.2-22.654-52.6-37.821-74.872" transform="translate(-135.568 -385.058)" fill="#7dc7c5"/>
  <path id="Trazado_237" data-name="Trazado 237" d="M203.3,453.487a4.922,4.922,0,0,0-5.184,4.608,24.714,24.714,0,0,1-3.648,11.711,23.333,23.333,0,0,1-8.831,8.447,5.073,5.073,0,0,0,4.992,8.831,33.268,33.268,0,0,0,12.287-11.9,32.671,32.671,0,0,0,4.992-16.511,4.922,4.922,0,0,0-4.608-5.183" transform="translate(-122.667 -366.489)" fill="#7dc7c5"/>
</svg>
