<svg xmlns="http://www.w3.org/2000/svg" width="112" height="42" viewBox="0 0 112 42">
  <g id="Grupo_3" data-name="Grupo 3" transform="translate(-20.802 -59.004)">
    <g id="Grupo_1" data-name="Grupo 1">
      <rect id="Rectángulo_1" data-name="Rectángulo 1" width="4.176" height="4.352" transform="translate(118.88 59.004)" fill="#92de63"/>
      <rect id="Rectángulo_2" data-name="Rectángulo 2" width="4.176" height="4.352" transform="translate(123.753 59.004)" fill="#ff9f24"/>
      <rect id="Rectángulo_3" data-name="Rectángulo 3" width="4.176" height="4.352" transform="translate(128.626 59.004)" fill="#ea5c90"/>
      <rect id="Rectángulo_4" data-name="Rectángulo 4" width="4.176" height="4.35" transform="translate(123.753 64.081)" fill="#ffec2d"/>
      <rect id="Rectángulo_5" data-name="Rectángulo 5" width="4.176" height="4.35" transform="translate(128.626 64.081)" fill="#9371b0"/>
      <rect id="Rectángulo_6" data-name="Rectángulo 6" width="4.176" height="4.35" transform="translate(128.626 69.157)" fill="#53caec"/>
    </g>
    <path id="Trazado_23" data-name="Trazado 23" d="M59.365,82.7a9.519,9.519,0,0,1,.726-3.784,8.592,8.592,0,0,1,4.964-4.757,10.6,10.6,0,0,1,7.3,0,8.59,8.59,0,0,1,4.965,4.757,10.225,10.225,0,0,1,0,7.569,8.577,8.577,0,0,1-4.965,4.757,10.6,10.6,0,0,1-7.3,0,8.579,8.579,0,0,1-4.964-4.757,9.507,9.507,0,0,1-.726-3.784m5.189,0a4.642,4.642,0,0,0,1.09,3.207,4.438,4.438,0,0,0,6.124,0,5.264,5.264,0,0,0,0-6.415,4.438,4.438,0,0,0-6.124,0,4.649,4.649,0,0,0-1.09,3.207" fill="#12100b"/>
    <path id="Trazado_24" data-name="Trazado 24" d="M36.959,82.553a19.371,19.371,0,0,0-.346-3.875,6.866,6.866,0,0,0-1.229-2.828A5.462,5.462,0,0,0,33.032,74.1a10.121,10.121,0,0,0-3.754-.6,11.671,11.671,0,0,0-4.013.7,9.44,9.44,0,0,0-3.391,2.108l1.589,1.7a1.528,1.528,0,0,0,2.158.316l0,0a6.149,6.149,0,0,1,.9-.592,4.919,4.919,0,0,1,2.335-.559,3.466,3.466,0,0,1,2.335.848,2.857,2.857,0,0,1,.986,2.287q-1.073,0-2.335.036a22.284,22.284,0,0,0-2.526.216,14.706,14.706,0,0,0-2.439.559,7.1,7.1,0,0,0-2.093,1.063,4.945,4.945,0,0,0-1.452,1.73,5.554,5.554,0,0,0-.537,2.559,5.348,5.348,0,0,0,.484,2.342A4.908,4.908,0,0,0,22.6,90.516a5.645,5.645,0,0,0,1.919,1.028,7.743,7.743,0,0,0,5.293-.27,4.948,4.948,0,0,0,2.3-2.019h.069v.662c0,.749.142,1.537,1.509,1.537h3.266Zm-4.774,2.378a3.016,3.016,0,0,1-.328,1.442,2.92,2.92,0,0,1-.883,1.008,4.32,4.32,0,0,1-1.262.614,5.018,5.018,0,0,1-1.471.216,3.23,3.23,0,0,1-1.66-.468,1.559,1.559,0,0,1-.8-1.442,1.775,1.775,0,0,1,.571-1.406,3.722,3.722,0,0,1,1.383-.757,7.149,7.149,0,0,1,1.7-.306q.882-.055,1.47-.055h1.28Z" fill="#12100b"/>
    <path id="Trazado_25" data-name="Trazado 25" d="M57.207,78.912a8.454,8.454,0,0,0-1.678-2.864,7.563,7.563,0,0,0-2.612-1.874,8.355,8.355,0,0,0-3.39-.667,5.594,5.594,0,0,0-1.7.252,7.242,7.242,0,0,0-1.47.649,6.192,6.192,0,0,0-1.176.883,5.9,5.9,0,0,0-.813.955H44.3V73.939H41.088a1.567,1.567,0,0,0-1.558,1.614V99.67h2.43c2.623,0,2.76-1.391,2.76-3.263V89.58h.069a4.866,4.866,0,0,0,2.3,1.785,8.61,8.61,0,0,0,3.027.522,6.589,6.589,0,0,0,3.217-.775,7.5,7.5,0,0,0,2.4-2.072,9.791,9.791,0,0,0,1.522-2.973,11.468,11.468,0,0,0,.536-3.513A10.844,10.844,0,0,0,57.207,78.912ZM51.517,85.9a4.438,4.438,0,0,1-6.124,0,5.266,5.266,0,0,1,0-6.415,4.438,4.438,0,0,1,6.124,0,5.266,5.266,0,0,1,0,6.415Z" fill="#12100b"/>
    <path id="Trazado_26" data-name="Trazado 26" d="M90.55,73.543c-.3-.023-.6-.036-.9-.036a4.84,4.84,0,0,0-2.872.811,6.593,6.593,0,0,0-1.972,2.432h-.068V73.939H81.872c-1.7,0-2.323,1.268-2.323,2.849V91.454h2.245c2.748,0,2.945-.895,2.945-2.832V84.139a18.835,18.835,0,0,1,.138-2.379,4.709,4.709,0,0,1,.606-1.856A3.163,3.163,0,0,1,86.813,78.7a5.332,5.332,0,0,1,2.353-.432,6.845,6.845,0,0,1,1.124.09,7.639,7.639,0,0,1,1.09.271V73.688A4.294,4.294,0,0,0,90.55,73.543Z" fill="#12100b"/>
    <path id="Trazado_27" data-name="Trazado 27" d="M105.9,76.7V73.939h-4.567V68.75H97.8c-1.664,0-1.653,1.394-1.653,2.067v3.122H94.06c-.863,0-1.235.67-1.235,1.524v2.8h3.322V86.59a5.8,5.8,0,0,0,.468,2.449,4.268,4.268,0,0,0,1.3,1.64,5.389,5.389,0,0,0,1.937.92,9.613,9.613,0,0,0,2.422.288,15.745,15.745,0,0,0,1.834-.108,7.5,7.5,0,0,0,1.8-.434v-4.5a1.811,1.811,0,0,1-1.021.415,8.522,8.522,0,0,1-1.089.09,3.182,3.182,0,0,1-1.332-.234,1.6,1.6,0,0,1-.744-.666,2.727,2.727,0,0,1-.311-1.028,11.343,11.343,0,0,1-.07-1.316V78.264h3.512C105.777,78.264,105.9,77.575,105.9,76.7Z" fill="#12100b"/>
    <path id="Trazado_28" data-name="Trazado 28" d="M123.755,82.553a19.35,19.35,0,0,0-.346-3.875,6.868,6.868,0,0,0-1.229-2.828,5.456,5.456,0,0,0-2.352-1.748,10.121,10.121,0,0,0-3.754-.6,11.668,11.668,0,0,0-4.013.7,9.433,9.433,0,0,0-3.391,2.108l1.588,1.7a1.529,1.529,0,0,0,2.159.316l0,0a6.119,6.119,0,0,1,.9-.592,4.921,4.921,0,0,1,2.335-.559,3.467,3.467,0,0,1,2.335.848,2.858,2.858,0,0,1,.986,2.287q-1.073,0-2.335.036a22.282,22.282,0,0,0-2.525.216,14.709,14.709,0,0,0-2.439.559,7.1,7.1,0,0,0-2.093,1.063,4.946,4.946,0,0,0-1.453,1.73,5.554,5.554,0,0,0-.537,2.559,5.351,5.351,0,0,0,.484,2.342,4.912,4.912,0,0,0,1.315,1.693,5.647,5.647,0,0,0,1.92,1.028,7.741,7.741,0,0,0,5.293-.27,4.949,4.949,0,0,0,2.3-2.019h.069v.662c0,.749.142,1.537,1.509,1.537h3.266Zm-4.774,2.378a3.012,3.012,0,0,1-.328,1.442,2.922,2.922,0,0,1-.883,1.008,4.308,4.308,0,0,1-1.262.614,5.019,5.019,0,0,1-1.471.216,3.23,3.23,0,0,1-1.66-.468,1.56,1.56,0,0,1-.8-1.442,1.775,1.775,0,0,1,.571-1.406,3.714,3.714,0,0,1,1.383-.757,7.151,7.151,0,0,1,1.7-.306q.882-.055,1.47-.055h1.28Z" fill="#12100b"/>
    <g id="Grupo_2" data-name="Grupo 2">
      <rect id="Rectángulo_7" data-name="Rectángulo 7" width="0.455" height="4.193" transform="translate(49.975 95.852)" fill="#12100b"/>
      <path id="Trazado_29" data-name="Trazado 29" d="M52.11,96.949h.443v.539a1.149,1.149,0,0,1,2.157.635v1.923h-.443V98.236c0-.575-.3-.935-.823-.935a.9.9,0,0,0-.892.97v1.773H52.11Z" fill="#12100b"/>
      <path id="Trazado_30" data-name="Trazado 30" d="M56.23,96.949h.443v.539a1.149,1.149,0,0,1,2.157.635v1.923h-.442V98.236c0-.575-.3-.935-.822-.935a.9.9,0,0,0-.892.97v1.773H56.23Z" fill="#12100b"/>
      <path id="Trazado_31" data-name="Trazado 31" d="M60.165,98.512V98.5a1.551,1.551,0,1,1,3.1-.013V98.5a1.577,1.577,0,0,1-1.559,1.617,1.556,1.556,0,0,1-1.541-1.605m2.645,0V98.5a1.152,1.152,0,0,0-1.1-1.211,1.124,1.124,0,0,0-1.086,1.2V98.5a1.141,1.141,0,0,0,1.1,1.2,1.122,1.122,0,0,0,1.093-1.192" fill="#12100b"/>
      <path id="Trazado_32" data-name="Trazado 32" d="M64.177,96.949h.488l1,2.57,1.006-2.57h.478l-1.294,3.122h-.391Z" fill="#12100b"/>
      <path id="Trazado_33" data-name="Trazado 33" d="M68.054,99.147v-.012c0-.665.517-1.013,1.27-1.013a3,3,0,0,1,.908.132v-.1a.775.775,0,0,0-.88-.838,1.989,1.989,0,0,0-.9.222l-.132-.378A2.359,2.359,0,0,1,69.4,96.9a1.285,1.285,0,0,1,.96.342,1.255,1.255,0,0,1,.31.911v1.892h-.437v-.461a1.284,1.284,0,0,1-1.069.527,1.01,1.01,0,0,1-1.109-.964m2.185-.24V98.62a2.963,2.963,0,0,0-.869-.132c-.552,0-.868.251-.868.624v.011a.666.666,0,0,0,.747.617.9.9,0,0,0,.99-.833" fill="#12100b"/>
      <path id="Trazado_34" data-name="Trazado 34" d="M72.185,96.949h.442v.808a1.273,1.273,0,0,1,1.214-.862v.5h-.034c-.65,0-1.179.486-1.179,1.42v1.234h-.442Z" fill="#12100b"/>
      <path id="Trazado_35" data-name="Trazado 35" d="M77.392,96.949h.443v.623a1.327,1.327,0,0,1,1.138-.689,1.484,1.484,0,0,1,1.42,1.605V98.5a1.49,1.49,0,0,1-1.42,1.611,1.329,1.329,0,0,1-1.138-.659V101h-.443Zm2.547,1.557v-.012a1.1,1.1,0,0,0-1.047-1.2,1.135,1.135,0,0,0-1.075,1.191V98.5a1.133,1.133,0,0,0,1.075,1.2,1.075,1.075,0,0,0,1.047-1.193" fill="#12100b"/>
      <path id="Trazado_36" data-name="Trazado 36" d="M81.563,99.147v-.012c0-.665.517-1.013,1.271-1.013a3.012,3.012,0,0,1,.909.132v-.1a.775.775,0,0,0-.88-.838,1.991,1.991,0,0,0-.9.222l-.133-.378a2.364,2.364,0,0,1,1.082-.263,1.282,1.282,0,0,1,.96.342,1.251,1.251,0,0,1,.311.911v1.892h-.437v-.461a1.286,1.286,0,0,1-1.07.527,1.01,1.01,0,0,1-1.109-.964m2.186-.24V98.62a2.975,2.975,0,0,0-.87-.132c-.552,0-.868.251-.868.624v.011a.666.666,0,0,0,.747.617.9.9,0,0,0,.991-.833" fill="#12100b"/>
      <path id="Trazado_37" data-name="Trazado 37" d="M85.694,96.949h.443v.808a1.272,1.272,0,0,1,1.213-.862v.5h-.034c-.65,0-1.179.486-1.179,1.42v1.234h-.443Z" fill="#12100b"/>
      <path id="Trazado_38" data-name="Trazado 38" d="M88.232,99.147v-.012c0-.665.517-1.013,1.271-1.013a3.016,3.016,0,0,1,.909.132v-.1a.775.775,0,0,0-.88-.838,1.988,1.988,0,0,0-.9.222l-.133-.378a2.36,2.36,0,0,1,1.081-.263,1.283,1.283,0,0,1,.96.342,1.25,1.25,0,0,1,.31.911v1.892h-.435v-.461a1.288,1.288,0,0,1-1.071.527,1.011,1.011,0,0,1-1.109-.964m2.186-.24V98.62a2.965,2.965,0,0,0-.869-.132c-.552,0-.868.251-.868.624v.011a.666.666,0,0,0,.746.617.9.9,0,0,0,.991-.833" fill="#12100b"/>
      <path id="Trazado_39" data-name="Trazado 39" d="M94.675,95.762h.506v.509h-.506Zm.029,1.186h.443v3.1H94.7Z" fill="#12100b"/>
      <path id="Trazado_40" data-name="Trazado 40" d="M96.752,96.949h.443v.521a1.08,1.08,0,0,1,.96-.586,1.007,1.007,0,0,1,.954.616,1.179,1.179,0,0,1,1.048-.616,1.1,1.1,0,0,1,1.1,1.246v1.916h-.443V98.236c0-.6-.288-.935-.771-.935a.853.853,0,0,0-.823.958v1.785h-.437V98.224c0-.58-.294-.922-.765-.922a.885.885,0,0,0-.828.977v1.766h-.443Z" fill="#12100b"/>
      <path id="Trazado_41" data-name="Trazado 41" d="M102.8,96.949h.442v.623a1.329,1.329,0,0,1,1.139-.689,1.484,1.484,0,0,1,1.42,1.605V98.5a1.491,1.491,0,0,1-1.42,1.611,1.331,1.331,0,0,1-1.139-.659V101H102.8Zm2.547,1.557v-.012a1.1,1.1,0,0,0-1.047-1.2,1.134,1.134,0,0,0-1.075,1.191V98.5a1.132,1.132,0,0,0,1.075,1.2,1.076,1.076,0,0,0,1.047-1.193" fill="#12100b"/>
      <path id="Trazado_42" data-name="Trazado 42" d="M106.971,99.147v-.012c0-.665.518-1.013,1.27-1.013a3.009,3.009,0,0,1,.909.132v-.1a.775.775,0,0,0-.881-.838,1.988,1.988,0,0,0-.9.222l-.132-.378a2.353,2.353,0,0,1,1.082-.263,1.286,1.286,0,0,1,.96.342,1.257,1.257,0,0,1,.311.911v1.892h-.437v-.461a1.287,1.287,0,0,1-1.07.527,1.011,1.011,0,0,1-1.109-.964m2.185-.24V98.62a2.947,2.947,0,0,0-.868-.132c-.553,0-.869.251-.869.624v.011a.667.667,0,0,0,.748.617.9.9,0,0,0,.989-.833" fill="#12100b"/>
      <path id="Trazado_43" data-name="Trazado 43" d="M110.917,98.512V98.5a1.567,1.567,0,0,1,1.523-1.618,1.5,1.5,0,0,1,1.191.552l-.292.322a1.186,1.186,0,0,0-.9-.467,1.124,1.124,0,0,0-1.064,1.2V98.5a1.137,1.137,0,0,0,1.093,1.2,1.21,1.21,0,0,0,.908-.461l.282.276a1.513,1.513,0,0,1-1.215.6,1.56,1.56,0,0,1-1.523-1.605" fill="#12100b"/>
      <path id="Trazado_44" data-name="Trazado 44" d="M115.116,99.224V97.356H114.7v-.407h.414v-.935h.444v.935h.942v.407h-.942v1.809a.448.448,0,0,0,.5.515.9.9,0,0,0,.432-.108v.4a1.092,1.092,0,0,1-.536.132.773.773,0,0,1-.84-.875" fill="#12100b"/>
      <path id="Trazado_45" data-name="Trazado 45" d="M117.639,99.147v-.012c0-.665.517-1.013,1.27-1.013a3.013,3.013,0,0,1,.909.132v-.1a.775.775,0,0,0-.88-.838,1.991,1.991,0,0,0-.9.222l-.132-.378a2.362,2.362,0,0,1,1.082-.263,1.284,1.284,0,0,1,.96.342,1.252,1.252,0,0,1,.31.911v1.892h-.436v-.461a1.287,1.287,0,0,1-1.07.527,1.01,1.01,0,0,1-1.109-.964m2.185-.24V98.62a2.96,2.96,0,0,0-.869-.132c-.552,0-.868.251-.868.624v.011a.666.666,0,0,0,.747.617.9.9,0,0,0,.99-.833" fill="#12100b"/>
      <path id="Trazado_46" data-name="Trazado 46" d="M121.768,96.949h.444v.808a1.272,1.272,0,0,1,1.213-.862v.5h-.035c-.65,0-1.178.486-1.178,1.42v1.234h-.444Z" fill="#12100b"/>
    </g>
  </g>
</svg>
