<svg xmlns="http://www.w3.org/2000/svg" width="14.031" height="9.86" viewBox="0 0 14.031 9.86">
  <g id="Grupo_303" data-name="Grupo 303" transform="translate(0 0)">
    <g id="Grupo_300" data-name="Grupo 300">
      <g id="Grupo_299" data-name="Grupo 299">
        <path id="Trazado_608" data-name="Trazado 608" d="M1389.348,104.83a1.365,1.365,0,0,1,.965,2.331l-2.6,2.6,2.6,2.6a1.365,1.365,0,0,1-1.931,1.931l-3.564-3.565a1.365,1.365,0,0,1,0-1.931l3.564-3.565A1.362,1.362,0,0,1,1389.348,104.83Z" transform="translate(-1384.418 -104.83)" fill="#ce6a24"/>
      </g>
    </g>
    <g id="Grupo_302" data-name="Grupo 302" transform="translate(7.736)">
      <g id="Grupo_301" data-name="Grupo 301">
        <path id="Trazado_609" data-name="Trazado 609" d="M1407.634,104.83a1.365,1.365,0,0,1,.965,2.331l-2.6,2.6,2.6,2.6a1.365,1.365,0,1,1-1.931,1.931l-3.565-3.565a1.364,1.364,0,0,1,0-1.931l3.565-3.565A1.362,1.362,0,0,1,1407.634,104.83Z" transform="translate(-1402.704 -104.83)" fill="#ce6a24"/>
      </g>
    </g>
  </g>
</svg>
