<svg xmlns="http://www.w3.org/2000/svg" width="98" height="30" viewBox="0 0 98 30">
  <g id="Grupo_5" data-name="Grupo 5" transform="translate(-48.02 -35.603)">
    <path id="Trazado_47" data-name="Trazado 47" d="M83.509,41.772c0-3.715-2.66-5.8-7.335-5.8H67.635v19.7H72.17V47.907h2.436l4.366,7.768h4.873l-4.592-8.162C82.025,46.36,83.509,44.614,83.509,41.772Zm-6.888,2.42H72.17v-4.5h4.451c1.68,0,2.492.873,2.492,2.251S78.3,44.192,76.621,44.192Z" fill="#2f3634"/>
    <path id="Trazado_48" data-name="Trazado 48" d="M92.018,47.429H101V43.545H92.018V39.971h9.771v-4H87.482v19.7h14.39v-4H92.018Z" fill="#2f3634"/>
    <path id="Trazado_49" data-name="Trazado 49" d="M115.095,51.842a5.386,5.386,0,0,1-4.026-1.685,5.933,5.933,0,0,1-1.621-4.328,5.911,5.911,0,0,1,1.621-4.354,5.4,5.4,0,0,1,4-1.657c2.264,0,3.97,1.209,5.116,3.6l3.772-2.64c-1.34-3.119-4.584-5.17-8.747-5.17a10.135,10.135,0,0,0-7.38,2.866,9.867,9.867,0,0,0-2.905,7.36,9.707,9.707,0,0,0,10.174,10.228c4.136,0,6.68-1.629,9.028-5.311L120.46,48.1C119.119,50.605,117.527,51.842,115.095,51.842Z" fill="#2f3634"/>
    <path id="Trazado_50" data-name="Trazado 50" d="M60.4,44.925a4.5,4.5,0,0,0,2.548-4.11c0-3.04-2.465-4.842-6.524-4.842h-8.4v19.7H56.7a7.87,7.87,0,0,0,5.013-1.6,5.168,5.168,0,0,0,2.045-4.306A4.945,4.945,0,0,0,60.4,44.925Zm-7.841-5.4h3.781c1.541,0,2.408.7,2.408,1.913s-.925,1.971-2.408,1.971H52.557Zm4,12.385h-4V47.12h4c1.933,0,2.857.929,2.857,2.421Q59.418,51.905,56.561,51.906Z" fill="#2f3634"/>
    <g id="Grupo_4" data-name="Grupo 4">
      <path id="Trazado_51" data-name="Trazado 51" d="M135.911,41.713l2.6,7a25.008,25.008,0,0,1,3.958-1.813l-4.427-10.93h-4.257v0l-7.98,19.7h4.928s0,0,0,0Z" fill="#2f3634"/>
      <path id="Trazado_52" data-name="Trazado 52" d="M141.093,55.676h4.927l-2.924-7.22a23.176,23.176,0,0,0-4,1.851Z" fill="#2f3634"/>
      <path id="Trazado_53" data-name="Trazado 53" d="M145.321,46.076a7.84,7.84,0,0,0-.115-.919,24.783,24.783,0,0,0-19.4,10.519h4.925A24.789,24.789,0,0,1,145.321,46.076Z" fill="#c00020"/>
    </g>
    <path id="Trazado_54" data-name="Trazado 54" d="M51.1,65.529l-.136-.573a1.266,1.266,0,0,1-1.15.646,1.692,1.692,0,0,1-1.291-.54,1.969,1.969,0,0,1-.506-1.389,1.873,1.873,0,0,1,.543-1.378,1.793,1.793,0,0,1,1.319-.551,1.715,1.715,0,0,1,1.571.905l-.433.3a1.242,1.242,0,0,0-1.149-.7,1.192,1.192,0,0,0-.9.4,1.431,1.431,0,0,0-.369,1.029,1.486,1.486,0,0,0,.338,1.018,1.124,1.124,0,0,0,.89.386,1.041,1.041,0,0,0,1.086-1.006H49.67V63.6h1.814v1.925Z" fill="#2f3634"/>
    <path id="Trazado_55" data-name="Trazado 55" d="M57.087,65.529l-.86-1.564H55.5v1.564h-.568V61.819h1.524a1.34,1.34,0,0,1,.911.291.948.948,0,0,1,.338.759,1.068,1.068,0,0,1-.875,1.049l.917,1.612ZM55.5,62.318v1.149h.918c.48,0,.718-.191.718-.572s-.238-.577-.718-.577Z" fill="#2f3634"/>
    <path id="Trazado_56" data-name="Trazado 56" d="M63.838,61.819V64.21a1.326,1.326,0,0,1-.4,1.028A1.475,1.475,0,0,1,62.4,65.6a1.494,1.494,0,0,1-1.043-.366,1.342,1.342,0,0,1-.4-1.028V61.819h.57v2.374a.87.87,0,1,0,1.739,0V61.819Z" fill="#2f3634"/>
    <path id="Trazado_57" data-name="Trazado 57" d="M67.314,65.529V61.819h1.614a1.4,1.4,0,0,1,.964.318,1.08,1.08,0,0,1,.364.864,1.167,1.167,0,0,1-1.328,1.182H67.883v1.347Zm.57-3.2v1.346h1.023c.5,0,.78-.248.78-.667s-.28-.678-.78-.678Z" fill="#2f3634"/>
    <path id="Trazado_58" data-name="Trazado 58" d="M76.714,63.679a1.912,1.912,0,0,1-.527,1.383,1.865,1.865,0,0,1-2.625,0,2.087,2.087,0,0,1,0-2.773,1.846,1.846,0,0,1,2.625.005A1.894,1.894,0,0,1,76.714,63.679Zm-1.84,1.4a1.168,1.168,0,0,0,.9-.386,1.634,1.634,0,0,0,0-2.041,1.232,1.232,0,0,0-1.8,0,1.633,1.633,0,0,0,0,2.041A1.165,1.165,0,0,0,74.874,65.082Z" fill="#2f3634"/>
    <path id="Trazado_59" data-name="Trazado 59" d="M83.993,65.529V61.819h2.426v.509H84.563v1.027h1.708v.51H84.563v1.155h1.871v.51Z" fill="#2f3634"/>
    <path id="Trazado_60" data-name="Trazado 60" d="M89.789,65.529V61.819h.605l1.25,3.143,1.249-3.143H93.5v3.711h-.549V62.958l-.19.524-.843,2.047H91.37l-.842-2.047q-.166-.437-.191-.524v2.571Z" fill="#2f3634"/>
    <path id="Trazado_61" data-name="Trazado 61" d="M97.015,65.529V61.819h1.613a1.4,1.4,0,0,1,.964.318,1.077,1.077,0,0,1,.364.864,1.167,1.167,0,0,1-1.328,1.182H97.583v1.347Zm.568-3.2v1.346h1.024c.5,0,.78-.248.78-.667s-.28-.678-.78-.678Z" fill="#2f3634"/>
    <path id="Trazado_62" data-name="Trazado 62" d="M105.338,65.529l-.858-1.564h-.729v1.564h-.569V61.819h1.523a1.341,1.341,0,0,1,.912.291.951.951,0,0,1,.337.759,1.067,1.067,0,0,1-.874,1.049L106,65.529Zm-1.587-3.212v1.149h.918c.479,0,.716-.191.716-.572s-.237-.577-.716-.577Z" fill="#2f3634"/>
    <path id="Trazado_63" data-name="Trazado 63" d="M109.277,65.529V61.819H111.7v.509h-1.856v1.027h1.709v.51h-1.709v1.155h1.872v.51Z" fill="#2f3634"/>
    <path id="Trazado_64" data-name="Trazado 64" d="M116.461,63.376c.806.153,1.191.494,1.191,1.108a1.019,1.019,0,0,1-.374.795,1.583,1.583,0,0,1-2.489-.847l.5-.26a.963.963,0,0,0,1.007.933c.469,0,.785-.265.785-.6,0-.376-.279-.551-.939-.679-.738-.148-1.186-.5-1.186-1.091a.866.866,0,0,1,.354-.716,1.43,1.43,0,0,1,.912-.275,1.35,1.35,0,0,1,1.365.922l-.454.265a.9.9,0,0,0-.917-.689c-.407,0-.723.18-.723.482C115.5,63.059,115.792,63.245,116.461,63.376Z" fill="#2f3634"/>
    <path id="Trazado_65" data-name="Trazado 65" d="M120.555,65.529l1.477-3.711h.569l1.477,3.711h-.6l-.4-1.034h-1.529l-.4,1.034Zm1.762-3.059-.127.355L121.742,64h1.15l-.449-1.172Z" fill="#2f3634"/>
    <path id="Trazado_66" data-name="Trazado 66" d="M129.345,65.529l-.86-1.564h-.727v1.564h-.57V61.819h1.524a1.343,1.343,0,0,1,.912.291.95.95,0,0,1,.336.759,1.066,1.066,0,0,1-.874,1.049L130,65.529Zm-1.587-3.212v1.149h.917c.481,0,.717-.191.717-.572s-.236-.577-.717-.577Z" fill="#2f3634"/>
    <path id="Trazado_67" data-name="Trazado 67" d="M133.293,65.529V61.819h.57v3.711Z" fill="#2f3634"/>
    <path id="Trazado_68" data-name="Trazado 68" d="M136.967,65.529l1.477-3.711h.57l1.476,3.711h-.6l-.395-1.034h-1.53l-.4,1.034Zm1.762-3.059-.127.355L138.153,64H139.3l-.448-1.172Z" fill="#2f3634"/>
    <path id="Trazado_69" data-name="Trazado 69" d="M143.6,65.529V61.819h.569v3.2h1.851v.51Z" fill="#2f3634"/>
  </g>
</svg>
