<svg xmlns="http://www.w3.org/2000/svg" width="151.414" height="215.215" viewBox="0 0 151.414 215.215">
  <g id="Grupo_6" data-name="Grupo 6" transform="translate(-198.334 287.063)">
    <path id="Trazado_70" data-name="Trazado 70" d="M293.38-187.661l-1.456,2.512-1.478-2.5a8.609,8.609,0,0,1-.945-6.6l.3-1.1a1.173,1.173,0,0,1,1.1-.86l1.956-.008a1.12,1.12,0,0,1,1.1.851l.31,1.1a8.926,8.926,0,0,1-.888,6.605m2.349-8.2a2.992,2.992,0,0,0-2.883-2.249l-1.956.008a2.941,2.941,0,0,0-2.863,2.274l-.3,1.1a10.762,10.762,0,0,0,1.135,8l2.216,3.719a.975.975,0,0,0,.858.485.976.976,0,0,0,.853-.492l2.184-3.738a10.481,10.481,0,0,0,1.065-8.011Z" transform="translate(-21.056 -21.365)" fill="#2e335e"/>
    <path id="Trazado_71" data-name="Trazado 71" d="M293.89-228.765A2.739,2.739,0,0,1,291.152-226a2.739,2.739,0,0,1-2.763-2.738,2.74,2.74,0,0,1,2.739-2.763,2.778,2.778,0,0,1,2.762,2.738m-7.334.032a4.617,4.617,0,0,0,4.6,4.564,4.617,4.617,0,0,0,4.564-4.6,4.617,4.617,0,0,0-4.6-4.564,4.617,4.617,0,0,0-4.564,4.6" transform="translate(-20.85 -12.904)" fill="#2e335e"/>
    <path id="Trazado_72" data-name="Trazado 72" d="M296.9-216.1a39.766,39.766,0,0,0,.393-8.07,14.907,14.907,0,0,1,4.313,7.989l.438,2.32Zm-2.433,2.883c0,.122-.122.184-.244.185l-3.668-.229a40.485,40.485,0,0,0-5.44.024l-3.849.261c-.122,0-.245-.06-.245-.182v-.062a39.512,39.512,0,0,1,5.552-30.829l1.032-1.593,1.292,1.95a38.438,38.438,0,0,1,5.571,30.476m-21.029-.581.418-2.325a15,15,0,0,1,4.305-8.025,45.251,45.251,0,0,0,.4,8.128Zm29.938-2.757a17.026,17.026,0,0,0-6.34-10.242,39.77,39.77,0,0,0-6.617-17.88l-1.353-1.95a1.8,1.8,0,0,0-1.471-.788,1.718,1.718,0,0,0-1.463.8l-1.093,1.655a40.5,40.5,0,0,0-6.645,18.243,16.754,16.754,0,0,0-6.373,10.3l-.418,2.385a1.809,1.809,0,0,0,.68,1.77,1.661,1.661,0,0,0,1.041.362,1.869,1.869,0,0,0,.794-.187l4.759-2.037c.124.489.187.977.312,1.466l.061.122a2.055,2.055,0,0,0,2.023,1.458h.122l3.85-.261a36.7,36.7,0,0,1,5.195-.022l3.668.229a2.1,2.1,0,0,0,2.133-1.6,12.615,12.615,0,0,0,.3-1.468l4.776,2a1.88,1.88,0,0,0,.795.18,1.659,1.659,0,0,0,1.038-.372,1.81,1.81,0,0,0,.665-1.775Z" transform="translate(-17.252 -9.523)" fill="#2e335e"/>
    <circle id="Elipse_1" data-name="Elipse 1" cx="50.001" cy="50.001" r="50.001" transform="translate(199.748 -143.974) rotate(-45)" fill="none" stroke="#2e335e" stroke-width="2"/>
    <path id="Trazado_73" data-name="Trazado 73" d="M270.823-129.329a8.709,8.709,0,0,0,8.709-8.709,8.709,8.709,0,0,0-8.709-8.71,8.709,8.709,0,0,0-8.709,8.71A8.709,8.709,0,0,0,270.823-129.329Z" transform="translate(-14.979 -33.702)" fill="none" stroke="#2e335e" stroke-width="2"/>
    <path id="Trazado_74" data-name="Trazado 74" d="M305.334-110.13A7.067,7.067,0,0,0,312.4-117.2a7.067,7.067,0,0,0-7.067-7.066,7.067,7.067,0,0,0-7.067,7.066A7.067,7.067,0,0,0,305.334-110.13Z" transform="translate(-23.663 -39.102)" fill="none" stroke="#2e335e" stroke-width="2"/>
    <path id="Trazado_75" data-name="Trazado 75" d="M296.733-138.27a3.533,3.533,0,0,0,3.533-3.533,3.533,3.533,0,0,0-3.533-3.534A3.533,3.533,0,0,0,293.2-141.8,3.533,3.533,0,0,0,296.733-138.27Z" transform="translate(-22.446 -34.041)" fill="none" stroke="#2e335e" stroke-width="2"/>
    <path id="Trazado_76" data-name="Trazado 76" d="M244.881-244.721a2.883,2.883,0,0,1-2.665-2.694h-.036a2.888,2.888,0,0,1-2.808,2.709v.014a2.886,2.886,0,0,1,2.8,2.622h.055a2.881,2.881,0,0,1,2.656-2.608Z" transform="translate(-9.517 -9.523)" fill="#2e335e"/>
    <path id="Trazado_77" data-name="Trazado 77" d="M208.44-221.625a2.883,2.883,0,0,1-2.665-2.694h-.036a2.888,2.888,0,0,1-2.808,2.709v.014a2.886,2.886,0,0,1,2.8,2.622h.055a2.881,2.881,0,0,1,2.656-2.608Z" transform="translate(-0.764 -15.07)" fill="#2e335e"/>
    <path id="Trazado_78" data-name="Trazado 78" d="M358.379-251.756a2.883,2.883,0,0,1-2.665-2.694h-.036a2.888,2.888,0,0,1-2.808,2.709v.014a2.886,2.886,0,0,1,2.8,2.622h.055a2.881,2.881,0,0,1,2.656-2.608Z" transform="translate(-36.777 -7.833)" fill="#2e335e"/>
    <path id="Trazado_79" data-name="Trazado 79" d="M353.285-174.9a2.883,2.883,0,0,1-2.665-2.694h-.036a2.888,2.888,0,0,1-2.808,2.709v.014a2.886,2.886,0,0,1,2.8,2.622h.055a2.881,2.881,0,0,1,2.656-2.608Z" transform="translate(-35.554 -26.293)" fill="#2e335e"/>
    <path id="Trazado_80" data-name="Trazado 80" d="M296.108-284.369a2.883,2.883,0,0,1-2.665-2.694h-.036a2.888,2.888,0,0,1-2.808,2.709v.014a2.886,2.886,0,0,1,2.8,2.622h.055a2.881,2.881,0,0,1,2.656-2.608Z" transform="translate(-21.821 0)" fill="#2e335e"/>
    <path id="Trazado_81" data-name="Trazado 81" d="M394.88-188.47a1.4,1.4,0,0,0,1.4-1.4,1.4,1.4,0,0,0-1.4-1.4,1.4,1.4,0,0,0-1.4,1.4,1.4,1.4,0,0,0,1.4,1.4" transform="translate(-46.532 -23.008)" fill="#2e335e"/>
    <path id="Trazado_82" data-name="Trazado 82" d="M330.48-219.844a1.4,1.4,0,0,0,1.4-1.4,1.4,1.4,0,0,0-1.4-1.4,1.4,1.4,0,0,0-1.4,1.4,1.4,1.4,0,0,0,1.4,1.4" transform="translate(-31.064 -15.473)" fill="#2e335e"/>
    <path id="Trazado_83" data-name="Trazado 83" d="M248.555-188.47a1.4,1.4,0,0,0,1.4-1.4,1.4,1.4,0,0,0-1.4-1.4,1.4,1.4,0,0,0-1.4,1.4,1.4,1.4,0,0,0,1.4,1.4" transform="translate(-11.386 -23.008)" fill="#2e335e"/>
    <path id="Trazado_84" data-name="Trazado 84" d="M216.018-165.092a1.4,1.4,0,0,0,1.4-1.4,1.4,1.4,0,0,0-1.4-1.4,1.4,1.4,0,0,0-1.4,1.4,1.4,1.4,0,0,0,1.4,1.4" transform="translate(-3.571 -28.623)" fill="#2e335e"/>
  </g>
</svg>
