<svg xmlns="http://www.w3.org/2000/svg" width="35.555" height="39.574" viewBox="0 0 35.555 39.574">
  <g id="Grupo_760" data-name="Grupo 760" transform="translate(-26)">
    <g id="Grupo_743" data-name="Grupo 743" transform="translate(46.869 6.415)">
      <g id="Grupo_742" data-name="Grupo 742" transform="translate(0)">
        <path id="Trazado_1339" data-name="Trazado 1339" d="M296.773,83a.773.773,0,1,0,.773.773A.773.773,0,0,0,296.773,83Z" transform="translate(-296 -83)" fill="#7dc7c5"/>
      </g>
    </g>
    <g id="Grupo_745" data-name="Grupo 745" transform="translate(39.14 6.415)">
      <g id="Grupo_744" data-name="Grupo 744">
        <path id="Trazado_1340" data-name="Trazado 1340" d="M196.773,83a.773.773,0,1,0,.773.773A.773.773,0,0,0,196.773,83Z" transform="translate(-196 -83)" fill="#7dc7c5"/>
      </g>
    </g>
    <g id="Grupo_747" data-name="Grupo 747" transform="translate(26)">
      <g id="Grupo_746" data-name="Grupo 746" transform="translate(0)">
        <path id="Trazado_1341" data-name="Trazado 1341" d="M60.559,23.1a6.181,6.181,0,0,0,1-3.314A5.368,5.368,0,0,0,59.6,15.634a5.225,5.225,0,0,0,.412-2.03,5.761,5.761,0,0,0-3.125-5.1,4.633,4.633,0,0,0-3.518-5.055A5.568,5.568,0,0,0,48.415,0a5.432,5.432,0,0,0-4.638,2.784A5.432,5.432,0,0,0,39.14,0a5.568,5.568,0,0,0-4.951,3.453A4.632,4.632,0,0,0,30.67,8.508a5.761,5.761,0,0,0-3.125,5.1,5.225,5.225,0,0,0,.412,2.03A5.369,5.369,0,0,0,26,19.787,6.181,6.181,0,0,0,27,23.1a5.336,5.336,0,0,0,.62,6.928,5.61,5.61,0,0,0,5.341,6.453h.071a6.093,6.093,0,0,0,10.75-.269,6.093,6.093,0,0,0,10.75.269H54.6a5.6,5.6,0,0,0,5.411-5.642,4.948,4.948,0,0,0-.069-.81,5.336,5.336,0,0,0,.62-6.928ZM43,11.7a3.072,3.072,0,0,0-1.546-.416.773.773,0,1,0,0,1.546A1.548,1.548,0,0,1,43,14.376v14.7a6.169,6.169,0,0,0-4.638-2.1.773.773,0,1,0,0,1.546A4.643,4.643,0,0,1,43,33.159a4.822,4.822,0,0,1-4.638,4.869,4.651,4.651,0,0,1-4.2-2.7.773.773,0,0,0-.788-.443l-.163.021c-2.2.3-4.677-2.19-4.006-4.977a.773.773,0,0,0-.257-.775A3.848,3.848,0,0,1,27.546,26.2a3.8,3.8,0,0,1,.567-1.989,5.215,5.215,0,0,0,3.3,1.216.773.773,0,0,0,0-1.546,4.063,4.063,0,0,1-3.865-4.1,3.843,3.843,0,0,1,1.8-3.257A.773.773,0,0,0,29.61,15.5a3.8,3.8,0,0,1-.518-1.892,4.081,4.081,0,0,1,3.865-4.1,4.09,4.09,0,0,1,3.865,4.1.773.773,0,0,0,1.546,0,5.6,5.6,0,0,0-5.411-5.642,5.012,5.012,0,0,0-.771.061c0-.02,0-.04,0-.061a3.092,3.092,0,0,1,5.278-2.186.773.773,0,1,0,1.093-1.094,4.606,4.606,0,0,0-2.564-1.3A3.9,3.9,0,0,1,39.14,1.546,4.09,4.09,0,0,1,43,5.642Zm13.14,13.729a5.217,5.217,0,0,0,3.3-1.216,3.8,3.8,0,0,1,.567,1.989A3.848,3.848,0,0,1,58.6,29.159a.773.773,0,0,0-.257.775,3.814,3.814,0,0,1,.12.906c0,2.4-2.17,4.338-4.126,4.071l-.163-.021a.772.772,0,0,0-.788.443,4.651,4.651,0,0,1-4.2,2.7,4.822,4.822,0,0,1-4.638-4.869,4.643,4.643,0,0,1,4.638-4.638.773.773,0,0,0,0-1.546,6.169,6.169,0,0,0-4.638,2.1v-14.7A1.548,1.548,0,0,1,46.1,12.831a.773.773,0,0,0,0-1.546,3.072,3.072,0,0,0-1.546.416V5.642a4.09,4.09,0,0,1,3.865-4.1,3.9,3.9,0,0,1,3.149,1.833A4.607,4.607,0,0,0,49,4.681a.773.773,0,1,0,1.092,1.094,3.092,3.092,0,0,1,5.279,2.186c0,.02,0,.04,0,.061a5.012,5.012,0,0,0-.771-.061,5.6,5.6,0,0,0-5.41,5.642.773.773,0,1,0,1.546,0,3.871,3.871,0,1,1,7.729,0,3.8,3.8,0,0,1-.518,1.892A.773.773,0,0,0,58.2,16.53a3.843,3.843,0,0,1,1.8,3.257,4.062,4.062,0,0,1-3.865,4.1.773.773,0,0,0,0,1.546Z" transform="translate(-26)" fill="#7dc7c5"/>
      </g>
    </g>
    <g id="Grupo_749" data-name="Grupo 749" transform="translate(32.183 12.831)">
      <g id="Grupo_748" data-name="Grupo 748">
        <path id="Trazado_1342" data-name="Trazado 1342" d="M115.078,169.714a.773.773,0,0,0-1.091-.061,3.872,3.872,0,0,1-6.441-2.88.773.773,0,1,0-1.546,0,5.418,5.418,0,0,0,4.529,5.338,2.323,2.323,0,0,1-2.211,1.619.773.773,0,1,0,0,1.546,3.87,3.87,0,0,0,3.8-3.138,5.4,5.4,0,0,0,2.9-1.331A.773.773,0,0,0,115.078,169.714Z" transform="translate(-106 -166)" fill="#7dc7c5"/>
      </g>
    </g>
    <g id="Grupo_751" data-name="Grupo 751" transform="translate(32.183 30.067)">
      <g id="Grupo_750" data-name="Grupo 750">
        <path id="Trazado_1343" data-name="Trazado 1343" d="M106.773,389a.773.773,0,1,0,0,1.546,4.09,4.09,0,0,1,3.865,4.1.773.773,0,0,0,1.546,0A5.6,5.6,0,0,0,106.773,389Z" transform="translate(-106 -389)" fill="#7dc7c5"/>
      </g>
    </g>
    <g id="Grupo_753" data-name="Grupo 753" transform="translate(32.987 23.884)">
      <g id="Grupo_752" data-name="Grupo 752" transform="translate(0)">
        <path id="Trazado_1344" data-name="Trazado 1344" d="M122.551,309a6.942,6.942,0,0,0-6.052,3.525.773.773,0,0,0,1.345.762,5.4,5.4,0,0,1,4.707-2.742.773.773,0,1,0,0-1.546Z" transform="translate(-116.398 -309)" fill="#7dc7c5"/>
      </g>
    </g>
    <g id="Grupo_755" data-name="Grupo 755" transform="translate(46.096 12.831)">
      <g id="Grupo_754" data-name="Grupo 754">
        <path id="Trazado_1345" data-name="Trazado 1345" d="M292.956,173.729a2.323,2.323,0,0,1-2.211-1.619,5.418,5.418,0,0,0,4.529-5.338.773.773,0,1,0-1.546,0,3.865,3.865,0,0,1-6.441,2.88.773.773,0,1,0-1.031,1.152,5.4,5.4,0,0,0,2.9,1.331,3.87,3.87,0,0,0,3.8,3.138.773.773,0,0,0,0-1.546Z" transform="translate(-286 -166)" fill="#7dc7c5"/>
      </g>
    </g>
    <g id="Grupo_757" data-name="Grupo 757" transform="translate(49.188 30.067)">
      <g id="Grupo_756" data-name="Grupo 756">
        <path id="Trazado_1346" data-name="Trazado 1346" d="M331.411,389A5.6,5.6,0,0,0,326,394.642a.773.773,0,0,0,1.546,0,4.09,4.09,0,0,1,3.865-4.1.773.773,0,1,0,0-1.546Z" transform="translate(-326 -389)" fill="#7dc7c5"/>
      </g>
    </g>
    <g id="Grupo_759" data-name="Grupo 759" transform="translate(47.642 23.884)">
      <g id="Grupo_758" data-name="Grupo 758">
        <path id="Trazado_1347" data-name="Trazado 1347" d="M312.825,312.525A6.941,6.941,0,0,0,306.773,309a.773.773,0,1,0,0,1.546,5.4,5.4,0,0,1,4.707,2.742.773.773,0,0,0,1.345-.762Z" transform="translate(-306 -309)" fill="#7dc7c5"/>
      </g>
    </g>
  </g>
</svg>
