<svg xmlns="http://www.w3.org/2000/svg" width="464.32" height="145.719" viewBox="0 0 464.32 145.719">
  <g id="Grupo_855" data-name="Grupo 855" transform="translate(101.962 -556.063)">
    <g id="Objeto_inteligente_vectorial" data-name="Objeto inteligente vectorial" transform="translate(247.989 556.063)">
      <g id="Objeto_inteligente_vectorial-2" data-name="Objeto inteligente vectorial" transform="translate(0)">
        <path id="Trazado_11" data-name="Trazado 11" d="M198.674,568.487a3.36,3.36,0,0,1-.621-4.4l-.035-.026a3.429,3.429,0,0,1-4.571.577l-.01.014a3.364,3.364,0,0,1,.8,4.424l.052.038a3.422,3.422,0,0,1,4.356-.589Z" transform="translate(-115.993 -564.063)" fill="#fff"/>
        <path id="Trazado_12" data-name="Trazado 12" d="M190,598.881a3.36,3.36,0,0,1-.621-4.4l-.035-.026a3.429,3.429,0,0,1-4.571.577l-.01.014a3.364,3.364,0,0,1,.8,4.424l.052.038a3.422,3.422,0,0,1,4.356-.589Z" transform="translate(-119.147 -553.018)" fill="#fff"/>
        <path id="Trazado_13" data-name="Trazado 13" d="M141.872,593.079a3.36,3.36,0,0,1-.621-4.4l-.035-.026a3.429,3.429,0,0,1-4.571.577l-.01.014a3.364,3.364,0,0,1,.8,4.424l.052.038a3.422,3.422,0,0,1,4.356-.589Z" transform="translate(-136.635 -555.126)" fill="#fff"/>
        <path id="Trazado_14" data-name="Trazado 14" d="M218.76,596.672a1.662,1.662,0,0,0,2.314-.334,1.632,1.632,0,0,0-.338-2.3,1.661,1.661,0,0,0-2.313.334,1.632,1.632,0,0,0,.336,2.3" transform="translate(-107.033 -553.287)" fill="#fff"/>
        <path id="Trazado_15" data-name="Trazado 15" d="M171.408,570.525a1.662,1.662,0,0,0,2.314-.335,1.632,1.632,0,0,0-.338-2.3,1.661,1.661,0,0,0-2.313.334,1.632,1.632,0,0,0,.336,2.3" transform="translate(-124.24 -562.789)" fill="#fff"/>
      </g>
      <path id="Color_Overlay" data-name="Color Overlay" d="M66.41,46.454a3.365,3.365,0,0,0-.8-4.424l.01-.013a3.429,3.429,0,0,0,4.571-.577l.034.025a3.361,3.361,0,0,0,.622,4.4l-.031.04a3.422,3.422,0,0,0-4.356.589Zm45.317-3.07a1.632,1.632,0,0,1-.336-2.3,1.661,1.661,0,0,1,2.313-.334,1.632,1.632,0,0,1,.337,2.3,1.661,1.661,0,0,1-2.314.334ZM.8,38.543A3.363,3.363,0,0,0,0,34.12l.011-.013a3.428,3.428,0,0,0,4.57-.578l.036.026a3.359,3.359,0,0,0,.621,4.4l-.031.041a3.422,3.422,0,0,0-4.356.589ZM47.168,7.737a1.631,1.631,0,0,1-.336-2.3,1.661,1.661,0,0,1,2.313-.335,1.634,1.634,0,0,1,.337,2.3,1.663,1.663,0,0,1-2.314.335ZM78.244,5.015a3.366,3.366,0,0,0-.8-4.425l.01-.013A3.428,3.428,0,0,0,82.026,0l.034.026a3.36,3.36,0,0,0,.622,4.4l-.031.04a3.422,3.422,0,0,0-4.356.589Z" transform="translate(0 0)" fill="#2e335e"/>
    </g>
    <g id="Grupo_180" data-name="Grupo 180" transform="translate(-109.753 560.443)">
      <g id="Grupo_175" data-name="Grupo 175" transform="translate(232.552)">
        <path id="Trazado_349" data-name="Trazado 349" d="M11797.463-972.988l-2.485,1.208.164-2.76a8.2,8.2,0,0,1,2.767-5.712l.823-.709a1.123,1.123,0,0,1,1.326-.1l1.548,1.035a1.066,1.066,0,0,1,.417,1.26l-.34,1.033a8.494,8.494,0,0,1-4.22,4.742m6.222-5.224a2.847,2.847,0,0,0-1.076-3.31l-1.55-1.035a2.8,2.8,0,0,0-3.471.271l-.824.71a10.252,10.252,0,0,0-3.365,6.922l-.231,4.116a.934.934,0,0,0,.419.84.931.931,0,0,0,.938.066l3.716-1.788a9.986,9.986,0,0,0,5.107-5.757Z" transform="translate(-11790.52 1012.153)" fill="#ef8b44"/>
        <path id="Trazado_350" data-name="Trazado 350" d="M11838.687-1029.71a2.609,2.609,0,0,1-3.634.722,2.607,2.607,0,0,1-.722-3.633,2.607,2.607,0,0,1,3.632-.722,2.644,2.644,0,0,1,.724,3.633m-5.808-3.881a4.4,4.4,0,0,0,1.2,6.055,4.4,4.4,0,0,0,6.054-1.2,4.4,4.4,0,0,0-1.2-6.055,4.4,4.4,0,0,0-6.057,1.2" transform="translate(-11813.792 1043.485)" fill="#ef8b44"/>
        <path id="Trazado_351" data-name="Trazado 351" d="M11808.162-1025.32a37.744,37.744,0,0,0,4.609-6.161,14.2,14.2,0,0,1-.85,8.6l-.89,2.066Zm-3.454.981c-.065.1-.193.08-.292.016l-2.773-2.134a38.432,38.432,0,0,0-4.308-2.878l-3.177-1.844c-.1-.065-.163-.178-.1-.274l.033-.049a37.625,37.625,0,0,1,20.8-21.383l1.664-.709-.019,2.228a36.6,36.6,0,0,1-11.829,27.027M11788.415-1036l1.568-1.613a14.281,14.281,0,0,1,7.672-4.043,43.319,43.319,0,0,0-4.011,6.63Zm25.1,13.766a16.207,16.207,0,0,0,.447-11.461,37.885,37.885,0,0,0,4.3-17.64l-.03-2.26a1.715,1.715,0,0,0-.741-1.405,1.637,1.637,0,0,0-1.581-.147l-1.745.725a38.581,38.581,0,0,0-14.961,10.864,15.954,15.954,0,0,0-10.514,4.734l-1.6,1.661a1.721,1.721,0,0,0-.405,1.759,1.583,1.583,0,0,0,.627.84,1.812,1.812,0,0,0,.728.275l4.843.925c-.162.452-.372.871-.535,1.323l-.016.129a1.958,1.958,0,0,0,.82,2.229l.1.065,3.179,1.844a35.3,35.3,0,0,1,4.114,2.749l2.774,2.134a2,2,0,0,0,2.534-.126,12.268,12.268,0,0,0,1.018-1l2.708,4.12a1.8,1.8,0,0,0,.531.565,1.579,1.579,0,0,0,1.017.26,1.719,1.719,0,0,0,1.47-1.047Z" transform="translate(-11786.597 1055.283)" fill="#ef8b44"/>
      </g>
      <g id="Grupo_179" data-name="Grupo 179" transform="matrix(0.996, -0.087, 0.087, 0.996, 0, 42.958)">
        <path id="Trazado_359" data-name="Trazado 359" d="M2.74.852H2.65C1.885.852,1.113.824.357.769A.385.385,0,1,1,.413,0C1.151.054,1.9.081,2.65.081h.09a.385.385,0,0,1,0,.771Z" transform="translate(9.149 98.095)" fill="#7dc7c5" stroke="#7dc7c5" stroke-width="1"/>
        <path id="Trazado_360" data-name="Trazado 360" d="M.385,1.043a.385.385,0,0,1-.03-.77C1.125.213,1.9.123,2.666,0a.385.385,0,0,1,.118.762C2,.887,1.2.98.415,1.042Z" transform="translate(13.857 97.809)" fill="#7dc7c5" stroke="#7dc7c5" stroke-width="1"/>
        <path id="Trazado_361" data-name="Trazado 361" d="M2.7,1.209a.4.4,0,0,1-.058,0C1.861,1.088,1.072.938.3.761A.385.385,0,0,1,.472.009c.754.174,1.523.319,2.285.434a.385.385,0,0,1-.056.766Z" transform="translate(4.493 97.396)" fill="#7dc7c5" stroke="#7dc7c5" stroke-width="1"/>
        <path id="Trazado_362" data-name="Trazado 362" d="M.385,1.391A.385.385,0,0,1,.3.63C1.053.455,1.808.248,2.543.018a.385.385,0,1,1,.231.735c-.753.237-1.527.448-2.3.628A.384.384,0,0,1,.385,1.391Z" transform="translate(18.51 96.741)" fill="#7dc7c5" stroke="#7dc7c5" stroke-width="1"/>
        <path id="Trazado_363" data-name="Trazado 363" d="M2.6,1.561a.38.38,0,0,1-.115-.018C1.734,1.307.978,1.037.242.742A.385.385,0,0,1,.529.027C1.246.315,1.983.578,2.72.808a.385.385,0,0,1-.115.753Z" transform="translate(0 95.989)" fill="#7dc7c5" stroke="#7dc7c5" stroke-width="1"/>
        <path id="Trazado_364" data-name="Trazado 364" d="M.385,1.726A.385.385,0,0,1,.242.983C.916.714,1.588.417,2.24.1l.123-.06a.385.385,0,0,1,.35.686L2.575.8c-.667.323-1.356.627-2.047.9A.39.39,0,0,1,.385,1.726Z" transform="translate(23.001 94.995)" fill="#7dc7c5" stroke="#7dc7c5" stroke-width="1"/>
        <path id="Trazado_365" data-name="Trazado 365" d="M.386,2.034a.385.385,0,0,1-.2-.718C.854.927,1.514.508,2.155.068A.385.385,0,1,1,2.591.7c-.656.45-1.332.88-2.011,1.278A.383.383,0,0,1,.386,2.034Z" transform="translate(27.228 92.616)" fill="#7dc7c5" stroke="#7dc7c5" stroke-width="1"/>
        <path id="Trazado_366" data-name="Trazado 366" d="M.386,2.293a.385.385,0,0,1-.239-.688C.752,1.126,1.35.62,1.923.1a.385.385,0,1,1,.517.571C1.854,1.2,1.243,1.72.624,2.21A.383.383,0,0,1,.386,2.293Z" transform="translate(31.111 89.696)" fill="#7dc7c5" stroke="#7dc7c5" stroke-width="1"/>
        <path id="Trazado_367" data-name="Trazado 367" d="M2.348.8Q1.358.8.373.77A.385.385,0,1,1,.4,0q.973.032,1.95.032h.388L2.742.8Z" transform="translate(61.828 90.75)" fill="#7dc7c5" stroke="#7dc7c5" stroke-width="1"/>
        <path id="Trazado_368" data-name="Trazado 368" d="M.385.922A.385.385,0,0,1,.368.151C1.147.116,1.932.066,2.7,0a.38.38,0,0,1,.416.352A.385.385,0,0,1,2.766.77C1.986.835,1.191.885.4.921Z" transform="translate(66.535 90.57)" fill="#7dc7c5" stroke="#7dc7c5" stroke-width="1"/>
        <path id="Trazado_369" data-name="Trazado 369" d="M2.731.992H2.7C1.92.934,1.125.859.341.768A.385.385,0,1,1,.43,0c.773.09,1.557.164,2.33.22a.385.385,0,0,1-.028.77Z" transform="translate(57.129 90.403)" fill="#7dc7c5" stroke="#7dc7c5" stroke-width="1"/>
        <path id="Trazado_370" data-name="Trazado 370" d="M.385,1.092A.385.385,0,0,1,.34.324C1.114.231,1.894.123,2.657,0A.389.389,0,0,1,3.1.325a.386.386,0,0,1-.321.44C2,.886,1.215,1,.431,1.089Z" transform="translate(71.225 90.013)" fill="#7dc7c5" stroke="#7dc7c5" stroke-width="1"/>
        <path id="Trazado_371" data-name="Trazado 371" d="M2.7,1.2a.365.365,0,0,1-.062-.005L2.11,1.1q-.9-.154-1.8-.34A.385.385,0,0,1,.464.008Q1.351.193,2.24.344l.524.087A.385.385,0,0,1,2.7,1.2Z" transform="translate(52.478 89.655)" fill="#7dc7c5" stroke="#7dc7c5" stroke-width="1"/>
        <path id="Trazado_372" data-name="Trazado 372" d="M.385,1.256A.386.386,0,0,1,.312.492C1.07.346,1.84.184,2.6.009A.385.385,0,0,1,2.775.76C2,.937,1.224,1.1.458,1.249A.394.394,0,0,1,.385,1.256Z" transform="translate(75.876 89.122)" fill="#7dc7c5" stroke="#7dc7c5" stroke-width="1"/>
        <path id="Trazado_373" data-name="Trazado 373" d="M2.647,1.433a.383.383,0,0,1-.1-.013C1.765,1.214,1,.989.266.751A.385.385,0,0,1,.5.019c.717.233,1.471.454,2.24.656a.386.386,0,0,1-.1.758Z" transform="translate(47.922 88.457)" fill="#7dc7c5" stroke="#7dc7c5" stroke-width="1"/>
        <path id="Trazado_374" data-name="Trazado 374" d="M.385,1.413a.385.385,0,0,1-.1-.758C1.043.455,1.8.239,2.539.016a.385.385,0,0,1,.223.737C2.016.98,1.249,1.2.484,1.4A.366.366,0,0,1,.385,1.413Z" transform="translate(80.465 87.915)" fill="#7dc7c5" stroke="#7dc7c5" stroke-width="1"/>
        <path id="Trazado_375" data-name="Trazado 375" d="M.385,2.51a.385.385,0,0,1-.276-.654C.644,1.306,1.173.726,1.681.135a.385.385,0,1,1,.585.5c-.518.6-1.057,1.2-1.6,1.757A.385.385,0,0,1,.385,2.51Z" transform="translate(34.602 86.321)" fill="#7dc7c5" stroke="#7dc7c5" stroke-width="1"/>
        <path id="Trazado_376" data-name="Trazado 376" d="M2.54,1.723A.388.388,0,0,1,2.4,1.7C1.645,1.394.912,1.07.217.731A.385.385,0,1,1,.554.039c.678.33,1.395.647,2.129.941a.385.385,0,0,1-.143.743Z" transform="translate(43.551 86.704)" fill="#7dc7c5" stroke="#7dc7c5" stroke-width="1"/>
        <path id="Trazado_377" data-name="Trazado 377" d="M.385,1.565A.385.385,0,0,1,.262.814C1,.564,1.742.3,2.467.025a.385.385,0,0,1,.272.721c-.734.277-1.484.545-2.23.8A.381.381,0,0,1,.385,1.565Z" transform="translate(84.972 86.403)" fill="#7dc7c5" stroke="#7dc7c5" stroke-width="1"/>
        <path id="Trazado_378" data-name="Trazado 378" d="M2.356,2.061a.381.381,0,0,1-.2-.054C1.466,1.594.793,1.154.16.7A.385.385,0,0,1,.61.073c.614.443,1.268.871,1.943,1.271a.385.385,0,0,1-.2.717Z" transform="translate(39.505 84.299)" fill="#7dc7c5" stroke="#7dc7c5" stroke-width="1"/>
        <path id="Trazado_379" data-name="Trazado 379" d="M.386,1.71A.386.386,0,0,1,.237.969C.96.669,1.683.354,2.385.034a.385.385,0,0,1,.319.7c-.71.324-1.441.641-2.172.945A.392.392,0,0,1,.386,1.71Z" transform="translate(89.38 84.596)" fill="#7dc7c5" stroke="#7dc7c5" stroke-width="1"/>
        <path id="Trazado_380" data-name="Trazado 380" d="M.385,2.691a.386.386,0,0,1-.307-.618C.544,1.458,1,.818,1.428.172A.385.385,0,0,1,2.07.6c-.439.659-.9,1.311-1.377,1.94A.385.385,0,0,1,.385,2.691Z" transform="translate(37.668 82.566)" fill="#7dc7c5" stroke="#7dc7c5" stroke-width="1"/>
        <path id="Trazado_381" data-name="Trazado 381" d="M.386,1.853a.385.385,0,0,1-.172-.73Q1.263.6,2.295.046a.385.385,0,0,1,.366.678c-.684.369-1.392.735-2.1,1.088A.385.385,0,0,1,.386,1.853Z" transform="translate(93.667 82.502)" fill="#7dc7c5" stroke="#7dc7c5" stroke-width="1"/>
        <path id="Trazado_382" data-name="Trazado 382" d="M2.076,2.411a.384.384,0,0,1-.254-.1C1.277,1.837.748,1.329.25.8L.1.647A.385.385,0,1,1,.668.124L.808.273c.482.509.994,1,1.522,1.464a.385.385,0,0,1-.254.675Z" transform="translate(35.971 81.192)" fill="#7dc7c5" stroke="#7dc7c5" stroke-width="1"/>
        <path id="Trazado_383" data-name="Trazado 383" d="M.386,1.993a.386.386,0,0,1-.194-.718c.669-.39,1.343-.8,2-1.215a.385.385,0,1,1,.41.652c-.668.421-1.35.834-2.026,1.229A.387.387,0,0,1,.386,1.993Z" transform="translate(97.815 80.127)" fill="#7dc7c5" stroke="#7dc7c5" stroke-width="1"/>
        <path id="Trazado_384" data-name="Trazado 384" d="M.385,2.841a.38.38,0,0,1-.194-.053.385.385,0,0,1-.139-.527C.442,1.593.817.9,1.166.212a.385.385,0,1,1,.688.347C1.5,1.264,1.115,1.967.718,2.649A.385.385,0,0,1,.385,2.841Z" transform="translate(40.278 78.498)" fill="#7dc7c5" stroke="#7dc7c5" stroke-width="1"/>
        <path id="Trazado_385" data-name="Trazado 385" d="M1.674,2.743a.384.384,0,0,1-.311-.157A22,22,0,0,1,.052.578.385.385,0,0,1,.719.193,21.139,21.139,0,0,0,1.984,2.13a.386.386,0,0,1-.31.614Z" transform="translate(33.183 77.402)" fill="#7dc7c5" stroke="#7dc7c5" stroke-width="1"/>
        <path id="Trazado_386" data-name="Trazado 386" d="M.386,2.128a.386.386,0,0,1-.217-.7C.816.985,1.46.531,2.083.074A.385.385,0,0,1,2.539.7C1.908,1.158,1.256,1.617.6,2.062A.387.387,0,0,1,.386,2.128Z" transform="translate(101.8 77.48)" fill="#7dc7c5" stroke="#7dc7c5" stroke-width="1"/>
        <path id="Trazado_387" data-name="Trazado 387" d="M.385,2.96a.386.386,0,0,1-.353-.538C.339,1.711.629.981.893.254a.385.385,0,1,1,.724.263C1.348,1.258,1.053,2,.739,2.728A.385.385,0,0,1,.385,2.96Z" transform="translate(42.402 74.176)" fill="#7dc7c5" stroke="#7dc7c5" stroke-width="1"/>
        <path id="Trazado_388" data-name="Trazado 388" d="M.386,2.262a.385.385,0,0,1-.239-.688C.755,1.095,1.366.6,1.961.092a.385.385,0,0,1,.5.588c-.6.51-1.219,1.014-1.835,1.5A.384.384,0,0,1,.386,2.262Z" transform="translate(105.603 74.564)" fill="#7dc7c5" stroke="#7dc7c5" stroke-width="1"/>
        <path id="Trazado_389" data-name="Trazado 389" d="M1.227,2.971a.386.386,0,0,1-.352-.229A22.535,22.535,0,0,1,.019.5.385.385,0,1,1,.752.267a21.849,21.849,0,0,0,.827,2.162.386.386,0,0,1-.352.542Z" transform="translate(31.272 73.103)" fill="#7dc7c5" stroke="#7dc7c5" stroke-width="1"/>
        <path id="Trazado_390" data-name="Trazado 390" d="M.385,2.391a.386.386,0,0,1-.26-.67C.7,1.2,1.273.654,1.826.11a.385.385,0,0,1,.54.55c-.56.55-1.139,1.1-1.721,1.63A.385.385,0,0,1,.385,2.391Z" transform="translate(109.198 71.389)" fill="#7dc7c5" stroke="#7dc7c5" stroke-width="1"/>
        <path id="Trazado_391" data-name="Trazado 391" d="M.386,3.053a.377.377,0,0,1-.109-.016.385.385,0,0,1-.26-.479l.112-.387C.308,1.535.466.907.6.3A.385.385,0,0,1,1.35.469c-.135.618-.3,1.262-.481,1.912l-.114.4A.386.386,0,0,1,.386,3.053Z" transform="translate(44.007 69.655)" fill="#7dc7c5" stroke="#7dc7c5" stroke-width="1"/>
        <path id="Trazado_392" data-name="Trazado 392" d="M.724,3.1a.386.386,0,0,1-.377-.309A20.819,20.819,0,0,1,0,.419.385.385,0,1,1,.769.353,20.088,20.088,0,0,0,1.1,2.64a.385.385,0,0,1-.3.454A.4.4,0,0,1,.724,3.1Z" transform="translate(30.333 68.494)" fill="#7dc7c5" stroke="#7dc7c5" stroke-width="1"/>
        <path id="Trazado_393" data-name="Trazado 393" d="M.385,2.515a.386.386,0,0,1-.28-.65C.637,1.3,1.166.718,1.678.131a.385.385,0,0,1,.581.507C1.74,1.232,1.2,1.823.665,2.394A.384.384,0,0,1,.385,2.515Z" transform="translate(112.557 67.962)" fill="#7dc7c5" stroke="#7dc7c5" stroke-width="1"/>
        <path id="Trazado_394" data-name="Trazado 394" d="M.386,3.107l-.047,0A.385.385,0,0,1,0,2.675,19.094,19.094,0,0,0,.146.4.4.4,0,0,1,.531,0,.373.373,0,0,1,.916.371a20.011,20.011,0,0,1-.148,2.4A.385.385,0,0,1,.386,3.107Z" transform="translate(44.992 64.997)" fill="#7dc7c5" stroke="#7dc7c5" stroke-width="1"/>
        <path id="Trazado_395" data-name="Trazado 395" d="M.385,2.606a.386.386,0,0,1-.3-.63Q.836,1.067,1.561.147a.385.385,0,1,1,.605.477Q1.437,1.55.683,2.465A.385.385,0,0,1,.385,2.606Z" transform="translate(115.66 64.325)" fill="#7dc7c5" stroke="#7dc7c5" stroke-width="1"/>
        <path id="Trazado_396" data-name="Trazado 396" d="M.386,3.114H.37a.385.385,0,0,1-.37-.4A18.263,18.263,0,0,1,.249.321a.385.385,0,0,1,.759.131A17.488,17.488,0,0,0,.77,2.744.385.385,0,0,1,.386,3.114Z" transform="translate(30.274 63.797)" fill="#7dc7c5" stroke="#7dc7c5" stroke-width="1"/>
        <path id="Trazado_397" data-name="Trazado 397" d="M.976,3.048A.385.385,0,0,1,.6,2.724,11.634,11.634,0,0,0,.024.52.385.385,0,0,1,.747.251,12.423,12.423,0,0,1,1.357,2.6a.385.385,0,0,1-.319.441A.37.37,0,0,1,.976,3.048Z" transform="translate(44.364 60.359)" fill="#7dc7c5" stroke="#7dc7c5" stroke-width="1"/>
        <path id="Trazado_398" data-name="Trazado 398" d="M.385,2.67a.386.386,0,0,1-.307-.617Q.784,1.114,1.467.161A.385.385,0,0,1,2.093.61Q1.4,1.57.693,2.516A.385.385,0,0,1,.385,2.67Z" transform="translate(118.577 60.559)" fill="#7dc7c5" stroke="#7dc7c5" stroke-width="1"/>
        <path id="Trazado_399" data-name="Trazado 399" d="M.385,2.944a.386.386,0,0,1-.367-.5q.069-.213.144-.425A13.865,13.865,0,0,1,.946.207a.385.385,0,1,1,.683.357A13.1,13.1,0,0,0,.889,2.27c-.047.135-.093.271-.137.407A.386.386,0,0,1,.385,2.944Z" transform="translate(31.079 59.338)" fill="#7dc7c5" stroke="#7dc7c5" stroke-width="1"/>
        <path id="Trazado_400" data-name="Trazado 400" d="M.385,2.735a.386.386,0,0,1-.318-.6Q.727,1.162,1.362.177A.385.385,0,1,1,2.01.593Q1.369,1.588.7,2.566A.384.384,0,0,1,.385,2.735Z" transform="translate(121.321 56.663)" fill="#7dc7c5" stroke="#7dc7c5" stroke-width="1"/>
        <path id="Trazado_401" data-name="Trazado 401" d="M2,2.474a.385.385,0,0,1-.313-.161A8.105,8.105,0,0,0,.146.688a.385.385,0,1,1,.479-.6,8.885,8.885,0,0,1,1.691,1.78A.386.386,0,0,1,2,2.474Z" transform="translate(41.645 56.58)" fill="#7dc7c5" stroke="#7dc7c5" stroke-width="1"/>
        <path id="Trazado_402" data-name="Trazado 402" d="M.385,2.3a.385.385,0,0,1-.293-.636A7.559,7.559,0,0,1,1.967.054.386.386,0,0,1,2.36.717,6.778,6.778,0,0,0,.678,2.164.385.385,0,0,1,.385,2.3Z" transform="translate(33.285 55.851)" fill="#7dc7c5" stroke="#7dc7c5" stroke-width="1"/>
        <path id="Trazado_403" data-name="Trazado 403" d="M2.7,1.1a.4.4,0,0,1-.129-.022A5.2,5.2,0,0,0,.836.771,2.117,2.117,0,0,0,.418.789.379.379,0,0,1,0,.438.385.385,0,0,1,.352.021C.514.007.672,0,.836,0A5.993,5.993,0,0,1,2.83.353.386.386,0,0,1,2.7,1.1Z" transform="translate(37.283 55.1)" fill="#7dc7c5" stroke="#7dc7c5" stroke-width="1"/>
        <path id="Trazado_404" data-name="Trazado 404" d="M.385,2.8a.386.386,0,0,1-.329-.586q.608-1,1.191-2.019a.385.385,0,1,1,.669.382Q1.328,1.605.715,2.614A.386.386,0,0,1,.385,2.8Z" transform="translate(123.871 52.637)" fill="#7dc7c5" stroke="#7dc7c5" stroke-width="1"/>
        <path id="Trazado_405" data-name="Trazado 405" d="M.385,2.86a.386.386,0,0,1-.339-.568Q.6,1.264,1.129.212A.385.385,0,1,1,1.817.56Q1.283,1.62.724,2.657A.384.384,0,0,1,.385,2.86Z" transform="translate(126.212 48.488)" fill="#7dc7c5" stroke="#7dc7c5" stroke-width="1"/>
        <path id="Trazado_406" data-name="Trazado 406" d="M.385,2.915a.386.386,0,0,1-.348-.55q.3-.63.586-1.27C.752.808.882.519,1.009.23a.385.385,0,0,1,.705.311q-.193.437-.389.872-.293.645-.592,1.281A.385.385,0,0,1,.385,2.915Z" transform="translate(128.329 44.228)" fill="#7dc7c5" stroke="#7dc7c5" stroke-width="1"/>
        <path id="Trazado_407" data-name="Trazado 407" d="M.385,2.959A.386.386,0,0,1,.03,2.426Q.478,1.343.9.247a.385.385,0,1,1,.719.276q-.425,1.105-.878,2.2A.385.385,0,0,1,.385,2.959Z" transform="translate(130.233 39.874)" fill="#7dc7c5" stroke="#7dc7c5" stroke-width="1"/>
        <path id="Trazado_408" data-name="Trazado 408" d="M.385,3a.39.39,0,0,1-.128-.022.386.386,0,0,1-.236-.491Q.412,1.385.767.268A.385.385,0,1,1,1.5.5Q1.143,1.63.749,2.747A.386.386,0,0,1,.385,3Z" transform="translate(131.922 35.429)" fill="#7dc7c5" stroke="#7dc7c5" stroke-width="1"/>
        <path id="Trazado_409" data-name="Trazado 409" d="M.385,3.05a.394.394,0,0,1-.1-.015.386.386,0,0,1-.267-.475c.21-.748.409-1.51.592-2.267a.385.385,0,1,1,.749.181c-.185.765-.387,1.537-.6,2.294A.386.386,0,0,1,.385,3.05Z" transform="translate(133.347 30.892)" fill="#7dc7c5" stroke="#7dc7c5" stroke-width="1"/>
        <path id="Trazado_410" data-name="Trazado 410" d="M.386,3.09A.4.4,0,0,1,.31,3.083a.386.386,0,0,1-.3-.453C.162,1.856.3,1.081.414.327a.385.385,0,0,1,.762.117C1.059,1.209.92,2,.763,2.78A.385.385,0,0,1,.386,3.09Z" transform="translate(134.449 26.27)" fill="#7dc7c5" stroke="#7dc7c5" stroke-width="1"/>
        <path id="Trazado_411" data-name="Trazado 411" d="M.386,3.119l-.042,0A.385.385,0,0,1,0,2.693C.086,1.911.15,1.127.193.364a.386.386,0,0,1,.77.043C.918,1.184.853,1.98.769,2.775A.386.386,0,0,1,.386,3.119Z" transform="translate(135.164 21.585)" fill="#7dc7c5" stroke="#7dc7c5" stroke-width="1"/>
        <path id="Trazado_412" data-name="Trazado 412" d="M.475,3.125h0A.385.385,0,0,1,.09,2.736V2.353c0-.64-.032-1.29-.089-1.935A.385.385,0,1,1,.769.351c.058.665.089,1.337.092,2v.4A.386.386,0,0,1,.475,3.125Z" transform="translate(135.339 16.877)" fill="#7dc7c5" stroke="#7dc7c5" stroke-width="1"/>
        <path id="Trazado_413" data-name="Trazado 413" d="M.941,3.06a.385.385,0,0,1-.378-.313A22.835,22.835,0,0,0,.016.5.385.385,0,0,1,.755.276,23.487,23.487,0,0,1,1.32,2.6a.385.385,0,0,1-.379.457Z" transform="translate(134.459 12.252)" fill="#7dc7c5" stroke="#7dc7c5" stroke-width="1"/>
        <path id="Trazado_414" data-name="Trazado 414" d="M.385,2.841a.385.385,0,0,1-.342-.562C.417,1.554.8.852,1.173.194a.385.385,0,1,1,.669.382c-.37.649-.745,1.34-1.114,2.056A.385.385,0,0,1,.385,2.841Z" transform="translate(104.071 11.396)" fill="#7dc7c5" stroke="#7dc7c5" stroke-width="1"/>
        <path id="Trazado_415" data-name="Trazado 415" d="M1.414,2.89a.385.385,0,0,1-.355-.237A20.564,20.564,0,0,0,.049.573.385.385,0,1,1,.721.2,21.157,21.157,0,0,1,1.769,2.356a.386.386,0,0,1-.355.534Z" transform="translate(132.64 7.914)" fill="#7dc7c5" stroke="#7dc7c5" stroke-width="1"/>
        <path id="Trazado_416" data-name="Trazado 416" d="M.385,2.711a.385.385,0,0,1-.324-.593C.5,1.428.958.768,1.411.156A.385.385,0,0,1,2.03.614c-.443.6-.887,1.244-1.321,1.92A.385.385,0,0,1,.385,2.711Z" transform="translate(106.413 7.438)" fill="#7dc7c5" stroke="#7dc7c5" stroke-width="1"/>
        <path id="Trazado_417" data-name="Trazado 417" d="M1.906,2.568A.384.384,0,0,1,1.6,2.41,16.65,16.65,0,0,0,.11.654.385.385,0,1,1,.661.116,17.259,17.259,0,0,1,2.216,1.954a.385.385,0,0,1-.31.613Z" transform="translate(129.847 4.136)" fill="#7dc7c5" stroke="#7dc7c5" stroke-width="1"/>
        <path id="Trazado_418" data-name="Trazado 418" d="M.385,2.46A.385.385,0,0,1,.1,1.821,22.806,22.806,0,0,1,1.765.1a.385.385,0,1,1,.523.566A22,22,0,0,0,.675,2.329.385.385,0,0,1,.385,2.46Z" transform="translate(109.224 3.912)" fill="#7dc7c5" stroke="#7dc7c5" stroke-width="1"/>
        <path id="Trazado_419" data-name="Trazado 419" d="M2.382,2.013a.383.383,0,0,1-.23-.076A13.328,13.328,0,0,0,.211.729.385.385,0,1,1,.56.042,14.09,14.09,0,0,1,2.613,1.319a.385.385,0,0,1-.231.694Z" transform="translate(126.081 1.338)" fill="#7dc7c5" stroke="#7dc7c5" stroke-width="1"/>
        <path id="Trazado_420" data-name="Trazado 420" d="M.386,1.968a.385.385,0,0,1-.222-.7A15.086,15.086,0,0,1,2.242.038a.385.385,0,0,1,.336.693A14.308,14.308,0,0,0,.607,1.9.383.383,0,0,1,.386,1.968Z" transform="translate(112.693 1.233)" fill="#7dc7c5" stroke="#7dc7c5" stroke-width="1"/>
        <path id="Trazado_421" data-name="Trazado 421" d="M2.695,1.215A.387.387,0,0,1,2.587,1.2,12.22,12.22,0,0,0,.562.791L.346.768A.385.385,0,0,1,0,.345.39.39,0,0,1,.425,0L.65.026A13.009,13.009,0,0,1,2.8.459a.385.385,0,0,1-.108.755Z" transform="translate(121.585 0.029)" fill="#7dc7c5" stroke="#7dc7c5" stroke-width="1"/>
        <path id="Trazado_422" data-name="Trazado 422" d="M.385,1.173a.385.385,0,0,1-.1-.757A12.834,12.834,0,0,1,2.671,0a.385.385,0,1,1,.06.768,12.063,12.063,0,0,0-2.244.39A.392.392,0,0,1,.385,1.173Z" transform="translate(116.918 0)" fill="#7dc7c5" stroke="#7dc7c5" stroke-width="1"/>
        <g id="Grupo_178" data-name="Grupo 178" transform="translate(101.858 15.688)">
          <path id="Trazado_423" data-name="Trazado 423" d="M1.051,2.287.674,1.659Q.363,1.142.059.653A.385.385,0,0,1,.712.245q.123.2.245.4.1-.211.2-.421a.385.385,0,0,1,.7.329q-.252.533-.5,1.071Z" transform="translate(0 0)" fill="#7dc7c5" stroke="#7dc7c5" stroke-width="1"/>
        </g>
        <path id="Trazado_424" data-name="Trazado 424" d="M64.732,64.453h0q-1.194-.013-2.386-.064a.385.385,0,0,1-.368-.4.394.394,0,0,1,.4-.368q1.179.051,2.361.063a.385.385,0,0,1,0,.771Zm2.375-.013a.385.385,0,0,1-.008-.77q1.181-.025,2.361-.088a.4.4,0,0,1,.405.365.386.386,0,0,1-.365.405q-1.192.063-2.385.088Zm-7.118-.19h-.029q-1.191-.09-2.378-.218a.385.385,0,1,1,.083-.766q1.173.127,2.352.216a.385.385,0,0,1-.028.77Zm11.86-.06a.385.385,0,0,1-.032-.769q1.176-.1,2.351-.237a.385.385,0,0,1,.089.765q-1.186.139-2.375.239Zm-16.583-.452a.353.353,0,0,1-.054,0c-.78-.11-1.574-.236-2.358-.373a.385.385,0,0,1,.133-.759c.776.136,1.561.26,2.333.369a.385.385,0,0,1-.053.767Zm21.3-.1a.385.385,0,0,1-.056-.766q1.168-.174,2.331-.384a.385.385,0,1,1,.138.758q-1.175.213-2.355.388A.365.365,0,0,1,76.566,63.64Zm-25.977-.722a.371.371,0,0,1-.08-.009c-.772-.162-1.555-.34-2.328-.53a.385.385,0,0,1,.184-.748c.764.188,1.538.363,2.3.524a.385.385,0,0,1-.079.762Zm30.65-.124a.385.385,0,0,1-.08-.762q1.155-.247,2.3-.53a.385.385,0,1,1,.185.748q-1.159.286-2.326.536A.388.388,0,0,1,81.238,62.795Zm-35.261-1.01a.385.385,0,0,1-.1-.014c-.764-.215-1.534-.447-2.288-.688a.385.385,0,1,1,.235-.734c.745.238,1.506.468,2.261.68a.385.385,0,0,1-.1.757Zm39.872-.128a.385.385,0,0,1-.1-.757q1.136-.319,2.264-.674a.385.385,0,1,1,.231.735q-1.138.359-2.287.681A.38.38,0,0,1,85.849,61.656Zm-44.4-1.319a.392.392,0,0,1-.13-.023q-.914-.328-1.819-.682l-.415-.164a.385.385,0,1,1,.286-.715l.409.161q.9.352,1.8.675a.386.386,0,0,1-.13.748Zm48.924-.109a.385.385,0,0,1-.127-.749q1.114-.391,2.216-.818a.386.386,0,1,1,.279.719q-1.114.431-2.24.826A.377.377,0,0,1,90.378,60.228ZM37.039,58.585a.386.386,0,0,1-.153-.032q-1.094-.474-2.176-.981a.385.385,0,0,1,.327-.7q1.071.5,2.155.972a.385.385,0,0,1-.153.739Zm57.767-.071a.385.385,0,0,1-.15-.74q1.086-.461,2.159-.958a.385.385,0,0,1,.324.7q-1.084.5-2.182.968A.386.386,0,0,1,94.806,58.514ZM32.738,56.568a.386.386,0,0,1-.173-.041Q31.5,55.99,30.45,55.421a.385.385,0,1,1,.367-.677q1.039.563,2.095,1.094a.386.386,0,0,1-.173.73Zm66.378-.05a.385.385,0,0,1-.174-.73q1.053-.53,2.091-1.1a.385.385,0,1,1,.369.676q-1.049.572-2.114,1.108A.386.386,0,0,1,99.116,56.518ZM28.561,54.308a.382.382,0,0,1-.193-.052q-1.034-.6-2.047-1.226a.385.385,0,0,1,.405-.655q1,.621,2.028,1.214a.385.385,0,0,1-.193.719Zm74.724-.064a.386.386,0,0,1-.2-.718c.683-.4,1.361-.817,2.014-1.232a.385.385,0,1,1,.413.651c-.66.42-1.345.839-2.036,1.246A.387.387,0,0,1,103.285,54.245ZM24.522,51.809a.383.383,0,0,1-.212-.064q-1-.659-1.971-1.345a.385.385,0,0,1,.444-.63q.962.678,1.952,1.332a.385.385,0,0,1-.213.707Zm82.772-.109a.385.385,0,0,1-.214-.706l.039-.027c.663-.453,1.292-.9,1.878-1.339a.385.385,0,1,1,.461.617c-.594.444-1.232.9-1.9,1.353l-.055.038A.386.386,0,0,1,107.295,51.7ZM20.642,49.073A.385.385,0,0,1,20.411,49c-.634-.477-1.268-.97-1.883-1.466a.385.385,0,1,1,.483-.6q.915.736,1.863,1.449a.385.385,0,0,1-.232.693Zm90.45-.221a.385.385,0,0,1-.247-.681c.616-.515,1.207-1.041,1.754-1.563a.385.385,0,0,1,.533.557c-.56.534-1.163,1.072-1.792,1.6A.385.385,0,0,1,111.092,48.852ZM16.945,46.1A.382.382,0,0,1,16.694,46c-.606-.523-1.205-1.057-1.78-1.591a.385.385,0,0,1,.524-.565c.568.527,1.16,1.055,1.76,1.572a.385.385,0,0,1-.252.677Zm97.573-.53a.386.386,0,0,1-.287-.642c.529-.593,1.026-1.2,1.477-1.813a.385.385,0,1,1,.619.458c-.465.629-.977,1.257-1.522,1.867A.382.382,0,0,1,114.518,45.567Zm6.823-2.309q-.457,0-.909-.016a.385.385,0,0,1,.028-.77c.769.027,1.556.018,2.338-.026a.385.385,0,0,1,.044.769C122.343,43.243,121.838,43.257,121.341,43.257Zm-3.259-.219a.412.412,0,0,1-.053,0,21.874,21.874,0,0,1-2.372-.461.385.385,0,0,1,.19-.747,21.068,21.068,0,0,0,2.287.445.385.385,0,0,1-.052.767Zm7.1-.061a.385.385,0,0,1-.054-.767c.763-.11,1.538-.254,2.3-.429a.385.385,0,0,1,.171.751c-.786.179-1.582.327-2.365.44A.413.413,0,0,1,125.182,42.977Zm-111.723-.1a.385.385,0,0,1-.27-.11q-.877-.862-1.676-1.7a.385.385,0,1,1,.557-.533q.792.829,1.659,1.681a.385.385,0,0,1-.27.66Zm116.354-.933a.385.385,0,0,1-.107-.756c.743-.215,1.5-.453,2.246-.708a.385.385,0,1,1,.249.729c-.759.259-1.527.5-2.281.719A.387.387,0,0,1,129.813,41.942Zm-16.322-.078a.386.386,0,0,1-.14-.027,18.379,18.379,0,0,1-2.2-1.025.385.385,0,1,1,.372-.675,17.657,17.657,0,0,0,2.1.982.385.385,0,0,1-.14.744Zm3.836-.116a.385.385,0,0,1-.332-.58,20.2,20.2,0,0,0,1.062-2.072.385.385,0,1,1,.7.311,21.166,21.166,0,0,1-1.1,2.151A.385.385,0,0,1,117.327,41.748Zm16.98-1.336a.385.385,0,0,1-.14-.744c.724-.283,1.456-.587,2.177-.9a.385.385,0,0,1,.31.706c-.731.321-1.474.63-2.207.916A.384.384,0,0,1,134.307,40.412Zm-24.959-.84a.383.383,0,0,1-.231-.077,16.916,16.916,0,0,1-1.83-1.6.385.385,0,1,1,.547-.542,16.1,16.1,0,0,0,1.746,1.523.385.385,0,0,1-.232.693Zm-99.164-.134a.384.384,0,0,1-.289-.13c-.539-.61-1.058-1.225-1.542-1.829a.385.385,0,1,1,.6-.482c.477.594.988,1.2,1.519,1.8a.385.385,0,0,1-.289.64ZM138.655,38.5a.385.385,0,0,1-.168-.732c.7-.341,1.408-.7,2.1-1.073a.385.385,0,0,1,.364.68c-.7.375-1.419.741-2.128,1.086A.384.384,0,0,1,138.655,38.5Zm-19.443-1.1a.378.378,0,0,1-.1-.015.385.385,0,0,1-.267-.475,17.073,17.073,0,0,0,.471-2.273.39.39,0,0,1,.434-.329.385.385,0,0,1,.329.434,17.754,17.754,0,0,1-.492,2.376A.385.385,0,0,1,119.211,37.4Zm23.633-1.135a.385.385,0,0,1-.194-.718c.679-.395,1.358-.806,2.02-1.223a.385.385,0,1,1,.411.652c-.67.422-1.357.838-2.043,1.238A.387.387,0,0,1,142.844,36.268Zm-36.829-.055a.386.386,0,0,1-.31-.156q-.137-.185-.272-.376a11.143,11.143,0,0,1-.982-1.728.385.385,0,0,1,.7-.323,10.352,10.352,0,0,0,.913,1.608c.086.121.173.242.261.361a.386.386,0,0,1-.309.615Zm-98.8-.48a.385.385,0,0,1-.313-.161c-.468-.652-.918-1.321-1.339-1.987a.385.385,0,0,1,.652-.412c.413.654.855,1.31,1.314,1.95a.385.385,0,0,1-.313.61Zm139.647-1.995a.385.385,0,0,1-.217-.7c.65-.441,1.3-.9,1.933-1.36a.385.385,0,1,1,.454.623c-.638.466-1.3.928-1.953,1.375A.385.385,0,0,1,146.865,33.738ZM119.854,32.71a.386.386,0,0,1-.385-.385,15.51,15.51,0,0,0-.173-2.309.385.385,0,1,1,.762-.116,16.269,16.269,0,0,1,.182,2.425.386.386,0,0,1-.385.386ZM104,31.945a.386.386,0,0,1-.372-.286,13.182,13.182,0,0,1-.42-2.408.385.385,0,0,1,.769-.058,12.35,12.35,0,0,0,.4,2.266.385.385,0,0,1-.273.472A.378.378,0,0,1,104,31.945ZM4.686,31.72a.385.385,0,0,1-.338-.2c-.379-.688-.747-1.4-1.1-2.131a.385.385,0,0,1,.7-.333c.342.714.7,1.418,1.075,2.093a.385.385,0,0,1-.337.571ZM150.7,30.94a.385.385,0,0,1-.238-.688l.241-.19q.8-.635,1.593-1.3a.385.385,0,1,1,.5.59q-.8.67-1.613,1.314l-.242.19A.385.385,0,0,1,150.7,30.94Zm-31.577-2.9a.385.385,0,0,1-.365-.263,11.187,11.187,0,0,0-.941-2.09.385.385,0,0,1,.666-.389,12.013,12.013,0,0,1,1.005,2.234.385.385,0,0,1-.242.488A.392.392,0,0,1,119.125,28.036Zm35.214-.15a.385.385,0,0,1-.258-.672q.874-.786,1.732-1.607a.385.385,0,0,1,.532.557q-.867.829-1.75,1.623A.383.383,0,0,1,154.339,27.886ZM2.631,27.442a.385.385,0,0,1-.355-.236q-.309-.734-.6-1.5-.14-.363-.269-.734a.385.385,0,1,1,.727-.255q.126.359.261.712.291.755.594,1.478a.386.386,0,0,1-.355.534Zm101.08-.2a.379.379,0,0,1-.077-.008.385.385,0,0,1-.3-.454q.044-.218.1-.43a8.927,8.927,0,0,1,.759-1.9.385.385,0,1,1,.676.369,8.109,8.109,0,0,0-.692,1.733c-.034.124-.065.25-.091.378A.385.385,0,0,1,103.711,27.243Zm54.061-2.638a.385.385,0,0,1-.274-.656q.825-.834,1.641-1.7a.385.385,0,0,1,.561.528q-.824.875-1.655,1.716A.383.383,0,0,1,157.771,24.605Zm-41.052-.618a.385.385,0,0,1-.275-.116q-.226-.231-.47-.444a8.282,8.282,0,0,0-1.317-.945.385.385,0,0,1,.385-.667,9.063,9.063,0,0,1,1.439,1.032q.266.233.513.486a.385.385,0,0,1-.275.655Zm-10.733-.824a.385.385,0,0,1-.259-.671,7.068,7.068,0,0,1,2.119-1.322.385.385,0,0,1,.287.715,6.281,6.281,0,0,0-1.889,1.178A.385.385,0,0,1,105.987,23.163Zm-104.9-.208a.386.386,0,0,1-.374-.293C.522,21.879.365,21.083.25,20.3a.385.385,0,0,1,.762-.112c.112.763.263,1.534.451,2.293a.385.385,0,0,1-.282.466A.377.377,0,0,1,1.089,22.955Zm111.568-1.311a.384.384,0,0,1-.094-.012,7.666,7.666,0,0,0-1.855-.231,2.745,2.745,0,0,1-.388.01.392.392,0,0,1-.4-.365.386.386,0,0,1,.365-.4c.141-.008.283-.011.424-.011h0a8.435,8.435,0,0,1,2.041.254.385.385,0,0,1-.093.759Zm48.369-.5a.385.385,0,0,1-.286-.643q.784-.872,1.567-1.775a.385.385,0,1,1,.582.5q-.788.909-1.576,1.786A.384.384,0,0,1,161.027,21.148ZM.406,18.261a.385.385,0,0,1-.385-.368Q0,17.408,0,16.921c0-.482.016-.968.048-1.445a.385.385,0,0,1,.769.052c-.031.46-.047.929-.046,1.393q0,.47.021.938a.385.385,0,0,1-.368.4Zm.328-4.728a.393.393,0,0,1-.073-.007.386.386,0,0,1-.306-.451,18.442,18.442,0,0,1,.609-2.346.385.385,0,0,1,.731.243,17.61,17.61,0,0,0-.583,2.248A.385.385,0,0,1,.733,13.533ZM30.87,10.792a.385.385,0,0,1-.318-.167c-.465-.677-.931-1.317-1.385-1.9a.385.385,0,1,1,.608-.473c.464.595.939,1.247,1.413,1.937a.385.385,0,0,1-.1.535A.38.38,0,0,1,30.87,10.792ZM2.234,9.042a.385.385,0,0,1-.344-.558A16.417,16.417,0,0,1,3.136,6.4a.385.385,0,0,1,.63.443A15.643,15.643,0,0,0,2.579,8.83.385.385,0,0,1,2.234,9.042ZM27.941,7.059a.383.383,0,0,1-.284-.125c-.54-.589-1.1-1.142-1.659-1.643a.385.385,0,0,1,.513-.575c.58.518,1.156,1.089,1.713,1.7a.385.385,0,0,1-.284.645ZM4.956,5.171a.385.385,0,0,1-.279-.651A17.213,17.213,0,0,1,6.211,3.1q.131-.108.267-.212a.385.385,0,0,1,.471.61c-.084.065-.167.13-.248.2A16.415,16.415,0,0,0,5.235,5.052.385.385,0,0,1,4.956,5.171ZM24.4,3.905a.383.383,0,0,1-.224-.072A22.37,22.37,0,0,0,22.211,2.58a.385.385,0,0,1,.381-.67,23.025,23.025,0,0,1,2.035,1.3.385.385,0,0,1-.224.7ZM8.723,2.318a.385.385,0,0,1-.173-.73,14.5,14.5,0,0,1,2.264-.9.385.385,0,1,1,.225.737A13.691,13.691,0,0,0,8.9,2.277.382.382,0,0,1,8.723,2.318ZM20.265,1.6a.382.382,0,0,1-.134-.024A12.628,12.628,0,0,0,17.908.982.385.385,0,0,1,18.04.222,13.428,13.428,0,0,1,20.4.854a.385.385,0,0,1-.134.747ZM13.243.925a.385.385,0,0,1-.054-.767A16.013,16.013,0,0,1,15.433,0h.182A.385.385,0,0,1,16,.39a.377.377,0,0,1-.389.381h-.176A15.221,15.221,0,0,0,13.3.922.382.382,0,0,1,13.243.925Z" transform="translate(70.075 3.741)" fill="#7dc7c5" stroke="#7dc7c5" stroke-width="1"/>
      </g>
    </g>
  </g>
</svg>
