<svg id="Grupo_859" data-name="Grupo 859" xmlns="http://www.w3.org/2000/svg" width="50" height="50" viewBox="0 0 50 50">
  <path id="Trazado_85" data-name="Trazado 85" d="M-513.346,1111.089a1.383,1.383,0,0,0-1.381,1.381,1.383,1.383,0,0,0,1.381,1.381,1.383,1.383,0,0,0,1.381-1.381A1.383,1.383,0,0,0-513.346,1111.089Zm0,1.76a.379.379,0,0,1-.379-.379.379.379,0,0,1,.379-.379.379.379,0,0,1,.379.379A.379.379,0,0,1-513.346,1112.849Z" transform="translate(545.643 -1095.023)" fill="#2e335e"/>
  <path id="Trazado_86" data-name="Trazado 86" d="M-653.071,1140.477a4.68,4.68,0,0,0-4.674,4.675,4.68,4.68,0,0,0,4.674,4.674,4.68,4.68,0,0,0,4.674-4.674A4.68,4.68,0,0,0-653.071,1140.477Zm0,8.347a3.676,3.676,0,0,1-3.672-3.672,3.676,3.676,0,0,1,3.672-3.672,3.676,3.676,0,0,1,3.672,3.672A3.676,3.676,0,0,1-653.071,1148.824Z" transform="translate(678.071 -1120.152)" fill="#2e335e"/>
  <path id="Trazado_87" data-name="Trazado 87" d="M-848.667,924.556a25,25,0,0,0-25,25,25,25,0,0,0,25,25,25,25,0,0,0,25-25A25,25,0,0,0-848.667,924.556ZM-836,955.365a6.864,6.864,0,0,1-6.857,6.857h-11.617a6.864,6.864,0,0,1-6.857-6.857V943.747a6.865,6.865,0,0,1,6.857-6.857h11.617A6.864,6.864,0,0,1-836,943.747Z" transform="translate(873.667 -924.556)" fill="#2e335e"/>
</svg>
