<svg xmlns="http://www.w3.org/2000/svg" width="50" height="50" viewBox="0 0 50 50">
  <path id="Trazado_1511" data-name="Trazado 1511" d="M616.222,924.556a25,25,0,1,0,25,25A25,25,0,0,0,616.222,924.556Zm13.982,14.4-2.231,2.135h0a.645.645,0,0,0-.248.622V957.4a.648.648,0,0,0,.249.622l2.179,2.133v.467H619.186v-.469l2.26-2.187c.219-.219.219-.288.219-.622V944.669l-6.284,15.915h-.849l-7.308-15.915v10.666a1.45,1.45,0,0,0,.4,1.223l2.936,3.553v.467H602.24v-.461l2.936-3.558a1.406,1.406,0,0,0,.376-1.223V943a1.094,1.094,0,0,0-.353-.912l-2.606-3.138v-.467h8.1l6.268,13.712,5.509-13.712h7.73Z" transform="translate(-591.222 -924.556)" fill="#2e335e"/>
</svg>
