<svg xmlns="http://www.w3.org/2000/svg" width="53.77" height="46.071" viewBox="0 0 53.77 46.071">
  <path id="Trazado_605" data-name="Trazado 605" d="M136.414,234.415a2.648,2.648,0,0,0-2.207-1.137,1.975,1.975,0,0,0-1.779,2.417c.64,1.706,3.559,3.56,3.986,4.052,1.139-.853,3.56-3.27,3.7-4.123C140.543,234.557,139.056,231.693,136.414,234.415Zm-7.834,5.133a2.393,2.393,0,0,0-1.993-1.027,1.784,1.784,0,0,0-1.607,2.182c.578,1.541,3.213,3.214,3.6,3.658,1.027-.77,3.213-2.952,3.341-3.722C132.307,239.676,130.965,237.091,128.58,239.548Zm-8.79-5.568a3.6,3.6,0,0,0-3-1.545,2.683,2.683,0,0,0-2.417,3.283c.87,2.317,4.834,4.835,5.414,5.5,1.547-1.158,4.834-4.441,5.027-5.6C125.4,234.173,123.378,230.283,119.79,233.979Zm34.029,29.352,8.895,4.828m-7.348-8.014,9.281,4.731m-9.281-8.3h9.281m-9.281-3.669h9.281m-9.281-4.055,9.281-4.151m-10.828,1.159,9.377-4.635m-47.95,12.813a3.961,3.961,0,0,1,3.964-3.959m3.964-2.386v15.021m23.492-22.745s-6.671,5.407-10.775,6.469c-3.008.778-12.717,1.255-12.717,1.255H118.63s-5.994.756-5.994,6.991a7.884,7.884,0,0,0,7.251,8.167c1.933,0,10.054-.676,12.18,0,6.38.482,14.6,6.372,14.6,7.434m2.61,3.669h0a2.616,2.616,0,0,1-2.61-2.607V239.58a2.61,2.61,0,0,1,5.22,0v31.765A2.616,2.616,0,0,1,149.276,273.952Zm-31.425-11.433,2.423,12.591a2.668,2.668,0,0,0,2.417,1.835c1.837,0,2.126-1.931,2.126-3.283s.025-11.014.025-11.014" transform="translate(-111.886 -231.624)" fill="none" stroke="#7dc7c5" stroke-linecap="round" stroke-linejoin="round" stroke-width="1.5"/>
</svg>
