<svg xmlns="http://www.w3.org/2000/svg" width="34.8" height="34.801" viewBox="0 0 34.8 34.801">
  <g id="Grupo_867" data-name="Grupo 867" transform="translate(0.399 0.4)">
    <path id="Trazado_1521" data-name="Trazado 1521" d="M30.691,0H15.633A2.571,2.571,0,0,0,13,2.5V31.5A2.571,2.571,0,0,0,15.633,34H30.691a2.571,2.571,0,0,0,2.634-2.5V2.5A2.571,2.571,0,0,0,30.691,0ZM14.2,4.533H32.129V26.068H14.2Zm1.438-3.4H30.691A1.4,1.4,0,0,1,32.129,2.5v.9H14.2V2.5A1.4,1.4,0,0,1,15.633,1.133ZM30.691,32.868H15.633A1.4,1.4,0,0,1,14.2,31.5V27.2H32.129v4.3A1.4,1.4,0,0,1,30.691,32.868Z" transform="translate(-6.161)" fill="#2e335e" stroke="#2e335e" stroke-width="0.8"/>
    <path id="Trazado_1522" data-name="Trazado 1522" d="M28.1,49a2.1,2.1,0,1,0,2.1,2.1A2.106,2.106,0,0,0,28.1,49Zm0,3.156A1.052,1.052,0,1,1,29.156,51.1,1.053,1.053,0,0,1,28.1,52.156Z" transform="translate(-11.103 -20.785)" fill="#2e335e" stroke="#2e335e" stroke-width="0.8"/>
    <path id="Trazado_1523" data-name="Trazado 1523" d="M25.526,4.052h2.1A.526.526,0,1,0,27.63,3h-2.1a.526.526,0,0,0,0,1.052Z" transform="translate(-10.719 -1.422)" fill="#2e335e" stroke="#2e335e" stroke-width="0.8"/>
    <path id="Trazado_1524" data-name="Trazado 1524" d="M32.526,4.052h.526a.526.526,0,0,0,0-1.052h-.526a.526.526,0,0,0,0,1.052Z" transform="translate(-13.797 -1.422)" fill="#2e335e" stroke="#2e335e" stroke-width="0.8"/>
    <path id="Trazado_1525" data-name="Trazado 1525" d="M55.8,4.43a.526.526,0,1,0-.744.744,5.047,5.047,0,0,1,0,7.129.526.526,0,1,0,.744.744A6.1,6.1,0,0,0,55.8,4.43Z" transform="translate(-23.583 -2.027)" fill="#2e335e" stroke="#2e335e" stroke-width="0.8"/>
    <path id="Trazado_1526" data-name="Trazado 1526" d="M51.592,6.706a.526.526,0,0,0-.744.744,3.455,3.455,0,0,1,0,4.88.526.526,0,1,0,.744.744,4.506,4.506,0,0,0,0-6.367Z" transform="translate(-21.588 -3.105)" fill="#2e335e" stroke="#2e335e" stroke-width="0.8"/>
    <path id="Trazado_1527" data-name="Trazado 1527" d="M2.526,5.174a.526.526,0,1,0-.744-.744,6.1,6.1,0,0,0,0,8.616.526.526,0,0,0,.744-.744A5.046,5.046,0,0,1,2.526,5.174Z" transform="translate(0 -2.027)" fill="#2e335e" stroke="#2e335e" stroke-width="0.8"/>
    <path id="Trazado_1528" data-name="Trazado 1528" d="M7.156,6.43a.525.525,0,0,0-.744,0,4.506,4.506,0,0,0,0,6.367.526.526,0,1,0,.744-.744,3.455,3.455,0,0,1,0-4.88A.526.526,0,0,0,7.156,6.43Z" transform="translate(-2.414 -2.975)" fill="#2e335e" stroke="#2e335e" stroke-width="0.8"/>
  </g>
</svg>
