<svg xmlns="http://www.w3.org/2000/svg" width="33" height="32" viewBox="0 0 33 32">
  <path id="Trazado_22" data-name="Trazado 22" d="M13.181,28.8v3.249l-.808-.635A53.541,53.541,0,0,1,6.264,25.6C2.107,20.966,0,16.8,0,13.229v-.354A13.015,13.015,0,0,1,13.181.063,13.015,13.015,0,0,1,26.361,12.875v.354c0,.3-.016.6-.046.913l-2.578-2.286A10.514,10.514,0,0,0,13.181,2.563,10.476,10.476,0,0,0,2.572,12.875v.354C2.572,19.267,10.575,26.576,13.181,28.8ZM21.089,27h3.858V23.25H21.089ZM13.181,7.563a5.4,5.4,0,0,1,5.465,5.313,5.4,5.4,0,0,1-5.465,5.313,5.4,5.4,0,0,1-5.465-5.313A5.4,5.4,0,0,1,13.181,7.563Zm0,2.5a2.814,2.814,0,1,0,2.893,2.813A2.857,2.857,0,0,0,13.181,10.063ZM31.267,25.3l-.723-.641v4.013a3.443,3.443,0,0,1-3.487,3.389H18.914a3.443,3.443,0,0,1-3.487-3.389V24.66L14.7,25.3l-1.733-1.847,10.014-8.881L33,23.454Zm-3.295-2.922-4.986-4.422L18,22.379v6.294a.9.9,0,0,0,.915.889h8.142a.9.9,0,0,0,.915-.889Z" transform="translate(0 -0.063)" fill="#2e335e"/>
</svg>
