<svg xmlns="http://www.w3.org/2000/svg" width="31.196" height="21.921" viewBox="0 0 31.196 21.921">
  <g id="Grupo_1151" data-name="Grupo 1151" transform="translate(-394.821 -11)">
    <g id="Grupo_1150" data-name="Grupo 1150" transform="translate(-10 11)">
      <g id="Grupo_303" data-name="Grupo 303" transform="translate(404.821)">
        <g id="Grupo_300" data-name="Grupo 300">
          <g id="Grupo_299" data-name="Grupo 299">
            <path id="Trazado_608" data-name="Trazado 608" d="M1395.378,104.83a3.035,3.035,0,0,1,2.146,5.181l-5.779,5.78,5.779,5.779a3.035,3.035,0,1,1-4.292,4.293l-7.925-7.925a3.035,3.035,0,0,1,0-4.293l7.925-7.926A3.028,3.028,0,0,1,1395.378,104.83Z" transform="translate(-1384.418 -104.83)" fill="#28aba9"/>
          </g>
        </g>
        <g id="Grupo_302" data-name="Grupo 302" transform="translate(17.199)">
          <g id="Grupo_301" data-name="Grupo 301">
            <path id="Trazado_609" data-name="Trazado 609" d="M1413.666,104.83a3.035,3.035,0,0,1,2.146,5.181l-5.78,5.78,5.78,5.779a3.035,3.035,0,1,1-4.293,4.293l-7.925-7.925a3.033,3.033,0,0,1,0-4.293l7.925-7.926A3.027,3.027,0,0,1,1413.666,104.83Z" transform="translate(-1402.704 -104.83)" fill="#28aba9"/>
          </g>
        </g>
      </g>
    </g>
  </g>
</svg>
