<svg id="Grupo_856" data-name="Grupo 856" xmlns="http://www.w3.org/2000/svg" width="14.031" height="9.86" viewBox="0 0 14.031 9.86">
  <g id="Grupo_295" data-name="Grupo 295" transform="translate(7.736)">
    <g id="Grupo_294" data-name="Grupo 294">
      <path id="Trazado_606" data-name="Trazado 606" d="M1102.951,114.69a1.365,1.365,0,0,1-.965-2.331l2.6-2.6-2.6-2.6a1.365,1.365,0,0,1,1.931-1.931l3.565,3.565a1.365,1.365,0,0,1,0,1.931l-3.565,3.565A1.361,1.361,0,0,1,1102.951,114.69Z" transform="translate(-1101.586 -104.83)" fill="#ce6a24"/>
    </g>
  </g>
  <g id="Grupo_297" data-name="Grupo 297">
    <g id="Grupo_296" data-name="Grupo 296">
      <path id="Trazado_607" data-name="Trazado 607" d="M1084.664,114.69a1.365,1.365,0,0,1-.965-2.331l2.6-2.6-2.6-2.6a1.365,1.365,0,0,1,1.931-1.931l3.565,3.565a1.365,1.365,0,0,1,0,1.931l-3.565,3.565A1.361,1.361,0,0,1,1084.664,114.69Z" transform="translate(-1083.299 -104.83)" fill="#ce6a24"/>
    </g>
  </g>
</svg>
