<svg xmlns="http://www.w3.org/2000/svg" width="188.229" height="103.811" viewBox="0 0 188.229 103.811">
  <g id="Grupo_180" data-name="Grupo 180" transform="translate(784.188 -1186.262)">
    <g id="Grupo_175" data-name="Grupo 175" transform="translate(-619.186 1186.262)">
      <path id="Trazado_349" data-name="Trazado 349" d="M11796.318-975.665l-1.823.886.12-2.025a6.011,6.011,0,0,1,2.029-4.189l.6-.52a.823.823,0,0,1,.973-.07l1.136.759a.781.781,0,0,1,.306.924l-.249.757a6.233,6.233,0,0,1-3.095,3.478m4.563-3.831a2.088,2.088,0,0,0-.789-2.428l-1.137-.759a2.054,2.054,0,0,0-2.546.2l-.6.521a7.515,7.515,0,0,0-2.468,5.077l-.17,3.019a.683.683,0,0,0,.308.616.682.682,0,0,0,.688.048l2.725-1.311a7.322,7.322,0,0,0,3.746-4.223Z" transform="translate(-11791.225 1004.391)" fill="#ef8b44"/>
      <path id="Trazado_350" data-name="Trazado 350" d="M11836.944-1031.258a1.913,1.913,0,0,1-2.665.53,1.913,1.913,0,0,1-.529-2.665,1.912,1.912,0,0,1,2.664-.53,1.939,1.939,0,0,1,.53,2.665m-4.259-2.846a3.225,3.225,0,0,0,.883,4.441,3.225,3.225,0,0,0,4.44-.883,3.224,3.224,0,0,0-.882-4.441,3.225,3.225,0,0,0-4.441.883" transform="translate(-11818.686 1041.362)" fill="#ef8b44"/>
      <path id="Trazado_351" data-name="Trazado 351" d="M11802.414-1033.307a27.712,27.712,0,0,0,3.381-4.519,10.417,10.417,0,0,1-.623,6.31l-.653,1.515Zm-2.534.719c-.048.071-.142.059-.214.011l-2.034-1.565a28.138,28.138,0,0,0-3.159-2.111l-2.33-1.353c-.072-.048-.119-.13-.072-.2l.024-.036a27.6,27.6,0,0,1,15.255-15.683l1.221-.52-.014,1.634a26.842,26.842,0,0,1-8.677,19.823m-11.95-8.55,1.15-1.183a10.478,10.478,0,0,1,5.627-2.966,31.84,31.84,0,0,0-2.941,4.863Zm18.414,10.1a11.9,11.9,0,0,0,.328-8.406,27.785,27.785,0,0,0,3.152-12.938l-.021-1.657a1.259,1.259,0,0,0-.544-1.031,1.2,1.2,0,0,0-1.16-.108l-1.28.531a28.3,28.3,0,0,0-10.973,7.969,11.7,11.7,0,0,0-7.711,3.472l-1.174,1.218a1.261,1.261,0,0,0-.3,1.29,1.165,1.165,0,0,0,.46.616,1.326,1.326,0,0,0,.534.2l3.552.679c-.119.331-.273.639-.393.971l-.012.094a1.436,1.436,0,0,0,.6,1.635l.071.047,2.331,1.352a25.839,25.839,0,0,1,3.018,2.016l2.035,1.565a1.466,1.466,0,0,0,1.858-.093,8.93,8.93,0,0,0,.747-.733l1.985,3.021a1.33,1.33,0,0,0,.39.415,1.161,1.161,0,0,0,.746.19,1.261,1.261,0,0,0,1.078-.768Z" transform="translate(-11786.597 1055.283)" fill="#ef8b44"/>
    </g>
    <g id="Grupo_179" data-name="Grupo 179" transform="matrix(0.996, -0.087, 0.087, 0.996, -789.753, 1217.77)">
      <path id="Trazado_359" data-name="Trazado 359" d="M2.009.625H1.944C1.382.625.817.6.262.564A.283.283,0,1,1,.3,0C.844.04,1.4.06,1.944.06h.066a.283.283,0,0,1,0,.565Z" transform="translate(6.71 71.949)" fill="#7dc7c5" stroke="#7dc7c5" stroke-width="1"/>
      <path id="Trazado_360" data-name="Trazado 360" d="M.282.765A.283.283,0,0,1,.261.2C.825.156,1.4.09,1.955,0a.283.283,0,0,1,.087.559C1.468.651.884.719.3.764Z" transform="translate(10.164 71.739)" fill="#7dc7c5" stroke="#7dc7c5" stroke-width="1"/>
      <path id="Trazado_361" data-name="Trazado 361" d="M1.981.887a.29.29,0,0,1-.042,0C1.365.8.786.688.219.558A.283.283,0,0,1,.346.007C.9.134,1.463.241,2.022.325a.283.283,0,0,1-.041.562Z" transform="translate(3.295 71.436)" fill="#7dc7c5" stroke="#7dc7c5" stroke-width="1"/>
      <path id="Trazado_362" data-name="Trazado 362" d="M.282,1.02A.283.283,0,0,1,.219.462C.772.333,1.326.182,1.865.013a.283.283,0,1,1,.169.539C1.482.726.914.881.347,1.013A.281.281,0,0,1,.282,1.02Z" transform="translate(13.576 70.956)" fill="#7dc7c5" stroke="#7dc7c5" stroke-width="1"/>
      <path id="Trazado_363" data-name="Trazado 363" d="M1.91,1.145a.278.278,0,0,1-.085-.013C1.272.959.717.761.177.544A.283.283,0,0,1,.388.02c.526.211,1.067.4,1.607.573a.283.283,0,0,1-.084.552Z" transform="translate(0 70.404)" fill="#7dc7c5" stroke="#7dc7c5" stroke-width="1"/>
      <path id="Trazado_364" data-name="Trazado 364" d="M.283,1.266a.283.283,0,0,1-.1-.545c.494-.2.987-.415,1.465-.646L1.733.03a.283.283,0,0,1,.257.5l-.1.05c-.489.237-.995.46-1.5.662A.286.286,0,0,1,.283,1.266Z" transform="translate(16.87 69.675)" fill="#7dc7c5" stroke="#7dc7c5" stroke-width="1"/>
      <path id="Trazado_365" data-name="Trazado 365" d="M.283,1.492A.283.283,0,0,1,.14.966C.626.68,1.111.372,1.581.05A.283.283,0,1,1,1.9.516c-.481.33-.977.645-1.475.937A.281.281,0,0,1,.283,1.492Z" transform="translate(19.971 67.93)" fill="#7dc7c5" stroke="#7dc7c5" stroke-width="1"/>
      <path id="Trazado_366" data-name="Trazado 366" d="M.283,1.682a.283.283,0,0,1-.176-.5C.551.826.99.455,1.411.073a.283.283,0,1,1,.38.419c-.43.39-.879.77-1.332,1.129A.281.281,0,0,1,.283,1.682Z" transform="translate(22.819 65.788)" fill="#7dc7c5" stroke="#7dc7c5" stroke-width="1"/>
      <path id="Trazado_367" data-name="Trazado 367" d="M1.722.589Q1,.589.273.565A.282.282,0,1,1,.292,0q.714.024,1.43.023h.285l0,.565Z" transform="translate(45.348 66.562)" fill="#7dc7c5" stroke="#7dc7c5" stroke-width="1"/>
      <path id="Trazado_368" data-name="Trazado 368" d="M.282.676A.283.283,0,0,1,.27.111C.841.085,1.417.049,1.982,0a.279.279,0,0,1,.3.258.282.282,0,0,1-.258.3C1.457.612.873.649.3.676Z" transform="translate(48.801 66.429)" fill="#7dc7c5" stroke="#7dc7c5" stroke-width="1"/>
      <path id="Trazado_369" data-name="Trazado 369" d="M2,.728H1.983C1.408.685.825.63.25.563A.282.282,0,1,1,.315,0c.567.066,1.142.12,1.709.161A.283.283,0,0,1,2,.728Z" transform="translate(41.902 66.307)" fill="#7dc7c5" stroke="#7dc7c5" stroke-width="1"/>
      <path id="Trazado_370" data-name="Trazado 370" d="M.282.8A.283.283,0,0,1,.249.237C.817.169,1.389.091,1.949,0a.285.285,0,0,1,.323.236.283.283,0,0,1-.235.323C1.47.65.891.73.316.8Z" transform="translate(52.24 66.021)" fill="#7dc7c5" stroke="#7dc7c5" stroke-width="1"/>
      <path id="Trazado_371" data-name="Trazado 371" d="M1.983.877a.268.268,0,0,1-.045,0L1.547.809Q.886.7.225.559A.283.283,0,0,1,.34.006q.651.136,1.3.246l.384.064a.283.283,0,0,1-.044.562Z" transform="translate(38.49 65.758)" fill="#7dc7c5" stroke="#7dc7c5" stroke-width="1"/>
      <path id="Trazado_372" data-name="Trazado 372" d="M.282.921A.283.283,0,0,1,.229.361C.785.254,1.35.135,1.909.007a.283.283,0,0,1,.126.551C1.47.687.9.808.336.916A.289.289,0,0,1,.282.921Z" transform="translate(55.652 65.367)" fill="#7dc7c5" stroke="#7dc7c5" stroke-width="1"/>
      <path id="Trazado_373" data-name="Trazado 373" d="M1.941,1.051a.281.281,0,0,1-.072-.009C1.295.891.732.726.2.551A.283.283,0,0,1,.37.014C.9.185,1.449.347,2.013.5a.283.283,0,0,1-.072.556Z" transform="translate(35.148 64.879)" fill="#7dc7c5" stroke="#7dc7c5" stroke-width="1"/>
      <path id="Trazado_374" data-name="Trazado 374" d="M.282,1.037A.283.283,0,0,1,.21.481C.765.334,1.321.176,1.862.012a.283.283,0,0,1,.164.541C1.479.719.916.878.355,1.027A.269.269,0,0,1,.282,1.037Z" transform="translate(59.018 64.482)" fill="#7dc7c5" stroke="#7dc7c5" stroke-width="1"/>
      <path id="Trazado_375" data-name="Trazado 375" d="M.283,1.841a.283.283,0,0,1-.2-.48C.472.958.86.533,1.233.1a.282.282,0,1,1,.429.368C1.281.909.886,1.343.485,1.755A.282.282,0,0,1,.283,1.841Z" transform="translate(25.379 63.313)" fill="#7dc7c5" stroke="#7dc7c5" stroke-width="1"/>
      <path id="Trazado_376" data-name="Trazado 376" d="M1.863,1.264a.285.285,0,0,1-.1-.02C1.207,1.023.669.785.159.536A.282.282,0,1,1,.406.029C.9.271,1.43.5,1.968.719a.283.283,0,0,1-.105.545Z" transform="translate(31.943 63.593)" fill="#7dc7c5" stroke="#7dc7c5" stroke-width="1"/>
      <path id="Trazado_377" data-name="Trazado 377" d="M.283,1.148A.283.283,0,0,1,.192.6C.733.414,1.277.219,1.809.018a.283.283,0,0,1,.2.529c-.538.2-1.088.4-1.635.585A.279.279,0,0,1,.283,1.148Z" transform="translate(62.324 63.373)" fill="#7dc7c5" stroke="#7dc7c5" stroke-width="1"/>
      <path id="Trazado_378" data-name="Trazado 378" d="M1.728,1.511a.279.279,0,0,1-.144-.04c-.509-.3-1-.625-1.467-.959A.283.283,0,0,1,.448.054c.451.325.93.639,1.425.932a.283.283,0,0,1-.145.526Z" transform="translate(28.975 61.829)" fill="#7dc7c5" stroke="#7dc7c5" stroke-width="1"/>
      <path id="Trazado_379" data-name="Trazado 379" d="M.283,1.255A.283.283,0,0,1,.174.711C.7.49,1.234.26,1.75.025A.283.283,0,0,1,1.984.54C1.463.777.927,1.01.391,1.233A.287.287,0,0,1,.283,1.255Z" transform="translate(65.556 62.047)" fill="#7dc7c5" stroke="#7dc7c5" stroke-width="1"/>
      <path id="Trazado_380" data-name="Trazado 380" d="M.282,1.974A.283.283,0,0,1,.057,1.52C.4,1.069.732.6,1.048.126a.283.283,0,0,1,.47.313C1.2.923.856,1.4.508,1.862A.282.282,0,0,1,.282,1.974Z" transform="translate(27.628 60.559)" fill="#7dc7c5" stroke="#7dc7c5" stroke-width="1"/>
      <path id="Trazado_381" data-name="Trazado 381" d="M.283,1.359A.283.283,0,0,1,.157.823Q.926.441,1.683.034a.283.283,0,1,1,.268.5c-.5.27-1.021.539-1.543.8A.283.283,0,0,1,.283,1.359Z" transform="translate(68.701 60.512)" fill="#7dc7c5" stroke="#7dc7c5" stroke-width="1"/>
      <path id="Trazado_382" data-name="Trazado 382" d="M1.523,1.769A.282.282,0,0,1,1.337,1.7C.937,1.348.549.975.183.59L.075.475A.282.282,0,1,1,.49.091L.593.2c.354.373.729.734,1.116,1.074a.283.283,0,0,1-.187.495Z" transform="translate(26.383 59.55)" fill="#7dc7c5" stroke="#7dc7c5" stroke-width="1"/>
      <path id="Trazado_383" data-name="Trazado 383" d="M.283,1.462A.283.283,0,0,1,.14.935C.631.649,1.125.349,1.61.044a.282.282,0,1,1,.3.478c-.49.309-.99.612-1.486.9A.284.284,0,0,1,.283,1.462Z" transform="translate(71.743 58.769)" fill="#7dc7c5" stroke="#7dc7c5" stroke-width="1"/>
      <path id="Trazado_384" data-name="Trazado 384" d="M.282,2.083A.279.279,0,0,1,.14,2.045a.283.283,0,0,1-.1-.386c.286-.49.561-1,.817-1.5a.282.282,0,1,1,.5.255C1.1.927.818,1.443.527,1.943A.283.283,0,0,1,.282,2.083Z" transform="translate(29.542 57.575)" fill="#7dc7c5" stroke="#7dc7c5" stroke-width="1"/>
      <path id="Trazado_385" data-name="Trazado 385" d="M1.228,2.012A.282.282,0,0,1,1,1.9,16.133,16.133,0,0,1,.038.424.282.282,0,0,1,.527.141a15.5,15.5,0,0,0,.928,1.421.283.283,0,0,1-.228.45Z" transform="translate(24.338 56.771)" fill="#7dc7c5" stroke="#7dc7c5" stroke-width="1"/>
      <path id="Trazado_386" data-name="Trazado 386" d="M.283,1.561a.283.283,0,0,1-.159-.517C.6.723,1.071.389,1.528.054A.283.283,0,0,1,1.862.51c-.463.339-.941.676-1.421,1A.284.284,0,0,1,.283,1.561Z" transform="translate(74.666 56.828)" fill="#7dc7c5" stroke="#7dc7c5" stroke-width="1"/>
      <path id="Trazado_387" data-name="Trazado 387" d="M.283,2.171a.283.283,0,0,1-.259-.395C.249,1.255.461.719.655.186a.282.282,0,1,1,.531.193C.989.923.772,1.468.542,2A.283.283,0,0,1,.283,2.171Z" transform="translate(31.1 54.405)" fill="#7dc7c5" stroke="#7dc7c5" stroke-width="1"/>
      <path id="Trazado_388" data-name="Trazado 388" d="M.283,1.659a.283.283,0,0,1-.175-.5C.554.8,1,.437,1.438.067A.283.283,0,0,1,1.8.5C1.362.872.909,1.242.458,1.6A.282.282,0,0,1,.283,1.659Z" transform="translate(77.455 54.689)" fill="#7dc7c5" stroke="#7dc7c5" stroke-width="1"/>
      <path id="Trazado_389" data-name="Trazado 389" d="M.9,2.179a.283.283,0,0,1-.258-.168A16.528,16.528,0,0,1,.014.369.283.283,0,1,1,.552.2a16.025,16.025,0,0,0,.606,1.586.283.283,0,0,1-.258.4Z" transform="translate(22.936 53.618)" fill="#7dc7c5" stroke="#7dc7c5" stroke-width="1"/>
      <path id="Trazado_390" data-name="Trazado 390" d="M.283,1.754a.283.283,0,0,1-.19-.492C.514.877.934.48,1.339.081a.283.283,0,0,1,.4.4C1.325.888.9,1.29.473,1.68A.283.283,0,0,1,.283,1.754Z" transform="translate(80.092 52.36)" fill="#7dc7c5" stroke="#7dc7c5" stroke-width="1"/>
      <path id="Trazado_391" data-name="Trazado 391" d="M.283,2.239A.276.276,0,0,1,.2,2.227a.282.282,0,0,1-.191-.351l.082-.284C.226,1.126.342.665.438.223A.283.283,0,0,1,.99.344c-.1.453-.217.925-.353,1.4l-.084.29A.283.283,0,0,1,.283,2.239Z" transform="translate(32.277 51.089)" fill="#7dc7c5" stroke="#7dc7c5" stroke-width="1"/>
      <path id="Trazado_392" data-name="Trazado 392" d="M.531,2.275a.283.283,0,0,1-.276-.226A15.27,15.27,0,0,1,0,.307.283.283,0,1,1,.564.259,14.734,14.734,0,0,0,.808,1.936a.282.282,0,0,1-.22.333A.293.293,0,0,1,.531,2.275Z" transform="translate(22.248 50.237)" fill="#7dc7c5" stroke="#7dc7c5" stroke-width="1"/>
      <path id="Trazado_393" data-name="Trazado 393" d="M.283,1.845a.283.283,0,0,1-.205-.477C.467.954.855.526,1.231.1a.283.283,0,0,1,.426.372C1.276.9.883,1.337.488,1.756A.282.282,0,0,1,.283,1.845Z" transform="translate(82.556 49.847)" fill="#7dc7c5" stroke="#7dc7c5" stroke-width="1"/>
      <path id="Trazado_394" data-name="Trazado 394" d="M.283,2.279l-.034,0A.283.283,0,0,1,0,1.962,14,14,0,0,0,.107.293.292.292,0,0,1,.389,0,.274.274,0,0,1,.672.272,14.677,14.677,0,0,1,.563,2.03.283.283,0,0,1,.283,2.279Z" transform="translate(32.999 47.673)" fill="#7dc7c5" stroke="#7dc7c5" stroke-width="1"/>
      <path id="Trazado_395" data-name="Trazado 395" d="M.283,1.911a.283.283,0,0,1-.218-.462Q.613.782,1.145.107a.283.283,0,1,1,.444.35Q1.054,1.137.5,1.808A.282.282,0,0,1,.283,1.911Z" transform="translate(84.832 47.18)" fill="#7dc7c5" stroke="#7dc7c5" stroke-width="1"/>
      <path id="Trazado_396" data-name="Trazado 396" d="M.283,2.284H.272A.282.282,0,0,1,0,1.99,13.4,13.4,0,0,1,.183.235a.283.283,0,0,1,.557.1A12.827,12.827,0,0,0,.565,2.012.283.283,0,0,1,.283,2.284Z" transform="translate(22.205 46.792)" fill="#7dc7c5" stroke="#7dc7c5" stroke-width="1"/>
      <path id="Trazado_397" data-name="Trazado 397" d="M.716,2.236A.282.282,0,0,1,.437,2,8.533,8.533,0,0,0,.018.381a.283.283,0,0,1,.53-.2A9.111,9.111,0,0,1,1,1.909a.282.282,0,0,1-.234.324A.271.271,0,0,1,.716,2.236Z" transform="translate(32.539 44.271)" fill="#7dc7c5" stroke="#7dc7c5" stroke-width="1"/>
      <path id="Trazado_398" data-name="Trazado 398" d="M.282,1.958a.283.283,0,0,1-.225-.453Q.575.817,1.076.118a.283.283,0,0,1,.459.329q-.505.7-1.027,1.4A.282.282,0,0,1,.282,1.958Z" transform="translate(86.971 44.417)" fill="#7dc7c5" stroke="#7dc7c5" stroke-width="1"/>
      <path id="Trazado_399" data-name="Trazado 399" d="M.283,2.159a.283.283,0,0,1-.269-.37q.051-.156.105-.312A10.169,10.169,0,0,1,.694.151a.283.283,0,1,1,.5.261A9.606,9.606,0,0,0,.652,1.665c-.035.1-.068.2-.1.3A.283.283,0,0,1,.283,2.159Z" transform="translate(22.795 43.522)" fill="#7dc7c5" stroke="#7dc7c5" stroke-width="1"/>
      <path id="Trazado_400" data-name="Trazado 400" d="M.282,2.006a.283.283,0,0,1-.233-.442Q.533.853,1,.13a.283.283,0,1,1,.476.306Q1,1.165.516,1.882A.282.282,0,0,1,.282,2.006Z" transform="translate(88.984 41.56)" fill="#7dc7c5" stroke="#7dc7c5" stroke-width="1"/>
      <path id="Trazado_401" data-name="Trazado 401" d="M1.469,1.815a.282.282,0,0,1-.23-.118A5.945,5.945,0,0,0,.107.5.283.283,0,1,1,.458.062,6.517,6.517,0,0,1,1.7,1.368a.283.283,0,0,1-.229.447Z" transform="translate(30.544 41.499)" fill="#7dc7c5" stroke="#7dc7c5" stroke-width="1"/>
      <path id="Trazado_402" data-name="Trazado 402" d="M.282,1.687a.283.283,0,0,1-.215-.466A5.544,5.544,0,0,1,1.443.039a.283.283,0,0,1,.288.486A4.971,4.971,0,0,0,.5,1.587.282.282,0,0,1,.282,1.687Z" transform="translate(24.413 40.964)" fill="#7dc7c5" stroke="#7dc7c5" stroke-width="1"/>
      <path id="Trazado_403" data-name="Trazado 403" d="M1.982.809A.3.3,0,0,1,1.887.792,3.812,3.812,0,0,0,.613.566,1.552,1.552,0,0,0,.307.578.278.278,0,0,1,0,.321.282.282,0,0,1,.258.015C.377.005.493,0,.613,0A4.4,4.4,0,0,1,2.076.259a.283.283,0,0,1-.094.549Z" transform="translate(27.345 40.413)" fill="#7dc7c5" stroke="#7dc7c5" stroke-width="1"/>
      <path id="Trazado_404" data-name="Trazado 404" d="M.282,2.053a.283.283,0,0,1-.241-.43Q.487.89.915.142a.283.283,0,1,1,.491.281Q.974,1.177.524,1.917A.283.283,0,0,1,.282,2.053Z" transform="translate(90.854 38.607)" fill="#7dc7c5" stroke="#7dc7c5" stroke-width="1"/>
      <path id="Trazado_405" data-name="Trazado 405" d="M.282,2.1a.283.283,0,0,1-.248-.416Q.439.927.828.156a.283.283,0,1,1,.5.255q-.392.778-.8,1.538A.282.282,0,0,1,.282,2.1Z" transform="translate(92.571 35.564)" fill="#7dc7c5" stroke="#7dc7c5" stroke-width="1"/>
      <path id="Trazado_406" data-name="Trazado 406" d="M.283,2.138a.283.283,0,0,1-.256-.4Q.244,1.272.457.8C.552.593.647.381.74.169A.283.283,0,0,1,1.257.4q-.141.32-.285.639-.215.473-.434.939A.283.283,0,0,1,.283,2.138Z" transform="translate(94.124 32.439)" fill="#7dc7c5" stroke="#7dc7c5" stroke-width="1"/>
      <path id="Trazado_407" data-name="Trazado 407" d="M.283,2.17a.283.283,0,0,1-.261-.391Q.351.985.66.181a.282.282,0,1,1,.527.2Q.876,1.195.544,2A.283.283,0,0,1,.283,2.17Z" transform="translate(95.521 29.246)" fill="#7dc7c5" stroke="#7dc7c5" stroke-width="1"/>
      <path id="Trazado_408" data-name="Trazado 408" d="M.283,2.2a.286.286,0,0,1-.094-.016.283.283,0,0,1-.173-.36Q.3,1.016.563.2A.282.282,0,1,1,1.1.368Q.838,1.2.549,2.015A.283.283,0,0,1,.283,2.2Z" transform="translate(96.759 25.986)" fill="#7dc7c5" stroke="#7dc7c5" stroke-width="1"/>
      <path id="Trazado_409" data-name="Trazado 409" d="M.283,2.237a.289.289,0,0,1-.076-.011.283.283,0,0,1-.2-.349C.165,1.33.311.771.445.216A.283.283,0,1,1,.994.349C.858.91.711,1.476.555,2.031A.283.283,0,0,1,.283,2.237Z" transform="translate(97.804 22.658)" fill="#7dc7c5" stroke="#7dc7c5" stroke-width="1"/>
      <path id="Trazado_410" data-name="Trazado 410" d="M.283,2.267a.292.292,0,0,1-.056-.005.283.283,0,0,1-.222-.332C.118,1.362.219.793.3.24A.283.283,0,0,1,.863.325C.776.887.675,1.464.56,2.039A.282.282,0,0,1,.283,2.267Z" transform="translate(98.612 19.268)" fill="#7dc7c5" stroke="#7dc7c5" stroke-width="1"/>
      <path id="Trazado_411" data-name="Trazado 411" d="M.283,2.288H.252A.283.283,0,0,1,0,1.975C.063,1.4.11.827.142.267A.283.283,0,0,1,.706.3C.674.868.626,1.452.564,2.035A.283.283,0,0,1,.283,2.288Z" transform="translate(99.137 15.832)" fill="#7dc7c5" stroke="#7dc7c5" stroke-width="1"/>
      <path id="Trazado_412" data-name="Trazado 412" d="M.349,2.292h0a.283.283,0,0,1-.28-.285V1.726C.064,1.256.042.779,0,.307A.283.283,0,1,1,.564.258c.043.488.065.981.067,1.464v.29A.283.283,0,0,1,.349,2.292Z" transform="translate(99.265 12.378)" fill="#7dc7c5" stroke="#7dc7c5" stroke-width="1"/>
      <path id="Trazado_413" data-name="Trazado 413" d="M.69,2.244a.283.283,0,0,1-.277-.23A16.749,16.749,0,0,0,.012.363.283.283,0,0,1,.554.2,17.227,17.227,0,0,1,.968,1.909a.282.282,0,0,1-.278.335Z" transform="translate(98.62 8.986)" fill="#7dc7c5" stroke="#7dc7c5" stroke-width="1"/>
      <path id="Trazado_414" data-name="Trazado 414" d="M.282,2.083a.282.282,0,0,1-.251-.412C.306,1.14.585.625.86.142a.283.283,0,1,1,.491.28C1.079.9.8,1.406.534,1.93A.282.282,0,0,1,.282,2.083Z" transform="translate(76.332 8.358)" fill="#7dc7c5" stroke="#7dc7c5" stroke-width="1"/>
      <path id="Trazado_415" data-name="Trazado 415" d="M1.037,2.12a.283.283,0,0,1-.261-.174A15.083,15.083,0,0,0,.036.421.282.282,0,1,1,.529.145,15.518,15.518,0,0,1,1.3,1.728a.283.283,0,0,1-.261.392Z" transform="translate(97.286 5.804)" fill="#7dc7c5" stroke="#7dc7c5" stroke-width="1"/>
      <path id="Trazado_416" data-name="Trazado 416" d="M.282,1.989a.283.283,0,0,1-.238-.435C.37,1.048.7.563,1.035.114A.283.283,0,0,1,1.489.45C1.165.889.838,1.363.52,1.859A.282.282,0,0,1,.282,1.989Z" transform="translate(78.049 5.455)" fill="#7dc7c5" stroke="#7dc7c5" stroke-width="1"/>
      <path id="Trazado_417" data-name="Trazado 417" d="M1.4,1.883a.282.282,0,0,1-.228-.115A12.212,12.212,0,0,0,.08.48a.283.283,0,1,1,.4-.395A12.659,12.659,0,0,1,1.625,1.433a.282.282,0,0,1-.227.45Z" transform="translate(95.237 3.033)" fill="#7dc7c5" stroke="#7dc7c5" stroke-width="1"/>
      <path id="Trazado_418" data-name="Trazado 418" d="M.283,1.8A.283.283,0,0,1,.07,1.335,16.727,16.727,0,0,1,1.295.075.283.283,0,1,1,1.678.49,16.137,16.137,0,0,0,.5,1.708.282.282,0,0,1,.283,1.8Z" transform="translate(80.111 2.869)" fill="#7dc7c5" stroke="#7dc7c5" stroke-width="1"/>
      <path id="Trazado_419" data-name="Trazado 419" d="M1.747,1.476a.281.281,0,0,1-.169-.056A9.775,9.775,0,0,0,.155.535.283.283,0,1,1,.41.031,10.335,10.335,0,0,1,1.917.967a.283.283,0,0,1-.169.509Z" transform="translate(92.475 0.982)" fill="#7dc7c5" stroke="#7dc7c5" stroke-width="1"/>
      <path id="Trazado_420" data-name="Trazado 420" d="M.283,1.443A.283.283,0,0,1,.12.93a11.065,11.065,0,0,1,1.524-.9.283.283,0,0,1,.247.509,10.5,10.5,0,0,0-1.446.855A.281.281,0,0,1,.283,1.443Z" transform="translate(82.656 0.904)" fill="#7dc7c5" stroke="#7dc7c5" stroke-width="1"/>
      <path id="Trazado_421" data-name="Trazado 421" d="M1.976.891A.284.284,0,0,1,1.9.879,8.963,8.963,0,0,0,.412.581L.254.563A.282.282,0,0,1,0,.253.286.286,0,0,1,.311,0L.477.019A9.542,9.542,0,0,1,2.055.337a.283.283,0,0,1-.079.554Z" transform="translate(89.177 0.022)" fill="#7dc7c5" stroke="#7dc7c5" stroke-width="1"/>
      <path id="Trazado_422" data-name="Trazado 422" d="M.283.861A.283.283,0,0,1,.208.305,9.413,9.413,0,0,1,1.959,0,.283.283,0,1,1,2,.564,8.848,8.848,0,0,0,.357.85.287.287,0,0,1,.283.861Z" transform="translate(85.754 0)" fill="#7dc7c5" stroke="#7dc7c5" stroke-width="1"/>
      <g id="Grupo_178" data-name="Grupo 178" transform="translate(74.708 11.506)">
        <path id="Trazado_423" data-name="Trazado 423" d="M.771,1.677.494,1.217Q.267.838.043.479A.283.283,0,0,1,.522.18Q.612.324.7.47.774.316.847.161A.282.282,0,0,1,1.358.4q-.185.391-.364.785Z" transform="translate(0 0)" fill="#7dc7c5" stroke="#7dc7c5" stroke-width="1"/>
      </g>
      <path id="Trazado_424" data-name="Trazado 424" d="M47.478,47.274h0q-.876-.009-1.75-.047a.282.282,0,0,1-.27-.295.289.289,0,0,1,.295-.27q.865.038,1.732.046a.283.283,0,0,1,0,.565Zm1.742-.009a.283.283,0,0,1-.006-.565q.866-.019,1.732-.065a.291.291,0,0,1,.3.267.283.283,0,0,1-.267.3q-.874.046-1.749.065ZM44,47.125h-.022q-.874-.066-1.744-.16a.283.283,0,1,1,.061-.562q.86.093,1.725.158a.283.283,0,0,1-.021.565Zm8.7-.044a.283.283,0,0,1-.023-.564q.863-.073,1.724-.174a.283.283,0,0,1,.065.561q-.87.1-1.742.175ZM40.535,46.75a.259.259,0,0,1-.04,0c-.572-.081-1.154-.173-1.73-.273a.283.283,0,0,1,.1-.557c.569.1,1.145.191,1.711.271a.283.283,0,0,1-.039.562Zm15.622-.072a.283.283,0,0,1-.041-.562q.856-.127,1.71-.282a.283.283,0,1,1,.1.556q-.862.156-1.727.284A.268.268,0,0,1,56.158,46.677ZM37.1,46.148a.272.272,0,0,1-.059-.006c-.566-.119-1.141-.25-1.707-.389a.282.282,0,0,1,.135-.549c.56.138,1.128.267,1.689.385a.283.283,0,0,1-.058.559Zm22.48-.091a.283.283,0,0,1-.059-.559q.847-.181,1.688-.389a.283.283,0,1,1,.136.548q-.85.21-1.706.393A.284.284,0,0,1,59.585,46.057Zm-25.863-.741a.282.282,0,0,1-.076-.011c-.56-.158-1.125-.328-1.678-.5a.283.283,0,1,1,.172-.538c.547.175,1.1.343,1.658.5a.283.283,0,0,1-.076.555Zm29.244-.094a.283.283,0,0,1-.076-.555q.834-.234,1.661-.495a.283.283,0,1,1,.17.539q-.835.264-1.678.5A.279.279,0,0,1,62.967,45.222ZM30.4,44.255a.287.287,0,0,1-.1-.017q-.67-.241-1.334-.5l-.3-.12a.283.283,0,1,1,.21-.525l.3.118q.658.258,1.32.495a.283.283,0,0,1-.1.549Zm35.884-.08a.283.283,0,0,1-.093-.549q.817-.287,1.625-.6a.283.283,0,1,1,.2.527q-.817.316-1.643.606A.277.277,0,0,1,66.288,44.175ZM27.167,42.969a.283.283,0,0,1-.112-.023q-.8-.348-1.6-.72a.283.283,0,0,1,.24-.512q.786.368,1.581.713a.283.283,0,0,1-.112.542Zm42.37-.052a.283.283,0,0,1-.11-.543q.8-.338,1.583-.7a.283.283,0,0,1,.238.513q-.8.368-1.6.71A.283.283,0,0,1,69.536,42.917ZM24.012,41.49a.283.283,0,0,1-.127-.03q-.782-.394-1.552-.811a.282.282,0,1,1,.269-.5q.762.413,1.536.8a.283.283,0,0,1-.127.535ZM72.7,41.453a.283.283,0,0,1-.127-.535q.772-.388,1.534-.8a.282.282,0,1,1,.27.5q-.769.42-1.55.813A.283.283,0,0,1,72.7,41.453Zm-51.749-1.62a.281.281,0,0,1-.141-.038q-.758-.439-1.5-.9a.283.283,0,0,1,.3-.481q.736.455,1.488.891a.283.283,0,0,1-.142.527Zm54.807-.047a.283.283,0,0,1-.144-.526c.5-.295,1-.6,1.477-.9a.283.283,0,1,1,.3.477c-.484.308-.987.615-1.493.914A.284.284,0,0,1,75.755,39.786ZM17.986,38a.281.281,0,0,1-.156-.047q-.732-.483-1.446-.986a.283.283,0,0,1,.326-.462q.706.5,1.431.977a.283.283,0,0,1-.156.518Zm60.71-.08a.283.283,0,0,1-.157-.518l.029-.019c.486-.332.948-.662,1.378-.982a.282.282,0,1,1,.338.453c-.436.326-.9.659-1.391.992l-.04.028A.283.283,0,0,1,78.7,37.92ZM15.14,35.993a.282.282,0,0,1-.17-.057c-.465-.35-.93-.711-1.381-1.075a.282.282,0,1,1,.354-.44q.671.54,1.367,1.063a.283.283,0,0,1-.17.509Zm66.341-.162a.283.283,0,0,1-.181-.5c.452-.377.885-.763,1.286-1.146a.283.283,0,0,1,.391.408c-.41.392-.853.786-1.314,1.172A.282.282,0,0,1,81.481,35.83ZM12.429,33.81a.281.281,0,0,1-.184-.069c-.445-.383-.884-.776-1.306-1.167a.283.283,0,0,1,.384-.414c.417.386.851.774,1.291,1.153a.283.283,0,0,1-.185.5Zm71.565-.389a.283.283,0,0,1-.211-.471c.388-.435.753-.882,1.083-1.329a.283.283,0,1,1,.454.336c-.341.461-.717.922-1.117,1.37A.28.28,0,0,1,83.994,33.421Zm5-1.694q-.335,0-.666-.012a.283.283,0,0,1,.02-.565c.564.02,1.142.014,1.715-.019a.282.282,0,0,1,.032.564C89.733,31.717,89.363,31.727,89,31.727Zm-2.391-.161-.039,0a16.043,16.043,0,0,1-1.74-.338.283.283,0,0,1,.139-.548A15.453,15.453,0,0,0,86.646,31a.283.283,0,0,1-.038.562Zm5.208-.045a.283.283,0,0,1-.04-.562c.56-.08,1.128-.186,1.69-.314a.283.283,0,0,1,.126.551c-.576.131-1.16.24-1.735.323ZM9.871,31.447a.282.282,0,0,1-.2-.081q-.643-.632-1.23-1.246a.283.283,0,0,1,.409-.391q.581.608,1.217,1.233a.283.283,0,0,1-.2.484Zm85.341-.684a.283.283,0,0,1-.079-.554c.545-.158,1.1-.332,1.648-.519a.283.283,0,1,1,.183.535c-.557.19-1.12.367-1.673.528A.284.284,0,0,1,95.212,30.762Zm-11.971-.057a.283.283,0,0,1-.1-.02,13.48,13.48,0,0,1-1.61-.752.283.283,0,1,1,.273-.495,12.95,12.95,0,0,0,1.543.72.283.283,0,0,1-.1.546Zm2.814-.085a.283.283,0,0,1-.243-.426,14.817,14.817,0,0,0,.779-1.52.282.282,0,1,1,.517.228,15.524,15.524,0,0,1-.809,1.578A.283.283,0,0,1,86.055,30.62Zm12.454-.98a.283.283,0,0,1-.1-.546c.531-.207,1.068-.43,1.6-.663a.283.283,0,0,1,.227.517c-.536.236-1.081.462-1.619.672A.282.282,0,0,1,98.508,29.641ZM80.2,29.024a.281.281,0,0,1-.169-.057A12.407,12.407,0,0,1,78.69,27.8a.283.283,0,1,1,.4-.4,11.8,11.8,0,0,0,1.28,1.117.282.282,0,0,1-.17.508Zm-72.732-.1a.282.282,0,0,1-.212-.1c-.4-.447-.776-.9-1.131-1.341a.283.283,0,1,1,.441-.354c.35.436.724.88,1.114,1.321a.283.283,0,0,1-.212.47Zm94.228-.684a.283.283,0,0,1-.123-.537c.514-.25,1.033-.515,1.541-.787a.283.283,0,0,1,.267.5c-.515.275-1.041.543-1.561.8A.282.282,0,0,1,101.7,28.242Zm-14.261-.808a.278.278,0,0,1-.076-.011.283.283,0,0,1-.2-.348,12.521,12.521,0,0,0,.346-1.667.286.286,0,0,1,.318-.242.282.282,0,0,1,.242.318,13.021,13.021,0,0,1-.361,1.742A.283.283,0,0,1,87.436,27.433ZM104.77,26.6a.283.283,0,0,1-.143-.527c.5-.29,1-.591,1.482-.9a.283.283,0,1,1,.3.478c-.491.31-.995.615-1.5.908A.284.284,0,0,1,104.77,26.6Zm-27.013-.04a.283.283,0,0,1-.228-.114q-.1-.136-.2-.276a8.173,8.173,0,0,1-.72-1.267.283.283,0,0,1,.513-.237,7.592,7.592,0,0,0,.669,1.179c.063.089.127.177.192.264a.283.283,0,0,1-.227.451ZM5.294,26.208a.282.282,0,0,1-.23-.118c-.343-.478-.674-.969-.982-1.458a.283.283,0,0,1,.478-.3c.3.48.627.961.963,1.43a.282.282,0,0,1-.229.447Zm102.425-1.463a.283.283,0,0,1-.159-.516c.477-.324.954-.659,1.417-1a.283.283,0,1,1,.333.457c-.468.341-.95.681-1.433,1.008A.282.282,0,0,1,107.719,24.745Zm-19.811-.753a.283.283,0,0,1-.283-.282,11.376,11.376,0,0,0-.127-1.694.283.283,0,1,1,.559-.085,11.933,11.933,0,0,1,.134,1.778.283.283,0,0,1-.282.283ZM76.276,23.43A.283.283,0,0,1,76,23.221a9.67,9.67,0,0,1-.308-1.766.283.283,0,0,1,.564-.042,9.058,9.058,0,0,0,.29,1.662.283.283,0,0,1-.2.346A.277.277,0,0,1,76.276,23.43Zm-72.84-.165a.282.282,0,0,1-.248-.146c-.278-.5-.548-1.03-.8-1.563a.283.283,0,0,1,.51-.244c.251.523.516,1.04.788,1.535a.283.283,0,0,1-.247.419Zm107.1-.573a.283.283,0,0,1-.174-.5l.177-.139q.59-.466,1.169-.952a.282.282,0,1,1,.363.433q-.585.491-1.183.963l-.177.139A.282.282,0,0,1,110.533,22.693Zm-23.161-2.13a.283.283,0,0,1-.268-.193,8.2,8.2,0,0,0-.69-1.533.283.283,0,0,1,.488-.285,8.81,8.81,0,0,1,.737,1.639.282.282,0,0,1-.178.358A.287.287,0,0,1,87.373,20.563Zm25.828-.11a.283.283,0,0,1-.189-.493q.641-.577,1.271-1.179a.283.283,0,0,1,.391.408q-.636.608-1.283,1.19A.281.281,0,0,1,113.2,20.453ZM1.93,20.127a.283.283,0,0,1-.261-.173q-.226-.538-.442-1.1-.1-.266-.2-.538a.282.282,0,1,1,.533-.187q.092.263.192.522.213.554.435,1.084a.283.283,0,0,1-.26.392Zm74.138-.146a.278.278,0,0,1-.056-.006.282.282,0,0,1-.221-.333q.032-.16.075-.315a6.548,6.548,0,0,1,.557-1.391.283.283,0,1,1,.5.271,5.948,5.948,0,0,0-.507,1.271c-.025.091-.048.183-.067.277A.282.282,0,0,1,76.067,19.982Zm39.651-1.935a.282.282,0,0,1-.2-.481q.6-.612,1.2-1.249a.283.283,0,0,1,.412.388q-.6.642-1.214,1.259A.281.281,0,0,1,115.718,18.047Zm-30.11-.454a.282.282,0,0,1-.2-.085q-.166-.169-.345-.326a6.074,6.074,0,0,0-.966-.693A.283.283,0,0,1,84.379,16a6.647,6.647,0,0,1,1.055.757q.2.171.376.356a.283.283,0,0,1-.2.48Zm-7.872-.6a.283.283,0,0,1-.19-.492,5.184,5.184,0,0,1,1.554-.969.283.283,0,0,1,.211.525,4.607,4.607,0,0,0-1.385.864A.282.282,0,0,1,77.737,16.989ZM.8,16.836a.283.283,0,0,1-.274-.215c-.142-.574-.257-1.158-.341-1.735A.283.283,0,0,1,.743,14.8c.082.56.193,1.125.331,1.682a.282.282,0,0,1-.207.342A.277.277,0,0,1,.8,16.836Zm81.83-.962a.282.282,0,0,1-.069-.008A5.623,5.623,0,0,0,81.2,15.7a2.013,2.013,0,0,1-.284.007.287.287,0,0,1-.3-.267.283.283,0,0,1,.268-.3c.1-.006.207-.008.311-.008h0a6.187,6.187,0,0,1,1.5.186.283.283,0,0,1-.068.557Zm35.477-.363a.283.283,0,0,1-.21-.471q.575-.639,1.149-1.3a.283.283,0,1,1,.427.37q-.578.667-1.156,1.31A.282.282,0,0,1,118.106,15.511ZM.3,13.394a.283.283,0,0,1-.282-.27Q0,12.768,0,12.411c0-.353.012-.71.035-1.06a.283.283,0,0,1,.564.038c-.023.337-.034.681-.034,1.022q0,.345.015.688a.283.283,0,0,1-.27.295Zm.24-3.468a.288.288,0,0,1-.053,0A.283.283,0,0,1,.26,9.59,13.527,13.527,0,0,1,.707,7.869a.283.283,0,0,1,.536.178A12.916,12.916,0,0,0,.815,9.7.283.283,0,0,1,.538,9.926Zm22.1-2.01a.282.282,0,0,1-.233-.123c-.341-.5-.683-.966-1.016-1.393a.283.283,0,1,1,.446-.347c.34.436.689.914,1.036,1.421a.282.282,0,0,1-.073.393A.279.279,0,0,1,22.641,7.916Zm-21-1.284a.283.283,0,0,1-.252-.409A12.042,12.042,0,0,1,2.3,4.692a.283.283,0,0,1,.462.325,11.474,11.474,0,0,0-.871,1.459A.283.283,0,0,1,1.639,6.632ZM20.494,5.177a.281.281,0,0,1-.208-.092c-.4-.432-.806-.838-1.217-1.2a.283.283,0,0,1,.376-.422c.425.38.848.8,1.257,1.245a.282.282,0,0,1-.208.473ZM3.635,3.793a.283.283,0,0,1-.2-.478A12.625,12.625,0,0,1,4.555,2.273q.1-.079.2-.156a.283.283,0,0,1,.345.448c-.062.048-.122.1-.182.145a12.04,12.04,0,0,0-1.074,1A.282.282,0,0,1,3.635,3.793ZM17.9,2.864a.281.281,0,0,1-.164-.053,16.407,16.407,0,0,0-1.443-.92A.283.283,0,0,1,16.57,1.4a16.888,16.888,0,0,1,1.493.951.283.283,0,0,1-.165.512ZM6.4,1.7a.283.283,0,0,1-.127-.535A10.634,10.634,0,0,1,7.932.5a.283.283,0,1,1,.165.54,10.041,10.041,0,0,0-1.572.627A.28.28,0,0,1,6.4,1.7Zm8.466-.526a.28.28,0,0,1-.1-.018A9.262,9.262,0,0,0,13.135.72a.283.283,0,0,1,.1-.557,9.849,9.849,0,0,1,1.73.463.283.283,0,0,1-.1.548ZM9.713.679A.283.283,0,0,1,9.674.117,11.745,11.745,0,0,1,11.319,0h.134a.283.283,0,0,1,.28.285.277.277,0,0,1-.285.28h-.129A11.164,11.164,0,0,0,9.753.676.28.28,0,0,1,9.713.679Z" transform="translate(51.397 2.744)" fill="#7dc7c5" stroke="#7dc7c5" stroke-width="1"/>
    </g>
  </g>
</svg>
