<svg xmlns="http://www.w3.org/2000/svg" width="209.448" height="216.593" viewBox="0 0 209.448 216.593">
  <g id="Grupo_184" data-name="Grupo 184" transform="translate(-52.369 86.087) rotate(-19)">
    <g id="Grupo_175" data-name="Grupo 175" transform="translate(232.729)">
      <path id="Trazado_349" data-name="Trazado 349" d="M11797.468-972.98l-2.488,1.209.164-2.763a8.205,8.205,0,0,1,2.77-5.716l.823-.71a1.123,1.123,0,0,1,1.327-.1l1.55,1.036a1.067,1.067,0,0,1,.417,1.261l-.341,1.033a8.5,8.5,0,0,1-4.222,4.745m6.226-5.228a2.848,2.848,0,0,0-1.077-3.313l-1.55-1.036a2.8,2.8,0,0,0-3.475.271l-.825.71a10.261,10.261,0,0,0-3.367,6.927l-.231,4.119a.929.929,0,0,0,.42.841.931.931,0,0,0,.938.066l3.717-1.789a9.994,9.994,0,0,0,5.111-5.762Z" transform="translate(-11790.519 1012.175)" fill="#ef8b44"/>
      <path id="Trazado_350" data-name="Trazado 350" d="M11838.691-1029.705a2.61,2.61,0,0,1-3.636.723,2.612,2.612,0,0,1-.724-3.636,2.609,2.609,0,0,1,3.635-.723,2.646,2.646,0,0,1,.725,3.636m-5.812-3.884a4.4,4.4,0,0,0,1.2,6.06,4.4,4.4,0,0,0,6.061-1.2,4.4,4.4,0,0,0-1.205-6.06,4.4,4.4,0,0,0-6.06,1.2" transform="translate(-11813.778 1043.491)" fill="#ef8b44"/>
      <path id="Trazado_351" data-name="Trazado 351" d="M11808.18-1025.3a37.732,37.732,0,0,0,4.613-6.166,14.214,14.214,0,0,1-.85,8.61l-.892,2.067Zm-3.458.982c-.064.1-.192.08-.291.016l-2.776-2.136a38.458,38.458,0,0,0-4.31-2.88l-3.18-1.846c-.1-.065-.162-.178-.1-.274l.035-.049a37.651,37.651,0,0,1,20.813-21.4l1.666-.709-.02,2.23a36.622,36.622,0,0,1-11.839,27.048m-16.3-11.666,1.568-1.614a14.294,14.294,0,0,1,7.678-4.046,43.444,43.444,0,0,0-4.014,6.635Zm25.123,13.776a16.226,16.226,0,0,0,.448-11.47,37.928,37.928,0,0,0,4.3-17.654l-.03-2.261a1.715,1.715,0,0,0-.742-1.406,1.637,1.637,0,0,0-1.582-.147l-1.747.725a38.61,38.61,0,0,0-14.972,10.872,15.963,15.963,0,0,0-10.521,4.738l-1.6,1.662a1.718,1.718,0,0,0-.407,1.76,1.589,1.589,0,0,0,.627.841,1.818,1.818,0,0,0,.729.276l4.846.926c-.162.452-.372.872-.536,1.324l-.015.129a1.956,1.956,0,0,0,.821,2.231l.1.065,3.181,1.845a35.169,35.169,0,0,1,4.117,2.751l2.776,2.136a2,2,0,0,0,2.536-.127,12.158,12.158,0,0,0,1.019-1l2.71,4.123a1.828,1.828,0,0,0,.531.566,1.583,1.583,0,0,0,1.018.26,1.72,1.72,0,0,0,1.471-1.048Z" transform="translate(-11786.598 1055.283)" fill="#ef8b44"/>
    </g>
    <g id="Grupo_179" data-name="Grupo 179" transform="translate(0 42.991) rotate(-5)">
      <path id="Trazado_359" data-name="Trazado 359" d="M2.742.853h-.09C1.886.853,1.114.825.358.77A.386.386,0,1,1,.414,0c.738.054,1.491.081,2.238.081h.09a.386.386,0,0,1,0,.771Z" transform="translate(9.156 98.17)" fill="#7dc7c5" stroke="#7dc7c5" stroke-width="1"/>
      <path id="Trazado_360" data-name="Trazado 360" d="M.385,1.044a.386.386,0,0,1-.03-.77C1.126.214,1.9.123,2.668,0a.386.386,0,0,1,.118.762C2,.888,1.206.981.416,1.043Z" transform="translate(13.868 97.883)" fill="#7dc7c5" stroke="#7dc7c5" stroke-width="1"/>
      <path id="Trazado_361" data-name="Trazado 361" d="M2.7,1.21a.4.4,0,0,1-.058,0C1.862,1.088,1.073.939.3.761A.386.386,0,0,1,.472.009C1.226.183,2,.328,2.759.443A.386.386,0,0,1,2.7,1.21Z" transform="translate(4.496 97.47)" fill="#7dc7c5" stroke="#7dc7c5" stroke-width="1"/>
      <path id="Trazado_362" data-name="Trazado 362" d="M.385,1.392A.386.386,0,0,1,.3.631C1.054.455,1.81.249,2.544.018a.386.386,0,1,1,.231.736c-.753.237-1.528.448-2.3.628A.384.384,0,0,1,.385,1.392Z" transform="translate(18.524 96.815)" fill="#7dc7c5" stroke="#7dc7c5" stroke-width="1"/>
      <path id="Trazado_363" data-name="Trazado 363" d="M2.607,1.562a.38.38,0,0,1-.115-.018C1.736,1.308.979,1.038.242.743A.386.386,0,0,1,.529.027c.718.288,1.456.551,2.192.782a.386.386,0,0,1-.115.754Z" transform="translate(0 96.062)" fill="#7dc7c5" stroke="#7dc7c5" stroke-width="1"/>
      <path id="Trazado_364" data-name="Trazado 364" d="M.386,1.728A.386.386,0,0,1,.243.984C.917.714,1.59.417,2.242.1l.123-.06a.386.386,0,0,1,.35.687L2.577.8c-.668.323-1.357.627-2.048.9A.39.39,0,0,1,.386,1.728Z" transform="translate(23.019 95.067)" fill="#7dc7c5" stroke="#7dc7c5" stroke-width="1"/>
      <path id="Trazado_365" data-name="Trazado 365" d="M.386,2.036a.386.386,0,0,1-.2-.718C.854.928,1.516.508,2.157.068A.386.386,0,1,1,2.593.7c-.656.45-1.333.881-2.013,1.278A.383.383,0,0,1,.386,2.036Z" transform="translate(27.249 92.687)" fill="#7dc7c5" stroke="#7dc7c5" stroke-width="1"/>
      <path id="Trazado_366" data-name="Trazado 366" d="M.386,2.295a.386.386,0,0,1-.24-.688C.752,1.127,1.351.62,1.925.1a.386.386,0,1,1,.518.571c-.587.532-1.2,1.05-1.818,1.54A.383.383,0,0,1,.386,2.295Z" transform="translate(31.135 89.765)" fill="#7dc7c5" stroke="#7dc7c5" stroke-width="1"/>
      <path id="Trazado_367" data-name="Trazado 367" d="M2.35.8Q1.359.8.373.771A.385.385,0,1,1,.4,0Q1.372.033,2.35.032h.389L2.744.8Z" transform="translate(61.875 90.819)" fill="#7dc7c5" stroke="#7dc7c5" stroke-width="1"/>
      <path id="Trazado_368" data-name="Trazado 368" d="M.385.922A.386.386,0,0,1,.368.151C1.148.116,1.934.066,2.7,0A.381.381,0,0,1,3.12.355a.385.385,0,0,1-.352.416C1.987.835,1.192.886.4.922Z" transform="translate(66.586 90.638)" fill="#7dc7c5" stroke="#7dc7c5" stroke-width="1"/>
      <path id="Trazado_369" data-name="Trazado 369" d="M2.733.993H2.705C1.921.935,1.125.86.341.769A.385.385,0,1,1,.43,0c.774.09,1.558.164,2.331.22a.386.386,0,0,1-.028.77Z" transform="translate(57.172 90.472)" fill="#7dc7c5" stroke="#7dc7c5" stroke-width="1"/>
      <path id="Trazado_370" data-name="Trazado 370" d="M.385,1.093A.386.386,0,0,1,.34.324C1.115.231,1.9.124,2.659,0A.389.389,0,0,1,3.1.325a.386.386,0,0,1-.321.441C2.006.886,1.216,1,.431,1.09Z" transform="translate(71.279 90.081)" fill="#7dc7c5" stroke="#7dc7c5" stroke-width="1"/>
      <path id="Trazado_371" data-name="Trazado 371" d="M2.705,1.2a.366.366,0,0,1-.062-.005L2.111,1.1Q1.209.95.307.763A.386.386,0,0,1,.464.008q.888.185,1.777.336l.524.087a.386.386,0,0,1-.06.766Z" transform="translate(52.517 89.724)" fill="#7dc7c5" stroke="#7dc7c5" stroke-width="1"/>
      <path id="Trazado_372" data-name="Trazado 372" d="M.385,1.257A.386.386,0,0,1,.313.492C1.071.346,1.842.184,2.6.009a.386.386,0,0,1,.172.752C2.005.938,1.225,1.1.459,1.25A.394.394,0,0,1,.385,1.257Z" transform="translate(75.934 89.19)" fill="#7dc7c5" stroke="#7dc7c5" stroke-width="1"/>
      <path id="Trazado_373" data-name="Trazado 373" d="M2.649,1.434a.384.384,0,0,1-.1-.013C1.767,1.215,1,.99.266.752A.386.386,0,0,1,.505.019c.718.234,1.472.455,2.242.657a.386.386,0,0,1-.1.759Z" transform="translate(47.958 88.524)" fill="#7dc7c5" stroke="#7dc7c5" stroke-width="1"/>
      <path id="Trazado_374" data-name="Trazado 374" d="M.385,1.414a.386.386,0,0,1-.1-.758C1.044.455,1.8.24,2.541.016a.386.386,0,0,1,.224.738C2.018.981,1.25,1.2.484,1.4A.367.367,0,0,1,.385,1.414Z" transform="translate(80.526 87.982)" fill="#7dc7c5" stroke="#7dc7c5" stroke-width="1"/>
      <path id="Trazado_375" data-name="Trazado 375" d="M.386,2.512a.386.386,0,0,1-.277-.654C.644,1.307,1.174.727,1.682.135a.385.385,0,1,1,.585.5c-.518.6-1.058,1.2-1.6,1.758A.385.385,0,0,1,.386,2.512Z" transform="translate(34.629 86.387)" fill="#7dc7c5" stroke="#7dc7c5" stroke-width="1"/>
      <path id="Trazado_376" data-name="Trazado 376" d="M2.542,1.725A.389.389,0,0,1,2.4,1.7C1.646,1.4.913,1.071.217.732A.385.385,0,1,1,.555.039c.679.331,1.4.648,2.131.942a.386.386,0,0,1-.143.744Z" transform="translate(43.584 86.77)" fill="#7dc7c5" stroke="#7dc7c5" stroke-width="1"/>
      <path id="Trazado_377" data-name="Trazado 377" d="M.386,1.566A.386.386,0,0,1,.262.815C1,.564,1.743.3,2.469.025a.386.386,0,0,1,.272.722c-.734.277-1.485.545-2.232.8A.381.381,0,0,1,.386,1.566Z" transform="translate(85.037 86.469)" fill="#7dc7c5" stroke="#7dc7c5" stroke-width="1"/>
      <path id="Trazado_378" data-name="Trazado 378" d="M2.358,2.062a.381.381,0,0,1-.2-.055C1.467,1.6.794,1.155.16.7A.386.386,0,0,1,.611.073C1.226.516,1.88.944,2.555,1.345a.386.386,0,0,1-.2.717Z" transform="translate(39.535 84.363)" fill="#7dc7c5" stroke="#7dc7c5" stroke-width="1"/>
      <path id="Trazado_379" data-name="Trazado 379" d="M.386,1.712A.386.386,0,0,1,.238.97C.961.669,1.684.355,2.387.034a.386.386,0,0,1,.32.7C2,1.06,1.265,1.378.534,1.682A.392.392,0,0,1,.386,1.712Z" transform="translate(89.448 84.66)" fill="#7dc7c5" stroke="#7dc7c5" stroke-width="1"/>
      <path id="Trazado_380" data-name="Trazado 380" d="M.385,2.693a.386.386,0,0,1-.307-.619C.544,1.459,1,.819,1.429.172A.386.386,0,0,1,2.071.6c-.439.66-.9,1.312-1.378,1.941A.385.385,0,0,1,.385,2.693Z" transform="translate(37.696 82.629)" fill="#7dc7c5" stroke="#7dc7c5" stroke-width="1"/>
      <path id="Trazado_381" data-name="Trazado 381" d="M.386,1.854a.386.386,0,0,1-.172-.731Q1.264.6,2.3.046a.386.386,0,1,1,.366.679c-.685.369-1.393.736-2.106,1.089A.385.385,0,0,1,.386,1.854Z" transform="translate(93.738 82.565)" fill="#7dc7c5" stroke="#7dc7c5" stroke-width="1"/>
      <path id="Trazado_382" data-name="Trazado 382" d="M2.078,2.413a.384.384,0,0,1-.254-.1C1.278,1.839.749,1.33.25.8L.1.648A.385.385,0,1,1,.668.124L.809.273c.483.509,1,1,1.523,1.465a.386.386,0,0,1-.255.675Z" transform="translate(35.998 81.253)" fill="#7dc7c5" stroke="#7dc7c5" stroke-width="1"/>
      <path id="Trazado_383" data-name="Trazado 383" d="M.386,1.995a.386.386,0,0,1-.195-.719C.86.886,1.535.477,2.2.06a.385.385,0,1,1,.411.652c-.669.421-1.351.835-2.027,1.23A.387.387,0,0,1,.386,1.995Z" transform="translate(97.889 80.188)" fill="#7dc7c5" stroke="#7dc7c5" stroke-width="1"/>
      <path id="Trazado_384" data-name="Trazado 384" d="M.385,2.843A.381.381,0,0,1,.191,2.79a.386.386,0,0,1-.139-.527C.442,1.594.817.9,1.167.212a.385.385,0,1,1,.688.348C1.5,1.265,1.116,1.969.719,2.651A.386.386,0,0,1,.385,2.843Z" transform="translate(40.309 78.558)" fill="#7dc7c5" stroke="#7dc7c5" stroke-width="1"/>
      <path id="Trazado_385" data-name="Trazado 385" d="M1.675,2.745a.385.385,0,0,1-.311-.158A22.013,22.013,0,0,1,.052.579.385.385,0,0,1,.719.193,21.155,21.155,0,0,0,1.986,2.131a.386.386,0,0,1-.31.614Z" transform="translate(33.208 77.461)" fill="#7dc7c5" stroke="#7dc7c5" stroke-width="1"/>
      <path id="Trazado_386" data-name="Trazado 386" d="M.386,2.13a.386.386,0,0,1-.217-.7C.816.986,1.461.531,2.085.074A.386.386,0,0,1,2.541.7C1.909,1.159,1.257,1.619.6,2.063A.387.387,0,0,1,.386,2.13Z" transform="translate(101.878 77.539)" fill="#7dc7c5" stroke="#7dc7c5" stroke-width="1"/>
      <path id="Trazado_387" data-name="Trazado 387" d="M.385,2.963a.386.386,0,0,1-.354-.539C.34,1.712.63.982.894.254a.385.385,0,1,1,.725.263C1.349,1.259,1.054,2,.74,2.73A.386.386,0,0,1,.385,2.963Z" transform="translate(42.434 74.232)" fill="#7dc7c5" stroke="#7dc7c5" stroke-width="1"/>
      <path id="Trazado_388" data-name="Trazado 388" d="M.386,2.264a.386.386,0,0,1-.239-.689C.756,1.1,1.367.6,1.963.092a.386.386,0,0,1,.5.589c-.6.51-1.22,1.015-1.836,1.5A.384.384,0,0,1,.386,2.264Z" transform="translate(105.683 74.62)" fill="#7dc7c5" stroke="#7dc7c5" stroke-width="1"/>
      <path id="Trazado_389" data-name="Trazado 389" d="M1.228,2.973a.386.386,0,0,1-.352-.229A22.552,22.552,0,0,1,.019.5.385.385,0,1,1,.753.267,21.865,21.865,0,0,0,1.58,2.431a.386.386,0,0,1-.352.542Z" transform="translate(31.296 73.159)" fill="#7dc7c5" stroke="#7dc7c5" stroke-width="1"/>
      <path id="Trazado_390" data-name="Trazado 390" d="M.385,2.393a.386.386,0,0,1-.26-.671C.7,1.2,1.274.654,1.827.111a.386.386,0,0,1,.54.55c-.56.55-1.14,1.1-1.723,1.631A.386.386,0,0,1,.385,2.393Z" transform="translate(109.281 71.443)" fill="#7dc7c5" stroke="#7dc7c5" stroke-width="1"/>
      <path id="Trazado_391" data-name="Trazado 391" d="M.386,3.055a.377.377,0,0,1-.11-.016A.385.385,0,0,1,.016,2.56l.112-.388C.308,1.536.466.908.6.3a.386.386,0,0,1,.754.165c-.135.619-.3,1.263-.481,1.914l-.114.4A.387.387,0,0,1,.386,3.055Z" transform="translate(44.04 69.708)" fill="#7dc7c5" stroke="#7dc7c5" stroke-width="1"/>
      <path id="Trazado_392" data-name="Trazado 392" d="M.725,3.1A.386.386,0,0,1,.347,2.8,20.835,20.835,0,0,1,0,.419.385.385,0,1,1,.77.353,20.1,20.1,0,0,0,1.1,2.642.385.385,0,0,1,.8,3.1.4.4,0,0,1,.725,3.1Z" transform="translate(30.356 68.546)" fill="#7dc7c5" stroke="#7dc7c5" stroke-width="1"/>
      <path id="Trazado_393" data-name="Trazado 393" d="M.385,2.517a.386.386,0,0,1-.28-.651C.638,1.3,1.167.718,1.68.132a.386.386,0,0,1,.581.507C1.741,1.233,1.205,1.824.666,2.4A.384.384,0,0,1,.385,2.517Z" transform="translate(112.643 68.014)" fill="#7dc7c5" stroke="#7dc7c5" stroke-width="1"/>
      <path id="Trazado_394" data-name="Trazado 394" d="M.386,3.109l-.047,0A.386.386,0,0,1,0,2.677,19.108,19.108,0,0,0,.146.4.4.4,0,0,1,.531,0,.373.373,0,0,1,.917.371a20.026,20.026,0,0,1-.148,2.4A.386.386,0,0,1,.386,3.109Z" transform="translate(45.026 65.047)" fill="#7dc7c5" stroke="#7dc7c5" stroke-width="1"/>
      <path id="Trazado_395" data-name="Trazado 395" d="M.386,2.608a.386.386,0,0,1-.3-.631q.749-.91,1.475-1.83a.386.386,0,1,1,.606.477Q1.438,1.551.683,2.467A.385.385,0,0,1,.386,2.608Z" transform="translate(115.748 64.374)" fill="#7dc7c5" stroke="#7dc7c5" stroke-width="1"/>
      <path id="Trazado_396" data-name="Trazado 396" d="M.386,3.116H.371a.385.385,0,0,1-.37-.4A18.277,18.277,0,0,1,.249.321a.386.386,0,0,1,.76.131A17.5,17.5,0,0,0,.771,2.746.386.386,0,0,1,.386,3.116Z" transform="translate(30.297 63.845)" fill="#7dc7c5" stroke="#7dc7c5" stroke-width="1"/>
      <path id="Trazado_397" data-name="Trazado 397" d="M.977,3.051A.385.385,0,0,1,.6,2.726,11.643,11.643,0,0,0,.024.52.386.386,0,0,1,.747.251,12.432,12.432,0,0,1,1.358,2.6a.385.385,0,0,1-.319.441A.37.37,0,0,1,.977,3.051Z" transform="translate(44.398 60.405)" fill="#7dc7c5" stroke="#7dc7c5" stroke-width="1"/>
      <path id="Trazado_398" data-name="Trazado 398" d="M.385,2.672a.386.386,0,0,1-.308-.618Q.785,1.114,1.468.161a.386.386,0,0,1,.627.45q-.689.961-1.4,1.907A.385.385,0,0,1,.385,2.672Z" transform="translate(118.667 60.605)" fill="#7dc7c5" stroke="#7dc7c5" stroke-width="1"/>
      <path id="Trazado_399" data-name="Trazado 399" d="M.386,2.946a.387.387,0,0,1-.367-.5q.069-.213.144-.426A13.876,13.876,0,0,1,.946.207.386.386,0,1,1,1.63.563,13.106,13.106,0,0,0,.89,2.272c-.047.135-.093.271-.137.407A.386.386,0,0,1,.386,2.946Z" transform="translate(31.103 59.383)" fill="#7dc7c5" stroke="#7dc7c5" stroke-width="1"/>
      <path id="Trazado_400" data-name="Trazado 400" d="M.385,2.737a.386.386,0,0,1-.318-.6q.66-.971,1.3-1.958a.386.386,0,0,1,.649.417Q1.37,1.59.7,2.568A.384.384,0,0,1,.385,2.737Z" transform="translate(121.413 56.706)" fill="#7dc7c5" stroke="#7dc7c5" stroke-width="1"/>
      <path id="Trazado_401" data-name="Trazado 401" d="M2,2.476a.385.385,0,0,1-.313-.161A8.111,8.111,0,0,0,.146.688a.385.385,0,1,1,.479-.6A8.892,8.892,0,0,1,2.317,1.866.386.386,0,0,1,2,2.476Z" transform="translate(41.676 56.623)" fill="#7dc7c5" stroke="#7dc7c5" stroke-width="1"/>
      <path id="Trazado_402" data-name="Trazado 402" d="M.385,2.3a.386.386,0,0,1-.293-.636A7.565,7.565,0,0,1,1.969.054a.386.386,0,0,1,.393.664A6.783,6.783,0,0,0,.679,2.166.385.385,0,0,1,.385,2.3Z" transform="translate(33.31 55.894)" fill="#7dc7c5" stroke="#7dc7c5" stroke-width="1"/>
      <path id="Trazado_403" data-name="Trazado 403" d="M2.7,1.1a.4.4,0,0,1-.129-.022A5.2,5.2,0,0,0,.836.772,2.118,2.118,0,0,0,.418.789.38.38,0,0,1,0,.438.385.385,0,0,1,.352.021C.514.007.673,0,.837,0a6,6,0,0,1,2,.353A.386.386,0,0,1,2.7,1.1Z" transform="translate(37.311 55.142)" fill="#7dc7c5" stroke="#7dc7c5" stroke-width="1"/>
      <path id="Trazado_404" data-name="Trazado 404" d="M.385,2.8a.386.386,0,0,1-.329-.586q.608-1,1.192-2.021a.386.386,0,1,1,.67.383q-.589,1.03-1.2,2.039A.386.386,0,0,1,.385,2.8Z" transform="translate(123.965 52.677)" fill="#7dc7c5" stroke="#7dc7c5" stroke-width="1"/>
      <path id="Trazado_405" data-name="Trazado 405" d="M.385,2.862a.386.386,0,0,1-.339-.568Q.6,1.265,1.13.212A.385.385,0,1,1,1.818.56Q1.284,1.621.725,2.659A.385.385,0,0,1,.385,2.862Z" transform="translate(126.307 48.525)" fill="#7dc7c5" stroke="#7dc7c5" stroke-width="1"/>
      <path id="Trazado_406" data-name="Trazado 406" d="M.386,2.917a.386.386,0,0,1-.349-.55q.3-.631.587-1.271C.753.809.883.52,1.01.23a.386.386,0,0,1,.706.311q-.193.437-.389.872Q1.034,2.059.734,2.7A.386.386,0,0,1,.386,2.917Z" transform="translate(128.427 44.262)" fill="#7dc7c5" stroke="#7dc7c5" stroke-width="1"/>
      <path id="Trazado_407" data-name="Trazado 407" d="M.386,2.961A.386.386,0,0,1,.03,2.428Q.479,1.344.9.248A.385.385,0,1,1,1.62.524Q1.2,1.63.742,2.723A.386.386,0,0,1,.386,2.961Z" transform="translate(130.332 39.904)" fill="#7dc7c5" stroke="#7dc7c5" stroke-width="1"/>
      <path id="Trazado_408" data-name="Trazado 408" d="M.386,3.007a.39.39,0,0,1-.128-.022.386.386,0,0,1-.236-.492Q.412,1.387.768.268A.385.385,0,1,1,1.5.5Q1.144,1.631.75,2.749A.387.387,0,0,1,.386,3.007Z" transform="translate(132.022 35.456)" fill="#7dc7c5" stroke="#7dc7c5" stroke-width="1"/>
      <path id="Trazado_409" data-name="Trazado 409" d="M.386,3.053a.394.394,0,0,1-.1-.015.386.386,0,0,1-.267-.476c.21-.748.41-1.511.592-2.268a.386.386,0,1,1,.75.181c-.185.766-.387,1.538-.6,2.3A.387.387,0,0,1,.386,3.053Z" transform="translate(133.448 30.915)" fill="#7dc7c5" stroke="#7dc7c5" stroke-width="1"/>
      <path id="Trazado_410" data-name="Trazado 410" d="M.386,3.093A.4.4,0,0,1,.31,3.085a.386.386,0,0,1-.3-.454C.162,1.858.3,1.082.415.327a.386.386,0,0,1,.762.117C1.059,1.21.92,2,.764,2.782A.385.385,0,0,1,.386,3.093Z" transform="translate(134.551 26.29)" fill="#7dc7c5" stroke="#7dc7c5" stroke-width="1"/>
      <path id="Trazado_411" data-name="Trazado 411" d="M.386,3.121l-.042,0A.386.386,0,0,1,0,2.695C.086,1.912.151,1.128.193.364a.386.386,0,0,1,.77.043C.919,1.185.854,1.982.769,2.777A.386.386,0,0,1,.386,3.121Z" transform="translate(135.266 21.602)" fill="#7dc7c5" stroke="#7dc7c5" stroke-width="1"/>
      <path id="Trazado_412" data-name="Trazado 412" d="M.476,3.127h0A.386.386,0,0,1,.09,2.738V2.355C.088,1.714.058,1.063,0,.419A.385.385,0,1,1,.769.352c.058.666.089,1.338.092,2v.4A.386.386,0,0,1,.476,3.127Z" transform="translate(135.442 16.89)" fill="#7dc7c5" stroke="#7dc7c5" stroke-width="1"/>
      <path id="Trazado_413" data-name="Trazado 413" d="M.942,3.062a.386.386,0,0,1-.378-.314A22.853,22.853,0,0,0,.016.5.386.386,0,0,1,.755.276,23.5,23.5,0,0,1,1.321,2.6a.385.385,0,0,1-.379.457Z" transform="translate(134.561 12.261)" fill="#7dc7c5" stroke="#7dc7c5" stroke-width="1"/>
      <path id="Trazado_414" data-name="Trazado 414" d="M.385,2.843a.385.385,0,0,1-.342-.562C.417,1.555.8.853,1.174.194a.386.386,0,1,1,.67.382C1.473,1.226,1.1,1.918.728,2.634A.385.385,0,0,1,.385,2.843Z" transform="translate(104.15 11.404)" fill="#7dc7c5" stroke="#7dc7c5" stroke-width="1"/>
      <path id="Trazado_415" data-name="Trazado 415" d="M1.415,2.892a.386.386,0,0,1-.356-.237A20.579,20.579,0,0,0,.049.574.385.385,0,1,1,.722.2,21.174,21.174,0,0,1,1.77,2.358a.386.386,0,0,1-.356.534Z" transform="translate(132.741 7.92)" fill="#7dc7c5" stroke="#7dc7c5" stroke-width="1"/>
      <path id="Trazado_416" data-name="Trazado 416" d="M.385,2.713A.386.386,0,0,1,.061,2.12C.5,1.429.959.768,1.412.156a.386.386,0,0,1,.62.459c-.443.6-.888,1.245-1.322,1.922A.385.385,0,0,1,.385,2.713Z" transform="translate(106.493 7.444)" fill="#7dc7c5" stroke="#7dc7c5" stroke-width="1"/>
      <path id="Trazado_417" data-name="Trazado 417" d="M1.908,2.569A.385.385,0,0,1,1.6,2.412,16.662,16.662,0,0,0,.11.655.385.385,0,1,1,.661.116a17.272,17.272,0,0,1,1.556,1.84.385.385,0,0,1-.31.614Z" transform="translate(129.946 4.139)" fill="#7dc7c5" stroke="#7dc7c5" stroke-width="1"/>
      <path id="Trazado_418" data-name="Trazado 418" d="M.386,2.462a.385.385,0,0,1-.29-.64A22.824,22.824,0,0,1,1.767.1.386.386,0,1,1,2.29.669,22.019,22.019,0,0,0,.676,2.331.385.385,0,0,1,.386,2.462Z" transform="translate(109.307 3.915)" fill="#7dc7c5" stroke="#7dc7c5" stroke-width="1"/>
      <path id="Trazado_419" data-name="Trazado 419" d="M2.384,2.014a.383.383,0,0,1-.23-.076A13.338,13.338,0,0,0,.211.729.386.386,0,1,1,.56.042,14.1,14.1,0,0,1,2.615,1.32a.386.386,0,0,1-.231.694Z" transform="translate(126.176 1.339)" fill="#7dc7c5" stroke="#7dc7c5" stroke-width="1"/>
      <path id="Trazado_420" data-name="Trazado 420" d="M.386,1.97a.385.385,0,0,1-.222-.7A15.1,15.1,0,0,1,2.244.038.386.386,0,0,1,2.58.732,14.319,14.319,0,0,0,.607,1.9.383.383,0,0,1,.386,1.97Z" transform="translate(112.779 1.233)" fill="#7dc7c5" stroke="#7dc7c5" stroke-width="1"/>
      <path id="Trazado_421" data-name="Trazado 421" d="M2.7,1.216A.387.387,0,0,1,2.589,1.2,12.229,12.229,0,0,0,.562.792L.346.769A.385.385,0,0,1,0,.346.39.39,0,0,1,.425,0L.65.026A13.019,13.019,0,0,1,2.8.46a.386.386,0,0,1-.108.756Z" transform="translate(121.677 0.029)" fill="#7dc7c5" stroke="#7dc7c5" stroke-width="1"/>
      <path id="Trazado_422" data-name="Trazado 422" d="M.386,1.174a.386.386,0,0,1-.1-.758A12.843,12.843,0,0,1,2.673,0a.385.385,0,1,1,.06.769,12.072,12.072,0,0,0-2.246.39A.392.392,0,0,1,.386,1.174Z" transform="translate(117.007 0)" fill="#7dc7c5" stroke="#7dc7c5" stroke-width="1"/>
      <g id="Grupo_178" data-name="Grupo 178" transform="translate(101.935 15.7)">
        <path id="Trazado_423" data-name="Trazado 423" d="M1.052,2.289.674,1.66Q.364,1.143.059.654A.386.386,0,0,1,.713.245q.123.2.245.4.1-.211.2-.421a.385.385,0,0,1,.7.33q-.252.533-.5,1.072Z" transform="translate(0 0)" fill="#7dc7c5" stroke="#7dc7c5" stroke-width="1"/>
      </g>
      <path id="Trazado_424" data-name="Trazado 424" d="M64.781,64.5h0q-1.195-.013-2.388-.064a.385.385,0,0,1-.368-.4.4.4,0,0,1,.4-.368q1.18.051,2.363.063a.386.386,0,0,1,0,.771Zm2.377-.013a.386.386,0,0,1-.008-.771q1.182-.025,2.363-.088a.4.4,0,0,1,.405.365.386.386,0,0,1-.365.405q-1.193.063-2.387.088ZM60.034,64.3H60q-1.192-.09-2.379-.218a.386.386,0,1,1,.083-.767q1.174.127,2.354.216a.386.386,0,0,1-.028.77Zm11.869-.06a.386.386,0,0,1-.032-.77q1.177-.1,2.352-.237a.385.385,0,0,1,.089.766q-1.187.139-2.377.239Zm-16.6-.452a.353.353,0,0,1-.054,0c-.781-.11-1.575-.236-2.36-.373a.386.386,0,0,1,.133-.76c.777.136,1.562.261,2.334.37a.386.386,0,0,1-.053.767Zm21.316-.1a.386.386,0,0,1-.056-.767q1.169-.174,2.333-.385a.386.386,0,1,1,.138.759q-1.176.213-2.357.388A.367.367,0,0,1,76.624,63.689Zm-26-.722a.371.371,0,0,1-.08-.009c-.773-.162-1.556-.341-2.33-.53a.385.385,0,0,1,.184-.748c.765.188,1.54.364,2.3.525a.386.386,0,0,1-.079.763ZM81.3,62.842a.386.386,0,0,1-.08-.763q1.156-.247,2.3-.531a.385.385,0,1,1,.185.748q-1.16.287-2.328.536A.388.388,0,0,1,81.3,62.842ZM46.012,61.832a.385.385,0,0,1-.1-.014c-.765-.216-1.535-.447-2.289-.689a.386.386,0,1,1,.235-.734c.746.239,1.507.468,2.263.681a.386.386,0,0,1-.1.757Zm39.9-.129a.386.386,0,0,1-.1-.757q1.137-.319,2.266-.675a.386.386,0,1,1,.232.736q-1.139.36-2.289.682A.38.38,0,0,1,85.914,61.7Zm-44.429-1.32a.392.392,0,0,1-.13-.023q-.915-.328-1.82-.683l-.416-.164a.385.385,0,1,1,.286-.716l.409.161q.9.352,1.8.675a.386.386,0,0,1-.13.749Zm48.962-.11a.386.386,0,0,1-.127-.749q1.115-.391,2.217-.818a.386.386,0,1,1,.279.719q-1.115.432-2.242.826A.378.378,0,0,1,90.447,60.274ZM37.068,58.629a.386.386,0,0,1-.153-.032q-1.095-.474-2.178-.982a.386.386,0,0,1,.327-.7q1.072.5,2.157.973a.386.386,0,0,1-.153.74Zm57.811-.071a.386.386,0,0,1-.151-.741q1.087-.461,2.161-.959a.386.386,0,0,1,.324.7q-1.085.5-2.184.969A.386.386,0,0,1,94.878,58.558ZM32.763,56.611a.386.386,0,0,1-.173-.041q-1.067-.537-2.117-1.106a.385.385,0,1,1,.367-.678q1.04.563,2.1,1.095a.386.386,0,0,1-.174.73Zm66.429-.05a.386.386,0,0,1-.174-.73q1.054-.53,2.093-1.1a.385.385,0,1,1,.369.677q-1.05.573-2.115,1.109A.387.387,0,0,1,99.191,56.561ZM28.583,54.35a.383.383,0,0,1-.193-.052q-1.035-.6-2.049-1.227a.386.386,0,0,1,.406-.656q1,.621,2.03,1.215a.386.386,0,0,1-.194.719Zm74.78-.064a.386.386,0,0,1-.2-.718c.684-.4,1.362-.817,2.016-1.233a.386.386,0,1,1,.414.651c-.66.42-1.346.839-2.038,1.246A.387.387,0,0,1,103.363,54.286ZM24.541,51.848a.383.383,0,0,1-.212-.064q-1-.66-1.972-1.346a.386.386,0,0,1,.444-.63q.963.679,1.953,1.333a.386.386,0,0,1-.213.707Zm82.835-.109a.386.386,0,0,1-.214-.707l.039-.027c.664-.454,1.293-.9,1.88-1.34a.385.385,0,1,1,.461.617c-.595.444-1.233.9-1.9,1.354l-.055.038A.386.386,0,0,1,107.376,51.74ZM20.658,49.11a.385.385,0,0,1-.231-.078c-.635-.477-1.269-.97-1.885-1.467a.385.385,0,1,1,.484-.6q.915.737,1.865,1.45a.386.386,0,0,1-.232.694Zm90.519-.221a.386.386,0,0,1-.247-.682c.617-.515,1.208-1.042,1.755-1.564a.386.386,0,0,1,.533.557c-.56.535-1.164,1.073-1.793,1.6A.385.385,0,0,1,111.176,48.889ZM16.958,46.132a.383.383,0,0,1-.251-.094c-.607-.523-1.206-1.058-1.782-1.592a.385.385,0,0,1,.524-.565c.569.527,1.161,1.056,1.761,1.573a.386.386,0,0,1-.252.678ZM114.6,45.6a.386.386,0,0,1-.287-.642c.529-.593,1.027-1.2,1.478-1.814a.385.385,0,1,1,.62.458c-.465.63-.978,1.258-1.523,1.869A.382.382,0,0,1,114.6,45.6Zm6.828-2.311q-.457,0-.909-.016a.386.386,0,0,1,.028-.771c.769.027,1.558.019,2.34-.026a.385.385,0,0,1,.044.77C122.436,43.276,121.93,43.29,121.433,43.29Zm-3.262-.22a.411.411,0,0,1-.053,0,21.89,21.89,0,0,1-2.374-.462.386.386,0,0,1,.19-.747,21.084,21.084,0,0,0,2.289.445.386.386,0,0,1-.052.767Zm7.106-.061a.386.386,0,0,1-.054-.767c.763-.11,1.539-.254,2.305-.429a.386.386,0,0,1,.171.752c-.787.179-1.583.327-2.367.441A.413.413,0,0,1,125.277,43.009Zm-111.808-.1a.385.385,0,0,1-.27-.11q-.877-.863-1.678-1.7a.386.386,0,0,1,.558-.533q.792.83,1.66,1.682a.386.386,0,0,1-.27.661Zm116.443-.934a.386.386,0,0,1-.107-.756c.744-.215,1.5-.453,2.248-.709a.386.386,0,0,1,.249.73c-.76.259-1.528.5-2.283.72A.387.387,0,0,1,129.912,41.973ZM113.577,41.9a.386.386,0,0,1-.14-.027,18.391,18.391,0,0,1-2.2-1.026.385.385,0,1,1,.372-.675,17.67,17.67,0,0,0,2.105.983.386.386,0,0,1-.14.745Zm3.839-.116a.385.385,0,0,1-.332-.581,20.217,20.217,0,0,0,1.063-2.074.385.385,0,1,1,.705.311,21.182,21.182,0,0,1-1.1,2.153A.385.385,0,0,1,117.416,41.78Zm16.993-1.337a.386.386,0,0,1-.14-.745c.725-.283,1.457-.587,2.179-.9a.386.386,0,0,1,.31.706c-.732.321-1.475.63-2.209.917A.384.384,0,0,1,134.409,40.443ZM109.431,39.6a.383.383,0,0,1-.231-.077,16.929,16.929,0,0,1-1.831-1.6.386.386,0,1,1,.548-.543,16.107,16.107,0,0,0,1.747,1.524.385.385,0,0,1-.232.694Zm-99.239-.134a.384.384,0,0,1-.289-.13c-.539-.61-1.059-1.226-1.543-1.83a.386.386,0,1,1,.6-.483c.477.595.988,1.2,1.52,1.8a.385.385,0,0,1-.289.641Zm128.568-.934a.386.386,0,0,1-.169-.732c.7-.341,1.409-.7,2.1-1.074a.386.386,0,0,1,.364.68c-.7.376-1.42.741-2.13,1.087A.384.384,0,0,1,138.76,38.534Zm-19.458-1.1a.379.379,0,0,1-.1-.015.386.386,0,0,1-.268-.475,17.084,17.084,0,0,0,.471-2.274.39.39,0,0,1,.434-.33.385.385,0,0,1,.33.434,17.766,17.766,0,0,1-.492,2.377A.386.386,0,0,1,119.3,37.431ZM142.953,36.3a.386.386,0,0,1-.195-.719c.679-.4,1.36-.807,2.022-1.224a.386.386,0,0,1,.411.652c-.67.422-1.358.839-2.045,1.238A.387.387,0,0,1,142.953,36.3ZM106.1,36.24a.386.386,0,0,1-.311-.156q-.137-.185-.272-.376a11.151,11.151,0,0,1-.982-1.729.385.385,0,0,1,.7-.324,10.359,10.359,0,0,0,.913,1.609c.086.122.173.242.261.361a.386.386,0,0,1-.309.615ZM7.223,35.76A.385.385,0,0,1,6.91,35.6c-.468-.652-.919-1.322-1.34-1.989a.386.386,0,0,1,.652-.412c.413.655.855,1.311,1.315,1.951a.385.385,0,0,1-.313.61Zm139.753-2a.386.386,0,0,1-.217-.7c.651-.442,1.3-.9,1.934-1.361a.386.386,0,1,1,.454.623c-.639.466-1.3.929-1.955,1.376A.385.385,0,0,1,146.976,33.763Zm-27.031-1.028a.386.386,0,0,1-.386-.385,15.523,15.523,0,0,0-.173-2.311.386.386,0,1,1,.762-.116,16.282,16.282,0,0,1,.183,2.426.386.386,0,0,1-.385.386Zm-15.87-.766a.386.386,0,0,1-.372-.286,13.194,13.194,0,0,1-.42-2.41.386.386,0,0,1,.769-.058,12.359,12.359,0,0,0,.4,2.268.386.386,0,0,1-.273.472A.378.378,0,0,1,104.075,31.969ZM4.689,31.744a.385.385,0,0,1-.338-.2c-.379-.688-.748-1.406-1.1-2.133a.386.386,0,0,1,.7-.333c.342.714.7,1.419,1.076,2.094a.385.385,0,0,1-.337.571Zm146.127-.781a.386.386,0,0,1-.238-.689l.242-.19q.805-.635,1.595-1.3a.385.385,0,1,1,.5.59q-.8.67-1.614,1.315l-.242.19A.385.385,0,0,1,150.816,30.963Zm-31.6-2.906a.386.386,0,0,1-.365-.263,11.2,11.2,0,0,0-.941-2.092.386.386,0,0,1,.666-.389,12.022,12.022,0,0,1,1.006,2.236.385.385,0,0,1-.243.488A.392.392,0,0,1,119.215,28.057Zm35.241-.15a.385.385,0,0,1-.258-.672q.875-.787,1.734-1.608a.386.386,0,0,1,.533.557q-.868.83-1.751,1.624A.383.383,0,0,1,154.456,27.907ZM2.633,27.463a.386.386,0,0,1-.356-.237q-.309-.735-.6-1.5-.14-.364-.27-.734a.385.385,0,1,1,.728-.255q.126.359.261.712.291.755.594,1.479a.386.386,0,0,1-.355.535Zm101.156-.2a.379.379,0,0,1-.077-.008.385.385,0,0,1-.3-.455q.044-.219.1-.43a8.934,8.934,0,0,1,.759-1.9.385.385,0,1,1,.677.37,8.116,8.116,0,0,0-.692,1.734c-.034.124-.065.25-.091.378A.385.385,0,0,1,103.789,27.264Zm54.1-2.64a.385.385,0,0,1-.274-.657q.825-.835,1.642-1.7a.386.386,0,0,1,.562.529q-.824.875-1.656,1.717A.384.384,0,0,1,157.891,24.624ZM116.808,24a.385.385,0,0,1-.276-.116q-.226-.231-.47-.445a8.288,8.288,0,0,0-1.318-.945.386.386,0,0,1,.386-.668,9.07,9.07,0,0,1,1.44,1.033q.267.233.514.486a.385.385,0,0,1-.276.655Zm-10.741-.825a.386.386,0,0,1-.259-.671,7.073,7.073,0,0,1,2.121-1.323.386.386,0,0,1,.287.716,6.285,6.285,0,0,0-1.89,1.179A.385.385,0,0,1,106.068,23.18ZM1.09,22.972a.386.386,0,0,1-.374-.293C.522,21.9.366,21.1.25,20.311a.385.385,0,0,1,.763-.112c.112.764.264,1.536.451,2.295a.385.385,0,0,1-.282.467A.377.377,0,0,1,1.09,22.972ZM112.743,21.66a.384.384,0,0,1-.094-.012,7.672,7.672,0,0,0-1.856-.231,2.747,2.747,0,0,1-.388.01.392.392,0,0,1-.4-.365.386.386,0,0,1,.365-.4c.141-.008.283-.011.424-.011h0a8.441,8.441,0,0,1,2.042.254.386.386,0,0,1-.093.76Zm48.406-.5a.386.386,0,0,1-.287-.643q.784-.872,1.568-1.776a.386.386,0,1,1,.583.505q-.789.91-1.577,1.787A.384.384,0,0,1,161.149,21.164ZM.406,18.275a.386.386,0,0,1-.385-.369Q0,17.421,0,16.934c0-.482.016-.969.048-1.446a.385.385,0,0,1,.769.052c-.031.46-.047.929-.046,1.394q0,.47.021.939a.386.386,0,0,1-.368.4Zm.328-4.731a.393.393,0,0,1-.073-.007.386.386,0,0,1-.306-.451,18.456,18.456,0,0,1,.61-2.348.386.386,0,0,1,.732.243,17.623,17.623,0,0,0-.584,2.25A.386.386,0,0,1,.734,13.543ZM30.893,10.8a.385.385,0,0,1-.318-.167c-.466-.678-.932-1.318-1.386-1.9a.386.386,0,1,1,.608-.474c.464.6.939,1.248,1.414,1.938a.385.385,0,0,1-.1.536A.381.381,0,0,1,30.893,10.8ZM2.236,9.049a.386.386,0,0,1-.344-.558A16.43,16.43,0,0,1,3.138,6.4a.386.386,0,0,1,.631.444,15.655,15.655,0,0,0-1.188,1.99A.386.386,0,0,1,2.236,9.049ZM27.963,7.064a.383.383,0,0,1-.284-.125c-.54-.59-1.1-1.143-1.66-1.644a.386.386,0,0,1,.514-.575c.58.519,1.157,1.09,1.715,1.7a.385.385,0,0,1-.284.646Zm-23-1.889a.386.386,0,0,1-.279-.652A17.225,17.225,0,0,1,6.215,3.1q.131-.108.267-.213a.386.386,0,0,1,.471.611c-.084.065-.167.131-.248.2A16.427,16.427,0,0,0,5.239,5.056.385.385,0,0,1,4.96,5.175ZM24.421,3.908a.383.383,0,0,1-.224-.072,22.385,22.385,0,0,0-1.969-1.255.385.385,0,0,1,.381-.67,23.042,23.042,0,0,1,2.037,1.3.385.385,0,0,1-.224.7ZM8.73,2.32a.386.386,0,0,1-.173-.73,14.51,14.51,0,0,1,2.266-.9.385.385,0,1,1,.225.737A13.7,13.7,0,0,0,8.9,2.279.382.382,0,0,1,8.73,2.32ZM20.28,1.6a.382.382,0,0,1-.134-.024A12.637,12.637,0,0,0,17.922.982a.386.386,0,0,1,.132-.76,13.438,13.438,0,0,1,2.361.632.386.386,0,0,1-.134.747ZM13.253.926A.385.385,0,0,1,13.2.159,16.026,16.026,0,0,1,15.444,0h.182a.385.385,0,0,1,.382.389.377.377,0,0,1-.389.382h-.176a15.232,15.232,0,0,0-2.135.151A.383.383,0,0,1,13.253.926Z" transform="translate(70.128 3.743)" fill="#7dc7c5" stroke="#7dc7c5" stroke-width="1"/>
    </g>
  </g>
</svg>
