<svg xmlns="http://www.w3.org/2000/svg" width="34" height="25" viewBox="0 0 34 25">
  <path id="Trazado_21" data-name="Trazado 21" d="M30.813,4.167H3.188A3.16,3.16,0,0,0,0,7.292v18.75a3.16,3.16,0,0,0,3.188,3.125H30.813A3.16,3.16,0,0,0,34,26.042V7.292A3.16,3.16,0,0,0,30.813,4.167Zm0,2.083a1.075,1.075,0,0,1,.407.081L17,18.413,2.78,6.331a1.076,1.076,0,0,1,.407-.081Zm0,20.833H3.188a1.053,1.053,0,0,1-1.063-1.042V8.532L16.3,20.579a1.08,1.08,0,0,0,1.393,0L31.875,8.532v17.51A1.053,1.053,0,0,1,30.813,27.083Z" transform="translate(0 -4.167)" fill="#2e335e"/>
</svg>
