<svg xmlns="http://www.w3.org/2000/svg" width="66" height="79" viewBox="0 0 66 79">
  <g id="Grupo_853" data-name="Grupo 853" transform="translate(-127.5 -803)">
    <g id="Grupo_586" data-name="Grupo 586" transform="translate(-3.5)">
      <text id="Desarrollo_Socio-emocional" data-name="Desarrollo Socio-emocional" transform="translate(131.5 848.5)" fill="#7dc7c5" stroke="#7dc7c5" stroke-width="0.5" font-size="10" font-family="Helvetica" letter-spacing="0.025em"><tspan x="8.236" y="8">Desarrollo </tspan><tspan x="17.349" y="18">Socio-</tspan><tspan x="8.356" y="28">emocional</tspan></text>
    </g>
    <g id="Grupo_761" data-name="Grupo 761" transform="translate(-82.937 713.313)">
      <path id="Trazado_618" data-name="Trazado 618" d="M244.988,91.252c-3.124.186-6.025,3.207-6.116,5.905a7.019,7.019,0,0,0,6.116-5.905m1.984.032c-.251,2.634,3.48,6.442,6,6.125a6.988,6.988,0,0,0-6-6.125m-8.228,7.409a7.173,7.173,0,0,0,7.2,6.848A7.079,7.079,0,0,0,253.014,99a8.487,8.487,0,0,1-4.285-1.713,9.079,9.079,0,0,1-2.838-3.746,9.026,9.026,0,0,1-2.905,3.568,8.766,8.766,0,0,1-4.242,1.583m-1.567.037c-3.1.047-6.073,3.022-6.358,6.384h3.122v1.41h-4.636a8.556,8.556,0,0,1,2.045-6.3,8.674,8.674,0,0,1,5.936-3.035,8.628,8.628,0,0,1,3.7-5.987,8.324,8.324,0,0,1,5.763-1.464,8.635,8.635,0,0,1,.228,17.157,8.705,8.705,0,0,1-9.8-8.168" transform="translate(0.472)" fill="#7dc7c5"/>
      <path id="Trazado_619" data-name="Trazado 619" d="M233.115,116.435c-.533.169-1.027.323-1.518.484a4.355,4.355,0,0,0-3.152,3.887,4.25,4.25,0,0,0,2.058,4.247,4.3,4.3,0,0,0,4.829.079q4.855-2.9,9.7-5.827c.186-.112.363-.239.56-.369-2-1.662-2.529-2.786-2.679-5.74l-8.385,2.775a11.228,11.228,0,0,0,2.67,4.536l-.937,1.092a12.894,12.894,0,0,1-3.14-5.164M232.742,115a12.608,12.608,0,0,1,3.538-11.181l.865,1.15a11.1,11.1,0,0,0-2.577,4.3,10.645,10.645,0,0,0-.36,5.238c.325-.1.6-.171.878-.261,2.717-.9,5.431-1.8,8.153-2.682a.931.931,0,0,1,.773.084c.3.273.713.474.555,1.1A4.406,4.406,0,0,0,247,117.981c.562.285.413.755.47,1.158.024.18-.2.478-.392.593-3.767,2.294-7.506,4.639-11.336,6.826a5.991,5.991,0,1,1-4.562-11.022c.524-.135,1.028-.349,1.567-.536" transform="translate(0 2.84)" fill="#7dc7c5"/>
      <path id="Trazado_620" data-name="Trazado 620" d="M248.2,107.784a4.55,4.55,0,1,0,4.586,4.514,4.556,4.556,0,0,0-4.586-4.514m-.1,10.547a6.015,6.015,0,1,1,6.167-5.976,6.065,6.065,0,0,1-6.167,5.976" transform="translate(3.063 3.339)" fill="#7dc7c5"/>
      <path id="Trazado_621" data-name="Trazado 621" d="M251.166,121.559l-.909-.99c4.239-5.2,4.253-10.458-.026-15.758l.919-.9c4.486,4.077,5.32,12.373.017,17.651" transform="translate(4.68 2.857)" fill="#7dc7c5"/>
    </g>
  </g>
</svg>
