<svg xmlns="http://www.w3.org/2000/svg" width="55" height="62.753" viewBox="0 0 55 62.753">
  <g id="Grupo_854" data-name="Grupo 854" transform="translate(-213.5 -807.247)">
    <g id="Grupo_588" data-name="Grupo 588" transform="translate(0)">
      <text id="Desarrollo_Físico_" data-name="Desarrollo Físico " transform="translate(214 848.5)" fill="#7dc7c5" stroke="#7dc7c5" stroke-width="0.5" font-size="10" font-family="Helvetica" letter-spacing="0.025em"><tspan x="2.736" y="8">Desarrollo </tspan><tspan x="12.686" y="18">Físico </tspan></text>
    </g>
    <g id="Grupo_774" data-name="Grupo 774" transform="translate(214.377 807.247)">
      <g id="Grupo_763" data-name="Grupo 763" transform="translate(15.914 0)">
        <g id="Grupo_762" data-name="Grupo 762" transform="translate(0 0)">
          <path id="Trazado_1348" data-name="Trazado 1348" d="M102.439,12.237,97.941.756a1.216,1.216,0,0,0-1.56-.675L84.9,4.578a1.2,1.2,0,0,0-.675,1.56l4.532,11.481a1.2,1.2,0,0,0,1.56.675l11.447-4.5A1.2,1.2,0,0,0,102.439,12.237Zm-12.48,4.741-4.39-11.17,11.17-4.4,4.39,11.177Z" transform="translate(-84.14 0)" fill="#7dc7c5"/>
        </g>
      </g>
      <g id="Grupo_765" data-name="Grupo 765" transform="translate(9.623 19.443)">
        <g id="Grupo_764" data-name="Grupo 764" transform="translate(0)">
          <path id="Trazado_1349" data-name="Trazado 1349" d="M23.123,230.316h-12.3a1.2,1.2,0,0,0-1.2,1.2v12.3a1.2,1.2,0,0,0,1.2,1.2h12.3a1.2,1.2,0,0,0,1.2-1.2v-12.3A1.2,1.2,0,0,0,23.123,230.316Zm-.149,13.352h-12v-12h12Z" transform="translate(-9.623 -230.316)" fill="#7dc7c5"/>
        </g>
      </g>
      <g id="Grupo_767" data-name="Grupo 767" transform="translate(24.723 16.18)">
        <g id="Grupo_766" data-name="Grupo 766" transform="translate(0)">
          <path id="Trazado_1350" data-name="Trazado 1350" d="M205.055,194.856,193.169,191.7a1.222,1.222,0,0,0-1.472.878l-3.161,11.886a1.2,1.2,0,0,0,.85,1.472h0l11.886,3.161a1.2,1.2,0,0,0,1.472-.85h0l3.134-11.913A1.2,1.2,0,0,0,205.055,194.856Zm-3.573,12.832-11.6-3.046,3.086-11.6,11.6,3.086Z" transform="translate(-188.495 -191.66)" fill="#7dc7c5"/>
        </g>
      </g>
      <g id="Grupo_769" data-name="Grupo 769" transform="translate(22.995 5.474)">
        <g id="Grupo_768" data-name="Grupo 768">
          <path id="Trazado_1351" data-name="Trazado 1351" d="M174.165,69.891a2.276,2.276,0,0,0-.48-.621l-3.377-3.559-.4-.432a2.024,2.024,0,0,0-.331-.277.946.946,0,0,0-.405-.155,1.141,1.141,0,0,0-.918.365.938.938,0,0,0-.189.392,2.381,2.381,0,0,0-.047.513v5.423q.02.3.034.466a1.008,1.008,0,0,0,.061.3.6.6,0,0,0,.358.338.675.675,0,0,0,.513,0,.533.533,0,0,0,.358-.338,3.2,3.2,0,0,0,.054-.79v-.966l2.668-1.047.635.675.29.29a1.492,1.492,0,0,0,.277.23.581.581,0,0,0,.25.081.636.636,0,0,0,.29-.047.676.676,0,0,0,.358-.344A.628.628,0,0,0,174.165,69.891Zm-4.829-.493-.095-3.066,2.053,2.3Z" transform="translate(-168.019 -64.843)" fill="#7dc7c5"/>
        </g>
      </g>
      <g id="Grupo_771" data-name="Grupo 771" transform="translate(14.211 22.949)">
        <g id="Grupo_770" data-name="Grupo 770">
          <path id="Trazado_1352" data-name="Trazado 1352" d="M68.414,275.174a1.621,1.621,0,0,0,1.054-1.547,1.688,1.688,0,0,0-.1-.581,1.669,1.669,0,0,0-.29-.507,1.729,1.729,0,0,0-.439-.378,1.866,1.866,0,0,0-.675-.243,5.34,5.34,0,0,0-.871-.061H64.848a.905.905,0,0,0-.675.2.925.925,0,0,0-.2.675v5.295a.939.939,0,0,0,.2.675.891.891,0,0,0,.682.209H67a7.56,7.56,0,0,0,.939-.088,2.9,2.9,0,0,0,.743-.189,1.817,1.817,0,0,0,.817-.675,1.932,1.932,0,0,0,.3-1.067A1.722,1.722,0,0,0,68.414,275.174Zm-3.005-2.229h1.128a2.9,2.9,0,0,1,1.155.176.675.675,0,0,1,.378.675.872.872,0,0,1-.122.452.783.783,0,0,1-.446.385,2.621,2.621,0,0,1-.824.1h-1.3Zm2.945,3.856q0,1.04-1.445,1.04H65.375l.034-2.053h1.466a2.1,2.1,0,0,1,1.121.243A.851.851,0,0,1,68.354,276.8Z" transform="translate(-63.966 -271.853)" fill="#7dc7c5"/>
        </g>
      </g>
      <g id="Grupo_773" data-name="Grupo 773" transform="translate(30.323 21.018)">
        <g id="Grupo_772" data-name="Grupo 772">
          <path id="Trazado_1353" data-name="Trazado 1353" d="M261.341,250.874a2.749,2.749,0,0,0-.8-1.094,3.289,3.289,0,0,0-1.351-.675,3.5,3.5,0,0,0-1.351-.1,3.093,3.093,0,0,0-1.229.425,3.262,3.262,0,0,0-.979.932,4.391,4.391,0,0,0-.628,1.4,4.788,4.788,0,0,0-.162.979,3.815,3.815,0,0,0,.061.925,3.5,3.5,0,0,0,.27.837,2.809,2.809,0,0,0,.513.743,2.858,2.858,0,0,0,.716.534,4.492,4.492,0,0,0,.952.365,3.256,3.256,0,0,0,1.3.1,2.655,2.655,0,0,0,1.033-.392,2.619,2.619,0,0,0,.675-.608,1.863,1.863,0,0,0,.344-.675.587.587,0,0,0-.061-.473.6.6,0,0,0-.378-.284.513.513,0,0,0-.466.061,1.526,1.526,0,0,0-.331.378,1.85,1.85,0,0,1-.851.675,1.743,1.743,0,0,1-1.081,0,1.8,1.8,0,0,1-.858-.425,1.722,1.722,0,0,1-.419-.952,3.519,3.519,0,0,1,.128-1.351,3.032,3.032,0,0,1,.986-1.749,1.688,1.688,0,0,1,1.526-.284,1.608,1.608,0,0,1,.831.486,2.155,2.155,0,0,1,.432.925,1.8,1.8,0,0,0,.182.513.574.574,0,0,0,.365.23.547.547,0,0,0,.452-.074.615.615,0,0,0,.277-.371A1.668,1.668,0,0,0,261.341,250.874Z" transform="translate(-254.832 -248.978)" fill="#7dc7c5"/>
        </g>
      </g>
    </g>
  </g>
</svg>
