<svg xmlns="http://www.w3.org/2000/svg" width="59.89" height="76.984" viewBox="0 0 59.89 76.984">
  <g id="trash" transform="translate(0)">
    <path id="Trazado_2722" data-name="Trazado 2722" d="M130.112,4.647h12.866V6.812h4.646V4.344A4.347,4.347,0,0,0,143.284,0H129.806a4.348,4.348,0,0,0-4.342,4.344V6.812h4.647Zm0,0" transform="translate(-106.6)" fill="#2e335e"/>
    <path id="Trazado_2723" data-name="Trazado 2723" d="M86.157,167.75H42.537a2.046,2.046,0,0,0-2.04,2.211l3.647,45.094a4.843,4.843,0,0,0,4.826,4.456H79.724a4.843,4.843,0,0,0,4.826-4.457L88.2,169.961A2.045,2.045,0,0,0,86.157,167.75ZM53.1,214.7c-.049,0-.1,0-.146,0a2.323,2.323,0,0,1-2.316-2.181l-2.285-37.02a2.324,2.324,0,0,1,4.638-.286l2.285,37.02A2.323,2.323,0,0,1,53.1,214.7Zm13.6-2.319a2.324,2.324,0,0,1-4.647,0v-37.02a2.324,2.324,0,1,1,4.647,0ZM80.343,175.5l-2.182,37.02a2.323,2.323,0,0,1-2.317,2.187c-.046,0-.092,0-.139,0a2.323,2.323,0,0,1-2.183-2.456l2.181-37.02a2.323,2.323,0,0,1,4.639.274Zm0,0" transform="translate(-34.401 -142.527)" fill="#2e335e"/>
    <path id="Trazado_2724" data-name="Trazado 2724" d="M59.791,82.8,58.265,78.23a2.955,2.955,0,0,0-2.8-2.019H4.428a2.954,2.954,0,0,0-2.8,2.019L.1,82.8a1.919,1.919,0,0,0,1.818,2.523H57.972a1.892,1.892,0,0,0,1.015-.293A1.914,1.914,0,0,0,59.791,82.8Zm0,0" transform="translate(0 -64.752)" fill="#2e335e"/>
  </g>
</svg>
