<svg id="pencil" xmlns="http://www.w3.org/2000/svg" width="64.259" height="64.26" viewBox="0 0 64.259 64.26">
  <path id="Trazado_2720" data-name="Trazado 2720" d="M.608,51.933.03,54.358A1.153,1.153,0,0,0,0,54.593c0,.016,0,.03,0,.045a1.157,1.157,0,0,0,.076.386c.01.029.022.055.035.083a1.16,1.16,0,0,0,.228.344A1.17,1.17,0,0,0,.72,55.7a1.155,1.155,0,0,0,.441.087,1.169,1.169,0,0,0,.269-.031l2.426-.578Z" transform="translate(0 8.468)" fill="#2e335e"/>
  <path id="Trazado_2721" data-name="Trazado 2721" d="M61.024,3.06a10.483,10.483,0,0,0-14.8,0L4.277,45c-.02.02-.031.044-.049.065s-.045.058-.067.088a1.131,1.131,0,0,0-.145.278c-.01.03-.026.057-.034.087,0,.012-.01.023-.014.035l-2.9,12.189,5.273,5.272,12.189-2.9a.838.838,0,0,0,.09-.035,1.074,1.074,0,0,0,.115-.045,1.145,1.145,0,0,0,.234-.143c.028-.022.057-.038.084-.063.009-.009.021-.014.03-.023L61.024,17.862A10.478,10.478,0,0,0,61.024,3.06ZM19.781,55.818l.412-3.7L46.219,26.087a1.163,1.163,0,0,0-1.645-1.645L18.548,50.471,13,51.087l.616-5.551L39.642,19.509A1.163,1.163,0,1,0,38,17.865L11.969,43.892l-3.7.412,32.2-32.2L51.978,23.621ZM53.622,21.976,42.108,10.462l1.645-1.645L55.267,20.331Zm3.289-3.289L45.4,7.173l1.646-1.646L58.557,17.041Z" transform="translate(0.174 0)" fill="#2e335e"/>
</svg>
