<svg xmlns="http://www.w3.org/2000/svg" width="71.644" height="69.461" viewBox="0 0 71.644 69.461">
  <g id="Grupo_1601" data-name="Grupo 1601" transform="translate(5.422 6.5)">
    <g id="Grupo_421" data-name="Grupo 421" transform="translate(-4.922 -6)">
      <path id="Trazado_765" data-name="Trazado 765" d="M269.537,301.65H258.352a1.034,1.034,0,0,0-1.032,1.111,3.074,3.074,0,0,0,1.386,2.363,3.961,3.961,0,0,1-1.875,7.294,3.961,3.961,0,0,1-2.4-7.287,3.111,3.111,0,0,0,1.4-2.367,1.035,1.035,0,0,0-1.032-1.114H243.675a1.035,1.035,0,0,0-1.035,1.035v9.156a6.034,6.034,0,1,0,0,7.615v9.092a1.035,1.035,0,0,0,1.035,1.035h12.16a1.035,1.035,0,0,0,0-2.07H244.71v-10.08a1.035,1.035,0,0,0-1.141-1.029,3.038,3.038,0,0,0-2.268,1.379,3.963,3.963,0,1,1-6.226-4.848,3.96,3.96,0,0,1,6.219.571,3.062,3.062,0,0,0,2.273,1.389,1.035,1.035,0,0,0,1.143-1.029V303.72h8.139a6,6,0,0,0-2.309,4.741,6.059,6.059,0,0,0,1.9,4.4A6.034,6.034,0,0,0,262.6,308.8a6.051,6.051,0,0,0-2.3-5.084h8.2v18.037a5.763,5.763,0,0,1-5.756,5.756h-2.773a1.035,1.035,0,0,0,0,2.07h2.773a7.835,7.835,0,0,0,7.826-7.826V302.685A1.035,1.035,0,0,0,269.537,301.65Z" transform="translate(-199.928 -261.121)" fill="#f7b919" stroke="#f7b919" stroke-width="1"/>
      <path id="Trazado_766" data-name="Trazado 766" d="M21.186,43.806a3.948,3.948,0,0,1,3.33,1.82,3.063,3.063,0,0,0,2.273,1.389,1.035,1.035,0,0,0,1.143-1.029V35.842h8.14a6,6,0,0,0-2.309,4.741,6.059,6.059,0,0,0,1.9,4.4,5.974,5.974,0,0,0,4.125,1.635q.2,0,.393-.012a6.031,6.031,0,0,0,3.338-10.764h9.239a1.035,1.035,0,0,0,1.035-1.035V15.736A7.834,7.834,0,0,0,45.969,7.91h-31.4a1.035,1.035,0,0,0,0,2.07h11.3V20.191A1.035,1.035,0,0,0,27,21.22a3.039,3.039,0,0,0,2.268-1.379,3.958,3.958,0,0,1,7.073.813q.03.084.057.17a3.823,3.823,0,0,1,.148.709q.01.091.016.183a3.961,3.961,0,0,1-7.288,2.4,3.067,3.067,0,0,0-2.272-1.388,1.035,1.035,0,0,0-1.143,1.029V33.772H24.241a1.035,1.035,0,1,0,0,2.07h1.622v8.121a6.034,6.034,0,1,0,0,7.614v8.057H7.826A5.762,5.762,0,0,1,2.07,53.879V35.842H12.207a1.035,1.035,0,0,0,1.025-1.173A3.049,3.049,0,0,0,11.866,32.5a3.96,3.96,0,0,1,1.875-7.292,3.961,3.961,0,0,1,2.4,7.287,3.087,3.087,0,0,0-1.374,2.172,1.035,1.035,0,0,0,1.025,1.178H20.1a1.035,1.035,0,0,0,0-2.07H17.885a6.035,6.035,0,1,0-7.77,0H2.07V15.736A5.762,5.762,0,0,1,7.826,9.98h2.6a1.035,1.035,0,0,0,0-2.07h-2.6A7.834,7.834,0,0,0,0,15.736V53.879A7.834,7.834,0,0,0,7.826,61.7H26.9a1.035,1.035,0,0,0,1.035-1.035V49.555a1.035,1.035,0,0,0-1.141-1.029A3.039,3.039,0,0,0,24.523,49.9,3.963,3.963,0,1,1,18.3,45.056,3.928,3.928,0,0,1,21.186,43.806Zm6.746-18.026a6.035,6.035,0,1,0,0-7.613V9.98H45.969a5.762,5.762,0,0,1,5.756,5.756V33.772H41.574a1.035,1.035,0,0,0-1.032,1.111,3.074,3.074,0,0,0,1.386,2.363,3.961,3.961,0,0,1-1.875,7.294,3.961,3.961,0,0,1-2.4-7.287,3.112,3.112,0,0,0,1.4-2.367,1.035,1.035,0,0,0-1.032-1.114H27.932V25.781Z" transform="translate(0 -7.91)" fill="#f7b919" stroke="#f7b919" stroke-width="1"/>
    </g>
  </g>
</svg>
