<svg xmlns="http://www.w3.org/2000/svg" width="71.624" height="69.27" viewBox="0 0 71.624 69.27">
  <g id="Grupo_1600" data-name="Grupo 1600" transform="translate(28.208 -9.55)">
    <g id="Grupo_409" data-name="Grupo 409" transform="translate(-27.708 10.05)">
      <path id="Trazado_746" data-name="Trazado 746" d="M228.01,200a20.01,20.01,0,1,0,20.01,20.01A20.011,20.011,0,0,0,228.01,200Zm0,37.666a17.656,17.656,0,1,1,17.656-17.656A17.656,17.656,0,0,1,228.01,237.666Z" transform="translate(-177.396 -171.75)" fill="#ef8b44" stroke="#ef8b44" stroke-width="1"/>
      <path id="Trazado_747" data-name="Trazado 747" d="M297.417,271.279V264h-2.354v7.279a3.528,3.528,0,0,0-2.137,2.137H288v2.354h4.925a3.523,3.523,0,1,0,4.492-4.492Zm-1.177,4.492a1.177,1.177,0,1,1,1.177-1.177A1.177,1.177,0,0,1,296.239,275.771Z" transform="translate(-245.625 -226.334)" fill="#ef8b44" stroke="#ef8b44" stroke-width="1"/>
      <path id="Trazado_748" data-name="Trazado 748" d="M240,328h2.354v2.354H240Z" transform="translate(-204.688 -280.917)" fill="#ef8b44" stroke="#ef8b44" stroke-width="1"/>
      <path id="Trazado_749" data-name="Trazado 749" d="M336,424h2.354v2.354H336Z" transform="translate(-286.563 -362.792)" fill="#ef8b44" stroke="#ef8b44" stroke-width="1"/>
      <path id="Trazado_750" data-name="Trazado 750" d="M432,328h2.354v2.354H432Z" transform="translate(-368.438 -280.917)" fill="#ef8b44" stroke="#ef8b44" stroke-width="1"/>
      <path id="Trazado_751" data-name="Trazado 751" d="M336,232h2.354v2.354H336Z" transform="translate(-286.563 -199.042)" fill="#ef8b44" stroke="#ef8b44" stroke-width="1"/>
      <path id="Trazado_752" data-name="Trazado 752" d="M2.354,58.614V24.479H56.5V35.073h2.354V18.594a5.892,5.892,0,0,0-5.885-5.885h-8.24V11.531a3.531,3.531,0,1,0-7.062,0v1.177H21.187V11.531a3.531,3.531,0,1,0-7.062,0v1.177H5.885A5.892,5.892,0,0,0,0,18.594v40.02A5.892,5.892,0,0,0,5.885,64.5H29.427V62.145H5.885A3.531,3.531,0,0,1,2.354,58.614ZM40.02,11.531a1.177,1.177,0,1,1,2.354,0V16.24a1.177,1.177,0,1,1-2.354,0Zm-23.541,0a1.177,1.177,0,0,1,2.354,0V16.24a1.177,1.177,0,1,1-2.354,0ZM5.885,15.062h8.24V16.24a3.531,3.531,0,0,0,7.062,0V15.062H37.666V16.24a3.531,3.531,0,0,0,7.062,0V15.062h8.24A3.531,3.531,0,0,1,56.5,18.594v3.531H2.354V18.594A3.531,3.531,0,0,1,5.885,15.062Z" transform="translate(0 -8)" fill="#ef8b44" stroke="#ef8b44" stroke-width="1"/>
      <path id="Trazado_753" data-name="Trazado 753" d="M57.417,170.354A2.354,2.354,0,0,0,55.062,168H50.354A2.354,2.354,0,0,0,48,170.354v4.708a2.354,2.354,0,0,0,2.354,2.354h4.708a2.354,2.354,0,0,0,2.354-2.354Zm-7.062,4.708v-4.708h4.708v4.708Z" transform="translate(-40.938 -144.459)" fill="#ef8b44" stroke="#ef8b44" stroke-width="1"/>
      <path id="Trazado_754" data-name="Trazado 754" d="M137.417,170.354A2.354,2.354,0,0,0,135.062,168h-4.708A2.354,2.354,0,0,0,128,170.354v4.708a2.354,2.354,0,0,0,2.354,2.354h4.708a2.354,2.354,0,0,0,2.354-2.354Zm-7.062,4.708v-4.708h4.708v4.708Z" transform="translate(-109.167 -144.459)" fill="#ef8b44" stroke="#ef8b44" stroke-width="1"/>
      <path id="Trazado_755" data-name="Trazado 755" d="M217.417,173.885v-3.531A2.354,2.354,0,0,0,215.062,168h-4.708A2.354,2.354,0,0,0,208,170.354v4.708a2.354,2.354,0,0,0,2.354,2.354h2.354v-2.354h-2.354v-4.708h4.708v3.531Z" transform="translate(-177.396 -144.459)" fill="#ef8b44" stroke="#ef8b44" stroke-width="1"/>
      <path id="Trazado_756" data-name="Trazado 756" d="M55.062,264H50.354A2.354,2.354,0,0,0,48,266.354v4.708a2.354,2.354,0,0,0,2.354,2.354h4.708a2.354,2.354,0,0,0,2.354-2.354v-4.708A2.354,2.354,0,0,0,55.062,264Zm-4.708,7.062v-4.708h4.708v4.708Z" transform="translate(-40.938 -226.334)" fill="#ef8b44" stroke="#ef8b44" stroke-width="1"/>
      <path id="Trazado_757" data-name="Trazado 757" d="M135.062,264h-4.708A2.354,2.354,0,0,0,128,266.354v4.708a2.354,2.354,0,0,0,2.354,2.354h4.708a2.354,2.354,0,0,0,2.354-2.354v-4.708A2.354,2.354,0,0,0,135.062,264Zm-4.708,7.062v-4.708h4.708v4.708Z" transform="translate(-109.167 -226.334)" fill="#ef8b44" stroke="#ef8b44" stroke-width="1"/>
      <path id="Trazado_758" data-name="Trazado 758" d="M297.417,171.531v-1.177A2.354,2.354,0,0,0,295.062,168h-4.708A2.354,2.354,0,0,0,288,170.354v1.177h2.354v-1.177h4.708v1.177Z" transform="translate(-245.625 -144.459)" fill="#ef8b44" stroke="#ef8b44" stroke-width="1"/>
    </g>
  </g>
</svg>
