<svg xmlns="http://www.w3.org/2000/svg" width="153.924" height="107.363" viewBox="0 0 153.924 107.363">
  <g id="Grupo_479" data-name="Grupo 479" transform="translate(0 0)">
    <g id="Grupo_478" data-name="Grupo 478" transform="translate(0)">
      <path id="Trazado_776" data-name="Trazado 776" d="M356.649,286.487c-2.129,0-22.943.013-22.943.013a14.068,14.068,0,0,0-14.042,14.061v45.325a14.069,14.069,0,0,0,14.042,14.063l125.827-.014a14.074,14.074,0,0,0,14.054-14.062V300.548a14.073,14.073,0,0,0-14.054-14.061H436.067a40.207,40.207,0,0,0-79.418,0" transform="translate(-319.663 -252.587)" fill="#05ab4c"/>
      <path id="Trazado_777" data-name="Trazado 777" d="M459.526,287.787H434.967a38.943,38.943,0,0,0-77.229,0L333.7,287.8a12.767,12.767,0,0,0-12.737,12.757V345.88A12.768,12.768,0,0,0,333.7,358.636l125.826-.014a12.771,12.771,0,0,0,12.747-12.755V300.542a12.769,12.769,0,0,0-12.747-12.755" transform="translate(-319.657 -252.581)" fill="#ffd400"/>
      <path id="Trazado_778" data-name="Trazado 778" d="M334.424,294.948a6.141,6.141,0,0,0-6.129,6.138v43.871a6.128,6.128,0,0,0,6.129,6.114l124.308-.013a6.129,6.129,0,0,0,6.132-6.114V301.073a6.142,6.142,0,0,0-6.132-6.138Z" transform="translate(-319.621 -252.38)" fill="#05ab4c"/>
      <path id="Trazado_779" data-name="Trazado 779" d="M463.551,301.067a4.836,4.836,0,0,0-4.825-4.833l-124.308.015a4.832,4.832,0,0,0-4.822,4.831v43.871a4.818,4.818,0,0,0,4.822,4.805l124.308-.013a4.82,4.82,0,0,0,4.825-4.806Z" transform="translate(-319.615 -252.374)" fill="#05ab4c"/>
      <path id="Trazado_780" data-name="Trazado 780" d="M366.668,284.572l-.024.125v.127a2.9,2.9,0,0,0,.789,2.113,2.77,2.77,0,0,0,1.894.806h53.549a2.762,2.762,0,0,0,2.74-2.848l0-.131-.023-.128c-2.5-13.131-15.439-23.419-29.468-23.419s-26.956,10.258-29.46,23.354" transform="translate(-319.434 -252.545)" fill="#05ab4c"/>
      <path id="Trazado_781" data-name="Trazado 781" d="M368.356,286.012a1.481,1.481,0,0,0,.967.419h53.549a1.464,1.464,0,0,0,1.434-1.557c-2.381-12.537-14.757-22.357-28.183-22.357s-25.786,9.786-28.178,22.293a1.663,1.663,0,0,0,.411,1.2" transform="translate(-319.427 -252.539)" fill="#05ab4c"/>
      <path id="Trazado_782" data-name="Trazado 782" d="M384.73,269.548a2.144,2.144,0,0,1-1.983,1.766l-.067.007v1.555h1.714V282.3h2.417V269.493h-2.066Z" transform="translate(-319.355 -252.504)" fill="#fff"/>
      <path id="Trazado_783" data-name="Trazado 783" d="M396.272,276.59a4.523,4.523,0,0,0,2.114-3.805c0-2.159-1.43-3.5-3.732-3.5a4.4,4.4,0,0,0-3.578,1.782l-.039.048,1.5,1.766.057-.066a2.606,2.606,0,0,1,1.976-1.107,1.223,1.223,0,0,1,1.371,1.39,2.178,2.178,0,0,1-1.162,1.871c-2.393,1.709-3.633,3.3-3.771,7.254l0,.078h7.419v-2.369h-4.691c.113-1.308.951-2.159,2.54-3.342" transform="translate(-319.315 -252.505)" fill="#fff"/>
      <path id="Trazado_784" data-name="Trazado 784" d="M407.287,275.432a2.652,2.652,0,0,0,1.634-2.616,3.391,3.391,0,0,0-3.7-3.53,4.278,4.278,0,0,0-3.555,1.676l-.048.052,1.631,1.641.053-.053a2.381,2.381,0,0,1,1.78-.915,1.261,1.261,0,0,1,1.413,1.4c0,1.072-.851,1.3-1.566,1.3h-.969v2.35h.951c1.245,0,1.931.62,1.931,1.745a1.5,1.5,0,0,1-1.621,1.647,2.467,2.467,0,0,1-2.106-1.329l-.042-.062-1.853,1.315-.059.041.038.06a4.353,4.353,0,0,0,3.961,2.345,3.772,3.772,0,0,0,4.135-4.073,2.939,2.939,0,0,0-2-3" transform="translate(-319.265 -252.505)" fill="#fff"/>
      <path id="Trazado_785" data-name="Trazado 785" d="M346.031,342.145c-5.322,0-7.716-3.725-8.249-10.058l5.695-1.012c.426,4.524,1.224,5.643,2.554,5.643,1.491,0,2.128-.958,2.128-3.353,0-3.565-1.116-5.217-4.47-8.942-3.779-3.83-5.641-7.343-5.641-11.6,0-5.214,2.554-9.1,7.664-9.1,5.214,0,7.29,3.513,7.982,8.995l-5.588,1.17c-.426-3.671-1.063-4.789-2.394-4.789-1.278,0-1.916.905-1.916,3.248,0,2.608.9,4.151,3.832,7.29,4.312,4.362,6.333,8.088,6.333,13.2,0,5.483-2.873,9.313-7.93,9.313" transform="translate(-319.574 -252.337)" fill="#fff"/>
      <path id="Trazado_786" data-name="Trazado 786" d="M381.727,342.145c-5.323,0-7.718-3.725-8.249-10.058l5.694-1.012c.426,4.524,1.225,5.643,2.555,5.643,1.489,0,2.127-.958,2.127-3.353,0-3.565-1.116-5.217-4.469-8.942-3.78-3.83-5.642-7.343-5.642-11.6,0-5.214,2.555-9.1,7.664-9.1,5.214,0,7.29,3.513,7.982,8.995l-5.588,1.17c-.425-3.671-1.063-4.789-2.394-4.789-1.278,0-1.916.905-1.916,3.248,0,2.608.905,4.151,3.832,7.29,4.312,4.362,6.334,8.088,6.334,13.2,0,5.483-2.874,9.313-7.93,9.313" transform="translate(-319.4 -252.337)" fill="#fff"/>
      <path id="Trazado_787" data-name="Trazado 787" d="M401.757,327.986h-3.3l.8-6.759c.321-2.661.693-5.747.8-8.673.158,2.926.531,5.959.851,8.621Zm7.559,13.571L403.408,304.3h-6.387l-5.908,37.253h5.908l.958-8.195h4.365l1.01,8.195Z" transform="translate(-319.314 -252.335)" fill="#fff"/>
      <path id="Trazado_788" data-name="Trazado 788" d="M427.73,341.557v-9.738c0-4.523.159-8.834.265-12.668-.533,2.927-1.7,8.462-2.66,12.242l-2.661,11.281-2.609-11.281c-.9-3.621-2.074-9.42-2.607-12.242.053,3.513.265,8.3.265,12.668v9.738H412.4V304.3h5.851l2.451,11.335a96.027,96.027,0,0,1,1.969,10.7,97.212,97.212,0,0,1,2.021-10.751l2.5-11.282h5.852v37.253Z" transform="translate(-319.21 -252.335)" fill="#fff"/>
      <path id="Trazado_789" data-name="Trazado 789" d="M448.1,323.039c0,11.283-.637,13.625-2.553,13.625-1.862,0-2.554-2.449-2.554-13.838,0-11.282.532-13.623,2.5-13.623,1.917,0,2.608,2.449,2.608,13.836m6.175-.213c0-12.718-2.129-19.1-8.728-19.1s-8.674,6.333-8.674,19.318c0,12.88,2.021,19.107,8.567,19.107,6.707,0,8.836-6.333,8.836-19.32" transform="translate(-319.091 -252.337)" fill="#fff"/>
      <path id="Trazado_790" data-name="Trazado 790" d="M357.164,341.557V304.3h13.945v5.534h-7.984v9.313h6.121v5.536h-6.121v11.335h8.463v5.535Z" transform="translate(-319.48 -252.335)" fill="#fff"/>
      <path id="Trazado_791" data-name="Trazado 791" d="M364.788,302.739h-3.042l3.273-4.49h5.436Z" transform="translate(-319.457 -252.364)" fill="#fff"/>
    </g>
  </g>
</svg>
