<svg id="Grupo_1598" data-name="Grupo 1598" xmlns="http://www.w3.org/2000/svg" width="50.371" height="69.965" viewBox="0 0 50.371 69.965">
  <path id="Trazado_744" data-name="Trazado 744" d="M96.231,115.823a20.1,20.1,0,0,1-14.351,5.893,20.5,20.5,0,0,1-14.351-5.893,20.1,20.1,0,0,1-5.892-14.351c0-7.983,10.739-23.855,17.868-34.4.855-1.235,1.616-2.471,2.376-3.516.761,1.045,1.521,2.28,2.376,3.516,7.128,10.645,17.868,26.421,17.868,34.4a20.5,20.5,0,0,1-5.893,14.351M88.343,64.406c-1.616-2.376-3.041-4.562-4.372-6.558a2.878,2.878,0,0,0-.761-.76,2.476,2.476,0,0,0-3.422.76c-1.235,2-2.661,4.086-4.372,6.558C67.91,75.431,56.695,92.063,56.695,101.567a25.072,25.072,0,0,0,7.413,17.772,25.392,25.392,0,0,0,17.772,7.319,25.313,25.313,0,0,0,25.186-25.186c0-9.5-11.215-26.041-18.723-37.066" transform="translate(-56.695 -56.693)" fill="#7dc7c5"/>
  <path id="Trazado_745" data-name="Trazado 745" d="M101.617,106.967a2.436,2.436,0,0,0-2.566,2.281,12.239,12.239,0,0,1-1.806,5.8,11.551,11.551,0,0,1-4.372,4.181,2.512,2.512,0,0,0,2.472,4.372,16.468,16.468,0,0,0,6.082-5.893,16.172,16.172,0,0,0,2.471-8.173,2.437,2.437,0,0,0-2.281-2.566" transform="translate(-61.701 -63.898)" fill="#7dc7c5"/>
</svg>
