<svg xmlns="http://www.w3.org/2000/svg" width="54.403" height="66.281" viewBox="0 0 54.403 66.281">
  <path id="Trazado_2720" data-name="Trazado 2720" d="M327.867,285.993l-6.832,16.939a6.829,6.829,0,0,1-8.879,3.78l-5.9-2.277-5.919,2.277a6.829,6.829,0,0,1-8.879-3.78l-6.832-16.939a13.661,13.661,0,0,1,20.355-16.417l1.3.866,1.276-.866a13.662,13.662,0,0,1,20.355,16.417Zm-24.2-29.054h-.569a6.262,6.262,0,0,1-6.261-6.261v-.569h.569a6.261,6.261,0,0,1,6.261,6.261Zm18.375,6.99a18.216,18.216,0,0,0-13.662,0,11.386,11.386,0,0,1,11.225-9.267v-4.553a15.938,15.938,0,0,0-11.52,4.941,10.793,10.793,0,0,0-10.679-9.5h-5.123v5.123a10.816,10.816,0,0,0,10.816,10.816h1.229a16.738,16.738,0,0,0-.5,2.413A18.216,18.216,0,0,0,280.37,287.7l6.832,16.94a11.384,11.384,0,0,0,14.821,6.284l4.212-1.617,4.191,1.686a11.365,11.365,0,0,0,14.821-6.239l6.832-16.94a18.216,18.216,0,0,0-9.9-23.782l-.141-.057Z" transform="translate(-279.054 -245.555)" fill="#eb477a"/>
</svg>
