<svg xmlns="http://www.w3.org/2000/svg" width="50" height="50" viewBox="0 0 50 50">
  <g id="Grupo_1603" data-name="Grupo 1603" transform="translate(-4879 -3211.588)">
    <g id="Grupo_1602" data-name="Grupo 1602" transform="translate(0 -7.412)">
      <circle id="Elipse_241" data-name="Elipse 241" cx="25" cy="25" r="25" transform="translate(4879 3219)" fill="#2e335e"/>
      <path id="youtube" d="M27.317-3.029a3.492,3.492,0,0,0-2.458-2.456c-2.183-.6-10.913-.6-10.913-.6s-8.73,0-10.913.574A3.563,3.563,0,0,0,.574-3.029,36.745,36.745,0,0,0,0,3.672a36.61,36.61,0,0,0,.574,6.7A3.493,3.493,0,0,0,3.033,12.83c2.205.6,10.913.6,10.913.6s8.73,0,10.913-.574A3.493,3.493,0,0,0,27.317,10.4a36.757,36.757,0,0,0,.574-6.7A34.881,34.881,0,0,0,27.317-3.029ZM11.166,7.85V-.5l7.26,4.177Zm0,0" transform="translate(4889.567 3240.931)" fill="#fff"/>
    </g>
  </g>
</svg>
