<svg xmlns="http://www.w3.org/2000/svg" width="38.87" height="44.76" viewBox="0 0 38.87 44.76">
  <g id="Page-1" transform="translate(-33.833 0.31)">
    <g id="_061---tip-alert" data-name="061---tip-alert" transform="translate(34.133 -0.009)">
      <path id="Shape" d="M34.133,11.768V31.639a3.684,3.684,0,0,0,3.68,3.68h7.36a.748.748,0,0,1,.589.294l5.808,7.742a2.212,2.212,0,0,0,3.421-.029l5.785-7.713a.75.75,0,0,1,.589-.294h7.36a3.684,3.684,0,0,0,3.68-3.68V11.768a3.684,3.684,0,0,0-3.68-3.68H63.9a11.037,11.037,0,0,0-21.275,0H37.813a3.684,3.684,0,0,0-3.68,3.68ZM52.805,1.475a9.568,9.568,0,0,1,10.03,9.556A9.457,9.457,0,0,1,59.8,18.006a9.347,9.347,0,0,0-2.856,6.839v.905h-7.36v-.782a9.626,9.626,0,0,0-2.9-7A9.559,9.559,0,0,1,52.805,1.475ZM55.476,30.9H51.06a1.472,1.472,0,0,1-1.472-1.472V27.223h7.36v2.208A1.472,1.472,0,0,1,55.476,30.9ZM35.6,11.768A2.208,2.208,0,0,1,37.813,9.56h4.524c-.021.154-.049.305-.063.462a10.987,10.987,0,0,0,3.405,9.016,8.15,8.15,0,0,1,2.437,5.933v4.461a2.944,2.944,0,0,0,2.208,2.839v.84a.736.736,0,1,0,1.472,0v-.736H54.74v.736a.736.736,0,1,0,1.472,0v-.84a2.944,2.944,0,0,0,2.208-2.839V24.846a7.867,7.867,0,0,1,2.39-5.764,10.914,10.914,0,0,0,3.5-8.05A11.221,11.221,0,0,0,64.2,9.56h4.524a2.208,2.208,0,0,1,2.208,2.208V31.639a2.208,2.208,0,0,1-2.208,2.208h-7.36a2.23,2.23,0,0,0-1.766.883l-5.761,7.684a.788.788,0,0,1-1.113.029L46.939,34.73a2.227,2.227,0,0,0-1.766-.883h-7.36A2.208,2.208,0,0,1,35.6,31.639Z" transform="translate(-34.133 0.009)" fill="#7dc7c5" stroke="#7dc7c5" stroke-width="0.6"/>
      <path id="Shape-2" data-name="Shape" d="M231.136,238.933a.736.736,0,0,0-.736.736v2.208a.736.736,0,0,0,1.472,0v-2.208A.736.736,0,0,0,231.136,238.933Z" transform="translate(-213.473 -218.325)" fill="#7dc7c5" stroke="#7dc7c5" stroke-width="0.6"/>
      <path id="Shape-3" data-name="Shape" d="M230.4,189.2a.736.736,0,0,0,1.472,0v-.736a.736.736,0,1,0-1.472,0Z" transform="translate(-213.473 -171.541)" fill="#7dc7c5" stroke="#7dc7c5" stroke-width="0.6"/>
      <path id="Shape-4" data-name="Shape" d="M265.269,242.613a.736.736,0,0,0,.736-.736v-2.208a.736.736,0,1,0-1.472,0v2.208A.736.736,0,0,0,265.269,242.613Z" transform="translate(-244.662 -218.325)" fill="#7dc7c5" stroke="#7dc7c5" stroke-width="0.6"/>
      <path id="Shape-5" data-name="Shape" d="M265.269,189.941A.736.736,0,0,0,266,189.2v-.736a.736.736,0,1,0-1.472,0v.736A.736.736,0,0,0,265.269,189.941Z" transform="translate(-244.662 -171.541)" fill="#7dc7c5" stroke="#7dc7c5" stroke-width="0.6"/>
      <path id="Shape-6" data-name="Shape" d="M72.68,12.947a.736.736,0,0,0,.46-1.311L69.46,8.692a.736.736,0,1,0-.92,1.15l3.68,2.944A.736.736,0,0,0,72.68,12.947Z" transform="translate(-65.32 -7.794)" fill="#7dc7c5" stroke="#7dc7c5" stroke-width="0.6"/>
      <path id="Shape-7" data-name="Shape" d="M385.193,12.786l3.68-2.944a.736.736,0,1,0-.92-1.15l-3.68,2.944a.736.736,0,0,0,.92,1.15Z" transform="translate(-353.823 -7.794)" fill="#7dc7c5" stroke="#7dc7c5" stroke-width="0.6"/>
      <path id="Shape-8" data-name="Shape" d="M68.425,260.137a.736.736,0,0,0,1.035.115l3.68-2.944a.736.736,0,1,0-.92-1.15l-3.68,2.944a.736.736,0,0,0-.115,1.035Z" transform="translate(-65.32 -233.918)" fill="#7dc7c5" stroke="#7dc7c5" stroke-width="0.6"/>
      <path id="Shape-9" data-name="Shape" d="M387.953,260.252a.736.736,0,1,0,.92-1.15l-3.68-2.944a.736.736,0,1,0-.92,1.15Z" transform="translate(-353.823 -233.918)" fill="#7dc7c5" stroke="#7dc7c5" stroke-width="0.6"/>
      <path id="Shape-10" data-name="Shape" d="M171.252,48.534a.713.713,0,0,0,.141.014.736.736,0,0,0,.721-.6,5.839,5.839,0,0,1,3.238-3.876.736.736,0,1,0-.562-1.361,7.227,7.227,0,0,0-4.121,4.957.736.736,0,0,0,.583.862Z" transform="translate(-158.882 -38.979)" fill="#7dc7c5" stroke="#7dc7c5" stroke-width="0.6"/>
      <path id="Shape-11" data-name="Shape" d="M69,138h2.208a.736.736,0,0,0,0-1.472H69A.736.736,0,0,0,69,138Z" transform="translate(-65.323 -124.757)" fill="#7dc7c5" stroke="#7dc7c5" stroke-width="0.6"/>
      <path id="Shape-12" data-name="Shape" d="M401.8,138h2.208a.736.736,0,0,0,0-1.472H401.8a.736.736,0,0,0,0,1.472Z" transform="translate(-369.42 -124.757)" fill="#7dc7c5" stroke="#7dc7c5" stroke-width="0.6"/>
    </g>
  </g>
</svg>
