<svg xmlns="http://www.w3.org/2000/svg" width="77.97" height="67.614" viewBox="0 0 77.97 67.614">
  <g id="Grupo_1599" data-name="Grupo 1599" transform="translate(0.25 0.25)">
    <path id="Trazado_1451" data-name="Trazado 1451" d="M-369.2,2627.4a4.491,4.491,0,0,0,3.276-1.594l2.152,7.194a2.26,2.26,0,0,0,2,1.8,2.263,2.263,0,0,0,2.213-1.534l4.723-10.691,5.57,18.566a2.262,2.262,0,0,0,2,1.8c.03,0,.07.005.117.005a2.29,2.29,0,0,0,2.1-1.523l6.219-13.82a.659.659,0,0,1,.306-.2h7.529a1.759,1.759,0,0,0,1.758-1.759,1.759,1.759,0,0,0-1.758-1.759h-7.545a3.988,3.988,0,0,0-3.491,2.257l-4.842,10.757-5.586-18.614a2.261,2.261,0,0,0-2.006-1.8,2.262,2.262,0,0,0-2.212,1.532l-4.721,10.689-1.811-6.051a2.385,2.385,0,0,0-1.926-1.809,2.363,2.363,0,0,0-2.279,1.139l-1.185,1.5-.05.082a1.093,1.093,0,0,1-.563.313h-18.981v.027a1.755,1.755,0,0,0-1.461,1.73,1.756,1.756,0,0,0,1.461,1.731v.027Z" transform="translate(389.639 -2589.907)" fill="#ae96b2" stroke="#ae96b2" stroke-width="0.5"/>
    <path id="Trazado_1452" data-name="Trazado 1452" d="M-318.729,2603.839a20.488,20.488,0,0,0-14.577-6.039,20.488,20.488,0,0,0-14.577,6.039l-2.664,2.665-2.666-2.665a20.478,20.478,0,0,0-14.577-6.039,20.48,20.48,0,0,0-14.576,6.039,20.479,20.479,0,0,0-6.037,14.577,20.45,20.45,0,0,0,3,10.729h4.3a16.962,16.962,0,0,1-3.784-10.728,16.977,16.977,0,0,1,5.007-12.089,16.977,16.977,0,0,1,12.089-5.009,16.975,16.975,0,0,1,12.089,5.009l5.152,5.15,5.149-5.15a16.983,16.983,0,0,1,12.091-5.009,16.974,16.974,0,0,1,12.089,5.009,16.971,16.971,0,0,1,5.008,12.089,16.98,16.98,0,0,1-5.01,12.092l-29.327,29.329-21.9-21.9h-4.973l26.876,26.874,31.819-31.817a20.482,20.482,0,0,0,6.038-14.577,20.484,20.484,0,0,0-6.038-14.577" transform="translate(390.161 -2597.801)" fill="#ae96b2" stroke="#ae96b2" stroke-width="0.5"/>
  </g>
</svg>
