<svg xmlns="http://www.w3.org/2000/svg" width="90.253" height="133.464" viewBox="0 0 90.253 133.464">
  <path id="Trazado_743" data-name="Trazado 743" d="M483.544,619.713a14.562,14.562,0,0,0-7.1-2.01,13.662,13.662,0,0,0-8.87,3.309,13.272,13.272,0,0,0-4.375,8.4,1.779,1.779,0,0,0-.117.828v.828a13.029,13.029,0,0,0,3.9,9.461,13.51,13.51,0,0,0,9.461,3.9,13.731,13.731,0,0,0,9.461-3.9,13.511,13.511,0,0,0,3.9-9.461,11.9,11.9,0,0,0-.354-2.956,10.077,10.077,0,0,0-1.065-2.839,13.7,13.7,0,0,0-4.846-5.557m-6.151,28.734h-.945a17.142,17.142,0,0,1-12.3-5.083,18.6,18.6,0,0,1-3.784-5.557,39.906,39.906,0,0,0-19.867,5.2,21.341,21.341,0,0,0-7.447,6.976c-1.419,2.365-2.01,4.612-1.539,6.622a5.358,5.358,0,0,0,1.656,2.955c5.086,4.375,14.9,3.309,24.95-.474a78.382,78.382,0,0,0,19.276-10.643m-37.72-77.808a47.067,47.067,0,0,1-5.8,2.01,32.579,32.579,0,0,1-5.794.945v14.19c0,3.9,2.01,7.571,4.849,10.406,3.313,3.313,7.567,5.44,11,5.44,3.313,0,7.688-2.127,11-5.44,2.839-2.835,4.849-6.5,4.849-10.406v-7.213a30.387,30.387,0,0,1-15.255-5.44,22.045,22.045,0,0,1-4.846-4.492m-8.87,31.1-.711-.712a18.766,18.766,0,0,1-6.027-13.244V571.7a1.922,1.922,0,0,1,2.007-2.01,27.241,27.241,0,0,0,6.743-.949c1.656-.471,3.193-.945,4.375-1.42a18.646,18.646,0,0,1-2.127-5.91,2.068,2.068,0,0,1,1.653-2.248,2.2,2.2,0,0,1,2.368,1.656,12.864,12.864,0,0,0,2.6,6.032.114.114,0,0,1,.117.117,22.157,22.157,0,0,0,5.086,4.849,26.35,26.35,0,0,0,14.9,4.849,1.993,1.993,0,0,1,2.01,2.01v9.1a18.756,18.756,0,0,1-6.031,13.244c-.237.237-.471.475-.708.712a13.782,13.782,0,0,0,3.072.354,29.913,29.913,0,0,0,6.268-.711,55.179,55.179,0,0,1,.828-14.07,85.831,85.831,0,0,0,1.065-11.471v-.117a22.26,22.26,0,0,0-6.622-15.846,24.332,24.332,0,0,0-17.5-6.859h-.471a24.326,24.326,0,0,0-17.5,6.859,21.777,21.777,0,0,0-6.622,15.846v.117a70.059,70.059,0,0,0,1.065,11.471c.591,4.612,1.3,8.987.828,14.07a29.856,29.856,0,0,0,6.265.711,14.656,14.656,0,0,0,3.076-.354m4.258,6.856a5.1,5.1,0,0,0,1.89,3.667,10.673,10.673,0,0,0,4.612,2.722,16.228,16.228,0,0,0,2.364.234,18.03,18.03,0,0,0,2.368-.234,10.694,10.694,0,0,0,4.612-2.722,5.412,5.412,0,0,0,1.773-3.667v-.825a27.785,27.785,0,0,0-2.485-1.539,15.953,15.953,0,0,1-6.268,1.419,18.123,18.123,0,0,1-5.794-1.182c-1.062.708-2.01,1.419-3.072,2.127M485.2,647.027a80.744,80.744,0,0,1-25.661,15.846c-11.351,4.258-22.7,5.2-28.97-.234l-.237-.12a9.752,9.752,0,0,1-2.718-5.083c-.711-2.959,0-6.268,2.01-9.581a26.253,26.253,0,0,1,8.866-8.275c5.206-3.193,12.3-5.44,20.815-5.794a10.143,10.143,0,0,1-.237-2.722V630c0-.357.117-.711.117-1.065a17.052,17.052,0,0,1,5.794-10.88,1.186,1.186,0,0,1,.591-.471c-1.89-1.777-3.9-3.43-6.031-5.086-.945-.711-2.01-1.536-2.956-2.127a11.015,11.015,0,0,1-2.839,4.729,14.156,14.156,0,0,1-6.5,3.667,10.717,10.717,0,0,1-3.313.471,11.473,11.473,0,0,1-3.43-.471,14.394,14.394,0,0,1-6.385-3.667,8.794,8.794,0,0,1-2.481-3.783c-10.88,8.987-17.619,18.447-20.812,27.314-2.368,6.86-2.839,13.365-1.54,19.039a24.061,24.061,0,0,0,8.162,13.719c4.375,3.784,10.286,5.911,17.262,6.031,16.2.354,29.682-3.9,38.789-9.935a35.37,35.37,0,0,0,9.1-8.513,15.253,15.253,0,0,0,3.193-8.516,8.375,8.375,0,0,0-.591-3.43m-8.75-33.345a17.925,17.925,0,0,1,9.224,2.718,16.9,16.9,0,0,1,6.385,7.1,19.406,19.406,0,0,1,1.3,3.667,22.2,22.2,0,0,1,.471,3.9,17.354,17.354,0,0,1-5.083,12.179l-.237.237-.237.354a14.823,14.823,0,0,1,1.536,6.743,20.01,20.01,0,0,1-3.9,10.76A38.265,38.265,0,0,1,475.62,670.8c-9.695,6.385-23.888,11-41.033,10.643a31.033,31.033,0,0,1-19.747-6.977,29.066,29.066,0,0,1-9.461-15.967,39,39,0,0,1,1.656-21.166c3.784-10.526,11.942-21.757,25.658-31.929a23.982,23.982,0,0,1-4.966.711,37.582,37.582,0,0,1-8.987-1.182,2.05,2.05,0,0,1-1.536-2.248c.828-5.324.117-9.935-.591-14.9a87.643,87.643,0,0,1-1.065-11.942v-.117a25.907,25.907,0,0,1,7.8-18.685c4.849-4.849,11.825-7.925,20.221-8.041h.591a29.172,29.172,0,0,1,20.341,8.041,25.908,25.908,0,0,1,7.8,18.685h-.12v.117a72.316,72.316,0,0,1-1.062,11.942c-.594,4.966-1.3,9.578-.474,14.9A2.071,2.071,0,0,1,469,604.933a36.838,36.838,0,0,1-8.987,1.182,26.212,26.212,0,0,1-2.956-.354c1.657,1.182,3.309,2.365,4.849,3.547q3.9,3.016,7.093,6.031a17.207,17.207,0,0,1,7.451-1.657" transform="translate(-404.077 -548.499)" fill="#fff" stroke="#fff" stroke-width="1"/>
</svg>
