<svg xmlns="http://www.w3.org/2000/svg" width="73.011" height="29.985" viewBox="0 0 73.011 29.985">
  <g id="logo_volar_" data-name="logo volar " transform="translate(-110.801 -113.744)">
    <path id="Trazado_3" data-name="Trazado 3" d="M156.656,132.422c.025-.1.063-.226.108-.376a4.252,4.252,0,0,1,.164-.427,3.607,3.607,0,0,1,.171-.339c.052-.091.1-.139.136-.139s.066.047.1.15a2.111,2.111,0,0,1,.073.358c.017.139.028.281.035.423s.011.263.011.351Zm-20.191.791c-.063-.679-.108-1.39-.147-2.13s-.052-1.514-.052-2.316q0-1.581.1-3.184c.066-1.065.157-2.09.272-3.068s.255-1.9.422-2.75a18.8,18.8,0,0,1,.559-2.225,6.494,6.494,0,0,1,.66-1.488c.234-.365.475-.547.73-.547.384,0,.691.321.918.963a10.48,10.48,0,0,1,.342,3.184,18.734,18.734,0,0,1-.314,3.323,33.374,33.374,0,0,1-.838,3.505q-.524,1.762-1.208,3.483t-1.442,3.25M130.1,137.6a2.767,2.767,0,0,1-.66-.595,3.965,3.965,0,0,1-.468-.733,3.614,3.614,0,0,1-.279-.781,3.482,3.482,0,0,1-.091-.755,1.029,1.029,0,0,1,.182-.733.5.5,0,0,1,.286-.172.575.575,0,0,1,.472.274,2.519,2.519,0,0,1,.331.715,6.221,6.221,0,0,1,.21.97,8.127,8.127,0,0,1,.07,1.036,5.841,5.841,0,0,1-.053.773m31.156,1.926a.722.722,0,0,0,.463-.794,4.131,4.131,0,0,1-.032-.53,8.139,8.139,0,0,1,.056-.959c.035-.328.077-.657.125-.988s.091-.657.126-.97a8.237,8.237,0,0,0,.053-.9,1.965,1.965,0,0,0-.538-1.546,2.329,2.329,0,0,0-1.571-.471c-.178,0-.37,0-.566.011s-.4.011-.6.011a7.344,7.344,0,0,0-.063-.886,5.672,5.672,0,0,0-.209-.97,2.323,2.323,0,0,0-.405-.78.832.832,0,0,0-.678-.321,1.006,1.006,0,0,0-.719.387,4.426,4.426,0,0,0-.65.912,6.2,6.2,0,0,0-.461,1.073,3.05,3.05,0,0,0-.171.868,1.115,1.115,0,0,0,.181.678,1.045,1.045,0,0,0,.458.358,1.823,1.823,0,0,0,.6.131c.217.015.43.018.632.018-.108.555-.2.963-.269,1.226v.006a4.308,4.308,0,0,1-.3.772c-.12.237-.277.547-.363.729-.157.328-.339.668-.541,1.018s-.429.7-.677,1.047a7.675,7.675,0,0,1-.775.923,4.131,4.131,0,0,1-.831.649,1.68,1.68,0,0,1-.855.244,1.265,1.265,0,0,1-1.044-.471,3.153,3.153,0,0,1-.569-1.112,6.354,6.354,0,0,1-.244-1.291c-.035-.43-.059-.766-.07-1.007a.778.778,0,0,0-.209-.471.578.578,0,0,0-.44-.208.694.694,0,0,0-.472.178.709.709,0,0,0-.234.445,6.134,6.134,0,0,1-.44,1.692,5.2,5.2,0,0,1-.705,1.189,2.777,2.777,0,0,1-.81.7,1.645,1.645,0,0,1-.747.226,1.39,1.39,0,0,1-.758-.19,1.422,1.422,0,0,1-.489-.489,2.112,2.112,0,0,1-.251-.668,3.722,3.722,0,0,1-.073-.726,5.126,5.126,0,0,1,.353-1.988,4.635,4.635,0,0,1,.873-1.393,3.338,3.338,0,0,1,1.156-.821,3.1,3.1,0,0,1,1.191-.263,2.569,2.569,0,0,1,.677.084,3.261,3.261,0,0,1,.513.2,2.083,2.083,0,0,1,.342.219c.084.069.136.117.161.139a.653.653,0,0,0,.489.208.623.623,0,0,0,.468-.216.717.717,0,0,0,.2-.5.791.791,0,0,0-.2-.507c-.011-.015-.08-.073-.2-.182a2.924,2.924,0,0,0-.513-.347,5.159,5.159,0,0,0-.8-.35,3.184,3.184,0,0,0-1.027-.157,4.388,4.388,0,0,0-1.721.376,4.983,4.983,0,0,0-1.634,1.131,5.613,5.613,0,0,0-1.027,1.467s-.719,1.127-1,1.689a13.75,13.75,0,0,1-.981,1.645,7.689,7.689,0,0,1-1.225,1.4,2.072,2.072,0,0,1-1.389.594A2.157,2.157,0,0,1,138,139.323a12.692,12.692,0,0,1-1.208-3.757q1.006-1.92,1.892-3.946a43.3,43.3,0,0,0,1.533-4.056,33.959,33.959,0,0,0,1.026-4.042,21.046,21.046,0,0,0,.381-3.892,15.8,15.8,0,0,0-.182-2.579,6.428,6.428,0,0,0-.506-1.714,2.232,2.232,0,0,0-.8-.952,2.021,2.021,0,0,0-1.072-.292,1.81,1.81,0,0,0-1.351.642,5.84,5.84,0,0,0-1.055,1.733,15.341,15.341,0,0,0-.792,2.543q-.335,1.45-.552,3.071T135,125.4c-.066,1.127-.1,2.221-.1,3.275q0,1.094.063,2.506c.042.941.125,1.911.244,2.911.053.434.079.676.157,1.1a3.493,3.493,0,0,0-.265.433,8.241,8.241,0,0,1-.6,1.091,3.164,3.164,0,0,1-.712.773,2.883,2.883,0,0,1-.883.452,3.661,3.661,0,0,1-1.1.15h-.234a1.084,1.084,0,0,1-.217-.018,5.79,5.79,0,0,0,.143-1.262,8.763,8.763,0,0,0-.2-1.977,4.454,4.454,0,0,0-.534-1.357,2.27,2.27,0,0,0-.765-.773,1.874,1.874,0,0,0-.922-.244,1.542,1.542,0,0,0-1.306.679,2.885,2.885,0,0,0-.5,1.751,4.373,4.373,0,0,0,.685,2.411,4.786,4.786,0,0,0,1.749,1.66,3.28,3.28,0,0,1-1.037,1.27,2.774,2.774,0,0,1-1.7.5,2.414,2.414,0,0,1-1.857-.817,2.705,2.705,0,0,1-.524-.923,3.675,3.675,0,0,1-.178-1.16,4.191,4.191,0,0,1,.178-1.262,3.986,3.986,0,0,1,.461-.981,3.436,3.436,0,0,1,.6-.686,3.346,3.346,0,0,1,.614-.423,2.911,2.911,0,0,0,.478-.31.6.6,0,0,0,.189-.481.651.651,0,0,0-.154-.452.587.587,0,0,0-.461-.171,1.99,1.99,0,0,0-.81.292,4.283,4.283,0,0,0-1.082.886,5.555,5.555,0,0,0-.8,1.178s-.286.416-.342.529a1.635,1.635,0,0,1-.244.358,1.741,1.741,0,0,1-.412.339,1.178,1.178,0,0,1-.6.15,1.912,1.912,0,0,1-1.117-.339,3.661,3.661,0,0,1-.855-.839,5.675,5.675,0,0,1-.632-1.083c-.175-.386-.318-.748-.433-1.083a8.29,8.29,0,0,1-.244-.817,2.845,2.845,0,0,0-.07-.3.712.712,0,0,0-.244-.416.673.673,0,0,0-.422-.15.63.63,0,0,0-.5.215.782.782,0,0,0-.192.54c0,.124,0,.248.01.365s.007.244.007.368a9.52,9.52,0,0,1-.171,1.816,11.289,11.289,0,0,1-.45,1.7,13.321,13.321,0,0,1-.611,1.481,12.806,12.806,0,0,1-.649,1.167,4.642,4.642,0,0,1-.6.77c-.185.189-.325.284-.422.284-.143,0-.328-.128-.548-.386a4.4,4.4,0,0,1-.642-1.065,8.744,8.744,0,0,1-.52-1.62,9.025,9.025,0,0,1-.22-2.054,5.065,5.065,0,0,1,.147-1.411c.094-.314.15-.485.161-.507a.668.668,0,0,0,.073-.321.733.733,0,0,0-.181-.482.6.6,0,0,0-.486-.215.663.663,0,0,0-.353.091.735.735,0,0,0-.244.266,6.821,6.821,0,0,0-.258.733,6.416,6.416,0,0,0-.21,1.886,9.574,9.574,0,0,0,.342,2.615,8.98,8.98,0,0,0,.859,2.083,5.3,5.3,0,0,0,1.082,1.364,1.656,1.656,0,0,0,1.033.492,1.927,1.927,0,0,0,.992-.529,6.283,6.283,0,0,0,1.145-1.339,13.005,13.005,0,0,0,1.075-1.984,12.236,12.236,0,0,0,.775-2.459,6.3,6.3,0,0,0,.611.93,5.51,5.51,0,0,0,.8.832,4.024,4.024,0,0,0,.985.6,2.9,2.9,0,0,0,1.17.233,2.406,2.406,0,0,0,.985-.2.215.215,0,0,0,.049-.026,4.776,4.776,0,0,0,.283,1.55,3.864,3.864,0,0,0,.814,1.339,3.674,3.674,0,0,0,1.225.868,3.833,3.833,0,0,0,1.55.31,4.121,4.121,0,0,0,2.444-.773,4.325,4.325,0,0,0,.873-.839,5.6,5.6,0,0,0,.649-1.043,3.673,3.673,0,0,0,.793.073,4.526,4.526,0,0,0,1.533-.2,4.827,4.827,0,0,0,1.236-.613,4.536,4.536,0,0,0,.957-.9c.129-.164.248-.332.36-.5a11.945,11.945,0,0,0,.82,2.338,5.722,5.722,0,0,0,1.316,1.828,2.671,2.671,0,0,0,1.858.7,2.911,2.911,0,0,0,1.323-.31,5.254,5.254,0,0,0,1.173-.81,7.72,7.72,0,0,0,1.02-1.131c.189-.251.367-.507.531-.762a3.734,3.734,0,0,0,.143.6,3.388,3.388,0,0,0,.586,1.083,2.608,2.608,0,0,0,.918.718,2.751,2.751,0,0,0,2.905-.379,5.429,5.429,0,0,0,1.459-1.7,4.062,4.062,0,0,0,1.037,1.751,2.423,2.423,0,0,0,1.76.7,2.863,2.863,0,0,0,1.4-.365,5.888,5.888,0,0,0,1.247-.934,8.383,8.383,0,0,0,1.044-1.244q.471-.679.82-1.3c.234-.416.426-.784.576-1.1.111-.237.2-.412.251-.529a.923.923,0,0,0,.049-.1,1.584,1.584,0,0,0,.091-.226c.045-.139.1-.317.171-.536s.133-.478.206-.773.133-.613.181-.952c.227-.011.44-.018.639-.018h.548a.9.9,0,0,1,.677.179.815.815,0,0,1,.154.536,9.2,9.2,0,0,1-.182,1.78,9.973,9.973,0,0,0-.178,1.875,5.429,5.429,0,0,0,.057.8.68.68,0,0,0,.881.559" fill="#77c4c2" stroke="#77c4c2" stroke-miterlimit="10" stroke-width="0.697"/>
    <path id="Trazado_4" data-name="Trazado 4" d="M171.9,139.863a.666.666,0,0,1-.489-.215.735.735,0,0,1,.013-1.007c.228-.232.474-.482.73-.745a.661.661,0,0,1,.964.009.735.735,0,0,1-.009,1.007l-.733.749a.665.665,0,0,1-.476.2m-2.778,2.624a.675.675,0,0,1-.577-.332.731.731,0,0,1,.212-.982,5.71,5.71,0,0,0,.726-.574.662.662,0,0,1,.963.059.735.735,0,0,1-.057,1.006,7.05,7.05,0,0,1-.9.713.658.658,0,0,1-.364.111m-6.19.061a.656.656,0,0,1-.3-.072,7.538,7.538,0,0,1-.986-.59.733.733,0,0,1-.16-.993.663.663,0,0,1,.95-.168,6.28,6.28,0,0,0,.793.471.727.727,0,0,1,.314.952.679.679,0,0,1-.613.4m3.227.833a6.709,6.709,0,0,1-.69-.037.7.7,0,0,1-.61-.779.691.691,0,0,1,.746-.638,5.1,5.1,0,0,0,.907.017.713.713,0,0,1,.093,1.421q-.226.016-.446.016" fill="#77c4c2" stroke="#77c4c2" stroke-miterlimit="10" stroke-width="0.697"/>
    <path id="Trazado_5" data-name="Trazado 5" d="M175.549,134.945l-.813.413.053-.944a2.855,2.855,0,0,1,.906-1.952l.269-.243a.354.354,0,0,1,.433-.032l.507.354a.372.372,0,0,1,.137.431l-.111.353a2.869,2.869,0,0,1-1.381,1.62m2.036-1.785a1,1,0,0,0-.353-1.132l-.506-.354a.886.886,0,0,0-1.136.093l-.27.243a3.564,3.564,0,0,0-1.1,2.366l-.076,1.407a.322.322,0,0,0,.137.287.292.292,0,0,0,.306.022l1.216-.611a3.367,3.367,0,0,0,1.671-1.968Z" fill="#ef8b44" stroke="#ef8b44" stroke-miterlimit="10" stroke-width="0.349"/>
    <path id="Trazado_6" data-name="Trazado 6" d="M181.421,126.267a.832.832,0,0,1-1.189.247.916.916,0,0,1-.236-1.242.831.831,0,0,1,1.189-.247.93.93,0,0,1,.237,1.242m-1.9-1.327a1.545,1.545,0,0,0,.394,2.07,1.4,1.4,0,0,0,1.981-.411,1.545,1.545,0,0,0-.394-2.07,1.4,1.4,0,0,0-1.981.411" fill="#ef8b44" stroke="#ef8b44" stroke-miterlimit="10" stroke-width="0.349"/>
    <path id="Trazado_7" data-name="Trazado 7" d="M180.332,131.8a12.922,12.922,0,0,0,1.508-2.106,5.055,5.055,0,0,1-.278,2.941l-.291.706Zm-1.131.335c-.021.033-.063.027-.095.005l-.908-.73a12.569,12.569,0,0,0-1.409-.984l-1.04-.63a.071.071,0,0,1-.032-.094l.011-.017a12.621,12.621,0,0,1,6.805-7.309l.545-.242-.006.761a12.776,12.776,0,0,1-3.871,9.238m-5.33-3.985.513-.551a4.613,4.613,0,0,1,2.511-1.382,14.872,14.872,0,0,0-1.312,2.267Zm8.214,4.705a5.771,5.771,0,0,0,.147-3.918,13.413,13.413,0,0,0,1.406-6.03l-.01-.773a.594.594,0,0,0-.243-.48.516.516,0,0,0-.517-.05l-.571.248a12.659,12.659,0,0,0-4.895,3.713,5.123,5.123,0,0,0-3.44,1.618l-.523.568a.608.608,0,0,0-.133.6.537.537,0,0,0,.206.287.572.572,0,0,0,.238.094l1.584.317c-.053.154-.122.3-.175.452l-.005.044a.684.684,0,0,0,.269.762l.031.022,1.04.63a11.423,11.423,0,0,1,1.346.94l.908.73a.633.633,0,0,0,.829-.043,4.009,4.009,0,0,0,.333-.342l.886,1.408a.6.6,0,0,0,.174.193.5.5,0,0,0,.333.089.566.566,0,0,0,.481-.358Z" fill="#ef8b44" stroke="#ef8b44" stroke-miterlimit="10" stroke-width="0.349"/>
  </g>
</svg>
