<svg xmlns="http://www.w3.org/2000/svg" width="468.195" height="182.395" viewBox="0 0 468.195 182.395">
  <g id="Objeto_inteligente_vectorial" data-name="Objeto inteligente vectorial" transform="translate(224 0.862)">
    <g id="Objeto_inteligente_vectorial-2" data-name="Objeto inteligente vectorial" transform="translate(0)">
      <path id="Trazado_11" data-name="Trazado 11" d="M202.4,571.635a5.751,5.751,0,0,1-1.063-7.527l-.059-.044a5.869,5.869,0,0,1-7.824.988l-.017.023a5.758,5.758,0,0,1,1.367,7.572l.089.066a5.857,5.857,0,0,1,7.455-1.008Z" transform="translate(41.794 -534.327)" fill="#2e335e"/>
      <path id="Trazado_12" data-name="Trazado 12" d="M193.722,602.029a5.751,5.751,0,0,1-1.063-7.528l-.059-.044a5.869,5.869,0,0,1-7.824.988l-.017.023a5.758,5.758,0,0,1,1.367,7.572l.089.065a5.857,5.857,0,0,1,7.455-1.008Z" transform="translate(-47.124 -586.458)" fill="#2e335e"/>
      <path id="Trazado_13" data-name="Trazado 13" d="M145.6,596.227a5.751,5.751,0,0,1-1.063-7.528l-.059-.044a5.869,5.869,0,0,1-7.824.988l-.017.023A5.758,5.758,0,0,1,138,597.238l.089.066a5.857,5.857,0,0,1,7.455-1.008Z" transform="translate(-126.636 -490.517)" fill="#2e335e"/>
      <path id="Trazado_1534" data-name="Trazado 1534" d="M145.6,596.227a5.751,5.751,0,0,1-1.063-7.528l-.059-.044a5.869,5.869,0,0,1-7.824.988l-.017.023A5.758,5.758,0,0,1,138,597.238l.089.066a5.857,5.857,0,0,1,7.455-1.008Z" transform="translate(49.364 -418.517)" fill="#2e335e"/>
      <path id="Trazado_1533" data-name="Trazado 1533" d="M145.6,596.227a5.751,5.751,0,0,1-1.063-7.528l-.059-.044a5.869,5.869,0,0,1-7.824.988l-.017.023A5.758,5.758,0,0,1,138,597.238l.089.066a5.857,5.857,0,0,1,7.455-1.008Z" transform="translate(-145.636 -589.517)" fill="#2e335e"/>
      <path id="Trazado_1531" data-name="Trazado 1531" d="M145.6,596.227a5.751,5.751,0,0,1-1.063-7.528l-.059-.044a5.869,5.869,0,0,1-7.824.988l-.017.023A5.758,5.758,0,0,1,138,597.238l.089.066a5.857,5.857,0,0,1,7.455-1.008Z" transform="translate(-360.636 -437.517)" fill="#2e335e"/>
      <path id="Trazado_14" data-name="Trazado 14" d="M219.233,598.775a2.845,2.845,0,0,0,3.961-.573,2.793,2.793,0,0,0-.578-3.929,2.843,2.843,0,0,0-3.959.572,2.793,2.793,0,0,0,.576,3.929" transform="translate(-85.671 -490.101)" fill="#2e335e"/>
      <path id="Trazado_15" data-name="Trazado 15" d="M171.881,572.629a2.845,2.845,0,0,0,3.961-.573,2.794,2.794,0,0,0-.578-3.929,2.843,2.843,0,0,0-3.959.572,2.793,2.793,0,0,0,.576,3.93" transform="translate(-228.815 -391.653)" fill="#2e335e"/>
      <path id="Trazado_1532" data-name="Trazado 1532" d="M171.881,572.629a2.845,2.845,0,0,0,3.961-.573,2.794,2.794,0,0,0-.578-3.929,2.843,2.843,0,0,0-3.959.572,2.793,2.793,0,0,0,.576,3.93" transform="translate(-283.815 -494.653)" fill="#2e335e"/>
    </g>
  </g>
</svg>
