<svg xmlns="http://www.w3.org/2000/svg" width="140.338" height="121.731" viewBox="0 0 140.338 121.731">
  <g id="Objeto_inteligente_vectorial" data-name="Objeto inteligente vectorial" transform="translate(0 0)">
    <path id="Trazado_11" data-name="Trazado 11" d="M193.438,569.507a4.135,4.135,0,0,0,.765-5.412l.043-.031a4.219,4.219,0,0,0,5.625.71l.013.017a4.14,4.14,0,0,0-.983,5.444l-.064.047a4.211,4.211,0,0,0-5.36-.725Z" transform="translate(-193.438 -554.846)" fill="#2e335e"/>
    <path id="Trazado_12" data-name="Trazado 12" d="M184.758,599.9a4.135,4.135,0,0,0,.765-5.412l.042-.031a4.219,4.219,0,0,0,5.625.71l.013.017a4.139,4.139,0,0,0-.983,5.444l-.064.047a4.211,4.211,0,0,0-5.36-.725Z" transform="translate(-123.217 -537.6)" fill="#2e335e"/>
    <path id="Trazado_13" data-name="Trazado 13" d="M136.636,594.1a4.135,4.135,0,0,0,.765-5.412l.042-.031a4.22,4.22,0,0,0,5.625.711l.013.017a4.14,4.14,0,0,0-.983,5.444l-.064.047a4.211,4.211,0,0,0-5.36-.725Z" transform="translate(-2.742 -477.776)" fill="#2e335e"/>
    <path id="Trazado_14" data-name="Trazado 14" d="M221.346,597.353a2.045,2.045,0,0,1-2.848-.412,2.008,2.008,0,0,1,.416-2.825,2.044,2.044,0,0,1,2.846.411,2.008,2.008,0,0,1-.414,2.825" transform="translate(-174.877 -476.023)" fill="#2e335e"/>
    <path id="Trazado_15" data-name="Trazado 15" d="M173.995,571.207a2.045,2.045,0,0,1-2.848-.412,2.009,2.009,0,0,1,.416-2.825,2.044,2.044,0,0,1,2.846.411,2.008,2.008,0,0,1-.414,2.825" transform="translate(-83.312 -567.57)" fill="#2e335e"/>
  </g>
</svg>
