<svg xmlns="http://www.w3.org/2000/svg" width="468.195" height="182.395" viewBox="0 0 468.195 182.395">
  <g id="Objeto_inteligente_vectorial" data-name="Objeto inteligente vectorial" transform="translate(0 0)">
    <g id="Objeto_inteligente_vectorial-2" data-name="Objeto inteligente vectorial" transform="translate(0)">
      <path id="Trazado_11" data-name="Trazado 11" d="M193.438,571.635a5.751,5.751,0,0,0,1.063-7.527l.059-.044a5.869,5.869,0,0,0,7.824.988l.017.023a5.758,5.758,0,0,0-1.367,7.572l-.089.066a5.857,5.857,0,0,0-7.455-1.008Z" transform="translate(-193.438 -533.464)" fill="#2e335e"/>
      <path id="Trazado_12" data-name="Trazado 12" d="M184.758,602.029a5.751,5.751,0,0,0,1.063-7.528l.059-.044a5.869,5.869,0,0,0,7.824.988l.017.023a5.758,5.758,0,0,0-1.367,7.572l-.089.065a5.857,5.857,0,0,0-7.455-1.008Z" transform="translate(-87.161 -585.596)" fill="#2e335e"/>
      <path id="Trazado_13" data-name="Trazado 13" d="M136.636,596.227A5.751,5.751,0,0,0,137.7,588.7l.059-.044a5.869,5.869,0,0,0,7.824.988l.017.023a5.758,5.758,0,0,0-1.367,7.572l-.089.066a5.857,5.857,0,0,0-7.455-1.008Z" transform="translate(88.596 -489.655)" fill="#2e335e"/>
      <path id="Trazado_1534" data-name="Trazado 1534" d="M136.636,596.227A5.751,5.751,0,0,0,137.7,588.7l.059-.044a5.869,5.869,0,0,0,7.824.988l.017.023a5.758,5.758,0,0,0-1.367,7.572l-.089.066a5.857,5.857,0,0,0-7.455-1.008Z" transform="translate(-87.404 -417.655)" fill="#2e335e"/>
      <path id="Trazado_1533" data-name="Trazado 1533" d="M136.636,596.227A5.751,5.751,0,0,0,137.7,588.7l.059-.044a5.869,5.869,0,0,0,7.824.988l.017.023a5.758,5.758,0,0,0-1.367,7.572l-.089.066a5.857,5.857,0,0,0-7.455-1.008Z" transform="translate(107.596 -588.655)" fill="#2e335e"/>
      <path id="Trazado_1531" data-name="Trazado 1531" d="M136.636,596.227A5.751,5.751,0,0,0,137.7,588.7l.059-.044a5.869,5.869,0,0,0,7.824.988l.017.023a5.758,5.758,0,0,0-1.367,7.572l-.089.066a5.857,5.857,0,0,0-7.455-1.008Z" transform="translate(322.596 -436.655)" fill="#2e335e"/>
      <path id="Trazado_14" data-name="Trazado 14" d="M222.617,598.775a2.845,2.845,0,0,1-3.961-.573,2.793,2.793,0,0,1,.578-3.929,2.843,2.843,0,0,1,3.959.572,2.793,2.793,0,0,1-.576,3.929" transform="translate(-111.984 -489.239)" fill="#2e335e"/>
      <path id="Trazado_15" data-name="Trazado 15" d="M175.266,572.629a2.845,2.845,0,0,1-3.961-.573,2.794,2.794,0,0,1,.578-3.929,2.843,2.843,0,0,1,3.959.572,2.793,2.793,0,0,1-.576,3.93" transform="translate(125.863 -390.791)" fill="#2e335e"/>
      <path id="Trazado_1532" data-name="Trazado 1532" d="M175.266,572.629a2.845,2.845,0,0,1-3.961-.573,2.794,2.794,0,0,1,.578-3.929,2.843,2.843,0,0,1,3.959.572,2.793,2.793,0,0,1-.576,3.93" transform="translate(180.863 -493.791)" fill="#2e335e"/>
    </g>
  </g>
</svg>
