<svg xmlns="http://www.w3.org/2000/svg" width="140.34" height="118.377" viewBox="0 0 140.34 118.377">
  <g id="Objeto_inteligente_vectorial" data-name="Objeto inteligente vectorial" transform="translate(-136.635 -522.57)">
    <path id="Trazado_11" data-name="Trazado 11" d="M197.279,567.308a2.464,2.464,0,0,1-.456-3.226l-.025-.019a2.515,2.515,0,0,1-3.352.423l-.007.01a2.467,2.467,0,0,1,.586,3.245l.038.028a2.51,2.51,0,0,1,3.195-.432Z" transform="translate(79.697 -36)" fill="#2e335e"/>
    <path id="Trazado_12" data-name="Trazado 12" d="M188.6,597.7a2.464,2.464,0,0,1-.456-3.226l-.025-.019a2.515,2.515,0,0,1-3.352.423l-.007.01a2.467,2.467,0,0,1,.586,3.245l.038.028a2.51,2.51,0,0,1,3.195-.432Z" transform="translate(25.637 -13.756)" fill="#2e335e"/>
    <path id="Trazado_13" data-name="Trazado 13" d="M140.476,591.9a2.464,2.464,0,0,1-.456-3.226l-.025-.019a2.515,2.515,0,0,1-3.352.423l-.007.01a2.467,2.467,0,0,1,.586,3.245l.038.028a2.51,2.51,0,0,1,3.195-.432Z" transform="translate(0 18.117)" fill="#2e335e"/>
    <path id="Trazado_14" data-name="Trazado 14" d="M218.582,595.884a1.219,1.219,0,0,0,1.7-.245,1.2,1.2,0,0,0-.248-1.684,1.218,1.218,0,0,0-1.7.245,1.2,1.2,0,0,0,.247,1.684" transform="translate(5.923 44.824)" fill="#2e335e"/>
    <path id="Trazado_15" data-name="Trazado 15" d="M171.231,569.738a1.219,1.219,0,0,0,1.7-.245,1.2,1.2,0,0,0-.248-1.684,1.218,1.218,0,0,0-1.7.245,1.2,1.2,0,0,0,.247,1.684" transform="translate(15.32 -45)" fill="#2e335e"/>
  </g>
</svg>
