<svg xmlns="http://www.w3.org/2000/svg" width="223.579" height="199.947" viewBox="0 0 223.579 199.947">
  <g id="Grupo_1097" data-name="Grupo 1097" transform="translate(-1882.2 -1698.2)">
    <g id="User_Female" data-name="User Female" transform="translate(1883 1699)">
      <g id="Outline" transform="translate(0 0)">
        <path id="Trazado_1529" data-name="Trazado 1529" d="M206.625,243.014a27.99,27.99,0,0,0-15.707-9.776l-31.516-7a3.081,3.081,0,0,1-2.427-3.026v-9.318a37.213,37.213,0,0,0,18.6-32.2V163.1a3.1,3.1,0,1,0-6.2,0v18.6a30.992,30.992,0,1,1-61.983,0V163.1a3.1,3.1,0,1,0-6.2,0v18.6a37.212,37.212,0,0,0,18.6,32.2v9.318a3.081,3.081,0,0,1-2.427,3.026l-31.516,7A27.893,27.893,0,0,0,64,260.467v32.8a3.1,3.1,0,0,0,6.2,0v-3.1h18.6v3.1a3.1,3.1,0,0,0,6.2,0v-18.6a3.1,3.1,0,1,0-6.2,0v9.3H70.2v-23.5a21.565,21.565,0,0,1,16.988-21.178l26.4-5.867v4.057c0,6.019,4.081,12.025,12.129,17.85a71.5,71.5,0,0,0,11.4,6.672l1.267.567,1.267-.567a71.529,71.529,0,0,0,11.4-6.673c8.049-5.825,12.129-11.831,12.129-17.85v-4.057l26.4,5.867a21.565,21.565,0,0,1,16.988,21.178v23.5h-18.6v-9.3a3.1,3.1,0,1,0-6.2,0v18.6a3.1,3.1,0,0,0,6.2,0v-3.1h18.6v3.1a3.1,3.1,0,0,0,6.2,0v-32.8A27.989,27.989,0,0,0,206.625,243.014Zm-49.65-5.535c0,7.593-12.419,15.245-18.593,18.269-5.947-2.931-18.6-10.719-18.6-18.269v-5.51a9.23,9.23,0,0,0,6.2-8.759v-6.452a37.187,37.187,0,0,0,24.793,0v6.452a9.23,9.23,0,0,0,6.2,8.759Z" transform="translate(-64 -98.017)" fill="#fff" stroke="#fff" stroke-width="1.6"/>
        <path id="Trazado_1530" data-name="Trazado 1530" d="M163.472,33.971a3.075,3.075,0,0,0,1.786-.566l.05-.035h0a3.1,3.1,0,1,0-1.832.6Z" transform="translate(-123.035 -17.01)" fill="#fff" stroke="#fff" stroke-width="1.6"/>
        <path id="Trazado_1531" data-name="Trazado 1531" d="M111.5,153.886h15.681a3.1,3.1,0,1,0,0-6.2H111.5a9.33,9.33,0,0,1-9.3-9.3V91.9a55.622,55.622,0,0,1,14.814-37.86,3.1,3.1,0,0,0-4.552-4.207A61.777,61.777,0,0,0,96,91.9V138.39A15.5,15.5,0,0,0,111.5,153.886Z" transform="translate(-83.603 -29.919)" fill="#fff" stroke="#fff" stroke-width="1.6"/>
        <path id="Trazado_1532" data-name="Trazado 1532" d="M191.339,10.924a3.062,3.062,0,0,0,1.216-.252,55.8,55.8,0,0,1,77.715,51.311c-1.4,5.235,7.173,6.619,6.2,0A61.934,61.934,0,0,0,214.493,0h-.016a62.45,62.45,0,0,0-12.613,1.286,61.716,61.716,0,0,0-11.746,3.688,3.1,3.1,0,0,0,1.22,5.95Z" transform="translate(-140.106 0)" fill="#fff" stroke="#fff" stroke-width="1.6"/>
        <path id="Trazado_1533" data-name="Trazado 1533" d="M144,99.1v9.3a6.206,6.206,0,0,0,6.2,6.2h74.38a6.206,6.206,0,0,0,6.2-6.2V99.1a3.1,3.1,0,1,0-6.2,0v9.3H150.2V99.1a3.1,3.1,0,0,0-6.2,0Z" transform="translate(-113.008 -58.81)" fill="#fff" stroke="#fff" stroke-width="1.6"/>
        <path id="Trazado_1534" data-name="Trazado 1534" d="M253.962,441.915a3.109,3.109,0,0,0-.287-.535,3.251,3.251,0,0,0-.383-.473,2.982,2.982,0,0,0-.473-.384,3.1,3.1,0,0,0-2.324-.461,3.024,3.024,0,0,0-1.115.461,3.019,3.019,0,0,0-.473.384,3.208,3.208,0,0,0-.384.473,3.115,3.115,0,0,0-.287.535,3.071,3.071,0,0,0-.174.581,2.982,2.982,0,0,0,0,1.209,3.073,3.073,0,0,0,.174.581,3.122,3.122,0,0,0,.287.535,3.208,3.208,0,0,0,.384.473,3.012,3.012,0,0,0,.473.384,3.022,3.022,0,0,0,1.115.461,2.986,2.986,0,0,0,1.209,0,3.023,3.023,0,0,0,1.115-.461,2.975,2.975,0,0,0,.473-.384,3.25,3.25,0,0,0,.383-.473,3.116,3.116,0,0,0,.287-.535,3.045,3.045,0,0,0,.174-.581,2.98,2.98,0,0,0,0-1.209A3.044,3.044,0,0,0,253.962,441.915Z" transform="translate(-176.719 -269.547)" fill="#fff" stroke="#fff" stroke-width="1.6"/>
        <path id="Trazado_1535" data-name="Trazado 1535" d="M252.819,472.525a3.1,3.1,0,0,0-2.324-.461,3.02,3.02,0,0,0-1.115.461,2.934,2.934,0,0,0-.856.856,3.113,3.113,0,0,0-.287.535,3.068,3.068,0,0,0-.174.581,2.983,2.983,0,0,0,0,1.209,3.069,3.069,0,0,0,.174.581,3.111,3.111,0,0,0,.287.535,3.206,3.206,0,0,0,.384.473,3.021,3.021,0,0,0,.473.383,3.022,3.022,0,0,0,1.115.461,2.986,2.986,0,0,0,1.209,0,3.022,3.022,0,0,0,1.115-.461,2.981,2.981,0,0,0,.473-.383,3.255,3.255,0,0,0,.383-.473,3.1,3.1,0,0,0,.287-.535,3.041,3.041,0,0,0,.174-.581,2.884,2.884,0,0,0,.062-.6,3.12,3.12,0,0,0-.907-2.193A3.229,3.229,0,0,0,252.819,472.525Z" transform="translate(-176.719 -289.151)" fill="#fff" stroke="#fff" stroke-width="1.6"/>
      </g>
    </g>
    <g id="Grupo_868" data-name="Grupo 868" transform="translate(1998.569 1768.279)">
      <path id="Trazado_1451" data-name="Trazado 1451" d="M-361.561,2631.483a6.169,6.169,0,0,0,4.5-2.189l2.956,9.881a3.107,3.107,0,0,0,2.753,2.469,3.11,3.11,0,0,0,3.04-2.106l6.487-14.686,7.651,25.5a3.109,3.109,0,0,0,2.751,2.466c.041,0,.1.007.16.007a3.144,3.144,0,0,0,2.89-2.093l8.542-18.982a.9.9,0,0,1,.42-.271h10.341a2.416,2.416,0,0,0,2.415-2.415,2.417,2.417,0,0,0-2.415-2.417h-10.363a5.476,5.476,0,0,0-4.795,3.1l-6.651,14.773-7.673-25.566a3.106,3.106,0,0,0-2.755-2.467,3.107,3.107,0,0,0-3.038,2.1l-6.485,14.682-2.487-8.31a3.274,3.274,0,0,0-2.645-2.485,3.244,3.244,0,0,0-3.13,1.565l-1.628,2.063-.068.113a1.513,1.513,0,0,1-.774.43h-26.072v.038a2.409,2.409,0,0,0-2.006,2.376,2.41,2.41,0,0,0,2.006,2.377v.038Z" transform="translate(389.639 -2579.977)" fill="#fff" stroke="#fff" stroke-width="1.6"/>
      <path id="Trazado_1452" data-name="Trazado 1452" d="M-292.7,2606.095a28.143,28.143,0,0,0-20.023-8.294,28.139,28.139,0,0,0-20.022,8.294l-3.66,3.661-3.662-3.661a28.129,28.129,0,0,0-20.022-8.294,28.128,28.128,0,0,0-20.021,8.294,28.129,28.129,0,0,0-8.292,20.022,28.1,28.1,0,0,0,4.127,14.738h5.9a23.3,23.3,0,0,1-5.2-14.736,23.323,23.323,0,0,1,6.877-16.605,23.321,23.321,0,0,1,16.605-6.879,23.319,23.319,0,0,1,16.606,6.879l7.077,7.074,7.073-7.074a23.329,23.329,0,0,1,16.607-6.879,23.318,23.318,0,0,1,16.605,6.879,23.317,23.317,0,0,1,6.879,16.605,23.32,23.32,0,0,1-6.881,16.608l-40.282,40.285-30.086-30.082h-6.831l36.915,36.913,43.7-43.7a28.132,28.132,0,0,0,8.294-20.022,28.138,28.138,0,0,0-8.294-20.022" transform="translate(390.818 -2597.801)" fill="#fff" stroke="#fff" stroke-width="1.6"/>
    </g>
  </g>
</svg>
