<svg xmlns="http://www.w3.org/2000/svg" width="79.316" height="91.431" viewBox="0 0 79.316 91.431">
  <g id="Page-1" transform="translate(0.3 0.303)">
    <g id="_061---tip-alert" data-name="061---tip-alert" transform="translate(0 0)">
      <path id="Shape" d="M34.133,24.213V65.085A7.578,7.578,0,0,0,41.7,72.653H56.839a1.538,1.538,0,0,1,1.211.605L70,89.184a4.549,4.549,0,0,0,7.036-.06l11.9-15.864a1.543,1.543,0,0,1,1.211-.605H105.28a7.578,7.578,0,0,0,7.569-7.569V24.213a7.578,7.578,0,0,0-7.569-7.569H95.362a22.7,22.7,0,0,0-43.76,0H41.7a7.578,7.578,0,0,0-7.569,7.569ZM72.539,3.043A19.679,19.679,0,0,1,93.17,22.7a19.451,19.451,0,0,1-6.235,14.346A19.225,19.225,0,0,0,81.06,51.113v1.862H65.922V51.367a19.8,19.8,0,0,0-5.96-14.4A19.661,19.661,0,0,1,72.539,3.043Zm5.493,60.528H68.95a3.028,3.028,0,0,1-3.028-3.028V56H81.06v4.541A3.028,3.028,0,0,1,78.032,63.571ZM37.161,24.213A4.541,4.541,0,0,1,41.7,19.672h9.305c-.042.316-.1.628-.129.949a22.6,22.6,0,0,0,7,18.544,16.764,16.764,0,0,1,5.012,12.2v9.176a6.055,6.055,0,0,0,4.541,5.84v1.729a1.514,1.514,0,1,0,3.027,0V66.6h6.055v1.514a1.514,1.514,0,0,0,3.027,0V66.383a6.055,6.055,0,0,0,4.541-5.84V51.113A16.18,16.18,0,0,1,89,39.257,22.448,22.448,0,0,0,96.2,22.7a23.079,23.079,0,0,0-.222-3.028h9.305a4.541,4.541,0,0,1,4.541,4.541V65.085a4.541,4.541,0,0,1-4.541,4.541H90.142a4.586,4.586,0,0,0-3.633,1.817L74.66,87.248a1.621,1.621,0,0,1-2.289.06l-11.9-15.866a4.581,4.581,0,0,0-3.633-1.817H41.7a4.541,4.541,0,0,1-4.541-4.541Z" transform="translate(-34.133 0.009)" fill="#ef8b44" stroke="#ef8b44" stroke-width="0.6"/>
      <path id="Shape-2" data-name="Shape" d="M231.914,238.933a1.514,1.514,0,0,0-1.514,1.514v4.541a1.514,1.514,0,0,0,3.028,0v-4.541A1.514,1.514,0,0,0,231.914,238.933Z" transform="translate(-195.583 -196.546)" fill="#ef8b44" stroke="#ef8b44" stroke-width="0.6"/>
      <path id="Shape-3" data-name="Shape" d="M230.4,190.761a1.514,1.514,0,0,0,3.028,0v-1.514a1.514,1.514,0,1,0-3.028,0Z" transform="translate(-195.583 -154.429)" fill="#ef8b44" stroke="#ef8b44" stroke-width="0.6"/>
      <path id="Shape-4" data-name="Shape" d="M266.047,246.5a1.514,1.514,0,0,0,1.514-1.514v-4.541a1.514,1.514,0,1,0-3.028,0v4.541A1.514,1.514,0,0,0,266.047,246.5Z" transform="translate(-223.661 -196.546)" fill="#ef8b44" stroke="#ef8b44" stroke-width="0.6"/>
      <path id="Shape-5" data-name="Shape" d="M266.047,192.274a1.514,1.514,0,0,0,1.514-1.514v-1.514a1.514,1.514,0,1,0-3.028,0v1.514A1.514,1.514,0,0,0,266.047,192.274Z" transform="translate(-223.661 -154.429)" fill="#ef8b44" stroke="#ef8b44" stroke-width="0.6"/>
      <path id="Shape-6" data-name="Shape" d="M77.347,17.614a1.514,1.514,0,0,0,.946-2.7L70.724,8.863a1.514,1.514,0,1,0-1.892,2.364L76.4,17.282A1.514,1.514,0,0,0,77.347,17.614Z" transform="translate(-62.209 -7.016)" fill="#ef8b44" stroke="#ef8b44" stroke-width="0.6"/>
      <path id="Shape-7" data-name="Shape" d="M386.458,17.282l7.569-6.055a1.514,1.514,0,1,0-1.892-2.364l-7.569,6.055a1.514,1.514,0,0,0,1.892,2.365Z" transform="translate(-321.933 -7.016)" fill="#ef8b44" stroke="#ef8b44" stroke-width="0.6"/>
      <path id="Shape-8" data-name="Shape" d="M68.6,264.512a1.514,1.514,0,0,0,2.128.236l7.569-6.055a1.514,1.514,0,1,0-1.892-2.365l-7.569,6.055a1.514,1.514,0,0,0-.236,2.128Z" transform="translate(-62.209 -210.583)" fill="#ef8b44" stroke="#ef8b44" stroke-width="0.6"/>
      <path id="Shape-9" data-name="Shape" d="M392.134,264.749a1.514,1.514,0,1,0,1.892-2.364l-7.569-6.055a1.514,1.514,0,0,0-1.892,2.365Z" transform="translate(-321.933 -210.583)" fill="#ef8b44" stroke="#ef8b44" stroke-width="0.6"/>
      <path id="Shape-10" data-name="Shape" d="M171.883,54.742a1.467,1.467,0,0,0,.289.029,1.514,1.514,0,0,0,1.484-1.226c1.085-5.575,6.606-7.949,6.66-7.971a1.514,1.514,0,1,0-1.155-2.8c-.289.118-7.078,2.988-8.477,10.2a1.514,1.514,0,0,0,1.2,1.773Z" transform="translate(-146.438 -35.09)" fill="#ef8b44" stroke="#ef8b44" stroke-width="0.6"/>
      <path id="Shape-11" data-name="Shape" d="M69.781,139.561h4.541a1.514,1.514,0,0,0,0-3.028H69.781a1.514,1.514,0,0,0,0,3.028Z" transform="translate(-62.212 -112.311)" fill="#ef8b44" stroke="#ef8b44" stroke-width="0.6"/>
      <path id="Shape-12" data-name="Shape" d="M402.581,139.561h4.541a1.514,1.514,0,0,0,0-3.028h-4.541a1.514,1.514,0,0,0,0,3.028Z" transform="translate(-335.975 -112.311)" fill="#ef8b44" stroke="#ef8b44" stroke-width="0.6"/>
    </g>
  </g>
</svg>
