<svg xmlns="http://www.w3.org/2000/svg" width="78.292" height="104.325" viewBox="0 0 78.292 104.325">
  <g id="Grupo_1431" data-name="Grupo 1431" transform="translate(-216.1 -108.4)">
    <path id="Trazado_1987" data-name="Trazado 1987" d="M285.654,121.416h-4.278v-4.46a8.6,8.6,0,0,0-8.738-8.557,7.447,7.447,0,0,0-1.958.363L224.306,121.6a8.494,8.494,0,0,0-8.206,8.557v73.833a8.758,8.758,0,0,0,8.738,8.738h60.816a8.758,8.758,0,0,0,8.738-8.738V130.155A8.758,8.758,0,0,0,285.654,121.416Zm-13.911-8.557a4.239,4.239,0,0,1,5.173,4.1v4.46H240.707Zm18.189,91.128a4.334,4.334,0,0,1-4.278,4.278H224.838a4.334,4.334,0,0,1-4.278-4.278V130.155a4.334,4.334,0,0,1,4.278-4.278h60.816a4.334,4.334,0,0,1,4.278,4.278Z" transform="translate(0 0)" fill="#ef8b44"/>
    <path id="Trazado_1988" data-name="Trazado 1988" d="M428.987,455.275a11.729,11.729,0,0,1-3.215.532,13.092,13.092,0,0,1-13.017-13.016,11.222,11.222,0,0,1,.532-3.215,2.137,2.137,0,0,0-2.671-2.671,17.3,17.3,0,1,0,21.042,21.042,2.339,2.339,0,0,0-.532-2.139A3.3,3.3,0,0,0,428.987,455.275ZM414.895,466.7a13.092,13.092,0,0,1-13.017-13.016,12.873,12.873,0,0,1,6.6-11.24v.363A17.317,17.317,0,0,0,426.316,460.1,13.424,13.424,0,0,1,414.895,466.7Z" transform="translate(-159.564 -288.742)" fill="#ef8b44"/>
  </g>
</svg>
