<svg xmlns="http://www.w3.org/2000/svg" width="64.038" height="73.74" viewBox="0 0 64.038 73.74">
  <g id="Page-1" transform="translate(0.5 0.502)">
    <g id="_061---tip-alert" data-name="061---tip-alert" transform="translate(0 0)">
      <path id="Shape" d="M34.133,19.389V52.12a6.069,6.069,0,0,0,6.061,6.061H52.317a1.232,1.232,0,0,1,.97.485L62.854,71.42a3.643,3.643,0,0,0,5.635-.048l9.528-12.7a1.235,1.235,0,0,1,.97-.485H91.11a6.069,6.069,0,0,0,6.061-6.061V19.389a6.069,6.069,0,0,0-6.061-6.061H83.167a18.179,18.179,0,0,0-35.044,0H40.194a6.069,6.069,0,0,0-6.061,6.061ZM64.89,2.435A15.759,15.759,0,0,1,81.411,18.177a15.577,15.577,0,0,1-4.993,11.489,15.4,15.4,0,0,0-4.7,11.266v1.491H59.591V41.135A15.856,15.856,0,0,0,54.818,29.6,15.745,15.745,0,0,1,64.89,2.435Zm4.4,48.473H62.015a2.425,2.425,0,0,1-2.425-2.425V44.847H71.713v3.637A2.425,2.425,0,0,1,69.289,50.908ZM36.558,19.389a3.637,3.637,0,0,1,3.637-3.637h7.452c-.034.253-.081.5-.1.76a18.1,18.1,0,0,0,5.609,14.85,13.425,13.425,0,0,1,4.014,9.772v7.349A4.849,4.849,0,0,0,60.8,53.16v1.384a1.212,1.212,0,1,0,2.424,0V53.332h4.849v1.212a1.212,1.212,0,1,0,2.424,0V53.16a4.849,4.849,0,0,0,3.637-4.677V40.931a12.958,12.958,0,0,1,3.936-9.494,17.977,17.977,0,0,0,5.762-13.26,18.483,18.483,0,0,0-.178-2.425H91.11a3.637,3.637,0,0,1,3.637,3.637V52.12a3.637,3.637,0,0,1-3.637,3.637H78.987a3.672,3.672,0,0,0-2.909,1.455l-9.49,12.657a1.3,1.3,0,0,1-1.833.048L55.226,57.212a3.668,3.668,0,0,0-2.909-1.455H40.194a3.637,3.637,0,0,1-3.637-3.637Z" transform="translate(-34.133 0.009)" fill="#eb477a" stroke="#eb477a" stroke-width="1"/>
      <path id="Shape-2" data-name="Shape" d="M231.612,238.933a1.212,1.212,0,0,0-1.212,1.212v3.637a1.212,1.212,0,0,0,2.425,0v-3.637A1.212,1.212,0,0,0,231.612,238.933Z" transform="translate(-202.518 -204.988)" fill="#eb477a" stroke="#eb477a" stroke-width="1"/>
      <path id="Shape-3" data-name="Shape" d="M230.4,190.158a1.212,1.212,0,0,0,2.425,0v-1.212a1.212,1.212,0,1,0-2.425,0Z" transform="translate(-202.518 -161.062)" fill="#eb477a" stroke="#eb477a" stroke-width="1"/>
      <path id="Shape-4" data-name="Shape" d="M265.745,244.994a1.212,1.212,0,0,0,1.212-1.212v-3.637a1.212,1.212,0,1,0-2.425,0v3.637A1.212,1.212,0,0,0,265.745,244.994Z" transform="translate(-231.802 -204.988)" fill="#eb477a" stroke="#eb477a" stroke-width="1"/>
      <path id="Shape-5" data-name="Shape" d="M265.745,191.37a1.212,1.212,0,0,0,1.212-1.212v-1.212a1.212,1.212,0,1,0-2.425,0v1.212A1.212,1.212,0,0,0,265.745,191.37Z" transform="translate(-231.802 -161.062)" fill="#eb477a" stroke="#eb477a" stroke-width="1"/>
      <path id="Shape-6" data-name="Shape" d="M75.538,15.8a1.212,1.212,0,0,0,.758-2.159L70.234,8.8a1.213,1.213,0,1,0-1.515,1.894l6.061,4.849A1.213,1.213,0,0,0,75.538,15.8Z" transform="translate(-63.415 -7.318)" fill="#eb477a" stroke="#eb477a" stroke-width="1"/>
      <path id="Shape-7" data-name="Shape" d="M385.968,15.539l6.061-4.849A1.213,1.213,0,1,0,390.514,8.8l-6.061,4.849a1.213,1.213,0,0,0,1.515,1.894Z" transform="translate(-334.295 -7.318)" fill="#eb477a" stroke="#eb477a" stroke-width="1"/>
      <path id="Shape-8" data-name="Shape" d="M68.529,262.816a1.213,1.213,0,0,0,1.7.189l6.061-4.849a1.213,1.213,0,0,0-1.515-1.894l-6.061,4.849a1.212,1.212,0,0,0-.189,1.7Z" transform="translate(-63.415 -219.628)" fill="#eb477a" stroke="#eb477a" stroke-width="1"/>
      <path id="Shape-9" data-name="Shape" d="M390.513,263.006a1.213,1.213,0,0,0,1.515-1.894l-6.061-4.849a1.213,1.213,0,0,0-1.515,1.894Z" transform="translate(-334.294 -219.628)" fill="#eb477a" stroke="#eb477a" stroke-width="1"/>
      <path id="Shape-10" data-name="Shape" d="M171.638,52.335a1.173,1.173,0,0,0,.232.023,1.212,1.212,0,0,0,1.188-.982c.869-4.465,5.29-6.366,5.334-6.384a1.212,1.212,0,1,0-.925-2.241c-.231.094-5.668,2.393-6.789,8.165a1.212,1.212,0,0,0,.96,1.419Z" transform="translate(-151.261 -36.598)" fill="#eb477a" stroke="#eb477a" stroke-width="1"/>
      <path id="Shape-11" data-name="Shape" d="M69.479,138.958h3.637a1.212,1.212,0,0,0,0-2.425H69.479a1.212,1.212,0,0,0,0,2.425Z" transform="translate(-63.418 -117.136)" fill="#eb477a" stroke="#eb477a" stroke-width="1"/>
      <path id="Shape-12" data-name="Shape" d="M402.279,138.958h3.637a1.212,1.212,0,1,0,0-2.425h-3.637a1.212,1.212,0,0,0,0,2.425Z" transform="translate(-348.939 -117.136)" fill="#eb477a" stroke="#eb477a" stroke-width="1"/>
    </g>
  </g>
</svg>
