<svg xmlns="http://www.w3.org/2000/svg" width="82.468" height="82.581" viewBox="0 0 82.468 82.581">
  <g id="jigsaw" transform="translate(-0.101 0.25)">
    <g id="Grupo_1396" data-name="Grupo 1396" transform="translate(0.351)">
      <g id="Grupo_1395" data-name="Grupo 1395">
        <path id="Trazado_1956" data-name="Trazado 1956" d="M29.7,13.034A4.653,4.653,0,0,1,33.505,15a1.2,1.2,0,0,0,2.184-.692V1.2a1.2,1.2,0,0,0-1.2-1.2H1.553a1.2,1.2,0,0,0-1.2,1.2V9.48a1.2,1.2,0,1,0,2.4,0V2.4H33.286v9.2a7.03,7.03,0,1,0,0,12.109v9.2H21.3a1.2,1.2,0,0,0-.678,2.194,4.627,4.627,0,1,1-5.212,0,1.2,1.2,0,0,0-.678-2.194H2.755V13.487a1.2,1.2,0,0,0-2.4,0V34.12a1.2,1.2,0,0,0,1.2,1.2H11.981a7.03,7.03,0,1,0,12.061,0H34.487a1.2,1.2,0,0,0,1.2-1.2V21.012A1.2,1.2,0,0,0,33.5,20.32a4.632,4.632,0,1,1-3.8-7.286Z" transform="translate(-0.351)" fill="#ae96b2" stroke="#ae96b2" stroke-width="0.5"/>
      </g>
    </g>
    <g id="Grupo_1398" data-name="Grupo 1398" transform="translate(14.726 14.521)">
      <g id="Grupo_1397" data-name="Grupo 1397">
        <path id="Trazado_1957" data-name="Trazado 1957" d="M156.41,105.819a1.2,1.2,0,0,0,1.2-1.2V91.782a1.2,1.2,0,0,0-1.2-1.2H123.816a1.2,1.2,0,0,0-1.2,1.2v10.3a6.97,6.97,0,1,0,0,11.985v9.094H110.826a1.2,1.2,0,0,0-.692,2.185,4.566,4.566,0,1,1-5.249,0,1.2,1.2,0,0,0-.692-2.185H91.221a1.2,1.2,0,0,0-1.2,1.2v18.98a1.2,1.2,0,1,0,2.4,0V125.562h9.071a6.97,6.97,0,1,0,12.031,0h9.088V137.4a1.2,1.2,0,0,0,2.194.678,4.566,4.566,0,1,1,0,5.145,1.2,1.2,0,0,0-2.194.678v11.837H92.423v-8.39a1.2,1.2,0,0,0-2.4,0v9.591a1.2,1.2,0,0,0,1.2,1.2h65.19a1.2,1.2,0,0,0,1.2-1.2V108.624a1.2,1.2,0,0,0-2.4,0v14.534h-9.071a6.965,6.965,0,0,0,.955-3.516c0-.009,0-.018,0-.027s0-.013,0-.02a6.97,6.97,0,1,0-13.94,0c0,.007,0,.013,0,.02s0,.018,0,.027a6.965,6.965,0,0,0,.955,3.516h-9.088V111.321a1.2,1.2,0,0,0-2.194-.678,4.566,4.566,0,1,1,0-5.145,1.2,1.2,0,0,0,2.194-.678V92.983h30.191v11.634A1.2,1.2,0,0,0,156.41,105.819Zm-31.393,19.742h11.853a1.2,1.2,0,0,0,.678-2.194,4.566,4.566,0,1,1,5.145,0,1.2,1.2,0,0,0,.678,2.194h11.837v30.174H125.017v-9.073a7.006,7.006,0,0,0,3.533.957h.014a6.97,6.97,0,0,0,0-13.94h-.014a7.007,7.007,0,0,0-3.533.957Z" transform="translate(-90.019 -90.58)" fill="#ae96b2" stroke="#ae96b2" stroke-width="0.5"/>
      </g>
    </g>
  </g>
</svg>
