<svg xmlns="http://www.w3.org/2000/svg" width="91.596" height="95.688" viewBox="0 0 91.596 95.688">
  <g id="folder" transform="translate(0 0)">
    <g id="Grupo_1350" data-name="Grupo 1350">
      <g id="Grupo_1349" data-name="Grupo 1349">
        <g id="Grupo_1348" data-name="Grupo 1348">
          <path id="Trazado_1940" data-name="Trazado 1940" d="M448.058,232.57Z" transform="translate(-366.197 -189.04)" fill="#eb477a"/>
          <path id="Trazado_1941" data-name="Trazado 1941" d="M92.81,43.53A1.4,1.4,0,0,0,91,44.342L86.648,55.81H75.927a1.394,1.394,0,0,0-.681-.555L48.587,45.133a1.4,1.4,0,1,0-.994,2.62l21.221,8.058H65.436L53.547,51.3a1.4,1.4,0,1,0-.995,2.62l4.992,1.9H43.953a1.4,1.4,0,0,0,0,2.8H88.744L82.225,92.836H14.044l6.518-34.223H38.287a1.4,1.4,0,0,0,0-2.8H32.919l7.692-20.259h0l12.076-31.8A1.459,1.459,0,0,1,54.572,2.9L62.23,5.809a1.4,1.4,0,0,0,.994-2.62L55.567.281a4.261,4.261,0,0,0-5.5,2.471L38.772,32.5,35.6,29.332a1.4,1.4,0,0,0-.991-.41H12.35a1.4,1.4,0,0,0-1.4,1.4V94.236c0,1.361,1.289,1.4,2.275,1.4H81.561a6.208,6.208,0,0,0,2.428-.14,1.411,1.411,0,0,0,.771-1l7.053-37.026a1.4,1.4,0,0,0-1.376-1.663h-.791l3.977-10.473A1.4,1.4,0,0,0,92.81,43.53ZM13.751,31.723H34.03l3.652,3.651-1.59,4.188H13.751Zm0,10.64H35.028L29.922,55.81H19.4a1.4,1.4,0,0,0-1.376,1.139L13.751,79.4Z" transform="translate(-10.949 0)" fill="#eb477a"/>
        </g>
      </g>
    </g>
    <g id="Grupo_1352" data-name="Grupo 1352" transform="translate(56.183 5.301)">
      <g id="Grupo_1351" data-name="Grupo 1351">
        <path id="Trazado_1942" data-name="Trazado 1942" d="M344.234,40.139,313.47,28.458a1.4,1.4,0,1,0-.994,2.62L343.24,42.759a1.46,1.46,0,0,1,.847,1.883L337.647,61.6a1.4,1.4,0,1,0,2.62.995l6.439-16.957A4.267,4.267,0,0,0,344.234,40.139Z" transform="translate(-311.571 -28.366)" fill="#eb477a"/>
      </g>
    </g>
    <g id="Grupo_1354" data-name="Grupo 1354" transform="translate(50.62 17.612)">
      <g id="Grupo_1353" data-name="Grupo 1353">
        <path id="Trazado_1943" data-name="Trazado 1943" d="M300.5,103.316l-4.611-2.562-.5-5.25a1.4,1.4,0,0,0-2.349-.892L289.172,98.2l-5.149-1.144a1.4,1.4,0,0,0-1.574,1.958l2.224,4.783-2.679,4.543a1.4,1.4,0,0,0,1.376,2.1l5.236-.637,3.493,3.952a1.4,1.4,0,0,0,2.425-.659l1.012-5.176,4.838-2.1a1.4,1.4,0,0,0,.122-2.509Zm-6.752,2.334a1.4,1.4,0,0,0-.817,1.016l-.608,3.113-2.1-2.377a1.4,1.4,0,0,0-1.049-.473,1.432,1.432,0,0,0-.17.01l-3.149.384,1.611-2.733a1.4,1.4,0,0,0,.063-1.3l-1.338-2.877,3.1.688a1.4,1.4,0,0,0,1.258-.342l2.323-2.161.3,3.158a1.4,1.4,0,0,0,.714,1.091l2.773,1.541Z" transform="translate(-281.801 -94.236)" fill="#eb477a"/>
      </g>
    </g>
    <g id="Grupo_1356" data-name="Grupo 1356" transform="translate(73.151 28.29)">
      <g id="Grupo_1355" data-name="Grupo 1355">
        <path id="Trazado_1944" data-name="Trazado 1944" d="M404.514,151.562l-.256-.1a1.4,1.4,0,1,0-1,2.619l.256.1a1.4,1.4,0,1,0,1-2.619Z" transform="translate(-402.359 -151.373)" fill="#eb477a"/>
      </g>
    </g>
    <g id="Grupo_1358" data-name="Grupo 1358" transform="translate(71.466 32.728)">
      <g id="Grupo_1357" data-name="Grupo 1357">
        <path id="Trazado_1945" data-name="Trazado 1945" d="M395.5,175.306l-.256-.1a1.4,1.4,0,0,0-.994,2.62l.256.1a1.4,1.4,0,1,0,.994-2.62Z" transform="translate(-393.344 -175.118)" fill="#eb477a"/>
      </g>
    </g>
    <g id="Grupo_1360" data-name="Grupo 1360" transform="translate(45.277 17.706)">
      <g id="Grupo_1359" data-name="Grupo 1359">
        <path id="Trazado_1946" data-name="Trazado 1946" d="M255.367,94.93l-.256-.1a1.4,1.4,0,1,0-.994,2.62l.256.1a1.4,1.4,0,1,0,.994-2.62Z" transform="translate(-253.213 -94.741)" fill="#eb477a"/>
      </g>
    </g>
    <g id="Grupo_1362" data-name="Grupo 1362" transform="translate(43.592 22.144)">
      <g id="Grupo_1361" data-name="Grupo 1361">
        <path id="Trazado_1947" data-name="Trazado 1947" d="M246.352,118.676l-.256-.1a1.4,1.4,0,0,0-1,2.619l.256.1a1.4,1.4,0,1,0,1-2.619Z" transform="translate(-244.197 -118.487)" fill="#eb477a"/>
      </g>
    </g>
    <g id="Grupo_1364" data-name="Grupo 1364" transform="translate(45.593 37.942)">
      <g id="Grupo_1363" data-name="Grupo 1363">
        <path id="Trazado_1948" data-name="Trazado 1948" d="M270.949,208.479,256.8,203.107a1.4,1.4,0,0,0-.994,2.62l14.148,5.372a1.4,1.4,0,1,0,.994-2.62Z" transform="translate(-254.902 -203.015)" fill="#eb477a"/>
      </g>
    </g>
    <g id="Grupo_1366" data-name="Grupo 1366" transform="translate(37.159 41.301)">
      <g id="Grupo_1365" data-name="Grupo 1365">
        <path id="Trazado_1949" data-name="Trazado 1949" d="M238.337,231.2l-26.659-10.123a1.4,1.4,0,1,0-.994,2.62l26.66,10.123a1.4,1.4,0,1,0,.994-2.62Z" transform="translate(-209.779 -220.99)" fill="#eb477a"/>
      </g>
    </g>
  </g>
</svg>
