<svg xmlns="http://www.w3.org/2000/svg" width="77.875" height="81.765" viewBox="0 0 77.875 81.765">
  <g id="abc-block" transform="translate(-9.623 0)">
    <g id="Grupo_1400" data-name="Grupo 1400" transform="translate(24.684 0)">
      <g id="Grupo_1399" data-name="Grupo 1399" transform="translate(0 0)">
        <path id="Trazado_1958" data-name="Trazado 1958" d="M127.95,29.3,117.182,1.81A2.91,2.91,0,0,0,113.447.193L85.96,10.961A2.878,2.878,0,0,0,84.343,14.7L95.192,42.183A2.878,2.878,0,0,0,98.927,43.8l27.406-10.768A2.878,2.878,0,0,0,127.95,29.3ZM98.07,40.647,87.561,13.9,114.3,3.378l10.51,26.759Z" transform="translate(-84.14 0)" fill="#eb477a"/>
      </g>
    </g>
    <g id="Grupo_1402" data-name="Grupo 1402" transform="translate(9.623 46.549)">
      <g id="Grupo_1401" data-name="Grupo 1401" transform="translate(0)">
        <path id="Trazado_1959" data-name="Trazado 1959" d="M41.944,230.316H12.5a2.878,2.878,0,0,0-2.878,2.878v29.46a2.878,2.878,0,0,0,2.878,2.878H41.944a2.878,2.878,0,0,0,2.878-2.878v-29.46A2.878,2.878,0,0,0,41.944,230.316Zm-.356,31.966H12.857V233.55H41.589Z" transform="translate(-9.623 -230.316)" fill="#eb477a"/>
      </g>
    </g>
    <g id="Grupo_1404" data-name="Grupo 1404" transform="translate(45.775 38.736)">
      <g id="Grupo_1403" data-name="Grupo 1403">
        <path id="Trazado_1960" data-name="Trazado 1960" d="M228.143,199.311l-28.457-7.567a2.927,2.927,0,0,0-3.525,2.1L188.594,222.3a2.878,2.878,0,0,0,2.036,3.524h0l28.457,7.567a2.878,2.878,0,0,0,3.524-2.036h0l7.5-28.522A2.878,2.878,0,0,0,228.143,199.311Zm-8.553,30.721-27.778-7.292,7.389-27.762,27.762,7.389Z" transform="translate(-188.495 -191.66)" fill="#eb477a"/>
      </g>
    </g>
    <g id="Grupo_1406" data-name="Grupo 1406" transform="translate(41.636 13.105)">
      <g id="Grupo_1405" data-name="Grupo 1405" transform="translate(0)">
        <path id="Trazado_1961" data-name="Trazado 1961" d="M182.734,76.928a5.45,5.45,0,0,0-1.148-1.488L173.5,66.919l-.954-1.035a4.847,4.847,0,0,0-.792-.663,2.265,2.265,0,0,0-.97-.372,2.733,2.733,0,0,0-2.2.873,2.246,2.246,0,0,0-.453.938,5.7,5.7,0,0,0-.113,1.229V80.873q.049.728.081,1.116a2.413,2.413,0,0,0,.146.711,1.439,1.439,0,0,0,.857.808,1.617,1.617,0,0,0,1.229,0,1.277,1.277,0,0,0,.857-.808,7.663,7.663,0,0,0,.129-1.892V78.5l6.387-2.506,1.52,1.617.7.7a3.57,3.57,0,0,0,.663.55,1.39,1.39,0,0,0,.6.194,1.521,1.521,0,0,0,.7-.113,1.618,1.618,0,0,0,.857-.825A1.5,1.5,0,0,0,182.734,76.928Zm-11.561-1.18-.226-7.341,4.915,5.5Z" transform="translate(-168.019 -64.843)" fill="#eb477a"/>
      </g>
    </g>
    <g id="Grupo_1408" data-name="Grupo 1408" transform="translate(20.606 54.944)">
      <g id="Grupo_1407" data-name="Grupo 1407" transform="translate(0)">
        <path id="Trazado_1962" data-name="Trazado 1962" d="M74.616,279.8a3.88,3.88,0,0,0,2.522-3.7,4.042,4.042,0,0,0-.243-1.391,3.994,3.994,0,0,0-.7-1.213,4.138,4.138,0,0,0-1.051-.905,4.463,4.463,0,0,0-1.617-.582,12.769,12.769,0,0,0-2.086-.146H66.079a2.167,2.167,0,0,0-1.617.485,2.215,2.215,0,0,0-.485,1.617v12.676a2.247,2.247,0,0,0,.469,1.617,2.134,2.134,0,0,0,1.633.5h5.158a18.138,18.138,0,0,0,2.247-.21,6.961,6.961,0,0,0,1.779-.453,4.35,4.35,0,0,0,1.956-1.617,4.625,4.625,0,0,0,.728-2.555A4.123,4.123,0,0,0,74.616,279.8Zm-7.2-5.336h2.7a6.952,6.952,0,0,1,2.765.42,1.617,1.617,0,0,1,.905,1.617,2.088,2.088,0,0,1-.291,1.083,1.876,1.876,0,0,1-1.067.922,6.274,6.274,0,0,1-1.973.242H67.34Zm7.05,9.232q0,2.49-3.46,2.49H67.34l.081-4.915H70.93a5.028,5.028,0,0,1,2.684.582A2.038,2.038,0,0,1,74.471,283.7Z" transform="translate(-63.966 -271.853)" fill="#eb477a"/>
      </g>
    </g>
    <g id="Grupo_1410" data-name="Grupo 1410" transform="translate(59.182 50.321)">
      <g id="Grupo_1409" data-name="Grupo 1409">
        <path id="Trazado_1963" data-name="Trazado 1963" d="M270.417,253.517a6.582,6.582,0,0,0-1.924-2.619,7.873,7.873,0,0,0-3.234-1.617,8.374,8.374,0,0,0-3.234-.243,7.4,7.4,0,0,0-2.943,1.019,7.81,7.81,0,0,0-2.345,2.231,10.512,10.512,0,0,0-1.5,3.363,11.464,11.464,0,0,0-.388,2.344,9.14,9.14,0,0,0,.145,2.215,8.38,8.38,0,0,0,.647,2,6.724,6.724,0,0,0,1.229,1.779,6.842,6.842,0,0,0,1.714,1.277,10.744,10.744,0,0,0,2.28.873,7.794,7.794,0,0,0,3.121.243,6.357,6.357,0,0,0,2.474-.938,6.271,6.271,0,0,0,1.617-1.455,4.462,4.462,0,0,0,.825-1.617,1.407,1.407,0,0,0-.146-1.132,1.439,1.439,0,0,0-.905-.679,1.229,1.229,0,0,0-1.116.146,3.649,3.649,0,0,0-.792.905,4.431,4.431,0,0,1-2.037,1.617,4.173,4.173,0,0,1-2.587,0,4.318,4.318,0,0,1-2.053-1.019,4.122,4.122,0,0,1-1-2.28,8.424,8.424,0,0,1,.307-3.234,7.259,7.259,0,0,1,2.361-4.188,4.042,4.042,0,0,1,3.654-.679A3.849,3.849,0,0,1,266.569,253a5.159,5.159,0,0,1,1.035,2.215,4.314,4.314,0,0,0,.437,1.229,1.374,1.374,0,0,0,.873.55,1.31,1.31,0,0,0,1.083-.178,1.472,1.472,0,0,0,.663-.889A3.993,3.993,0,0,0,270.417,253.517Z" transform="translate(-254.832 -248.978)" fill="#eb477a"/>
      </g>
    </g>
  </g>
</svg>
