<svg xmlns="http://www.w3.org/2000/svg" width="97.374" height="96.426" viewBox="0 0 97.374 96.426">
  <g id="paper" transform="translate(0 0)">
    <path id="Trazado_1950" data-name="Trazado 1950" d="M96.572,14.309,85.077,3.346a2.332,2.332,0,0,0-1.734-.853H37.3a2.442,2.442,0,0,0-2.439,2.439v7.49L18.627,15.2a2.4,2.4,0,0,0-1.95,2.773l.824,4.8c-5.275,1.775-10.691,3.605-15.919,5.483A2.415,2.415,0,0,0,.138,31.331l10.4,28.911a1.426,1.426,0,0,0,2.684-.966L2.976,30.793C7.9,29.029,13,27.3,17.989,25.625L22.89,54.2l5.64,32.908A2.416,2.416,0,0,0,31.3,89.063l15.275-2.621L58.513,84.4,40.561,90.848l-14.156,5.09L15.411,65.358a1.426,1.426,0,0,0-2.684.965l11.15,31.014a2.409,2.409,0,0,0,2.257,1.582,2.36,2.36,0,0,0,.811-.144l14.582-5.243,33.11-11.9,6.325-1.084H94.934A2.445,2.445,0,0,0,97.374,78.1V15.916a2.052,2.052,0,0,0-.8-1.607Zm-3.779.338H85.479c-.342,0-1.142.008-1.345-.193a.8.8,0,0,1-.1-.491l-.017-7.686Zm1.728,63.048H37.709V49.9a1.426,1.426,0,1,0-2.853,0V78.1A2.445,2.445,0,0,0,37.3,80.547h26.78L46.095,83.629,31.264,86.175,25.7,53.717,19.564,17.938l15.292-2.621V43.278a1.426,1.426,0,0,0,2.853,0V5.346H81.161l.019,8.62a3.4,3.4,0,0,0,.944,2.512A4.362,4.362,0,0,0,85.293,17.5h9.228Z" transform="translate(0 -2.493)" fill="#7dc7c5"/>
    <path id="Trazado_1951" data-name="Trazado 1951" d="M234.43,112.875a1.426,1.426,0,0,0,1.426,1.426h40.782a1.426,1.426,0,0,0,0-2.853H235.856A1.426,1.426,0,0,0,234.43,112.875Z" transform="translate(-189.845 -90.727)" fill="#7dc7c5"/>
    <path id="Trazado_1952" data-name="Trazado 1952" d="M276.639,164.731H235.856a1.426,1.426,0,1,0,0,2.853h40.782a1.426,1.426,0,1,0,0-2.853Z" transform="translate(-189.845 -133.876)" fill="#7dc7c5"/>
    <path id="Trazado_1953" data-name="Trazado 1953" d="M276.639,218.013H235.856a1.426,1.426,0,0,0,0,2.853h40.782a1.426,1.426,0,0,0,0-2.853Z" transform="translate(-189.845 -177.025)" fill="#7dc7c5"/>
    <path id="Trazado_1954" data-name="Trazado 1954" d="M276.639,271.3H235.856a1.426,1.426,0,0,0,0,2.853h40.782a1.426,1.426,0,0,0,0-2.853Z" transform="translate(-189.845 -220.173)" fill="#7dc7c5"/>
    <path id="Trazado_1955" data-name="Trazado 1955" d="M276.639,324.578H235.856a1.426,1.426,0,1,0,0,2.853h40.782a1.426,1.426,0,1,0,0-2.853Z" transform="translate(-189.845 -263.323)" fill="#7dc7c5"/>
  </g>
</svg>
