<svg id="newspaper" xmlns="http://www.w3.org/2000/svg" width="67.089" height="77.028" viewBox="0 0 67.089 77.028">
  <path id="Trazado_1964" data-name="Trazado 1964" d="M62.119,24.848V12.424H57.15V0H0V70.816a6.219,6.219,0,0,0,6.212,6.212H60.877a6.219,6.219,0,0,0,6.212-6.212V24.848ZM6.212,74.543a3.732,3.732,0,0,1-3.727-3.727V2.485h52.18V70.816a6.179,6.179,0,0,0,1.245,3.727ZM64.6,70.816a3.727,3.727,0,0,1-7.454,0V14.909h2.485v52.18h2.485V27.333H64.6Zm0,0" fill="#f7b919"/>
  <path id="Trazado_1965" data-name="Trazado 1965" d="M384,448h2.485v2.485H384Zm0,0" transform="translate(-324.365 -378.426)" fill="#f7b919"/>
  <path id="Trazado_1966" data-name="Trazado 1966" d="M164.342,287.17l-4.191-1.2v-.332a6.218,6.218,0,0,0,2.485-4.943v-2.271a6.376,6.376,0,0,0-5.607-6.4,6.21,6.21,0,0,0-6.817,6.182V280.7a6.218,6.218,0,0,0,2.485,4.943v.332l-4.192,1.2a6.241,6.241,0,0,0-4.5,5.975v3.7h24.848v-3.7A6.241,6.241,0,0,0,164.342,287.17Zm2.021,7.195H146.485v-1.22a3.745,3.745,0,0,1,2.7-3.585l5.994-1.713v-3.583l-.618-.359A3.688,3.688,0,0,1,152.7,280.7v-2.485a3.727,3.727,0,0,1,4.1-3.711,3.876,3.876,0,0,1,3.358,3.924V280.7a3.687,3.687,0,0,1-1.867,3.207l-.618.359v3.583l5.992,1.713a3.745,3.745,0,0,1,2.7,3.585Zm0,0" transform="translate(-121.637 -229.761)" fill="#f7b919"/>
  <path id="Trazado_1967" data-name="Trazado 1967" d="M112,274.787h34.787V240H112Zm2.485-32.3H144.3V272.3H114.485Zm0,0" transform="translate(-94.607 -202.728)" fill="#f7b919"/>
  <path id="Trazado_1968" data-name="Trazado 1968" d="M46.909,61.817A14.909,14.909,0,1,0,32,46.909,14.925,14.925,0,0,0,46.909,61.817Zm0-2.485a12.438,12.438,0,0,1-11.359-7.413A6.152,6.152,0,0,1,39.517,53.7l.257.257a5.634,5.634,0,0,0,9.619-3.983v-1.2a4.353,4.353,0,0,0-4.348-4.348,1.866,1.866,0,0,1-1.864-1.864V40.7a8.719,8.719,0,0,0-1.6-4.994,12.3,12.3,0,0,1,4.166-1.158,6.963,6.963,0,0,0-.081.845,7.083,7.083,0,0,0,2.671,5.559l2.117,1.692a3.775,3.775,0,0,1,1.424,2.96,6.286,6.286,0,0,0,6.278,6.278c.044,0,.092-.008.137-.01A12.438,12.438,0,0,1,46.909,59.333ZM59.333,46.909a12.44,12.44,0,0,1-.237,2.4,6.058,6.058,0,0,1-.939.083A3.8,3.8,0,0,1,54.363,45.6a6.245,6.245,0,0,0-2.356-4.9L49.89,39.006a4.606,4.606,0,0,1-1.739-3.617,4.308,4.308,0,0,1,.082-.831A12.439,12.439,0,0,1,59.333,46.909ZM39.464,36.986A6.246,6.246,0,0,1,40.7,40.7V42.56a4.353,4.353,0,0,0,4.348,4.348,1.866,1.866,0,0,1,1.864,1.864v1.2A3.15,3.15,0,0,1,41.531,52.2l-.257-.257a8.642,8.642,0,0,0-6.149-2.548,2.815,2.815,0,0,1-.4-.037,12.377,12.377,0,0,1,4.735-12.37Zm0,0" transform="translate(-27.03 -27.03)" fill="#f7b919"/>
  <path id="Trazado_1969" data-name="Trazado 1969" d="M240,32h14.909v2.485H240Zm0,0" transform="translate(-202.728 -27.03)" fill="#f7b919"/>
  <path id="Trazado_1970" data-name="Trazado 1970" d="M240,64h2.485v2.485H240Zm0,0" transform="translate(-202.728 -54.061)" fill="#f7b919"/>
  <path id="Trazado_1971" data-name="Trazado 1971" d="M272,64h9.939v2.485H272Zm0,0" transform="translate(-229.759 -54.061)" fill="#f7b919"/>
  <path id="Trazado_1972" data-name="Trazado 1972" d="M240,96h14.909v2.485H240Zm0,0" transform="translate(-202.728 -81.091)" fill="#f7b919"/>
  <path id="Trazado_1973" data-name="Trazado 1973" d="M240,128h14.909v2.485H240Zm0,0" transform="translate(-202.728 -108.122)" fill="#f7b919"/>
  <path id="Trazado_1974" data-name="Trazado 1974" d="M240,160h9.939v2.485H240Zm0,0" transform="translate(-202.728 -135.152)" fill="#f7b919"/>
  <path id="Trazado_1975" data-name="Trazado 1975" d="M320,160h2.485v2.485H320Zm0,0" transform="translate(-270.305 -135.152)" fill="#f7b919"/>
  <path id="Trazado_1976" data-name="Trazado 1976" d="M32,440h9.939v2.485H32Zm0,0" transform="translate(-27.03 -371.669)" fill="#f7b919"/>
  <path id="Trazado_1977" data-name="Trazado 1977" d="M32,408h9.939v2.485H32Zm0,0" transform="translate(-27.03 -344.638)" fill="#f7b919"/>
  <path id="Trazado_1978" data-name="Trazado 1978" d="M32,376h9.939v2.485H32Zm0,0" transform="translate(-27.03 -317.608)" fill="#f7b919"/>
  <path id="Trazado_1979" data-name="Trazado 1979" d="M32,344h9.939v2.485H32Zm0,0" transform="translate(-27.03 -290.577)" fill="#f7b919"/>
  <path id="Trazado_1980" data-name="Trazado 1980" d="M32,312h9.939v2.485H32Zm0,0" transform="translate(-27.03 -263.547)" fill="#f7b919"/>
</svg>
