<svg id="share" xmlns="http://www.w3.org/2000/svg" width="19.268" height="21.02" viewBox="0 0 19.268 21.02">
  <path id="Trazado_1813" data-name="Trazado 1813" d="M320.361,18.846A2.846,2.846,0,1,1,317.514,16,2.846,2.846,0,0,1,320.361,18.846Zm0,0" transform="translate(-301.75 -15.343)" fill="#7dc7c5"/>
  <path id="Trazado_1814" data-name="Trazado 1814" d="M302.171,7.007a3.5,3.5,0,1,1,3.5-3.5A3.507,3.507,0,0,1,302.171,7.007Zm0-5.693a2.19,2.19,0,1,0,2.19,2.189A2.192,2.192,0,0,0,302.171,1.314Zm0,0" transform="translate(-286.406)" fill="#7dc7c5"/>
  <path id="Trazado_1815" data-name="Trazado 1815" d="M320.361,360.179a2.846,2.846,0,1,1-2.846-2.846A2.846,2.846,0,0,1,320.361,360.179Zm0,0" transform="translate(-301.75 -342.662)" fill="#7dc7c5"/>
  <path id="Trazado_1816" data-name="Trazado 1816" d="M302.171,348.339a3.5,3.5,0,1,1,3.5-3.5A3.507,3.507,0,0,1,302.171,348.339Zm0-5.693a2.19,2.19,0,1,0,2.19,2.19A2.192,2.192,0,0,0,302.171,342.646Zm0,0" transform="translate(-286.406 -327.319)" fill="#7dc7c5"/>
  <path id="Trazado_1817" data-name="Trazado 1817" d="M21.693,189.514a2.846,2.846,0,1,1-2.847-2.846A2.846,2.846,0,0,1,21.693,189.514Zm0,0" transform="translate(-15.343 -179.005)" fill="#7dc7c5"/>
  <path id="Trazado_1818" data-name="Trazado 1818" d="M3.5,177.674a3.5,3.5,0,1,1,3.5-3.5A3.507,3.507,0,0,1,3.5,177.674Zm0-5.693a2.189,2.189,0,1,0,2.19,2.189A2.192,2.192,0,0,0,3.5,171.982Zm0,0" transform="translate(0 -163.661)" fill="#7dc7c5"/>
  <path id="Trazado_1819" data-name="Trazado 1819" d="M115.225,96.6a.876.876,0,0,1-.434-1.637l8.127-4.633a.876.876,0,1,1,.867,1.522l-8.127,4.633A.87.87,0,0,1,115.225,96.6Zm0,0" transform="translate(-109.654 -86.511)" fill="#7dc7c5"/>
  <path id="Trazado_1820" data-name="Trazado 1820" d="M123.373,272.6a.87.87,0,0,1-.433-.115l-8.127-4.633a.876.876,0,0,1,.867-1.522l8.127,4.633a.876.876,0,0,1-.434,1.637Zm0,0" transform="translate(-109.676 -255.289)" fill="#7dc7c5"/>
</svg>
