<?xml version="1.0" encoding="utf-8"?>
<!-- Generator: Adobe Illustrator 24.1.0, SVG Export Plug-In . SVG Version: 6.00 Build 0)  -->
<svg version="1.1" id="Capa_1" xmlns="http://www.w3.org/2000/svg" xmlns:xlink="http://www.w3.org/1999/xlink" x="0px" y="0px"
	 viewBox="0 0 1080 1080" style="enable-background:new 0 0 1080 1080;" xml:space="preserve">
<style type="text/css">
	.st0{fill:#FFFFFF;stroke:#FFFFFF;stroke-width:10;stroke-miterlimit:10;}
</style>
<path class="st0" d="M1028.5,560.8c0-30-24.3-54.4-54.4-54.4c0,0-0.1,0-0.1,0h-51.5c-7.9,0.2-14.2,6.8-13.9,14.7
	c0.2,7.6,6.3,13.7,13.9,13.9H974c14.2,0.3,25.6,12.1,25.3,26.3c-0.3,13.8-11.4,25-25.3,25.3H800.7c-94.5,0-190.5-11.5-282.2-35.8
	l0,0c-11.5-2.9-24.4-5.7-35.8-10C424,523.5,365.2,502,310.8,474.8L213.4,429c-17.4-8.5-36.5-12.9-55.9-12.9H106
	c-14.2-0.3-25.6-12.1-25.3-26.3c0.3-13.8,11.4-25,25.3-25.3h51.6c14.3,0,30.1,2.9,43,10l97.4,45.8
	c156.1,74.5,329.5,113.2,502.8,113.2h53c7.9,0.2,14.5-6,14.7-13.9c0.2-7.9-6-14.5-13.9-14.7c-0.3,0-0.5,0-0.8,0h-53
	c-169,0-338.1-38.7-489.9-110.3l-97.4-45.8c-17.4-8.5-36.5-12.9-55.9-12.9H106C75.9,336.3,51.9,361,52.3,391
	c0.4,29.5,24.2,53.3,53.7,53.7h51.6c14.3,0,30.1,2.9,43,10l97.4,45.8c103.1,48.7,212,83.1,325.2,100.3
	c58.7,8.6,118.9,14.3,177.6,14.3H954L919.6,747c-20.1,78.8-91.7,133.2-171.9,133.2H411.1C285,880.2,180.4,790,159,666.8l-28.6-169
	c-1.7-7.9-9.5-12.9-17.3-11.2c-7.7,1.7-12.8,9.2-11.3,17l28.7,169c11.5,65.9,45.8,126.1,96,170.5c51.6,43,116,67.3,183.4,67.3h338
	c94.5,0,176.2-63,200.5-154.7l37.2-140.4C1009.8,609.5,1028.5,586.6,1028.5,560.8z"/>
<path class="st0" d="M671.8,430.4c42.7,0,77.4-34.6,77.4-77.4c0-42.7-34.6-77.4-77.4-77.4c-42.7,0-77.4,34.6-77.4,77.4l0,0
	c-0.2,42.5,34.1,77.2,76.6,77.4C671.3,430.4,671.5,430.4,671.8,430.4z M671.8,302.9c26.9,0,48.7,21.8,48.7,48.7
	c0,26.9-21.8,48.7-48.7,48.7c-26.9,0-48.7-21.8-48.7-48.7c-0.2-26.7,21.2-48.5,47.9-48.7C671.2,302.9,671.5,302.9,671.8,302.9
	L671.8,302.9z"/>
<path class="st0" d="M551.5,275.7c28.7,0,53-24.4,53-53s-24.3-53-53-53s-53,24.4-53,53C498.5,252.8,521.4,275.7,551.5,275.7z
	 M551.5,199.8c12.9,0,24.3,11.5,24.3,24.4s-11.5,24.4-24.3,24.4s-24.4-11.5-24.4-24.4C527.1,209.8,537.1,199.8,551.5,199.8z"/>
</svg>
