<?xml version="1.0" encoding="utf-8"?>
<!-- Generator: Adobe Illustrator 24.1.0, SVG Export Plug-In . SVG Version: 6.00 Build 0)  -->
<svg version="1.1" id="Capa_1" xmlns="http://www.w3.org/2000/svg" xmlns:xlink="http://www.w3.org/1999/xlink" x="0px" y="0px"
	 viewBox="0 0 1080 1080" style="enable-background:new 0 0 1080 1080;" xml:space="preserve">
<style type="text/css">
	.st0{fill:#FFFFFF;stroke:#FFFFFF;stroke-width:5.29;stroke-miterlimit:10;}
</style>
<path class="st0" d="M687.1,415.4c5.1-5.1,3.9-12.9-1.3-18s-12.8-3.9-18,1.3c-6.4,7.7-16.7,7.7-23.1,0c-5.1-5.1-12.8-6.4-18-1.3
	s-6.4,12.9-1.3,18C642.1,434.7,670.4,434.7,687.1,415.4L687.1,415.4z"/>
<path class="st0" d="M653.7,175.2c-15.4,12.9-15.4,37.2,0,50.1c2.6,2.6,5.1,2.6,7.7,2.6c11.6,0,16.7-14.1,7.7-21.8
	c-3.8-2.6-3.8-9,0-11.6c15.4-12.9,15.4-37.2,0-50.1c-5.1-5.1-12.8-3.9-18,1.3s-3.9,12.8,1.3,18c1.8,1.6,2.7,4,2.6,6.4
	C656.3,173.9,653.7,175.1,653.7,175.2L653.7,175.2z"/>
<path class="st0" d="M309.4,452.6c-7.1,0-12.8,5.8-12.9,12.9V486c0,7.1,5.8,12.8,12.9,12.8c7.7,0,12.8-5.1,12.8-12.8v-20.5
	C322.3,458.4,316.5,452.7,309.4,452.6z"/>
<path class="st0" d="M224.6,367.9c38.5,0,70.7-32.1,70.7-70.6s-32.1-70.7-70.6-70.7S154,258.7,154,297.2S186.1,367.9,224.6,367.9z
	 M224.6,252.3c24.4,0,45,20.6,45,45s-20.6,45-45,45s-45-20.6-45-45S200.2,252.3,224.6,252.3z"/>
<path class="st0" d="M359.5,239.4c29.8,0,54-24.1,54-54c0-29.8-24.1-54-54-54c-29.8,0-54,24.1-54,54c0,0,0,0.1,0,0.1
	C305.6,216.3,330,239.4,359.5,239.4z M359.5,157.2c15.4,0,29.5,12.8,29.5,29.5c0.3,16.3-12.7,29.8-29,30.1
	c-16.3,0.3-29.8-12.7-30.1-29c0-0.4,0-0.7,0-1.1C331.3,170,344.1,157.2,359.5,157.2z"/>
<path class="st0" d="M855.4,614.5h-46.2C805.3,559.3,777,522,757.7,504c45-24.4,79.7-65.5,97.6-114.3c38.5,0,70.7-32.1,70.7-70.7
	s-32.1-70.6-70.7-70.6c-30.2-84-109.8-140-199.1-140c-91.2,0-169.6,59.1-199.1,140c-38.5,0-70.6,32.1-70.6,70.6s32.1,70.7,70.6,70.7
	c18,48.8,52.7,89.9,97.6,114.3c-12,12.3-22.4,26.1-30.8,41.1c-10.4-0.5-20.7,2.2-29.5,7.7c-20.6-29.5-46.2-41.1-64.2-47.5
	c-11.6-3.9-18-12.9-18-24.4l0,0c0.1-46-37.2-83.4-83.2-83.5c-0.1,0-0.2,0-0.3,0c-41.1,0-75.8,30.8-82.2,70.6H240
	c-22,0.3-39.5,18.5-39.2,40.5c0.3,21.5,17.7,38.9,39.2,39.2h6.4v66.8h-15.4c-38.9-0.1-70.5,31.3-70.6,70.2c0,0.1,0,0.3,0,0.4
	c0,36,27,65.5,60.4,70.7L243.9,856c15.4,66.8,75.8,115.6,145.1,115.6h308.3c69.5,0.2,129.8-47.9,145.2-115.6l23.1-100.2
	c34.7-5.1,60.4-34.7,60.4-70.7C926,646.6,893.9,614.5,855.4,614.5z M863.1,272.8c21.8,3.9,38.5,23.1,38.5,45
	c0,23.1-16.7,41.1-38.5,45c3.3-14.8,5.1-29.9,5.1-45C868.2,302.4,865.6,286.9,863.1,272.8z M449.4,364c-21.8-3.9-38.5-23.1-38.5-45
	c0-23.1,16.7-41.1,38.5-45C443,303.7,443,334.3,449.4,364z M476.4,367.9C443,249.7,532.9,131.5,656.2,131.5
	c84.8,0,156.8,56.5,178.6,134.9c34.7,119.5-55.2,236.4-177.3,237.6C571.5,505.3,498.2,446.2,476.4,367.9L476.4,367.9z M490.6,614.5
	c-6.4-20.6,10.3-45,33.4-45c24.4,0,41.1,24.4,33.4,45H490.6z M240.1,522c-7.8,0-14.1-6.3-14.1-14.1s6.3-14.1,14.1-14.1h6.4v29.6
	h-6.4V522z M270.9,480.9c-0.4-31.9,25.1-58.1,57-58.6c31.9-0.4,58.1,25.1,58.6,57c0,0.5,0,1,0,1.5l0,0c0,21.8,14.1,42.4,36,48.8
	c15.4,5.1,36,15.4,52.7,39.8c-9.1,13.1-12.8,29.2-10.3,45h-194L270.9,480.9z M855.4,731.4H389.1c-7.1,0.2-12.7,6.1-12.5,13.2
	c0.2,6.8,5.7,12.3,12.5,12.5h449.6l-21.8,93.8c-12.8,56.4-62.9,96.4-120.8,96.3H387.8c-57.8,0.1-108-39.9-120.8-96.3l-21.8-93.8
	h92.5c7.1,0.2,13-5.4,13.2-12.5c0.2-7.1-5.4-13-12.5-13.2c-0.2,0-0.5,0-0.7,0H229.8c-25.5,0.4-46.5-20-46.9-45.6s20-46.5,45.6-46.9
	c0.5,0,0.9,0,1.4,0h453.4c12.8,0,18-18,6.4-24.4c-5.1-2.6-2.6-1.3-105.3-1.3c3.8-24.4-9-52.7-33.4-64.2
	c10.3-16.7,21.8-29.5,29.5-34.7c50.1,19.3,105.3,19.3,154.1,0c12.8,11.6,45,45,50.1,98.9h-48.8c-7.1-0.2-13,5.4-13.2,12.5
	c-0.2,7.1,5.4,13,12.5,13.2c0.2,0,0.5,0,0.7,0h120.8c25.4-0.1,46.1,20.4,46.2,45.9c0,0.1,0,0.3,0,0.4
	C900.3,710.8,879.8,731.4,855.4,731.4L855.4,731.4z"/>
</svg>
