<?xml version="1.0" encoding="utf-8"?>
<!-- Generator: Adobe Illustrator 24.1.0, SVG Export Plug-In . SVG Version: 6.00 Build 0)  -->
<svg version="1.1" id="Capa_1" xmlns="http://www.w3.org/2000/svg" xmlns:xlink="http://www.w3.org/1999/xlink" x="0px" y="0px"
	 viewBox="0 0 1080 1080" style="enable-background:new 0 0 1080 1080;" xml:space="preserve">
<style type="text/css">
	.st0{fill:#FFFFFF;stroke:#FFFFFF;stroke-width:6;stroke-miterlimit:10;}
</style>
<path class="st0" d="M516.4,441.6c-6.3-3.1-15.8-1.6-18.9,6.3c-3.1,6.3-1.6,15.7,6.3,18.9c12.6,6.3,25.2,9.5,36.2,9.5
	c22,0,37.8-7.9,39.4-9.5c6.3-3.1,9.5-12.6,6.3-18.9s-12.6-9.5-18.9-6.3C563.6,441.6,540,454.2,516.4,441.6 M755.7,485.7l-274,133.8
	c-0.9,0-1.6,0.6-1.6,1.5c0,0,0,0,0,0.1l-155.8-97.6V362.9c0-119.1,96.6-215.7,215.7-215.7s215.7,96.6,215.7,215.7L755.7,485.7
	L755.7,485.7z M755.7,720.3c0,23.6-3.2,45.7-11,66.1l-237.7-148l247.2-121.2L755.7,720.3L755.7,720.3z M540,936
	c-69.3,0-130.7-33.1-170-83.4L609.3,736l126,78.7C698.6,889.1,622.9,936.1,540,936 M354.2,827.3c-18.9-31.5-28.3-69.3-28.3-107.1
	V558.1l256.6,159L354.2,827.3z M540,117.3c-135.4,0-244,110.2-244,244v357.4c0,135.4,110.2,244,244,244c135.4,0,244-110.2,244-244
	V361.3C785.6,227.5,675.4,117.3,540,117.3 M565.2,282.6c18.9-18.9,31.5-37.8,39.4-50.4c36.3,17.2,63.3,49.4,74,88.2
	C631.3,318.8,593.5,306.2,565.2,282.6 M684.8,362.9c0,80-64.9,144.9-144.8,144.9s-144.9-64.9-144.9-144.9c0-9.5,1.6-18.9,3.1-26.8
	c12.6,1.6,23.6,3.1,34.6,3.1c47.2,0,83.5-15.7,110.2-36.2c26.8,22,70.8,45.7,141.7,47.2V362.9 M540,218c12.2-0.1,24.4,1.5,36.2,4.7
	c-17.3,29.9-69.3,97.6-170,85C428.4,253.4,481.3,217.9,540,218 M540,188.1c-95.7,0-173.2,77.5-173.2,173.2S444.3,534.5,540,534.5
	c95.6,0,173.2-77.5,173.2-173.2C714.8,266.8,636,188.1,540,188.1"/>
</svg>
