<?xml version="1.0" encoding="utf-8"?>
<!-- Generator: Adobe Illustrator 24.1.0, SVG Export Plug-In . SVG Version: 6.00 Build 0)  -->
<svg version="1.1" id="Capa_1" xmlns="http://www.w3.org/2000/svg" xmlns:xlink="http://www.w3.org/1999/xlink" x="0px" y="0px"
	 viewBox="0 0 1080 1080" style="enable-background:new 0 0 1080 1080;" xml:space="preserve">
<style type="text/css">
	.st0{fill:#FFFFFF;stroke:#FFFFFF;stroke-width:13;stroke-miterlimit:10;}
</style>
<path class="st0" d="M260.3,740.4c2.9,0.1,5.8-1.2,7.7-3.4c5.5-4.4,6.7-13.3,2.2-18.9c-14.4-17.8-21.1-40-21.1-63.3
	c0-42.2,25.5-79.9,68.8-99.9l236.5-103.2c6.7-3.3,10-11.1,6.7-17.8s-11.1-10-17.8-6.7L306.9,531.7l0,0c-24.1,11-44.8,28.2-59.9,50
	c-15.3,21.8-23.4,47.7-23.3,74.3c0,28.9,10,56.6,27.8,79.9C252.5,739.3,256.9,740.4,260.3,740.4z"/>
<path class="st0" d="M596.6,658.2l-104.3,41.1c-6.7,2.2-10,11.1-7.8,17.8c2.2,5.5,6.7,8.9,12.2,8.9c1.1,0,3.3,0,4.4-1.1l104.4-41.1
	c6.7-2.2,10-11.1,7.8-17.8C612.2,659.3,603.3,656,596.6,658.2z"/>
<path class="st0" d="M483.4,767l-56.6-94.3c-3.3-6.7-12.2-8.9-18.9-4.5c-6.7,3.3-8.9,12.2-4.4,18.9l56.6,95.5l0,0
	c5.5,8.9,7.8,18.9,7.8,30c0.2,31.7-25.3,57.5-56.9,57.7c-0.3,0-0.5,0-0.8,0H231.4c-22.6,0-41-18.3-41.1-40.9c0-0.1,0-0.1,0-0.2
	c0-23.3,17.8-41.1,41.1-41.1h124.3c7.8,0,13.3-5.5,13.3-13.3s-5.5-13.3-13.3-13.3H231.4c-37.4-0.5-68.1,29.5-68.5,66.9
	c-0.5,37.4,29.5,68.1,66.9,68.5c0.5,0,1.1,0,1.6,0h178.7c47.2,0,85.5-38.3,85.5-85.5C495.6,795.9,491.2,781.4,483.4,767L483.4,767z"
	/>
<path class="st0" d="M805.3,815.9L805.3,815.9l-59.9-256.4c-2.2-7.8-8.9-12.2-16.7-10s-12.2,8.9-10,16.7l60,256.4l0,0
	c0,1.1,1.1,3.3,1.1,5.5c1.1,10-2.2,20-8.9,28.9c-6.7,7.8-15.5,13.3-26.6,14.4c-17.8,2.2-35.5-10-41.1-26.6l-1.1-5.5l0,0L646.6,616
	c-2.2-7.8-8.9-12.2-16.7-10s-12.2,8.9-10,16.7l55.5,223.1c3.4,15.7,12,29.8,24.4,40c11.1,8.9,25.5,13.3,40,13.3h6.7
	c17.8-2.2,33.3-10,44.4-23.3s16.7-31.1,14.4-47.7C806.4,821.4,806.4,819.2,805.3,815.9z"/>
<path class="st0" d="M903,285.2c-8.5-20.4-21-38.8-36.6-54.4c-15.5-15.5-34.4-27.8-54.4-36.6c-21.5-8.9-44.5-13.4-67.7-13.3
	c-23.2,0-46.2,4.5-67.7,13.3c-20.4,8.5-38.8,21-54.4,36.6c-15.5,15.5-27.8,34.4-36.6,54.4c-8.9,21.5-13.4,44.5-13.3,67.8
	c0,23.2,4.5,46.2,13.3,67.7c8.5,20.4,21,38.8,36.6,54.4c15.5,15.5,34.4,27.8,54.4,36.6c21.5,8.9,44.5,13.4,67.7,13.3
	c23.2,0,46.2-4.5,67.7-13.3c20.4-8.5,38.8-21,54.4-36.6c15.5-15.5,27.8-34.4,36.6-54.4c8.9-21.5,13.4-44.5,13.3-67.7
	C916.5,329.7,912,306.7,903,285.2z M743.2,497.2c-79.9,0-145.4-65.5-145.4-145.4s65.5-145.4,145.4-145.4s145.4,65.5,145.4,145.4
	c0.1,80.2-64.8,145.3-145,145.4C743.5,497.3,743.3,497.3,743.2,497.2L743.2,497.2z"/>
</svg>
