<?xml version="1.0" encoding="utf-8"?>
<!-- Generator: Adobe Illustrator 24.1.0, SVG Export Plug-In . SVG Version: 6.00 Build 0)  -->
<svg version="1.1" id="Capa_1" xmlns="http://www.w3.org/2000/svg" xmlns:xlink="http://www.w3.org/1999/xlink" x="0px" y="0px"
	 viewBox="0 0 1080 1080" style="enable-background:new 0 0 1080 1080;" xml:space="preserve">
<style type="text/css">
	.st0{fill:#FFFFFF;stroke:#FFFFFF;stroke-width:8;stroke-miterlimit:10;}
</style>
<path class="st0" d="M734.5,438.2l-17.9-17.9c16.4-6,26.8-22.4,26.8-40.2V322c0-23.9-19.4-43.2-43.2-43.2h-11.9
	c-14.9-37.3-41.7-67.1-76-85c-7.5-4.5-8.9-13.4-6-20.9c4.5-11.9,6-26.8,4.5-40.2c-4.5-31.3-31.3-56.6-62.6-59.6
	c-20.9-3-41.7,4.5-56.6,17.9c-15.2,13.7-23.9,33.2-23.9,53.6c0,10.4,1.5,19.4,6,28.3c3,7.4,0,16.4-6,19.4
	c-34.3,17.9-62.6,49.2-76,85h-11.9c-23.9,0-43.2,19.3-43.2,43.2v58.1c0,17.9,11.9,34.3,26.8,40.2l-17.9,17.9
	c-25.3,25.3-38.7,58.1-38.7,92.4v377c0,56.6,46.2,101.3,101.3,101.3h263.8c56.6,0,101.3-46.2,101.3-101.3v-374
	C773.2,496.4,758.3,463.6,734.5,438.2z M478.2,217.7c19.7-10.6,28.1-34.5,19.4-55.1c-3-6-3-11.9-3-17.9c0-13.4,6-25.3,14.9-34.3
	c10.4-8.9,22.3-11.9,35.8-10.4c19.4,3,35.8,17.9,38.7,37.2c1.5,8.9,0,16.4-3,25.3c-8.9,20.9-1.5,44.7,19.4,55.1
	c25.8,13.6,46.7,35,59.7,61.1H420C432,252,452.8,231.1,478.2,217.7z M361.9,322c0-8.2,6.7-14.9,14.9-14.9h321.9
	c8.2,0,14.9,6.7,14.9,14.9v58.1c0,8.2-6.7,14.9-14.9,14.9H375.3c-8.2,0-14.9-6.7-14.9-14.9L361.9,322L361.9,322z M744.9,909.2
	c0,41.7-32.8,74.5-74.5,74.5H406.6c-41.7,0-74.5-32.8-74.5-74.5v-44.7h59.6c7.4-0.2,13.3-6.4,13-13.8c-0.2-7.1-5.9-12.9-13-13h-59.6
	v-46.2h29.8c7.4,0,13.4-6,13.4-13.4c0-7.4-6-13.4-13.4-13.4h-29.8v-46.2h59.6c7.4,0,13.4-6,13.4-13.4c0-7.4-6-13.4-13.4-13.4h-59.6
	v-46.2h29.8c7.4-0.2,13.3-6.4,13-13.8c-0.2-7.1-5.9-12.9-13-13h-29.8v-46.2h59.6c7.4-0.2,13.3-6.4,13-13.8c-0.2-7.1-5.9-12.9-13-13
	h-59.6v-13.4c0-28.3,10.4-53.6,29.8-73l34.3-34.3h283.2l34.3,34.3c19.4,19.4,29.8,46.2,29.8,73L744.9,909.2L744.9,909.2z"/>
<path class="st0" d="M700.2,572.4c-7.4,0-13.4,5.9-13.4,13.3c0,0,0,0.1,0,0.1v190.8c0,7.4,6,13.4,13.4,13.4c7.4,0,13.4-6,13.4-13.4
	V585.8c0-7.4-5.9-13.4-13.3-13.4C700.3,572.4,700.2,572.4,700.2,572.4z"/>
<path class="st0" d="M673.4,480c-6,6-6,13.4,0,19.4c8.9,9,13.4,19.4,13.4,31.3c0,7.4,6,13.4,13.4,13.4c7.4,0,13.4-6,13.4-13.4
	c0.1-19-7.4-37.3-20.9-50.7C686.8,475.5,677.8,475.5,673.4,480z"/>
<path class="st0" d="M655.5,365.2h14.9c7.4,0,13.4-6,13.4-13.4s-6-13.4-13.4-13.4h-14.9c-7.4,0-13.4,5.9-13.4,13.3c0,0,0,0.1,0,0.1
	C642.1,357.8,648,365.2,655.5,365.2z"/>
<path class="st0" d="M494.5,365.2h102.8c7.4,0,13.4-6,13.4-13.4s-6-13.4-13.4-13.4H494.5c-7.4,0-13.4,5.9-13.4,13.3c0,0,0,0.1,0,0.1
	C481.1,357.8,487.1,365.2,494.5,365.2z"/>
</svg>
