<?xml version="1.0" encoding="utf-8"?>
<!-- Generator: Adobe Illustrator 24.1.0, SVG Export Plug-In . SVG Version: 6.00 Build 0)  -->
<svg version="1.1" id="Capa_1" xmlns="http://www.w3.org/2000/svg" xmlns:xlink="http://www.w3.org/1999/xlink" x="0px" y="0px"
	 viewBox="0 0 1080 1080" style="enable-background:new 0 0 1080 1080;" xml:space="preserve">
<style type="text/css">
	.st0{fill:#FFFFFF;}
</style>
<path class="st0" d="M672.2,805.2c-10.2,0-18.8-6.8-23.9-17c-3.4-10.2,0-20.5,6.8-27.3c8.5-6.8,20.5-8.5,29-1.7
	c8.8,5.3,13.5,15.4,11.9,25.6C694.4,796.6,684.2,805.3,672.2,805.2L672.2,805.2z"/>
<path class="st0" d="M540.9,921.2c-5.1,0-11.9-1.7-15.3-5.1c-11.9-10.2-312.1-262.6-371.8-353c-37.5-58-54.6-110.9-51.2-172.2
	C106,329,132.2,270.7,176,227.1c44.3-44.3,102.3-68.2,163.7-68.2c95.5,0,167.1,69.9,201.2,110.9c34-39.2,109.1-110.9,199.5-110.9
	c61.4,0,119.4,23.9,163.7,68.2c44.3,42.6,69.9,100.6,73.3,163.7c3.4,78.4-25.6,133-51.2,172.2C911,586.9,791.6,701.2,767.8,725
	c-10.2,8.5-25.6,8.5-34.1,0c-8.5-10.2-8.5-25.6,0-34.1c68.2-64.8,143.2-139.8,151.8-153.5c32.4-49.5,46-92.1,42.6-143.2
	C922.9,291.9,837.7,210,738.8,210S559.7,324.3,558,324.3c-8.5,11.3-24.5,13.6-35.8,5.1c-1.9-1.5-3.7-3.2-5.1-5.1
	c0-1.7-76.7-114.3-180.8-114.3c-98.9,0-184.2,83.6-189.3,184.2c-3.4,49.5,10.2,93.8,42.6,143.2c49.4,73.3,286.5,278,347.9,330.9
	l35.8-27.3c10.2-8.5,25.6-6.8,34.1,5.1c8.5,10.2,6.8,25.6-5.1,34.1l-51.2,39.2C547.8,920.5,544.4,921.1,540.9,921.2L540.9,921.2z"/>
</svg>
