<?xml version="1.0" encoding="utf-8"?>
<!-- Generator: Adobe Illustrator 24.1.0, SVG Export Plug-In . SVG Version: 6.00 Build 0)  -->
<svg version="1.1" id="Capa_1" xmlns="http://www.w3.org/2000/svg" xmlns:xlink="http://www.w3.org/1999/xlink" x="0px" y="0px"
	 viewBox="0 0 1080 1080" style="enable-background:new 0 0 1080 1080;" xml:space="preserve">
<style type="text/css">
	.st0{fill:#FFFFFF;}
</style>
<path class="st0" d="M896.6,301.5c-6.6,0-12.6-4-15.2-10.1c-2.5-6.3,0-13.9,5.1-19c5.5-4.2,13-4.7,19-1.3c6.3,3.8,8.9,10.1,7.6,17.7
	C911.8,295.2,904.2,301.5,896.6,301.5z"/>
<path class="st0" d="M732.2,961.9c-22.1,0-43.1-9.2-58.2-25.3c-15-16.1-22.7-37.5-21.5-59.5l22.8-354.2c0-5.1-1.3-11.4-5.1-15.2
	c-4-4.1-9.5-6.4-15.2-6.3h-17.7c-46.8,0-86-38-86-86V169.9c-0.1-13.8,5.3-27,15.2-36.7c10.1-10.1,22.8-15.2,36.7-13.9
	c27.8,1.3,48.1,24,48.1,51.9v120.2h30.4V171.2c-0.1-13.8,5.3-27,15.2-36.7c10.1-10.1,22.8-15.2,36.7-13.9
	c27.8,1.3,48.1,24,48.1,51.9v120.2h30.4V172.5c-0.4-27.9,21.9-50.9,49.9-51.3s50.9,21.9,51.3,49.9c0,0.5,0,0.9,0,1.4v41.8
	c0.2,9.1-7,16.6-16,16.9c-9.1,0.2-16.6-7-16.9-16c0-0.3,0-0.5,0-0.8v-41.8c-0.2-9.8-8.4-17.5-18.1-17.3c-9.5,0.2-17.1,7.8-17.3,17.3
	v136.6c-0.2,9-7.4,16.3-16.5,16.5H765c-9-0.2-16.3-7.4-16.5-16.5V172.5c0-9.5-7-17.6-16.5-19c-5.1,0-8.9,1.3-12.7,5.1
	s-5.1,7.6-5.1,12.6v136.7c-0.2,9-7.4,16.3-16.4,16.4h-63.3c-9-0.2-16.3-7.4-16.5-16.4V171.2c0-9.5-7-17.6-16.4-19
	c-5.1,0-8.9,1.3-12.7,5.1s-5.1,7.6-5.1,12.6v244.2c0.2,29.3,23.9,53,53.1,53.1H655c14.7,0.1,28.8,6,39.2,16.5
	c10.1,10.1,15.2,25.3,13.9,40.5l-22.8,354.2c-1.3,12.7,3.8,25.3,12.7,35.4c17,18.9,46.1,20.4,65,3.4c1.2-1.1,2.3-2.2,3.4-3.4
	c8.9-10.1,13.9-21.5,12.7-35.4l-22.8-354.2c-1.3-15.2,3.8-29.1,13.9-40.5c10.4-10.5,24.5-16.4,39.2-16.5H827
	c29.3-0.2,53-23.9,53.1-53.1v-55.7c-0.2-9.1,7-16.6,16-16.9c9.1-0.2,16.6,7,16.9,16c0,0.3,0,0.5,0,0.8v55.7c0,46.8-38,86-86,86
	h-17.7c-5.7,0-11.2,2.2-15.2,6.3c-3.8,3.8-6.3,10.1-5.1,15.2l22.8,354.2c1.3,21.5-6.3,44.3-21.5,59.5
	C775.2,951.8,754.9,961.9,732.2,961.9L732.2,961.9z"/>
<path class="st0" d="M261.5,415.4c-7.3-0.1-13.8-4.6-16.4-11.4c-5.1-16.8-7.6-34.3-7.6-51.9c0-40.5,12.6-78.4,34.2-106.3
	c5.7-6.9,15.9-7.8,22.8-2.1c6.7,5.6,7.8,15.4,2.5,22.3c-17.7,21.5-27.8,53.1-27.8,86c0,15.2,2.5,29.1,6.3,43
	c2.5,8.6-2.4,17.6-11,20.2c-0.1,0-0.3,0.1-0.4,0.1H261.5z"/>
<path class="st0" d="M343.7,961.9c-22.1,0-43.1-9.2-58.2-25.3c-15-16.1-22.7-37.5-21.5-59.5l19-322.6c0-8.9-3.8-16.5-12.6-20.2
	c-32.9-15.2-58.2-35.4-74.6-60.7c-19-27.8-29.1-64.5-29.1-106.3c0-58.2,17.7-118.9,49.3-167c35.4-53.1,79.7-82.2,127.8-82.2
	c46.8,0,92.4,29.1,127.8,82.2c31.6,48.1,49.3,108.8,49.3,167c0,41.8-10.1,77.2-29.1,106.3c-17.7,25.3-43,45.5-74.6,60.7
	c-7.7,3.8-12.6,11.6-12.6,20.2l19,322.6c1.3,21.5-6.3,44.3-21.5,59.5S365.3,961.9,343.7,961.9L343.7,961.9z M343.7,150.9
	c-35.4,0-72.1,24-100,67s-44.3,98.7-44.3,149.3c0,67.1,26.6,110.1,84.8,135.4c20.2,8.9,32.9,30.4,31.6,51.9l-19,322.6
	c-1.3,12.7,3.8,25.3,12.6,35.4c17,18.9,46.1,20.4,65,3.4c1.2-1.1,2.3-2.2,3.4-3.4c8.9-10.1,13.9-21.5,12.6-35.4l-19-322.6
	c-1.3-21.5,11.4-43,31.6-51.9c58.3-26.5,84.9-69.5,84.9-135.3c0-50.6-16.5-106.3-44.3-149.3C414.6,175,379.2,151,343.7,150.9
	L343.7,150.9z"/>
</svg>
