<?xml version="1.0" encoding="utf-8"?>
<!-- Generator: Adobe Illustrator 24.1.0, SVG Export Plug-In . SVG Version: 6.00 Build 0)  -->
<svg version="1.1" id="Capa_1" xmlns="http://www.w3.org/2000/svg" xmlns:xlink="http://www.w3.org/1999/xlink" x="0px" y="0px"
	 viewBox="0 0 1080 1080" style="enable-background:new 0 0 1080 1080;" xml:space="preserve">
<style type="text/css">
	.st0{fill:#FFFFFF;}
</style>
<path class="st0" d="M791.6,216.1h-35.4v-36.9c0-39.8-32.5-70.8-72.3-70.8c-5.9,0-10.3,1.5-16.2,3L284,217.6
	c-38.4,1.5-67.9,32.5-67.9,70.8v610.9c0.1,39.9,32.4,72.2,72.3,72.3h503.2c39.9-0.1,72.2-32.4,72.3-72.3V288.4
	C863.8,248.5,831.5,216.2,791.6,216.1z M676.5,145.3c20.7-5.9,42.8,11.8,42.8,33.9v36.9H419.7L676.5,145.3z M827,899.3
	c0,19.2-16.2,35.4-35.4,35.4H288.4c-19.2,0-35.4-16.2-35.4-35.4V288.4c0-19.2,16.2-35.4,35.4-35.4h503.2c19.2,0,35.4,16.2,35.4,35.4
	L827,899.3z"/>
<path class="st0" d="M657.3,589.4c-10.3,3-19.2,4.4-26.6,4.4c-59,0-107.7-48.7-107.7-107.7c0-8.9,1.5-16.2,4.4-26.6
	c1.5-5.9,0-13.3-4.4-17.7s-11.8-5.9-17.7-4.4c-63.3,16.3-107.6,73.3-107.7,138.7c0,79.7,64.9,143.1,143.1,143.1
	c65.4-0.1,122.4-44.4,138.7-107.7c1.5-5.9,0-13.3-4.4-17.7C669.1,590.9,663.2,588,657.3,589.4z M540.7,683.9
	c-59,0-107.7-48.7-107.7-107.7c0-38.6,20.9-74.2,54.6-93v3c0,79.7,66.4,146.1,147.6,143.1C614.5,663.2,579.1,683.9,540.7,683.9z"/>
</svg>
