<?xml version="1.0" encoding="utf-8"?>
<!-- Generator: Adobe Illustrator 24.1.0, SVG Export Plug-In . SVG Version: 6.00 Build 0)  -->
<svg version="1.1" id="Capa_1" xmlns="http://www.w3.org/2000/svg" xmlns:xlink="http://www.w3.org/1999/xlink" x="0px" y="0px"
	 viewBox="0 0 1080 1080" style="enable-background:new 0 0 1080 1080;" xml:space="preserve">
<style type="text/css">
	.st0{fill:#FFFFFF;}
</style>
<path class="st0" d="M761.4,410.9L641.2,105.2c-7.2-15.9-24.6-24.6-42-17.4L293.5,208.1c-15.9,5.8-24.6,24.6-17.4,42l120.2,305.7
	c5.8,15.9,24.6,24.6,42,17.4l304.2-120.2C760,445.7,767.2,428.3,761.4,410.9z M429.7,537L312.3,240l297-117.3l117.3,297L429.7,537z"
	/>
<path class="st0" d="M465.9,603.6H138.5c-17.5,0.2-31.7,14.3-31.9,31.9v327.4c0.2,17.5,14.3,31.7,31.9,31.9h327.4
	c17.5-0.2,31.7-14.3,31.9-31.9V635.5C497.6,617.9,483.4,603.7,465.9,603.6z M461.5,958.5H142.8V639.8h318.7L461.5,958.5z"/>
<path class="st0" d="M949.7,600.7l-315.8-84c-17.1-4.5-34.6,5.8-39,22.9c0,0.1,0,0.2-0.1,0.3l-84,315.8c-4.5,17.1,5.8,34.5,22.8,39
	c0.1,0,0.3,0.1,0.4,0.1l0,0l315.8,84c17.1,4.5,34.5-5.7,39-22.8c0-0.1,0.1-0.3,0.1-0.4l0,0l84-317.2
	C975.8,623.9,965.7,606.5,949.7,600.7z M854.1,942.6l-308.6-81.1l82.6-308.6l308.6,82.6L854.1,942.6z"/>
<path class="st0" d="M626.7,366c-3.1-6.2-7.5-11.7-13-15.9l-89.8-94.2l-10.1-11.6c-2.9-2.9-5.8-5.8-8.7-7.2
	c-2.9-2.9-7.2-2.9-10.1-4.4c-8.7,0-18.8,2.9-24.6,10.1c-2.6,2.7-4.2,6.3-4.4,10.1c-1.5,4.4-1.5,8.7-1.5,13v143.5
	c0,5.8,0,10.1,1.5,13c0,2.9,0,5.8,1.5,7.2c1.5,4.3,5.8,7.2,10.1,8.7c4.2,1.4,8.8,1.4,13,0c4.4-1.5,8.7-4.4,10.1-8.7
	c1.5-7.2,1.5-14.5,1.5-21.7v-26l71-27.5l17.4,17.4l7.2,7.2c2.9,2.9,4.3,4.3,7.2,5.8c1.5,1.5,4.3,1.5,7.2,1.5s5.8,0,7.2-1.5
	c4.3-1.5,7.2-4.4,10.1-8.7C628.1,374.7,628.1,370.4,626.7,366z M497.7,353l-2.9-81.1l55,60.9L497.7,353z"/>
<path class="st0" d="M347.1,784.7c17.4-5.8,29-23.2,27.5-40.6c0-5.8-1.5-10.1-2.9-15.9c-1.5-4.3-4.3-10.1-7.2-13
	c-2.9-4.3-7.2-7.2-11.6-10.1c-5.8-2.9-11.6-5.8-17.4-5.8c-7.2-1.5-15.9-1.5-23.2-1.5h-59.4c-5.8,0-13,1.5-17.4,5.8
	s-5.8,11.6-5.8,17.4v140.5c0,5.8,1.4,13,5.8,17.4s11.6,5.8,18.8,5.8h57.9c8.3-0.2,16.5-1.1,24.6-2.9c7.2-1.5,13-2.9,20.3-4.3
	c8.4-4.1,15.9-10.1,21.8-17.4c5.7-8.6,8.7-18.7,8.7-29C384.8,807.8,368.8,789,347.1,784.7z M267.4,725.3h30.4
	c10.3,0,20.5,1.5,30.4,4.3c7.2,2.9,10.1,10.1,10.1,17.4c-0.1,4-1.1,8-2.9,11.6c-2.9,4.3-7.2,8.7-11.6,10.1
	c-7.2,1.5-14.5,2.9-21.7,2.9h-34.8L267.4,725.3z M345.6,828.1c0,18.8-13,27.5-39.1,27.5H266l1.5-55h39.1c10.4-0.2,20.8,1.8,30.4,5.8
	C342.7,812.2,347.1,819.4,345.6,828.1L345.6,828.1z"/>
<path class="st0" d="M830.9,694.8c-4.2-11.6-11.8-21.7-21.7-29c-10.1-8.7-23.2-14.5-36.2-17.4c-11.6-2.9-23.2-4.3-36.2-2.9
	c-11.6,1.5-23.2,5.8-33.3,11.6s-18.8,14.5-26.1,24.6c-7.2,11.8-13.1,24.5-17.4,37.7c-2.9,8.4-4.3,17.2-4.3,26.1
	c0,8.7,0,15.9,1.5,24.6c1.5,7.2,4.3,14.5,7.2,21.7s8.7,14.5,13,20.3c5.6,5.6,12,10.5,18.8,14.5c7.9,4,16.2,7.4,24.6,10.1
	c11.6,2.9,23.2,4.3,34.8,2.9c10.1-1.5,18.8-4.3,27.5-10.1c6.8-4.1,12.7-9.6,17.4-15.9c4-5.2,7-11.1,8.7-17.4c1.5-4.3,0-8.7-1.5-13
	c-2.9-4.3-5.8-5.8-10.1-7.2s-8.7-1.5-13,1.5c-3.2,3.1-6.2,6.5-8.7,10.1c-5.8,8.7-13,14.5-23.2,17.4c-8.7,2.9-18.8,2.9-29,0
	c-8.7-1.4-15.9-5.8-23.2-11.6c-5.8-7.2-10.1-15.9-11.6-24.6c-1.5-11.6,0-24.6,2.9-36.2c2.9-17.4,13-34.8,26.1-46.3
	c11.5-8.8,26.7-11.5,40.6-7.2c8.6,1.4,16.4,6.1,21.7,13c5.8,7.2,10.1,15.9,11.6,24.6c1.4,4.3,2.9,8.7,4.3,13
	c2.9,2.9,5.8,5.8,10.1,5.8c4.3,1.5,8.7,0,11.6-1.5c4.3-2.9,5.8-5.8,7.2-10.1C835.3,713.7,833.8,703.5,830.9,694.8z"/>
</svg>
