<?xml version="1.0" encoding="utf-8"?>
<!-- Generator: Adobe Illustrator 24.1.0, SVG Export Plug-In . SVG Version: 6.00 Build 0)  -->
<svg version="1.1" id="Capa_1" xmlns="http://www.w3.org/2000/svg" xmlns:xlink="http://www.w3.org/1999/xlink" x="0px" y="0px"
	 viewBox="0 0 1080 1080" style="enable-background:new 0 0 1080 1080;" xml:space="preserve">
<style type="text/css">
	.st0{fill:#FFFFFF;stroke:#FFFFFF;stroke-width:10.37;stroke-miterlimit:10;}
</style>
<path class="st0" d="M587.1,133.6c-68.1,4-130.9,69.4-132.2,128.2C519,257.8,580.5,199,587.1,133.6z M631.2,134.9
	c-5.3,57.4,76.1,140.2,130.9,133.6C754.1,200.4,696.7,141.6,631.2,134.9z M452.2,295.2c1.3,81.5,73.5,149.6,156.2,148.2
	c92.2-1.3,150.9-74.8,153.6-141.6c-34.7-4-65.4-16-93.5-37.4s-46.7-48.1-61.4-81.5c-14,30.7-35.6,57.4-62.8,77.5
	C516.4,280.5,485.6,292.5,452.2,295.2L452.2,295.2z M417.5,296.5C350.8,297.9,285.3,362,280,435.4h68.1v30.7H247.9
	c-2.7-52.1,10.7-97.5,44.1-136.2c33.4-40.1,77.5-60.1,129.5-65.4c9.4-54.8,34.7-98.8,80.1-129.6c37.4-25.4,80.1-37.4,125.5-32
	C730,113.6,798.2,199,795.5,293.9c-2.7,100.1-76.1,170.9-164.3,181.6C527,486.2,429.5,415.4,417.5,296.5L417.5,296.5z"/>
<path class="st0" d="M320,742.6c-12,4-22.7,6.7-33.4,10.7c-41.4,13.3-64.1,42.7-68.1,84.1c-5.4,38.7,12,70.8,44.1,92.2
	c33.4,21.4,69.4,22.7,105.5,1.3c70.8-41.4,140.2-84.1,211-126.9l12-8c-44.1-36.1-54.8-60.1-58.8-124.2
	c-61.4,20-121.5,40.1-181.6,60.1c10.7,40.1,33.4,70.8,57.4,98.8l-20,24C356.1,821.4,333.4,786.6,320,742.6z M312,711.9
	c-13.4-93.5,10.7-173.6,77.5-243.1c6.7,8,12,16,18.7,25.4c-24,25.4-44.1,56.1-56.1,93.5c-10.7,37.4-16,73.5-8,113.5
	c6.7-2.7,13.4-4,18.7-5.3c58.8-20,117.5-38.7,177.6-58.8c5.3-1.3,13.3-1.3,17.4,1.3c6.7,5.3,16,10.7,12,24
	c-12,48.1,8,90.8,52.1,113.5c12,6.7,9.3,16,10.7,25.4c0,4-4,10.7-8,13.4c-81.5,49.5-162.9,100.2-245.7,148.3
	c-70.8,40.1-172.3,0-189.6-94.8c-10.7-61.4,28.1-129.5,90.8-144.2C289.3,719.9,300,715.9,312,711.9z"/>
<path class="st0" d="M714,565c-54.5-0.1-98.7,43.9-98.8,98.4c0,0.2,0,0.3,0,0.5c0,54.8,45.4,100.2,100.2,98.8s98.8-45.4,98.8-100.2
	C812.8,609,768.8,565,714,565z M711.3,794.7c-69.4,0-129.5-60.1-128.2-130.9c0-72.1,60.1-130.9,133.5-130.9
	c70.8,0,130.9,61.4,129.5,130.9C844.9,737.2,784.8,794.7,711.3,794.7L711.3,794.7z"/>
<path class="st0" d="M812.8,854.8c-6.7-8-13.3-14.7-20-21.4c92.2-113.5,92.2-227,0-341.9l20-20C910.3,559.6,927.7,739.9,812.8,854.8
	z"/>
</svg>
