<?xml version="1.0" encoding="utf-8"?>
<!-- Generator: Adobe Illustrator 24.1.0, SVG Export Plug-In . SVG Version: 6.00 Build 0)  -->
<svg version="1.1" id="Capa_1" xmlns="http://www.w3.org/2000/svg" xmlns:xlink="http://www.w3.org/1999/xlink" x="0px" y="0px"
	 viewBox="0 0 1080 1080" style="enable-background:new 0 0 1080 1080;" xml:space="preserve">
<style type="text/css">
	.st0{fill:#FFFFFF;stroke:#FFFFFF;stroke-width:9;stroke-miterlimit:10;}
</style>
<path class="st0" d="M749.3,782.9c-5.9-4.7-14.2-10.6-24.8-14.2c5.9-4.7,11.8-9.4,16.5-15.3c23.6-30.7,13-73.1,11.8-75.5
	c-1.2-3.5-4.7-7.1-8.2-7.1c-2.4,0-59-3.5-87.2,77.8l-8.3-30.7c-1.4-5.1-6.6-8.3-11.8-7c-4.7,1.2-8.2,7.1-7.1,11.8l11.8,47.1
	c-34.2-15.3-64.8-13-84.9,7.1c-23.6,23.6-28.3,68.4-10.6,106.1c20,40.1,59,62.5,108.5,62.5c9.4,0,20-1.2,30.7-2.4
	c40.1-7.1,70.8-34.2,81.4-71.9C778.8,837.1,770.5,802.9,749.3,782.9z M736.3,689.7c1.2,11.8,2.4,34.2-10.6,50.7
	c-10.6,14.2-28.3,21.2-53.1,22.4C690.3,703.9,722.2,692.1,736.3,689.7L736.3,689.7z M751.6,864.2c-9.4,30.7-34.2,53.1-67.2,59
	c-79,13-109.7-30.7-119.1-49.5c-14.2-29.5-11.8-64.8,7.1-83.7c8.3-8.2,18.9-11.8,30.7-11.8c14.2,0,29.5,4.7,47.2,14.2
	c2.6,1.2,5.6,1.2,8.3,0c34.2-14.2,62.5-13,80.2,3.5C752.8,812.4,758.7,838.3,751.6,864.2L751.6,864.2z"/>
<path class="st0" d="M491.1,977.4h-76.6c-4.7,0-9.4,4.7-9.4,9.4c-0.1,5.1,4,9.4,9.2,9.4c0.1,0,0.2,0,0.3,0h75.5
	c4.7,0,9.4-4.7,9.4-9.4C500.5,982.2,495.8,977.4,491.1,977.4z"/>
<path class="st0" d="M333.1,966.8c-47.2-22.4-64.9-87.2-61.3-138l0,0l3.5-287.7c0-2.4-1.2-4.7-2.4-7.1s-4.7-2.3-7.1-2.3h-76.6
	c-4.7,0-9.4,4.7-9.4,9.4c-0.1,5.1,4,9.4,9.2,9.4c0.1,0,0.2,0,0.3,0h67.2l-3.5,278.3c-3.5,56.6,16.5,129.7,71.9,155.6
	c0.9,0.9,2.2,1.3,3.5,1.2c3.7,0,7-2.4,8.2-5.9C339,975.1,337.8,969.2,333.1,966.8z"/>
<path class="st0" d="M652.6,977.4h-75.5c-4.7,0-9.4,4.7-9.4,9.4c-0.1,5.1,4,9.4,9.2,9.4c0.1,0,0.2,0,0.3,0h75.5
	c4.7,0,9.4-4.7,9.4-9.4c0.1-5.1-4-9.4-9.2-9.4C652.8,977.4,652.7,977.4,652.6,977.4z"/>
<path class="st0" d="M889.6,530.6H813c-2.4,0-4.7,1.2-7.1,2.4c-1.2,2.3-2.4,4.7-2.4,7.1l3.5,288.9c0,1.2,7.1,114.4-70.8,141.5
	c-4.7,1.2-7.1,7.1-5.9,11.8c1.3,4.1,5.1,6.9,9.4,7.1h3.5c92-31.8,83.7-155.6,83.7-160.3l-3.5-278.3h67.2c4.7,0,9.4-4.7,9.4-9.4
	C899,535.3,894.3,530.6,889.6,530.6z"/>
<path class="st0" d="M535.9,299.5c-23.6,0-40.1-8.3-49.5-24.8c-30.6-53.1,29.5-173.3,36.6-186.3c1.2-3.5,4.7-4.7,8.3-4.7
	s7.1,1.2,8.2,4.7c8.2,14.2,74.3,134.4,44.8,187.5C574.8,291.2,558.3,299.5,535.9,299.5z M531.2,113.2
	c-18.9,42.5-47.2,119.1-28.3,152.1c5.9,10.6,16.5,15.3,33,15.3s25.9-4.7,31.8-14.1C585.4,232.3,553.6,154.4,531.2,113.2z"/>
<path class="st0" d="M356.7,398.5c-23.6,0-40.1-8.3-49.5-24.8C280,325.4,337.8,224,343.7,213.4c1.2-2.4,4.7-4.7,8.2-4.7
	s5.9,1.2,8.2,4.7c7.1,11.8,70.8,113.2,44.8,161.5C396.7,390.3,381.4,398.5,356.7,398.5z M353.1,237c-17.7,35.4-44.8,99-29.5,127.3
	c5.9,9.4,16.5,15.3,33,15.3s27.1-4.7,31.8-14.1C403.8,337.2,373.2,271.2,353.1,237z"/>
<path class="st0" d="M713.9,382c-20,0-34.2-7.1-42.4-21.2c-23.6-41.3,24.8-128.5,30.7-137.9c1.2-2.4,4.7-4.7,8.2-4.7
	s5.9,1.2,8.3,4.7c5.9,9.4,59,97.9,37.7,139.1C746.9,374.9,734,382,713.9,382z M710.4,247.6C695,277.1,675,329,688,351.4
	c4.7,8.2,13,11.8,25.9,11.8c18.9,0,23.6-8.2,24.8-10.6C749.3,331.3,729.2,281.8,710.4,247.6L710.4,247.6z"/>
<path class="st0" d="M518.2,799.4c-8.3-33-33-57.8-61.3-63.7c-7.1-1.2-17.7-2.3-29.5,1.2c3.5-7.1,5.9-14.2,5.9-22.4
	c4.7-38.9-25.9-69.6-27.1-70.7c-2.4-2.4-7.1-3.5-10.6-1.2c-2.4,1.2-53.1,28.3-35.4,113.2l-22.4-21.2c-3.6-3.6-9.4-3.6-13,0
	c-3.5,3.5-3.5,9.4,0,14.1l34.2,33c-36.5,5.9-61.3,24.8-68.4,51.9c-8.2,33,10.6,73.1,44.8,95.5c16.5,10.7,35.7,16.5,55.4,16.5
	c30.7,0,63.7-14.2,93.1-40.1C515.8,877.2,528.8,838.3,518.2,799.4z M399.1,663.8c7.1,9.4,18.9,27.1,16.5,48.3
	c-2.4,17.7-13,33-34.2,48.3C366.1,700.3,388.5,673.2,399.1,663.8z M472.2,890.2c-61.3,54.2-108.5,34.2-126.2,22.4
	c-27.1-17.7-42.4-49.5-36.5-74.3c5.9-23.6,29.5-37.7,67.2-40.1c2.4,0,5.9-1.2,7.1-3.5c18.9-27.1,40.1-41.3,61.3-41.3
	c2.4,0,5.9,0,8.2,1.2c21.2,4.7,40.1,23.6,46,49.5C508.8,835.9,498.1,867.8,472.2,890.2z"/>
<path class="st0" d="M645.5,543.5c-5.9-4.7-14.2-10.6-24.8-14.2c5.9-4.7,11.8-9.4,16.5-15.3c23.6-30.6,13-73.1,11.8-75.5
	c-1.2-3.5-4.7-7.1-8.2-7.1c-2.4,0-59-4.7-87.2,76.6l-8.2-30.7c-1.3-5.2-6.6-8.3-11.8-7.1c-4.7,1.2-8.3,7.1-7.1,11.8l11.8,47.2
	c-34.2-15.3-64.9-13-84.9,8.2c-23.6,23.6-28.3,68.4-10.6,106.1c20,40.1,59,62.5,108.5,62.5c9.4,0,20-1.2,30.7-2.4
	c40.1-7.1,70.7-34.2,81.3-71.9C673.8,597.8,666.8,563.6,645.5,543.5z M632.5,451.5c1.2,11.8,2.3,34.2-10.6,50.7
	c-10.6,14.2-28.3,21.2-53,22.4C585.4,464.5,618.4,452.8,632.5,451.5L632.5,451.5z M646.7,624.9c-9.4,30.7-34.2,53.1-67.2,57.8
	c-79,13-109.6-30.7-119.1-49.5c-14.1-29.5-11.8-64.8,7.1-82.5c8.2-8.2,18.9-11.8,30.6-11.8c13,0,29.5,4.7,46,14.2
	c2.6,1.2,5.6,1.2,8.2,0c34.2-14.2,61.3-13,79,3.5S653.8,599,646.7,624.9L646.7,624.9z"/>
</svg>
