<?xml version="1.0" encoding="utf-8"?>
<!-- Generator: Adobe Illustrator 24.1.0, SVG Export Plug-In . SVG Version: 6.00 Build 0)  -->
<svg version="1.1" id="Capa_1" xmlns="http://www.w3.org/2000/svg" xmlns:xlink="http://www.w3.org/1999/xlink" x="0px" y="0px"
	 viewBox="0 0 1080 1080" style="enable-background:new 0 0 1080 1080;" xml:space="preserve">
<style type="text/css">
	.st0{fill:#FFFFFF;stroke:#FFFFFF;stroke-width:4;stroke-miterlimit:10;}
</style>
<path class="st0" d="M601.8,533.2c5.6,0.2,11-2,15-6l67.1-67.1c8-8.4,8-21.6,0-30.1l-27-27.1c-8.4-8-21.6-8-30.1,0l-67.1,67.1
	c-8,8.4-8,21.6,0,30l27,27.1C590.7,531.2,596.1,533.4,601.8,533.2z M641.8,423l22,22l-29,29l-22-22L641.8,423z M595.7,469.1l22,22
	l-16,17l-22-22L595.7,469.1z"/>
<path class="st0" d="M959.5,284.7c-3-41.1-20-79.1-49.1-108.2s-67.1-46.1-108.2-49.1c-39.1-3-77.2,8-109.2,30.1
	c-11.8-3.1-24.4,0.4-33.1,9c-8.8,8.6-12.2,21.2-9,33.1c-18,25-28.1,55.1-30.1,86.2L226,743.6c-9,11-9,27,1,37.1l30.1,30.1l-19,19
	c-14.7,15-14.7,39.1,0,54.1l13,13c7.2,7.2,7.2,18.9,0,26.1c-7.2,7.2-18.9,7.2-26.1,0l-47.1-47.1c-14.8-14.9-38.9-15-53.9-0.2
	c-0.1,0.1-0.2,0.2-0.2,0.2c-5,5-5,13,0,17c5,5,13,5,17,0c5-5,14-5,20,0L208,940c8,8,19,13,30.1,13s22-4,30.1-13
	c16.9-16.7,17-43.9,0.3-60.8c-0.1-0.1-0.2-0.2-0.3-0.3l-13-13c-5-5-5-14,0-20l19-19l31.1,31.1c5,5,11.9,7.9,19,8c6,0,13-2,18-7
	l101.2-87.2c4.7-4.8,4.6-12.4-0.2-17.1c-4.3-4.2-11.1-4.6-15.8-0.9l-55.1,48.1l-89.2-89.2l349.7-405.9l40.1,40.1c2,2,6,4,9,4
	c3.4,0,6.7-1.5,9-4c5-5,5-13,0-17l-45.1-45.1c2-23,9-45.1,21-64.1L866.3,420c-19,12-41.1,19-64.1,21L734,372.9c-5-5-13-5-17,0
	c-5,5-5,13,0,17l63.1,63.1L475.5,715.6c-4.9,4-5.7,11.3-1.7,16.2c0.2,0.3,0.5,0.5,0.7,0.8c2,3,6,4,9,4c3,0.1,5.8-1,8-3l311.7-268.5
	c30.9-1.9,60.8-12.3,86.2-30.1c2.9,0.8,6,1.2,9,1c9,0.1,17.7-3.5,24-10c8.6-8.7,12.1-21.2,9-33.1
	C951.3,361.9,962.4,323.8,959.5,284.7L959.5,284.7z M355.3,818.8l-27,23c-1.1,1-2.9,1-4,0l-79.2-79.2c-1-1.1-1-2.9,0-4l23-27
	L355.3,818.8z M903.3,409c-1.8,2-4.3,3.1-7,3c-2.6-0.1-5.1-1.2-7-3L676.9,196.6c-2-1.8-3.1-4.3-3-7c0.1-2.6,1.2-5.1,3-7
	c3.7-3.9,9.8-4,13.7-0.3c0.1,0.1,0.2,0.2,0.3,0.3l139.3,139.2c5,5,13,5,17,0c5-5,5-13,0-17L715,172.5c25-16,55.1-23,85.2-21
	c34.9,1.9,67.9,16.9,92.2,42.1c25,25.1,40.1,58.1,42.1,92.2c2,30-5,60.1-21,85.2l-25-25c-5-5-13-5-17,0c-5,5-5,13,0,17l31,31.1
	c2,1.8,3.1,4.3,3,7C906.3,405,905.3,407,903.3,409z"/>
</svg>
