<?xml version="1.0" encoding="utf-8"?>
<!-- Generator: Adobe Illustrator 24.1.0, SVG Export Plug-In . SVG Version: 6.00 Build 0)  -->
<svg version="1.1" id="Capa_1" xmlns="http://www.w3.org/2000/svg" xmlns:xlink="http://www.w3.org/1999/xlink" x="0px" y="0px"
	 viewBox="0 0 1080 1080" style="enable-background:new 0 0 1080 1080;" xml:space="preserve">
<style type="text/css">
	.st0{fill:#FFFFFF;stroke:#FFFFFF;stroke-width:10;stroke-miterlimit:10;}
	.st1{fill:#FFFFFF;stroke:#FFFFFF;stroke-width:8;stroke-miterlimit:10;}
</style>
<path class="st0" d="M974.8,661.1h-868c-8,0-14.6,6.5-14.6,14.5c0,0,0,0.1,0,0.1c0,173.9,141.4,313.7,313.7,313.7h269.8
	c173.9,0,313.7-141.4,313.7-313.7c0-8.1-6.5-14.6-14.5-14.6C974.9,661.1,974.9,661.1,974.8,661.1z M674.1,960.2H404.3
	c-151.2,0-276.3-120.3-284.5-269.8h838.8C950.4,841.6,826.9,960.2,674.1,960.2z"/>
<path class="st1" d="M854.5,301.9v-3.2c-1.6-24.4-19.5-45.5-42.3-53.6l16.2-16.2c29.3-29.2,32.5-74.8,6.5-107.3
	c-27.6-34.1-78-39-110.5-11.4l-4.8,4.9l-17.9,17.9c-8.1-22.8-27.6-39-53.6-42.3c-32.5-1.6-61.8,24.4-63.4,56.9v26
	c-8.9-5.1-19-7.9-29.3-8.1h-3.2c-32.5,3.3-56.9,30.9-56.9,61.8v21.1c-9.8-4.9-19.5-8.1-29.3-8.1h-3.2c-32.5,3.3-56.9,30.9-56.9,61.8
	v222.7c0,8,6.5,14.6,14.5,14.6c0,0,0.1,0,0.1,0h255.2c32.5,0,60.1-27.6,60.1-60.1c0-10.3-2.8-20.4-8.1-29.3h19.5
	c32.5,1.6,60.1-24.4,63.4-56.9c0-13-1.6-24.4-8.1-34.1c13.6-1.9,26.1-8.2,35.8-17.9C848,332.8,854.5,318.2,854.5,301.9z M815.5,323
	c-4.9,4.9-13,8.1-21.1,8.1h-45.5c-8.1,0-14.6,6.6-14.6,14.6s6.6,14.6,14.6,14.6h1.6c16.2,1.6,29.3,14.6,27.6,30.9
	s-16.2,29.2-32.5,29.2h-73.1c-8.1,0-14.6,6.6-14.6,14.6s6.6,14.6,14.6,14.6c16.2,0,29.3,13.1,29.2,29.3c0,16.1-13.1,29.2-29.2,29.2
	h-239V303.5c0-16.3,13-30.9,27.6-32.5h1.6c16.1-0.1,29.2,12.9,29.3,29c0,0.1,0,0.2,0,0.2l0,0c0,8,6.5,14.6,14.5,14.6
	c0,0,0.1,0,0.1,0l0,0c8,0,14.6-6.5,14.6-14.5c0,0,0-0.1,0-0.1l0,0v-73.1c0-16.2,13-30.9,27.6-32.5h1.6c16.1-0.1,29.2,12.9,29.3,29
	c0,0.1,0,0.2,0,0.3l0,0c0,8,6.5,14.6,14.5,14.6c0,0,0.1,0,0.1,0l0,0c8,0,14.6-6.5,14.6-14.5c0,0,0-0.1,0-0.1l0,0v-76.4
	c1.6-16.2,14.6-29.3,30.9-27.6s29.3,16.2,29.3,32.5v13c0,6.5,3.2,11.4,9.8,14.6c4.9,1.6,11.4,1.6,16.2-3.2l40.6-40.6l3.2-3.2
	c21.1-16.3,52-14.6,68.3,6.5c16.5,19.9,14.4,49.3-4.8,66.6l-39,39c-4.9,4.9-4.9,11.4-3.2,16.3s8.1,9.8,14.6,9.8h13
	c16.2,0,30.9,13,32.5,27.6v1.6C823.7,310,822,318.2,815.5,323L815.5,323z"/>
<rect x="241.4" y="391.4" transform="matrix(0.7071 -0.7071 0.7071 0.7071 -129.497 499.3927)" class="st1" width="593.3" height="29.3"/>
<rect x="644.8" y="212.5" class="st1" width="29.3" height="74.8"/>
<rect x="555.4" y="287.3" class="st1" width="29.3" height="89.4"/>
<rect x="464.4" y="362" class="st1" width="29.3" height="104"/>
<rect x="659.5" y="272.6" class="st1" width="74.8" height="29.3"/>
<rect x="570.1" y="362" class="st1" width="89.4" height="29.3"/>
<rect x="480.7" y="451.5" class="st1" width="104" height="29.3"/>
<path class="st1" d="M370.1,162.1L370.1,162.1c-21.1-32.5-63.4-40.6-95.9-19.5c-1.6,0-1.6,1.6-3.2,1.6l-4.9,4.9l-4.9-3.2
	c-27.6-26-69.9-24.4-95.9,3.2c-13,13-19.5,30.9-19.5,48.8s8.2,35.8,21.2,48.8c3.2,3.2,8.1,6.5,13,9.8l13,9.8v8.1
	c0,40.6,34.1,74.7,74.7,74.7s74.8-34.1,74.8-74.8v-8.1l13-9.8C383.1,232,389.6,191.4,370.1,162.1z M336,230.4L316.5,245
	c-3.2,3.2-6.5,6.5-6.5,11.4V271c0,25.1-20.3,45.5-45.3,45.5c-0.1,0-0.1,0-0.2,0c-26,0-45.5-19.5-45.5-45.5v-14.6
	c0-4.9-1.6-9.8-6.5-11.4L193,230.4l-1.6-1.6c-3.2-1.6-4.9-3.2-8.1-6.5c-8.1-6.5-11.4-16.2-11.4-27.6c0.1-21.6,17.6-39,39.2-39
	c10.3,0,20.1,4.1,27.4,11.3l1.6,1.6l14.6,11.4c4.9,3.2,13,3.2,17.9,0l16.2-11.4c8.1-6.5,19.5-8.1,29.3-6.5s19.5,8.1,24.4,16.3
	C355.5,194.6,352.3,217.4,336,230.4z"/>
<rect x="420.5" y="106.8" class="st1" width="29.3" height="29.3"/>
<rect x="509.9" y="586.4" class="st1" width="29.3" height="29.3"/>
<path class="st1" d="M900,181.6v29.3c16.2-0.3,29.5,12.6,29.8,28.7c0.3,16.2-12.6,29.5-28.7,29.8c-0.4,0-0.7,0-1.1,0v29.3
	c32.5,0,60.2-27.6,60.2-60.1S932.5,181.6,900,181.6z"/>
<rect x="119.8" y="316.5" class="st1" width="29.3" height="29.3"/>
<rect x="90.6" y="256.4" class="st1" width="29.3" height="29.3"/>
<path class="st1" d="M674.1,571.7c-32.5,0-60.1,27.6-60.1,60.2h29.3c0-16.2,13.1-29.3,29.3-29.3s29.3,13.1,29.3,29.3H731
	C734.2,597.7,708.2,571.7,674.1,571.7z"/>
<path class="st1" d="M271,436.8h-1.6c-6.5-26-30.9-45.5-58.5-45.5s-52,19.5-58.5,45.5h-1.6c-32.5,0-60.2,27.6-60.2,60.1
	s27.6,60.1,60.2,60.1H271c32.5,0,60.1-27.6,60.1-60.1S303.5,436.8,271,436.8z M271,526.2H150.7c-16.2,0-29.3-13.1-29.3-29.2
	s13.1-29.3,29.2-29.3c0,0,0,0,0,0h14.6c8,0.1,14.6-6.4,14.7-14.5c0-0.1,0-0.1,0-0.2c-0.3-16.2,12.6-29.5,28.7-29.8
	c16.2-0.3,29.5,12.6,29.8,28.7c0,0.4,0,0.7,0,1.1c0,8,6.5,14.6,14.5,14.6c0,0,0.1,0,0.1,0h14.6c16.1-0.1,29.2,12.9,29.3,29
	c0,0.1,0,0.2,0,0.3C300.2,513.2,287.2,526.2,271,526.2L271,526.2z"/>
<path class="st1" d="M240.1,526.2H180c-8,0-14.6,6.5-14.6,14.5c0,0,0,0.1,0,0.1V601c0,8,6.5,14.6,14.5,14.6c0,0,0.1,0,0.1,0h60.1
	c8,0,14.6-6.5,14.6-14.5c0,0,0-0.1,0-0.1v-60.2c0-8-6.5-14.6-14.5-14.6C240.2,526.2,240.1,526.2,240.1,526.2z M225.5,586.4h-29.3
	v-29.3h29.3V586.4z"/>
<path class="st1" d="M883.8,482.3c-25.1,0.7-44.9,21.7-44.2,46.8c0.7,24.1,20.1,43.4,44.2,44.2c26,0,45.5-19.5,45.5-45.5
	S909.8,482.3,883.8,482.3z M883.8,540.8c-8.1,0-14.6-6.6-14.6-14.6s6.6-14.6,14.6-14.6c8.1,0,14.6,6.6,14.6,14.6
	C900,534.3,891.9,540.8,883.8,540.8z"/>
<path class="st1" d="M883.8,422.2c-57.3-0.2-103.8,46.1-104,103.4c0,0.2,0,0.4,0,0.6c0,56.9,47.1,104,104,104s104-47.1,104-104
	c0.2-57.3-46.1-103.8-103.4-104C884.2,422.2,884,422.2,883.8,422.2z M883.8,601c-40.6,0-74.8-34.1-74.8-74.8s34.1-74.8,74.8-74.8
	s74.8,34.1,74.8,74.8c0.1,41.2-33.2,74.7-74.4,74.8C884.1,601,883.9,601,883.8,601L883.8,601z"/>
</svg>
