<?xml version="1.0" encoding="utf-8"?>
<!-- Generator: Adobe Illustrator 24.1.0, SVG Export Plug-In . SVG Version: 6.00 Build 0)  -->
<svg version="1.1" id="Capa_1" xmlns="http://www.w3.org/2000/svg" xmlns:xlink="http://www.w3.org/1999/xlink" x="0px" y="0px"
	 viewBox="0 0 1080 1080" style="enable-background:new 0 0 1080 1080;" xml:space="preserve">
<style type="text/css">
	.st0{fill:#FFFFFF;}
</style>
<path class="st0" d="M735.5,728.3l13.1,23.6c9.2-5.2,19.7-11.8,27.5-18.4l-15.7-22.3C752.5,717.8,743.3,723,735.5,728.3L735.5,728.3
	z"/>
<path class="st0" d="M873.2,523.6c-9,64.2-39.5,123.4-86.6,167.9l18.4,19.7c52.5-48.5,85.3-114.1,95.8-183.7L873.2,523.6z"/>
<path class="st0" d="M481,362.2l11.8-23.6l26.2,13.1l-11.8,23.6L481,362.2z"/>
<path class="st0" d="M252.7,351.7l26.2-13.1l11.8,23.6l-26.2,13.1L252.7,351.7z"/>
<path class="st0" d="M359,378l26.2-13.1l11.8,23.6l-26.2,13.1L359,378z"/>
<path class="st0" d="M561,308.4l11.8-23.6L599,298l-11.8,23.6L561,308.4z"/>
<path class="st0" d="M561,364.9l26.2-13.1l11.8,23.6l-26.2,13.1L561,364.9z"/>
<path class="st0" d="M655.5,389.8l11.8-23.6l26.2,13.1l-11.8,23.6L655.5,389.8z"/>
<path class="st0" d="M731.5,354.4l26.2-26.2l18.4,18.4l-26.2,26.2L731.5,354.4z"/>
<path class="st0" d="M776.2,402.9l11.8-23.6l26.2,13.1L802.4,416L776.2,402.9z"/>
<path class="st0" d="M365.5,524.9h26.2v26.2h-26.2V524.9z"/>
<path class="st0" d="M311.7,524.9H338v26.2h-26.3V524.9z"/>
<path class="st0" d="M257.9,524.9h26.2v26.2h-26.2V524.9z"/>
<path class="st0" d="M929.7,417.3c0-44.6-36.7-80-80-80h-1.3c-6.7-38.9-40.6-67.2-80-66.9c-32.8,0-60.3,19.7-73.5,48.5
	c-10.6-5.2-22.3-7.9-34.1-7.9c0-44.6-36.7-80-80-80c-32.8,0-60.3,19.7-73.5,48.5c-10.6-5.2-22.3-7.9-34.1-7.9
	c-35.4,0-65.6,23.6-76.1,55.1c-13.1-2.6-27.5-2.6-40.7,1.3c-5.2-9.2-10.5-17-18.4-23.6c47.2-17.1,81.3-61.7,81.3-114.1v-67h-13.2
	c-60.4,0-110.2,43.3-119.4,101c-22.3-28.9-56.4-47.2-95.8-47.2h-66.9v13.1c0,60.3,44.6,110.2,102.3,119.4
	c-13.1,14.4-22.3,34.1-22.3,55.1c-0.1,19.9,7.4,39.2,21,53.8h-21v66.9c0.1,70.1,22.2,138.5,63,195.5c-89.2,26.2-143,73.5-143,127.3
	c0,82.7,129.9,148.2,295.2,148.2s295.2-64.3,295.2-148.2l0,0c143-42,241.4-171.9,241.4-321.4V420h-26.2V417.3L929.7,417.3z
	 M231.7,471.1v-26.2h698v26.2H231.7z M311.7,242.8c0-47.2,35.4-86.6,80-93.1v39.4c0,47.2-35.4,86.6-80,93.1V242.8z M151.7,202.2H191
	c47.2,0,86.6,35.4,93.1,80h-39.3C197.6,283.5,158.2,248.1,151.7,202.2z M231.7,363.5c0-30.2,23.6-53.8,53.8-53.8
	c23.6,0,44.3,15.5,51.2,38l5.2,15.7l14.5-6.5c15.7-7.9,31.5-7.9,45.9-1.3l17,7.9l2.6-18.4c2.6-27.6,26.2-47.2,52.5-47.2
	c12-0.1,23.6,4.1,32.8,11.8l17.1,14.4l3.9-22.3c5.2-24.9,26.2-44.6,52.5-44.6c30.2,0,53.8,23.6,53.8,53.8c0,3.9,0,7.9-1.3,11.8
	l-5.2,21l21-5.2c3.9-1.3,9.2-1.3,11.8-1.3c12-0.1,23.6,4.1,32.8,11.8l17,14.4l3.9-22.3c5.2-24.9,26.2-44.6,52.5-44.6
	c30.2,0,53.8,23.6,53.8,52.5v19.7l15.7-3.9c3.9-1.3,6.6-1.3,10.5-1.3c30.2,0,53.8,23.6,53.8,53.8H282.9
	C255.3,417.3,231.7,393.7,231.7,363.5L231.7,363.5z M545.2,913.2c30.2-27.5,63-65.6,63-106.3H582c0,39.4-47.2,85.3-91.8,116.8
	c-22.6,2.7-45.4,4-68.2,3.9C456,900.1,502,854.2,502,807h-26.3c0,43.3-57.7,94.5-95.8,119.4c-18.4-1.3-36.7-3.9-55.1-6.6
	c32.8-27.5,69.5-69.5,69.5-112.8h-26.2c0,40.7-49.9,85.3-76.1,105c-17-4-34.1-10.5-48.5-15.8c30.2-31.5,44.6-61.7,44.6-89.2h-26.2
	c0,22.3-15.7,48.5-43.3,77.4c-39.4-21-63-48.5-63-77.4c0-43.3,56.4-85.3,141.7-106.3c7.9-1.3,14.4-2.6,22.3-2.6
	c17.2,0.1,34,5.1,48.5,14.4c14.4,9.2,34.1,14.4,55.1,14.4s40.7-5.2,55.1-14.4c21-13.1,47.2-17.1,70.8-11.8
	c86.6,21,141.7,63,141.7,106.3C688.2,851.6,629.2,892.2,545.2,913.2L545.2,913.2z M709.2,780.7c-15.7-45.9-73.5-85.3-157.4-105
	c-31.3-7.8-64.4-2.6-91.8,14.5c-21,13.1-61.7,13.1-81.3,0c-24.9-15.7-53.8-21-82.6-15.7C256.6,624.6,234.3,563,231.7,500h698
	C923.1,629.9,835.2,742.7,709.2,780.7L709.2,780.7z"/>
<circle class="st0" cx="271" cy="753.2" r="13.1"/>
<circle class="st0" cx="191" cy="807" r="13.1"/>
<circle class="st0" cx="365.5" cy="766.3" r="13.1"/>
<circle class="st0" cx="513.8" cy="740.1" r="13.1"/>
<circle class="st0" cx="593.8" cy="766.3" r="13.1"/>
<circle class="st0" cx="432.4" cy="793.9" r="13.1"/>
</svg>
