<?xml version="1.0" encoding="utf-8"?>
<!-- Generator: Adobe Illustrator 24.1.0, SVG Export Plug-In . SVG Version: 6.00 Build 0)  -->
<svg version="1.1" id="Capa_1" xmlns="http://www.w3.org/2000/svg" xmlns:xlink="http://www.w3.org/1999/xlink" x="0px" y="0px"
	 viewBox="0 0 1080 1080" style="enable-background:new 0 0 1080 1080;" xml:space="preserve">
<style type="text/css">
	.st0{fill:#FFFFFF;stroke:#FFFFFF;stroke-width:10;stroke-miterlimit:10;}
</style>
<path class="st0" d="M860.4,288.4h24.9c8.9-0.2,15.9-7.6,15.7-16.5c-0.2-8.6-7.1-15.5-15.7-15.7h-60c-8.9,0.1-16,7.2-16.1,16.1v60
	c-0.2,8.9,6.8,16.3,15.7,16.5c8.9,0.2,16.3-6.8,16.5-15.7c0-0.3,0-0.5,0-0.8v-17.6c48.4,64.6,74.5,143.1,74.6,223.9
	c0,206.3-168.2,376-376,376s-376-168.2-376-376c0-206.3,168.2-376,376-376c14.6,0,30.7,1.5,45.4,2.9c8.8,1.5,16.1-5.9,17.5-13.2
	c1.5-8.8-5.8-16.1-13.2-17.6c-16.1-1.5-33.7-2.9-49.7-2.9c-108.3,0-210.7,42.4-288.2,120s-120,178.5-120,288.2
	c0,108.3,42.4,210.7,120,288.2s178.5,120,288.2,120c108.3,0,210.7-42.4,288.2-120s120-178.5,120-288.2
	C946.7,447.8,917.5,360,860.4,288.4z"/>
<path class="st0" d="M305.9,373.2c-7.3-4.4-17.6-2.9-22,4.4c-36.6,57.1-52.7,125.8-45.4,194.6c17.8,167.1,167.7,288.2,334.8,270.5
	c69.3-7.4,134-38.3,183.2-87.6c118.5-118.5,118.5-311.6,0-428.7c-48.3-48.3-114.1-80.5-182.9-87.8c-67.3-7.3-136.1,8.8-194.6,45.4
	c-7.3,4.4-10.2,14.6-4.4,22c4.4,7.3,14.6,10.2,22,4.4c108.3-68.8,247.3-52.7,336.5,38c105.3,105.4,105.3,278,0,384.8
	c-105.3,105.3-278,105.3-384.8,0c-89.2-89.2-105.4-231.2-38-338C314.7,387.8,313.2,377.6,305.9,373.2z"/>
<path class="st0" d="M746.3,556.1h19c8.9,0,16.1-7.2,16.1-16.1c0-8.9-7.2-16.1-16.1-16.1h-19c-8.9,0-16.1,7.2-16.1,16.1
	C730.2,548.9,737.4,556.1,746.3,556.1C746.3,556.1,746.3,556.1,746.3,556.1z"/>
<path class="st0" d="M298.6,540c0.1,8.9,7.2,16,16.1,16.1h19c8.9,0,16.1-7.2,16.1-16.1c0-8.9-7.2-16.1-16.1-16.1c0,0,0,0,0,0h-19
	C304.4,523.9,298.6,531.2,298.6,540z"/>
<path class="st0" d="M556.1,333.7v-20.5c0-8.9-7.2-16.1-16.1-16.1c-8.9,0-16.1,7.2-16.1,16.1v19c0.1,8.9,7.2,16,16.1,16.1
	C548.8,349.8,556.1,342.5,556.1,333.7z"/>
<path class="st0" d="M523.9,746.3v19c0,8.9,7.2,16.1,16.1,16.1c8.9,0,16.1-7.2,16.1-16.1v-19c0-8.9-7.2-16.1-16.1-16.1
	C531.1,730.2,523.9,737.4,523.9,746.3C523.9,746.3,523.9,746.3,523.9,746.3z"/>
<path class="st0" d="M461,437.6c-6-6.2-15.8-6.3-21.9-0.4s-6.3,15.8-0.4,21.9c0.1,0.1,0.3,0.3,0.4,0.4l54.1,54.1
	c-4.4,7.3-5.9,16.1-5.9,26.3c-0.1,29.8,24,54.1,53.9,54.1c0.1,0,0.2,0,0.3,0c29.3,0,54.1-24.9,54.1-54.1c0-8.8-2.9-17.6-5.8-26.3
	L698,405.4c6-6.2,5.8-16-0.4-21.9c-6-5.8-15.5-5.8-21.5,0L567.8,491.7c-7.3-4.4-16.1-5.9-26.3-5.9c-8.8,0-17.5,2.9-26.3,5.9
	L461,437.6z M563.4,540c0,12.9-10.5,23.4-23.4,23.4s-23.4-10.5-23.4-23.4c0-12.9,10.5-23.4,23.4-23.4h0c12.8-0.2,23.2,10,23.4,22.8
	C563.4,539.6,563.4,539.8,563.4,540z"/>
<path class="st0" d="M348.3,348.3c7.4-6.5,8.2-17.7,1.7-25.1s-17.7-8.2-25.1-1.7c-7.4,6.5-8.2,17.7-1.7,25.1
	c3.4,3.9,8.3,6.1,13.4,6.1C341,352.8,345.1,351.3,348.3,348.3z"/>
<path class="st0" d="M649.7,180.1c8.3-0.6,14.6-7.8,14.1-16.1c-0.6-8.3-7.8-14.6-16.1-14.1c-8.3,0.6-14.6,7.8-14.1,16.1
	c0.2,3.6,1.8,7.1,4.4,9.7C642.4,178.6,646.8,180.1,649.7,180.1z"/>
</svg>
