<?xml version="1.0" encoding="utf-8"?>
<!-- Generator: Adobe Illustrator 24.1.0, SVG Export Plug-In . SVG Version: 6.00 Build 0)  -->
<svg version="1.1" id="Capa_1" xmlns="http://www.w3.org/2000/svg" xmlns:xlink="http://www.w3.org/1999/xlink" x="0px" y="0px"
	 viewBox="0 0 1080 1080" style="enable-background:new 0 0 1080 1080;" xml:space="preserve">
<style type="text/css">
	.st0{fill:#FFFFFF;stroke:#FFFFFF;stroke-width:6;stroke-miterlimit:10;}
</style>
<path class="st0" d="M540,84.8C288.1,84.8,84.8,289.5,84.8,540c0,251.8,204.7,455.2,455.2,455.2c251.8,0,455.2-204.7,455.2-455.2
	C996.6,289.5,791.8,84.8,540,84.8z M540,956.2C311,956.2,123.8,769,123.8,540S311,123.8,540,123.8S956.2,311,956.2,540
	C956.2,770.3,770.3,956.2,540,956.2z"/>
<path class="st0" d="M777,441.7H638.3V303c0-10.8-9.4-20.2-20.2-20.2H460.5c-10.8,0-20.2,9.4-20.2,20.2v138.7H301.6
	c-10.8,0-20.2,9.4-20.2,20.2v157.6c0,10.8,9.4,20.2,20.2,20.2h138.7v138.7c0,10.8,9.4,20.2,20.2,20.2h157.6
	c10.8,0,20.2-9.4,20.2-20.2V639.7H777c10.8,0,20.2-9.4,20.2-20.2V461.9C795.9,451.1,787.8,441.7,777,441.7z M759.5,599.3H619.5
	c-10.8,0-20.2,9.4-20.2,20.2v138.7H480.7V619.5c0-10.8-9.4-20.2-20.2-20.2H321.8V480.7h138.7c10.8,0,20.2-9.4,20.2-20.2V321.8h119.9
	v140.1c0,10.8,9.4,20.2,20.2,20.2h138.7V599.3z"/>
</svg>
