<svg xmlns="http://www.w3.org/2000/svg" width="30" height="30" viewBox="0 0 30 30">
  <g id="Grupo_1149" data-name="Grupo 1149" transform="translate(-1202 -31)">
    <g id="Grupo_851" data-name="Grupo 851" transform="translate(1201.626 30.915)">
      <g id="Elipse_189" data-name="Elipse 189" transform="translate(0.374 0.085)" fill="none" stroke="#ef8b44" stroke-width="1">
        <circle cx="15" cy="15" r="15" stroke="none"/>
        <circle cx="15" cy="15" r="14.5" fill="none"/>
      </g>
      <g id="Grupo_703" data-name="Grupo 703" transform="translate(8.4 6.094)">
        <g id="Grupo_702" data-name="Grupo 702" transform="translate(0)">
          <g id="Grupo_701" data-name="Grupo 701">
            <path id="Trazado_1319" data-name="Trazado 1319" d="M45.724,11.608a.641.641,0,0,0,.641-.641V8.594A2.568,2.568,0,0,0,43.8,6.029H43.03V3.767a3.849,3.849,0,0,0-7.7,0V6.029h-.768A2.568,2.568,0,0,0,32,8.594v5.259a2.568,2.568,0,0,0,2.565,2.565H43.8a2.568,2.568,0,0,0,2.565-2.565.641.641,0,0,0-1.283,0A1.284,1.284,0,0,1,43.8,15.135H34.565a1.284,1.284,0,0,1-1.283-1.283V8.594a1.284,1.284,0,0,1,1.283-1.283H43.8a1.284,1.284,0,0,1,1.283,1.283v2.373A.641.641,0,0,0,45.724,11.608Zm-3.977-5.58H36.616V3.767a2.567,2.567,0,0,1,5.131,0Z" transform="translate(-32)" fill="#ef8b44"/>
            <g id="Grupo_704" data-name="Grupo 704" transform="translate(3.452 10.913)">
              <circle id="Elipse_191" data-name="Elipse 191" cx="0.496" cy="0.496" r="0.496" transform="translate(5.953)" fill="#ef8b44"/>
              <circle id="Elipse_192" data-name="Elipse 192" cx="0.496" cy="0.496" r="0.496" transform="translate(1.984)" fill="#ef8b44"/>
              <circle id="Elipse_193" data-name="Elipse 193" cx="0.496" cy="0.496" r="0.496" fill="#ef8b44"/>
              <circle id="Elipse_194" data-name="Elipse 194" cx="0.496" cy="0.496" r="0.496" transform="translate(3.969)" fill="#ef8b44"/>
            </g>
          </g>
        </g>
      </g>
    </g>
  </g>
</svg>
