<svg id="Grupo_1598" data-name="Grupo 1598" xmlns="http://www.w3.org/2000/svg" width="25" height="25" viewBox="0 0 25 25">
  <path id="Trazado_2720" data-name="Trazado 2720" d="M12.5,0A12.5,12.5,0,1,0,25,12.5,12.5,12.5,0,0,0,12.5,0Zm0,24.194A11.694,11.694,0,1,1,24.194,12.5,11.694,11.694,0,0,1,12.5,24.194Z" transform="translate(0)" fill="#fff"/>
  <path id="Trazado_2721" data-name="Trazado 2721" d="M143.81,132.543a.4.4,0,0,0-.563,0l-5.07,5.07-5.07-5.07a.4.4,0,1,0-.573.553l.01.01,5.07,5.07-5.07,5.07a.4.4,0,0,0,.553.573l.01-.01,5.07-5.07,5.07,5.07a.4.4,0,0,0,.563-.563l-5.07-5.07,5.07-5.07A.4.4,0,0,0,143.81,132.543Z" transform="translate(-125.677 -125.677)" fill="#fff"/>
</svg>
