<svg xmlns="http://www.w3.org/2000/svg" width="25" height="25" viewBox="0 0 25 25">
  <g id="Grupo_982" data-name="Grupo 982" transform="translate(-29 -279)">
    <g id="Elipse_203" data-name="Elipse 203" transform="translate(29 279)" fill="none" stroke="#fff" stroke-width="1">
      <circle cx="12.5" cy="12.5" r="12.5" stroke="none"/>
      <circle cx="12.5" cy="12.5" r="12" fill="none"/>
    </g>
    <g id="Grupo_849" data-name="Grupo 849" transform="translate(0.024 290.292)">
      <g id="Grupo_848" data-name="Grupo 848" transform="translate(35.976 -5.292)">
        <path id="Trazado_1500" data-name="Trazado 1500" d="M47.208-.441l-.831-.831V-2.92a1.011,1.011,0,0,0-1.01-1.01H43.721L42.434-5.218a.253.253,0,0,0-.178-.074h-.94a.253.253,0,0,0-.178.074L39.848-3.93H38.2a1.011,1.011,0,0,0-1.01,1.01v1.65l-.831.829a1.292,1.292,0,0,0-.381.92V6.331a1.3,1.3,0,0,0,.365.9l.015.017.017.015a1.3,1.3,0,0,0,.9.366h3.37a.252.252,0,0,0,0-.5h-3.37a.79.79,0,0,1-.355-.084L39.9,4.067l.969.968a1.292,1.292,0,0,0,.919.381h0a1.292,1.292,0,0,0,.919-.381l.965-.965,2.973,2.973a.791.791,0,0,1-.355.084h-3.37a.252.252,0,0,0,0,.5h3.37a1.3,1.3,0,0,0,.9-.365l.017-.015.015-.017a1.3,1.3,0,0,0,.365-.9V.478a1.292,1.292,0,0,0-.381-.919Zm-.831-.117.474.474a.8.8,0,0,1,.114.143l-.588.588ZM41.42-4.787h.731l.856.857H40.562Zm-4.706,4.7.474-.473v1.2L36.6.059A.8.8,0,0,1,36.714-.084Zm-.149,6.77a.79.79,0,0,1-.084-.355V.653L39.54,3.711Zm5.783-2.008a.79.79,0,0,1-.562.233h0a.79.79,0,0,1-.562-.233l-3.53-3.528V-2.92a.505.505,0,0,1,.5-.5h7.169a.505.505,0,0,1,.5.5V-1.2a.255.255,0,0,0,0,.06V1.152Zm4.736,1.653A.79.79,0,0,1,47,6.686L44.026,3.713,47.083.654Z" transform="translate(-35.976 5.292)" fill="#fff" stroke="#fff" stroke-width="0.1"/>
        <path id="Trazado_1501" data-name="Trazado 1501" d="M256.252,486.7a.253.253,0,1,0,.178.074.254.254,0,0,0-.178-.074Z" transform="translate(-250.446 -474.283)" fill="#fff" stroke="#fff" stroke-width="0.1"/>
        <path id="Trazado_1502" data-name="Trazado 1502" d="M173.957,110.6a2.386,2.386,0,0,0-2.383,2.383,2.419,2.419,0,0,0,2.416,2.416h1.534a.252.252,0,1,0,0-.5H173.99a1.913,1.913,0,0,1-1.911-1.911,1.879,1.879,0,0,1,3.757,0v.517a.361.361,0,0,1-.721,0v-.584a1.255,1.255,0,0,0-1.253-1.253,1.318,1.318,0,1,0,0,2.636h.4a.252.252,0,1,0,0-.5h-.4a.813.813,0,0,1,0-1.626.749.749,0,0,1,.749.749v.584a.865.865,0,0,0,1.731,0v-.517a2.386,2.386,0,0,0-2.383-2.383Z" transform="translate(-168.151 -107.678)" fill="#fff" stroke="#fff" stroke-width="0.1"/>
      </g>
    </g>
  </g>
</svg>
