<svg xmlns="http://www.w3.org/2000/svg" width="91.189" height="37.329" viewBox="0 0 91.189 37.329">
  <g id="logo_volar_" data-name="logo volar " transform="translate(-110.801 -113.744)">
    <path id="Trazado_3" data-name="Trazado 3" d="M168.068,137.018c.031-.128.079-.283.136-.47a5.318,5.318,0,0,1,.205-.534,4.511,4.511,0,0,1,.214-.425c.065-.114.122-.173.17-.173s.083.059.122.187a2.64,2.64,0,0,1,.092.447c.022.173.035.351.043.529s.013.329.013.438Zm-25.254.99c-.078-.849-.135-1.738-.183-2.664s-.065-1.894-.065-2.9q0-1.977.122-3.983c.083-1.332.2-2.614.341-3.837s.319-2.372.528-3.44a23.51,23.51,0,0,1,.7-2.783,8.122,8.122,0,0,1,.826-1.861c.293-.456.594-.684.913-.684.48,0,.864.4,1.148,1.2a13.108,13.108,0,0,1,.428,3.983,23.432,23.432,0,0,1-.393,4.156,41.742,41.742,0,0,1-1.048,4.384q-.655,2.2-1.511,4.357t-1.8,4.065m-7.961,5.488a3.461,3.461,0,0,1-.825-.744,4.959,4.959,0,0,1-.586-.917,4.521,4.521,0,0,1-.349-.977,4.356,4.356,0,0,1-.113-.944,1.288,1.288,0,0,1,.227-.917.632.632,0,0,1,.358-.215.719.719,0,0,1,.59.342,3.15,3.15,0,0,1,.415.894,7.781,7.781,0,0,1,.262,1.214,10.165,10.165,0,0,1,.087,1.3,7.306,7.306,0,0,1-.066.967m38.969,2.409a.9.9,0,0,0,.579-.993,5.166,5.166,0,0,1-.04-.663,10.181,10.181,0,0,1,.07-1.2c.044-.411.1-.822.157-1.236s.114-.822.157-1.214a10.3,10.3,0,0,0,.066-1.132,2.458,2.458,0,0,0-.673-1.934,2.913,2.913,0,0,0-1.965-.589c-.223,0-.463,0-.708.013s-.5.014-.756.014a9.183,9.183,0,0,0-.078-1.108,7.1,7.1,0,0,0-.262-1.214,2.906,2.906,0,0,0-.507-.976,1.041,1.041,0,0,0-.847-.4,1.258,1.258,0,0,0-.9.483,5.535,5.535,0,0,0-.812,1.141,7.751,7.751,0,0,0-.576,1.341,3.815,3.815,0,0,0-.214,1.086,1.394,1.394,0,0,0,.227.848,1.307,1.307,0,0,0,.572.447,2.28,2.28,0,0,0,.755.164c.271.018.537.023.791.023-.136.694-.249,1.2-.336,1.533l0,.007a5.389,5.389,0,0,1-.379.965c-.15.3-.346.684-.454.912-.2.411-.423.835-.677,1.273s-.537.876-.847,1.309a9.6,9.6,0,0,1-.97,1.154,5.167,5.167,0,0,1-1.039.812,2.1,2.1,0,0,1-1.07.306,1.582,1.582,0,0,1-1.306-.589,3.943,3.943,0,0,1-.712-1.391,7.947,7.947,0,0,1-.306-1.615c-.043-.538-.074-.958-.087-1.259a.973.973,0,0,0-.262-.589.722.722,0,0,0-.55-.26.869.869,0,0,0-.59.223.887.887,0,0,0-.293.557,7.672,7.672,0,0,1-.55,2.117,6.5,6.5,0,0,1-.882,1.487,3.473,3.473,0,0,1-1.013.871,2.058,2.058,0,0,1-.934.283,1.738,1.738,0,0,1-.948-.237,1.779,1.779,0,0,1-.612-.611,2.642,2.642,0,0,1-.314-.835,4.655,4.655,0,0,1-.092-.908,6.411,6.411,0,0,1,.441-2.486,5.8,5.8,0,0,1,1.092-1.743,4.175,4.175,0,0,1,1.445-1.027,3.877,3.877,0,0,1,1.489-.328,3.213,3.213,0,0,1,.847.1,4.079,4.079,0,0,1,.642.246,2.606,2.606,0,0,1,.428.274c.1.086.171.146.2.173a.816.816,0,0,0,.612.26.78.78,0,0,0,.585-.27.9.9,0,0,0,.249-.625.989.989,0,0,0-.249-.634c-.013-.018-.1-.091-.249-.228a3.657,3.657,0,0,0-.642-.433,6.451,6.451,0,0,0-1-.438,3.982,3.982,0,0,0-1.284-.2,5.489,5.489,0,0,0-2.153.47,6.232,6.232,0,0,0-2.044,1.414,7.02,7.02,0,0,0-1.284,1.834s-.9,1.41-1.253,2.112a17.2,17.2,0,0,1-1.227,2.057,9.617,9.617,0,0,1-1.533,1.756,2.592,2.592,0,0,1-1.738.744,2.7,2.7,0,0,1-2.275-1.711,15.875,15.875,0,0,1-1.511-4.7q1.258-2.4,2.367-4.936a54.161,54.161,0,0,0,1.917-5.073,42.474,42.474,0,0,0,1.284-5.055,26.324,26.324,0,0,0,.476-4.868,19.761,19.761,0,0,0-.227-3.225,8.04,8.04,0,0,0-.633-2.144,2.791,2.791,0,0,0-1-1.191,2.528,2.528,0,0,0-1.34-.365,2.264,2.264,0,0,0-1.69.8,7.3,7.3,0,0,0-1.319,2.167,19.187,19.187,0,0,0-.991,3.18q-.42,1.813-.69,3.841t-.393,4.147c-.083,1.41-.127,2.778-.127,4.1q0,1.369.079,3.134c.052,1.177.157,2.39.305,3.64.066.543.1.845.2,1.379a4.371,4.371,0,0,0-.331.542,10.306,10.306,0,0,1-.755,1.364,3.958,3.958,0,0,1-.891.967,3.606,3.606,0,0,1-1.1.565,4.579,4.579,0,0,1-1.376.187h-.293a1.356,1.356,0,0,1-.271-.023,7.242,7.242,0,0,0,.179-1.579,10.959,10.959,0,0,0-.244-2.473,5.571,5.571,0,0,0-.668-1.7,2.84,2.84,0,0,0-.957-.967,2.345,2.345,0,0,0-1.153-.306,1.929,1.929,0,0,0-1.633.849,3.609,3.609,0,0,0-.621,2.19,5.469,5.469,0,0,0,.856,3.015,5.987,5.987,0,0,0,2.188,2.076,4.1,4.1,0,0,1-1.3,1.588,3.47,3.47,0,0,1-2.131.625,3.019,3.019,0,0,1-2.323-1.022,3.383,3.383,0,0,1-.655-1.154,4.6,4.6,0,0,1-.223-1.451,5.242,5.242,0,0,1,.223-1.579,4.985,4.985,0,0,1,.576-1.227,4.3,4.3,0,0,1,.756-.858,4.187,4.187,0,0,1,.769-.529,3.641,3.641,0,0,0,.6-.388.755.755,0,0,0,.236-.6.814.814,0,0,0-.192-.566.734.734,0,0,0-.576-.214,2.489,2.489,0,0,0-1.013.365,5.358,5.358,0,0,0-1.354,1.108,6.948,6.948,0,0,0-1,1.473s-.358.52-.428.662a2.045,2.045,0,0,1-.306.447,2.177,2.177,0,0,1-.515.424,1.473,1.473,0,0,1-.747.187,2.392,2.392,0,0,1-1.4-.424,4.58,4.58,0,0,1-1.07-1.05,7.1,7.1,0,0,1-.79-1.355c-.218-.483-.4-.935-.542-1.355a10.368,10.368,0,0,1-.306-1.022,3.561,3.561,0,0,0-.087-.379.891.891,0,0,0-.306-.52.842.842,0,0,0-.528-.187.787.787,0,0,0-.62.269.978.978,0,0,0-.24.675c0,.155,0,.31.013.456s.009.306.009.461a11.906,11.906,0,0,1-.214,2.272,14.12,14.12,0,0,1-.563,2.122,16.661,16.661,0,0,1-.764,1.852,16.018,16.018,0,0,1-.812,1.46,5.805,5.805,0,0,1-.747.963c-.232.237-.406.356-.528.356-.179,0-.411-.16-.686-.483a5.506,5.506,0,0,1-.8-1.332,10.937,10.937,0,0,1-.651-2.026,11.289,11.289,0,0,1-.275-2.568,6.335,6.335,0,0,1,.183-1.765c.118-.393.188-.607.2-.634a.835.835,0,0,0,.092-.4.916.916,0,0,0-.227-.6.756.756,0,0,0-.607-.269.83.83,0,0,0-.441.114.92.92,0,0,0-.306.333,8.53,8.53,0,0,0-.323.917,8.025,8.025,0,0,0-.262,2.359,11.974,11.974,0,0,0,.428,3.271,11.232,11.232,0,0,0,1.074,2.605,6.629,6.629,0,0,0,1.354,1.706,2.071,2.071,0,0,0,1.293.616,2.411,2.411,0,0,0,1.24-.662,7.858,7.858,0,0,0,1.433-1.674,16.267,16.267,0,0,0,1.345-2.482,15.3,15.3,0,0,0,.969-3.075,7.875,7.875,0,0,0,.764,1.163,6.892,6.892,0,0,0,1,1.04,5.033,5.033,0,0,0,1.232.753,3.623,3.623,0,0,0,1.463.292,3.009,3.009,0,0,0,1.232-.246.269.269,0,0,0,.061-.032,5.973,5.973,0,0,0,.354,1.939,4.833,4.833,0,0,0,1.018,1.674,4.6,4.6,0,0,0,1.533,1.086,4.794,4.794,0,0,0,1.939.388,5.154,5.154,0,0,0,3.057-.967,5.41,5.41,0,0,0,1.092-1.049,7,7,0,0,0,.812-1.3,4.6,4.6,0,0,0,.992.091,5.661,5.661,0,0,0,1.917-.256,6.038,6.038,0,0,0,1.546-.766,5.673,5.673,0,0,0,1.2-1.131c.162-.205.31-.415.45-.63a14.941,14.941,0,0,0,1.026,2.924,7.157,7.157,0,0,0,1.646,2.286,3.341,3.341,0,0,0,2.323.871,3.641,3.641,0,0,0,1.655-.388,6.572,6.572,0,0,0,1.467-1.013,9.656,9.656,0,0,0,1.275-1.415c.236-.315.459-.634.664-.953a4.67,4.67,0,0,0,.179.753,4.238,4.238,0,0,0,.734,1.355,3.263,3.263,0,0,0,1.148.9,3.44,3.44,0,0,0,3.634-.474,6.791,6.791,0,0,0,1.825-2.131,5.081,5.081,0,0,0,1.3,2.19,3.03,3.03,0,0,0,2.2.871,3.581,3.581,0,0,0,1.755-.456,7.364,7.364,0,0,0,1.559-1.168,10.486,10.486,0,0,0,1.306-1.556q.589-.849,1.026-1.624c.293-.52.533-.981.721-1.378.139-.3.244-.515.314-.662a1.151,1.151,0,0,0,.061-.127,1.981,1.981,0,0,0,.114-.283c.057-.173.131-.4.214-.671s.166-.6.258-.967.166-.767.227-1.191c.284-.014.55-.023.8-.023h.685a1.129,1.129,0,0,1,.847.224,1.019,1.019,0,0,1,.192.671,11.5,11.5,0,0,1-.227,2.226,12.474,12.474,0,0,0-.223,2.345,6.791,6.791,0,0,0,.071,1,.85.85,0,0,0,1.1.7" transform="translate(0 0)" fill="#fff" stroke="#fff" stroke-miterlimit="10" stroke-width="0.697"/>
    <path id="Trazado_4" data-name="Trazado 4" d="M174.547,140.407a.833.833,0,0,1-.611-.269.92.92,0,0,1,.016-1.26c.286-.29.592-.6.913-.932a.827.827,0,0,1,1.206.011.919.919,0,0,1-.011,1.26c-.322.331-.631.646-.917.937a.832.832,0,0,1-.595.253m-3.475,3.282a.844.844,0,0,1-.722-.415.914.914,0,0,1,.265-1.229,7.139,7.139,0,0,0,.908-.718.827.827,0,0,1,1.2.074.919.919,0,0,1-.071,1.258,8.821,8.821,0,0,1-1.129.892.823.823,0,0,1-.455.139m-7.742.076a.821.821,0,0,1-.373-.09,9.43,9.43,0,0,1-1.233-.738.916.916,0,0,1-.2-1.242.829.829,0,0,1,1.188-.211,7.848,7.848,0,0,0,.992.589.909.909,0,0,1,.393,1.191.85.85,0,0,1-.767.5m4.036,1.042a8.39,8.39,0,0,1-.863-.046.881.881,0,0,1-.763-.975.864.864,0,0,1,.933-.8,6.388,6.388,0,0,0,1.134.021.892.892,0,0,1,.116,1.778q-.282.02-.557.02" transform="translate(12.593 5.918)" fill="#fff" stroke="#fff" stroke-miterlimit="10" stroke-width="0.697"/>
    <path id="Trazado_5" data-name="Trazado 5" d="M175.9,135.806l-1.017.517.067-1.18a3.571,3.571,0,0,1,1.133-2.442l.337-.3a.443.443,0,0,1,.542-.041l.634.442a.466.466,0,0,1,.171.539l-.139.442a3.589,3.589,0,0,1-1.727,2.027m2.546-2.233a1.249,1.249,0,0,0-.441-1.415l-.633-.442a1.109,1.109,0,0,0-1.421.116l-.337.3a4.457,4.457,0,0,0-1.377,2.959l-.095,1.759a.4.4,0,0,0,.171.359.365.365,0,0,0,.383.028l1.52-.764a4.212,4.212,0,0,0,2.09-2.462Z" transform="translate(15.797 4.368)" fill="#fff" stroke="#fff" stroke-miterlimit="10" stroke-width="0.349"/>
    <path id="Trazado_6" data-name="Trazado 6" d="M181.957,126.765a1.04,1.04,0,0,1-1.487.309,1.146,1.146,0,0,1-.3-1.553,1.04,1.04,0,0,1,1.487-.309,1.163,1.163,0,0,1,.3,1.553m-2.377-1.659a1.932,1.932,0,0,0,.493,2.589,1.752,1.752,0,0,0,2.478-.515,1.933,1.933,0,0,0-.493-2.589,1.752,1.752,0,0,0-2.478.515" transform="translate(17.086 2.555)" fill="#fff" stroke="#fff" stroke-miterlimit="10" stroke-width="0.349"/>
    <path id="Trazado_7" data-name="Trazado 7" d="M182.1,134.369a16.163,16.163,0,0,0,1.886-2.634,6.322,6.322,0,0,1-.348,3.678l-.364.883Zm-1.414.419c-.026.041-.079.034-.119.007l-1.136-.912a15.721,15.721,0,0,0-1.763-1.231l-1.3-.788a.089.089,0,0,1-.04-.117l.013-.021a15.786,15.786,0,0,1,8.512-9.142l.681-.3-.008.952a15.98,15.98,0,0,1-4.842,11.555m-6.667-4.984.641-.69a5.77,5.77,0,0,1,3.14-1.729,18.6,18.6,0,0,0-1.641,2.835Zm10.273,5.885a7.218,7.218,0,0,0,.183-4.9,16.777,16.777,0,0,0,1.759-7.542l-.012-.966a.743.743,0,0,0-.3-.6.646.646,0,0,0-.647-.063l-.714.31a15.834,15.834,0,0,0-6.122,4.645,6.407,6.407,0,0,0-4.3,2.024l-.655.71a.76.76,0,0,0-.166.752.672.672,0,0,0,.257.359.715.715,0,0,0,.3.118l1.981.4c-.066.193-.152.372-.218.565l-.007.055a.856.856,0,0,0,.336.953l.039.028,1.3.788a14.286,14.286,0,0,1,1.683,1.175l1.136.912a.792.792,0,0,0,1.037-.054,5.016,5.016,0,0,0,.417-.427l1.108,1.761a.753.753,0,0,0,.218.242.629.629,0,0,0,.416.111.708.708,0,0,0,.6-.448Z" transform="translate(15.579 1.872)" fill="#fff" stroke="#fff" stroke-miterlimit="10" stroke-width="0.349"/>
  </g>
</svg>
