<svg xmlns="http://www.w3.org/2000/svg" width="25" height="25" viewBox="0 0 25 25">
  <g id="Grupo_689" data-name="Grupo 689" transform="translate(-18 -148.553)">
    <g id="Grupo_688" data-name="Grupo 688" transform="translate(25.673 154.371)">
      <path id="Trazado_1303" data-name="Trazado 1303" d="M175.492,134.807l-.78.4.051-.906a2.74,2.74,0,0,1,.869-1.874l.258-.233a.34.34,0,0,1,.416-.031l.486.339a.357.357,0,0,1,.131.413l-.106.339a2.753,2.753,0,0,1-1.325,1.555m1.954-1.713a.958.958,0,0,0-.339-1.086l-.486-.339a.851.851,0,0,0-1.09.089l-.259.233a3.42,3.42,0,0,0-1.057,2.271l-.073,1.35a.309.309,0,0,0,.132.276.28.28,0,0,0,.294.022l1.167-.586a3.232,3.232,0,0,0,1.6-1.889Z" transform="translate(-173.311 -121.96)" fill="#fff" stroke="#fff" stroke-miterlimit="10" stroke-width="0.349"/>
      <path id="Trazado_1304" data-name="Trazado 1304" d="M181.335,126.187a.8.8,0,0,1-1.141.237.879.879,0,0,1-.227-1.192.8.8,0,0,1,1.141-.237.893.893,0,0,1,.227,1.192m-1.824-1.273a1.483,1.483,0,0,0,.378,1.986,1.345,1.345,0,0,0,1.9-.395,1.483,1.483,0,0,0-.378-1.986,1.344,1.344,0,0,0-1.9.395" transform="translate(-173.519 -121.668)" fill="#fff" stroke="#fff" stroke-miterlimit="10" stroke-width="0.349"/>
      <path id="Trazado_1305" data-name="Trazado 1305" d="M180.048,131.387a12.4,12.4,0,0,0,1.447-2.021,4.851,4.851,0,0,1-.267,2.822l-.279.678Zm-1.085.322c-.02.032-.061.026-.091.005l-.871-.7a12.063,12.063,0,0,0-1.352-.944l-1-.6a.068.068,0,0,1-.03-.09l.01-.016a12.112,12.112,0,0,1,6.531-7.014l.523-.232-.006.731a12.261,12.261,0,0,1-3.715,8.866m-5.115-3.824.492-.529a4.427,4.427,0,0,1,2.409-1.326,14.272,14.272,0,0,0-1.259,2.175Zm7.882,4.515a5.538,5.538,0,0,0,.141-3.76,12.872,12.872,0,0,0,1.349-5.786l-.009-.741a.57.57,0,0,0-.233-.461.5.5,0,0,0-.5-.048l-.548.238a12.148,12.148,0,0,0-4.7,3.564,4.916,4.916,0,0,0-3.3,1.553l-.5.545a.583.583,0,0,0-.127.577.516.516,0,0,0,.2.276.548.548,0,0,0,.228.09l1.52.3c-.051.148-.117.286-.168.434l-.005.042a.657.657,0,0,0,.258.731l.03.021,1,.6a10.964,10.964,0,0,1,1.292.9l.871.7a.607.607,0,0,0,.8-.042,3.846,3.846,0,0,0,.32-.328l.85,1.351a.578.578,0,0,0,.167.186.482.482,0,0,0,.319.085.544.544,0,0,0,.462-.344Z" transform="translate(-173.276 -121.559)" fill="#fff" stroke="#fff" stroke-miterlimit="10" stroke-width="0.349"/>
    </g>
    <g id="Elipse_189" data-name="Elipse 189" transform="translate(18 148.553)" fill="none" stroke="#fff" stroke-width="1">
      <circle cx="12.5" cy="12.5" r="12.5" stroke="none"/>
      <circle cx="12.5" cy="12.5" r="12" fill="none"/>
    </g>
  </g>
</svg>
