<?xml version="1.0" encoding="utf-8"?>
<!-- Generator: Adobe Illustrator 24.1.0, SVG Export Plug-In . SVG Version: 6.00 Build 0)  -->
<svg version="1.1" id="Capa_1" xmlns="http://www.w3.org/2000/svg" xmlns:xlink="http://www.w3.org/1999/xlink" x="0px" y="0px"
	 viewBox="0 0 1080 1080" style="enable-background:new 0 0 1080 1080;" xml:space="preserve">
<style type="text/css">
	.st0{fill:#FFFFFF;}
</style>
<path class="st0" d="M245,417.9c-74.8,17.7-96,81-96.8,83.7c-2.6,8.2,1.9,17,10.1,19.7c8.2,2.6,17-1.9,19.7-10.1
	c0.2-0.5,16.4-49.1,74.2-62.9c8.4-2,13.6-10.4,11.6-18.8S253.4,415.9,245,417.9L245,417.9z"/>
<path class="st0" d="M819.8,356.1h-91.7v-133c0-66.7-36.2-128.1-94.5-160.5c-57-31.8-131.1-30.6-185.6-0.9
	c-59.2,32.1-96.1,94.1-96.2,161.4v133.1h-91.7c-101.2,0-183.6,82.4-183.6,183.6c-0.3,101.5,81.8,184,183.3,184.3c0.1,0,0.2,0,0.3,0
	h91.7v133c0,66.1,35.6,127.1,93.1,159.8c54.6,31.1,128.1,32.1,183.2,3.7c61.3-31.4,99.9-94.5,99.9-163.4V724h91.7
	c101.2,0,183.6-82.4,183.6-183.6c0.3-101.5-81.8-184-183.3-184.3C820.1,356.1,820,356.1,819.8,356.1z M351.9,692.7h-91.7
	c-84,0-152.3-68.3-152.3-152.3c-0.3-84.2,67.7-152.7,152-153c0.1,0,0.3,0,0.4,0h91.7V692.7z M972.2,540.4
	c0,84-68.3,152.3-152.3,152.3h-91.7v-42.5c-0.2-8.6-7.4-15.5-16-15.2c-8.3,0.2-15,6.9-15.2,15.2V857c0,50.7-25.2,98-67.2,126.3
	c-51.1,34.6-125.3,35.7-178,0.8c-42.7-28.2-68.4-75.9-68.4-127.1V223c0-53.4,28-102.9,73.8-130.5c49.8-30.1,114.8-28,159.9-3.5
	c49.2,26.6,79.9,78.1,79.9,134v293.6c-0.2,8.6,6.6,15.8,15.2,16c8.6,0.2,15.8-6.6,16-15.2c0-0.3,0-0.5,0-0.8V387.4h91.7
	c84.2,0.1,152.4,68.4,152.3,152.6C972.2,540.1,972.2,540.3,972.2,540.4L972.2,540.4z"/>
<path class="st0" d="M613.4,317.3H466.6c-25.3,0-45.8,20.5-45.9,45.9v353.8c0,25.3,20.5,45.8,45.9,45.8h146.8
	c25.3,0,45.8-20.5,45.8-45.8V363.2C659.2,337.9,638.7,317.4,613.4,317.3z M628,716.9c0,8-6.5,14.6-14.6,14.6H466.6
	c-8,0-14.6-6.5-14.6-14.6V363.2c0-8,6.5-14.6,14.6-14.6h146.8c8.1,0,14.6,6.5,14.6,14.6V716.9z"/>
<circle class="st0" cx="504.4" cy="390.1" r="15.6"/>
<circle class="st0" cx="575.6" cy="390.1" r="15.6"/>
<circle class="st0" cx="504.4" cy="465.1" r="15.6"/>
<circle class="st0" cx="575.6" cy="465.1" r="15.6"/>
<circle class="st0" cx="504.4" cy="540" r="15.6"/>
<circle class="st0" cx="575.6" cy="540" r="15.6"/>
<circle class="st0" cx="504.4" cy="615" r="15.6"/>
<circle class="st0" cx="575.6" cy="615" r="15.6"/>
<circle class="st0" cx="504.4" cy="690" r="15.6"/>
<circle class="st0" cx="575.6" cy="690" r="15.6"/>
<circle class="st0" cx="712.5" cy="581" r="15.6"/>
</svg>
