<?xml version="1.0" encoding="utf-8"?>
<!-- Generator: Adobe Illustrator 24.1.0, SVG Export Plug-In . SVG Version: 6.00 Build 0)  -->
<svg version="1.1" id="Capa_1" xmlns="http://www.w3.org/2000/svg" xmlns:xlink="http://www.w3.org/1999/xlink" x="0px" y="0px"
	 viewBox="0 0 1080 1080" style="enable-background:new 0 0 1080 1080;" xml:space="preserve">
<style type="text/css">
	.st0{fill:none;stroke:#FFFFFF;stroke-width:29;stroke-linecap:round;stroke-linejoin:round;stroke-miterlimit:10;}
</style>
<g>
	<g>
		<path class="st0" d="M574.4,228.3L574.4,228.3c4.7,13.3,19.9,19.5,32.6,13.5l0,0c20.2-9.6,41.3,11.5,31.7,31.7l0,0
			c-6,12.7,0.2,27.9,13.5,32.6l0,0c21.1,7.5,21.1,37.3,0,44.8l0,0c-13.3,4.7-19.5,19.9-13.5,32.6l0,0c9.6,20.2-11.5,41.3-31.7,31.7
			l0,0c-12.7-6-27.9,0.2-32.6,13.5l0,0c-7.5,21.1-37.3,21.1-44.8,0l0,0c-4.7-13.3-19.9-19.5-32.6-13.5l0,0
			c-20.2,9.6-41.3-11.5-31.7-31.7l0,0c6-12.7-0.2-27.9-13.5-32.6l0,0c-21.1-7.5-21.1-37.3,0-44.8l0,0c13.3-4.7,19.5-19.9,13.5-32.6
			l0,0c-9.6-20.2,11.5-41.3,31.7-31.7l0,0c12.7,6,27.9-0.2,32.6-13.5l0,0C537.1,207.2,566.9,207.2,574.4,228.3z"/>
		<path class="st0" d="M552,100.1c-136.4,0-250,99.2-276.7,231.2c-4.7,23.4-3.9,47.6,2.1,70.7l44.4,171.9h460.5L826.6,402
			c6-23.1,6.8-47.3,2.1-70.7C802,199.4,688.4,100.1,552,100.1z"/>
		<path class="st0" d="M782.2,573.9l100.9,141.9c9.1,12.8,14,28.1,14,43.7v196.2h-75.4c0,0-40.6-164.4-269.7-164.4
			c-229.2,0-269.7,164.4-269.7,164.4h-75.4V759.5c0-15.7,4.9-31,14-43.7l100.9-141.9"/>
		<line class="st0" x1="269.4" y1="735.4" x2="834.5" y2="735.4"/>
		<path class="st0" d="M747.6,652.9c0,21.8-87.6,39.4-195.6,39.4s-195.6-17.6-195.6-39.4c0-21.8,87.6-39.4,195.6-39.4
			S747.6,631.2,747.6,652.9z"/>
		<path class="st0" d="M310.6,898.6h68.7c0,0,72-107.4,172.7-107.4"/>
		<path class="st0" d="M793.3,898.6h-68.7c0,0-72-107.4-172.7-107.4"/>
		<path class="st0" d="M220.9,715.8V527.5c0-33.3,12-65.4,33.9-90.5l23.5-31.7"/>
		<path class="st0" d="M878,715.8V527.5c0-33.3-12-65.4-33.9-90.5l-19.4-26.2"/>
	</g>
</g>
</svg>
