<?xml version="1.0" encoding="utf-8"?>
<!-- Generator: Adobe Illustrator 24.1.0, SVG Export Plug-In . SVG Version: 6.00 Build 0)  -->
<svg version="1.1" id="Capa_1" xmlns="http://www.w3.org/2000/svg" xmlns:xlink="http://www.w3.org/1999/xlink" x="0px" y="0px"
	 viewBox="0 0 1080 1080" style="enable-background:new 0 0 1080 1080;" xml:space="preserve">
<style type="text/css">
	.st0{fill:#FFFFFF;}
</style>
<path class="st0" d="M923,665.1v-183c0.2-71.9-40.2-137.7-104.5-169.9c-8.8-4.4-19.5-0.9-23.9,7.9c-4.4,8.8-0.9,19.5,7.9,23.9l0,0
	c52.2,26.2,85.2,79.7,85,138.1v167.5c-13.3-3.8-27.1-5.8-41-5.8h-47.6v-27.1c30.5-21.5,48.7-56.4,48.7-93.8v-54.5
	c0-9.8-8-17.8-17.8-17.8l0,0h-32.2c-10.9,0-21.2-4.6-28.5-12.6c4.6-10.3,7-21.5,7-32.9c0-9.8-8-17.8-17.8-17.8s-17.8,8-17.8,17.8
	c0,0,0,0,0,0c0,25.1-20.3,45.4-45.4,45.5h-59.3c-9.8,0-17.8,8-17.8,17.8v0V523c0,37.2,18,72,48.3,93.5v27.4h-53.9
	c-10-9.1-21.7-16.2-34.3-21V482.1c-0.1-58.4,32.7-111.8,84.8-138c8.7-4.5,12.1-15.3,7.6-24c-4.5-8.6-15-12-23.7-7.7
	c-64.1,32.3-104.5,98-104.3,169.8v133H416.1v-26.3c36.3-24,59.5-67.1,59.5-118.4v-47.2c21.3-22.1,33.3-51.6,33.2-82.3V294l5.9,5.9
	c13.8,13.8,36.1,13.8,49.9,0l76.9-76.9c31.7-31.5,31.8-82.8,0.2-114.5c-27.2-27.3-70-31.7-102.1-10.3
	c-37.2-24.8-87.5-14.7-112.2,22.6c-21.4,32.2-17.1,75,10.3,102.2l52.8,52.8H338.2c-65.6,0.1-118.8,53.2-118.9,118.8V481
	c0,43.8,22.5,84.6,59.5,108.1v26h-61.1c-73.3,0-132.9,59.6-132.9,132.9v158.2c0,49.1,39.8,88.9,88.9,88.9h732.6
	c49.1-0.1,88.9-39.8,88.9-88.9V792.7C995.2,740.4,967.8,692,923,665.1z M463,197.8c-17.6-17.9-17.3-46.6,0.6-64.2
	c17.6-17.3,45.9-17.3,63.6,0c6.9,6.9,18.2,6.9,25.2,0c17.6-17.9,46.3-18.2,64.2-0.6c17.9,17.6,18.2,46.3,0.6,64.2
	c-0.2,0.2-0.4,0.4-0.6,0.6l-76.7,76.7L463,197.8z M653.5,523v-36.7H695c19.3,0,37.9-6.9,52.6-19.4c13.7,12.5,31.5,19.4,50,19.4H812
	V523c0.5,43.8-34.6,79.6-78.4,80.1s-79.6-34.6-80.1-78.4C653.5,524.2,653.5,523.6,653.5,523L653.5,523z M763.3,633.6v31
	c0,17-13.8,30.7-30.7,30.7c-17,0-30.7-13.8-30.7-30.7v-31.1C721.9,639.2,743.2,639.2,763.3,633.6z M539.8,651.4
	c40.1,0,72.7,32.5,72.7,72.7c0,40.1-32.5,72.7-72.7,72.7c-40.1,0-72.7-32.5-72.7-72.7c0,0,0,0,0,0
	C467.2,684,499.7,651.5,539.8,651.4z M254.9,394.6c0.1-46,37.3-83.3,83.3-83.3h135.2v29.6c0,46-37.3,83.3-83.3,83.3H254.9V394.6z
	 M254.9,481v-21.2H390c17.3,0,34.4-3.8,50.1-11.1v21.8c0,59.8-39,103.2-92.6,103.2C296.3,573.5,254.9,532.1,254.9,481L254.9,481z
	 M380.6,604.8v31.2c-0.3,18.3-15.4,32.8-33.7,32.5c-17.8-0.3-32.2-14.7-32.5-32.5v-31.3C336,610.6,358.9,610.6,380.6,604.8z
	 M353,959.6H173.7c-29.4,0-53.3-23.9-53.3-53.3V748c0.1-53.7,43.6-97.3,97.4-97.4h62.6c8,37,44.6,60.6,81.7,52.5
	c26.3-5.7,46.8-26.2,52.5-52.5h45.8c-40.5,43.7-38,112.1,5.8,152.6c1.7,1.6,3.4,3.1,5.2,4.5c-29.3,11.9-54.2,32.6-71.2,59.3H212.6
	c-9.8,0.2-17.6,8.4-17.4,18.2c0.2,9.5,7.9,17.1,17.4,17.4H353V959.6z M412,959.6h-23.4v-56.9H412c15.7-0.3,28.7,12.2,29,27.9
	c0.3,15.7-12.2,28.7-27.9,29C412.7,959.6,412.4,959.6,412,959.6L412,959.6z M610.2,959.6H469.4c15.7-31.6,2.9-70-28.7-85.7
	c-0.3-0.2-0.7-0.3-1-0.5c22.1-26.1,54.5-41.1,88.6-41.1h23.2c34.2,0,66.6,15,88.6,41.1c-31.9,15.1-45.5,53.3-30.3,85.2
	C609.9,958.9,610,959.2,610.2,959.6L610.2,959.6z M690.9,959.6h-23.4c-15.7,0.3-28.7-12.2-29-27.9c-0.3-15.7,12.2-28.7,27.9-29
	c0.4,0,0.7,0,1.1,0H691L690.9,959.6z M959.6,906.3c0,29.4-23.9,53.3-53.3,53.3H726.5v-56.9h140.4c9.8-0.2,17.6-8.4,17.4-18.2
	c-0.2-9.5-7.9-17.1-17.4-17.4H679.4c-17-26.7-41.9-47.5-71.2-59.3c38-31,50.4-83.7,30.1-128.4h29.6c8.1,35.7,43.6,58,79.3,49.9
	c24.8-5.7,44.2-25.1,49.9-49.9h49.2c62.5,0.1,113.2,50.7,113.2,113.2L959.6,906.3L959.6,906.3z"/>
<path class="st0" d="M732.6,327.3c9.8,0,17.8-8,17.8-17.8c0-9.8-8-17.8-17.8-17.8s-17.8,8-17.8,17.8c0,4.7,1.9,9.3,5.2,12.6
	C723.4,325.4,727.9,327.3,732.6,327.3z"/>
</svg>
