<?xml version="1.0" encoding="utf-8"?>
<!-- Generator: Adobe Illustrator 24.1.0, SVG Export Plug-In . SVG Version: 6.00 Build 0)  -->
<svg version="1.1" id="Capa_1" xmlns="http://www.w3.org/2000/svg" xmlns:xlink="http://www.w3.org/1999/xlink" x="0px" y="0px"
	 viewBox="0 0 1080 1080" style="enable-background:new 0 0 1080 1080;" xml:space="preserve">
<style type="text/css">
	.st0{fill:#FFFFFF;}
</style>
<g id="Page-1">
	<g id="_028---Coloured-Pencil">
		<path id="Shape" class="st0" d="M795.7,116.2c-29-28.9-76-28.9-105,0L160.1,646.9l-7.2,7.2c-11.2,11.1-18.5,25.6-20.9,41.2
			l-36.8,238c-4.2,24.2,12.1,47.3,36.3,51.5c2.5,0.4,5,0.6,7.6,0.6c2.5,0,4.9-0.2,7.4-0.6L384.6,948c15.6-2.4,30-9.7,41.2-20.9
			l7.2-7.2l530.7-530.7c29-29,29-76,0-105c0,0,0,0,0,0L795.7,116.2z M679.3,169.7c23-11.8,51.3-2.7,63.1,20.4
			c6.9,13.4,6.8,29.4-0.1,42.8L275.7,699.4c-4.8-32.6-30.3-58.2-62.9-63.2L679.3,169.7z M826.6,316.4L359.7,783.2
			c-4.9-32.5-30.4-58-62.9-62.9l466.8-466.8c23.2-11.6,51.3-2.3,63,20.9C833.2,287.6,833.2,303.1,826.6,316.4L826.6,316.4z
			 M141.6,955.5c-8.1,1.4-15.8-4-17.2-12.1c-0.3-1.7-0.3-3.5,0-5.3l10.1-65.8c35.8,9.4,63.7,37.3,73.1,73.1L141.6,955.5z
			 M380.1,918.6l-142.9,22.1c-11.6-48.5-49.5-86.4-98-98l22.1-142.9c1.4-9.4,5.8-18,12.5-24.8l5.4-5.4c18.1-8.7,39.7-5.3,54.3,8.5
			c14.2,15.2,17.4,37.6,8,56.1c-3.9,7.2-1.1,16.2,6.1,20.1c4.3,2.3,9.5,2.3,13.9,0c22.7-12.6,51.4-4.4,64,18.4
			c7.9,14.2,7.9,31.4,0,45.6c-3.8,7.2-1.1,16.2,6.2,20.1c4.3,2.3,9.5,2.3,13.8,0c18.5-9.4,40.9-6.3,56.1,7.9
			c13.9,14.6,17.3,36.3,8.5,54.4l-5.4,5.4C398.1,912.9,389.5,917.2,380.1,918.6L380.1,918.6z M422.7,825.4
			c-11.3-11.5-26.1-18.9-42-21.2l466.5-466.5c23-11.8,51.3-2.8,63.1,20.3c6.9,13.4,6.9,29.2,0.1,42.6L443.8,867.2
			C441.6,851.3,434.1,836.6,422.7,825.4L422.7,825.4z M943.9,366.9c-2.3-15.8-9.7-30.4-21.1-41.6c-16.4-16.5-39.5-24.4-62.5-21.5
			c5.1-41.3-24.3-78.9-65.6-84c-6.1-0.8-12.3-0.8-18.4,0c3-23.1-5-46.2-21.5-62.6c-11.2-11.4-25.8-18.8-41.6-21.1
			c17.5-16.2,44.7-15.8,61.7,1.1l167.9,168C959.7,322.2,960.2,349.5,943.9,366.9L943.9,366.9z"/>
	</g>
</g>
</svg>
