<?xml version="1.0" encoding="utf-8"?>
<!-- Generator: Adobe Illustrator 24.1.0, SVG Export Plug-In . SVG Version: 6.00 Build 0)  -->
<svg version="1.1" id="Capa_1" xmlns="http://www.w3.org/2000/svg" xmlns:xlink="http://www.w3.org/1999/xlink" x="0px" y="0px"
	 viewBox="0 0 1080 1080" style="enable-background:new 0 0 1080 1080;" xml:space="preserve">
<style type="text/css">
	.st0{fill:#FFFFFF;stroke:#FFFFFF;stroke-width:10;stroke-miterlimit:10;}
</style>
<path class="st0" d="M687.3,801.7H518.1c4.8-7.9,7.9-19,6.3-28.5c0-14.2-7.9-28.5-19-39.5L353.6,599.3c-10.5-9.3-24-14.3-38-14.2
	h-85.4v-15.8c0-7.8-6.3-14.2-14.1-14.2c0,0-0.1,0-0.1,0H100.6c-7.8,0-14.2,6.3-14.2,14.1c0,0,0,0.1,0,0.1v115.4
	c0,7.9,6.4,14.2,14.2,14.2c7.9,0,14.2-6.4,14.2-14.2V583.5h88.6v204h-88.6V748c0-7.9-6.4-14.2-14.2-14.2c-7.9,0-14.2,6.4-14.2,14.2
	v52.2c0,7.8,6.3,14.2,14.1,14.2c0,0,0.1,0,0.1,0h115.4c7.8,0,14.2-6.3,14.2-14.1c0,0,0-0.1,0-0.1v-15.8h11.1l142.3,115.4
	c10.6,9,24,14.1,38,14.2h39.5c7.9,0,14.2-6.4,14.2-14.2c0-7.9-6.4-14.2-14.2-14.2l0,0h-39.5c-7.9,0-15.8-3.2-22.1-7.9L254,759
	c-3.2-1.6-4.7-3.2-7.9-3.2h-15.8V612h85.4c7.9,0,14.2,3.2,20.6,7.9L488,754.3c5.9,4.6,9.3,11.6,9.5,19c0,7.9-3.2,14.2-7.9,20.5
	c-9.5,9.5-26.9,11.1-36.4,1.6L371,722.7c-6.3-4.8-14.2-4.8-19,1.6s-4.7,14.2,1.6,19l82.3,72.8c11.1,11,26.9,14.2,41.1,12.6h210.3
	c9.5,0,15.8,7.9,17.4,15.8c-0.3,23.5-19.2,42.4-42.7,42.7H524.4c-7.9,0-14.2,6.4-14.2,14.2c0,7.9,6.4,14.2,14.2,14.2H662
	c18.4-0.1,36-7.5,49-20.6c12.7-12.7,20.6-31.6,20.6-49c0-24.4-19.7-44.2-44.1-44.3C687.4,801.7,687.3,801.7,687.3,801.7z"/>
<path class="st0" d="M997.2,245.1c7.8,0,14.2-6.3,14.2-14.1c0,0,0-0.1,0-0.1v-52.2c0-7.8-6.3-14.2-14.1-14.2c0,0-0.1,0-0.1,0H881.8
	c-7.8,0-14.2,6.3-14.2,14.1c0,0,0,0.1,0,0.1v47.4H641.4c-63.2,0-113.8,52.2-113.8,113.8v121.8c0,7.8,6.3,14.2,14.1,14.2
	c0,0,0.1,0,0.1,0h107.5c7.8,0,14.2-6.3,14.2-14.1c0,0,0-0.1,0-0.1V360.6h88.5c7.9,0,14.2-6.4,14.2-14.2s-6.4-14.2-14.2-14.2
	c0,0,0,0,0,0H649.3c-7.8,0-14.2,6.3-14.2,14.1c0,0,0,0.1,0,0.1v47.4h-80.7v-50.6c-0.2-47.9,38.5-86.8,86.4-87c0.2,0,0.4,0,0.6,0
	h227.7v80.6h-55.4c-7.9,0-14.2,6.4-14.2,14.2c0,7.9,6.4,14.2,14.2,14.2h55.3v47.4c-0.1,7.8,6.2,14.2,14,14.3c0.1,0,0.1,0,0.2,0
	h115.4c7.8,0,14.2-6.3,14.2-14.1c0,0,0-0.1,0-0.1v-117c0-7.9-6.4-14.2-14.2-14.2c-7.9,0-14.2,6.4-14.2,14.2v102.8H896v-204h88.5
	v37.9c-0.1,6.9,5.4,12.5,12.3,12.6C997,245.1,997.1,245.1,997.2,245.1L997.2,245.1z M635.1,423.8v26.9h-80.6v-26.9H635.1z"/>
<path class="st0" d="M605.1,578.8c0-19-25.3-56.9-33.2-68c-3.2-3.2-6.3-6.3-11.1-6.3s-7.9,1.6-11.1,6.3c-7.9,11.1-33.2,47.4-33.2,68
	c0,24.4,19.7,44.2,44.1,44.3c0,0,0.1,0,0.1,0C586.1,623,605.1,604.1,605.1,578.8z M560.8,596.2c-9.6-0.1-17.3-7.8-17.4-17.4
	c0-4.7,7.9-19,17.4-34.8c9.5,15.8,17.4,30,17.4,34.8C578.1,588.3,570.4,596.1,560.8,596.2L560.8,596.2z"/>
<path class="st0" d="M650.9,730.6c24.4,0,44.2-19.7,44.3-44.1c0-0.1,0-0.1,0-0.2c0-19-25.3-56.9-33.2-68c-3.2-3.2-6.3-6.3-11.1-6.3
	s-7.9,1.6-11.1,6.3c-7.9,11.1-33.2,47.4-33.2,68C606.7,710,627.2,730.6,650.9,730.6z M650.9,651.5c9.5,15.8,17.4,30,17.4,34.8
	c0,9.6-7.8,17.4-17.4,17.4c-9.6,0-17.4-7.8-17.4-17.4C633.5,681.5,641.4,667.3,650.9,651.5z"/>
<path class="st0" d="M650.9,572.5c7.8,0,14.2-6.3,14.2-14.1c0,0,0-0.1,0-0.1v-39.5c0-7.9-6.4-14.2-14.2-14.2
	c-7.9,0-14.2,6.4-14.2,14.2l0,0v39.5C638.3,566.1,643,572.5,650.9,572.5z"/>
<path class="st0" d="M549.7,653.1c-7.8,0-14.2,6.3-14.2,14.1c0,0,0,0.1,0,0.1v39.5c0,7.9,6.4,14.2,14.2,14.2
	c7.9,0,14.2-6.4,14.2-14.2v-39.5c0-7.8-6.3-14.2-14.1-14.2C549.8,653.1,549.8,653.1,549.7,653.1z"/>
<path class="st0" d="M459.6,645.2h3.2c6.3,0,11.1-3.2,12.6-9.5l33.2-112.3c1.6-7.9-1.6-14.2-9.5-17.4c-7.9-1.6-14.2,1.6-17.4,9.5
	l-33.2,112.3C446.9,635.7,451.7,642,459.6,645.2z"/>
<path class="st0" d="M717.3,515.5c-1.6-7.9-9.5-11.1-17.4-9.5s-11.1,9.5-9.5,17.4l66.4,223c1.6,6.3,7.9,9.5,12.7,9.5h3.2
	c7.9-1.6,11.1-9.5,9.5-17.4L717.3,515.5z"/>
</svg>
