<?xml version="1.0" encoding="utf-8"?>
<!-- Generator: Adobe Illustrator 24.1.0, SVG Export Plug-In . SVG Version: 6.00 Build 0)  -->
<svg version="1.1" id="Capa_1" xmlns="http://www.w3.org/2000/svg" xmlns:xlink="http://www.w3.org/1999/xlink" x="0px" y="0px"
	 viewBox="0 0 1080 1080" style="enable-background:new 0 0 1080 1080;" xml:space="preserve">
<style type="text/css">
	.st0{fill:#FFFFFF;stroke:#FFFFFF;stroke-width:6;stroke-miterlimit:10;}
</style>
<path class="st0" d="M780.6,575.6H891v22.1H780.6V575.6z"/>
<path class="st0" d="M659.2,575.6h99.3v22.1h-99.3V575.6z"/>
<path class="st0" d="M758.6,531.4h77.2v22.1h-77.2V531.4z"/>
<path class="st0" d="M703.4,531.4h33.1v22.1h-33.1V531.4z"/>
<path class="st0" d="M714.4,619.7h110.3v22.1H714.4V619.7z"/>
<path class="st0" d="M427.5,774.2h33.1v22.1h-33.1V774.2z"/>
<path class="st0" d="M482.7,752.1h33.1v22.1h-33.1V752.1z"/>
<path class="st0" d="M482.7,697h33.1v22h-33.1V697z"/>
<path class="st0" d="M604.1,774.2h33.1v22.1h-33.1V774.2z"/>
<path class="st0" d="M593,697h33.1v22H593V697z"/>
<path class="st0" d="M548.9,641.8H582v22.1h-33.1V641.8z"/>
<path class="st0" d="M648.2,741.1h33.1v22.1h-33.1V741.1z"/>
<path class="st0" d="M943.7,182.5c-2.1-2.6-5.3-4.1-8.6-4.1h-331c-3.4,0-6.5,1.5-8.6,4.1l-44.1,55.2c-1.6,2-2.4,4.4-2.4,6.9v343.1
	c-13.2,2.5-25.1,9.4-33.8,19.6l-184.3,215c-4,4.6-3.5,11.5,1.1,15.5c2,1.8,4.6,2.7,7.3,2.7h595.8c2.9,0,5.7-1.2,7.8-3.2l44.1-44.1
	c2.1-2.1,3.2-4.9,3.2-7.8V244.5c0-2.5-0.9-4.9-2.4-6.9L943.7,182.5z M609.4,200.4h320.4l38.4,48v117.5h-99.9
	c-6.1-54.5-55.2-93.8-109.7-87.7c-46.1,5.1-82.6,41.6-87.7,87.7H571V248.4L609.4,200.4z M604.8,607.2c-8.7-10.2-20.6-17.1-33.8-19.5
	V388h100c6.1,54.5,55.2,93.7,109.7,87.7c46.1-5.2,82.5-41.5,87.7-87.7h99.9v342.1H710L604.8,607.2z M791.7,424.8l30.9-41.2
	l-17.7-13.2l-14.4,19.2c-1-6.6-2.8-13-5.3-19.2l16.3-32.6l-19.7-9.9l-9.9,19.7c-8.3-10.3-18.7-18.7-30.5-24.6l-9.9,19.7
	c9.2,4.6,17.3,11.2,23.6,19.3l-27-6.8l-5.4,21.4l44.1,11c0.2,0.1,0.5,0.1,0.7,0.1c1.3,5.4,2,10.9,2,16.4v2.8l-30.4-7.6l-5.3,21.4
	l35.8,9v24.4c-42.7,0-77.3-34.6-77.3-77.3s34.6-77.3,77.3-77.3c42.7,0,77.3,34.6,77.3,77.3c0,34.2-22.5,64.4-55.3,74.1V424.8z
	 M363.2,818.3l168.6-196.8c13.3-15.5,36.6-17.3,52.1-4c0,0,0,0,0,0c1.4,1.2,2.8,2.6,4,4l168.7,196.8H363.2z M930.6,818.3H785.7
	L729,752.1h239.2v28.5L930.6,818.3z"/>
<path class="st0" d="M458.1,447.5c2.7-1,5.3-2.1,7.9-3.2c37.5-17.5,55.8-56,56.6-57.6c2.1-4.4,0.2-9.6-4.2-11.6
	c-0.5-0.2-1-0.4-1.5-0.5c-1.7-0.5-43-11.2-80.5,6.3c-19.3,9-33.4,23.2-42.6,35.1c-3.2-11.6-7.7-22.8-13.2-33.5
	c-2.2-4.3-7.5-6-11.8-3.7c-4.2,2.2-5.9,7.3-3.9,11.5c1.1,2.6,10.1,17.8,14.3,40.3c-48.7,3.9-91.8,32.8-113.9,76.4
	c-24.8-8-51.3-8.9-76.6-2.8c-4.6,1.4-7.3,6.2-5.9,10.9c1.3,4.3,5.7,7,10.1,6.1c9.6-2.3,19.4-3.5,29.3-3.5
	c66.5,0,122.6,53.2,122.6,122.6c0,67.7-54.9,122.6-122.6,122.6c-67.7,0-122.6-54.9-122.6-122.6c0-32.9,13.2-64.4,36.7-87.5
	c3.7-3.1,4.2-8.7,1-12.3c-3.1-3.7-8.7-4.2-12.3-1c-0.3,0.3-0.6,0.6-0.9,0.9c-27,26.3-42.1,62.4-42,100
	c0,77.2,62.9,140.1,140.1,140.1c52.8,0,101.1-29.7,125-76.8c13.9,4.5,28.5,6.8,43.1,6.8c77.2,0,140.1-62.8,140.1-140.1
	C530.3,519.2,502.7,472.2,458.1,447.5z M443.7,396.7c20.8-9.7,43.7-9,57.1-7.3c-7.3,11.3-21.5,29.3-42.3,39
	c-8.8,4-18.3,6.6-27.9,7.6c-8.5-2.6-17.3-4.3-26.1-5.2C412.2,420.1,425.3,405.3,443.7,396.7L443.7,396.7z M390.2,692.8
	c-12.3,0-24.5-1.8-36.2-5.4c24.2-68-7.1-143.3-72.5-174c21-40.1,62.4-65.4,107.7-65.8h0.9c67.7,0.6,122.1,56,121.5,123.7
	C511,638.1,457,692.2,390.2,692.8L390.2,692.8z"/>
<path class="st0" d="M222.1,745.3c57.3,0,105.1-46.5,105.1-105.1c0-58-47-105.1-105.1-105.1S117,582.2,117,640.2
	C117,697.6,163.6,745.3,222.1,745.3z M154.3,584.8l44.1,44.1c-0.4,0.8-0.8,1.7-1.1,2.6h-62.4C136.6,614.3,143.4,598.1,154.3,584.8z
	 M309.2,631.5h-62.4c-0.3-0.9-0.7-1.7-1.1-2.6l44.1-44.1C300.8,598.1,307.5,614.4,309.2,631.5L309.2,631.5z M289.8,695.6l-44.1-44.1
	c0.4-0.8,0.8-1.7,1.1-2.6h62.4C307.5,666.1,300.8,682.3,289.8,695.6L289.8,695.6z M230.8,640.2c0,4.8-3.9,8.8-8.8,8.8
	s-8.8-3.9-8.8-8.8c0-4.8,3.9-8.8,8.8-8.8C226.9,631.5,230.8,635.4,230.8,640.2L230.8,640.2z M210.8,663.9c0.8,0.4,1.7,0.8,2.6,1.1
	v62.3c-17.1-1.7-33.4-8.4-46.6-19.4L210.8,663.9z M230.8,665c0.9-0.3,1.7-0.7,2.6-1.1l44.1,44.1c-13.3,10.9-29.5,17.7-46.6,19.4
	L230.8,665z M233.4,616.5c-0.8-0.4-1.7-0.8-2.6-1.1v-62.3c17.1,1.7,33.4,8.4,46.6,19.4L233.4,616.5z M213.3,615.4
	c-0.9,0.3-1.7,0.7-2.6,1.1l-44.1-44c13.3-10.9,29.5-17.7,46.6-19.4V615.4z M197.3,649c0.3,0.9,0.7,1.7,1.1,2.6l-44.1,44.1
	c-10.9-13.3-17.7-29.5-19.4-46.6L197.3,649z"/>
<path class="st0" d="M158.1,516.8c-4.8,0-8.8,3.9-8.8,8.8s3.9,8.8,8.7,8.8c4.8,0,8.8-3.9,8.8-8.7c0,0,0,0,0,0
	C166.9,520.7,163,516.8,158.1,516.8z"/>
</svg>
