<?xml version="1.0" encoding="utf-8"?>
<!-- Generator: Adobe Illustrator 24.1.0, SVG Export Plug-In . SVG Version: 6.00 Build 0)  -->
<svg version="1.1" id="Capa_1" xmlns="http://www.w3.org/2000/svg" xmlns:xlink="http://www.w3.org/1999/xlink" x="0px" y="0px"
	 viewBox="0 0 1080 1080" style="enable-background:new 0 0 1080 1080;" xml:space="preserve">
<style type="text/css">
	.st0{fill:#FFFFFF;stroke:#FFFFFF;stroke-width:3;stroke-miterlimit:10;}
</style>
<path class="st0" d="M920.3,463.5H793.5v-32.7c0-8.5-6.9-15.5-15.5-15.5H444.2c-8.5-0.2-15.6,6.5-15.8,15.1s6.5,15.6,15.1,15.8
	c0.3,0,0.5,0,0.8,0h318.4v118.5c-0.2,104.3-55.4,200.7-145.3,253.5H320.5C230.6,765.4,175.3,669,175.2,564.7V446.2h103.6
	c8.5,0.2,15.6-6.5,15.8-15.1s-6.5-15.6-15.1-15.8c-0.3,0-0.5,0-0.8,0h-119c-8.5,0-15.5,6.9-15.5,15.5v134
	c-0.1,98.7,44.8,192,121.9,253.5H159.7c-8.5,0-15.5,6.9-15.5,15.5l0,0c0.1,56.3,45.7,101.9,102,102h482.3
	c56.3-0.1,101.9-45.7,102-102c0-8.5-6.9-15.5-15.5-15.5c0,0,0,0,0,0H671.6c28.1-22.5,52.3-49.5,71.6-79.9h43.6
	c82.1,0,148.9-66.8,148.9-148.9V478.9C935.7,470.4,928.8,463.5,920.3,463.5z M798,849.2c-7.3,32.5-36.1,55.6-69.4,55.7H246.3
	c-33.3,0-62.1-23.2-69.4-55.7H798z M793.5,564.7v-8.5H843v33.2c0,31-25.2,56.1-56.2,56.2h-3.5C790.1,619.2,793.5,592,793.5,564.7z
	 M904.8,589.5c-0.1,65.1-52.9,117.9-118,118h-26.3c4.9-10.1,9.3-20.4,13.2-30.9h13.1c48.1,0,87-39,87.1-87.1v-48.7
	c0-8.5-6.9-15.5-15.5-15.5h-64.9v-30.9h111.3V589.5z"/>
<path class="st0" d="M483.6,229.8l-8-10.1c-11.8-14.7-11.8-35.7,0-50.4c5.3-6.7,4.1-16.4-2.6-21.7c-6.7-5.2-16.3-4.1-21.6,2.5
	c-20.8,26-20.7,62.9,0.1,88.9l8,10.1c15.4,19.2,15.5,46.6,0.1,65.8l-8.2,10.4c-5.3,6.7-4.2,16.4,2.5,21.7s16.4,4.2,21.7-2.5l0,0
	l8.2-10.4C508.2,303.6,508.1,260.3,483.6,229.8z"/>
<path class="st0" d="M569.3,264.6l-8-10.1c-11.8-14.7-11.8-35.7,0-50.4c5.3-6.7,4.2-16.4-2.5-21.8c-6.7-5.3-16.4-4.2-21.8,2.5
	c-20.8,26-20.8,62.9,0.1,88.9l8,10.1c15.4,19.2,15.5,46.6,0.1,65.8l-8.1,10.4c-5.5,6.6-4.6,16.3,2,21.8c6.6,5.5,16.3,4.6,21.8-2
	c0.2-0.2,0.3-0.4,0.4-0.6l8.2-10.4C593.8,338.4,593.8,295,569.3,264.6z"/>
<path class="st0" d="M398,264.6l-8-10.1c-11.8-14.7-11.8-35.7,0-50.4c5.3-6.7,4.1-16.4-2.6-21.7c-6.7-5.2-16.3-4.1-21.6,2.5
	c-20.8,26-20.7,62.9,0.1,88.9l8,10.1c15.4,19.2,15.5,46.6,0.1,65.8l-8.2,10.4c-5.3,6.7-4.3,16.4,2.4,21.7s16.4,4.3,21.7-2.4
	c0,0,0.1-0.1,0.1-0.1l8.2-10.4C422.5,338.4,422.5,295,398,264.6z"/>
<path class="st0" d="M376.6,419.8c-6-6-15.8-6-21.9,0c-6,6-6,15.8,0,21.9c6,6,15.8,6,21.9,0c2.9-2.9,4.5-6.8,4.5-10.9
	C381.1,426.7,379.5,422.7,376.6,419.8z"/>
<path class="st0" d="M703.8,549.3c-8.5,0-15.5,6.9-15.5,15.5c-0.2,57.9-23.2,113.5-63.9,154.7c-6,6.1-6,15.9,0.1,21.9
	s15.9,6,21.9-0.1c46.3-46.7,72.8-111,72.8-176.5C719.4,556.2,712.4,549.3,703.8,549.3C703.9,549.3,703.9,549.3,703.8,549.3z"/>
<path class="st0" d="M598.6,761.4c-4.2-7.4-13.6-10.1-21-5.9c0,0,0,0,0,0l-0.3,0.2c-7.4,4.2-10.1,13.6-5.9,21.1s13.6,10.1,21.1,5.9
	l0.3-0.2C600.1,778.3,602.8,768.9,598.6,761.4C598.6,761.4,598.6,761.4,598.6,761.4z"/>
</svg>
