<?xml version="1.0" encoding="utf-8"?>
<!-- Generator: Adobe Illustrator 24.1.0, SVG Export Plug-In . SVG Version: 6.00 Build 0)  -->
<svg version="1.1" id="Capa_1" xmlns="http://www.w3.org/2000/svg" xmlns:xlink="http://www.w3.org/1999/xlink" x="0px" y="0px"
	 viewBox="0 0 1080 1080" style="enable-background:new 0 0 1080 1080;" xml:space="preserve">
<style type="text/css">
	.st0{fill:#FFFFFF;stroke:#FFFFFF;stroke-width:6;stroke-miterlimit:10;}
</style>
<g id="Outlines">
	<path class="st0" d="M247.9,679.5c7.9,0,14.2-6.4,14.2-14.2V141h441.7c7.9,0,14.2-6.4,14.2-14.3s-6.4-14.2-14.2-14.2h-456
		c-7.9,0-14.2,6.4-14.2,14.2v538.5C233.6,673.1,240,679.5,247.9,679.5C247.9,679.5,247.9,679.5,247.9,679.5z"/>
	<path class="st0" d="M917.6,473.6V426c-0.1-25.9-17.7-48.5-42.8-55v-16.2c0-10.5-4-20.7-11.1-28.5c15.8-17.2,14.6-44-2.6-59.8
		c-4.5-4.1-9.8-7.2-15.6-9.1c-6.8-54.7-56.7-93.4-111.3-86.6c-45.3,5.7-80.9,41.3-86.6,86.6c-22.2,7.2-34.4,31.1-27.2,53.3
		c1.9,5.8,5,11.1,9,15.5c-7.1,7.8-11.1,17.9-11.1,28.5V371c-25.1,6.5-42.7,29.1-42.8,55v47.6c0,18.9,7.5,37,20.9,50.4
		c16.7,16.7,16.7,43.7,0,60.4c-13.4,13.3-20.9,31.5-20.9,50.4v104.7c0,7.9,6.4,14.2,14.2,14.2s14.2-6.4,14.2-14.2V634.9
		c0-11.3,4.5-22.2,12.5-30.2c27.8-27.8,27.8-72.9,0-100.7c-8-8-12.5-18.9-12.5-30.2V426c0-15.7,12.8-28.5,28.5-28.5l0,0h228
		c15.7,0,28.5,12.8,28.5,28.5v47.6c0,11.3-4.5,22.2-12.5,30.2c-27.8,27.8-27.8,72.9,0,100.7c8,8,12.5,18.9,12.5,30.2v33.4H732.4
		c-7.9,0-14.2,6.4-14.2,14.2l0,0V825c0,7.9,6.4,14.2,14.2,14.2l0,0h114c7.9,0,14.2-6.4,14.2-14.2s-6.4-14.2-14.2-14.2h-99.8v-114
		h142.5v213.7c0,15.7-12.7,28.5-28.5,28.5c0,0,0,0,0,0h-228c-15.7,0-28.5-12.8-28.5-28.5l0,0v-114c0-7.9-6.4-14.2-14.2-14.2
		s-14.2,6.4-14.2,14.2v114c0,31.5,25.5,57,57,57h228c31.5,0,57-25.5,57-57V634.9c0.1-18.9-7.5-37.1-20.9-50.4
		c-16.7-16.7-16.7-43.7,0-60.4C910.1,510.7,917.7,492.5,917.6,473.6z M746.6,198c33.8,0,63,23.8,69.8,57H676.8
		C683.6,221.8,712.8,198,746.6,198z M661.1,283.5h171c7.9,0,14.2,6.4,14.2,14.2S840,312,832.1,312h-171c-7.9,0-14.2-6.4-14.2-14.2
		S653.2,283.5,661.1,283.5z M646.9,369v-14.2c0-7.9,6.4-14.2,14.2-14.2l0,0h171c7.9,0,14.2,6.4,14.2,14.2l0,0V369H646.9z"/>
	<path class="st0" d="M333.4,682.5c-94.4,0.1-170.9,76.6-171,171v99.7c0,7.9,6.4,14.2,14.2,14.2l0,0h156.8c7.9,0,14.2-6.4,14.2-14.2
		s-6.4-14.2-14.2-14.2l0,0H190.9v-85.5c0-78.7,63.8-142.5,142.5-142.5s142.5,63.8,142.5,142.5l0,0V939h-85.5
		c-7.9,0-14.2,6.4-14.2,14.2s6.4,14.2,14.2,14.2h99.7c7.9,0,14.2-6.4,14.2-14.2l0,0v-99.8C504.3,759.1,427.8,682.6,333.4,682.5z"/>
	<path class="st0" d="M433.1,910.5c7.9,0,14.2-6.4,14.2-14.2l0,0v-42.7c-0.1-62.9-51.1-113.9-114-114c-7.9-0.2-14.4,6-14.6,13.9
		c-0.2,7.9,6,14.4,13.9,14.6c0.3,0,0.5,0,0.8,0c47.2,0,85.4,38.3,85.5,85.5v42.7C418.9,904.1,425.2,910.5,433.1,910.5
		C433.1,910.5,433.1,910.5,433.1,910.5z"/>
	<path class="st0" d="M532.9,454.5c7.9,0,14.2-6.4,14.2-14.2s-6.4-14.2-14.2-14.2H319.1c-7.9,0-14.2,6.4-14.2,14.2v199.5
		c0,7.9,6.4,14.3,14.2,14.3c0,0,0,0,0,0h213.7c7.9,0,14.2-6.4,14.2-14.2s-6.4-14.2-14.2-14.2H333.4v-171L532.9,454.5z"/>
	<path class="st0" d="M547.1,283.5H390.4c-7.9,0-14.2,6.4-14.2,14.2s6.4,14.2,14.2,14.2h156.7c7.9,0,14.2-6.4,14.2-14.2
		S555,283.5,547.1,283.5z"/>
	<path class="st0" d="M547.1,354.8H390.4c-7.9,0-14.2,6.4-14.2,14.2s6.4,14.2,14.2,14.2h156.7c7.9,0,14.2-6.4,14.2-14.2
		S555,354.8,547.1,354.8z"/>
</g>
</svg>
