<?xml version="1.0" encoding="utf-8"?>
<!-- Generator: Adobe Illustrator 24.1.0, SVG Export Plug-In . SVG Version: 6.00 Build 0)  -->
<svg version="1.1" id="Capa_1" xmlns="http://www.w3.org/2000/svg" xmlns:xlink="http://www.w3.org/1999/xlink" x="0px" y="0px"
	 viewBox="0 0 1080 1080" style="enable-background:new 0 0 1080 1080;" xml:space="preserve">
<style type="text/css">
	.st0{fill:#FFFFFF;stroke:#FFFFFF;stroke-width:5;stroke-miterlimit:10;}
</style>
<g id="outline">
	<path class="st0" d="M557.4,628.9l-12,25.2c-18.2,36.2-27.6,76.1-27.6,116.5v179c0,34.8,28.8,63.7,63.7,63.7h237.8
		c34.8,0,63.7-28.8,63.7-63.7v-197c0-49.2-7.2-97.3-20.4-144.2l-62.5-213.8v-61.3c0-18,14.4-33.6,32.4-36
		c8.4-1.2,14.4-7.2,14.4-15.6c0-58.9-48-106.9-106.9-106.9H486.5c-8.6,0.2-15.5,7.1-15.6,15.6v63.7c0.2,8.6,7.1,15.5,15.6,15.6h46.9
		c-2.4,43.4-15.6,85.5-38.4,122.5l-37.2,60.1c-4.8,7.2-2.4,16.8,4.8,21.6c2.6,1.3,5.5,2.2,8.4,2.4h63.6c4.8,0,9.6-2.4,13.2-7.2
		l32.4-45.6c14-20,25.3-41.9,33.6-64.9v37.2C611.5,477.5,593.5,556.8,557.4,628.9L557.4,628.9z M849.3,752.6v198.2
		c0.1,17.1-13.6,31.1-30.8,31.2c-0.2,0-0.3,0-0.5,0H580.2c-17.1,0.1-31.1-13.6-31.2-30.8c0-0.2,0-0.3,0-0.5V770.6
		c0-35.4,8.2-70.4,24-102.1l12-25.2c36-72.1,55.2-151.4,57.7-230.6H770l60.1,205.4C843.3,661.3,849.3,707,849.3,752.6L849.3,752.6z
		 M766.4,380.2H643.9V349h122.5V380.2z M812.1,269.7c-22,7.5-38.7,25.5-44.5,48H627.1v-63.6c-0.2-8.6-7.1-15.5-15.6-15.6h-48.1
		v-31.2h174.2C774.8,207.3,806.1,233.7,812.1,269.7z M501,207.3h31.2v31.2H501V207.3z M552.7,405.5L525,443.9h-26.4l21.6-34.8
		C546.6,367,561,319,564.6,269.7h32.4C595.9,318.4,580.5,365.6,552.7,405.5L552.7,405.5z"/>
	<path class="st0" d="M770,697.4H627.1c-17.1-0.1-31.1,13.6-31.2,30.8c0,0.2,0,0.3,0,0.5v189.8c-0.1,17.1,13.6,31.1,30.8,31.2
		c0.2,0,0.3,0,0.5,0H770c17.1,0.1,31.1-13.6,31.2-30.8c0-0.2,0-0.3,0-0.5V728.6c0.1-17.1-13.6-31.1-30.8-31.2
		C770.3,697.4,770.2,697.4,770,697.4z M770,918.4H627.1V728.6H770V918.4L770,918.4z"/>
	<path class="st0" d="M270.3,91.9l19.2-25.2l30,24L300.4,116L270.3,91.9z"/>
	<path class="st0" d="M390.5,189.2l19.2-25.2l30,24l-19.2,25.2L390.5,189.2z"/>
	<path class="st0" d="M330.4,141.2l19.2-25.2l30,24l-19.2,25.2L330.4,141.2z"/>
	<path class="st0" d="M352,207.3h38.4v31.2H352V207.3z"/>
	<path class="st0" d="M275.1,207.3h38.4v31.2h-38.4V207.3z"/>
	<path class="st0" d="M197.1,207.3h38.4v31.2h-38.4V207.3z"/>
	<path class="st0" d="M270.3,352.6l30-24l19.2,25.2l-30,24L270.3,352.6z"/>
	<path class="st0" d="M390.5,256.5l30-24l19.2,25.2l-30,24L390.5,256.5z"/>
	<path class="st0" d="M330.4,304.6l30-24l19.2,25.2l-30,24L330.4,304.6z"/>
	<path class="st0" d="M777.2,586.8c-8.2,2.2-13.1,10.7-10.9,18.9c0,0.1,0.1,0.2,0.1,0.3l0,0l4.8,15.6c2,8.4,10.4,13.6,18.8,11.6
		c8.4-2,13.6-10.4,11.6-18.8c-0.1-0.4-0.2-0.8-0.3-1.2l0,0l-4.8-15.6c-2.2-8.2-10.7-13.1-18.9-10.9
		C777.4,586.8,777.3,586.8,777.2,586.8z"/>
	<path class="st0" d="M743.6,476.3c-8.2,2.2-13.1,10.7-10.9,18.9c0,0.1,0.1,0.2,0.1,0.3l0,0l19.2,63.7c2,8.4,10.4,13.5,18.8,11.5
		c8.4-2,13.5-10.4,11.5-18.8c-0.1-0.4-0.2-0.8-0.3-1.2l0,0l-19.2-63.7c-2.2-8.2-10.7-13.1-18.9-10.9
		C743.8,476.3,743.7,476.3,743.6,476.3z"/>
</g>
</svg>
