<?xml version="1.0" encoding="utf-8"?>
<!-- Generator: Adobe Illustrator 24.1.0, SVG Export Plug-In . SVG Version: 6.00 Build 0)  -->
<svg version="1.1" id="Capa_1" xmlns="http://www.w3.org/2000/svg" xmlns:xlink="http://www.w3.org/1999/xlink" x="0px" y="0px"
	 viewBox="0 0 1080 1080" style="enable-background:new 0 0 1080 1080;" xml:space="preserve">
<style type="text/css">
	.st0{fill:#FFFFFF;}
</style>
<path class="st0" d="M442,573c7.1,0,12.9-5.8,12.9-12.9V421.4c0-7.1-5.8-12.9-12.9-12.9h-69.9c-7.1,0-12.9,5.8-12.9,12.9v138.7
	c0,7.1,5.8,12.9,12.9,12.9L442,573z M385,434.3h44.1v112.9H385V434.3z"/>
<path class="st0" d="M505,573h70c7.1,0,12.9-5.8,12.9-12.9V421.4c0-7.1-5.8-12.9-12.9-12.9h-70c-7.1,0-12.9,5.8-12.9,12.9v138.7
	C492.1,567.2,497.9,573,505,573C505,573,505,573,505,573z M517.9,434.3h44.1v112.9h-44.1V434.3z"/>
<path class="st0" d="M263,772.6c7.1,0,12.9-5.8,12.9-12.9c0,0,0,0,0,0V621.1c0-7.1-5.8-12.9-12.9-12.9h-69.9
	c-7.1,0-12.9,5.8-12.9,12.9v138.7c0,7.1,5.8,12.9,12.9,12.9h0H263z M206,634h44.1v112.8H206V634z"/>
<path class="st0" d="M817,772.6h69.9c7.1,0,12.9-5.8,12.9-12.9c0,0,0,0,0,0V621.1c0-7.1-5.8-12.9-12.9-12.9H817
	c-7.1,0-12.9,5.8-12.9,12.9c0,0,0,0,0,0v138.7C804.1,766.9,809.9,772.6,817,772.6C817,772.6,817,772.6,817,772.6z M829.8,634H874
	v112.8h-44.2V634z"/>
<path class="st0" d="M638,573h69.9c7.1,0,12.9-5.8,12.9-12.9V421.4c0-7.1-5.8-12.9-12.9-12.9H638c-7.1,0-12.9,5.8-12.9,12.9v138.7
	C625.1,567.2,630.8,573,638,573C638,573,638,573,638,573z M650.9,434.3H695v112.9h-44.1V434.3z"/>
<path class="st0" d="M527.1,237.6c0,7.1,5.8,12.9,12.9,12.9s12.9-5.8,12.9-12.9v-26.6h26.7c7.1,0.2,13.1-5.4,13.3-12.5
	s-5.4-13.1-12.5-13.3c-0.2,0-0.5,0-0.7,0h-26.7v-26.6c0-7.1-5.8-12.9-12.9-12.9s-12.9,5.8-12.9,12.9v26.6h-26.6
	c-7.1-0.2-13.1,5.4-13.3,12.5s5.4,13.1,12.5,13.3c0.2,0,0.5,0,0.7,0h26.6V237.6z"/>
<path class="st0" d="M967.2,475.2c7.1,0,12.9-5.8,12.9-12.9v-46.4c0-7.1-5.8-12.9-12.9-12.9l0,0H889c-7.1,0.2-12.7,6.1-12.5,13.3
	c0.2,6.8,5.7,12.3,12.5,12.5h65.3v20.6H768.1v-20.6h56.7c7.1-0.2,12.7-6.1,12.5-13.3c-0.2-6.8-5.7-12.3-12.5-12.5h-56.7v-60.4h19.8
	c7.1,0,12.9-5.8,12.9-12.9c0,0,0,0,0,0v-46.4c0-7.1-5.8-12.9-12.9-12.9l0,0h-115V112.8c0-7.1-5.8-12.9-12.9-12.9H420
	c-7.1,0-12.9,5.8-12.9,12.9v157.6h-115c-7.1,0-12.9,5.8-12.9,12.9c0,0,0,0,0,0v46.4c0,7.1,5.7,12.9,12.9,12.9c0,0,0,0,0,0h19.8V403
	H112.8c-7.1,0-12.9,5.8-12.9,12.9v46.4c0,7.1,5.8,12.9,12.9,12.9h5.7V560c-0.2,7.1,5.4,13.1,12.5,13.3c7.1,0.2,13.1-5.4,13.3-12.5
	c0-0.2,0-0.5,0-0.7v-84.8h167.6v430.4H144.3V624.1c-0.2-7.1-6.1-12.7-13.3-12.5c-6.8,0.2-12.3,5.7-12.5,12.5v281.5h-5.7
	c-7.1,0-12.9,5.8-12.9,12.9v48.8c0,7.1,5.8,12.9,12.9,12.9h854.5c7.1,0,12.9-5.8,12.9-12.9v-48.8c0-7.1-5.8-12.9-12.9-12.9h-5.7
	V475.2H967.2z M305,296.2h200.4c7.1,0,12.9-5.8,12.9-12.9c0-7.1-5.8-12.9-12.9-12.9h-72.5V125.7h214.2v144.7h-68.7
	c-7.1,0-12.9,5.8-12.9,12.9s5.8,12.9,12.9,12.9c0,0,0,0,0,0H775v20.6H305V296.2z M125.7,428.8h186.2v20.6H125.7V428.8z M337.7,342.6
	h404.7v563h-74.2v-204c0-7.1-5.8-12.9-12.9-12.9H424.8c-7.1,0-12.9,5.8-12.9,12.9v204h-74.2L337.7,342.6z M437.7,905.6V714.5h89.4
	v191.1L437.7,905.6z M552.9,714.5h89.4v191.1h-89.4V714.5z M954.3,954.3H125.7v-23h828.7V954.3z M935.7,905.6H768.1V475.2h167.6
	L935.7,905.6L935.7,905.6z"/>
</svg>
