<?xml version="1.0" encoding="utf-8"?>
<!-- Generator: Adobe Illustrator 24.1.0, SVG Export Plug-In . SVG Version: 6.00 Build 0)  -->
<svg version="1.1" id="Capa_1" xmlns="http://www.w3.org/2000/svg" xmlns:xlink="http://www.w3.org/1999/xlink" x="0px" y="0px"
	 viewBox="0 0 1080 1080" style="enable-background:new 0 0 1080 1080;" xml:space="preserve">
<style type="text/css">
	.st0{fill:#FFFFFF;stroke:#FFFFFF;stroke-width:6;stroke-miterlimit:10;}
	.st1{fill:none;stroke:#FFFFFF;stroke-width:34;stroke-miterlimit:10;}
</style>
<g id="Outline">
	<path class="st0" d="M861.8,478L709.4,258.7c-3.4-3.7-8.6-5.7-12.3-2.3l0,0L448.6,428.7l9.9,16.4L698,275.9l140.7,204.6
		l-137.1,96.2L426.5,448.9c-3.5-0.2-7-2.1-10.7,1.3L243.9,571.2c-3.7,3.4-5.7,8.6-2.3,12.3l0,0l152.5,219.3
		c3.4,3.7,8.6,5.7,12.3,2.3l0,0l449.6-313.3C863.1,488.6,865.1,483.4,861.8,478L861.8,478z M671.2,584l-108.8,19.7l-98.9-116
		L671.2,584z M407.3,783.9L264.8,579.3l29.2-19.9L434.8,764L407.3,783.9z M451.1,754.2L310.4,549.5l102.3-71.3l7.3-5l127.4,149.2
		c2.3,2.3,5.4,3.7,8.7,3.9l101.5-16.5L451.1,754.2z M697.8,316.5c-3.4-3.7-8.6-5.7-12.3-2.3l0,0l-58.5,41.5
		c-3.7,3.4-5.7,8.6-2.3,12.3l0,0l41.5,58.5c3.4,3.7,8.6,5.7,12.3,2.3l0,0l58.5-41.5c3.7-3.4,5.7-8.6,2.3-12.3l0,0L697.8,316.5z
		 M675.9,407.4l-28.1-42l42-28.1l28.1,42L675.9,407.4z M735.9,523.4c3.5,0.2,5.4-1.5,7.1-1.4l58.5-41.5c3.7-3.4,5.7-8.6,2.3-12.3
		l0,0l-41.5-58.5c-3.4-3.7-8.6-5.7-12.3-2.3l0,0l-58.5,41.5c-3.7,3.4-5.7,8.6-2.3,12.3l0,0l41.5,58.5
		C730.7,523.2,734.2,523.3,735.9,523.4L735.9,523.4z M750.9,430.4l28.1,42l-42,28.1l-28.1-42L750.9,430.4z M592.4,378.8l-58.5,41.5
		c-3.7,3.4-5.7,8.6-2.3,12.3l0,0l41.5,58.5c3.4,3.7,8.6,5.7,12.3,2.3l0,0l58.5-41.5c3.7-3.4,5.7-8.6,2.3-12.3l0,0l-41.5-58.5
		C603,377.5,596.1,375.4,592.4,378.8L592.4,378.8z M582.7,472.1l-28.1-42l42-28.1l28.1,42L582.7,472.1z M685.8,537l3.7-3.4l-28.1-42
		L621.3,518l-9.8-16.4l45.8-33.2c3.7-3.4,10.7-1.3,12.3,2.3l0,0l41.5,58.5c3.4,3.7,1.3,10.7-2.3,12.3l0,0l-11,8.3L685.8,537z
		 M385.8,524.8l9.8,16.4l-45.8,33.2L340,558L385.8,524.8z M418.8,499.8l9.8,16.4l-18.2,11.5l-9.9-16.4L418.8,499.8z"/>
</g>
<circle class="st1" cx="542.6" cy="536.7" r="373.3"/>
<line class="st1" x1="335.5" y1="225.3" x2="731.5" y2="858.6"/>
</svg>
