<?xml version="1.0" encoding="utf-8"?>
<!-- Generator: Adobe Illustrator 24.1.0, SVG Export Plug-In . SVG Version: 6.00 Build 0)  -->
<svg version="1.1" id="Capa_1" xmlns="http://www.w3.org/2000/svg" xmlns:xlink="http://www.w3.org/1999/xlink" x="0px" y="0px"
	 viewBox="0 0 1080 1080" style="enable-background:new 0 0 1080 1080;" xml:space="preserve">
<style type="text/css">
	.st0{fill:#FFFFFF;}
</style>
<path class="st0" d="M508.1,908.1c-13.5,44.4-55.2,76.7-122.5,96.9c-2.7,0-4,1.3-6.7,1.3c-9.4,0-18.8-6.7-21.5-16.2
	c-4-12.1,2.7-24.2,14.8-28.3c52.5-16.2,83.5-39,92.9-67.3c4-12.1,16.1-18.8,28.3-14.8C504.1,883.9,510.9,896,508.1,908.1z
	 M345.3,221.7c4.1,6.5,11.2,10.5,18.9,10.8c3.7-0.1,7.4-1,10.8-2.7c10.8-6.7,14.8-20.2,8.1-31l-45.8-78.1
	c-6.7-10.8-20.2-14.8-31-8.1s-14.8,20.2-8.1,31L345.3,221.7z M265.9,356.3c6.7-10.8,2.7-24.2-8.1-31l-78.1-45.8
	c-10.8-6.7-24.2-2.7-31,8.1s-2.7,24.2,8.1,31l78.1,45.8c4,2.7,6.7,2.7,10.8,2.7C255.1,368.4,261.8,364.3,265.9,356.3L265.9,356.3z
	 M706,231.1c4,2.7,6.7,2.7,10.8,2.7c7.8,0.1,15-4,18.9-10.8l45.8-78.1c6.7-10.8,2.7-24.2-8.1-31s-24.2-2.7-31,8.1l-45.7,78.1
	C691.2,210.9,695.2,224.4,706,231.1z M540.5,208.2c12.5,0.1,22.8-10,22.9-22.5c0-0.1,0-0.3,0-0.4V95.1c0-12.6-10.2-22.9-22.9-22.9
	s-22.9,10.2-22.9,22.9v90.2C518.9,198.8,528.3,208.2,540.5,208.2z M399.1,886.6c0.1-12.5-10-22.8-22.5-22.9c-0.1,0-0.3,0-0.4,0
	c-47.1,0-86.1-39-86.1-86.2v-214c0-32.3,6.7-63.3,18.8-92.9c4-10.8-1.3-24.2-12.1-29.6c-10.8-4-24.2,1.3-29.6,12.1
	c-14.8,35-21.5,72.7-21.5,110.4v214c0,72.7,59.2,130.6,130.6,130.6C389.7,908.1,399.1,898.7,399.1,886.6z M540.5,270.1
	c-56.8,0-112.4,16.4-160.2,47.1c-10.8,6.7-13.5,20.2-6.7,31s20.2,13.5,31,6.7c40.4-26.9,87.5-40.4,136-40.4
	c137.3,0,250.4,111.7,250.4,250.4v214c0,47.1-39,86.1-86.2,86.1c-12.6,0.3-22.7,10.7-22.4,23.4c0.3,12.3,10.1,22.2,22.4,22.4
	c72.7,0,130.6-59.2,130.6-130.6v-214C835.2,402,703.3,270.1,540.5,270.1z M932.2,289c-6.7-10.8-20.2-14.8-31-8.1l-78.1,45.8
	c-10.8,6.7-14.8,20.2-8.1,31c4.1,6.5,11.2,10.5,18.8,10.8c3.7-0.1,7.4-1,10.8-2.7l78.1-45.8C933.5,313.2,937.5,299.7,932.2,289z
	 M727.5,620.1c0-35-5.4-66-16.2-94.2c0-1.3,0-1.3-1.3-2.7c-1.3-4-4-6.7-8.1-9.4l0,0l-1.3-1.3l0,0c-5.4-2.7-10.8-4-16.2-1.4
	c-1.3,0-1.3,0-2.7,1.4c-1.3,1.4-2.7,1.3-4,2.7c-32.3,22.9-82.1,35-136,35c-12.1,0-22.9,9.4-21.5,22.9c0,12.1,9.4,21.5,22.9,21.5l0,0
	c51.2,0,98.3-10.8,136-28.3c4,16.2,5.4,35,5.4,53.8c0,67.3-35,129.2-90.2,161.5c-21.5,12.1-37.7,17.5-52.5,18.8
	c-14.8,0-31-5.4-52.5-18.8c-55.2-32.3-90.2-94.2-90.2-161.5c0-18.8,1.3-37.7,5.4-53.8c3.8,2.3,7.8,4.2,12.1,5.4l2.7,1.3
	c14.8,6.7,25.6,10.8,37.7,5.4s16.2-16.2,21.5-28.3c1.6-3,2.9-6.2,4-9.4c5.4-14.8,12.1-32.3,14.8-40.4c2.7-12.1-4-24.2-14.8-26.9
	c-12.1-4-24.2,4-26.9,14.8c-1.4,6.7-8.1,22.9-13.5,36.3c-1.4,2.7-2.7,5.4-2.7,8.1h-1.4l-2.7-1.3c-10.8-4-21.5-9.4-29.6-16.2
	c-1.4-1.3-2.7-1.3-4-2.7c-1.4,0-1.4-1.4-2.7-1.4l0,0c-5.4-1.4-12.1-1.4-16.2,1.4l0,0l-1.3,1.3c-3,2.8-5.7,6-8.1,9.4
	c0,0.7-0.6,1.3-1.3,1.3c0,0,0,0-0.1,0c-10.8,28.3-16.2,60.6-16.2,94.2c0,83.5,43.1,158.8,111.7,199.2c28.3,16.2,52.5,24.2,75.4,24.2
	l0,0c22.9,0,47.1-8.1,75.4-24.2C684.5,778.9,727.5,702.2,727.5,620.1z M707.4,963.3c-52.5-16.2-83.5-39-92.9-67.3
	c-4-12.1-16.2-18.8-28.3-14.8s-18.8,16.2-14.8,28.3c13.5,44.4,55.2,76.7,122.5,96.9c2.7,0,4,1.3,6.7,1.3c9.4,0,18.8-6.7,21.5-16.2
	C726.2,979.5,719.5,967.4,707.4,963.3z M540.5,752c14.8,0,26.9-8.1,33.7-14.8c9.4-8.1,9.4-22.9,1.3-31c-8.1-9.4-22.9-9.4-31-1.3
	c-1.3,1.3-2.7,2.7-4,2.7s-2.7-1.3-4-2.7c-9.1-7.7-22.6-7.2-31,1.3c-8.1,8.1-6.7,22.9,1.4,31C514.9,743.9,525.7,752,540.5,752z"/>
</svg>
