<?xml version="1.0" encoding="utf-8"?>
<!-- Generator: Adobe Illustrator 24.1.0, SVG Export Plug-In . SVG Version: 6.00 Build 0)  -->
<svg version="1.1" id="Capa_1" xmlns="http://www.w3.org/2000/svg" xmlns:xlink="http://www.w3.org/1999/xlink" x="0px" y="0px"
	 viewBox="0 0 1080 1080" style="enable-background:new 0 0 1080 1080;" xml:space="preserve">
<style type="text/css">
	.st0{fill:#FFFFFF;stroke:#FFFFFF;stroke-width:10;stroke-miterlimit:10;}
</style>
<path class="st0" d="M539.3,636.5l0.2-0.2l399.9-434.5c16-17.4,14.9-44.4-2.5-60.4c-16.4-15.1-41.5-15.1-57.9,0L585,412.1
	c-4.9,4.5-5.2,12.1-0.7,17c4.5,4.9,12.1,5.2,17,0.7l294-270.6c7.6-7,19.4-6.5,26.4,1.1c6.6,7.2,6.6,18.2,0,25.4L530.3,610.8
	l-10.2-10.2l-50-50l89.7-82.6c4.9-4.5,5.2-12.1,0.7-17s-12.1-5.2-17-0.7l-99,91.1l-0.2,0.2l-0.2,0.2l-114,114.1
	c-31.5-7.4-64.6-2.7-92.8,13.2c-34.9,19.6-58.4,49.3-68,86c-4.8,18.1-4.9,36.2-5,53.8c0,2.5,0,5-0.1,7.5c-0.2,19.5-2,33.7-10,48.6
	c-1.8,3.3-4.9,7-8.3,10.9c-8.7,10.1-20.6,24-15.3,42.8c7.2,25.2,32.8,31.3,57.9,31.3h0.9c0.2,0,216,0,216,0c6.6,0,12-5.4,12-12
	c0-6.6-5.4-12-12-12h-94.8c19.7-8.1,38.4-18.5,55.6-31.2c8.7-6.4,16.8-13.6,24.1-21.5c16-17.8,27.1-37.4,33.3-57.7H517
	c9.5,0,17.2,7.7,17.2,17.2c0,22.8,18.5,41.3,41.3,41.3h37.7c14.3-0.3,26.2,11.1,26.5,25.4s-11.1,26.2-25.4,26.5c-0.3,0-0.7,0-1,0
	h-152c-6.6,0-12,5.4-12,12c0,6.6,5.4,12,12,12h151.9c27.6,0,50-22.4,50-50s-22.4-50-50-50h-37.7c-9.5,0-17.2-7.7-17.2-17.2
	c0-22.8-18.5-41.2-41.2-41.3h-88.5c1.5-13.8,0.6-27.8-2.6-41.4l113.3-113.3L539.3,636.5L539.3,636.5z M372.4,857
	c-6.3,6.8-13.1,12.9-20.6,18.3c-17.4,12.8-36.5,23.1-56.7,30.7c-17,6-34.5,10.5-52.3,13.5c-18,3.2-37.7,6.4-56,6.2
	c-10.8-0.1-29.4-0.9-33.1-13.8c-1.6-5.7,2.1-10.9,10.4-20.5c4-4.7,8.2-9.5,11.2-15.1c11.4-21.1,12.8-44,13-67.4
	c0.1-16.8,0.2-32.7,4.2-47.9c8-30.2,27.5-54.8,56.6-71.2c50.6-28.5,114.8-10.5,143.3,40.1C414.8,769.8,407.1,818.5,372.4,857z
	 M416.9,725c-1.1-2.3-2.3-4.5-3.5-6.8c-13.2-23.5-33.5-42.3-58-53.7l97.3-97.3l61,61L416.9,725z"/>
</svg>
