<?xml version="1.0" encoding="utf-8"?>
<!-- Generator: Adobe Illustrator 24.1.0, SVG Export Plug-In . SVG Version: 6.00 Build 0)  -->
<svg version="1.1" id="Capa_1" xmlns="http://www.w3.org/2000/svg" xmlns:xlink="http://www.w3.org/1999/xlink" x="0px" y="0px"
	 viewBox="0 0 1080 1080" style="enable-background:new 0 0 1080 1080;" xml:space="preserve">
<style type="text/css">
	.st0{fill:#FFFFFF;stroke:#FFFFFF;stroke-width:5;stroke-miterlimit:10;}
</style>
<path class="st0" d="M844.9,372.4V229.1h-57.3V85.8H128.6v816.7c0,39.5,32.1,71.6,71.6,71.6h630.4c39.5,0,71.6-32.1,71.6-71.6V372.4
	H844.9z M200.2,945.5c-23.7,0-43-19.3-43-43l0,0v-788H759v788c0,15.5,5,30.6,14.4,43H200.2z M873.6,902.5c0,23.7-19.3,43-43,43
	s-43-19.3-43-43V257.7h28.7v601.7h28.7V401h28.7L873.6,902.5z"/>
<path class="st0" d="M816.3,888.1h28.7v28.7h-28.7V888.1z"/>
<path class="st0" d="M621,747.9l-48.3-13.8v-3.8c17.9-13.5,28.5-34.6,28.7-57V647c0-37.9-28.4-70.3-64.7-73.8
	c-39.4-3.9-74.4,24.9-78.3,64.3c-0.2,2.3-0.3,4.7-0.3,7v28.7c0.1,22.4,10.7,43.5,28.6,57v3.8l-48.3,13.8c-30.7,8.9-51.8,37-52,68.9
	v42.7H673v-42.7C672.9,784.8,651.7,756.7,621,747.9z M644.3,830.9H415.1v-14.1c0.1-19.2,12.8-36,31.2-41.3l69.1-19.8v-41.3l-7.1-4.1
	c-13.3-7.6-21.5-21.7-21.5-37v-28.6c0-23.7,19.3-43,43-43c1.4,0,2.8,0.1,4.3,0.2c21.7,2.1,38.7,22,38.7,45.3v26.2
	c0,15.3-8.2,29.4-21.5,37l-7.1,4.1v41.3l69.1,19.8c18.4,5.3,31.1,22.2,31.2,41.3L644.3,830.9z"/>
<path class="st0" d="M329.1,916.8h401.2V515.6H329.1V916.8z M357.8,544.3h343.9v343.9H357.8V544.3z"/>
<path class="st0" d="M357.8,487c94.8,0,171.9-77.1,171.9-171.9s-77.1-172-171.9-172S185.9,220.2,185.9,315S263,487,357.8,487z
	 M357.8,458.4c-58.4,0-108.7-35.2-131-85.5c17.2,1,33.5,8.3,45.8,20.5l3,3c25.4,25.4,66.6,25.3,91.9-0.1c12.1-12.2,19-28.7,19-45.8
	v-13.9c0-27.7-22.5-50.1-50.1-50.1c-11.9,0-21.5-9.6-21.5-21.5v-21.5c-0.1-20.6-6.5-40.7-18.5-57.6c15.1-7.2,31.3-11.8,48-13.4
	c-0.5,3.2-0.8,6.5-0.9,9.7c-0.1,25,11.3,48.6,30.8,64.1l24.4,19.5c10.4,8.3,16.5,20.9,16.4,34.2c0,40,32.4,72.4,72.4,72.4
	c0.5,0,1-0.1,1.6-0.1C467,422.8,416.5,458.3,357.8,458.4L357.8,458.4z M501.1,315c0,9.3-0.9,18.6-2.7,27.7c-3.6,0.6-7.2,1-10.8,1
	c-24.1,0-43.7-19.6-43.8-43.7c0.1-22-9.9-42.8-27.2-56.5l-24.4-19.5c-12.7-10.1-20.1-25.5-20-41.7c0-3.2,0.3-6.4,0.9-9.6
	C444.9,180.3,501.1,241.2,501.1,315z M272,200.6c9.2,12.4,14.2,27.4,14.2,42.8v21.5c0,27.7,22.5,50.1,50.1,50.1
	c11.9,0,21.5,9.6,21.5,21.5v13.8c0,20.1-16.3,36.3-36.3,36.3c-9.6,0-18.8-3.8-25.7-10.6l-3-3c-18.8-18.9-44.3-29.4-70.9-29.4
	c-1.5,0-3.1-0.2-4.6-0.4C206.5,289.1,227.8,233.6,272,200.6z"/>
<path class="st0" d="M558.4,143.1h171.9v28.6H558.4V143.1z"/>
<path class="st0" d="M558.4,200.4H587v28.6h-28.6V200.4z"/>
<path class="st0" d="M615.7,200.4h114.6v28.6H615.7V200.4z"/>
<path class="st0" d="M558.4,257.7h171.9v28.6H558.4V257.7z"/>
<path class="st0" d="M558.4,315h171.9v28.7H558.4V315z"/>
<path class="st0" d="M558.4,372.4H673V401H558.4V372.4z"/>
<path class="st0" d="M701.7,372.4h28.7V401h-28.7V372.4z"/>
<path class="st0" d="M185.9,873.8h114.6v28.7H185.9V873.8z"/>
<path class="st0" d="M185.9,816.5h114.6v28.7H185.9V816.5z"/>
<path class="st0" d="M185.9,759.2h114.6v28.7H185.9V759.2z"/>
<path class="st0" d="M185.9,701.9h114.6v28.7H185.9V701.9z"/>
<path class="st0" d="M185.9,644.6h114.6v28.7H185.9V644.6z"/>
</svg>
