<?xml version="1.0" encoding="utf-8"?>
<!-- Generator: Adobe Illustrator 24.1.0, SVG Export Plug-In . SVG Version: 6.00 Build 0)  -->
<svg version="1.1" id="Capa_1" xmlns="http://www.w3.org/2000/svg" xmlns:xlink="http://www.w3.org/1999/xlink" x="0px" y="0px"
	 viewBox="0 0 1080 1080" style="enable-background:new 0 0 1080 1080;" xml:space="preserve">
<style type="text/css">
	.st0{fill:#FFFFFF;}
</style>
<path class="st0" d="M499.8,870.5c-16.4,55.1-67,93.8-150.3,119.1c-3,0-4.5,1.5-8.9,1.5c-11.9,0-23.8-8.9-26.8-19.3
	c-4.5-14.9,3-29.8,17.9-34.2c64-19.3,102.7-47.6,113.1-81.9c4.5-14.9,19.4-23.8,34.2-17.9C495.3,840.7,504.3,855.6,499.8,870.5z
	 M367.3,843.7c0-15.6-12.6-28.3-28.3-28.3c0,0,0,0,0,0c-58,0-105.7-47.6-105.7-105.7v-262c0-40.2,8.9-77.4,23.8-113.1
	c4.5-13.4-1.5-29.8-14.9-35.7c-13.4-4.5-29.8,1.5-35.7,14.9c-17.7,43-26.8,89-26.8,135.5v262c0,89.3,72.9,160.8,160.8,160.8
	C355.4,870.5,367.3,858.5,367.3,843.7L367.3,843.7z M540,87.5c-70,0-136.9,19.3-196.5,58.1c-13.4,8.9-16.4,25.3-8.9,37.2
	c8.9,13.4,25.3,16.4,37.2,8.9c49.1-32.7,107.2-49.1,166.7-49.1c168.2,0,306.6,136.9,306.6,306.6v262c0,58-47.6,105.7-105.7,105.7
	c-15.6,0-28.3,12.7-28.3,28.3c0,15.6,12.7,28.3,28.3,28.3c89.3,0,160.8-72.9,160.8-160.8v-262C901.7,249.7,739.5,87.5,540,87.5z
	 M769.2,517.7c0-43.2-6-80.4-19.3-116.1c0-1.5,0-1.5-1.5-3c-1.7-5.2-5.4-9.5-10.4-11.9l0,0l-1.5-1.5l0,0c-6-3-13.4-4.5-19.3-1.5
	c-1.5,0-1.5,0-3,1.5s-3,1.5-4.5,3c-40.2,28.3-101.2,43.1-166.7,43.1c-14.9,0-28.3,11.9-26.8,28.3c0,14.9,11.9,26.8,28.3,26.8l0,0
	c62.5,0,120.5-13.4,166.7-34.2c4.5,19.4,6,43.2,6,65.5c0,81.9-43.2,157.8-110.2,198c-26.8,14.9-46.2,20.8-64,23.8
	c-17.9,0-37.2-6-64-23.8c-67-40.2-110.1-116.1-110.1-198c0-23.8,1.5-46.1,6-65.5c4.5,3,10.4,4.5,14.9,6l3,1.5
	c17.9,8.9,31.3,13.4,46.1,6s19.4-19.4,26.8-34.2c1.9-3.8,3.4-7.8,4.4-12c6-17.9,14.9-40.2,17.9-49.1c3-14.9-4.5-29.8-17.9-32.7
	c-14.9-4.5-29.8,4.5-32.8,17.9c-1.5,8.9-10.4,28.3-16.4,44.6c-1.5,3-3,6-3,10.4h-1.5l-3-1.5c-13.4-4.5-26.8-11.9-35.7-19.4
	c-1.5-1.5-3-1.5-4.5-3c-1.5,0-1.5-1.5-3-1.5l0,0c-6-1.5-14.9-1.5-19.4,1.5l0,0l-1.5,1.5c-3.8,3.7-7.3,7.7-10.4,11.9
	c0,0.8-0.6,1.5-1.4,1.5c0,0,0,0-0.1,0c-13.4,34.2-19.4,74.4-19.4,116.1c0,102.7,52.1,195,136.9,244.1c34.2,19.3,64,29.8,92.3,29.8
	l0,0c28.3,0,58-10.4,92.3-29.8C717.1,711.2,769.2,617.4,769.2,517.7z M745.4,937.4c-64-19.3-102.7-47.6-113.1-81.9
	c-4.5-14.9-19.3-23.8-34.2-17.9s-23.8,19.3-17.9,34.2c16.4,55.1,67,93.8,150.3,119.1c3,0,4.5,1.5,8.9,1.5c11.9,0,23.8-8.9,26.8-19.3
	C767.7,958.3,760.3,943.4,745.4,937.4z M498.3,632.3c-10.4,10.4-11.9,28.3-1.5,37.2c10.4,10.4,26.8,11.9,37.2,1.5c1.5-1.5,3-3,4.5-3
	s3,1.5,4.5,3c10.4,10.4,28.3,10.4,37.2-1.5c10.4-10.4,10.4-28.3-1.5-37.2c-8.9-8.9-23.8-17.9-41.7-17.9
	C522.1,614.4,508.7,623.4,498.3,632.3z"/>
</svg>
