<?xml version="1.0" encoding="utf-8"?>
<!-- Generator: Adobe Illustrator 24.1.0, SVG Export Plug-In . SVG Version: 6.00 Build 0)  -->
<svg version="1.1" id="Capa_1" xmlns="http://www.w3.org/2000/svg" xmlns:xlink="http://www.w3.org/1999/xlink" x="0px" y="0px"
	 viewBox="0 0 1080 1080" style="enable-background:new 0 0 1080 1080;" xml:space="preserve">
<style type="text/css">
	.st0{fill:#FFFFFF;}
</style>
<path class="st0" d="M956.7,291.8l-41.6-41.6c-6.3-6.3-17.6-6.3-23.9,0c-6.3,6.3-6.3,17.6,0,23.9l41.6,41.5c7.6,7.6,7.6,21.4,0,29
	s-21.4,7.5-29,0l-50.4-50.4l0,0l-66.7-66.8l0,0l-50.4-50.4c-7.6-7.6-7.6-21.4,0-29s21.4-7.6,29,0l34,34c6.3,6.3,17.6,6.3,23.9,0
	s6.3-17.6,0-23.9l-34-34c-21.5-21-55.8-20.6-76.8,0.9c-20.6,21.1-20.6,54.8,0,75.9l37.8,37.8l-66.7,66.7l-40.3-40.3l-18.9-18.9
	c-6.3-6.3-17.6-6.3-23.9,0s-6.3,17.6,0,23.9l7.6,7.5L323.3,560C283,600.3,273,660.7,293.1,709.8l-65.5,65.5
	c-10.1,10.1-16.4,23.9-16.4,37.8c0,8.8,2.5,16.4,6.3,23.9L111.8,942.8c-6.3,6.3-6.3,17.6,0,23.9c3.8,3.8,7.6,5,12.6,5
	c5,0,8.8-1.3,12.6-5L242.7,861c7.6,3.8,16.4,6.3,23.9,6.3c13.9,0,27.7-5,37.8-16.4l65.5-65.5c16.5,6.5,33.9,9.9,51.6,10.1
	c35.3,0,70.5-13.8,98.2-40.3l284.6-284.6l7.5,7.6c3.8,3.8,7.6,5,12.6,5c4.7,0,9.2-1.8,12.6-5c6.3-6.3,6.3-17.6,0-23.9l-18.9-18.9
	l0,0L777.9,395l66.7-66.7l37.8,37.8c10.1,10.1,23.9,16.4,37.8,16.4s27.7-5,37.8-16.4C978.1,347.2,978.1,313.2,956.7,291.8z
	 M279.2,829.5c-3.8,3.8-8.8,6.3-13.9,6.3s-10.1-2.5-13.9-6.3c-7.6-7.5-7.6-21.4,0-29l59.2-59.2c3.8,5,8.8,10.1,13.9,15.1
	s10.1,8.8,15.1,13.8L279.2,829.5z M780.4,449.2L732.6,497l-32.7-32.7c-6.3-6.3-17.6-6.3-23.9,0s-6.3,17.6,0,23.9l32.7,32.8
	l-55.4,55.4l-32.7-32.7c-6.3-6.3-17.6-6.3-23.9,0s-6.3,17.6,0,23.9l32.7,32.7l-55.4,55.4L541.2,623c-6.3-6.3-17.6-6.3-23.9,0
	s-6.3,17.6,0,23.9l32.8,32.7l-52.9,52.9l-3.8,3.8l-32.7-32.7c-6.3-6.3-17.6-6.3-23.9,0s-6.3,17.6,0,23.9l27.7,27.7
	c-37.8,16.4-84.4,8.8-115.9-22.7c-41.5-41.5-41.5-107,0-148.6l284.6-284.6L780.4,449.2z M751.4,372.4l-42.8-42.8l66.8-66.7
	l42.8,42.8L751.4,372.4z"/>
<path class="st0" d="M872.4,207.4c-3.4-3.1-7.9-4.9-12.6-5c-5,0-8.8,1.3-12.6,5c-3.8,2.5-5,7.6-5,12.6s1.3,8.8,5,12.6s7.6,5,12.6,5
	s8.8-1.3,12.6-5c3.8-2.5,5-7.6,5-12.6S876.1,211.2,872.4,207.4z"/>
<path class="st0" d="M548.7,460.5c-6.3-6.3-17.6-6.3-23.9,0l-131,131c-6.3,6.3-6.3,17.6,0,23.9c3.8,3.8,7.6,5,12.6,5s8.8-1.3,12.6-5
	l131-131C555,478.1,555,468.1,548.7,460.5z"/>
<path class="st0" d="M590.3,419c-2.5-3.8-7.6-5-12.6-5s-8.8,1.3-12.6,5c-3.8,2.5-5,7.6-5,12.6s1.3,8.8,5,12.6
	c3.5,3.1,7.9,4.9,12.6,5c5,0,8.8-1.2,12.6-5c3.8-2.5,5-7.6,5-12.6S594.1,421.5,590.3,419z"/>
</svg>
