<?xml version="1.0" encoding="utf-8"?>
<!-- Generator: Adobe Illustrator 24.1.0, SVG Export Plug-In . SVG Version: 6.00 Build 0)  -->
<svg version="1.1" id="Capa_1" xmlns="http://www.w3.org/2000/svg" xmlns:xlink="http://www.w3.org/1999/xlink" x="0px" y="0px"
	 viewBox="0 0 1080 1080" style="enable-background:new 0 0 1080 1080;" xml:space="preserve">
<style type="text/css">
	.st0{fill:#FFFDFD;}
	.st1{fill:#FFFDFD;stroke:#FFFFFF;stroke-width:9.34;stroke-miterlimit:10;}
	.st2{fill:#FFFDFD;stroke:#FFFFFF;stroke-width:5.33;stroke-miterlimit:10;}
	.st3{fill:#FFFDFD;stroke:#FFFFFF;stroke-width:5.3299;stroke-miterlimit:9.9999;}
</style>
<path class="st0" d="M393.7,239.5c-6.3-6.3-14.2-9.5-23.7-11.1H75.8c-9.5,1.6-17.4,4.7-23.7,11.1S41,253.7,41,263.2v4.8l11.1,129.6
	v1.6c0,3.2,1.6,6.3,1.6,9.5l34.8,400.2c1.6,9.5,4.8,19,11.1,25.3l1.6,1.6c6.3,6.3,14.2,9.5,23.7,9.5h193c9.5,0,19-3.2,25.3-11.1
	c6.3-6.3,11.1-14.2,11.1-25.3L389,408.7c1.6-3.2,1.6-6.3,1.6-9.5v-1.6l11.1-131.3v-3.2C403.2,253.7,400,244.2,393.7,239.5z
	 M322.5,804.1c-0.9,0.8-1.5,2-1.6,3.2l-1.6,1.6h-193c-1.6,0-1.6,0-1.6-1.6c-0.9-0.8-1.5-2-1.6-3.2l-1.5-22.1l204,1.6L322.5,804.1z
	 M327.3,748.8l-208.8-1.6L91.6,448.3c5.6,2,11.5,3,17.4,3.2c14.2-0.2,27.8-5.8,38-15.8c20.8,21,54.6,21.1,75.6,0.3
	c0.1-0.1,0.2-0.2,0.3-0.3c20.8,21,54.6,21.1,75.6,0.3c0.1-0.1,0.2-0.2,0.3-0.3c10.2,10,23.8,15.6,38,15.8c6.3,0,11.1-1.6,17.4-3.2
	L327.3,748.8z M358.9,400.8c-1.6,3.2-3.2,7.9-6.3,11.1s-9.5,6.3-14.2,6.3c-5.4-0.1-10.5-2.4-14.2-6.3c-3.2-3.2-6.3-9.5-6.3-14.2
	c0-9.5-6.3-17.4-17.4-17.4c-9.5,0-17.4,6.3-17.4,17.4c-0.1,5.4-2.4,10.5-6.3,14.2c-3.2,3.2-9.5,6.3-14.2,6.3
	c-5.4-0.1-10.5-2.4-14.2-6.3c-3.2-3.2-6.3-9.5-6.3-14.2c0-9.5-6.3-17.4-17.4-17.4s-17.4,6.3-17.4,17.4c-0.1,5.4-2.4,10.5-6.3,14.2
	c-3.2,3.2-9.5,6.3-14.2,6.3s-11.1-3.2-14.2-6.3s-6.3-9.5-6.3-14.2c0-9.5-6.3-17.4-17.4-17.4c-9.5,0-17.4,6.3-17.4,17.4
	c0,6.3-1.6,11.1-6.3,14.2l-1.6,1.6c-3.2,3.2-9.5,6.3-14.2,6.3s-11.1-3.2-14.2-6.3s-4.8-6.3-6.3-11L75.8,264.8v-1.6l-1.6-3.2
	c1.6-1.6,1.6-1.6,3.2-1.6H370c1.6,0,1.6,1.6,3.2,1.6l1.6,1.6L358.9,400.8z"/>
<path class="st1" d="M1029.5,638.1H464.9c-4.7,0-9.5,4.8-9.5,9.5c0,112.3,91.7,204,204,204H835c112.3,0,204-91.7,204-204
	C1039,642.8,1035.8,638.1,1029.5,638.1z M835,832.6H659.4c-98.1,0-180.3-77.5-185-175.6h544.1C1015.3,755.1,934.6,832.6,835,832.6z"
	/>
<path class="st2" d="M952,404v-3.2c-1.6-15.8-12.7-30.1-26.9-34.8l11.1-11c18.7-18.8,20.8-48.5,4.8-69.6
	c-17.4-22.1-50.6-25.3-72.8-6.3c-1.6,1.6-3.2,1.6-3.2,3.2l-12.7,12.6c-4.7-14.2-19-25.3-34.8-26.9c-22.2-1.6-39.5,15.8-41.1,36.4
	v15.8c-5.9-3-12.4-4.7-19-4.7h-3.2c-20.5,1.5-36.4,20.5-36.4,41.1v12.6c-5.9-3.1-12.4-4.7-19-4.7h-3.2
	c-20.5,1.6-36.4,20.6-36.4,41.1v143.9c0,4.7,4.8,9.5,9.5,9.5H835c21.6,0.2,39.3-17.1,39.5-38.8c0-0.3,0-0.5,0-0.8
	c0-6.3-1.6-14.2-4.8-19h12.7c20.6,0,39.5-15.8,41.1-36.4c0-7.9-1.6-15.8-4.8-22.1c9.5-1.6,17.4-4.7,23.7-11.1
	C947.3,424.5,952,415,952,404z M926.7,418.2c-3.7,3.9-8.8,6.2-14.2,6.3H884c-4.8,0-9.5,4.8-9.5,9.5s4.7,9.5,9.5,9.5h1.6
	c11.1,0,19,9.5,19,20.6c-1.6,11.1-9.5,19-20.6,19h-47.5c-4.8,0-9.5,4.8-9.5,9.5s4.7,9.5,9.5,9.5c11.1,0,19,9.5,19,19
	c0,9.5-9.5,19-19,19H680V405.6c0-11.1,7.9-20.6,19-20.6h1.6c11.1,0,19,9.5,19,19l0,0c0,4.7,4.7,9.5,9.5,9.5l0,0
	c4.7,0,9.5-4.8,9.5-9.5l0,0v-47.5c0-11.1,7.9-20.6,19-20.6h1.6c11.1,0,19,9.5,19,19l0,0c0,4.7,4.7,9.5,9.5,9.5l0,0
	c4.7,0,9.5-4.8,9.5-9.5l0,0v-50.6c0-11.1,9.5-19,20.6-19c11.1,1.6,19,9.5,19,20.6v7.9c0,3.2,3.2,7.9,6.3,9.5s7.9,0,11.1-1.6
	l26.9-26.9l1.6-1.6c14.2-11.1,33.2-9.5,44.3,4.8c11.1,12.6,9.5,31.6-3.2,44.3l-25.3,25.3c-3.2,3.2-3.2,6.3-1.6,11.1
	c1.6,3.2,4.7,6.3,9.5,6.3h7.9c11.1,0,19,7.9,20.6,19v1.6C933,408.7,929.9,415,926.7,418.2L926.7,418.2z"/>
<rect x="555.5" y="462.2" transform="matrix(0.7071 -0.7071 0.7071 0.7071 -114.3351 667.4233)" class="st3" width="385.9" height="19"/>
<rect x="816" y="345.5" class="st2" width="19" height="49"/>
<rect x="757.5" y="394.5" class="st2" width="19" height="58.5"/>
<rect x="699" y="443.5" class="st2" width="19" height="68"/>
<rect x="825.5" y="385" class="st2" width="49" height="19"/>
<rect x="767" y="443.5" class="st2" width="58.5" height="19"/>
<rect x="708.5" y="502" class="st2" width="68" height="19"/>
<path class="st2" d="M637.3,312.2L637.3,312.2c-14.2-20.6-41.1-26.9-61.7-12.6l-1.6,1.6l-3.2,3.2l-3.2-3.2
	c-17.4-17.4-45.9-15.8-63.3,1.6c-7.9,7.9-12.6,20.6-12.6,31.6s4.7,23.7,14.2,31.6c3.2,3.2,4.7,4.7,7.9,6.3l7.9,6.3v4.8
	c0,27.1,22,49,49,49c27.1,0,49-22,49-49l0,0v-4.8l7.9-6.3C645.2,358.1,649.9,332.8,637.3,312.2z M615.1,358.1l-12.7,9.5
	c-2,2.2-3.1,5-3.2,7.9v9.5c0,15.7-12.7,28.5-28.5,28.5c-15.7,0-28.5-12.7-28.5-28.5v-9.5c-0.1-2.9-1.2-5.7-3.2-7.9l-12.7-9.5H525
	c-1.6-1.6-3.2-1.6-4.8-3.2c-4.7-4.8-7.9-11.1-7.9-17.4s3.2-12.6,6.3-17.4c5-5.1,11.9-8,19-7.9c6.3,0,12.7,1.6,17.4,6.3l1.6,1.6
	l9.5,6.3c2.9,3.1,7.8,3.2,10.8,0.3c0.1-0.1,0.2-0.2,0.3-0.3l9.5-7.9c6.3-3.2,12.7-4.7,19-3.2s12.7,4.7,15.8,11.1
	C627.8,334.4,626.2,350.2,615.1,358.1z"/>
<rect x="668.9" y="277.5" class="st2" width="19" height="19"/>
<rect x="727.4" y="589" class="st2" width="19" height="19"/>
<path class="st2" d="M980.5,326.5v19c11.1,0,19,9.5,19,19s-9.5,19-19,19v19c21.6,0.2,39.3-17.2,39.5-38.8c0-0.3,0-0.5,0-0.8
	C1020,340.7,1002.6,326.5,980.5,326.5z"/>
<rect x="474.4" y="413.5" class="st2" width="19" height="19"/>
<rect x="455.4" y="375.5" class="st2" width="19" height="19"/>
<path class="st2" d="M835,579.5c-21.6-0.2-39.3,17.1-39.5,38.8c0,0.3,0,0.5,0,0.8h19c0-11.1,9.5-19,19-19c11.1,0,19,9.5,19,19h19
	C874.5,596.9,857.1,579.5,835,579.5z"/>
<path class="st2" d="M572.4,492.5L572.4,492.5c-6.3-17.4-20.6-28.5-39.5-28.5s-33.2,12.6-38,28.5h-1.6c-21.8,0-39.5,17.7-39.5,39.5
	s17.7,39.5,39.5,39.5h77.5c21.6,0.2,39.3-17.1,39.5-38.8c0-0.3,0-0.5,0-0.8C610.4,510,593,492.5,572.4,492.5z M572.4,549.5h-77.5
	c-11.1,0-19-9.5-19-19c0-11.1,9.5-19,19-19h9.5c4.8,0,9.5-4.7,9.5-9.5c0-11.1,9.5-19,19-19s19,9.5,19,19c0,4.8,4.8,9.5,9.5,9.5h9.5
	c11.1,0,19,9.5,19,19C591.4,541.6,583.5,549.5,572.4,549.5z"/>
<path class="st2" d="M553.4,549.5h-39.5c-4.7,0-9.5,4.7-9.5,9.5v39.5c0,4.8,4.8,9.5,9.5,9.5h39.5c4.8,0,9.5-4.7,9.5-9.5V559
	C562.9,554.2,558.2,549.5,553.4,549.5z M542.4,589h-19v-19h19V589z"/>
<path class="st2" d="M971,521c-15.7,0-28.5,12.7-28.5,28.5S955.2,578,971,578s28.5-12.7,28.5-28.5l0,0C1001,533.7,986.8,521,971,521
	z M971,560.5c-4.8,0-9.5-4.7-9.5-9.5s4.7-9.5,9.5-9.5s9.5,4.8,9.5,9.5S977.3,560.6,971,560.5L971,560.5z"/>
<path class="st2" d="M971,481.5c-37.6,0-68,30.4-68,68s30.4,68,68,68s68-30.4,68-68l0,0C1039,513.1,1009,481.5,971,481.5z
	 M971,598.5c-27.1,0-49-21.9-49-49s21.9-49,49-49s49,21.9,49,49l0,0C1019.9,576.5,998,598.4,971,598.5L971,598.5z"/>
</svg>
