<?xml version="1.0" encoding="utf-8"?>
<!-- Generator: Adobe Illustrator 24.1.0, SVG Export Plug-In . SVG Version: 6.00 Build 0)  -->
<svg version="1.1" id="Capa_1" xmlns="http://www.w3.org/2000/svg" xmlns:xlink="http://www.w3.org/1999/xlink" x="0px" y="0px"
	 viewBox="0 0 1080 1080" style="enable-background:new 0 0 1080 1080;" xml:space="preserve">
<style type="text/css">
	.st0{fill:#FFFFFF;stroke:#FFFFFF;stroke-width:15;stroke-miterlimit:10;}
</style>
<path class="st0" d="M972.9,242.4c-8.1-8.1-19.1-12.5-30.5-12.5h-13.9v-16.6c0-21.4-17.3-38.8-38.7-38.8c0,0-0.1,0-0.1,0H354.1
	c-6.9,0-12.5,5.6-12.5,12.5s5.6,12.5,12.5,12.5h535.5c6.9,0,12.5,5.5,12.5,12.4c0,0,0,0.1,0,0.1v59.7c0,6.9-5.6,12.4-12.5,12.4
	c0,0,0,0,0,0h-147c-6.9,0-12.5,5.6-12.5,12.5s5.6,12.5,12.5,12.5l0,0h109.6l-25,209.5c-37.5,26.4-83.2,47.2-144.3,61
	c-7.2-18.3-24.8-30.3-44.4-30.5H436c-19.8-0.2-37.5,12-44.4,30.5c-59.6-13.9-106.8-34.7-144.3-61l-25-209.5h467.5
	c6.9,0,12.5-5.6,12.5-12.5s-5.6-12.5-12.5-12.5h-505c-6.9,0-12.5-5.5-12.5-12.4c0,0,0-0.1,0-0.1v-59.6c0-6.9,5.5-12.5,12.4-12.5
	c0,0,0.1,0,0.1,0h117.9c6.9,0,12.5-5.6,12.5-12.5s-5.6-12.5-12.5-12.5H184.9c-21.4-0.1-38.8,17.3-38.9,38.7c0,0.1,0,0.1,0,0.2v16.6
	h-13.8c-23.6,0-43,20.8-41.6,44.4c1.4,37.5,11.1,109.6,55.5,177.6c21,32.3,47.3,60.9,77.7,84.6l37.5,310.8
	c4.2,33.3,31.9,58.3,65.2,58.3h87.4c6.9,0,12.5-5.6,12.5-12.5s-5.6-12.5-12.5-12.5h-87.4c-19.4,0-37.5-15.3-38.9-34.7l-34.7-288.5
	c38.8,23.6,84.6,41.7,137.3,52.7c4.2,23.6,23.6,41.6,48.6,41.6h202.5c25,0,44.4-18,48.6-41.6c51.3-11.1,97.1-29.1,137.3-52.7
	l-34.7,288.6c-2.8,19.4-19.4,34.7-38.8,34.7H467.9c-6.9,0-12.5,5.6-12.5,12.5s5.6,12.5,12.5,12.5l0,0h285.8c33.3,0,61-25,65.2-58.3
	l37.5-310.8c30.5-23.6,56.9-51.4,77.6-84.7c44.4-68,54.1-140.1,55.5-177.6C985.3,263.2,981.2,252.1,972.9,242.4L972.9,242.4z
	 M114.1,272.9c0-9.7,6.9-16.6,16.7-16.6h13.9v16.6c0,21.4,17.3,38.8,38.7,38.8c0,0,0.1,0,0.1,0h11.1l22.2,185.9
	C132.2,422.8,115.5,324.3,114.1,272.9z M637.1,622.5H434.6c-12.3,0-22.2-9.9-22.2-22.2s9.9-22.2,22.2-22.2l0,0h202.6
	c12.3,0,22.2,9.9,22.2,22.2S649.4,622.5,637.1,622.5L637.1,622.5z M855,497.7l22.2-185.9h11.1c21.4,0,38.8-17.3,38.8-38.7
	c0,0,0-0.1,0-0.1v-16.6H941c9.1,0.1,16.5,7.5,16.7,16.6C956.3,324.3,939.7,422.8,855,497.7L855,497.7z"/>
</svg>
