<?xml version="1.0" encoding="utf-8"?>
<!-- Generator: Adobe Illustrator 24.1.0, SVG Export Plug-In . SVG Version: 6.00 Build 0)  -->
<svg version="1.1" id="Capa_1" xmlns="http://www.w3.org/2000/svg" xmlns:xlink="http://www.w3.org/1999/xlink" x="0px" y="0px"
	 viewBox="0 0 1080 1080" style="enable-background:new 0 0 1080 1080;" xml:space="preserve">
<style type="text/css">
	.st0{fill:#FFFFFF;}
</style>
<path class="st0" d="M726.3,132c-51.9,0-102.2,14.1-144.6,42.4c-7.9,4.7-72.3,40.9-61.3,108.5c3.1,25.2,15.7,42.5,28.3,58.2
	c17.3,23.6,34.6,47.2,29.9,92.8l0,0c-13.2-6.5-28.4-7.7-42.5-3.1c-12.6,4.7-23.6,12.6-29.9,23.6c-4.6-4.5-9.9-8.3-15.7-11
	c-11-4.7-22-7.9-33-7.9c-1.6-9.4,0-15.7,0-22c0-7.9,1.6-18.9,0-33c-4.7-29.9-20.4-55-47.2-72.3c-33-20.4-75.5-26.7-113.2-15.7
	c-67.6,20.4-108.5,91.2-88,160.4c6.3,20.4,17.3,39.3,31.4,53.5c7.9,7.9,11,18.9,11,28.3c-1.6,29.9,3.1,58.2,12.6,86.5
	c18.8,59.7,62.9,110,119.4,139.9c35.4,18.6,74.8,28.3,114.8,28.3c23.6,0,47.2-3.1,69.2-11c12.6-3.1,24.8-7.8,36.2-14.2
	c31.8-16,56.8-42.7,70.8-75.5c7.9-18.9,12.6-37.7,12.6-56.6c8.9,1.8,18.1,1.3,26.7-1.6c28.3-9.4,44-40.9,34.6-69.2l-14.2-45.6
	c-9.4-29.9-33-53.5-62.9-61.3c-18.9-4.7-39.3-4.7-56.6,3.1c12.6-72.3-12.6-108.5-34.6-136.8c-11-14.1-20.4-26.7-22-42.5
	c-6.3-44,40.9-69.2,44-70.8c0.9,0,1.6-0.7,1.6-1.5c0,0,0,0,0-0.1c37.7-23.5,81.3-36.1,125.8-36.2c133.7,0,242.1,111.6,242.1,248.4
	c0,150.9-117.9,276.7-217,356.9C661.8,849,567.5,897.7,540.8,911.9c-26.7-12.6-113.2-58.2-202.8-127.4c-7.9-6.3-18.9-4.7-25.2,3.1
	s-4.7,18.9,3.1,25.2C424.4,897.7,529.8,946.5,534.5,948c3.1,1.6,4.7,1.6,7.9,1.6s4.7,0,7.9-1.6c4.7-1.6,116.3-53.5,228-144.7
	c66-53.4,119.5-110,158.8-166.6c48.7-72.3,73.9-146.2,73.9-220.1C1004.6,259.3,878.8,132,726.3,132z M432.3,496.8
	c7.9-7.9,17.3-15.7,22-26.7c6.3,0,12.6,0,17.3,3.1c6.3,3.1,11,9.4,14.2,15.7l-7.9,15.7l-53.5-1.6
	C427.6,501.5,430.7,498.3,432.3,496.8L432.3,496.8z M592.7,520.4l6.3-12.6c3.2-3.1,4.7-6.3,7.9-9.4c14.1-12.6,33.6-17.4,51.9-12.6
	c18.9,4.7,33,18.9,37.7,36.2l14.2,45.6c3.1,9.4-1.6,20.4-11,23.6c-8.8,3.2-18.6-1.4-21.7-10.2c-0.1-0.2-0.2-0.5-0.3-0.8l-11-34.6
	c-3.1-9.4-12.6-15.7-23.6-12.6c-9.4,3.1-15.7,12.6-12.6,23.6l11,34.6c17.3,52.9-7.7,110.3-58.2,133.6c-10.1,5.1-20.6,9.3-31.5,12.6
	C446.5,768.8,328.6,707.5,294,603.7c-7.9-23.8-11.1-48.9-9.4-73.9c1.6-20.8-6.5-41.1-22-55c-11-11-17.3-23.6-22-39.3
	c-14.1-48.7,14.1-100.6,62.9-114.8c9.1-3.1,18.7-4.7,28.3-4.7c18.9,0,39.3,4.7,55,15.7c12.6,7.9,28.3,23.6,31.4,47.2
	c1.6,11,1.6,17.3,0,25.1c0,9.4-1.6,20.4,1.6,37.7c1.6,11,0,12.6-12.6,23.6c-3.1,3.1-7.9,6.3-11,11l0,0c-9.4,9.4-12.6,25.2-7.9,37.7
	c4.7,12.6,17.3,22,31.5,22l62.9,1.6c11,0,22-6.3,26.7-15.7l26.7-51.9c1.6-4.7,6.3-7.9,11-9.4s9.4-1.6,14.2,1.6
	c4.7,1.6,7.9,6.3,9.4,11s1.6,9.4-1.6,14.1l-1.6,1.6c-3.2,4.7-6.3,9.4-7.9,15.7l-17.3,34.6c-7.9,15.7-22,28.3-39.3,33
	c-6.3,1.6-14.1,3.2-20.4,3.2l-78.6-1.5c-9.4,0-18.9,7.9-18.9,17.3S393,610,402.4,610l78.6,1.5c11.2,0,22.3-1.6,33-4.7
	c18.2-6.1,34.5-17,47.2-31.5l12.6,40.9c3.1,9.4,12.6,15.7,23.6,12.6c9.4-3.2,15.7-12.6,12.6-23.6l-15.7-51.9
	C588,543.9,589.5,532.9,592.7,520.4L592.7,520.4z"/>
<path class="st0" d="M282.9,738.9L282.9,738.9c-7.9-7.9-18.9-6.3-26.7,1.6s-6.3,18.9,1.6,25.2l0,0c3.1,3.1,7.9,4.7,12.6,4.7
	s9.4-1.6,14.1-6.3C290.8,757.8,290.8,745.2,282.9,738.9z"/>
<path class="st0" d="M493.6,172.9c-44-28.3-94.3-42.4-146.2-42.4C193.3,130.4,69.1,257.8,69.1,415c0,99.1,44,198.1,132.1,294
	c3.7,3.9,8.8,6.2,14.1,6.3c4.7,0,9.4-1.6,12.6-4.7c7.9-6.3,7.9-18.9,1.6-25.2c-81.8-89.6-122.7-179.2-122.7-268.8
	c0-136.8,108.5-248.4,242.1-248.4c44.5,0.1,88.1,12.6,125.8,36.2c7.9,4.7,20.4,3.1,25.2-6.3C504.6,190.2,501.5,179.1,493.6,172.9z"
	/>
<path class="st0" d="M726.3,218.5c-9.4,0-18.9,7.9-18.9,18.9c0,9.4,7.9,18.9,18.9,18.9l0,0c9.4,0,18.9-7.9,18.9-18.9
	C743.6,226.3,735.8,218.5,726.3,218.5z"/>
<path class="st0" d="M885.1,301.8c-22-33.1-53.9-58.4-91.2-72.3c-9.4-3.1-20.4,1.6-23.6,11s1.6,20.4,11,23.6
	C842.7,287.6,883.5,349,883.5,415c0,9.4,7.9,18.9,18.9,18.9s18.9-7.9,18.9-18.9C919.7,375.7,907.1,336.4,885.1,301.8z"/>
</svg>
