<?xml version="1.0" encoding="utf-8"?>
<!-- Generator: Adobe Illustrator 24.1.0, SVG Export Plug-In . SVG Version: 6.00 Build 0)  -->
<svg version="1.1" id="Capa_1" xmlns="http://www.w3.org/2000/svg" xmlns:xlink="http://www.w3.org/1999/xlink" x="0px" y="0px"
	 viewBox="0 0 1080 1080" style="enable-background:new 0 0 1080 1080;" xml:space="preserve">
<style type="text/css">
	.st0{fill:#FFFFFF;}
</style>
<path class="st0" d="M69,759.3l67.5,16h391c10.8-0.1,19.5-8.8,19.5-19.5V243.9c0-10.8-8.8-19.6-19.5-19.6s-19.6,8.8-19.6,19.6v298.6
	h-17.7c-37.3,0-72.9-8.9-106.6-23.1l-16-273.7c0-10.7-8.9-17.8-19.5-17.8s-17.8,8.9-17.8,19.6l16,271.9l-131.5,55.1
	c-3.6,1.8-7.1,3.6-10.7,3.6l0,0c-3.6,0-7.1,1.8-10.7,1.8H165c-40.9,0-78.2,26.7-92.4,65.8l-12.4,33.8c0,1.8-1.8,3.6-1.8,7.1l0,0
	v56.9C53,750.4,60.1,757.5,69,759.3z M141.9,737.9l-51.5-12.4v-17.8l42.7,10.7h373.2v17.8H141.9L141.9,737.9z M102.8,656.2
	c8.9-24.9,32-40.9,56.9-40.9H197l30.2,30.2c3.6,3.5,8.9,5.3,14.2,5.3s8.9-1.8,14.2-5.3c7.1-7.5,7.1-19.2,0-26.7l-14.2-14.2
	l23.1-10.7l30.2,30.2c3.5,3.5,8.9,5.3,14.2,5.3s8.9-1.8,14.2-5.3c7.1-7.5,7.1-19.2,0-26.7l-17.8-17.8l17.8-7.1l30.2,30.2
	c3.5,3.6,8.9,5.3,14.2,5.3s8.9-1.8,14.2-5.3c7.1-7.5,7.1-19.2,0-26.7L364,558.4l5.3-1.8c39.1,19.5,81.8,28.4,126.2,28.4h17.8v101.3
	H149l-44.4-10.7L102.8,656.2z"/>
<path class="st0" d="M572,764.6c0,1.8,1.8,3.6,1.8,5.3l0,0l28.4,49.8c3.6,5.3,10.7,8.9,16,8.9h5.3l65.8-19.6c1.8,0,3.5-1.8,3.5-1.8
	l307.5-177.7c10.7-7.1,19.5-17.8,23.1-30.2c3.6-12.4,1.8-26.7-5.3-37.3l-12.4-21.3l-69.3-119l-94.2-255.9
	c-3.5-10.7-14.2-14.2-24.9-10.7s-14.2,14.2-10.7,24.9l90.6,241.7l-17.8,10.7c-30.2,17.8-65.8,28.4-101.3,32l-99.5-225.7
	c-3.6-8.9-16-14.2-24.9-8.9c-8.9,3.6-14.2,16-8.9,24.9L746.2,482l-87.1,113.8c-1.8,3.6-5.3,5.3-8.9,8.9l0,0
	c-3.6,1.8-5.3,5.3-8.9,7.1L616.4,626c-35.5,21.3-55.1,62.2-48,103.1L572,764.6z M987.9,588.6c0,3.6-3.5,5.3-5.3,7.1l-305.7,176
	l-49.8,14.2l-8.9-14.2l42.7-12.4c1.8,0,3.6-1.8,5.3-1.8l318.1-183l3.5,5.3V588.6z M630.6,658l24.9-14.2c1.8-1.8,5.3-3.6,7.1-5.3
	l40.9,10.7h5.3c8.9,0,16-5.3,17.8-14.2c3.1-9.3-2-19.4-11.3-22.4c-0.9-0.3-1.9-0.5-2.9-0.7l-19.5-5.3l16-19.5l40.9,10.7h5.3
	c8.9,0,16-5.3,17.8-14.2c3.1-9.3-2-19.4-11.3-22.4c-0.9-0.3-1.9-0.5-2.9-0.7l-24.9-7.1l12.4-16l40.8,10.6h5.3
	c8.9,0,16-5.3,17.8-14.2c3.1-9.3-2-19.4-11.3-22.4c-0.9-0.3-1.9-0.5-2.9-0.7l-24.9-7.1l3.6-5.3c42.7-3.5,85.3-16,122.6-37.3l16-8.9
	l51.5,88.9L648.4,723.7l-42.7,12.5l-3.5-16C596.9,695.3,609.3,670.4,630.6,658z"/>
<path class="st0" d="M259.2,855.2H72.6c-10.8,0-19.6,8.7-19.6,19.5s8.7,19.6,19.5,19.6c0,0,0,0,0,0h186.6c10.8,0,19.6-8.7,19.6-19.5
	S270,855.3,259.2,855.2C259.2,855.2,259.2,855.2,259.2,855.2z"/>
<path class="st0" d="M355.2,855.2c-5.3,0-10.7,1.8-14.2,5.3s-5.3,8.9-5.3,14.2s1.8,10.7,5.4,14.2s8.9,5.3,14.2,5.3
	s10.7-1.8,14.2-5.3s5.3-8.9,5.3-14.2s-1.8-10.7-5.3-14.2S360.5,855.2,355.2,855.2z"/>
<path class="st0" d="M1007.4,810.8H820.8c-10.8,0-19.6,8.7-19.6,19.5s8.7,19.6,19.5,19.6c0,0,0,0,0,0h186.6
	c10.8-0.1,19.5-8.8,19.6-19.5C1025.2,819.7,1018.1,810.8,1007.4,810.8z"/>
<path class="st0" d="M726.6,887.2H540c-10.8,0-19.6,8.7-19.6,19.5s8.7,19.6,19.5,19.6c0,0,0,0,0,0h186.6c10.8,0,19.5-8.8,19.5-19.6
	C746.1,896,737.4,887.2,726.6,887.2z"/>
</svg>
