<?xml version="1.0" encoding="utf-8"?>
<!-- Generator: Adobe Illustrator 24.1.0, SVG Export Plug-In . SVG Version: 6.00 Build 0)  -->
<svg version="1.1" id="Capa_1" xmlns="http://www.w3.org/2000/svg" xmlns:xlink="http://www.w3.org/1999/xlink" x="0px" y="0px"
	 viewBox="0 0 1080 1080" style="enable-background:new 0 0 1080 1080;" xml:space="preserve">
<style type="text/css">
	.st0{fill:#FFFFFF;stroke:#FFFFFF;stroke-width:18;stroke-linecap:round;stroke-linejoin:round;}
</style>
<path class="st0" d="M907,128.5L907,128.5v-4.3l0,0v-1.4l0,0v-5.7l0,0v-1.4l0,0v-1.4h-22.6l-69.3,15.6c-9.9,2.8-15.6,11.3-12.7,21.2
	c1.3,8.3,8.6,14.4,17,14.1h4.2l48.1-11.3v96.2L402.1,357.6v-96.2l277.2-63.6c9.9-2.8,15.6-11.3,12.7-21.2s-11.3-15.5-21.2-12.7
	l-289.9,66.5H371v1.4l0,0v1.4l0,0v8.5l0,0v1.4l0,0v519c-21.2-21.2-50.9-34-83.4-34c-65.6,0-118.8,53.2-118.8,118.8
	s53.2,118.8,118.8,118.8s118.8-53.2,118.8-118.8l0,0V390.1l469.5-107.5v364.9c-21.2-21.2-50.9-33.9-83.4-33.9
	c-65.6,0-118.8,53.2-118.8,118.8s53.2,118.8,118.8,118.8S911.2,798,911.2,732.3l0,0V128.5H907z M284.7,931.7
	c-45.2,0-83.4-36.8-83.4-83.4c0-45.2,36.8-83.4,83.4-83.4s83.4,36.8,83.4,83.4C366.8,895,330,931.7,284.7,931.7z M789.6,815.7
	c-45.3,0-83.4-36.8-83.4-83.4c0-45.3,36.8-83.4,83.4-83.4c45.2,0,83.4,36.8,83.4,83.4C871.6,779,834.9,815.8,789.6,815.7
	L789.6,815.7z"/>
</svg>
