<?xml version="1.0" encoding="utf-8"?>
<!-- Generator: Adobe Illustrator 24.1.0, SVG Export Plug-In . SVG Version: 6.00 Build 0)  -->
<svg version="1.1" id="Capa_1" xmlns="http://www.w3.org/2000/svg" xmlns:xlink="http://www.w3.org/1999/xlink" x="0px" y="0px"
	 viewBox="0 0 1080 1080" style="enable-background:new 0 0 1080 1080;" xml:space="preserve">
<style type="text/css">
	.st0{fill:#FFFFFF;stroke:#FFFFFF;stroke-width:5;stroke-miterlimit:10;}
	.st1{fill:#FFFFFF;}
</style>
<path class="st0" d="M645.9,841.8c-7,0-13.9-4.2-15.3-11.1c-2.8-7,0-13.9,5.6-18.1s13.9-5.6,19.5-1.4c5.6,4.2,8.4,11.2,7,18.1
	C661.2,834.8,654.3,841.8,645.9,841.8L645.9,841.8z"/>
<path class="st0" d="M555.5,921c-4.1,0.1-8.1-1.4-11.1-4.2c-8.3-7-215.5-180.7-255.8-243.3c-26.4-40.3-37.5-76.5-34.8-118.2
	c2.8-43.1,20.8-82,50-112.6c30.6-30.6,70.9-47.3,112.6-47.3c65.3,0,115.4,48.7,137.6,75.1c23.6-26.4,75.1-75.1,137.6-75.1
	c41.7,0,82,16.7,112.6,47.3s48.7,69.5,50,112.6c2.8,54.2-16.7,91.8-34.8,118.2c-11.1,16.7-93.2,95.9-109.8,111.2
	c-7,7-18.1,5.6-23.6,0c-7-7-5.6-18.1,0-23.6c47.3-44.5,98.7-95.9,104.3-105.7c22.2-34.8,30.6-64,29.2-98.7
	c-4.1-69.5-62.5-127.9-130.6-127.9s-123.7,77.9-123.7,79.2c-2.8,4.2-8.3,6.9-13.9,6.9s-11.1-2.8-13.9-7c0-1.4-52.8-79.2-123.7-79.2
	c-68.1,0-126.5,57-130.7,127.9c-1.4,34.8,7,65.3,29.2,98.7c33.4,51.4,196,190.5,239.1,228l23.6-18.1c7-5.6,18.1-4.2,23.6,2.8
	s4.2,18.1-2.8,23.6l-34.8,26.4C562.5,919.6,558.3,921,555.5,921L555.5,921z"/>
<path class="st1" d="M960.6,538.1c-21.3-8-44.4-9.9-66.7-5.6c-7,1.4-9.7,8.3-8.3,13.9l32,125.1c-13.9-5.6-29.2-7-45.9-2.8
	c-36.1,9.7-59.8,41.7-51.4,73.7s44.5,50,80.6,41.7c36.2-9.7,59.8-41.7,51.4-73.7l-39-155.7c29.2-1.4,66.7,12.5,72.3,34.8l11.1,44.5
	c1.4,7,8.3,9.7,13.9,8.3c7-1.4,9.7-8.3,8.3-13.9l-11.1-44.4C1003.7,563.1,987,547.8,960.6,538.1z M895.3,760.6
	c-23.6,5.6-45.9-4.2-51.4-23.6s9.7-38.9,33.4-44.5s45.9,4.2,51.4,23.6C932.8,734.1,918.9,755,895.3,760.6z"/>
<path class="st1" d="M120.4,463.4c33.1,0,58.2-23.6,58.2-52V291.8h3.1l146.4-39.4v47.2c-9.8-5-20.5-7.7-31.5-7.9
	c-33.1,0-58.2,23.6-58.2,52s26.8,52,58.2,52c33.1,0,58.2-23.6,58.2-52v-159c0-7.9-3.1-15.7-9.5-20.5c-6.3-4.7-14.3-6.4-22-4.7
	L174,198.9l0,0c-14.2,3.1-23.6,17.3-23.6,31.5v135.4c-9.8-5-20.5-7.7-31.5-7.9c-33.1,0-58.2,23.6-58.2,52S89,463.4,120.4,463.4z
	 M298.3,369c-17.3,0-31.5-11-31.5-25.2s14.2-25.2,31.5-25.2s31.5,11,31.5,25.2S315.6,369,298.3,369z M180.3,233.6
	c0-1.6,1.6-4.7,3.1-6.3l146.4-39.3V221c0,1.6-1.6,4.7-4.7,6.3l-146.4,39.3L180.3,233.6L180.3,233.6z M120.4,387.9
	c17.3,0,31.5,11,31.5,25.2s-14.2,25.2-31.5,25.2S89,427.2,89,413S103.1,387.9,120.4,387.9z"/>
</svg>
