<?xml version="1.0" encoding="utf-8"?>
<!-- Generator: Adobe Illustrator 24.1.0, SVG Export Plug-In . SVG Version: 6.00 Build 0)  -->
<svg version="1.1" id="Capa_1" xmlns="http://www.w3.org/2000/svg" xmlns:xlink="http://www.w3.org/1999/xlink" x="0px" y="0px"
	 viewBox="0 0 1080 1080" style="enable-background:new 0 0 1080 1080;" xml:space="preserve">
<style type="text/css">
	.st0{fill:#FFFFFF;}
</style>
<path class="st0" d="M503.7,876.5c-15.3,48.3-61.1,85.2-136.1,108.1c-2.5,1.3-5.1,1.3-7.6,1.3c-11.1-0.1-20.8-7.3-24.2-17.8
	c-3.8-12.7,3.8-26.7,16.5-30.5c58.5-17.8,92.9-43.3,103-75.1c3.8-12.7,17.8-20.4,30.5-16.5C499.9,849.8,507.6,863.8,503.7,876.5z
	 M382.9,852.3c0-13.3-10.8-24.2-24.1-24.2c0,0,0,0,0,0c-52.2,0-95.4-43.3-95.4-95.4V494.8c0-35.6,6.4-71.2,20.4-104.3
	c5.1-12.7-1.3-26.7-14-31.8s-26.7,1.3-31.8,14c-15.3,39.4-24.2,80.1-24.2,122.1v236.6c0,80.1,64.9,145,145,145
	C372,876.5,382.9,865.7,382.9,852.3C382.9,852.3,382.9,852.3,382.9,852.3z M748,555.9c0-38.2-6.4-73.8-17.8-105.6
	c0-1.3,0-1.3-1.3-2.5c-2.5-3.8-5.1-7.6-8.9-10.2c-1.3,0-1.3-1.3-2.5-1.3l0,0c-5.1-2.5-11.5-3.8-17.8-1.3c-1.3,0-1.3,0-2.5,1.3
	c-2.5,1.3-3.8,1.3-5.1,2.5c-35.6,25.4-91.6,39.4-151.4,39.4c-13.3,0-24.2,10.8-24.2,24.2s10.8,24.2,24.2,24.2c0,0,0,0,0,0l0,0
	c56,0,109.4-11.5,151.4-31.8c3.8,19.1,6.4,38.2,6.4,59.8c0,75.1-38.2,142.5-99.2,179.4c-24.2,14-42,20.4-58.5,20.4
	s-34.3-6.4-58.5-20.4c-61.1-35.6-99.2-104.3-99.2-179.4c0-21.6,2.5-40.7,6.4-59.8c5.1,2.5,8.9,3.8,14,6.4l2.5,1.3
	c16.5,6.4,28,11.5,42,6.4c14-6.4,17.8-17.8,22.9-31.8c1.5-3.3,2.8-6.7,3.8-10.2c6.4-16.5,14-35.6,16.5-45.8
	c3.8-12.7-3.8-26.7-16.5-30.5s-26.7,3.8-30.5,16.5c-2.5,6.4-8.9,24.2-15.3,40.7c-1,3.1-2.3,6-3.8,8.9h-1.3l-2.5-1.3
	c-12.7-5.1-22.9-11.5-33.1-17.8c-1.4-1.3-3.2-2.2-5.1-2.5c-1-0.1-1.9-0.6-2.5-1.3c-6.4-1.3-12.7-1.3-19.1,2.5l-1.3,1.3l0,0
	c-3.8,2.5-6.4,6.4-8.9,10.2c0,1.3-1.3,1.3-1.3,2.5c-11.5,31.8-17.8,66.2-17.8,105.6c0,91.6,47.1,176.8,124.7,221.4
	c31.8,19.1,57.2,26.7,84,26.7l0,0c25.4,0,52.2-8.9,84-26.7C699.7,732.7,748,647.5,748,555.9z M535.5,686.9c1.9-1,3.6-2.2,5.1-3.8
	c1.3,1.3,2.5,1.3,5.1,3.8c5.1,3.8,10.2,6.4,16.5,6.4c7.4,0,14.4-3.2,19.1-8.9c8.8-10.1,7.7-25.5-2.4-34.2c0,0-0.1-0.1-0.1-0.1
	c-7.6-7.6-20.3-16.5-36.9-16.5S512.6,643.6,505,650c-10.2,8.7-11.4,24-2.7,34.2c0,0,0.1,0.1,0.1,0.1
	C510.1,694.6,525.4,695.8,535.5,686.9L535.5,686.9z M866.3,494.8v236.7c0,80.1-64.9,145-145,145c-13.3,0-24.2-10.8-24.2-24.2
	c0-13.3,10.8-24.2,24.2-24.2c52.2,0,95.4-43.3,95.4-95.4V494.8c0-152.7-124.7-277.4-277.4-277.4c-21.4,0-42.8,2.5-63.6,7.6
	c1.3,6.4,1.3,14,1.3,20.4c0,63.6-47,114.5-105.6,114.5s-105.6-50.9-105.6-114.5c0-54.7,38.2-92.9,67.4-123.4l20.4-20.4
	c4.7-4.8,11.1-7.6,17.8-7.6l0,0c6.4,0,14,2.5,17.8,7.6c6.4,6.4,12.7,14,20.4,20.4c16.5,16.5,34.4,34.4,47.1,56
	c26.7-6.4,54.7-10.2,81.4-10.2C720,167.9,866.3,314.2,866.3,494.8L866.3,494.8z M428.7,245.5c0-34.3-25.4-61.1-53.4-87.8
	c-1.3-1.3-2.5-2.5-2.5-3.8c-1.3,1.3-2.5,2.6-2.5,3.8c-28,28-53.4,53.4-53.4,87.8c0,35.6,25.4,64.9,57.2,64.9
	C403.2,310.4,428.7,281.1,428.7,245.5z M725.1,937.6c-58.5-17.8-92.9-43.3-103-75.1c-3.8-12.7-17.8-20.4-30.5-16.5
	s-20.4,17.8-16.5,30.5c15.3,48.3,61.1,85.2,136.1,108.1c2.5,1.3,5.1,1.3,7.6,1.3c11.1-0.1,20.8-7.3,24.2-17.8
	C745.5,955.4,737.8,941.4,725.1,937.6z"/>
</svg>
