<?xml version="1.0" encoding="utf-8"?>
<!-- Generator: Adobe Illustrator 24.1.0, SVG Export Plug-In . SVG Version: 6.00 Build 0)  -->
<svg version="1.1" id="Capa_1" xmlns="http://www.w3.org/2000/svg" xmlns:xlink="http://www.w3.org/1999/xlink" x="0px" y="0px"
	 viewBox="0 0 1080 1080" style="enable-background:new 0 0 1080 1080;" xml:space="preserve">
<style type="text/css">
	.st0{fill:#FFFFFF;stroke:#FFFFFF;stroke-width:4;stroke-miterlimit:10;}
</style>
<path class="st0" d="M522.1,186.6c-3.5,3.5-3.5,10.6,0,15.9c3.5,3.5,10.6,3.5,15.9,0c3.5-3.5,3.5-10.6,0-15.9
	C534.5,183.1,527.4,183.1,522.1,186.6z"/>
<path class="st0" d="M522.1,103.5c-65.4,1.8-143.2,33.6-205.1,88.4c-40.7-8.9-81.3,3.5-111.4,31.8c-12.4,12.4-12.4,33.6,0,46
	l35.4,35.3c-23,65.4-26.5,134.4-28.3,169.8c-20.1-12.8-43.4-19.5-67.2-19.5c-31.9,0-62.5,12.7-84.9,35.4c-3.5,3.5-3.5,10.6,0,15.9
	c22.4,22.7,53,35.4,84.9,35.4c14.1,0,28.3-1.8,42.4-7.1c-5.3,12.4-7.1,26.5-7.1,42.4c0,31.9,12.7,62.5,35.4,84.9
	c1.8,1.8,5.3,3.5,7.1,3.5s5.3-1.8,7.1-3.5c22.7-22.4,35.4-53,35.4-84.9c0.1-23.8-6.7-47.1-19.4-67.2c35.4,0,104.3-5.3,169.7-28.3
	l35.4,35.4c12.4,12.4,33.6,12.4,46,0c28.3-28.3,40.7-70.7,31.8-111.4c47.8-54.8,84.8-132.6,88.4-206.9c1.8-33.6-7.1-61.9-21.2-76
	C585.8,110.6,555.7,103.5,522.1,103.5z M221.5,239.7c19.4-19.4,47.8-30.1,76-28.3c-17.7,19.4-33.6,44.2-46,72.5l-28.2-28.3
	C218,250.3,218,243.2,221.5,239.7z M87.2,499.6c17.7-14.1,38.9-21.2,61.9-21.2s44.2,7.1,61.9,21.2c-17.7,14.2-38.9,21.2-61.9,21.2
	S104.8,513.8,87.2,499.6z M225.1,637.5c-14.1-17.7-21.2-38.9-21.2-61.9s7.1-44.2,21.2-61.9c14.1,17.7,21.2,38.9,21.2,61.9
	C246.3,600.4,239.2,621.6,225.1,637.5z M485,503.1c-3.5,3.5-10.6,3.5-15.9,0l-28.3-28.3c26.7-10.9,51.3-26.5,72.5-46
	C515.1,455.4,504.5,483.7,485,503.1z M598.2,200.8c-2.1,34-9.9,67.5-23,99c-30.1,7.1-63.6,1.8-92-15.9c-5.4-3.4-12.5-1.8-15.9,3.5
	c-3.4,5.4-1.8,12.5,3.5,15.9l0,0c28.3,17.7,60.1,26.5,93.7,23c-14.1,26.5-31.8,51.3-51.3,74.3l0,0L500.9,413
	c-60.1,60.1-178.6,79.6-265.2,77.8c0-86.6,17.7-203.4,77.8-265.2l12.4-12.4c23-21.2,47.7-37.1,74.3-51.3c-1.8,23,0,46,8.9,69
	c1.8,5.3,8.8,8.8,14.1,5.3c5.3-1.8,8.8-8.8,5.3-14.1c-8.8-22.5-10.6-47.1-5.3-70.7c30.9-13.1,63.8-20.9,97.3-23
	c30.1-1.8,53,7.1,60.1,14.1C592.9,149.5,599.9,170.7,598.2,200.8z"/>
<path class="st0" d="M437.3,253.8c-3.5,3.5-3.5,10.6,0,15.9c3.5,3.5,10.6,3.5,15.9,0c3.5-3.5,3.5-10.6,0-15.9
	C447.9,250.3,440.8,250.3,437.3,253.8z"/>
<path class="st0" d="M392.5,674.1v86.6c-0.2,80.9,65.2,146.6,146,146.8c0.2,0,0.5,0,0.7,0c61.9,0,106.1,17.7,148.5,35.4
	c40.7,17.7,79.6,33.6,130.8,33.6c111.4,0,203.3-90.2,203.3-203.3v-86.7c0-111.4-90.2-203.3-203.3-203.3
	c-42.4,0-153.8,3.5-252.9,30.1c-51.3,14.1-92,33.6-120.2,54.8C410.2,599.8,392.5,633.4,392.5,674.1z M456.2,762.5
	c-24.7-22.8-38.8-54.8-38.9-88.4c0-61.9,53-106.1,155.6-134.4c95.5-26.5,203.3-28.3,245.8-28.3c98.6,0,178.6,80,178.6,178.6
	s-80,178.6-178.6,178.6c-46,0-83.1-15.9-122-31.8c-44.2-19.5-90.2-37.1-157.4-37.1h-10.6c-7.1,0-12.4,3.5-14.2,10.6
	c0,7.1,3.5,12.4,10.6,14.2h14.2c61.9,0,106.1,17.7,148.5,35.4c40.7,17.7,79.6,33.6,130.8,33.6c74,0.1,142.1-40.7,176.8-106.1
	c-5.3,92-83.1,166.2-176.8,166.2c-46,0-83.1-15.9-122-31.8c-44.2-19.5-90.2-37.1-157.4-37.1s-122-54.8-122-122v-5.3
	c7.1,8.8,14.1,17.7,21.2,26.5c5.3,5.3,12.4,3.5,17.7,0C461.5,774.9,461.5,767.8,456.2,762.5z"/>
<path class="st0" d="M472.1,805c1.8,0,3.5,1.8,5.3,1.8c5.3,0,8.8-1.8,10.6-7.1c3.5-5.3,0-14.2-5.3-15.9l0,0
	c-5.3-3.5-14.1,0-15.9,5.3C463.3,794.3,466.8,801.4,472.1,805z"/>
<path class="st0" d="M719.7,550.3c0,7.1,5.3,10.6,12.4,10.6h1.8c7.1,0,12.4-7.1,10.6-12.4c0-7.1-7.1-12.4-12.4-10.6l0,0
	C723.2,538,717.9,545,719.7,550.3z"/>
<path class="st0" d="M442,674.1c-0.1,53.6,43.2,97.1,96.7,97.2c0.2,0,0.3,0,0.5,0c38.9,0,76,7.1,113.2,19.5
	c17.7,5.3,33.6,12.4,49.5,19.5c10.6,5.3,23,8.8,33.6,14.2c31.8,12.4,54.8,17.7,81.3,17.7c84.9,0,153.8-69,153.8-153.8
	s-69-153.8-153.8-153.8h-49.5c-6.8,0-12.4,5.5-12.4,12.4s5.5,12.4,12.4,12.4h49.5c70.7,0,129.1,58.3,129.1,129.1
	s-58.4,129.1-129.1,129.1c-23,0-44.2-5.3-72.5-15.9c-11.5-4-22.7-8.7-33.6-14.2c-16.7-7.5-33.8-14-51.3-19.5
	c-40.7-14.1-81.3-21.2-122-21.2c-40.7,0-74.3-33.6-74.3-74.3c0-8.8,1.8-15.9,5.3-21.2c15.9-31.8,74.3-60.1,157.4-76
	c14.2-3.5,30.1-5.3,44.2-7.1c7.1-1.8,10.6-7.1,10.6-14.2c-1.8-7.1-7.1-10.6-14.2-10.6c-15.9,1.8-31.8,5.3-46,7.1
	c-24.8,5.3-61.9,14.1-95.5,26.5c-40.7,17.7-69,37.1-81.3,61.9C445.6,651.1,442,661.7,442,674.1z"/>
<path class="st0" d="M744.4,638.7c0,31.8,28.3,56.6,61.9,56.6s61.9-24.8,61.9-56.6s-28.3-56.6-61.9-56.6
	C772.7,583.9,744.4,608.7,744.4,638.7z M769.2,638.7c0-17.7,17.7-31.8,37.1-31.8s37.1,14.2,37.1,31.8s-17.7,31.8-37.1,31.8
	S769.2,656.4,769.2,638.7z"/>
</svg>
