<?xml version="1.0" encoding="utf-8"?>
<!-- Generator: Adobe Illustrator 24.1.0, SVG Export Plug-In . SVG Version: 6.00 Build 0)  -->
<svg version="1.1" id="Capa_1" xmlns="http://www.w3.org/2000/svg" xmlns:xlink="http://www.w3.org/1999/xlink" x="0px" y="0px"
	 viewBox="0 0 1080 1080" style="enable-background:new 0 0 1080 1080;" xml:space="preserve">
<style type="text/css">
	.st0{fill:#FFFFFF;}
	.st1{fill:#FFFFFF;stroke:#FFFFFF;stroke-width:5;stroke-miterlimit:10;}
</style>
<path class="st0" d="M387.3,178.2c0-22.1,4.2-48.5,22.2-62.3c12.5-9.7,8.3-26.3-8.3-27.7c-37.4-4.2-76.1,1.4-98.3,31.8
	c-6.9-8.3-15.2-12.5-24.9-12.5h-67.8c-9.7-22.2-38.8-29.1-55.4-11.1c-6.3,6.2-9.8,14.7-9.7,23.5c0,263.1-1.4,247.9,2.8,257.5
	l48.5,101.1c-4.2,11.1-2.8-18-2.8,415.4c0,12.5,5.5,24.9,13.8,34.6c30.4,30.5,81.7,8.3,81.7-34.6V631c-0.2-6.9-5.9-12.3-12.8-12.1
	c-6.6,0.2-11.9,5.5-12.1,12.1v199.4h-45.7v-270H264v29.1c-0.2,6.9,5.2,12.6,12.1,12.8c6.9,0.2,12.6-5.2,12.8-12.1c0-0.2,0-0.5,0-0.7
	v-94.1c0-20.8-13.9-38.8-33.2-45.7l-44.3-94.2V325h65.1c11.1,0,20.8-5.5,27.7-15.2c9,7.3,20.3,11.2,31.8,11.1
	c27.7,0,51.2-23.5,51.2-51.2V178.2z M277.9,132.5c4.1,0,8.3,4.2,8.3,8.3v15.2h-73.4v-23.5H277.9z M286.2,181v23.5h-73.4V181H286.2z
	 M265.4,853.9v38.8c-0.2,6.2-2.7,12.1-6.9,16.6c-13.9,13.8-38.8,4.2-38.8-16.6v-38.8H265.4z M247.4,470.4c11.1,2.8,18,11.1,18,22.1
	v40.2h-45.7v-40.2C219.8,481.4,229.4,469,247.4,470.4L247.4,470.4z M229.4,446.8c-5.7,1.4-11,4.2-15.2,8.3
	c-45.7-95.5-44.3-90-44.3-92.8c0-261.7-1.4-245.1,2.8-249.2c5.5-5.5,15.2-1.4,15.2,6.9c0,256.1,0,239.5,1.4,243.7L229.4,446.8z
	 M212.8,251.6v-23.5h73.4v23.5H212.8z M286.2,290.4c0,4.1-4.2,8.3-8.3,8.3h-65.1v-20.8h73.4V290.4z M362.4,178.2v91.4
	c0,14.5-11.8,26.3-26.3,26.3c0,0,0,0,0,0c-13.8,0-23.5-9.7-26.3-22.2V169.9c2.8-38.8,29.1-56.8,69.2-56.8
	C370.7,124.2,362.4,145,362.4,178.2L362.4,178.2z"/>
<path class="st1" d="M473.1,643.4l24.9-24.9l-15.2-15.2l-40.1,40.2l73.4,73.4l15.2-15.2L473.1,643.4z"/>
<path class="st1" d="M525.8,729.3l15.2-15.2l22.2,22.2l-15.2,13.8L525.8,729.3z"/>
<path class="st1" d="M693.3,668.4l22.2-22.2l15.2,15.2l-22.2,22.2L693.3,668.4z"/>
<path class="st1" d="M726.5,636.5l22.2-22.2l15.2,15.2l-22.2,22.2L726.5,636.5z"/>
<path class="st1" d="M773.6,618.5l105.2-106.6l-40.2-40.2L823.4,487l24.9,24.9l-90,91.4L773.6,618.5z"/>
<path class="st1" d="M845.6,798.5h-126L938.4,577c35.1-35.2,35.1-92.2,0-127.4L788.8,298.7c-16.8-17-39.8-26.5-63.7-26.3
	c-23.9,0.1-46.7,9.6-63.7,26.3L556.2,405.3h-6.9c-5.5-24.9-26.3-44.3-52.6-44.3c-26,0.1-48.1,18.7-52.6,44.3h-1.4
	c-30.5,0-54,24.9-54,55.4c0,22.2,13.9,41.5,33.2,51.2v4.2c0,8.3,2.8,15.2,5.5,22.2l-45.7,45.7c-35.1,35.2-35.1,92.2,0,127.4
	l137.1,138.4v29.1c0,5.5-5.5,11.1-11.1,11.1h-54c-18,0-33.2,15.2-33.2,33.2s15.2,33.2,33.2,33.2h336.5c18,0,33.2-15.2,33.2-33.2
	s-15.2-33.2-33.2-33.2H757c-5.5,0-11.1-5.5-11.1-11.1s5.5-11.1,11.1-11.1h87.2c18,0,33.2-15.2,33.2-33.2S863.6,798.5,845.6,798.5z
	 M470.4,505l-11.1-19.4c-4.6,2.8-9.9,4.3-15.2,4.1c-18,0-33.2-15.2-33.2-33.2s15.2-33.2,33.2-33.2h1.4c1.3,9.5,5.7,18.2,12.5,24.9
	l16.6-15.2c-5.5-5.5-8.3-13.8-8.3-22.1c0-18,15.2-33.2,33.2-33.2c15.2,0,29.1,11.1,31.8,27.7c-10.4,4.6-19.1,12.4-24.9,22.1
	l19.4,11.1c5.5-9.7,16.6-16.6,27.7-16.6c18,0,33.2,15.2,33.2,33.2c0.1,10.5-5.1,20.4-13.8,26.3c-4.2-12.9-13.1-23.8-24.9-30.5
	l-11.1,19.4c10.3,6.1,16.6,17.1,16.6,29.1c0,18-15.2,33.2-33.2,33.2c-8.3,0-16.6-2.8-22.1-8.3l-8.3-8.3l-6.9,8.3
	c-3.8,5.4-10,8.5-16.6,8.3c-12.1,0.2-22-9.5-22.1-21.6c0-0.2,0-0.4,0-0.6C452.4,511.9,462,509.1,470.4,505z M606,456.5
	c0-2.8,0-6.9-1.4-9.7l103.8-105.2c9.4-9.6,24.7-9.7,34.3-0.3c0.1,0.1,0.2,0.2,0.3,0.3l149.5,150.9c4.2,4.1,6.9,11.1,6.9,18
	s-2.8,12.5-6.9,18L613,812.4c-9.4,9.6-24.7,9.7-34.3,0.3c-0.1-0.1-0.2-0.2-0.3-0.3L428.8,661.4c-4.1-4.2-6.9-11.1-6.9-18
	s2.8-12.5,6.9-18l73.4-73.4c5.5,1.4,11.1,2.8,18,2.8c27.7,0,49.8-20.8,54-48.5C593.6,499.4,606,478.7,606,456.5L606,456.5z
	 M379,643.4c0-18,6.9-36,19.4-48.5l45.7-45.7c6.9,4.2,13.9,6.9,22.2,6.9h2.8l-54,55.4c-8.7,8.9-13.7,20.8-13.9,33.2
	c-0.2,12.5,4.8,24.6,13.9,33.2L564.5,829c8.9,8.7,20.8,13.7,33.2,13.8c12.5,0,23.5-5.5,33.2-13.8l279.7-283.9
	c8.7-8.9,13.7-20.8,13.8-33.2c0-12.5-4.2-23.5-13.8-33.2L761.1,327.8c-8.9-8.7-20.8-13.7-33.2-13.8c-12.5,0-23.5,5.5-33.2,13.8
	l-96.9,98.3c-4.4-5.7-9.5-10.9-15.2-15.2l96.9-98.3c12.5-12.5,30.5-20.8,48.5-20.8s34.6,6.9,48.5,20.8l149.5,150.9
	c12.5,12.5,19.4,30.5,19.4,48.5c0,18-6.9,36-19.4,48.5L646.2,844.2c-12.5,12.5-30.5,20.8-48.5,20.8s-34.6-6.9-48.5-20.8L399.8,693.3
	C385.9,679.4,379,662.8,379,643.4z M845.6,841.4h-87.2c-18,0-33.2,15.2-33.2,33.2s15.2,33.2,33.2,33.2h33.2
	c5.5,0,11.1,5.5,11.1,11.1s-5.5,11.1-11.1,11.1H455.1c-5.5,0-11.1-5.5-11.1-11.1s5.5-11.1,11.1-11.1h54c18,0,33.2-15.2,33.2-33.2
	v-8.3c15.3,12.5,34.3,19.3,54,19.4c23.9-0.1,46.7-9.6,63.7-26.3l38.8-40.2H847c5.5,0,11.1,5.5,11.1,11.1
	C856.7,837.3,851.1,841.4,845.6,841.4L845.6,841.4z"/>
</svg>
