<?xml version="1.0" encoding="utf-8"?>
<!-- Generator: Adobe Illustrator 24.1.0, SVG Export Plug-In . SVG Version: 6.00 Build 0)  -->
<svg version="1.1" id="Capa_1" xmlns="http://www.w3.org/2000/svg" xmlns:xlink="http://www.w3.org/1999/xlink" x="0px" y="0px"
	 viewBox="0 0 1080 1080" style="enable-background:new 0 0 1080 1080;" xml:space="preserve">
<style type="text/css">
	.st0{fill:#FFFFFF;stroke:#FFFFFF;stroke-width:8;stroke-miterlimit:10;}
</style>
<path class="st0" d="M626.5,236.3c-9.3,0-16.8,7.5-16.8,16.8c0,9.3,7.5,16.8,16.8,16.8s16.8-7.5,16.8-16.8l0,0
	C643.3,245.3,635.6,236.3,626.5,236.3z"/>
<path class="st0" d="M452.1,236.3c-9.3,0-16.8,7.5-16.8,16.8c0,9.3,7.5,16.8,16.8,16.8s16.8-7.5,16.8-16.8l0,0
	C470.1,245.3,462.4,236.3,452.1,236.3z"/>
<path class="st0" d="M917.3,613.7c15.5-22,22-50.4,22-75c0-36.2-16.8-71.1-43.9-93c6.5-14.2,9-29.7,9-45.2
	c0-49.1-28.4-94.3-69.8-115c6.5-53-28.4-102.1-78.8-113.7c-19.4-46.5-64.6-77.5-111.1-77.5c-43.9,0-82.7,25.8-104.7,63.3
	C518,120,479.2,94.1,435.3,94.1c-46.5,0-91.8,31-111.1,77.5c-51.7,12.9-85.3,60.8-78.8,113.7c-42.7,20.7-69.8,65.9-69.8,115
	c0,15.5,2.6,31,9,45.2c-28,22.7-44.2,57-43.9,93.1c0,24.5,7.8,53,22,75c-14.2,20.5-21.9,44.8-22,69.8c0.1,32.5,13.1,63.6,36.2,86.5
	C165.1,842.4,222,916,297,916h1.3c24.6,42.7,71.1,69.8,120.2,69.8c51.7,0,98.2-31,121.5-76.2c24.5,45.2,69.8,76.2,121.5,76.2
	c49.1,0,95.6-27.1,120.2-69.8h1.3c65.9,0,121.5-58.2,121.5-126.7c0-6.5,0-11.6-1.3-18.1c23.1-22.9,36.1-54.1,36.2-86.6
	C940.6,657.6,931.5,633,917.3,613.7z M521.8,356.5c-10.3-6.5-22-9-34.9-9c-9.3,0-16.8,7.5-16.8,16.8c0,9.3,7.5,16.8,16.8,16.8
	c19.2-0.1,34.8,15.4,34.9,34.6c0,0.1,0,0.2,0,0.3v330.8C496,718.3,458.5,699,417.2,699c-9.3,0-16.8,7.5-16.8,16.8
	c0,9.3,7.5,16.8,16.8,16.8c57.6-0.2,104.4,46.2,104.7,103.8c0,0.3,0,0.5,0,0.8c0,59.5-47.8,109.9-104.7,109.9
	c-40.1,0-77.5-23.3-94.3-60.8c-2.6-6.5-10.3-10.3-18.1-10.3h-3.9c-49.1,6.5-106-49.1-90.5-112.4c1.3-6.5-1.3-12.9-5.2-18.1
	c-20.4-16.4-32.3-41.1-32.3-67.2c-0.1-16,4.4-31.7,12.9-45.2c20.7,16.8,46.5,27.1,74.9,27.1c9.3,0,16.8-7.5,16.8-16.8
	s-7.5-16.8-16.8-16.8c0,0,0,0,0,0c-47.8,0-86.6-42.7-86.6-91.8c0-29.7,15.5-56.9,40.1-73.7c7.8-5.2,10.3-15.5,6.5-23.3
	c-7.7-14.2-11.6-28.4-11.6-42.6c0-46.5,38.8-91.8,86.6-91.8c46.5,0,86.6,42.6,86.6,91.8c0,9.3,7.5,16.8,16.8,16.8
	c9.3,0,16.8-7.5,16.8-16.8c0-68.5-55.6-126.6-121.5-126.6c-6.5,0-11.6,0-16.8,1.3v-1.3c-0.2-38.4,30.8-69.6,69.2-69.8
	c0.2,0,0.4,0,0.6,0c18.1,0,36.2,7.8,49.1,20.7c6.5,6.5,18.1,6.5,24.6,0s6.5-18.1,0-24.6c-15.5-15.5-36.2-25.9-58.2-29.7
	c15.5-23.2,41.4-41.3,71.1-41.3c46.5,0,86.6,42.6,86.6,91.8v140.9H521.8z M817.8,665.4c27.1,0,53-10.3,75-27.1
	c8.3,13.6,12.8,29.3,12.9,45.2c0,26.1-11.9,50.8-32.3,67.2c-5.5,4.3-7.5,11.6-5.2,18.1c1.3,7.8,2.6,14.2,2.6,20.7
	c0,54.3-49.1,98.2-93.1,91.8h-3.9c-7.8-1.3-14.2,2.6-18.1,10.3c-16.8,37.5-54.4,60.7-94.4,60.7c-56.9,0-104.7-50.4-104.7-109.8
	C556.5,784.8,603,738,660.5,737.7c0.3,0,0.6,0,0.9,0c9.3,0,16.8-7.5,16.8-16.8s-7.5-16.8-16.8-16.8c0,0,0,0,0,0
	c-40.2,0-78.4,17.4-104.7,47.9V421.1c-0.1-19.2,15.4-34.8,34.6-34.9c0.1,0,0.2,0,0.3,0c9.3,0,16.8-7.5,16.8-16.8
	c0-9.3-7.5-16.8-16.8-16.8c-12.9,0-24.5,3.9-34.9,9v-137c0-49.1,40.1-91.8,86.6-91.8c29.7,0,55.6,18.1,71.1,41.4
	c-22,3.9-41.4,12.9-58.2,29.7c-6.5,6.5-6.5,18.1,0,24.6s18.1,6.5,24.6,0c12.9-12.9,31-20.7,49.1-20.7c38.4-0.2,69.6,30.8,69.8,69.2
	c0,0.2,0,0.4,0,0.6v1.3c-5.2-1.3-11.6-1.3-16.8-1.3c-65.9,0-121.5,58.2-121.5,126.6c0,9.3,7.5,16.8,16.8,16.8s16.8-7.5,16.8-16.8
	c0,0,0,0,0,0c0-49.1,40.1-91.8,86.6-91.8c49.1,0,86.6,45.2,86.6,91.8c0,14.2-3.9,28.4-11.6,42.6c-5.2,7.8-2.6,18.1,6.4,23.3
	c25.8,15.5,40.1,43.9,40.1,73.7c0,49.1-40.1,91.8-86.6,91.8c-9.2,0.2-16.6,7.6-16.8,16.8C799.7,661.5,808.8,665.4,817.8,665.4
	L817.8,665.4z"/>
<path class="st0" d="M483.1,465c-6.5-7.8-16.8-7.8-24.5-1.3C403,514.1,313.8,474,313.8,399.1c0-9.3-7.5-16.8-16.8-16.8
	c-9.3,0-16.8,7.5-16.8,16.8c0,60.7,43.9,111.1,102.1,120.2c-6.5,20.7-27.1,36.2-50.4,36.2c-9.3,0-16.8,7.5-16.8,16.8
	c0,9.3,7.5,16.8,16.8,16.8c42.6,0,77.6-31,85.3-71.1c24.6-2.6,46.5-12.9,65.9-29.7C488.2,483.1,489.5,472.8,483.1,465z"/>
<path class="st0" d="M295.7,770c-9.3,0-16.8,7.5-16.8,16.8s7.5,16.8,16.8,16.8c0,0,0,0,0,0c46.5,0,86.6,42.7,86.6,91.8
	c0,9.3,7.5,16.8,16.8,16.8c9.3,0,16.8-7.5,16.8-16.8C417.2,828.2,361.6,770,295.7,770z"/>
<path class="st0" d="M435.3,630.5c-59.5,0-109.9,32.3-137,78.8c-5.2,7.8-1.3,19.4,6.5,23.3c7.8,5.2,19.4,1.3,23.3-6.5
	c20.7-36.2,60.7-62,106-62c9.2-0.2,16.6-7.6,16.8-16.8C450.8,638.2,444.3,630.5,435.3,630.5z"/>
<path class="st0" d="M748,555.5c-23.3,0-42.7-15.5-50.4-36.2c58.2-9,102.1-59.5,102.1-120.2c0-9.3-7.5-16.8-16.8-16.8
	c-9.3,0-16.8,7.5-16.8,16.8c0,47.8-38.8,86.6-86.6,86.6c-22,0-42.7-7.8-58.2-22c-7.8-6.5-18.1-5.2-24.6,1.3
	c-6.5,7.8-5.2,18.1,1.3,24.6c18.2,16.8,41.3,27.2,65.9,29.8c7.8,40.1,42.7,71.1,85.3,71.1c9.2-0.2,16.6-7.6,16.8-16.8
	C766.1,564.6,758.3,555.5,748,555.5z"/>
<path class="st0" d="M782.9,770c-65.9,0-121.5,58.2-121.5,126.7c0,9.3,7.5,16.8,16.8,16.8S695,906,695,896.7c0,0,0,0,0,0
	c0-49.1,40.1-91.8,86.6-91.8c9.2-0.2,16.6-7.6,16.8-16.8C798.4,779.1,793.2,770,782.9,770z"/>
<path class="st0" d="M780.3,710.6c-27.1-46.5-77.5-78.8-137-78.8c-9.3,0-16.8,7.5-16.8,16.8s7.5,16.8,16.8,16.8c0,0,0,0,0,0
	c44-0.2,84.6,23.6,106,62c5.2,7.8,15.5,11.6,23.3,6.5C781.6,728.7,785.5,718.3,780.3,710.6z"/>
</svg>
