<?xml version="1.0" encoding="utf-8"?>
<!-- Generator: Adobe Illustrator 24.1.0, SVG Export Plug-In . SVG Version: 6.00 Build 0)  -->
<svg version="1.1" id="Capa_1" xmlns="http://www.w3.org/2000/svg" xmlns:xlink="http://www.w3.org/1999/xlink" x="0px" y="0px"
	 viewBox="0 0 1080 1080" style="enable-background:new 0 0 1080 1080;" xml:space="preserve">
<style type="text/css">
	.st0{fill:#FFFFFF;}
	.st1{fill:#FFFFFF;stroke:#FFFFFF;stroke-width:6;stroke-linecap:round;stroke-linejoin:round;}
</style>
<path class="st0" d="M976.4,618.9c-25.1-10-53.9-11.3-76.4-6.3c-7.5,1.2-12.5,10-10,16.3l36.3,144.1c-16.3-6.3-33.8-8.8-52.6-3.8
	c-41.3,10-68.9,48.9-58.9,86.5s51.4,57.6,92.7,47.6s68.9-48.9,58.9-86.5l-45.1-180.5c33.8-2.5,76.5,15,84,41.3l12.5,51.4
	c1.2,7.5,10,12.5,16.3,10c7.5-1.3,12.5-10,10-16.3l-12.5-51.4C1024,649,1005.2,630.2,976.4,618.9z M898.7,877.1
	c-27.6,6.3-53.9-5-58.9-27.6s12.5-45.1,38.8-52.6c27.6-6.3,53.9,5,58.9,27.6S926.3,870.8,898.7,877.1z"/>
<path class="st0" d="M96.7,487.3c32.6,0,60.2-23.8,60.2-53.9V313.1c1.4,0.2,2.8-0.3,3.8-1.2L311,271.8v47.6
	c-9.9-5.7-21.1-8.7-32.6-8.8c-32.6,0-60.1,23.8-60.1,52.6s27.6,53.9,60.1,53.9s60.2-23.8,60.2-53.9V200.4c0.1-8.3-3.6-16.1-10-21.3
	c-6.3-5-13.8-6.3-22.6-3.8l-153,41.3l0,0c-13.8,3.8-25.1,17.6-25.1,32.6v137.8c-9.9-5.7-21.2-8.7-32.6-8.8
	c-32.6,0-60.2,23.8-60.2,53.9C36.5,463.5,62.8,487.3,96.7,487.3z M278.4,390.8c-17.5,0-32.6-11.3-32.6-25.1s15-25.1,32.6-25.1
	S311,352,311,365.8C311,378.3,295.9,390.8,278.4,390.8z M156.8,250.5c0-2.5,2.5-5,3.8-6.3L311,204.1V238c0,2.5-2.5,5-3.8,6.3
	l-150.4,40.1V250.5z M96.7,408.4c17.5,0,32.6,11.3,32.6,25.1s-15,25.1-32.6,25.1s-32.6-11.3-32.6-25.1S79.1,408.4,96.7,408.4z"/>
<path class="st1" d="M611.7,370.8c-6.2,0-11.3,5-11.3,11.3s5,11.3,11.3,11.3c6.2,0,11.3-5,11.3-11.3c0,0,0,0,0,0
	C621.8,377,616.7,370.8,611.7,370.8z"/>
<path class="st1" d="M498.9,370.8c-6.2,0-11.3,5.1-11.3,11.3s5.1,11.3,11.3,11.3s11.3-5.1,11.3-11.3l0,0
	C510.2,377,505.2,370.8,498.9,370.8z"/>
<path class="st1" d="M798.5,613.9c10-13.8,13.8-32.6,13.8-48.9c0-23.8-11.3-46.4-28.8-60.1c4-9.1,6.1-18.9,6.3-28.8
	c0-31.3-18.8-60.2-45.1-73.9c3.6-33.7-18.4-64.9-51.4-72.7c-12.5-30.1-41.4-50.1-71.4-50.1c-28.8,0-53.9,16.3-67.7,41.4
	c-13.8-23.8-38.8-41.4-67.7-41.4c-30.1,0-58.9,20.1-71.4,50.1c-33.8,8.8-55.1,38.9-51.4,72.7c-27.6,13.8-45.1,42.6-45.1,73.9
	c0,10,1.3,20,6.3,28.8c-18.8,15-28.8,36.3-28.8,60.2c0,16.3,5,33.8,13.8,48.9c-8.8,13.8-13.8,28.8-13.8,45.1
	c0.1,21.2,8.7,41.5,23.8,56.4c-7.5,46.4,28.8,94,77.7,94h1.2c16.3,27.6,46.4,45.1,77.7,45.1c33.8,0,62.7-20,77.7-48.9
	c16.3,28.8,45.1,48.9,77.7,48.9c31.3,0,61.4-17.5,77.7-45.1h1.2c42.6,0,77.7-37.6,77.7-81.5c0-3.8,0-7.5-1.2-11.3
	c15.1-14.9,23.7-35.2,23.8-56.4C813.5,643.8,808.9,626.9,798.5,613.9z M544.1,448.5c-6.8-4.1-14.6-6.3-22.6-6.3
	c-6.2,0-11.3,5.1-11.3,11.3c0,6.2,5,11.3,11.3,11.3c12.4-0.1,22.5,10,22.6,22.4c0,0.1,0,0.1,0,0.2v213
	c-16.3-18.8-41.4-31.3-67.7-31.3c-6.2,0-11.3,5-11.3,11.3c0,6.2,5,11.3,11.3,11.3c0,0,0,0,0,0c37.2-0.2,67.5,29.9,67.7,67.1
	c0,0.2,0,0.4,0,0.6c0,38.8-31.3,70.2-67.7,70.2c-26.3,0-50.1-15-60.2-38.8c-1.2-3.8-6.3-6.3-11.3-6.3h-2.5
	c-31.3,3.8-67.7-31.3-58.9-72.7c1.2-3.8-1.3-8.8-3.8-11.3c-13.8-11.3-21.3-26.3-21.3-43.9c0-10,2.5-20,8.8-28.8
	c13.7,11.5,31,17.7,48.9,17.5c6.2,0,11.3-5.1,11.3-11.3c0-6.2-5-11.3-11.3-11.3c-31.3,0-56.4-27.6-56.4-58.9
	c0-18.8,10-36.3,26.3-47.6c4.7-3.4,6.3-9.8,3.8-15c-4.8-8.4-7.4-17.9-7.5-27.6c0-30.1,25.1-58.9,56.4-58.9
	c30.1,0,56.4,27.6,56.4,58.9c0,6.2,5,11.3,11.3,11.3s11.3-5,11.3-11.3c0,0,0,0,0,0c0-43.9-36.3-81.5-77.7-81.5
	c-3.8,0-7.5,0-11.3,1.3v-1.3c-0.1-24.8,20-45,44.8-45.1c0.1,0,0.2,0,0.4,0c11.3,0,23.8,5,31.3,13.8c3.8,3.8,11.3,3.8,16.3,0
	s3.8-11.3,0-16.3c-10-10-23.8-16.3-37.6-18.8c10-15,26.3-26.3,46.4-26.3c30.1,0,56.4,27.6,56.4,58.9L544.1,448.5L544.1,448.5z
	 M734.5,647.7c17.5,0,33.8-6.3,48.9-17.5c5,8.8,8.8,18.8,8.8,28.8c-0.2,17.1-8,33.2-21.3,43.9c-3.6,2.5-5.1,7.1-3.8,11.3
	c1.2,5,1.2,8.8,1.2,13.8c0,35.1-31.3,62.7-60.2,58.9h-2.5c-5-1.2-8.8,1.2-11.3,6.3c-11.3,23.8-35.1,38.9-60.1,38.9
	c-36.3,0-67.7-32.6-67.7-70.2c-0.2-37.2,29.9-67.5,67.1-67.7c0.2,0,0.4,0,0.6,0c6.2,0,11.3-5,11.3-11.3c0-6.2-5-11.3-11.3-11.3
	c0,0,0,0,0,0c-26.3,0-51.4,11.3-67.7,31.3v-213c0-12.4,10-22.5,22.4-22.6c0.1,0,0.1,0,0.2,0c6.2,0.2,11.4-4.7,11.6-10.9
	c0.2-6.2-4.7-11.4-10.9-11.6c-0.2,0-0.4,0-0.7,0c-7.9,0-15.8,2.1-22.6,6.2v-87.7c0-31.3,26.3-58.9,56.4-58.9
	c18.8,0,36.3,11.3,46.4,26.3c-13.8,2.5-26.3,8.8-37.6,18.8c-3.8,3.8-3.8,11.3,0,16.3c3.8,3.8,11.3,3.8,16.3,0
	c8.8-8.8,20-13.8,31.3-13.8c24.8-0.1,45,19.9,45.1,44.7c0,0.1,0,0.2,0,0.4v1.3c-3.8-1.3-7.5-1.3-11.3-1.3
	c-42.6,0-77.7,37.6-77.7,81.5c0,6.2,5,11.3,11.3,11.3c6.2,0,11.3-5,11.3-11.3c0,0,0,0,0,0c0-31.3,26.3-58.9,56.4-58.9
	c31.3,0,56.4,28.8,56.4,58.9c-0.1,9.7-2.7,19.2-7.5,27.6c-3.8,5-1.2,11.3,3.8,15c16.3,10,26.3,28.8,26.3,47.6
	c0,31.3-26.3,58.9-56.4,58.9c-6.2,0-11.3,5-11.3,11.2c0,0.1,0,0.1,0,0.2C725.8,645.2,728.3,647.7,734.5,647.7z"/>
<path class="st1" d="M519,518.7c-3.8-5-11.3-5-16.3-1.3c-36.3,32.6-92.7,6.3-92.7-41.3c0-6.2-5.1-11.3-11.3-11.3
	c-6.2,0-11.3,5-11.3,11.3c0,38.8,28.8,71.4,65.2,77.7c-3.8,13.8-17.6,23.8-32.6,23.8c-6.2-0.2-11.4,4.7-11.6,10.9
	s4.7,11.4,10.9,11.6c0.2,0,0.4,0,0.7,0c27.6,0,50.1-20,55.1-46.4c16.3-1.3,30.1-8.8,42.6-18.8C522.8,529.9,522.8,523.7,519,518.7z"
	/>
<path class="st1" d="M398.7,714.2c-6.2-0.2-11.4,4.7-11.6,10.9s4.7,11.4,10.9,11.6c0.2,0,0.4,0,0.7,0c30.1,0,56.4,27.6,56.4,58.9
	c0,6.2,5,11.3,11.3,11.3c6.2,0,11.3-5,11.3-11.3c0,0,0,0,0,0C476.4,751.8,441.3,714.2,398.7,714.2z"/>
<path class="st1" d="M487.7,625.2c-38.9,0-70.2,21.3-87.7,51.4c-3.8,5-1.2,12.5,3.8,15c5,3.8,12.5,1.2,15-3.8
	c13.8-23.8,38.9-40.1,67.7-40.1c6.2,0,11.3-5,11.3-11.2c0,0,0-0.1,0-0.1C497.7,630.2,493.9,625.2,487.7,625.2z"/>
<path class="st1" d="M689.4,576.3c-15,0-27.6-10-32.6-23.8c37.6-6.3,65.2-38.8,65.2-77.7c0.2-6.2-4.7-11.4-10.9-11.6
	s-11.4,4.7-11.6,10.9c0,0.2,0,0.4,0,0.7c0.1,31-24.9,56.3-55.9,56.4c-0.2,0-0.3,0-0.5,0c-13.8,0-27.1-4.9-37.6-13.8
	c-5-3.8-11.3-3.8-16.3,1.3c-3.8,5-3.8,11.3,1.3,16.3c11.3,11.3,26.3,17.5,42.6,18.8c5,26.3,27.6,46.4,55.1,46.4
	c6.2,0,11.3-5,11.3-11.2c0,0,0-0.1,0-0.1C702,582.6,697,576.3,689.4,576.3z"/>
<path class="st1" d="M712,714.2c-42.6,0-77.7,37.6-77.7,81.5c0,6.2,5,11.3,11.3,11.3c6.2,0,11.3-5,11.3-11.3c0,0,0,0,0,0
	c0-31.3,26.3-58.9,56.4-58.9c6.2,0,11.3-5,11.3-11.2c0,0,0-0.1,0-0.1C722,720.4,719.5,714.2,712,714.2z"/>
<path class="st1" d="M710.7,676.6c-17.5-30.1-50.1-51.4-87.7-51.4c-6.2,0-11.3,5.1-11.3,11.3c0,6.2,5,11.3,11.3,11.3
	c28.8,0,55.1,16.3,67.7,40.1c3.8,5,10,7.5,15,3.8C712,687.8,714.5,681.6,710.7,676.6z"/>
</svg>
