<?xml version="1.0" encoding="utf-8"?>
<!-- Generator: Adobe Illustrator 24.1.0, SVG Export Plug-In . SVG Version: 6.00 Build 0)  -->
<svg version="1.1" id="Capa_1" xmlns="http://www.w3.org/2000/svg" xmlns:xlink="http://www.w3.org/1999/xlink" x="0px" y="0px"
	 viewBox="0 0 1080 1080" style="enable-background:new 0 0 1080 1080;" xml:space="preserve">
<style type="text/css">
	.st0{fill:#FFFFFF;stroke:#FFFFFF;stroke-width:8;stroke-miterlimit:10;}
</style>
<path class="st0" d="M868.1,149.7c8.1,0,14.6-6.6,14.6-14.6c0-8.1-6.6-14.6-14.6-14.6c-8.1,0-14.6,6.5-14.6,14.6
	C851.7,144.2,859,149.7,868.1,149.7z"/>
<path class="st0" d="M776.7,316c8.1-0.2,14.5-6.9,14.2-15c-0.2-7.8-6.5-14-14.2-14.2c-7.3,0-14.6,7.3-14.6,14.6S769.4,316,776.7,316
	z"/>
<path class="st0" d="M672.5,195.4c25.2,0,45.7-20.5,45.7-45.7c0-25.2-20.5-45.7-45.7-45.7s-45.7,20.5-45.7,45.7c0,0,0,0,0,0
	c-0.2,25,19.8,45.5,44.8,45.7C671.9,195.4,672.2,195.4,672.5,195.4z M672.5,135c8.1,0,14.6,6.5,14.6,14.6c0,8.1-6.5,14.6-14.6,14.6
	c-8.1,0-14.6-6.5-14.6-14.6c0,0,0,0,0,0C656,142.4,663.3,135,672.5,135L672.5,135z"/>
<path class="st0" d="M431.2,135c-34.7,0-64,20.1-80.4,49.4h-3.7c-49.4-1.8-91.4,40.2-91.4,89.6l0,0c-7.3-1.8-14.6-1.8-21.9-1.8
	c-49.4,0.1-89.5,40.1-89.6,89.6c0,11,1.8,23.8,7.3,34.7c-34.7,25.6-56.7,65.8-56.7,109.7s21.9,84.1,56.7,109.7
	c-3.7,11-7.3,21.9-7.3,34.7c0.1,49.4,40.1,89.5,89.6,89.6c7.3,0,14.6-1.8,21.9-1.8l0,0c0,51.2,42,91.4,91.4,89.6h3.7
	c14.6,31.1,45.7,49.4,80.4,49.4c49.4-0.1,89.5-40.1,89.6-89.6V226.5C520.8,175.3,480.5,135,431.2,135L431.2,135z M431.2,844.4
	c-20.1,0-38.4-11-49.4-27.4c32.9-12.8,54.9-45.7,54.9-82.3c0.2-8.1-6.2-14.8-14.2-15c-8.1-0.2-14.8,6.2-15,14.2c0,0.3,0,0.5,0,0.8
	c0,27.4-20.1,51.2-45.7,58.5H358c-38.4,9.2-71.3-21.9-71.3-58.5c0-7.3,1.8-12.8,3.7-20.1c1.8-5.5,0-12.8-5.5-16.5
	c-5.5-3.6-12.7-3.6-18.3,0c-9.1,7.3-21.9,11-32.9,11c-32.9,0-58.5-27.4-58.5-60.3c0-11,3.7-21.9,9.1-31.1c1.8-3.7,3.7-7.3,1.8-11
	s-3.7-7.3-7.3-9.1c-32.9-18.3-53-53-53-91.4s20.1-73.1,53-91.4c3.7-1.8,5.5-5.5,7.3-9.1s0-7.3-1.8-11c-5.5-9.1-9.1-20.1-9.1-31.1
	c0-32.9,25.6-60.3,58.5-60.3c11,0,23.8,3.7,32.9,11c5.5,3.7,12.7,3.7,18.3,0c5.5-3.7,7.3-11,5.5-16.5c-1.8-7.3-3.7-12.8-3.7-20.1
	c0-32.9,26.6-59.6,59.5-59.7c4,0,7.9,0.4,11.8,1.2h3.7c27.4,5.5,45.7,29.2,45.7,58.5c-0.2,8.1,6.2,14.8,14.2,15
	c8.1,0.2,14.8-6.2,15-14.2c0-0.3,0-0.5,0-0.8c0-36.6-23.8-69.5-54.9-82.3c11-16.4,29.2-27.4,49.4-27.4c32.9,0,58.5,27.4,58.5,60.3
	v234h-21.9c-21.9,0-38.4-16.5-38.4-34.7c-0.2-8.1-6.9-14.5-15-14.2c-7.8,0.2-14,6.5-14.2,14.2c0,36.6,31.1,65.8,69.5,65.8h21.9v106
	h-25.6c-12.8,0-21.9-9.1-21.9-18.3c0-43.9-38.4-80.4-85.9-80.4h-9.1c-8.1,0.2-14.5,6.9-14.2,15c0.2,7.8,6.5,14,14.2,14.2h9.1
	c31.1,0,56.7,21.9,56.7,51.2c0,27.4,23.8,49.4,53,49.4h25.6v159.2C491.5,817,464,844.4,431.2,844.4L431.2,844.4z"/>
<path class="st0" d="M301.4,429.4c0-32.9-25.6-58.5-58.5-58.5h-5.5c-8-0.1-14.5,6.2-14.6,14.2c0,0.1,0,0.3,0,0.4
	c0,7.3,7.3,14.6,14.6,14.6h5.5c16.2,0,29.2,13.1,29.2,29.2s-13.1,29.2-29.2,29.2c-8-0.1-14.5,6.2-14.6,14.2c0,0.1,0,0.3,0,0.4
	c0,7.3,7.3,14.6,14.6,14.6C275.8,487.9,301.4,462.3,301.4,429.4z"/>
<path class="st0" d="M312.3,542.7c-42,0-76.8,34.7-76.8,76.8v3.7c0.2,8.1,6.9,14.5,15,14.2c7.8-0.2,14-6.5,14.2-14.2v-3.7
	c0-25.6,21.9-47.5,47.5-47.5c8,0.1,14.5-6.2,14.7-14.2c0-0.2,0-0.3,0-0.5C327,550.1,319.7,542.7,312.3,542.7L312.3,542.7z"/>
<path class="st0" d="M348.9,389.2c29.3,0,53-23.7,53-53c0.2-8.1-6.2-14.8-14.2-15c-8.1-0.2-14.8,6.2-15,14.2c0,0.3,0,0.5,0,0.8
	c0,12.8-9.1,21.9-21.9,21.9c-8-0.1-14.5,6.2-14.6,14.2c0,0.1,0,0.3,0,0.4C336.1,380.1,341.6,389.2,348.9,389.2L348.9,389.2z"/>
<path class="st0" d="M405.6,670.7c-22.1-0.2-40-18.1-40.2-40.2c0.2-8.1-6.2-14.8-14.2-15c-8.1-0.2-14.8,6.2-15,14.2
	c0,0.3,0,0.5,0,0.8c0,38.4,31.1,71.3,71.3,71.3c8,0.1,14.5-6.3,14.6-14.2c0-0.1,0-0.3,0-0.4C420.2,676.2,412.9,670.7,405.6,670.7
	L405.6,670.7z"/>
<path class="st0" d="M789.5,345.3c-56.7,0-109.7,21.9-148.1,62.2c-24.1-24.1-53.6-42.3-85.9-53c-7.3-1.8-16.5,1.8-18.3,9.1
	s1.8,16.4,9.1,18.3c32.9,11,62.2,29.2,82.3,54.8c5.5,7.3,18.3,7.3,23.8,0c33.2-40.6,82.9-64.1,135.3-64c93.2,0,170,69.5,170,155.4
	c0,107.9-157.2,285.2-307.1,416.9h-20.1c-16.5-14.7-42-36.6-69.5-64c-5.5-5.5-14.6-5.5-21.9,0c-5.5,5.5-5.5,14.6,0,21.9
	c31.1,31.1,58.5,54.8,75,69.5c3.7,1.8,5.5,3.7,9.1,3.7h31.1c3.4-0.1,6.6-1.4,9.1-3.7c75-65.8,321.8-294.3,321.8-442.4
	C988.9,429.4,899.3,345.3,789.5,345.3L789.5,345.3z"/>
<path class="st0" d="M864.5,462.3c3.7,1.8,5.5,3.7,9.1,3.7s9.1-1.8,11-5.5c5.5-5.5,3.7-16.5-1.8-21.9
	c-38.4-32.9-89.6-32.9-91.4-32.9c-8.1,0.2-14.5,6.9-14.2,15c0.2,7.8,6.5,14,14.2,14.2C793.2,436.7,833.4,436.7,864.5,462.3z"/>
</svg>
