<?xml version="1.0" encoding="utf-8"?>
<!-- Generator: Adobe Illustrator 24.1.0, SVG Export Plug-In . SVG Version: 6.00 Build 0)  -->
<svg version="1.1" id="Capa_1" xmlns="http://www.w3.org/2000/svg" xmlns:xlink="http://www.w3.org/1999/xlink" x="0px" y="0px"
	 viewBox="0 0 1080 1080" style="enable-background:new 0 0 1080 1080;" xml:space="preserve">
<style type="text/css">
	.st0{fill:#FFFFFF;stroke:#FFFFFF;stroke-width:8;stroke-miterlimit:10;}
</style>
<path class="st0" d="M498.5,874.4c-7.3-0.1-13.9-4.3-17-10.8c-3.1-6.2,0-13.9,4.6-18.5c6.2-4.6,13.9-6.2,20.1-1.5
	c6.2,3.1,9.3,10.8,7.7,18.5C513.9,868.2,507.8,874.4,498.5,874.4L498.5,874.4z"/>
<path class="st0" d="M405.8,956.2c-4.1,0.1-8.1-1.6-10.8-4.6c-9.3-7.7-222.4-186.9-264.1-250.2c-27.8-41.7-38.6-78.8-35.5-122
	s20.1-84.9,52.5-115.8s72.6-47.9,115.8-47.9c66.4,0,118.9,49.4,142.1,78.8c24.7-27.8,77.2-78.8,142.1-78.8
	c43.4,0,85.1,17.2,115.8,47.9c30.9,30.9,49.4,72.6,52.5,115.8c3.1,55.6-17,94.2-35.5,122c-10.8,17-95.7,98.9-112.7,114.3
	c-6.2,6.2-18.5,6.2-24.7,0s-6.2-18.5,0-24.7c47.9-46.3,101.9-98.8,108.1-108.1c23.2-35.5,32.4-64.9,30.9-101.9
	c-4.6-72.6-63.3-131.3-134.4-131.3c-69.5,0-126.6,80.3-128.2,81.9c-3.1,4.6-9.3,7.7-13.9,7.7c-6.2,0-10.8-3.1-13.9-7.7
	c0-1.5-55.6-80.3-128.2-80.3c-69.5,0-129.7,58.7-134.4,131.3c-1.5,35.5,7.7,66.4,30.9,101.9c34,52.5,202.3,196.1,247.1,234.8
	l24.7-18.5c7.7-6.2,18.5-4.6,24.7,3.1s4.6,18.5-3.1,24.7l-35.5,27.8C413.5,954.7,408.9,956.2,405.8,956.2L405.8,956.2z"/>
<path class="st0" d="M351.8,375.5c-4.1,0.1-8-1.6-10.8-4.6c-9.3-7.7-95.8-80.3-114.3-109.6c-7.7-12.4-18.5-30.9-17-58.7
	c3.1-44.8,38.6-78.8,81.9-78.8c26.2,0,47.9,15.5,60.2,29.4c13.9-12.4,34-29.4,60.2-29.4c43.2,0,78.8,35.5,81.9,78.8
	c1.5,26.2-9.3,46.3-17,58.7c-18.5,27.8-105,100.4-114.3,109.6C359.9,373.9,355.9,375.6,351.8,375.5L351.8,375.5z M291.5,160.8
	c-24.7,0-46.3,21.6-47.9,46.3c0,13.1,3.7,26,10.8,37.1c10.8,17,60.2,60.2,97.3,92.7c37.1-30.9,85-75.7,95.8-92.7
	c9.3-12.4,12.4-24.7,10.8-37.1c-1.5-26.2-23.2-46.3-47.9-46.3c-20.1,0-40.1,23.2-46.3,30.9c-3.1,4.6-9.3,7.7-13.9,7.7
	c-6.2,0-10.8-3.1-13.9-7.7C331.7,182.5,313.2,160.8,291.5,160.8z"/>
<path class="st0" d="M776.5,506.8c-4.1,0.1-8.1-1.6-10.8-4.6c-15.4-12.4-143.6-122-171.4-163.7c-10.8-17-26.2-44.8-24.7-83.4
	c1.5-29.3,13.9-57.1,35.5-78.8s49.4-32.4,80.3-32.4c41.7,0,74.1,27.8,92.7,47.9c18.5-18.5,51-47.9,91.1-47.9
	c29.3,0,58.7,12.4,80.3,32.4c21.6,21.6,34,49.4,35.5,78.8c1.5,37.1-12.4,63.3-24.7,83.4C932.5,381.7,795,497.5,788.8,502.2
	C784.2,505.2,781.1,506.8,776.5,506.8z M683.8,179.4c-41.7,0-78.8,35.5-80.3,78.8c-1.5,21.6,4.6,40.1,18.5,61.8
	c18.5,29.3,109.7,108.1,154.4,146.7c44.8-38.6,134.4-117.4,152.9-146.7c13.9-21.6,20.1-40.2,18.5-61.8
	c-3.1-43.2-38.6-78.8-80.3-78.8s-77.2,49.4-77.2,49.4c-3.1,4.6-9.3,7.7-13.9,7.7l0,0c-5.7,0-10.9-2.9-13.9-7.7
	C761,228.8,728.6,179.4,683.8,179.4L683.8,179.4z"/>
</svg>
