<?xml version="1.0" encoding="utf-8"?>
<!-- Generator: Adobe Illustrator 24.1.0, SVG Export Plug-In . SVG Version: 6.00 Build 0)  -->
<svg version="1.1" id="Capa_1" xmlns="http://www.w3.org/2000/svg" xmlns:xlink="http://www.w3.org/1999/xlink" x="0px" y="0px"
	 viewBox="0 0 1080 1080" style="enable-background:new 0 0 1080 1080;" xml:space="preserve">
<style type="text/css">
	.st0{fill:#FFFFFF;stroke:#FFFFFF;stroke-width:4;stroke-miterlimit:10;}
</style>
<path class="st0" d="M751,574.2l-67.1-122.4c-6.6-10.5-13.2-21.1-22.4-30.3c14.5-18.4,21.1-40.8,21.1-64.5v-93.5
	c0-5.3,0-11.9-1.3-17.1c-1.3-9.2-9.2-15.8-18.4-14.5s-15.8,9.2-14.5,18.4c0,4,1.3,9.2,1.3,13.2V357c-0.2,16-5.2,31.7-14.5,44.8
	c-13.2-7.9-27.6-14.5-43.4-17.1c16-17.2,24.9-39.7,25-63.2c0.1-3.9-1.3-7.7-4-10.5l-77.6-92.1c-5.1-6.4-14.1-8-21.1-3.9l-73.7,46.1
	c-9.2-26.3-4-57.9,15.8-77.7c21.1-22.4,50-34.2,80.3-34.2h1.3c10.8-0.2,21.5,1.6,31.6,5.3c9.2,2.6,18.4-2.6,21.1-10.5
	c2.6-9.2-2.6-18.4-10.5-21.1c-13.2-4-27.6-6.6-40.8-6.6h-1.3c-39.5,0-76.4,15.8-104,43.4c-38.2,39.5-39.5,104-4,146.1v14.5
	c0,26.5,10.9,51.7,30.3,69.8c-39.5,17.1-67.1,55.3-67.1,101.4c0,20.7,6.5,41,18.4,57.9c-8.2,2.8-15.5,7.8-21,14.5l-19.8,19.7
	c-32.8,30.1-51.5,72.6-51.3,117.2c0,63.2,38.2,118.5,92.1,143.5v102.7c0.2,9.5,8.1,16.9,17.5,16.7c9.1-0.2,16.5-7.6,16.7-16.7v-90.8
	c10.8,2.6,21.8,3.9,32.9,4c9.4,0,17.1-7.7,17.1-17.1c0-9.4-7.7-17.1-17.1-17.1c-68.5,0-125.1-56.6-125.1-125.1
	c0-30.3,10.5-59.2,30.3-81.6l21.1,21.1c10.1,10.3,23.9,16,38.2,15.8c14.3-0.1,28-5.8,38.2-15.8c13.2-13.2,18.4-31.6,14.5-48.7h30.3
	c9.5-0.2,16.9-8.1,16.7-17.5c-0.2-9.1-7.6-16.5-16.7-16.7h-31.6c-36.9,0-65.8-29-65.8-65.8c0-42.1,34.2-77.7,77.7-77.7H568
	c37.2,0,71.4,20.2,89.5,52.7l67.1,122.4c11.8,21.1,6.6,46.1-11.8,60.5l-89.5,68.5l-27.7-27.7l76.4-77.7c5.3-6.6,6.6-15.8,1.3-22.4
	l-57.9-67.1c-5.3-6.6-15.8-7.9-23.7-2.6c-6.6,5.3-7.9,15.8-2.6,23.7l46.1,57.9L527.2,711.1c-19.7,19.7-19.7,52.7,0,72.4
	c10.5,10.5,22.4,14.5,35.5,14.5c13.3,0,26-5.2,35.5-14.5l30.3-30.3l17.1-13.2c21.1,42.1,31.6,89.5,31.6,136.9v68.5
	c-0.2,9.5,7.2,17.3,16.7,17.5c9.5,0.2,17.3-7.2,17.5-16.7c0-0.3,0-0.6,0-0.8V877c0-54-13.2-109.3-38.2-156.7l56.6-43.4l0,0
	C760.9,652.3,769.8,609,751,574.2z M454.8,616.3c-8,7.9-21,7.9-29,0l-21.1-21.1l7.9-7.9c5.3-5.3,13.2-9.2,21.1-9.2
	s15.8,2.6,21.1,9.2C462.7,595.4,462.7,608.3,454.8,616.3L454.8,616.3z M462.7,287.2l56.6-35.5l63.2,75c-2.6,30.3-29,55.3-60.5,55.3
	c-32.9,0-60.6-27.6-60.6-60.6L462.7,287.2L462.7,287.2z M550.9,759.8c-6.6-6.6-6.6-18.4,0-25l18.4-18.4l25,25l-18.4,18.4
	C569.3,766.4,557.5,766.4,550.9,759.8L550.9,759.8z"/>
<path class="st0" d="M636.5,197.7c4,0,9.2-1.3,11.8-5.3c2.6-2.6,5.3-7.9,5.3-11.9s-1.3-9.2-5.3-11.9c-2.6-2.6-7.9-5.3-11.8-5.3
	s-9.2,1.3-11.8,5.3c-2.6,2.6-5.3,7.9-5.3,11.9s1.3,9.2,5.3,11.9C627.2,195.1,632.5,197.7,636.5,197.7z"/>
</svg>
