<?xml version="1.0" encoding="utf-8"?>
<!-- Generator: Adobe Illustrator 24.1.0, SVG Export Plug-In . SVG Version: 6.00 Build 0)  -->
<svg version="1.1" id="Capa_1" xmlns="http://www.w3.org/2000/svg" xmlns:xlink="http://www.w3.org/1999/xlink" x="0px" y="0px"
	 viewBox="0 0 1080 1080" style="enable-background:new 0 0 1080 1080;" xml:space="preserve">
<style type="text/css">
	.st0{fill:#FFFFFF;stroke:#FFFFFF;stroke-width:9;stroke-miterlimit:10;}
</style>
<path class="st0" d="M925,735.6c-12.6-12.6-21.5-28.7-21.5-46.7V500.5c-0.2-6.9-6-12.4-12.9-12.2c-6.7,0.2-12,5.5-12.2,12.2V689
	c0,24.6,10.4,48.1,28.7,64.6c21.5,19.9,33.9,47.8,34.1,77.2c0,28.7-10.8,55.6-32.3,75.4c-19.7,19.7-46.7,30.5-75.4,30.5
	c-55.6-1.8-100.5-44.9-102.3-100.5c-1.8-30.5,10.8-61,34.1-80.8c18.3-16.5,28.8-40,28.7-64.6V380.2c0-23.3,18-41.3,41.3-41.3
	s41.3,18,41.3,41.3v64.6c0.2,6.9,6,12.4,12.9,12.2c6.7-0.2,12-5.5,12.2-12.2v-64.6c0-35.9-30.5-66.4-66.4-66.4s-66.4,30.5-66.4,66.4
	v271c-3.6-3.6-7.2-9-10.8-12.6c-9-12.6-19.7-25.1-26.9-37.7c-23.3-44.9-30.5-91.5-19.8-131l0,0c1.8-5.4,1.8-10.8,1.8-16.2
	c0-10.8-1.8-21.5-7.2-30.5V290.5c0-96.9-79-175.9-175.9-175.9h-64.6c-6.9,0.2-12.4,6-12.2,12.9c0.2,6.7,5.5,12,12.2,12.2h64.6
	c84.2-0.1,152.5,68.1,152.6,152.3c0,0.1,0,0.2,0,0.3v105.9c-10.8-5.4-21.5-9-34.1-9c-28.7,0-61-66.4-61-118.5
	c0.2-6.9-5.3-12.7-12.2-12.9s-12.7,5.3-12.9,12.2c0,0.2,0,0.5,0,0.7c0,21.5-7.2,50.2-39.5,75.4c-37.7,28.7-98.7,43.1-181.3,43.1
	h-50.3c-12.8,0-25.3,3.7-35.9,10.8V294.1c-0.1-84.2,68.1-152.5,152.3-152.6c0.1,0,0.2,0,0.3,0c6.9,0,12.6-5.6,12.6-12.6
	c0-6.9-5.6-12.6-12.6-12.6c-96.9,0-175.9,79-175.9,175.9v134.6c-3.6,9-7.2,19.8-7.2,28.7c0,5.4,0,10.8,1.8,16.1l0,0
	c10.8,41.3,3.6,87.9-17.9,131c-7.2,12.6-18,25.1-26.9,37.7c-17.9,23.4-35.9,46.7-46.7,75.4c-14.4,43.1-7.2,86.2,5.4,129.2
	c-16.2,19.8-26.9,44.9-26.9,71.8v35.9c-0.2,6.8,5.2,12.4,12,12.6c0.2,0,0.4,0,0.6,0h46.7c6.9,0.2,12.7-5.3,12.9-12.2
	s-5.3-12.7-12.2-12.9c-0.2,0-0.5,0-0.7,0h-34.1v-23.3c0-43.1,30.5-79,71.8-88L348.8,802c10.8,57.4,61,98.7,120.3,98.7
	c30.5,0,61-10.8,82.6-32.3c19.7-18,32.3-41.3,37.7-66.4l114.9,21.5v16.2c1.8,41.3,21.5,77.2,53.8,100.5H232.2
	c-6.9-0.2-12.7,5.3-12.9,12.2s5.3,12.7,12.2,12.9c0.2,0,0.5,0,0.7,0H837c34.1,0,66.4-12.6,89.8-37.7c25.1-25.1,39.5-57.4,39.5-93.3
	C966.3,794.9,951.9,759,925,735.6L925,735.6z M657.6,409c7.4,1.8,14.2,5.5,19.7,10.8c8.1,8.1,12.6,19.1,12.6,30.5
	c-0.1,19.1-13.6,35.6-32.3,39.5V409z M307.6,527.5c1.8-19.8,1.8-71.8,1.8-120.3h34.1c88,0,154.4-16.2,195.6-48.5
	c16.2-12.6,26.9-25.1,34.1-37.7c3.6,10.8,7.2,23.3,12.6,34.1c12.6,26.9,30.5,44.9,46.7,50.2c0,48.5,0,102.3,1.8,122.1V540
	c0,37.7-35.9,86.2-102.3,140c-17.9,14.4-39.5,21.5-62.8,21.5l0,0c-23.3,0-44.9-7.2-62.8-21.5C339.9,626.2,304,577.7,304,540
	C307.6,534.6,307.6,531,307.6,527.5L307.6,527.5z M429.6,717.7c12.6,5.4,26.9,7.2,41.3,7.2l0,0c14.4,0,28.7-1.8,41.3-7.2
	c-3.6,19.8,0,37.7,7.2,55.7c-1.8,26.9-23.4,46.7-50.3,46.7s-48.5-21.5-50.2-46.7C429.6,757.2,433.2,737.4,429.6,717.7z M264.5,419.7
	c5.5-5.3,12.3-8.9,19.7-10.7v80.8c-18.8-3.9-32.2-20.3-32.3-39.5C251.9,437.7,255.5,426.9,264.5,419.7L264.5,419.7z M208.8,798.5
	c-16.1,3.6-32.3,10.8-46.7,19.8c-7.2-32.3-12.6-68.2-1.8-102.3c9-25.1,25.1-44.9,41.3-68.2c10.6-12.4,20.2-25.6,28.7-39.5l0,0
	c18-34.1,26.9-70,26.9-104.1c7.2,5.4,16.1,7.2,25.1,9v25.1c0,46.7,37.7,98.7,111.3,159.8c1.8,1.8,3.6,3.6,5.4,3.6l1.8,7.2
	c7.2,18,5.4,35.9-1.8,53.8L208.8,798.5z M472.7,870.3c-46.7,0-88-34.1-96.9-79l23.3-3.6c7.2,34.1,37.7,59.2,73.6,59.2
	s66.4-25.1,73.6-59.2l25.1,5.4C558.8,838,519.4,870.3,472.7,870.3z M542.7,760.8c-7.2-16.2-7.2-35.9-1.8-52l1.8-5.4
	c2-2.2,4.5-4,7.2-5.4c73.6-59.2,111.3-113.1,111.3-159.8v-23.4c9-1.8,18-3.6,25.1-9c0,34.1,9,70,26.9,104.1l0,0
	c9,14.4,19.7,26.9,28.7,39.5c10.8,14.4,21.5,26.9,28.7,41.3c0,16.2-9,32.3-19.8,43.1c-18,16.2-30.5,37.7-37.7,61L542.7,760.8z"/>
<path class="st0" d="M837.1,362.3c-6.8-0.2-12.4,5.2-12.6,12c0,0.2,0,0.4,0,0.6v350c-16.1,16.1-66.4,68.2-66.4,104.1
	c0,43.1,35.9,79,79,79s79-35.9,79-79c0-35.9-50.2-89.8-66.4-104.1v-350c0.2-6.8-5.2-12.4-12-12.6
	C837.5,362.3,837.3,362.3,837.1,362.3L837.1,362.3z M890.9,830.8c0,30.5-23.3,53.8-53.8,53.8s-53.8-23.3-53.8-53.8
	c0-19.7,30.5-57.4,53.8-82.6C860.4,771.5,890.9,809.2,890.9,830.8z"/>
</svg>
