<?xml version="1.0" encoding="utf-8"?>
<!-- Generator: Adobe Illustrator 24.1.0, SVG Export Plug-In . SVG Version: 6.00 Build 0)  -->
<svg version="1.1" id="Capa_1" xmlns="http://www.w3.org/2000/svg" xmlns:xlink="http://www.w3.org/1999/xlink" x="0px" y="0px"
	 viewBox="0 0 1080 1080" style="enable-background:new 0 0 1080 1080;" xml:space="preserve">
<style type="text/css">
	.st0{fill:#FFFFFF;}
</style>
<path class="st0" d="M848.2,474.9c-18.3-44.3-24.5-55-24.5-79.5V144.8c0-13.8-12.2-26-26-26H641.9c-13.8,0-26,12.2-26,26v253.7
	c0,27.5-9.2,39.7-26,82.5c0,0-71.8-1.5-94.8,4.6c-1.5-7.6-3.1-13.8-6.1-19.9c56.5,0,103.9-42.8,111.6-97.8
	c1.3-10.7-4.2-21.1-13.8-26c-55-29-125.3-9.2-154.4,48.9c-15.3-12.2-33.6-22.9-55-32.1c-13.8-6.1-29,0-35.1,13.8s0,29,13.8,35.1
	c45.9,21.4,73.4,45.9,85.6,79.5c-67.2-12.2-129.9-3.1-180.3,41.3c-33.6,29-53.5,67.2-61.1,110c-4.6,29-1.5,81,12.2,128.4
	c13.8,45.8,35.1,88.6,67.2,126.8c9.2,10.7,19.9,24.5,35.1,35.2c36.7,29,79.5,38.2,125.3,29c0,0,1.5,0,32.1-9.2
	c30.6,7.6,77.9,24.5,131.4-1.5c14,8,29.8,12.2,45.8,12.2h142.1c48.9,0,90.2-39.7,90.2-90.2V639.9C878.7,583.4,868,526.8,848.2,474.9
	L848.2,474.9z M666.3,172.3h103.9v56.6H666.3V172.3z M539.5,380.1c-12.2,22.9-36.7,36.7-62.7,32.1
	C489,389.3,513.5,377.1,539.5,380.1z M522.7,905.8c-29-4.6-41.3-13.8-61.1-10.7c-24.5,4.6-67.2,29-116.1-9.2
	c-10.7-7.6-19.9-18.3-27.5-29c-30.6-36.7-45.9-68.8-58.1-108.5c-9.2-27.5-9.2-47.4-10.7-67.2c-3-45.8,9.2-85.6,44.3-116.1
	c42.8-38.2,99.3-39.7,152.8-26c33.6,9.2,61.1-10.7,131.4-6.1c65.7,10.7,114.6,65.7,114.6,136c-1.5,82.5-35.2,160.5-94.8,214
	C577.7,902.8,553.2,908.9,522.7,905.8z M826.8,867.6c0,19.9-16.8,36.7-36.7,36.7H651c56.5-59.6,91.7-143.6,93.2-233.8
	c1.5-81-45.8-145.2-107-172.7c33.6-84,27.5-48.9,29-217h104c0,117.7-3.1,134.5,10.7,171.2C835.9,586.4,826.8,569.6,826.8,867.6
	L826.8,867.6z"/>
</svg>
