<?xml version="1.0" encoding="utf-8"?>
<!-- Generator: Adobe Illustrator 24.1.0, SVG Export Plug-In . SVG Version: 6.00 Build 0)  -->
<svg version="1.1" id="Capa_1" xmlns="http://www.w3.org/2000/svg" xmlns:xlink="http://www.w3.org/1999/xlink" x="0px" y="0px"
	 viewBox="0 0 1080 1080" style="enable-background:new 0 0 1080 1080;" xml:space="preserve">
<style type="text/css">
	.st0{fill:#FFFFFF;}
	.st1{fill:none;stroke:#FFFFFF;stroke-width:19.79;stroke-linecap:round;stroke-linejoin:round;}
	.st2{fill:#FFFFFF;stroke:#FFFFFF;stroke-width:16.9;stroke-linecap:round;stroke-linejoin:round;}
</style>
<path class="st0" d="M615.1,580.7l-1.4-11c-1.3-7.3-7.7-12.6-15.2-12.4h-2.8l-41.4,8.3l19.3-12.4c5.5-2.8,6.9-9.7,6.9-15.2
	c0-1.4-1.4-2.8-1.4-4.1l-5.5-9.7c-1.4-4.1-5.5-5.5-9.7-6.9h-5.5c2.8-11,2.8-23.4,2.8-35.9c0-5.5-2.8-9.6-8.3-12.4
	c5.5-13.8,6.9-30.3,0-45.5c-0.1-1.5-1.3-2.6-2.8-2.8l-2.8-2.8c-7-2.7-14.5-4.1-22.1-4.1h-2.8c-1.4-22.1-19.3-40-41.4-40
	c-2.8,0-5.5,0-8.3,1.4c1.4-11,1.4-23.4-4.1-34.5c-0.1-1.5-1.3-2.6-2.8-2.8l-2.8-2.8c-7.5-2.7-15.5-4.1-23.5-4.1
	c-12.4,0-24.8,4.1-34.5,9.6c-4.1-11.1-10.2-21.4-17.9-30.3c-5.1-5.3-13.5-5.5-18.8-0.5c-0.2,0.2-0.3,0.3-0.5,0.5L329.7,349
	c-6.9-6.9-16.5-9.6-26.2-9.6h-6.9c-8.3,1.4-15.2,5.5-22.1,11c-6.9-4.1-16.5-4.1-24.8-2.8c-1.4,0-4.1,1.4-5.5,1.4v-29
	c0-20.5-16.6-37.1-37-37.1c-0.1,0-0.1,0-0.2,0v-16.5c5.5-1.4,11-6.9,11-12.4v-38.6c0-7.6-6.2-13.8-13.8-13.8h-64.8
	c-7.6,0-13.8,6.2-13.8,13.8v38.6c0,6.9,4.1,12.4,11,12.4v16.5c-20.5-0.1-37.1,16.5-37.2,36.9c0,0.1,0,0.2,0,0.3v230.2
	c-15.1,13.8-26.1,34.5-26.1,56.5c0,42.7,38.6,78.6,84.1,78.6h315.7c11,0,20.7-4.1,27.6-12.4s9.6-17.9,8.3-29l63.4,11h2.8
	c2.8,0,5.5-1.4,8.3-2.8c2.8-2.8,5.5-5.5,5.5-9.7l1.4-11v-5.5c-1.4-5.5-5.5-11-11-12.4l-22.1-5.5l41.3-8.2c4.1-1.4,6.9-2.8,9.7-6.9
	C613.8,589,615.1,584.8,615.1,580.7z M524.1,429c4.1,0,9.7,1.4,13.8,2.8c4.2,12,2.7,25.2-4.1,35.9h-20.7l6.9-6.9
	c2.7-3.2,2.7-7.8,0-11c-2.8-2.8-8.3-2.8-11,0l-4.1,4.1c-1.4-5.7-4.2-10.9-8.3-15.2C504.3,432.3,514.1,428.8,524.1,429z M480,389
	c14.5,0,26.2,11.7,26.2,26.2c0,0,0,0,0,0v1.4c-8.3,2.8-16.5,6.9-22.1,13.8c-1-0.1-2-0.6-2.7-1.4c-2.8-12.4-11-22.1-22.1-27.6
	C462.1,393.2,470.4,389,480,389z M437.3,344.9c5.2,0.1,10.3,1.1,15.2,2.8c4.1,12.4,2.8,24.8-1.4,35.8c-4.1,4.1-8.3,8.3-9.6,13.8
	h-4.1c-5.5,1.4-12.4,4.1-16.5,8.3c-1.4-2.8-4.1-5.5-5.5-8.3l17.9-17.9c2.8-2.8,2.8-8.3,0-11s-8.3-2.8-11,0l-19.3,19.3l-12.4-4.1
	c1.4-9.6,6.9-17.9,13.8-24.8C413,350,424.9,345.1,437.3,344.9L437.3,344.9z M378,467.6h-6.9c-1.4-2.8-4.1-5.5-6.9-5.5
	s-5.5,2.8-6.9,5.5H349c1.6-3.2,1.1-7.1-1.4-9.7c-3.2-2.7-7.8-2.7-11,0l-6.9,6.9c-0.8,0.7-1.2,1.7-1.4,2.8h-16.5
	c-5.5-9.7-9.6-20.7-9.6-31.7h125.5c0,12.4-4.1,22.1-9.6,31.7h-16.6c0-1.4-1.4-1.4-1.4-2.8l-6.9-6.9c-2.8-2.8-8.3-2.8-11,0
	C376.6,459.3,375.2,463.5,378,467.6z M358.7,419.4c3.5-13.7,17.4-22,31.1-18.5c9.1,2.3,16.2,9.4,18.5,18.5H358.7z M375.2,322.8
	c6.9,8.3,12.4,17.9,15.2,27.6c-4.1,4.1-6.9,9.6-9.6,13.8c-1.1-1.1-2.6-1.6-4.1-1.4h-11c-4.1,0-8.3,4.1-8.3,8.3s4.1,8.3,8.3,8.3h9.6
	c0,2.8-1.4,4.1-1.4,6.9c-2.8,1.4-5.5,1.4-8.3,4.1c-5.5-9.7-13.8-15.2-24.8-17.9l0,0c0-4.1-1.4-6.9-2.8-9.6L375.2,322.8z
	 M231.9,393.2c0-1.4-1.4-2.8-1.4-4.1c-2.8-12.4,6.9-26.2,19.3-27.6h4.1c4.9-0.1,9.7,1.3,13.8,4.1c1.4,1.4,4.1,1.4,5.5,1.4
	c2.8,0,4.1-1.4,5.5-2.8c4.1-5.5,9.6-9.6,16.5-11h4.1c11,0,22.1,8.3,23.4,19.3v4.1c0,4.1,2.8,6.9,6.9,8.3c8.3,1.4,16.5,6.9,19.3,13.8
	c-4.1,5.5-8.3,12.4-9.6,19.3h-45.5c-5.5,0-11,4.1-12.4,8.3c-10.1-7.1-22.1-10.9-34.5-11c-7.5-0.1-15,1.3-22,4.1
	c-1.5,0.1-2.6,1.3-2.8,2.8l-2.8,2.8c-1.4,4.1-2.8,9.7-4.1,13.8c-2.8-2.8-4.1-6.9-5.5-12.4c-1.4-11,4.1-22.1,13.8-26.2
	C231.9,401.4,233.2,397.3,231.9,393.2z M256.7,464.9l2.8,2.8h-19.3c-4.1-9.7-5.5-20.7-1.4-31.7c4.1-1.4,9.6-2.8,13.8-2.8
	c12.4,0,23.4,4.1,31.7,12.4c1.4,1.4,2.8,2.8,2.8,4.1c1.4,5.5,2.8,12.4,5.5,17.9h-12.4l-13.8-13.8c-2.8-2.8-8.3-2.8-11,0
	c-2.7,3-2.5,7.6,0.4,10.3C256,464.4,256.3,464.6,256.7,464.9z M222.2,467.6h-27.6c1.4-8.3,5.5-13.8,12.4-17.9
	c4.1,5.5,8.3,9.6,13.8,12.4C220.8,463.5,222.2,464.9,222.2,467.6z M142.2,215.3h59.3v33.1h-59.2L142.2,215.3z M190.4,263.6v16.5
	h-37.2v-16.5H190.4z M117.4,350.4h51c4.1,0,8.3-4.1,8.3-8.3s-4.1-8.3-8.3-8.3h-51v-16.6c-0.2-12,9.5-21.9,21.5-22.1
	c0.2,0,0.4,0,0.6,0H207c12-0.2,21.9,9.5,22.1,21.5c0,0.2,0,0.4,0,0.6v16.5h-15.1c-4.1,0-8.3,4.1-8.3,8.3s4.1,8.3,8.3,8.3h15.2v6.9
	c-9.6,8.3-13.8,22.1-11,35.8l0,0c-12.4,8.3-19.3,24.8-16.6,40v2.8c-4.1,2.8-6.9,5.5-11,8.3h-71.7L117.4,350.4L117.4,350.4z
	 M117.4,459.3h63.4c-1.4,2.8-1.4,5.5-1.4,8.3H178c-7.6,0-13.8,6.2-13.8,13.8c0,12.4,1.4,24.8,2.8,37.2h-6.9
	c-9.6,0-19.3,1.4-26.2,4.1c-11,4.1-13.8,9.7-13.8,13.8c-1,0.1-2,0.6-2.8,1.4V459.3z M216.6,555.9l5.5,5.5l0,0
	c-4.1,0-12.4-1.4-22.1-6.9c-2.8-1.4-6.9-4.1-9.6-5.5c-2.5-2.7-6.8-2.8-9.4-0.2c-0.1,0.1-0.2,0.2-0.2,0.2c-2.8,2.8-5.5,4.1-9.6,5.5
	c-9.6,5.5-16.5,6.9-22.1,6.9l0,0l5.5-5.5c2.9-1.7,4-5.2,2.8-8.3c-1.4-2.8-4.1-5.5-6.9-5.5c-8.3-1.4-12.4-2.8-15.2-4.1
	c2.8-1.4,9.6-4.1,23.4-4.1c11,0,19.3,2.8,22.1,4.1c2.6,1.4,5.7,1.4,8.3,0c4.1-2.8,11-4.1,22.1-4.1c12.4,0,20.7,2.8,23.4,4.1
	c-2.8,1.4-6.9,2.8-15.2,4.1c-2.8,0-5.5,2.8-6.9,5.5C213.9,550.3,213.9,553.1,216.6,555.9L216.6,555.9z M201.5,652.4L201.5,652.4
	c1.4,6.9,2.8,11,5.5,15.2h-46.8c-37.2,0-68.9-27.6-68.9-62c0-23.4,13.8-44.1,35.8-55.2c3.1,1.6,6.3,3,9.7,4.1
	c-1.4,2.8-2.8,5.5-2.8,8.3c0,4.1,1.4,6.9,2.8,9.7c2.8,4.1,8.3,5.5,13.8,5.5c8.3,0,19.3-2.8,28.9-8.3c2.8-1.4,4.1-2.8,6.9-4.1
	c1.4,1.4,4.1,2.8,6.9,4.1c9.6,5.5,20.7,8.3,28.9,8.3l0,0c6.9,0,11-1.4,13.8-5.5c2.8-2.8,4.1-5.5,2.8-9.7c0-2.8-1.4-5.5-2.8-8.3
	c3.3-1.1,6.5-2.5,9.6-4.1c16.3,8.3,28.6,22.7,34.5,40L223.6,611C207,617.9,198.8,634.4,201.5,652.4L201.5,652.4z M492.4,659.3
	c-4.1,4.1-9.6,6.9-15.2,6.9H469l-5.5-27.6c-0.8-4.6-5.2-7.6-9.7-6.8c-4.5,0.8-7.5,5-6.8,9.5l4.1,24.8h-27.6l-4.1-19.3
	c-0.8-4.6-5.2-7.6-9.7-6.8c-4.5,0.8-7.5,5-6.8,9.5l2.8,16.5h-63.4L338,640c-1.5-4.1-5.3-6.8-9.6-6.9c-4.1,1.5-6.8,5.3-6.9,9.7
	l4.1,23.4h-92.4c-9.6,0-17.9-6.9-20.7-16.5v-1.4c-1.4-9.7,4.1-19.3,12.4-22.1l31.7-12.4l2.8,12.4c1.4,4.1,4.1,6.9,8.3,6.9h1.4
	c4.1-1.5,6.8-5.3,6.9-9.7l-2.8-15.2l45.5-17.9c4.1-1.4,5.5-5.5,4.1-9.7s-5.5-5.5-9.6-4.1l-22.1,8.3c-5.5-20.7-22.1-38.6-41.4-49.6
	c0-4.1-4.1-9.7-13.8-13.8c-6.9-2.8-16.6-4.1-26.2-4.1c-6.9,0-12.4,1.4-17.9,1.4v-4.1c0-4.1-4.1-8.3-8.3-8.3c-1.4,0-4.1,0-5.5,1.4
	c-1.4-8.3-1.4-16.5-1.4-24.8h257.8c4.1,0,8.3-4.1,8.3-8.3s-4.1-8.3-8.3-8.3h-2.8c5.5-10.7,8.3-22.5,8.2-34.5
	c0-6.9-5.5-12.4-12.4-13.8c2.8-2.8,6.9-4.1,11-5.5h4.1c9.6,0,19.3,6.9,20.7,17.9v4.1c0,4.1,2.8,6.9,6.9,8.3
	c9.6,1.4,16.5,8.3,19.3,17.9v6.9h-8.3c-4.1,0-8.3,4.1-8.3,8.3s4.1,8.3,8.3,8.3h62c0,15.2-1.4,29-5.5,42.7l-42.7,24.8
	c-2.8-9.7-8.3-16.5-16.5-22.1c-9.6-5.5-20.7-5.5-30.3-2.8L360.1,560c-4.1,1.4-5.5,5.5-4.1,9.7s5.5,5.5,9.6,4.1l11-4.1l4.2,19.3
	c1.4,4.1,4.1,6.9,8.3,6.9h1.4c4.1-1.5,6.8-5.3,6.9-9.7l-4.1-22.1l62-23.4c5.5-2.8,12.4-1.4,17.9,1.4s9.6,8.3,9.6,13.8l16.5,86.9
	C497.9,648.2,496.6,655.1,492.4,659.3L492.4,659.3z M520,597.3c-4.1,0-6.9,4.1-6.9,8.3c0.1,3.6,2.2,6.8,5.5,8.3l59.3,13.8l-1.4,9.7
	L509,624.8l-11-57.9l59.3-34.5l5.5,8.3l-49.6,33.1c-2.8,2.8-4.1,5.5-2.8,9.7s5.5,5.5,8.3,4.1l78.6-13.8l1.4,9.7L520,597.3z"/>
<polyline class="st1" points="571.7,358.8 613.8,409.7 695.2,271.8 "/>
<line class="st2" x1="888.5" y1="474.5" x2="976" y2="325.6"/>
<line class="st2" x1="1006.7" y1="443.9" x2="857.8" y2="356.3"/>
<path class="st0" d="M890.9,823.3h-40c1.4-1.4,1.4-4.1,1.4-6.9l12.4-124.1l5.5-53.8l0,0l6.9-68.9h8.3c8.3-0.1,15.1-6.8,15.2-15.2
	v-6.9c-0.1-16.7-13.6-30.2-30.3-30.3H793v-57.9c0-1.4,0-1.4,1.4-1.4l48.3-37.2c6.9-5.5,9.7-12.4,9.7-20.7c0.1-8-4.1-15.3-11-19.3
	c-8.3-5.5-20.7-5.5-29,1.4l-46.9,37.2c-11.2,8.6-17.8,21.8-17.9,35.9v62h-77.2c-16.7,0.2-30.2,13.7-30.3,30.4v6.9
	c0.1,8.3,6.8,15.1,15.2,15.2h8.3l6.9,68.9l0,0l5.5,56.5l11,121.3c0,2.8,0,4.1,1.4,6.9h-40c-5.3,0-9.6,4.3-9.6,9.7
	c0,5.3,4.3,9.6,9.6,9.6h244c5.2,0.1,9.5-4,9.7-9.2c0-0.2,0-0.3,0-0.5C901.9,827.5,896.4,823.3,890.9,823.3z M764,453.8L764,453.8
	c0.2-8.6,4.2-16.7,11-22.1l47-37.2c2.6-1.4,5.7-1.4,8.3,0c1.4,1.4,2.8,2.8,2.8,5.5s-1.4,4.1-2.8,5.5L782,442.8
	c-5.3,3.8-8.4,10-8.3,16.5v57.9H764V453.8z M670.2,551.7h-13.8v-4.1c0-6.8,5.5-12.4,12.3-12.4c0,0,0.1,0,0.1,0h201.3
	c6.8,0,12.4,5.5,12.4,12.3c0,0,0,0.1,0,0.1v4.1H670.2L670.2,551.7z M834.4,815.1c0,4.1-4.1,8.3-8.3,8.3H714.4
	c-4.1,0-8.3-4.1-8.3-8.3l-5.5-56.5h140.6L834.4,815.1z M845.4,702l-4.1,38.6H696.5l-8.3-92.4h78.6c5.3,0,9.6-4.3,9.6-9.7
	c0-5.3-4.3-9.6-9.6-9.6h-80l-5.5-59.3h176.5l-5.5,59.3h-12.4c-5.3,0-9.7,4.3-9.7,9.6c0,5.3,4.3,9.7,9.6,9.7c0,0,0,0,0,0h11
	L845.4,702z"/>
<path class="st0" d="M733.7,666.2c-17.9,0-33.1,15.2-33.1,33.1s15.2,33.1,33.1,33.1s33.1-15.2,33.1-33.1S751.6,666.2,733.7,666.2z
	 M733.7,713c-8.4,0-15.2-6.8-15.2-15.2c0-8.4,6.8-15.2,15.2-15.2c8.4,0,15.2,6.8,15.2,15.2c0,0,0,0,0,0
	C748.8,706.2,742,712.9,733.7,713L733.7,713z"/>
<path class="st0" d="M815.1,655.1c-14.5,0-26.2,11.7-26.2,26.2c0,0,0,0,0,0c0,13.8,12.4,26.2,26.2,26.2c14.5-0.3,26-12.2,25.7-26.7
	C840.5,666.7,829.1,655.4,815.1,655.1z M815.1,691c-4.1,0-8.3-4.1-8.3-8.3s4.1-8.3,8.3-8.3s8.3,4.1,8.3,8.3S819.2,691,815.1,691
	L815.1,691z"/>
<path class="st0" d="M794.4,641.3L794.4,641.3l2.8,2.8l1.4,1.4c0.7,0,1.4,0.6,1.4,1.3c0,0,0,0,0,0.1h5.5c0.7,0,1.4-0.6,1.4-1.3
	c0,0,0,0,0-0.1l1.4-1.4l1.4-1.4c0-0.7,0.6-1.4,1.3-1.4c0,0,0,0,0.1,0v-5.5c0-0.7-0.6-1.4-1.3-1.4c0,0,0,0-0.1,0l-1.4-1.4l-1.4-1.4
	c-0.7,0-1.4-0.6-1.4-1.3c0,0,0,0,0-0.1h-6.9c-0.7,0-1.4,0.6-1.4,1.3c0,0,0,0,0,0.1l-1.4,1.4C794.4,634.4,793,637.2,794.4,641.3z"/>
<g id="Outline">
	<path class="st0" d="M649.6,864.7l-2.8-155.8c-0.2-3-2.6-5.3-5.5-5.5l0,0l-176.5,4.1v11l171-4.1l2.8,144.8l-97.9,2.8l-92.4-150.3
		c-1.4-1.4-2.8-2.8-5.5-2.8l-122.7,2.8c-3,0.2-5.3,2.6-5.5,5.5l0,0l2.8,155.8c0.2,3,2.6,5.3,5.5,5.5l0,0l319.9-6.9
		C646.8,870.2,649.6,868.9,649.6,864.7L649.6,864.7z M522.8,855l-59.3-26.2l-11-88.2L522.8,855z M329.8,866L327,721.3h20.7
		l2.8,144.8L329.8,866z M361.5,866l-2.8-144.8l73.1-1.4h5.5L451.1,833c0,1.4,1.4,4.1,2.8,4.1l55.2,24.8L361.5,866z M622,733.7
		c-0.2-3-2.6-5.3-5.5-5.5l0,0l-41.4,1.4c-3,0.2-5.3,2.6-5.5,5.5l0,0l1.4,41.4c0.2,3,2.6,5.3,5.5,5.5l0,0l41.4-1.4
		c3-0.2,5.3-2.6,5.5-5.5l0,0L622,733.7z M582,770.9V742h29v29L582,770.9z M573.7,846.8c1.1,1.1,2.6,1.6,4.1,1.4l41.4-1.4
		c3-0.2,5.3-2.6,5.5-5.5l0,0l-1.4-41.4c-0.2-3-2.6-5.3-5.5-5.5l0,0l-41.4,1.4c-3,0.2-5.3,2.6-5.5,5.5l0,0l1.4,41.4
		C571,844,572.4,845.4,573.7,846.8L573.7,846.8z M611,805.4v29h-29v-29H611z M550.3,729.6L509,731c-3,0.2-5.3,2.6-5.5,5.5l0,0
		l1.4,41.4c0.2,3,2.6,5.3,5.5,5.5l0,0l41.3-1.4c3-0.2,5.3-2.6,5.5-5.5l0,0l-1.4-41.4C555.6,732.2,553.3,729.8,550.3,729.6
		L550.3,729.6z M515.9,772.3v-29h29v29H515.9z M544.9,837.1h2.8v-29H520v-11l33.1-1.4c3,0.2,5.3,2.6,5.5,5.5l0,0l1.4,41.4
		c-0.2,3-2.6,5.3-5.5,5.5h-8.3L544.9,837.1z M402.9,733.7v11l-33.1,1.4v-11L402.9,733.7z M427.7,732.3v11h-12.5v-11H427.7z"/>
</g>
</svg>
