<?xml version="1.0" encoding="utf-8"?>
<!-- Generator: Adobe Illustrator 24.1.0, SVG Export Plug-In . SVG Version: 6.00 Build 0)  -->
<svg version="1.1" id="Capa_1" xmlns="http://www.w3.org/2000/svg" xmlns:xlink="http://www.w3.org/1999/xlink" x="0px" y="0px"
	 viewBox="0 0 1080 1080" style="enable-background:new 0 0 1080 1080;" xml:space="preserve">
<style type="text/css">
	.st0{fill:#FFFFFF;stroke:#FFFFFF;stroke-width:11;stroke-miterlimit:10;}
</style>
<path class="st0" d="M445.5,750.8c-8.4-0.2-15.4,6.4-15.6,14.8c-0.2,8.4,6.4,15.4,14.8,15.6c0.3,0,0.5,0,0.8,0
	c7.6,0,15.2-7.6,15.2-15.2C462,757.2,454.4,750.8,445.5,750.8z"/>
<path class="st0" d="M865,441.6c-14-26.6-40.6-43.1-71-43.1h-62.1c27.9-73.5,44.3-158.4,44.3-238.2c0-6-3.5-11.4-8.9-13.9
	c-31.7-16.5-68.4-11.4-96.3,13.9c-22.8,20.3-50.7,20.3-73.5,0c-34.2-31.7-81.1-31.7-115.3,0c-22.8,20.3-50.7,20.3-73.5,0
	c-27.9-25.3-65.9-30.4-97.6-12.7c-5.1,2.5-7.6,7.6-7.6,13.9c0,79.8,16.5,164.7,44.4,237h-62.1c-30.4,0-57,16.5-71,43.1
	C140.1,595,136.3,595,136.3,602.6v262.3c0,43.1,35.5,78.6,78.6,78.6H865c43.1,0,78.6-35.5,78.6-78.6v-261
	C944.8,595,939.7,595,865,441.6z M335.3,170.5c17.7-6.3,36.7-2.5,53.2,12.7c34.2,31.7,81.1,31.7,115.3,0c22.8-20.3,50.7-20.3,73.5,0
	c34.2,31.7,81.1,31.7,115.3,0c15.2-13.9,34.2-19,52-12.7c-1.3,81.1-20.3,166-50.7,237c-15.2,34.2-31.7,63.4-49.4,86.2h-26.7
	c22.8-39.3,46.9-90,64.6-136.9c2.5-7.6-1.3-17.7-8.9-20.3s-17.7,1.3-20.3,8.9c-19,52-46.9,107.7-71,147H557V351.7
	c0.2-8.4-6.4-15.4-14.8-15.6c-8.4-0.2-15.4,6.4-15.6,14.8c0,0.3,0,0.5,0,0.8v141.9h-25.3c-25.3-39.3-52-96.3-71-147
	c-2.7-7.8-11.2-12-19-9.3c-0.4,0.1-0.8,0.3-1.2,0.5c-8.9,3.8-12.7,11.4-8.9,20.3c16.5,46.9,40.5,97.6,63.4,136.9h-26.6
	c-17.7-21.5-35.5-52-49.4-86.2C355.5,336.5,337.8,251.6,335.3,170.5z M244,456.8c7.6-16.3,23.9-26.7,41.8-26.6h74.8
	c10.1,24.1,22.8,44.4,35.5,63.4h-45.6c-8.4,0.2-15,7.2-14.8,15.6c0.2,8.1,6.7,14.6,14.8,14.8h378.9c8.3-0.1,15.1-6.9,15.2-15.2
	c0-7.6-7.6-15.2-15.2-15.2h-45.6c12.7-17.7,24.1-39.3,35.5-63.4H794c17.9,0,34.3,10.3,41.8,26.6l65.9,131.8H176.9L244,456.8z
	 M913.1,866.1c0,25.8-20.8,46.8-46.7,46.9c-0.1,0-0.1,0-0.2,0H216.2c-25.8,0.1-46.8-20.8-46.9-46.7c0-0.1,0-0.1,0-0.2V619h745.1
	L913.1,866.1L913.1,866.1z"/>
<path class="st0" d="M697.7,687.5H382.2c-8.3,0.1-15,6.9-15.2,15.2v126.7c0.1,8.4,6.9,15.1,15.2,15.2h315.5
	c8.4-0.1,15.1-6.9,15.2-15.2V702.7C714.2,693.8,706.6,687.5,697.7,687.5z M682.5,812.9H398.6v-95h283.8V812.9z"/>
<path class="st0" d="M635.6,750.8H508.9c-8.4-0.2-15.4,6.4-15.6,14.8c-0.2,8.4,6.4,15.4,14.8,15.6c0.3,0,0.5,0,0.8,0h126.7
	c8.4,0.2,15.4-6.4,15.6-14.8c0.2-8.4-6.4-15.4-14.8-15.6C636.1,750.8,635.9,750.8,635.6,750.8z"/>
</svg>
