<?xml version="1.0" encoding="utf-8"?>
<!-- Generator: Adobe Illustrator 24.1.0, SVG Export Plug-In . SVG Version: 6.00 Build 0)  -->
<svg version="1.1" id="Capa_1" xmlns="http://www.w3.org/2000/svg" xmlns:xlink="http://www.w3.org/1999/xlink" x="0px" y="0px"
	 viewBox="0 0 1080 1080" style="enable-background:new 0 0 1080 1080;" xml:space="preserve">
<style type="text/css">
	.st0{fill:#FFFFFF;stroke:#FFFFFF;stroke-width:10;stroke-miterlimit:10;}
</style>
<path class="st0" d="M933.4,178.3l10.8-6.8l-5.4-12.2c-1.3-2.7-33.8-64.9-142-64.9c-29.7,0-69,13.5-121.7,40.6
	c-1.3,1.4-2.7,1.4-5.4,2.7c-43.5-9.7-87.9-14.7-132.5-14.9c-71.7,0-171.7,43.3-171.7,86.5l0,0c0,16.2,21.6,69,35.1,101.4
	c-29.7-24.3-68.9-43.3-121.7-43.3c-132.5,0-143.3,142-143.3,186.6c0,89.2,62.2,213.6,201.5,228.5v16.2
	c0,136.5,105.5,286.6,200.1,286.6H709c96,0,200.1-150.1,200.1-286.6c0-51.4-18.9-121.7-36.5-190.6c-17.6-64.9-35.2-132.5-35.2-181.2
	C867.2,220.2,933.4,179.7,933.4,178.3L933.4,178.3z M538.7,152.6c39.2,0,75.7,4.1,98.7,8.1c-2.7,2.7-5.4,4.1-9.5,6.8
	c-28.4,21.6-55.4,41.9-89.2,41.9s-70.3-6.8-100-12.2c-10.8-2.7-20.3-4.1-28.4-5.4C434.6,175.6,487.3,152.6,538.7,152.6L538.7,152.6z
	 M352.1,596.1c-97.3-8.1-128.4-97.4-128.4-142c0-69,17.6-100,56.8-100c56.8,0,94.6,52.7,112.2,83.8c-5.4,23-12.2,47.3-17.6,70.3
	C367,536.6,358.8,566.4,352.1,596.1z M166.9,452.8c0-136.6,71.6-158.2,114.9-158.2c59.5,0,101.4,31.1,127.1,59.5
	c-1.4,13.5-4.1,27-6.8,40.6c-24.3-33.8-63.5-73-120.3-73s-86.5,43.3-86.5,128.4c0,67.6,47.3,159.5,151.4,170.3
	c-1.4,9.5-4,18.9-5.4,28.4C220.9,639.4,166.9,531.2,166.9,452.8L166.9,452.8z M711.7,955.7H540c-78.4,0-171.7-139.3-171.7-258.2
	c0-40.6,12.2-93.3,27-148.7c36.5-23,62.2-24.3,102.8-24.3c29.7,0,56.8,13.5,87.9,29.8c39.2,20.3,82.5,41.9,140.6,41.9
	c62.2,0,110.9-21.6,135.2-35.2c12.2,50,23,98.7,23,135.2C883.4,815.1,790.1,955.7,711.7,955.7z M851,524.5c1.3,2.7,1.3,5.4,2.7,8.1
	c-17.6,10.8-64.9,35.2-127.1,35.2c-51.4,0-90.6-20.3-128.4-39.2h-1.4c50-17.6,106.8-17.6,143.3-17.6
	C778,510.9,841.5,523.1,851,524.5z M842.9,493.4c-23-4.1-70.3-12.2-102.8-12.2c-44.6,0-117.6,0-178.5,29.7
	c-21.6-9.5-41.9-16.2-66.2-16.2c-33.8,0-60.8,0-93.3,14.9c16.2-60.8,32.4-123,35.1-171.7h374.5C814.5,383.8,828,439.3,842.9,493.4
	L842.9,493.4z M814.5,309.5H433.2c-12.2-27-28.4-69-35.1-89.2c9.5,1.4,23,4.1,35.1,5.4c31.1,5.4,69,12.2,105.5,12.2
	c43.3,0,75.7-24.3,106.8-47.3c14.9-10.8,28.4-21.6,43.3-29.8c31.1-16.2,74.4-37.9,108.2-37.9c64.9,0,96,25.7,109.5,39.2
	C884.8,181,838.8,225.7,814.5,309.5z"/>
<path class="st0" d="M768.5,797.6h28.4V826h-28.4V797.6z"/>
<path class="st0" d="M814.5,707h28.4v28.4h-28.4V707z"/>
<path class="st0" d="M653.6,625.8H682v28.4h-28.4V625.8z"/>
<path class="st0" d="M453.5,797.6h28.4V826h-28.4V797.6z"/>
<path class="st0" d="M525.1,840.8h28.4v28.4h-28.4V840.8z"/>
<path class="st0" d="M453.5,611h28.4v28.4h-28.4V611z"/>
<path class="st0" d="M711.7,897.6h28.4V926h-28.4V897.6z"/>
<path class="st0" d="M637.3,739.4h28.4v28.4h-28.4V739.4z"/>
<path class="st0" d="M467,869.2h28.4v28.4H467V869.2z"/>
</svg>
