<?xml version="1.0" encoding="utf-8"?>
<!-- Generator: Adobe Illustrator 24.1.0, SVG Export Plug-In . SVG Version: 6.00 Build 0)  -->
<svg version="1.1" id="Capa_1" xmlns="http://www.w3.org/2000/svg" xmlns:xlink="http://www.w3.org/1999/xlink" x="0px" y="0px"
	 viewBox="0 0 1080 1080" style="enable-background:new 0 0 1080 1080;" xml:space="preserve">
<style type="text/css">
	.st0{fill:#FFFFFF;stroke:#FFFFFF;stroke-width:4;stroke-miterlimit:10;}
</style>
<path class="st0" d="M573.2,702.2c-11.5,0-22.9,3.4-33.2,9.2c-10.3-5.7-21.8-9.2-33.2-9.2c-35.5,0-63,28.7-63,65.3
	c0,20.6,14.9,44.7,44.7,74.5c20.6,20.6,40.1,35.5,41.3,36.7c3,2.1,6.6,3.3,10.3,3.4c3.4,0,8-1.2,10.3-3.4c1.1-1.2,20.6-16,41.3-36.7
	c29.8-29.8,44.7-53.9,44.7-74.5C636.3,730.8,607.6,702.2,573.2,702.2z M540,839.7c-30.9-26.4-60.8-58.5-60.8-73.4
	c0-16,12.6-28.7,27.5-28.7c7.6-0.1,14.8,3.3,19.5,9.2c3.4,3.4,8,5.7,12.6,5.7s10.3-2.3,12.6-5.7c5.7-5.7,12.6-9.2,19.5-9.2
	c14.9,0,27.5,12.6,27.5,28.7C600.7,781.3,570.9,814.5,540,839.7z"/>
<path class="st0" d="M515.9,564.6c-11.5-10.3-25.2-14.9-39-12.6c-83.7,12.6-123.8,79.1-126.1,81.4c-4.6,8-2.3,19.5,5.7,24.1
	s19.5,2.3,24.1-5.7c0,0,33.2-53.9,100.9-64.2c4.6-1.2,8,2.3,10.3,4.6c6.3,5.5,10.1,13.4,10.3,21.8c-0.1,7.2-4.6,13.6-11.4,16.1
	c-33.2,11.5-56.2,24.1-68.8,39l-68.8,84.8c-6.9,9.2-17.2,13.8-26.4,13.8c-4.6,0-6.9-1.2-10.3-4.6c-17.2-18.3-13.8-80.2-12.6-106.6
	V646c6.9-161.6,69.9-207.5,169.6-230.4l5.7-1.1c9.2-2.3,16-11.5,13.8-21.8c-2.3-9.2-11.5-16-21.8-13.8l-5.7,1.1
	C399,395,354.3,420.2,322.2,459.2c-34.4,42.4-51.6,100.9-55,184.5V654c-2.3,49.3-3.5,105.5,21.8,133c9,10.2,21.9,16.1,35.5,16h5.7
	c0,28.7,6.9,57.3,19.5,83.7c3.4,6.9,9.2,10.3,16,10.3c2.8-0.2,5.5-1,8-2.3c8.8-4.1,12.5-14.6,8.4-23.3c-0.1-0.2-0.2-0.5-0.4-0.7
	c-10.6-22.2-16-46.5-16-71.1v-9.2c5.7-3.4,10.4-8.1,13.8-13.8l68.8-84.8c6.9-9.2,26.4-19.5,51.6-27.5c21.8-6.9,35.5-27.5,35.5-49.3
	C538.8,595.6,529.7,576.1,515.9,564.6z"/>
<path class="st0" d="M412.8,911.9L412.8,911.9c-6-7.3-16.8-8.3-24-2.2c-0.4,0.3-0.8,0.7-1.2,1.1c-6.9,6.9-8,18.3-1.1,25.2l1.1,1.2
	c3.4,3.4,8,5.7,12.6,5.7s9.2-1.2,12.6-4.6C419.6,930.3,419.6,918.8,412.8,911.9z"/>
<path class="st0" d="M698.2,414.5c-26.4-16-55-28.6-84.8-35.5c-9.8-2.3-19.6,3.9-21.8,13.7c-2.3,9.8,3.9,19.6,13.7,21.8
	c0.1,0,0.1,0,0.2,0c26.1,5.7,51,16.2,73.4,31c2.7,1.7,5.9,2.5,9.2,2.3c5.7,0,11.5-3.4,14.9-8C709.6,430.5,707.3,420.2,698.2,414.5z"
	/>
<path class="st0" d="M748.6,455.8L748.6,455.8c-8-8-19.5-8-26.4-1.1c-6.9,7-6.9,18.2,0,25.2l1.1,1.1c3.4,3.4,8,5.7,12.6,5.7
	s9.2-1.1,12.6-4.6C755.5,474.1,755.5,462.6,748.6,455.8z"/>
<path class="st0" d="M788.7,509.6c-4.6-9.2-16-11.5-24.1-6.9c-9.2,4.6-11.5,16-6.9,24.1c18.3,32.1,19.5,69.9,19.5,115.8v55
	c0,63-14.9,151.3-83.7,215.5c-12.6,11.5-36.7,24.1-69.9,34.4c-1.1,0-2.3,1.2-3.4,1.2c-8,1.1-16,0-22.9-4.6
	c-8-5.7-11.5-13.8-11.5-22.9c-0.2-12.8,8.3-24.1,20.6-27.5c32.1-9.2,55-20.6,67.6-33.2c47-43.5,44.7-112.3,42.4-171.9
	c0-12.6-1.2-25.2-1.2-36.7v-3.4c3.5-6.8,5.8-14.2,6.9-21.8c5.7-33.2-16-61.9-33.2-84.8c-6.9-9.2-17.2-22.9-17.2-27.5
	c0.2-10.1-7.8-18.5-17.9-18.8c-10.1-0.2-18.5,7.8-18.8,17.9c0,0.3,0,0.6,0,0.9c0,17.2,11.5,32.1,25.2,49.3
	c13.8,18.3,29.8,39,26.4,57.3c-2.3,11.5-11.5,24.1-29.8,35.5c-8,5.7-10.3,17.2-4.6,25.2c3.4,4.6,9.2,8,14.9,8
	c3.7-0.1,7.3-1.3,10.3-3.4c1.1-1.2,2.3-1.2,3.4-2.3v5.7c2.3,55,4.6,111.2-31,144.4c-9.2,8-27.5,17.2-53.9,25.2
	c-27.5,8-45.8,33.2-45.8,61.9c0,14.9,4.6,28.7,13.8,39c-20.6,2.3-33.2,2.3-33.2,2.3c-26.4,0-52.7-6.9-75.6-18.3
	c-8.9-4.4-19.6-0.8-24.1,8c-4.4,8.9-0.8,19.6,8,24.1c28.7,15,60.6,22.8,92.9,22.9c1.2,0,41.3,0,98.6-14.9c1.2,0,2.3-1.2,3.4-1.2h1.2
	c39-12.6,67.6-26.4,83.7-42.4c61.9-57.3,95.1-141,95.1-241.8v-55C812.8,593.3,811.6,549.7,788.7,509.6z"/>
<path class="st0" d="M540,81c-19.8,0-39.4,4.3-57.3,12.6c-32.1-21.8-76.8-14.9-100.9,17.2s-17.2,79.1,14.9,103.2
	c1.1,1.1,2.3,1.1,4.6,2.3v25.2c0,76.6,62.1,138.7,138.7,138.7s138.7-62.1,138.7-138.7v-21.8C678.7,144,616.8,81,540,81z
	 M410.5,132.5c8-11.5,22.9-17.2,35.5-14.9c-17.2,14.9-29.8,35.5-37.8,57.3C400.1,162.3,401.3,145.1,410.5,132.5z M540,345.7
	c-52.7,0-96.3-40.1-102-91.7c27.5-2.3,84.8-10.3,123.8-44.7c26.4,29.8,63,40.1,81.4,43.6C637.4,305.6,592.7,345.7,540,345.7z
	 M577.8,172.6c-3.4-5.7-8-8-14.9-9.2c-5.7,0-11.5,2.3-14.9,6.9c-26.4,36.7-84.8,45.9-112.3,48.1c1.2-56.1,47-101,103.2-100.9
	c55,0,100.9,44.7,103.2,99.7C626,212.8,595,201.3,577.8,172.6L577.8,172.6z"/>
</svg>
