<?xml version="1.0" encoding="utf-8"?>
<!-- Generator: Adobe Illustrator 24.1.0, SVG Export Plug-In . SVG Version: 6.00 Build 0)  -->
<svg version="1.1" id="Capa_1" xmlns="http://www.w3.org/2000/svg" xmlns:xlink="http://www.w3.org/1999/xlink" x="0px" y="0px"
	 viewBox="0 0 1080 1080" style="enable-background:new 0 0 1080 1080;" xml:space="preserve">
<style type="text/css">
	.st0{fill:#FFFFFF;stroke:#FFFFFF;stroke-width:9;stroke-miterlimit:10;}
	.st1{fill:none;stroke:#FFFFFF;stroke-width:44;stroke-linecap:round;stroke-linejoin:round;}
	.st2{fill:none;stroke:#FFFFFF;stroke-width:44;stroke-miterlimit:10;}
</style>
<path class="st0" d="M404.5,628.8c5.5-2.7,8.2-11,4.1-16.5c-2.8-5.5-11-8.2-16.5-4.1c-5.5,2.7-8.2,11-4.1,16.5
	C390.8,630.2,397.7,632.9,404.5,628.8z"/>
<path class="st0" d="M353.8,712.4L415.5,818c13.7,23.3,42.5,31.5,65.8,17.8s31.5-42.5,17.8-65.8l-37-63l31.5-17.8
	c5.5-2.7,8.2-11,4.1-16.5l-15.1-27.4c1.4,0,13.7-2.7,231.6-45.2c27.4-1.4,42.5-31.5,28.8-54.8l-39.7-69.9l26-38.4
	c2.8-3.7,2.8-8.7,0-12.3l-24.7-42.5c-2.7-4.1-6.9-6.9-11-5.5l-46.6,2.7l-45.2-76.7c-6.9-11-17.8-17.8-31.5-17.8l0,0
	c-12.3,0-23.3,6.9-30.2,16.5L382.6,502.8l-102.8,58.9C238.7,585,225,637,248.3,678.2C271.6,713.8,316.8,727.5,353.8,712.4z
	 M478.5,782.3c6.9,11,2.7,26-8.2,32.9s-26,2.7-32.9-8.2l-60.3-105.5l42.5-24.7C488.1,798.8,477.2,779.6,478.5,782.3L478.5,782.3z
	 M451.1,686.4l-12.3-20.6l20.6-12.3l12.3,20.5L451.1,686.4z M689.6,400l16.4,28.8l-15,21.9l-28.8-49.3L689.6,400z M562.1,312.3
	c2.7-5.5,8.2-5.5,11-5.5s6.8,0,11,5.5l141.1,243.9c4.1,8.2-1.4,17.8-9.6,17.8c-1.4,0-2.7,0-6.8,1.4L559.4,317.7
	C560.8,313.6,560.8,313.6,562.1,312.3z M541.6,338.3l139.8,242.6l-211,41.1l-64.4-111L541.6,338.3z M270.2,664.5
	c-5.4-9.1-8.3-19.5-8.2-30.2c0-21.9,11-41.1,30.1-52.1l94.6-54.8L447,632.9l-94.6,54.8C325,702.8,286.7,693.2,270.2,664.5z"/>
<path class="st0" d="M366.2,637c-2.7-5.5-11-8.2-16.4-4.1l-20.6,12.3c-5.5,2.7-13.7,1.4-16.4-4.1s-11-8.2-16.5-4.1
	c-5.5,2.7-8.2,11-4.1,16.5c9.6,17.8,31.5,23.3,49.3,13.7l20.6-12.3C367.5,649.4,370.3,642.5,366.2,637z"/>
<path class="st0" d="M840.3,308.1l-67.2,37c-5.5,2.7-8.2,11-4.1,16.4c2.7,5.5,11,8.2,16.4,4.1l67.2-37c5.5-2.7,8.2-11,4.1-16.4
	C854,308.1,845.8,305.4,840.3,308.1z"/>
<path class="st0" d="M833.5,434.2l-46.6-12.3c-6.8-1.4-13.7,2.7-15.1,8.2s2.7,13.7,8.2,15.1l46.6,12.3c6.8,1.4,13.7-2.7,15.1-8.2
	C843.1,442.5,840.3,435.6,833.5,434.2z"/>
<path class="st0" d="M715.6,264.3l-12.3,46.6c-1.4,6.9,2.7,13.7,8.2,15.1c6.8,1.4,13.7-2.7,15.1-8.2l12.3-46.6
	c1.4-6.9-2.7-13.7-8.2-15.1C723.8,254.7,717,258.8,715.6,264.3z"/>
<circle class="st1" cx="569" cy="528.8" r="416.6"/>
<line class="st2" x1="300.4" y1="209.5" x2="830.7" y2="852.2"/>
</svg>
