<?xml version="1.0" encoding="utf-8"?>
<!-- Generator: Adobe Illustrator 24.1.0, SVG Export Plug-In . SVG Version: 6.00 Build 0)  -->
<svg version="1.1" id="Capa_1" xmlns="http://www.w3.org/2000/svg" xmlns:xlink="http://www.w3.org/1999/xlink" x="0px" y="0px"
	 viewBox="0 0 1080 1080" style="enable-background:new 0 0 1080 1080;" xml:space="preserve">
<style type="text/css">
	.st0{fill:#FFFFFF;stroke:#FFFFFF;stroke-miterlimit:10;}
</style>
<path class="st0" d="M815,242.3c-7.2,7.2-7.2,16.3,0,23.5s16.3,7.2,23.5,0s7.2-16.3,0-23.5S820.5,235.1,815,242.3z"/>
<path class="st0" d="M815,117.4c-97.8,3.6-215.4,48.9-309.5,132.1c-59.7-12.7-123.1,5.4-166.5,48.9c-19.9,19.9-19.9,50.7,0,70.6
	l54.3,54.3c-34.4,97.7-39.8,202.7-41.6,255.2c-29.3-20.1-64-30.9-99.6-30.8c-48.9,0-94.1,18.1-128.5,52.5c-7.2,7.2-7.2,16.3,0,23.5
	c34.4,34.4,79.6,52.5,128.5,52.5c21.6,0.1,43-3.6,63.3-10.9c-7.3,20.3-10.9,41.8-10.9,63.4c0,48.9,18.1,94.1,52.5,128.5
	c3.6,3.6,7.2,5.4,10.9,5.4s9-1.8,10.9-5.4c34.4-34.4,52.5-79.6,52.5-128.5c0.1-35.5-10.6-70.3-30.8-99.6
	c52.5,0,157.5-7.2,255.2-41.6l54.3,54.3c19.9,19.9,50.7,19.9,70.6,0c43.4-43.4,61.5-106.8,48.9-166.5
	c72.4-83.3,128.5-199.1,132.1-311.3c1.8-48.9-10.9-92.3-32.6-114C909.2,128.3,865.7,115.6,815,117.4z M362.5,322
	c30.8-30.8,72.4-45.2,114-43.4c-27.1,29-50.7,65.2-70.6,110.4l-43.4-43.5C355.3,338.3,355.3,327.4,362.5,322z M159.8,713
	c25.4-19.9,57.9-32.6,92.3-32.6s65.2,10.9,92.3,32.6c-25.3,19.9-57.9,32.6-92.3,32.6S185.1,732.9,159.8,713z M368,921.1
	c-19.9-25.3-32.6-57.9-32.6-92.3s10.9-65.2,32.6-92.3c19.9,25.3,32.6,57.9,32.6,92.3S387.9,894,368,921.1z M759,718.4
	c-7.2,7.2-16.3,7.2-23.5,0L692,674.9c43.4-18.1,81.5-41.6,110.4-70.6C804.2,646,787.9,687.6,759,718.4L759,718.4z M929.1,262.2
	c-1.8,45.2-14.5,97.7-34.4,148.4c-45.2,10.9-95.9,1.8-139.4-25.3c-7.2-5.4-18.1-1.8-23.5,5.4s-1.8,18.1,5.4,23.5
	c41.6,27.1,92.3,39.8,139.4,34.4c-19.9,39.8-47.1,77.8-77.8,112.2l0,0c-5.4,7.2-12.7,12.7-18.1,19.9
	c-90.5,90.5-267.9,117.7-398.2,117.7c0-128.5,27.2-305.9,117.7-398.2c7.2-7.2,12.7-12.7,19.9-18.1c34-30.6,71.7-56.8,112.2-77.8
	c-3.6,34.4,1.8,68.8,14.5,103.2c3.6,9,12.7,12.7,21.7,9s12.7-12.7,9-21.7c-14.5-34.4-16.3-72.4-9-106.8
	c48.9-19.9,101.4-32.6,146.6-34.4s77.8,9.1,90.5,21.7C918.2,184.4,930.9,217,929.1,262.2z"/>
<path class="st0" d="M684.7,343.7c-7.2,7.2-7.2,16.3,0,23.5s16.3,7.2,23.5,0s7.2-16.3,0-23.5C702.8,338.3,692,338.3,684.7,343.7z"/>
</svg>
