<?xml version="1.0" encoding="utf-8"?>
<!-- Generator: Adobe Illustrator 24.1.0, SVG Export Plug-In . SVG Version: 6.00 Build 0)  -->
<svg version="1.1" id="Capa_1" xmlns="http://www.w3.org/2000/svg" xmlns:xlink="http://www.w3.org/1999/xlink" x="0px" y="0px"
	 viewBox="0 0 1080 1080" style="enable-background:new 0 0 1080 1080;" xml:space="preserve">
<style type="text/css">
	.st0{fill:#FFFFFF;}
	.st1{fill:#FFFFFF;stroke:#FFFFFF;stroke-width:10.91;stroke-miterlimit:10;}
</style>
<path class="st0" d="M484.7,498c34.3-43.2,47.1-89.7,33.9-128.3c-8-24.7-31-57.4-90.1-73.6c-7-2.5-14.1-3.6-22.7-4.9
	c-40.1-6-85.3,1.9-125,22.4c-42.8,21.5-72.8,55.1-84.5,94.4c-15.1,52,9.2,105.5,27.5,149.2c17.6,39.9,38.3,78.3,62,114.8
	c28.8,42.4,59.2,64.6,93.7,69.7l0,0c11.2,1.9,22.7,1.6,33.8-0.8c37.6-6.1,65.2-34.2,72.9-75.6c5.7-28.5-3.8-53.3-10.8-74.9
	C465.9,555.3,457.8,530.7,484.7,498z M462.1,658.9c-6.1,31.3-25.4,51.9-52.5,56.7c-8.7,1.6-17.7,1.7-26.5,0.4l0,0
	c-27.2-4.1-52.3-22.5-77.5-60c-20.5-29.5-42.4-69.4-59.8-110.1c-18.6-42.4-39.4-89.5-27-133c9.2-32.3,35.5-60.7,71.9-78.7
	c34.8-16.8,75.6-25.4,111.5-20c7.2,1.1,12.9,1.9,18.4,4.2l0,0c39.5,10.3,65.8,30.4,74.9,58.1c10,30.8-1.5,68.7-30.4,105.4
	c-34.3,43.3-22.3,80.2-12.4,112.5C459.8,616,467,636.1,462.1,658.9z"/>
<path class="st0" d="M404.7,474.4C378.1,466,337.9,460,301,472c-0.8-0.1-1.5,0.4-1.6,1.2c0,0,0,0,0,0.1c-6.2,2-10.1,8.8-6.7,15.1
	c0.8,4.5,4.9,6.6,9.2,7.2c1.4,0.2,4.3,0.6,6-0.6l1.4,0.2c24.7-8,59.9-8.6,87.8,1.4c7,2.5,13.3-0.9,15.8-7.9
	C415.1,483.2,411.9,475.4,404.7,474.4z"/>
<path class="st0" d="M283.2,492.8c-4.6-5-12.4-5.4-17.4-0.8c-4.9,4.5-5.4,12-1.1,17.1c2.7,1.9,3.9,3.5,6.8,3.9s7.4-0.4,9.2-3l0,0
	C287.2,505.2,286.8,497.8,283.2,492.8z"/>
<path class="st0" d="M542.7,188.6c-34.4-5.1-67.4,19.2-72.5,53.7s19.2,67.4,53.7,72.5s67.4-19.2,72.5-53.7S577.1,193.7,542.7,188.6z
	 M527.5,290.4c-21.4-3.2-36.1-23.1-32.9-44.5c3.2-21.4,23.1-36.1,44.5-32.9s36.1,23.1,32.9,44.5c0,0,0,0,0,0
	c-3.1,21.3-22.9,36.1-44.2,33C527.7,290.4,527.6,290.4,527.5,290.4z"/>
<path class="st0" d="M414.1,254.4c25.8,3.9,49.1-14.6,52.8-39c3.9-25.8-14.6-49.1-39-52.8c-25.8-3.9-49.1,14.6-52.8,39
	C370,225.8,388.3,250.5,414.1,254.4z M424.6,184.1c12.7,1.9,21.4,13.7,19.5,26.4c-1.9,12.7-13.7,21.4-26.4,19.5
	c-12.7-1.9-21.4-13.7-19.5-26.4C400,192.2,411.7,182.2,424.6,184.1z"/>
<path class="st0" d="M311.2,256.6c22.9,3.4,44.3-12.4,47.7-35.4s-12.4-44.3-35.4-47.7c-22.9-3.4-44.2,12.4-47.7,35.3
	C272.4,231.8,288.2,253.1,311.2,256.6z M320.2,196.4c9.4,1.5,15.9,10.3,14.6,19.8c-1.3,8.6-11.2,15.9-19.8,14.6
	c-10-1.5-15.9-11.2-14.6-19.8C300.2,202.2,310.1,194.9,320.2,196.4z"/>
<path class="st0" d="M227.8,304.2c21.4,3.2,41.3-11.5,44.5-32.9s-11.5-41.3-32.9-44.5c-21.4-3.2-41.3,11.5-44.5,32.9
	c-3.3,21.3,11.3,41.2,32.6,44.5C227.6,304.2,227.7,304.2,227.8,304.2z M236,249.8c7.9,1.2,13.4,8.6,12.2,16.5
	c-1.2,7.9-8.6,13.4-16.5,12.2c-7.9-1.2-13.4-8.6-12.2-16.5c0,0,0,0,0,0C220.6,254.8,228.8,248.7,236,249.8z"/>
<path class="st0" d="M179.1,297c-19.8-3-38.3,10.7-41.2,30.5s10.7,38.3,30.5,41.2c19.8,3,38.3-10.7,41.2-30.5c0,0,0,0,0,0
	c3.1-19.6-10.2-38-29.8-41.1C179.5,297.1,179.3,297,179.1,297z M172,344.3c-6.4-0.8-10.8-6.6-10-13c0.8-6.4,6.6-10.8,13-10
	c0.2,0,0.3,0,0.5,0.1c5.7,0.9,10.6,7.5,9.8,13.2c-0.8,6.3-6.6,10.7-12.9,9.8C172.2,344.3,172.1,344.3,172,344.3z"/>
<path class="st0" d="M415.4,588.8L415.4,588.8c-7-2.5-13.3,0.9-15.9,7.9c-2.3,5.5,0.9,13.3,7.9,15.8l0,0l1.4,0.2
	c5.7,0.9,12.1-2.6,13-8.3C424.4,597.5,421.2,589.7,415.4,588.8z"/>
<path class="st0" d="M373.2,586.9c-15.7,3.8-30.3,11.2-42.8,21.5c-5,3.7-6.2,12.3-1.1,17.4c2.6,1.9,5.3,3.7,6.7,3.9
	c2.9,0.4,7.4-0.4,9.2-3c9.6-8.3,21-14.1,33.3-17c6.2-2,10.1-8.8,8.1-14.9C386.1,588.9,379.4,584.9,373.2,586.9z"/>
<path class="st0" d="M1001.3,754.7c5.6-26.7,4.8-68.2-12.4-102.8l-0.3-1.4c-2.7-5.3-10.8-7.9-16.1-5.1c-3.8,2.2-6.2,6.1-6.4,10.5
	l1.3,5.6l0.3,1.4c11.6,24.1,15.4,58.9,10.5,88.4c-1.5,6.3,3,12.7,9.3,14.2C993.4,765.5,999.8,761,1001.3,754.7z"/>
<path class="st0" d="M965.5,635.1c4.6-5.6,3-12.6-1.2-17.6c-5.6-4.6-13-4.4-17.6,1.2c-2.3,2-3.3,5.1-2.6,8.1c-0.8,3.2,1.7,7,3.7,9.5
	l0,0C953.5,640.9,960.9,640.6,965.5,635.1z"/>
<path class="st0" d="M505.5,741.6c15.1-22.7,29.7-61.5,26.7-100.1l0.2-1.4c-0.6-6-7.1-11.3-13-10.7c-4.3,0.6-8,3.4-9.9,7.3l-0.9,5.7
	l-0.2,1.4c1.9,26.7-7.6,60.5-23.1,86c-3.7,5.3-1.9,12.9,3.4,16.6C494.1,748.7,501.8,746.9,505.5,741.6z"/>
<path class="st0" d="M516.5,618.6c6.4-3.5,7.5-10.6,5.4-16.8c-3.4-6.4-10.4-8.9-16.8-5.4c-2.9,1-5,3.5-5.4,6.5
	c-1.9,2.7-1.1,7.2-0.1,10.2l0,0C503.2,619.6,510.4,620.6,516.5,618.6z"/>
<path class="st0" d="M520.2,521.6c6.1,2.6,13.2,0.3,16.6-5.4c13-26.9,36.9-51.9,60.6-65l1.4-0.3c1.4-0.3,3.9-2.4,5-4.1
	c2.1-3.7,2.7-8.1,1.6-12.3c-2.8-5.3-10.8-7.9-16.1-5.1l-1.4,0.3c-34.7,17.1-59.4,51.3-71.7,75C510.4,512,513.5,518.7,520.2,521.6z"
	/>
<path class="st0" d="M625.2,443.1L625.2,443.1c4.2-1,7.1-1.7,9.2-5.1c1.1-1.8,1.8-4.9,2.6-8.1c-0.3-7.4-5.8-12-13.2-11.8
	s-12,5.8-11.8,13.2C613.7,438.4,619.3,443,625.2,443.1z"/>
<path class="st0" d="M88.2,355.2c7.2,1.1,12.3-4,13.4-11.2c1.6-30.5,15.2-62.2,32.7-81.6c0.1-0.8,0.8-1.3,1.6-1.2c0,0,0,0,0.1,0
	c1.6-1.2,1.9-2.6,2.3-5.5c0.6-4.3-0.1-8.8-4-12.3c-5.1-5.2-12.5-4.8-17.6,0.3c-0.1,0.8-0.8,1.3-1.6,1.2c0,0,0,0,0,0
	c-26.2,28.3-36.8,69.3-39.4,96.7C77.4,349.2,82.5,354.4,88.2,355.2z"/>
<path class="st0" d="M159.1,244.1L159.1,244.1c3.3-2.4,6.6-4.9,7-7.8s0.9-5.7-0.4-7.4c-3.4-6.4-10.4-8.9-16.8-5.4
	c-6.2,2-8.9,10.4-5.4,16.8C146,243.6,152.9,246.1,159.1,244.1z"/>
<path class="st1" d="M626.5,894.9l105.7,21.1c35.6,7.1,72.5-6.8,96.3-36.5L959,717.4c2.6-3.2,2.6-7.8,0-11l-8.1-10
	c-9.1-12.6-23-20.9-38.5-22.9c-15.8-2-31.7,2.7-43.9,12.9l-13.8,11.3l39.2-196.9c4.8-24-10-47.2-32.7-51.8
	c-8.9-1.8-17.2-0.3-25.7,3.3l3-15.2c4.8-24-9.4-46.9-32.1-51.5l-0.8-0.1c-20.6-4.1-41,8.5-48.1,28.8c-5.8-6.9-13.8-11.6-22.7-13.4
	c-22.7-4.5-45,11.2-49.8,35.2l-8.7,43.6c-5.5-6.4-13.6-10.7-22.5-12.5l-0.7-0.1c-22.7-4.5-45,11-49.8,34.9
	c-12.5,62-34.3,171.5-53.8,269.4C538,828.9,572.6,884.2,626.5,894.9z M620.5,505.6c2.9-14.4,16-23.8,29.1-21.2l0.7,0.1
	c13.2,2.6,21.8,16.1,18.9,30.6l-22.7,113.5c-1,4.8,2.1,9.4,6.9,10.4c4.8,1,9.4-2.1,10.4-6.9l38.5-192.5c2.9-14.5,15.7-24.1,29-21.5
	s21.3,16.5,18.5,31l-38.5,192.5c-1,4.8,2.1,9.4,6.9,10.4c4.8,1,9.4-2.1,10.4-6.9L772.7,424c2.9-14.5,16.3-23.8,29.5-21.2l0.8,0.1
	c13.2,2.6,21.6,16.5,18.7,30.9l-9.8,49.2c-0.1,0.4-0.2,0.9-0.3,1.3c0,0.2-0.1,0.4-0.1,0.6c-4.4,21.9-9.1,45.6-13.6,68.1
	c-10.5,52.3-19.5,97.5-20.4,101.9c-0.9,4.8,2.2,9.4,7,10.3c4.7,0.9,9.3-2.2,10.3-6.9c0.9-4.4,9.9-49.5,20.3-101.8
	c4.6-23.1,9.5-47.4,14-69.7c3.3-13.9,16.1-23,29-20.4c13.2,2.6,21.6,16.5,18.7,31l-44,221c-0.9,4.8,2.1,9.4,6.9,10.3
	c2.6,0.5,5.3-0.2,7.3-1.8l32.7-26.9c8.5-7.1,19.5-10.4,30.5-9.1c10.7,1.4,20.4,7.3,26.7,16.1l0.3,0.4l3.7,4.6l-126,156.6
	c-19.7,24.5-50,36.1-79.2,30.2l-105.7-21.2c-44.4-8.9-72.8-54.8-63.3-102.8C586.1,677,607.9,567.6,620.5,505.6L620.5,505.6z"/>
</svg>
