<?xml version="1.0" encoding="utf-8"?>
<!-- Generator: Adobe Illustrator 24.1.0, SVG Export Plug-In . SVG Version: 6.00 Build 0)  -->
<svg version="1.1" id="Capa_1" xmlns="http://www.w3.org/2000/svg" xmlns:xlink="http://www.w3.org/1999/xlink" x="0px" y="0px"
	 viewBox="0 0 1080 1080" style="enable-background:new 0 0 1080 1080;" xml:space="preserve">
<style type="text/css">
	.st0{fill:#FFFFFF;stroke:#FFFFFF;stroke-width:6;stroke-linecap:round;stroke-linejoin:round;}
</style>
<g>
	<path class="st0" d="M618.6,570.2l12.2-19.8c6.1-9.2,18.3-12.2,27.5-7.6c4.6,3,7.6,6.1,9.2,10.7l7.6,21.4l29-9.2l-7.6-21.4
		c-9.2-25.9-38.1-41.2-64.1-32c-11.2,4-20.8,11.5-27.5,21.3l-12.2,19.8c-18.3,30.5-59.5,41.2-90,22.9c-9.1-6-16.9-13.8-22.9-22.9
		l-12.2-19.8c-13.7-24.4-45.8-32-70.2-16.8c-10.7,6.1-18.3,15.2-21.4,27.5l-7.6,21.4l29,9.2l7.6-21.4c3.1-10.2,13.8-16,24-12.9
		c0.7,0.2,1.3,0.4,1.9,0.7c4.6,1.5,9.2,4.6,10.7,9.2l12.2,19.8c27.5,45.8,87,61,131.2,33.6C600.2,594.6,610.9,583.9,618.6,570.2z"/>
	<path class="st0" d="M432.5,417.6c6.1-1.5,12.2-6.1,13.7-12.2l36.6-244.1c4.6-30.5,33.6-51.9,62.5-47.3c24.4,3,42.7,22.9,47.3,47.3
		l36.6,244.1c1.5,6.1,6.1,12.2,13.7,12.2c53.4,6.1,90,54.9,83.9,108.3c0,3-1.5,6.1-1.5,9.2l-4.6,16.8l30.5,6.1l4.6-16.8
		c15.4-67.9-27.1-135.4-95-150.8c-0.4-0.1-0.7-0.2-1.1-0.2l0,0l-35.1-233.4c-7.7-47.3-50.3-79.3-97.7-71.7
		c-38.1,6.1-67.1,35.1-71.7,71.7l-35,233.4c-68,14.8-111.1,81.9-96.3,149.9c0.1,0.4,0.2,0.7,0.2,1.1l0,0l4.6,16.8l30.5-6.1
		l-4.6-16.8c-12.2-51.9,21.4-103.7,73.2-115.9C426.4,419.2,429.4,419.2,432.5,417.6L432.5,417.6z"/>
	<path class="st0" d="M427.9,626.6c-1.5-6.1-7.6-9.2-13.7-9.2h-61V648H370c-41.5,27.8-90.4,42.6-140.3,42.7
		c-48.8,0-83.9-12.2-83.9-12.2l-10.7,29c1.5,0,38.1,15.3,93.1,15.3h1.5c50.3,0,125.1-13.7,195.3-77.8
		C429.4,638.8,430.9,632.7,427.9,626.6z"/>
	<path class="st0" d="M501.1,651c-4.6-3-10.7-4.6-16.8-1.5l-61,30.5l13.7,27.5l27.5-13.7c-19.6,48.7-53.7,90.2-97.6,119
		c-41.2,27.5-77.8,35.1-77.8,35.1l6.1,30.5c1.5,0,41.2-9.2,86.9-38.1c42.7-27.5,97.6-79.3,122-170.8
		C507.2,660.2,505.7,654.1,501.1,651z"/>
	<path class="st0" d="M644.5,626.6c-1.6,6,0.1,12.4,4.6,16.8c70.2,62.6,144.9,76.3,195.2,77.8h1.5c53.4,0,91.5-13.7,93-15.2
		l-10.7-29c0,0-35.1,13.7-83.9,12.2c-49.9-0.1-98.7-15-140.3-42.7h16.8V616h-61C653.6,616,647.5,620.5,644.5,626.6z"/>
	<path class="st0" d="M777.2,875.3l6.1-30.5c0,0-36.6-7.6-77.8-35.1c-43.9-28.8-78-70.3-97.6-119l27.5,13.7l13.7-27.4l-61-30.5
		c-7.6-3.1-16.8,0-19.8,6.1c-1.5,3-1.5,7.6-1.5,10.7c24.4,91.5,80.8,143.4,122,170.8C736,867.6,775.7,875.3,777.2,875.3z"/>
</g>
</svg>
