<?xml version="1.0" encoding="utf-8"?>
<!-- Generator: Adobe Illustrator 24.1.0, SVG Export Plug-In . SVG Version: 6.00 Build 0)  -->
<svg version="1.1" id="Capa_1" xmlns="http://www.w3.org/2000/svg" xmlns:xlink="http://www.w3.org/1999/xlink" x="0px" y="0px"
	 viewBox="0 0 1080 1080" style="enable-background:new 0 0 1080 1080;" xml:space="preserve">
<style type="text/css">
	.st0{fill:#FFFFFF;}
</style>
<path class="st0" d="M937.3,520.9c-13.2,0-25,4.4-35.2,10.3c-12.1-34.3-44.4-57.2-80.8-57.3H390.9c-20.6,0-39.6,7.3-55.8,20.6
	c-11.9-32.7-43-54.4-77.8-54.3c-16.8,0.1-33.1,5.3-47,14.7v-166c0-36.7-30.9-67.6-67.6-67.6s-67.6,30.8-67.6,67.6v647.7
	c0,10.3,8.8,17.6,17.6,17.6h98.4c10.3,0,17.6-8.8,17.6-17.6v-79.3h262.9c10.3,0,17.6-8.8,17.6-17.6c0-10.3-8.8-17.6-17.6-17.6H208.8
	V607.6h94v86.7c0,14.7,8.8,29.4,22,36.7s29.4,5.9,42.6-1.5l0,0c15.1-10.3,34.9-10.3,49.9,0l1.5,1.5c26.4,17.6,61.7,17.6,89.6,0h1.5
	c15.1-10.3,34.9-10.3,49.9,0l1.5,1.5c26.4,17.6,61.7,17.6,89.6,0h1.5c15.1-10.3,34.9-10.3,49.9,0l1.5,1.5
	c13.1,8.6,28.4,13.1,44.1,13.2c15.7,0.1,31-4.5,44.1-13.2h1.5c15.1-10.3,34.9-10.3,49.9,0h1.5c7.7,5.4,17.2,7.5,26.4,5.9v85.2H608.3
	c-10.3,0-17.6,8.8-17.6,17.6c0,10.3,8.8,17.6,17.6,17.6h262.9v79.3c0,10.3,8.8,17.6,17.6,17.6h98.4c10.3,0,17.6-8.8,17.6-17.6V591.4
	C1004.8,551.8,974,520.9,937.3,520.9z M172.1,588.5v329h-61.7V287.4c0-17.6,13.2-30.8,30.8-30.8s30.8,13.2,30.8,30.8L172.1,588.5
	L172.1,588.5z M255.8,570.8c-26.4,0-47-20.6-47-47s20.6-47,47-47s47,20.6,47,47C302.8,548.8,282.2,570.8,255.8,570.8L255.8,570.8z
	 M869.7,560.6H689.1c-10.3,0-17.6,8.8-17.6,17.6c0,10.3,8.8,17.6,17.6,17.6h180.6v96.9c0,2.9-1.5,2.9-2.9,4.4c-1.5,0-2.9,1.5-4.4,0
	h-1.5c-26.4-17.6-61.7-17.6-89.6,0h-1.5c-15.1,10.3-34.9,10.3-49.9,0l-1.5-1.5c-26.4-17.6-61.7-17.6-89.6,0h-1.5
	c-15.1,10.3-34.9,10.3-49.9,0l-1.5-1.5c-13.1-8.6-28.4-13.1-44.1-13.2c-15.7-0.1-31,4.5-44.1,13.2h-1.5c-15.1,10.3-34.9,10.3-49.9,0
	l-1.5-1.5c-26.4-17.6-61.7-17.6-89.6,0l0,0c-1.5,1.5-4.4,1.5-4.4,0c-1.5,0-2.9-1.5-2.9-4.4V554.7c-0.2-27.3,21.7-49.7,49.1-49.9
	c0.3,0,0.6,0,0.8,0h430.3C847.7,510.6,869.7,532.7,869.7,560.6L869.7,560.6z M968.1,918.9h-61.7V588.5c0-17.6,13.2-30.8,30.8-30.8
	s30.8,13.2,30.8,30.8V918.9L968.1,918.9z"/>
<path class="st0" d="M552.5,826.4c-3.4-3.7-8.2-5.8-13.2-5.9c-4.4,0-8.8,1.5-13.2,5.9c-3.7,3.4-5.8,8.2-5.9,13.2
	c0,4.4,1.5,8.8,5.9,13.2c3.4,3.7,8.2,5.8,13.2,5.9c4.4,0,8.8-1.5,13.2-5.9c3.7-3.4,5.8-8.2,5.9-13.2
	C556.9,833.7,555.4,829.3,552.5,826.4z"/>
<path class="st0" d="M725.8,221.3h-54.3l67.6-67.6c5.9-5.9,7.3-13.2,4.4-19.1c-2.9-7.3-8.8-11.8-16.2-11.8h-98.4
	c-10.3,0-17.6,8.8-17.6,17.6s8.8,17.6,17.6,17.6h54.3l-67.5,67.6c-5.9,5.9-7.3,13.2-4.4,19.1c2.9,7.3,8.8,11.7,16.2,11.7h98.4
	c10.3,0,17.6-8.8,17.6-17.6S734.6,221.3,725.8,221.3z"/>
<path class="st0" d="M539.3,294.7h-29.4l41.1-41.1c5.9-5.9,7.3-13.2,4.4-19.1s-8.8-11.8-16.2-11.8h-72c-10.3,0-17.6,8.8-17.6,17.6
	s8.9,17.6,17.7,17.6h29.4l-41.1,41.1c-5.9,5.9-7.3,13.2-4.4,19.1c2.9,7.4,8.9,11.8,16.1,11.8h72c10.3,0,17.6-8.8,17.6-17.6
	S549.5,294.7,539.3,294.7z"/>
<path class="st0" d="M388,359.4h-14.7l26.4-26.4c5.9-5.9,7.4-13.2,4.4-19.1c-2.9-7.4-8.8-11.8-16.2-11.8h-58.7
	c-10.3,0-17.6,8.8-17.6,17.6s8.8,17.6,17.6,17.6h14.7l-26.4,26.4c-5.9,5.9-7.3,13.2-4.4,19.1c2.9,7.4,8.8,11.8,16.2,11.8H388
	c10.3,0,17.6-8.8,17.6-17.6S396.8,359.4,388,359.4z"/>
<path class="st0" d="M640.6,566.4c-3.4-3.7-8.2-5.8-13.2-5.9c-4.4,0-8.8,1.5-13.2,5.9c-3.7,3.4-5.8,8.2-5.9,13.2
	c0,5.9,1.5,8.8,5.9,13.2c3.4,3.7,8.2,5.8,13.2,5.9c5.9,0,8.8-1.5,13.2-5.9c7.3-6.6,7.9-17.8,1.3-25.1
	C641.5,567.3,641.1,566.9,640.6,566.4z"/>
</svg>
