<?xml version="1.0" encoding="utf-8"?>
<!-- Generator: Adobe Illustrator 24.1.0, SVG Export Plug-In . SVG Version: 6.00 Build 0)  -->
<svg version="1.1" id="Capa_1" xmlns="http://www.w3.org/2000/svg" xmlns:xlink="http://www.w3.org/1999/xlink" x="0px" y="0px"
	 viewBox="0 0 1080 1080" style="enable-background:new 0 0 1080 1080;" xml:space="preserve">
<style type="text/css">
	.st0{fill:#FFFFFF;}
</style>
<path class="st0" d="M700.9,81.7c-9.7,0-17.5,7.8-17.5,17.5v82.2c0,9.7,7.8,17.5,17.5,17.5c8.7,0,17.5-8.8,17.5-17.5V99.2
	C718.4,89.6,710.6,81.8,700.9,81.7z"/>
<path class="st0" d="M288.1,641.5c-9.7,0-17.5,7.8-17.5,17.5c0,8.7,8.7,17.5,17.5,17.5c9.7,0,17.5-7.8,17.5-17.5
	S297.8,641.4,288.1,641.5L288.1,641.5z"/>
<path class="st0" d="M951,604.7c0-40.2-31.5-71.7-71.7-71.7H746.4c21-52.5,29.7-115.4,28-171.4c0-10.5,0-17.5-1.8-21
	c-1.8-38.5-33.2-70-71.7-70c-40.2,0-71.7,31.5-71.7,71.7v17.5c0,113.7-145.2,176.7-255.4,204.7c-8.8-19.2-27.9-31.5-49-31.5H146.5
	c-9.6,0-17.4,7.9-17.5,17.5v430.3c0,9.7,7.8,17.5,17.5,17.5h178.4c21,0,40.2-14,49-31.5c8.7,1.8,17.5,5.2,24.5,7
	c63,15.7,96.2,24.5,180.2,24.5h192.4c40.2,0,71.7-31.5,71.7-71.7c0-14-5.2-28-12.2-40.2c28.5-10.5,47.4-37.8,47.2-68.2
	c0-14-3.5-28-12.2-40.2c28.5-10.5,47.4-37.8,47.2-68.2c0-14-5.2-28-12.2-40.2C931.8,664.2,951,636.2,951,604.7z M342.4,945.8
	c0,9.7-7.8,17.5-17.5,17.5H163.9V569.7h160.9c9.7,0,17.5,7.8,17.5,17.5L342.4,945.8z M879.3,641.4h-89.2c-9.7,0-17.5,7.8-17.5,17.5
	c0,8.7,8.7,17.5,17.5,17.5h54.2c19.3,0,35,15.7,35,35s-15.7,35-35,35h-89.2c-9.7,0-17.5,7.8-17.5,17.5s7.8,17.5,17.5,17.5h54.2
	c19.3,0,35,15.7,35,35s-15.7,35-35,35h-89.2c-9.7,0-17.5,7.8-17.5,17.5c0,8.8,8.7,17.5,17.5,17.5h54.2c19.3,0,35,15.7,35,35
	s-15.7,35-35,35l0,0H582c-78.7,0-110.2-8.7-171.4-24.5c-8.8-1.8-19.2-5.2-29.7-7V594.2c129.4-31.5,286.8-106.7,286.8-239.6v-17.5
	c0-19.3,15.7-35,35-35s35,15.7,35,35l0,0l0,0c0,7,10.5,103.2-29.7,190.7h-59.5c-9.6,0-17.4,7.9-17.4,17.5c0,8.7,8.8,17.5,17.5,17.5
	h232.6c19.3,0,35,15.7,35,35C916,625.7,900.3,641.5,879.3,641.4L879.3,641.4z"/>
<path class="st0" d="M288.1,713.2c-9.7,0-17.5,7.8-17.5,17.5v143.4c0,9.7,7.8,17.5,17.5,17.5s17.5-7.8,17.5-17.5l0,0V730.7
	C307.4,720.2,298.6,713.2,288.1,713.2z"/>
<path class="st0" d="M557.5,307.4h-71.7c-9.7,0-17.5,7.8-17.5,17.5c0,8.8,8.7,17.5,17.5,17.5h71.7c9.7,0,17.5-7.8,17.5-17.5
	S567.2,307.3,557.5,307.4L557.5,307.4L557.5,307.4z"/>
<path class="st0" d="M916,307.4h-71.7c-9.7,0-17.5,7.8-17.5,17.5c0,8.8,8.8,17.5,17.5,17.5h71.7c9.7,0,17.5-7.8,17.5-17.5
	C933.5,316.1,924.8,307.4,916,307.4z"/>
<path class="st0" d="M865.3,162.2c-6.4-6.8-17.1-7-23.9-0.6c-0.2,0.2-0.4,0.4-0.6,0.6l-50.7,50.7c-6.6,6.9-6.4,17.9,0.5,24.5
	c6.7,6.5,17.3,6.5,24,0l50.7-50.7c6.8-6.4,7-17.1,0.6-23.9C865.7,162.6,865.5,162.4,865.3,162.2z"/>
<path class="st0" d="M611.7,211.2L561,160.4c-6.8-6.8-17.7-6.8-24.5,0c-6.8,6.8-6.8,17.7,0,24.5l50.7,50.7c6.4,6.8,17.2,7,23.9,0.6
	c0.2-0.2,0.4-0.4,0.6-0.6C618.7,230.4,618.7,218.2,611.7,211.2z"/>
</svg>
