<?xml version="1.0" encoding="utf-8"?>
<!-- Generator: Adobe Illustrator 24.1.0, SVG Export Plug-In . SVG Version: 6.00 Build 0)  -->
<svg version="1.1" id="Capa_1" xmlns="http://www.w3.org/2000/svg" xmlns:xlink="http://www.w3.org/1999/xlink" x="0px" y="0px"
	 viewBox="0 0 1080 1080" style="enable-background:new 0 0 1080 1080;" xml:space="preserve">
<style type="text/css">
	.st0{fill:#FFFFFF;}
</style>
<path class="st0" d="M967.6,394.9c-10.3-17.1-25.6-32.5-42.7-41c6.8-10.3,13.7-22.2,17.1-34.2c6.8-27.4,3.4-54.7-10.3-80.4
	c-13.7-23.9-35.9-41-63.2-49.6c-13.7-3.4-27.3-5.1-41-3.4c-13.7-39.3-46.2-70.1-87.2-82.1c-41-10.3-83.8,0-116.2,27.4
	c-10.3-8.6-23.9-13.7-35.9-17.1c-27.3-6.8-54.7-3.4-80.4,10.3c-23.9,13.7-41,35.9-49.6,63.3c-3.4,12-5.1,25.6-3.4,37.6
	c-39.3-1.7-75.2,17.1-95.7,49.6c-20.5-8.5-46.2-8.5-66.7,3.4h-1.7c-3.4-3.4-6.8-5.1-10.3-6.8c-34.2-20.5-78.6-8.5-99.1,25.6
	c-1.7,3.4-3.4,8.5-5.1,12h-3.4c-18.8,0-37.6,6.8-51.3,20.5s-22.2,30.8-22.2,51.3c0,27.4,13.7,53,37.6,65l66.7,35.9
	c-12,10.2-20.5,22.2-27.4,37.6c-13.7,30.8-13.7,66.7,1.7,95.7l54.7,111.1c3.4,8.5,15.4,12,22.2,8.5c8.5-3.4,12-15.4,8.5-22.2
	l-17.1-34.3l63.3-17.1c8.5-1.7,15.4-12,12-20.5c-1.7-8.5-12-15.4-20.5-12l-70.1,18.8l-22.2-46.2c-10.3-20.5-10.3-46.2-1.7-66.7
	c10.3-22.2,29.1-37.6,51.3-42.7l47.9-12c22.2-6.8,46.2-1.7,66.7,12c10.3,8.5,18.8,17.1,23.9,29.1L323.1,542
	c-8.5,1.7-15.4,12-12,20.5c1.7,6.8,8.5,12,17.1,12h5.1l73.5-18.8l10.3,147l-44.5,12c-8.5,1.7-15.4,12-12,20.5
	c1.7,6.8,8.5,12,17.1,12h5.2l37.6-10.3l3.4,53l-27.4,6.8c-8.5,1.7-15.4,12-12,20.5c1.7,6.8,8.5,12,17.1,12h5.1l20.5-5.3l5.1,90.6
	c1.7,13.7-8.5,27.4-22.2,30.8S383,942,376.1,930l-39.3-78.6c-3.4-8.5-15.4-12-22.2-8.5s-12,15.4-8.5,22.2l39.3,78.6
	c10.3,22.2,34.2,35.9,58.1,35.9c5.7,0.2,11.5-0.4,17.1-1.7c29.1-8.5,49.6-35.9,47.9-66.7l-23.9-365.8c-1.7-34.2-18.8-65-46.1-83.8
	c-13.7-8.5-27.4-15.4-42.7-18.8l23.9-37.6c12.8,12.9,28.7,22.3,46.2,27.4c8.5,1.7,17.1,3.4,25.6,3.4c13.7,13.8,30.8,23.8,49.6,29
	c10.3,3.4,22.2,3.4,32.5,3.4c1.7,32.5-3.4,66.7-12,97.4l-34.2,124.8c-3.4,12-1.7,25.6,5.1,35.9s17.1,18.8,29.1,22.2l85.5,22.2
	c3.4,1.7,8.5,1.7,12,1.7c20.5,0,41-13.7,46.2-35.9l34.2-128.2c8.5-30.8,20.5-61.5,37.6-88.9c9,6.9,19.5,11.6,30.7,13.7
	c18.8,5.1,39.3,5.1,56.4-1.7c8.5,5.1,15.4,8.5,23.9,10.3s18.8,3.4,27.3,3.4c47.7,0.1,89.3-32.4,100.9-78.6
	C984.7,447.9,981.3,420.6,967.6,394.9L967.6,394.9z M362.4,324.8c6.8,12.2,6.8,27.1,0,39.3l-51.3,80.4l0,0l5.1-102.6
	c0-10.5-1.8-20.9-5.1-30.8C329.1,301.1,351.8,307.2,362.4,324.8z M212,319.7c6.8-12,20.5-18.8,32.5-18.8c6.8,0,13.7,1.7,18.8,5.1
	c12,6.8,18.8,20.5,18.8,34.2l-6.8,112.8l0,0l-61.5-95.7C205.2,347.1,205.2,331.7,212,319.7L212,319.7z M155.6,420.6
	c-12-6.8-20.5-20.5-20.5-34.2c0-10.3,5.1-18.8,12-25.6s17.1-10.2,27.4-10.2c1.6,10.2,5.1,20.1,10.2,29.1l56.4,85.5h-1.7L155.6,420.6
	z M665,605.2l-8.5,30.8l-17.1-5.1c-8.5-1.7-18.8,3.4-20.5,12s3.4,18.8,12,20.5l17.1,5.1l-17.1,63.2c-1.7,6.8-8.5,12-17.1,8.5
	L528.3,718c-3.4-1.7-6.8-3.4-8.5-6.8s-1.7-6.8-1.7-10.2l5.1-22.2l30.8,8.5h5.1c6.8,0,15.4-5.1,17.1-12c1.7-8.5-3.4-18.8-12-20.5
	l-30.8-8.5l18.8-70.1c0-1.7,1.7-3.4,1.7-5.1l32.5,8.5h5.1c6.8,0,15.4-5.1,17.1-12c1.7-8.5-3.4-18.8-12-20.5l-34.2-8.5
	c3.4-25.6,5.1-49.6,3.4-75.2c11.5-4.8,21.9-11.8,30.8-20.5c8.5,8.3,18.3,15.3,29.1,20.5l-8.5,32.5c-1.7,8.5,3.4,18.8,12,20.5h5.1
	c6.8,0,15.4-5.1,17.1-12l8.5-32.5c12,1.7,23.9,0,35.9-3.4c3.3,11.9,9.1,23,17.1,32.5C690.7,533.4,675.3,569.3,665,605.2z
	 M945.4,466.7c-5.1,18.8-17.1,34.2-32.5,42.7c-23.6,13.4-52.9,12.1-75.2-3.4c-5.1-3.4-10.3-3.4-15.4-1.7
	c-14.2,5.4-29.6,6.6-44.5,3.4c-29.1-6.8-49.6-32.5-51.3-61.5c0-5.1-3.4-10.2-8.5-13.7c-5.2-3.4-11.9-3.4-17.1,0
	c-15.4,8.5-32.5,10.2-47.9,5.1c-17.1-5.1-30.8-15.4-39.3-29.1c-3.4-5.1-8.5-8.5-13.7-8.5s-12,1.7-15.4,6.8
	c-17.1,23.9-47.9,35.9-76.9,27.4c-15.4-3.4-27.4-12-37.6-23.9c-3.4-5.1-8.5-6.8-15.4-6.8c-8.5,0-15.4,0-23.9-1.7
	c-15.4-3.4-27.4-12-37.6-23.9c12-22.2,10.3-49.6-1.7-70.1c-1.7-1.7-3.4-5.1-5.1-6.8c15.4-29.1,47.9-42.7,80.3-34.2
	c1.7,0,3.4,1.7,5.1,1.7l0,0c6.7,1.8,13.9-0.1,18.8-5.1c5.1-5.1,6.8-12,3.4-18.8c-5.4-14.2-6.6-29.6-3.4-44.4
	c5.1-18.8,17.1-34.2,32.5-42.7c15.9-9.7,35.2-12.2,53-6.8c12.9,3.8,24.7,10.9,34.2,20.5c3.4,3.4,8.5,5.1,13.7,5.1s10.2-1.7,12-6.8
	c22.2-27.4,59.8-37.6,92.3-29.1c34.2,8.6,59.8,37.6,66.7,71.8c1.7,5.1,3.4,8.6,8.5,12c3.4,1.7,8.5,3.4,13.7,1.7
	c12-3.4,25.7-3.4,39.3,0c37.6,10.3,59.8,49.6,49.6,87.2c-3.4,15.4-12,27.4-25.6,37.6c-5.6,3.7-8.3,10.5-6.8,17.1
	c1.6,6.8,6.9,12,13.7,13.7l0,0c1.7,0,3.4,0,5.1,1.7C931.7,389.9,955.7,429.2,945.4,466.7L945.4,466.7z"/>
<path class="st0" d="M313,797.2c-6.1-5.8-15.7-5.6-21.5,0.5s-5.6,15.7,0.5,21.5s15.7,5.6,21.5-0.5c2.7-2.8,4.2-6.6,4.2-10.5
	C317.5,804.1,315.9,800.2,313,797.2z"/>
</svg>
