<svg id="Grupo_207" data-name="Grupo 207" xmlns="http://www.w3.org/2000/svg" width="18.159" height="18.37" viewBox="0 0 18.159 18.37">
  <path id="Trazado_471" data-name="Trazado 471" d="M21.155,3.961a.3.3,0,0,0-.016-.079c0-.01-.006-.019-.01-.029a.307.307,0,0,0-.061-.09L17.394.09A.3.3,0,0,0,17.3.028l-.028-.01A.3.3,0,0,0,17.2,0c-.005,0-.011,0-.017,0H7.994A1.533,1.533,0,0,0,6.463,1.531V3.784a5.805,5.805,0,0,0,0,10.624v2.431A1.533,1.533,0,0,0,7.994,18.37H19.628a1.532,1.532,0,0,0,1.531-1.531V3.98C21.159,3.973,21.155,3.968,21.155,3.961Zm-1.041-.287H17.791a.306.306,0,0,1-.306-.306V1.045ZM3.619,9.1a5.2,5.2,0,0,1,5.2-5.2c.174,0,.347.008.517.025a5.191,5.191,0,0,1,4.623,4.4,5.254,5.254,0,0,1,.064.779,5.2,5.2,0,0,1-10.409,0Zm8.761,4.6c.042-.032.083-.065.124-.1a5.158,5.158,0,0,0,.821-.821c.033-.041.065-.083.1-.125s.077-.094.113-.144l2.61,2.613a.911.911,0,0,1,0,1.3.933.933,0,0,1-1.3,0l-2.613-2.609C12.285,13.772,12.331,13.732,12.379,13.7Zm7.249,4.062H7.994a.919.919,0,0,1-.918-.918V14.647l.058.016c.049.015.1.027.148.041.115.031.23.061.346.084l.172.033c.117.021.234.037.352.05.053.006.1.013.158.018.17.015.34.024.513.024a5.779,5.779,0,0,0,2.884-.768l2.707,2.7a1.531,1.531,0,1,0,2.164-2.162L13.872,11.98A5.777,5.777,0,0,0,14.64,9.1q0-.291-.028-.577a5.816,5.816,0,0,0-5.789-5.24c-.172,0-.343.01-.513.024-.053,0-.105.012-.158.018q-.177.02-.351.05-.087.015-.174.033c-.115.024-.229.052-.343.083-.051.014-.1.026-.153.041l-.057.016V1.531A.919.919,0,0,1,7.993.612h8.879V3.368a.919.919,0,0,0,.918.918h2.755V16.839A.918.918,0,0,1,19.628,17.757Z" transform="translate(-3)" fill="#2e335e"/>
  <path id="Trazado_472" data-name="Trazado 472" d="M148.836,48.306A.306.306,0,0,0,148.53,48h-6.735a.306.306,0,0,0,0,.612h6.735A.306.306,0,0,0,148.836,48.306Z" transform="translate(-136.188 -46.163)" fill="#2e335e"/>
  <path id="Trazado_473" data-name="Trazado 473" d="M321.468,192h-3.674a.306.306,0,0,0,0,.612h3.674a.306.306,0,0,0,0-.612Z" transform="translate(-305.453 -184.652)" fill="#2e335e"/>
  <path id="Trazado_474" data-name="Trazado 474" d="M321.468,240h-3.674a.306.306,0,0,0,0,.612h3.674a.306.306,0,0,0,0-.612Z" transform="translate(-305.453 -230.815)" fill="#2e335e"/>
  <path id="Trazado_475" data-name="Trazado 475" d="M314.08,288.306a.306.306,0,0,0-.306-.306h-3.98a.306.306,0,0,0,0,.612h3.98A.306.306,0,0,0,314.08,288.306Z" transform="translate(-297.759 -276.978)" fill="#2e335e"/>
  <path id="Trazado_476" data-name="Trazado 476" d="M344.856,336.306a.306.306,0,0,0-.306-.306h-2.755a.306.306,0,0,0,0,.612h2.755A.306.306,0,0,0,344.856,336.306Z" transform="translate(-328.534 -323.141)" fill="#2e335e"/>
  <path id="Trazado_477" data-name="Trazado 477" d="M256.55,96.306a.306.306,0,0,0-.306-.306h-2.449a.306.306,0,1,0,0,.612h2.449A.306.306,0,0,0,256.55,96.306Z" transform="translate(-243.902 -92.326)" fill="#2e335e"/>
  <path id="Trazado_478" data-name="Trazado 478" d="M298.693,144.306a.306.306,0,0,0-.306-.306h-4.592a.306.306,0,1,0,0,.612h4.592A.306.306,0,0,0,298.693,144.306Z" transform="translate(-282.371 -138.489)" fill="#2e335e"/>
  <path id="Trazado_479" data-name="Trazado 479" d="M117.794,184.612h2.143a.306.306,0,1,0,0-.612h-2.143a.306.306,0,1,0,0,.612Z" transform="translate(-113.107 -176.958)" fill="#2e335e"/>
  <path id="Trazado_480" data-name="Trazado 480" d="M90.693,232.306a.306.306,0,0,0-.306-.306H85.794a.306.306,0,1,0,0,.612h4.592A.306.306,0,0,0,90.693,232.306Z" transform="translate(-82.331 -223.121)" fill="#2e335e"/>
  <path id="Trazado_481" data-name="Trazado 481" d="M119.937,280h-2.143a.306.306,0,1,0,0,.612h2.143a.306.306,0,1,0,0-.612Z" transform="translate(-113.107 -269.284)" fill="#2e335e"/>
  <path id="Trazado_482" data-name="Trazado 482" d="M41.924,126.345a4.49,4.49,0,0,0,1.786-1.732c.024-.042.051-.083.073-.126.012-.022.021-.045.032-.067.047-.089.092-.179.132-.27s.072-.178.1-.268c.009-.026.021-.051.031-.078a4.595,4.595,0,1,0-2.159,2.544Zm-4.087-.545a3.95,3.95,0,0,1-.906-.679,4.034,4.034,0,0,1-.5-.608q-.108-.162-.2-.333a3.98,3.98,0,1,1,7.014.018v0a3.913,3.913,0,0,1-1.608,1.607,3.969,3.969,0,0,1-3.8-.006Z" transform="translate(-33.921 -113.211)" fill="#2e335e"/>
  <path id="Trazado_483" data-name="Trazado 483" d="M383.631,384a.306.306,0,0,0-.306.306v1.225a.306.306,0,0,1-.306.306h-1.225a.306.306,0,1,0,0,.612h1.225a.918.918,0,0,0,.918-.918v-1.225A.306.306,0,0,0,383.631,384Z" transform="translate(-367.003 -369.304)" fill="#2e335e"/>
</svg>
