<svg id="Grupo_206" data-name="Grupo 206" xmlns="http://www.w3.org/2000/svg" width="18.369" height="18.37" viewBox="0 0 18.369 18.37">
  <path id="Trazado_463" data-name="Trazado 463" d="M192.359,452a.359.359,0,1,0,.254.105A.362.362,0,0,0,192.359,452Z" transform="translate(-185.111 -435.783)" fill="#2e335e"/>
  <path id="Trazado_464" data-name="Trazado 464" d="M17.986,4.891a1.309,1.309,0,0,0-1.849,0L14.495,6.533V1.22A1.221,1.221,0,0,0,13.275,0H1.22A1.221,1.221,0,0,0,0,1.22V17.15a1.221,1.221,0,0,0,1.22,1.22H13.275a1.221,1.221,0,0,0,1.22-1.22V10.232L17.986,6.74A1.309,1.309,0,0,0,17.986,4.891ZM13.777,1.22V7.251l-.718.718V1.794a.359.359,0,0,0-.359-.359H10.3V.718h2.972A.5.5,0,0,1,13.777,1.22Zm-1.959,9.839L12.3,9.971l.6.6ZM9.585.718V2.18a.4.4,0,0,1-.4.4H5.313a.4.4,0,0,1-.4-.4V.718Zm3.689,16.934H1.22a.5.5,0,0,1-.5-.5V1.22a.5.5,0,0,1,.5-.5H4.192v.718h-2.4a.359.359,0,0,0-.359.359V16.576a.359.359,0,0,0,.359.359H5.812a.359.359,0,1,0,0-.718H2.153V2.153H4.192V2.18A1.123,1.123,0,0,0,5.313,3.3H9.182A1.123,1.123,0,0,0,10.3,2.18V2.153h2.039V8.686l-.409.409a.363.363,0,0,0-.074.108l-1.077,2.419a.359.359,0,0,0,.474.474l1.086-.483v4.605H8.682a.359.359,0,0,0,0,.718H12.7a.359.359,0,0,0,.359-.359V11.292l.615-.274a.358.358,0,0,0,.1-.069v6.2A.5.5,0,0,1,13.275,17.652ZM16.142,7.57l-2.613,2.613-.835-.835L15.93,6.113l.835.835Zm1.337-1.337-.208.208-.834-.834.208-.208a.59.59,0,0,1,.835.834Z" fill="#2e335e"/>
  <path id="Trazado_465" data-name="Trazado 465" d="M90.655,120h-2.3a.359.359,0,0,0-.359.359v2.3a.359.359,0,0,0,.359.359h2.3a.359.359,0,0,0,.359-.359v-2.3A.359.359,0,0,0,90.655,120Zm-.359,2.3H88.718v-1.579H90.3Z" transform="translate(-84.843 -115.695)" fill="#2e335e"/>
  <path id="Trazado_466" data-name="Trazado 466" d="M90.655,230h-2.3a.359.359,0,0,0-.359.359v2.3a.359.359,0,0,0,.359.359h2.3a.359.359,0,0,0,.359-.359v-2.3A.359.359,0,0,0,90.655,230Zm-.359,2.3H88.718v-1.579H90.3Z" transform="translate(-84.843 -221.748)" fill="#2e335e"/>
  <path id="Trazado_467" data-name="Trazado 467" d="M90.655,340h-2.3a.359.359,0,0,0-.359.359v2.3a.359.359,0,0,0,.359.359h2.3a.359.359,0,0,0,.359-.359v-2.3A.359.359,0,0,0,90.655,340Zm-.359,2.3H88.718v-1.579H90.3Z" transform="translate(-84.843 -327.801)" fill="#2e335e"/>
  <path id="Trazado_468" data-name="Trazado 468" d="M209.3,131.658a.359.359,0,0,0,.507,0l1.62-1.62a.359.359,0,1,0-.507-.507l-1.366,1.366-.544-.544a.359.359,0,1,0-.508.507Z" transform="translate(-200.924 -124.782)" fill="#2e335e"/>
  <path id="Trazado_469" data-name="Trazado 469" d="M209.3,241.661a.359.359,0,0,0,.507,0l1.62-1.62a.359.359,0,1,0-.507-.507l-1.366,1.366-.544-.544a.359.359,0,0,0-.508.507Z" transform="translate(-200.924 -230.838)" fill="#2e335e"/>
  <path id="Trazado_470" data-name="Trazado 470" d="M220.7,351.1l.556.556a.359.359,0,0,0,.507-.507l-.556-.556.556-.556a.359.359,0,0,0-.507-.507l-.556.556-.556-.556a.359.359,0,0,0-.507.507l.556.556-.556.556a.359.359,0,0,0,.507.507Z" transform="translate(-211.65 -336.889)" fill="#2e335e"/>
</svg>
