<svg id="Grupo_209" data-name="Grupo 209" xmlns="http://www.w3.org/2000/svg" width="22.174" height="22.174" viewBox="0 0 22.174 22.174">
  <g id="Grupo_208" data-name="Grupo 208" transform="translate(0)">
    <path id="Trazado_484" data-name="Trazado 484" d="M180.184,391.473a1.819,1.819,0,1,1-1.819,1.819,1.821,1.821,0,0,1,1.819-1.819Zm0,2.772a.953.953,0,1,0-.953-.953A.954.954,0,0,0,180.184,394.245Z" transform="translate(-167.554 -374.519)" fill="#2e335e"/>
    <path id="Trazado_485" data-name="Trazado 485" d="M88.979,444a1.473,1.473,0,1,1-1.473,1.473A1.474,1.474,0,0,1,88.979,444Zm0,2.079a.606.606,0,1,0-.606-.606A.607.607,0,0,0,88.979,446.079Z" transform="translate(-72.067 -424.771)" fill="#2e335e"/>
    <path id="Trazado_486" data-name="Trazado 486" d="M.135,1.964,1.972.127a.433.433,0,0,1,.612,0L5.445,2.988A4.727,4.727,0,0,1,8.77,2.432a4.743,4.743,0,0,1,7.943-.527,4.743,4.743,0,0,1,3.6,8.464,4.782,4.782,0,0,1-.417,3.331.433.433,0,0,1-.766-.4,3.906,3.906,0,0,0,.271-2.975.433.433,0,0,1,.175-.492,3.877,3.877,0,0,0-2.961-7.024.433.433,0,0,1-.455-.185,3.877,3.877,0,0,0-6.762.5.433.433,0,0,1-.51.235,3.862,3.862,0,0,0-2.8.276L8.746,6.289a.434.434,0,0,1,.09.132L10.279,9.7a.433.433,0,0,1-.571.571L6.428,8.829a.434.434,0,0,1-.132-.09L4.012,6.455A3.853,3.853,0,0,0,5.832,10.4a.433.433,0,0,1,.2.442,3.877,3.877,0,0,0,6.449,3.494.433.433,0,0,1,.587,0,3.9,3.9,0,0,0,3.29.968.433.433,0,1,1,.148.853,4.7,4.7,0,0,1-.8.069,4.783,4.783,0,0,1-2.93-1,4.744,4.744,0,0,1-7.636-4.237,4.742,4.742,0,0,1-1.85-5.251L.135,2.577a.433.433,0,0,1,0-.612ZM8.3,7.349l-.942.942,1.681.739ZM6.6,7.82,7.828,6.595,2.278,1.046,1.053,2.271Z" transform="translate(-0.008)" fill="#2e335e"/>
    <path id="Trazado_487" data-name="Trazado 487" d="M120.419,262.866h-8.479a.433.433,0,1,1,0-.866h8.479a.433.433,0,1,1,0,.866Z" transform="translate(-103.507 -250.653)" fill="#2e335e"/>
    <path id="Trazado_488" data-name="Trazado 488" d="M114.962,198.857h-3.022a.433.433,0,0,1,0-.866h3.022a.433.433,0,0,1,0,.866Z" transform="translate(-98.05 -189.416)" fill="#2e335e"/>
    <path id="Trazado_489" data-name="Trazado 489" d="M112.378,134.862h-.439a.433.433,0,1,1,0-.866h.439a.433.433,0,0,1,0,.866Z" transform="translate(-95.466 -128.193)" fill="#2e335e"/>
    <path id="Trazado_490" data-name="Trazado 490" d="M178.072,134.862a.433.433,0,1,1,0-.866h2.484a.433.433,0,0,1,0,.866Z" transform="translate(-166.509 -128.193)" fill="#2e335e"/>
    <path id="Trazado_491" data-name="Trazado 491" d="M81.359,336.4a.433.433,0,1,1,.306.127A.436.436,0,0,1,81.359,336.4Z" transform="translate(-63.442 -321.123)" fill="#2e335e"/>
  </g>
</svg>
