<svg xmlns="http://www.w3.org/2000/svg" width="30.567" height="42.835" viewBox="0 0 30.567 42.835">
  <g id="Grupo_688" data-name="Grupo 688" transform="translate(0.188 0.19)">
    <path id="Trazado_1303" data-name="Trazado 1303" d="M178.242,141.522l-2.371,1.2.155-2.751a8.324,8.324,0,0,1,2.64-5.692l.785-.707a1.033,1.033,0,0,1,1.263-.094l1.477,1.031a1.086,1.086,0,0,1,.4,1.256l-.323,1.029a8.364,8.364,0,0,1-4.026,4.724m5.935-5.2a2.91,2.91,0,0,0-1.029-3.3l-1.476-1.031a2.584,2.584,0,0,0-3.311.27l-.786.707a10.389,10.389,0,0,0-3.21,6.9l-.221,4.1a.939.939,0,0,0,.4.837.852.852,0,0,0,.893.065l3.544-1.781a9.817,9.817,0,0,0,4.872-5.737Z" transform="translate(-171.617 -102.496)" fill="#f7b919" stroke="#f7b919" stroke-miterlimit="10" stroke-width="0.349"/>
    <path id="Trazado_1304" data-name="Trazado 1304" d="M185.515,130.07a2.424,2.424,0,0,1-3.466.72,2.671,2.671,0,0,1-.689-3.62,2.423,2.423,0,0,1,3.465-.72,2.711,2.711,0,0,1,.69,3.62m-5.54-3.867a4.5,4.5,0,0,0,1.148,6.033,4.084,4.084,0,0,0,5.776-1.2A4.5,4.5,0,0,0,185.751,125a4.083,4.083,0,0,0-5.775,1.2" transform="translate(-161.771 -116.344)" fill="#f7b919" stroke="#f7b919" stroke-miterlimit="10" stroke-width="0.349"/>
    <path id="Trazado_1305" data-name="Trazado 1305" d="M193.846,151.416a37.67,37.67,0,0,0,4.4-6.14,14.737,14.737,0,0,1-.81,8.573l-.849,2.058Zm-3.3.977c-.062.1-.185.08-.276.016l-2.647-2.127a36.646,36.646,0,0,0-4.108-2.868l-3.031-1.837a.206.206,0,0,1-.092-.273l.031-.049a36.794,36.794,0,0,1,19.839-21.308l1.587-.705-.018,2.219a37.246,37.246,0,0,1-11.285,26.932m-15.539-11.616,1.495-1.608a13.449,13.449,0,0,1,7.319-4.029A43.356,43.356,0,0,0,180,141.748Zm23.944,13.717a16.823,16.823,0,0,0,.427-11.421,39.1,39.1,0,0,0,4.1-17.578l-.028-2.252a1.731,1.731,0,0,0-.708-1.4,1.505,1.505,0,0,0-1.508-.146l-1.664.722a36.9,36.9,0,0,0-14.27,10.826,14.934,14.934,0,0,0-10.029,4.718l-1.526,1.655a1.772,1.772,0,0,0-.387,1.753,1.567,1.567,0,0,0,.6.837,1.666,1.666,0,0,0,.693.274l4.618.923c-.154.45-.355.868-.509,1.318l-.016.129a2,2,0,0,0,.783,2.221l.091.064,3.032,1.837a33.306,33.306,0,0,1,3.923,2.739l2.647,2.127a1.845,1.845,0,0,0,2.417-.127,11.687,11.687,0,0,0,.971-1l2.582,4.1a1.755,1.755,0,0,0,.507.564,1.465,1.465,0,0,0,.97.259,1.651,1.651,0,0,0,1.4-1.045Z" transform="translate(-173.276 -121.559)" fill="#f7b919" stroke="#f7b919" stroke-miterlimit="10" stroke-width="0.349"/>
  </g>
</svg>
