<?xml version="1.0" encoding="utf-8"?>
<!-- Generator: Adobe Illustrator 24.1.0, SVG Export Plug-In . SVG Version: 6.00 Build 0)  -->
<svg version="1.1" id="Capa_1" xmlns="http://www.w3.org/2000/svg" xmlns:xlink="http://www.w3.org/1999/xlink" x="0px" y="0px"
	 viewBox="0 0 1080 1080" style="enable-background:new 0 0 1080 1080;" xml:space="preserve">
<style type="text/css">
	.st0{fill:#FFFFFF;}
</style>
<path class="st0" d="M912.4,287.6c-7.5-1-14.3,4.2-15.3,11.7l-0.1,1c-4.8,35.5-6.9,51.7-21.3,67.7c-4.4,5.1-8.1,10.8-11,16.8
	c-0.1,0.1-0.2,0.3-0.2,0.4c-3.9,7.9-7.3,16.1-10.1,24.5l-2.7-0.7c-11.5-3-18.9-14.2-17-26c7.8-50,9.7-112.6-26.2-126.9
	c-19.1-7.6-34.9-18.1-50.2-28.3c-18-12-36.5-24.3-60.2-31.9c-13.8-4.4-39.6,7.7-57.2,35.1c-3.6,5.6-7.6,10.9-12,15.9
	c-4.8-10.2-10.6-19.9-17.4-29c-7.8-10.5-16.9-19.9-27.2-27.9c15-22.9,42.3-51.1,84.4-47.4c4.9,0.4,9.7-1.8,12.4-5.9
	c24-35.3,69.5-37.6,86.6-33.2l1.4,0.3c23,5.9,65.7,16.8,82.9,59.6c5.5,14.1,12.9,27.3,22,39.3c7.9,10.2,18.4,26.2,23.5,44.2
	c1.7,5.9,7,9.9,13.1,9.9c7.5,0,13.6-6.1,13.6-13.6c0-1.3-0.2-2.5-0.5-3.7c-6.3-22.2-18.8-41.3-28.2-53.5
	c-7.6-10-13.7-21.1-18.3-32.8c-22.3-55.6-77.7-69.8-101.4-75.8l-1.3-0.3c-22.8-5.8-78.1-3.6-111.3,38c-40-0.6-76.2,20.9-101.9,60.3
	c-26.2-13.6-57.8-20.4-94.5-20.4c-75.2,0-128.8,27.1-159.3,80.4c-3.7,6.5-1.5,14.9,5.1,18.6c6.5,3.7,14.9,1.5,18.6-5.1
	C357,204,401.3,182.1,467,182.1c55.6,0,97,17.5,123,52.1c9,12.2,16.2,25.8,21.2,40.1c0.2,1,0.6,1.9,1,2.8
	c27.6,80.3,7.2,194.3-13.6,272.7c-0.7-35.9-2.6-67.2-5.8-93.4c-5.9-48.9-15.7-77.4-30.8-89.6c-39.2-31.7-83.7-88.4-84.1-88.9
	c-3.2-4.1-8.5-6-13.6-4.9c-3.3,0.7-81.4,18.4-109.9,105.6c-11.3,34.6-15.1,101.9-16,162.9c0,0.2,0,0.3,0,0.5
	c-0.1,4.7-0.1,9.4-0.2,14c-20-68.5-43.2-175.2-25.3-257c1.6-7.4-3-14.6-10.4-16.2c-7.4-1.6-14.6,3-16.2,10.4
	c-21.5,98,11.5,226.6,33,294.4c2.9,9.8,12,16.5,22.2,16.5c1.3,0,2.6-0.1,3.9-0.3c11.6-1.6,20.2-11.7,20-23.4c0-1,0-2,0-3
	c10.9,9.7,23.1,17.8,36.3,24.1v5.6l-56.2,15.2c-7.3,2-11.6,9.4-9.6,16.7c0.2,0.7,0.4,1.3,0.7,1.9l2.8,6.4c-8.2,4.1-16,8.8-23.5,14
	c-6.8-7-16-13-28.4-17.5c-51.3-18.3-107.8,8.4-126.1,59.7s8.4,107.8,59.7,126.1c4,1.4,8.1,2.6,12.2,3.4v55.6
	c0,7.5,6.1,13.6,13.6,13.6c7.5,0,13.6-6.1,13.6-13.6V833c9.7-2.4,18.7-7.1,26.1-13.9c13.5-12,24.5-30.6,34.5-58.5
	c5.1-14.4,16.9-47.3,8.5-75.7c6.6-4.7,13.5-9,20.7-12.7l30.4,69.5c3,6.9,11,10.1,17.9,7c0.2-0.1,0.4-0.2,0.6-0.3l65.2-32.1
	l65.2,32.1c6.8,3.3,14.9,0.6,18.3-6.2c0.1-0.2,0.2-0.4,0.3-0.6l29.1-66.5c52,29.4,84.2,84.5,84.3,144.2v21.8h-71.1
	c-45.1-0.2-81.8,36.1-82,81.2c-0.1,20.6,7.6,40.5,21.6,55.7H260.4v-31.2c0-7.5-6.1-13.6-13.6-13.6c-7.5,0-13.6,6.1-13.6,13.6
	c0,0,0,0,0,0v44.8c0,7.5,6.1,13.6,13.6,13.6c0,0,0,0,0,0h626.9c7.5,0,13.6-6.1,13.6-13.6l0,0V696c0.2-61.2-28.9-118.9-78.3-155
	c16.1-17,28.3-37.4,35.6-59.7l11.3,2.9c22.5,5.8,45.4-7.7,51.2-30.2c0-0.1,0-0.1,0-0.2l6.2-24.2c4.3-16.8-2.2-34.6-16.4-44.7
	c19-21.9,22.1-44.3,27-81.1l0.1-1C925.1,295.5,919.8,288.6,912.4,287.6z M295.3,751.5c-8.3,23.1-17,38.6-26.9,47.2
	c-6.4,5.7-13.3,8.5-21.3,8.5h-0.4c-0.2,0-0.4,0-0.5,0c-5.5-0.2-11-1.3-16.1-3.2c-37.4-12.6-57.4-53.2-44.8-90.5
	c12.6-37.4,53.2-57.4,90.5-44.8c0.8,0.3,1.5,0.5,2.2,0.8C299.6,677.2,316.5,692.4,295.3,751.5z M378,552c-4.5-4.5-8.7-9.4-12.5-14.6
	c1.2-72.3,6.3-125,14.6-150.4c18.9-57.8,63.7-78.8,81.9-85.1c13.7,16.9,49.3,59.1,82.7,86.1c11.2,9,23.1,52.4,26.1,146.1
	c-14.9,21.9-36.4,38.5-61.4,47.4c-0.2,0.1-0.5,0.2-0.7,0.2C463,597.8,412.2,586.2,378,552z M399.8,717.7l-32-73.3l33.7-9.1v16.7
	c0,20.6,10.1,39.8,27,51.5L399.8,717.7z M499.7,652.1c-0.3,19.6-16.5,35.2-36,34.9c-19.1-0.3-34.5-15.7-34.9-34.9v-40.7
	c23.2,5.9,47.5,6.4,70.9,1.3V652.1z M528.7,717.7L500,703.6c16.9-11.7,27-30.9,27-51.5v-16.7l33.8,9.1L528.7,717.7z M860,925.1
	c-0.1,29.2-23.8,52.8-53,52.9H591.6c-30.2,0-55.4-24-56.1-53.5c-0.7-30.2,23.2-55.4,53.4-56.1c0.4,0,0.9,0,1.3,0h120.6
	c21.9,0,39.7-17.8,39.7-39.8V709.7c0-30.3,24-55.5,53.5-56.2c30.3-0.7,55.3,23.3,56,53.6c0,0.3,0,0.7,0,1L860,925.1L860,925.1z
	 M850.2,639.7c-13.9-9.1-30.2-13.8-46.8-13.4c-44.2,1-80.1,38.4-80.1,83.4v118.9c0,6.9-5.6,12.5-12.5,12.5h-22.2v-21.8
	c-0.1-70.6-38.7-135.5-100.6-169.3l4-9.2c3-6.9-0.1-14.9-7-17.9c-0.6-0.3-1.3-0.5-1.9-0.7l-56.1-15.1V604c16.4-7,31.5-16.8,44.5-29
	v0.8c0.1,13,10.7,23.6,23.7,23.5c10.4,0,19.6-6.9,22.6-17c0.7-2.5,1.5-5.1,2.2-7.7c49,24.5,107,22.4,154.1-5.6
	c4.9-2.9,9.6-6.1,14.2-9.4C816.8,579.1,838.5,607.1,850.2,639.7L850.2,639.7z M821.5,463.6c-18.3,71.6-91.2,114.8-162.8,96.5
	c-11-2.8-21.6-7-31.5-12.5c20.1-79.1,38-188.9,12.7-272.4c9.1-8.9,17.1-18.8,24.1-29.4c11.2-17.4,23.6-22.6,27.4-23.4
	c19.4,6.5,35.2,17,51.9,28.1c16.4,10.9,33.4,22.2,55.1,30.9c11.5,4.6,18.9,36.5,9.3,97.4c-3.2,19.8,5.7,39.5,22.5,50.3L821.5,463.6z
	 M886.9,423l-6.2,24.2c-2,7.9-10.1,12.7-18,10.7c0,0,0,0,0,0l-10.9-2.8l4.6-17.9c10.7-0.7,19.9-7.6,23.5-17.7c1.3-3.7,2.5-7,3.7-10
	C886.9,413.1,888.1,418.2,886.9,423z"/>
<circle class="st0" cx="464.2" cy="784.8" r="13.6"/>
<circle class="st0" cx="464.2" cy="841" r="13.6"/>
<circle class="st0" cx="464.2" cy="897.8" r="13.6"/>
</svg>
