<?xml version="1.0" encoding="utf-8"?>
<!-- Generator: Adobe Illustrator 24.1.0, SVG Export Plug-In . SVG Version: 6.00 Build 0)  -->
<svg version="1.1" id="Capa_1" xmlns="http://www.w3.org/2000/svg" xmlns:xlink="http://www.w3.org/1999/xlink" x="0px" y="0px"
	 viewBox="0 0 1080 1080" style="enable-background:new 0 0 1080 1080;" xml:space="preserve">
<style type="text/css">
	.st0{fill:#FFFFFF;stroke:#FFFFFF;stroke-width:5;stroke-miterlimit:10;}
</style>
<path class="st0" d="M726.8,685.1c0-20.2-9.5-38.1-22.6-48.8c14.3-11.9,22.6-28.5,22.6-48.8c0-21.4-10.7-39.2-26.2-51.2
	c15.5-13.1,25-32.1,25-54.7V350.9l-120.1-163h26.1V91.5H444.8v96.4h28.5L350.9,352v130.9c0,21.4,10.7,41.6,26.2,54.7
	c-15.5,10.7-25,29.7-25,51.2c0,20.2,9.5,38.1,23.8,48.8c-14.3,11.9-22.6,28.5-22.6,48.8c0,21.4,9.5,39.2,25,51.2
	c-15.5,13.1-26.2,32.1-26.2,54.7V904c0,38.1,30.9,70.2,67.8,70.2h67.8V973c11.1,9.9,25.5,15.4,40.4,15.5h27.4
	c14.9,0,29.3-5.5,40.5-15.5v1.2h67.8c36.9,0,65.4-32.1,65.4-70.2V792.2c0-21-9.1-41-25-54.7C717.2,724.4,726.8,706.5,726.8,685.1z
	 M471,161.7v-44h136.8v44H471z M505.5,187.9h67.8l115.4,155.8H390.1L505.5,187.9z M667.3,650.6c19,0,34.5,16.7,34.5,35.7
	c0,20.2-15.5,35.7-34.5,35.7H634v26.2h27.4c22.6,0,40.4,17.8,40.4,41.6v111.8c0,23.8-17.8,44-40.4,44h-47.6c3.6-10.7,6-19,6-29.7
	h-25c0,23.8-19,44-41.6,44h-27.4c-22.6,0-41.6-20.2-41.6-44h-25c0,10.7,2.4,19,6,29.7h-47.6c-22.6,0-41.6-20.2-41.6-44V789.8
	c-0.1-22.9,18.3-41.5,41.1-41.6c0.2,0,0.3,0,0.5,0h134.4V722H410.3c-19,0-34.5-16.7-34.5-35.7c0-20.2,15.5-35.7,34.5-35.7h141.6
	v-26.2H410.3c-19,0-34.5-16.7-34.5-35.7c0-20.2,15.5-35.7,34.5-35.7h141.6v-26.2H417.5c-22.6,0-41.6-20.2-41.6-44V371.1h324.8v111.8
	c0,23.8-17.8,44-40.4,44h-27.4v26.2h33.3c19,0,34.5,16.7,34.5,35.7c0,20.2-15.5,35.7-34.5,35.7h-33.3v26.2L667.3,650.6z"/>
<rect x="444.8" y="287.8" class="st0" width="27.4" height="26.2"/>
<rect x="472.2" y="259.3" class="st0" width="27.4" height="26.2"/>
<rect x="580.5" y="624.5" class="st0" width="27.4" height="26.2"/>
<rect x="580.5" y="525.7" class="st0" width="27.4" height="26.2"/>
<rect x="580.5" y="722" class="st0" width="27.4" height="26.2"/>
</svg>
