<?xml version="1.0" encoding="utf-8"?>
<!-- Generator: Adobe Illustrator 24.1.0, SVG Export Plug-In . SVG Version: 6.00 Build 0)  -->
<svg version="1.1" id="Capa_1" xmlns="http://www.w3.org/2000/svg" xmlns:xlink="http://www.w3.org/1999/xlink" x="0px" y="0px"
	 viewBox="0 0 1080 1080" style="enable-background:new 0 0 1080 1080;" xml:space="preserve">
<style type="text/css">
	.st0{fill:#FFFFFF;stroke:#FFFFFF;stroke-width:6;stroke-miterlimit:10;}
</style>
<path class="st0" d="M835.2,517.4c0-9.6-7.8-17.4-17.4-17.4c-9.6,0-17.3,7.8-17.4,17.4c-0.1,57.5-46.7,104.1-104.2,104.2
	c-9.6-0.2-17.6,7.4-17.8,16.9s7.4,17.6,16.9,17.8c0.3,0,0.6,0,0.8,0C772.9,656.3,835.2,594,835.2,517.4z"/>
<path class="st0" d="M473.4,686.7c-9.2,13.8-89.7,136.8-89.7,188.5c0,59.3,47.7,109.4,104.2,109.4s104.2-50.1,104.2-109.4
	c0-51.7-80.5-174.6-89.7-188.5c-5.3-8-16.1-10.2-24.1-4.9C476.4,683.1,474.7,684.8,473.4,686.7L473.4,686.7z M557.4,875.2
	c0,39.8-32.5,74.7-69.5,74.7s-69.5-34.8-69.5-74.7c0-26.8,38.1-96.6,69.5-146.8C519.2,778.6,557.4,848.4,557.4,875.2L557.4,875.2z"
	/>
<path class="st0" d="M296.9,383.7c-5.7,0-11,2.8-14.3,7.5c-11,15.9-107.3,157.1-107.3,218.3c-0.6,67.1,53.3,122.1,120.5,122.7
	c67.1,0.6,122.1-53.3,122.7-120.5c0-0.7,0-1.5,0-2.2c0-61.2-96.3-202.4-107.3-218.3C307.9,386.5,302.6,383.7,296.9,383.7z
	 M296.9,696.3c-48,0-86.8-38.9-86.9-86.8c0-33.6,48.6-118.9,86.8-177.2c38.3,58.4,86.8,143.6,86.8,177.2
	C383.6,657.4,344.8,696.2,296.9,696.3L296.9,696.3z"/>
<path class="st0" d="M522.6,500.1c0,9.6-7.8,17.4-17.4,17.4s-17.4-7.8-17.4-17.4c0-9.6,7.8-17.4,17.4-17.4c0,0,0,0,0,0
	C514.9,482.7,522.6,490.5,522.6,500.1C522.6,500.1,522.6,500.1,522.6,500.1z"/>
<path class="st0" d="M710.9,103.4c-5.2-8.1-15.9-10.4-24-5.3c-2.1,1.4-3.9,3.2-5.3,5.3c-5,7.8-123,193.3-172.3,324.1
	c-3.2,9,1.6,19,10.6,22.2c8.8,3.1,18.4-1.3,21.9-9.9c38-100.8,120.9-239.6,154.5-294.2c59.4,96,173.7,296.4,173.7,371.9
	c0,95.8-77.9,173.7-173.7,173.7c-77.6,0-146.3-52.1-167.3-126.6c-2.6-9.2-12.2-14.6-21.4-12c-9.2,2.6-14.6,12.2-12,21.4l0,0
	c25.1,89.5,107.6,152,200.7,152c114.9,0,208.4-93.5,208.4-208.4C904.7,421.7,760.5,180.9,710.9,103.4z"/>
</svg>
