<?xml version="1.0" encoding="utf-8"?>
<!-- Generator: Adobe Illustrator 24.1.0, SVG Export Plug-In . SVG Version: 6.00 Build 0)  -->
<svg version="1.1" id="Capa_1" xmlns="http://www.w3.org/2000/svg" xmlns:xlink="http://www.w3.org/1999/xlink" x="0px" y="0px"
	 viewBox="0 0 1080 1080" style="enable-background:new 0 0 1080 1080;" xml:space="preserve">
<style type="text/css">
	.st0{fill:#FFFFFF;stroke:#FFFFFF;stroke-width:8;stroke-miterlimit:10;}
</style>
<path class="st0" d="M724.5,331.9c46.5-33.1,67.5-91.6,52.8-146.7c-1.3-5-5.2-8.9-10.2-10.2c-62.7-16.8-128.6,12.8-157.6,70.9
	c-29.1-58-95-87.6-157.7-70.9c-5,1.3-8.9,5.2-10.2,10.2c-14.8,55.1,6.2,113.6,52.7,146.7c-15.5,6.4-30.4,14.1-44.5,23
	c-6.8,4.3-8.8,13.2-4.5,19.9s13.2,8.8,19.9,4.5c43.2-27.2,93.3-41.6,144.3-41.5c149.7,0,271.5,121.8,271.5,271.5
	S759,880.8,609.3,880.8c-3.6,0-7.2-0.1-10.7-0.2c101.2-48.3,171.5-151.7,172.2-271.2c0-0.1,0-0.2,0-0.3l0,0l0,0l0,0l0,0l0,0l0,0l0,0
	l0,0l0,0l0,0l0,0l0,0l0,0v-0.1l0,0l0,0l0,0l0,0l0,0l0,0l0,0l0,0l0,0l0,0l0,0l0,0l0,0v-0.1c-0.2-7.2-5.7-13.2-12.9-14
	c-0.6-0.1-1.2-0.1-1.8-0.1H338.2c2.5-45.4,16.3-89.4,40.2-128c4.2-6.8,2.1-15.7-4.7-19.9c-6.8-4.2-15.7-2.1-19.9,4.6
	c-26.7,43.1-42.1,92.2-44.6,142.8H184.7c-8,0-14.4,6.5-14.4,14.4c-0.4,165.8,133.7,300.6,299.5,301c0,0,0.1,0,0.1,0h0.3
	c23.3,0,46.6-2.8,69.2-8.2l0.6,0.2c22.7,5.3,45.9,8,69.3,8c165.6,0,300.4-134.8,300.4-300.4C909.7,484.4,833.1,377.1,724.5,331.9
	L724.5,331.9z M655.3,230.7c25.1-25,60.9-36.2,95.8-29.8c6.4,34.9-4.8,70.7-29.8,95.9c-9.6,9.6-20.8,17.3-33.2,22.6
	c-9.4-2.6-19-4.7-28.7-6.3l25.8-25.9c5.8-5.5,6-14.7,0.5-20.4c-5.5-5.8-14.7-6-20.4-0.5c-0.2,0.2-0.3,0.3-0.5,0.5l-41.1,41.1
	c0-0.2,0-0.4,0-0.6v-0.4C623.8,278.3,635.2,250.9,655.3,230.7L655.3,230.7z M497.3,296.7c-25-25.1-36.2-60.9-29.8-95.9
	c58.6-10.8,114.8,27.9,125.6,86.5c1.2,6.2,1.8,12.6,1.8,18.9c0,0.4,0,0.8,0,1.1v0.5l-41.1-41.1c-5.6-5.6-14.8-5.6-20.4,0
	s-5.6,14.8,0,20.4l25.8,25.8c-9.7,1.6-19.3,3.7-28.8,6.3C518,314,506.8,306.3,497.3,296.7L497.3,296.7z M456.1,809.2
	c-43.2-2.9-84.2-19.9-116.8-48.4l116.8-117.1V809.2z M485,643.7l116.5,116.8c-32.6,28.4-73.4,45.5-116.5,48.7V643.7z M621.9,740
	L505.4,623.2h165C667.3,666.3,650.3,707.3,621.9,740z M435.8,623.2L318.9,740.3c-28.4-32.7-45.4-73.9-48.3-117.1H435.8z
	 M470.2,880.8H470c-144.3-0.3-263.2-113.5-270.5-257.6h42.2C249,744,349,838.3,470.1,838.6h0.6c121.4-0.3,221.1-95.6,228.6-215.4
	h42.1C733.5,766.4,614.6,880.7,470.2,880.8L470.2,880.8z"/>
<path class="st0" d="M412.2,419.4c8,0,14.4-6.5,14.4-14.4c0-8-6.5-14.4-14.4-14.4c-8,0-14.4,6.5-14.4,14.4c0,3.8,1.5,7.5,4.2,10.2
	C404.7,417.9,408.4,419.4,412.2,419.4z"/>
</svg>
