<?xml version="1.0" encoding="utf-8"?>
<!-- Generator: Adobe Illustrator 24.1.0, SVG Export Plug-In . SVG Version: 6.00 Build 0)  -->
<svg version="1.1" id="Capa_1" xmlns="http://www.w3.org/2000/svg" xmlns:xlink="http://www.w3.org/1999/xlink" x="0px" y="0px"
	 viewBox="0 0 1080 1080" style="enable-background:new 0 0 1080 1080;" xml:space="preserve">
<style type="text/css">
	.st0{fill:#FFFFFF;}
</style>
<path class="st0" d="M659.8,874.8l18.6-30.2c9.3-14,27.9-18.6,41.9-11.6c7,4.7,11.6,9.3,14,16.3l11.6,32.6l44.2-14l-11.6-32.6
	c-14-39.6-58.2-62.8-97.8-48.9c-18.6,7-32.6,18.6-41.9,32.6l-18.6,30.2c-28,46.6-90.8,62.9-137.3,34.9
	c-13.8-9.2-25.7-21.1-34.9-34.9L429.5,819c-20.9-37.2-69.8-48.9-107-25.6c-16.3,9.3-27.9,23.3-32.6,41.9l-11.6,32.6l44.2,14
	l11.6-32.6c4.7-15.5,21-24.3,36.6-19.7c1,0.3,2,0.7,3,1.1c7,2.3,14,7,16.3,14l18.6,30.2c41.9,69.8,132.6,93.1,200.1,51.2
	C631.9,912.1,648.2,895.8,659.8,874.8z"/>
<path class="st0" d="M375.9,642.1c9.3-2.3,18.6-9.3,20.9-18.6l55.9-372.4c7-46.6,51.2-79.1,95.4-72.1c37.2,4.7,65.2,34.9,72.2,72.1
	l55.8,372.4c2.3,9.3,9.3,18.6,21,18.6c81.5,9.3,137.3,83.8,128,165.2c0,4.7-2.3,9.3-2.3,14l-7,25.6l46.5,9.3l7-25.6
	c23.3-104.7-41.9-207.1-146.6-230.4l0,0l-53.6-356.1c-11.6-72.1-76.8-121-148.9-109.4c-58.2,9.3-102.4,53.5-109.4,109.4l-53.5,356.1
	c-104.7,23.3-169.9,125.7-146.6,230.4l0,0l7,25.6l46.5-9.3l-7-25.6c-18.6-79.1,32.6-158.2,111.8-176.9
	C366.7,644.5,371.3,644.5,375.9,642.1L375.9,642.1z"/>
</svg>
