<?xml version="1.0" encoding="utf-8"?>
<!-- Generator: Adobe Illustrator 24.1.0, SVG Export Plug-In . SVG Version: 6.00 Build 0)  -->
<svg version="1.1" id="Capa_1" xmlns="http://www.w3.org/2000/svg" xmlns:xlink="http://www.w3.org/1999/xlink" x="0px" y="0px"
	 viewBox="0 0 1080 1080" style="enable-background:new 0 0 1080 1080;" xml:space="preserve">
<style type="text/css">
	.st0{fill:#FFFFFF;stroke:#FFFFFF;stroke-width:3;stroke-miterlimit:10;}
</style>
<path class="st0" d="M370.2,881.8c-6.9-3.4-15.5,0-18.9,8.6c-1.7,6.9-8.6,10.3-15.5,10.3h-53.4c-6.9,0-13.8-3.4-15.5-10.3
	c-3.5-6.9-12-10.3-18.9-8.6c-6.9,3.5-10.3,12-8.6,18.9c7.1,17.5,24.1,29.1,43,29.3h53.4c18.9-0.2,35.9-11.7,43-29.3
	C382.3,893.8,378.9,885.2,370.2,881.8z"/>
<path class="st0" d="M542.4,806c-3.4-20.7-17.2-37.9-34.4-48.2c3.4-3.4,6.9-5.2,8.6-8.6c13.8-15.5,20.7-37.9,17.2-58.5
	c-5.2-34.4-18.9-65.4-41.3-93c-17.2-18.9-37.9-36.2-60.2-46.5c27.5-29.2,44.8-70.6,44.8-115.3c0-77.5-51.6-141.2-122.2-161.8
	c10.3-12.1,15.5-25.8,15.5-41.3c-0.1-29.4-24-53.2-53.4-53.4l0,0c-12.1,0-24.1,3.4-31,10.3c-8.6,8.6-13.8,18.9-13.8,31
	c0,8.6,6.9,15.5,15.5,15.5s15.5-6.9,15.5-15.5c0.1-3.2,1.3-6.3,3.4-8.6c3.5-3.4,6.9-3.4,12-3.4l0,0c13.8,0,24.1,10.3,24.1,24.1
	c-0.5,18.8-15.6,34-34.4,34.4h-1.7C215.3,268.8,143,344.6,143,435.8c0,44.8,17.2,84.4,44.8,115.4c-22.4,10.3-43,27.5-60.3,46.5
	c-22.4,25.8-36.2,58.5-41.3,93c-3.4,20.7,3.4,43,17.2,58.5c3.4,3.5,5.2,6.9,8.6,8.6c-17.2,10.3-31,27.5-34.5,48.2
	s1.7,41.3,13.8,58.5l31,39.6c12,15.5,32.7,24.1,51.7,24.1c10.3,0,22.4-3.5,32.7-8.6c27.5-15.5,39.6-51.7,27.5-80.9l-18.9-46.5
	c-1.7-3.4-3.4-6.9-5.2-8.6h106.7c8.6,0,15.5-6.9,15.5-15.5s-6.9-15.5-15.5-15.5h-136v-31c0.2-3.7,3.2-6.6,6.9-6.9h241
	c3.7,0.3,6.6,3.2,6.9,6.9v32.7c-13.8,8.7-25.8,20.7-32.7,36.2L384,837c-12,29.3,0,65.4,27.5,80.9c10.3,5.2,20.6,8.6,32.7,8.6
	c18.9,0,39.6-8.6,51.6-24.1l31-39.6C540.7,849,545.9,826.7,542.4,806z M170.5,437.6c0-75.8,62-139.5,139.5-139.5
	c75.8,0,139.5,62,139.5,139.5c0,75.8-62,139.5-139.5,139.5C232.5,575.3,170.5,513.3,170.5,437.6z M186,804.3l19,46.5
	c6.9,16.7,0.2,35.9-15.5,44.8c-15.5,8.6-34.5,5.2-46.5-8.6l-31-39.6c-6.9-10.3-10.3-22.4-8.6-34.4s10.3-22.4,20.7-29.3
	s24.1-6.9,36.2-3.5S180.9,792.2,186,804.3z M430.5,657.9c-8.5,0-15.5,6.9-15.5,15.4c0,0,0,0.1,0,0.1v15.5H203.2v-15.5
	c0-8.6-6.9-15.5-15.5-15.5s-15.5,6.9-15.5,15.5v17.2c-12.1,5.2-22.4,18.9-22.4,32.7V744c-11.1-2-21.4-7.4-29.3-15.5
	c-8.6-10.3-12-22.4-10.3-34.4c8.6-55.1,44.7-101.6,98.2-122.2c58.2,43.6,138.1,43.6,196.3,0c51.6,20.7,89.5,65.4,98.1,122.2
	c1.7,12-1.7,25.8-10.3,34.4c-6.9,8.6-17.2,13.8-29.3,15.5v-20.7c0-15.5-8.6-27.5-22.4-32.7v-17.2
	C444.3,664.8,437.4,657.9,430.5,657.9z M506.3,847.3l-31,39.6c-10.3,13.8-31,17.2-46.5,8.6c-15.7-8.9-22.4-28.1-15.5-44.8l18.9-46.5
	c5.2-12.1,13.8-20.7,25.8-24.1c5.2-1.7,8.6-1.7,13.8-1.7c6.9,0,15.5,1.7,20.6,5.2c10.3,6.9,18.9,17.2,20.7,29.3
	C516.6,824.9,513.2,837,506.3,847.3z"/>
<path class="st0" d="M384,759.5c-3.4-3.4-6.9-3.4-10.3-3.4s-6.9,1.7-10.3,3.4c-3.4,3.5-3.4,6.9-3.4,10.3s1.7,6.9,3.4,10.3
	c3.4,3.5,6.9,3.5,10.3,3.5s6.9-1.7,10.3-3.5c3.4-3.4,3.4-6.9,3.4-10.3C389.2,766.4,387.5,763,384,759.5z"/>
<path class="st0" d="M349.6,487.5c-6.9-5.2-15.5-3.4-20.7,1.7s-12,8.6-18.9,8.6s-15.5-3.4-18.9-8.6c-5.2-6.9-13.8-6.9-20.7-1.7
	s-6.9,13.8-1.7,20.7c10.3,12.1,25.8,20.7,43,20.7s32.7-6.9,43-20.7C356.5,501.3,354.8,492.6,349.6,487.5z"/>
<path class="st0" d="M848.9,775c-6.9-3.5-13.8,0-17.2,6.9c-1.7,5.2-8.6,8.6-13.8,8.6h-48.2c-6.9,0-12-3.4-13.8-8.6
	c-3.4-6.9-10.3-10.3-17.2-6.9s-10.3,10.3-6.9,17.2c6.9,15.5,20.7,25.8,37.9,25.8h48.2c17.2,0,32.7-10.3,37.9-25.8
	C859.2,785.3,855.8,776.7,848.9,775z"/>
<path class="st0" d="M1002.1,707.9c-3.4-18.2-14.8-34-31-43c3.4-1.7,5.2-5.2,8.6-8.6c12-13.8,17.2-32.7,15.5-51.7
	c-5.2-31-17.2-58.5-37.9-82.6c-15.5-17.2-32.7-31-53.4-41.3c25.8-27.5,41.3-62,41.3-101.6c0-68.9-46.5-125.7-108.5-144.6
	c8.6-10.3,13.8-22.4,13.8-36.1c0-25.8-22.4-48.2-48.2-48.2l0,0c-10.3,0-20.7,3.4-27.5,10.3c-8.6,6.9-12,17.2-12,27.6
	c0.2,7.6,6.5,13.6,14.1,13.4c7.3-0.2,13.2-6.1,13.4-13.4c0-3.4,1.7-5.2,3.4-6.9c3.4-1.7,6.9-3.4,12-3.4l0,0
	c12.3,0.2,22.2,10.1,22.4,22.4c0,8.6-3.4,15.5-8.6,22.4s-13.8,8.6-22.4,8.6h-1.7c-80.9,1.7-146.3,68.9-146.3,149.8
	c0,39.6,15.5,75.8,41.3,101.6c-20.7,10.3-39.6,24.1-53.4,41.3c-20.7,24.1-32.7,51.7-37.9,82.6c-3.4,18.9,3.5,37.9,15.5,51.7
	c1.7,3.5,5.2,5.2,8.6,8.6c-15.5,8.6-27.5,25.8-31,43c-3.3,18.1,1.1,36.8,12,51.7l27.5,36.2c12,13.8,27.5,22.4,46.5,22.4
	c10.3,0,20.7-1.7,29.3-6.9c24.1-13.8,36.2-44.8,24.1-72.3l-17.2-41.3c-1.7-3.4-1.7-5.2-3.4-8.6h96.4c7.6,0,13.8-6.1,13.8-13.8
	c0-7.6-6.1-13.8-13.8-13.8c0,0,0,0,0,0H687v-27.6c0.3-3.7,3.2-6.6,6.9-6.9h215.2c3.7,0.2,6.6,3.2,6.9,6.9v29.3
	c-13.8,6.9-22.4,18.9-29.3,32.7l-17.2,41.3c-10.3,25.8,0,56.8,24.1,72.3c8.6,5.2,18.9,6.9,29.3,6.9c17.2,0,34.4-8.6,46.5-22.4
	l27.5-36.2C1002.1,744,1005.5,725.1,1002.1,707.9z M671.5,379c0-68.5,55.5-124,124-124s124,55.5,124,124s-55.5,124-124,124l0,0
	C726.6,501.3,671.5,446.2,671.5,379z M685.3,704.4l17.2,41.3c5.2,13.8,0,31-13.8,39.6s-31,5.2-41.3-8.6l-27.5-36.2
	c-6.9-8.6-10.3-20.7-6.9-31c1.9-11.1,8.9-20.6,18.9-25.8c10.3-5.2,20.7-6.9,31-3.4C673.3,687.2,681.9,695.8,685.3,704.4L685.3,704.4
	z M902.2,575.3c-7.5-0.1-13.7,5.9-13.8,13.4c0,0.1,0,0.2,0,0.4v13.8H699.1v-13.8c0.2-7.6-5.8-13.9-13.4-14.1
	c-7.6-0.2-13.9,5.8-14.1,13.4c0,0.2,0,0.5,0,0.7v15.5c-12,5.2-18.9,17.2-18.9,29.3v18.9c-10.3-1.7-18.9-5.2-25.8-13.8
	s-10.3-20.7-8.6-31c6.9-49.9,41.3-91.2,86.1-108.5c24.1,17.2,55.1,27.6,87.8,27.6s63.7-10.3,87.8-27.5
	c46.5,17.2,79.2,58.5,86.1,108.5c1.7,11.1-1.4,22.4-8.6,31c-6.9,6.9-15.5,12-25.8,13.8v-18.9c0-13.8-8.6-24.1-18.9-29.3v-15.5
	C914.3,580.5,909.1,575.3,902.2,575.3z M969.4,742.3l-27.5,36.2c-10.2,12-27.2,15.5-41.3,8.6c-13.8-8.6-18.9-24.1-13.8-39.6
	l17.2-41.3c3.6-10.5,11.9-18.8,22.4-22.4c3.4-1.7,8.6-1.7,12-1.7c6.9,0,13.8,1.7,18.9,5.2c10.3,5.2,15.5,15.5,18.9,25.8
	S976.3,733.7,969.4,742.3L969.4,742.3z"/>
<path class="st0" d="M862.6,664.8c-4.8-5-12.6-5.2-17.6-0.4c-5,4.8-5.2,12.6-0.4,17.6c4.8,5,12.6,5.2,17.6,0.4
	c2.5-2.4,3.9-5.6,3.9-9C866.1,671.7,864.4,668.3,862.6,664.8z"/>
<path class="st0" d="M829.9,422.1c-5.2-5.2-13.8-3.5-18.9,1.7s-10.3,8.6-17.2,8.6s-13.8-3.4-17.2-8.6c-5.2-5.2-12-6.9-18.9-1.7
	c-5.2,5.2-6.9,12-1.7,18.9c8.6,12.1,22.4,17.2,37.9,17.2c14.5,0.1,28.4-6.2,37.9-17.2C836.8,435.8,836.8,427.2,829.9,422.1z"/>
</svg>
