<?xml version="1.0" encoding="utf-8"?>
<!-- Generator: Adobe Illustrator 24.1.0, SVG Export Plug-In . SVG Version: 6.00 Build 0)  -->
<svg version="1.1" id="Capa_1" xmlns="http://www.w3.org/2000/svg" xmlns:xlink="http://www.w3.org/1999/xlink" x="0px" y="0px"
	 viewBox="0 0 1080 1080" style="enable-background:new 0 0 1080 1080;" xml:space="preserve">
<style type="text/css">
	.st0{fill:#FFFFFF;}
	.st1{fill:none;stroke:#FFFFFF;stroke-width:37;stroke-miterlimit:10;}
</style>
<path class="st0" d="M832.2,646c-9.3-25.3-20.4-51.3-31.2-76.5c-4.3-10.2-8.8-20.6-13-30.8V400.3c0-42.8-34.7-77.6-77.4-77.6
	c-6.7,0-13.4,0.9-19.9,2.6c-30.8,8.3-42.3,7.1-53.3-5.4c-14.6-16.8-35.8-26.4-58.1-26.4c-13.2-0.1-26.3,3.4-37.8,9.9
	c-3.8,2.2-7.2,4.3-10.5,6.3c-19.1,11.7-27,16.5-44.2,6.5c-28.1-16.4-63.5-13.3-88.4,7.8c-9.9,8.4-20.8,11.6-33.2,10
	c-6.4-0.8-12.3,3.7-13.1,10.1c-0.8,6.4,3.7,12.3,10.1,13.1c19,2.4,36.3-2.8,51.3-15.4c17.3-14.6,41.9-16.8,61.5-5.4
	c29.3,17,47.4,6,68.3-6.8c3.2-2,6.5-4,10-6c7.9-4.5,16.9-6.8,26-6.8c15.5,0,30.2,6.8,40.4,18.5c21.9,24.9,48.9,20.2,77.1,12.6
	c4.5-1.2,9.1-1.8,13.8-1.8c29.8,0.1,53.9,24.3,53.9,54.2v178.1c-37.1-9.3-75.9-10.2-113.4-2.5v-93.5c-0.2-6.5-5.6-11.6-12.1-11.4
	c-6.2,0.2-11.2,5.2-11.4,11.4v93.5c-33.7-6.9-68.4-6.9-102.2,0v-93.5c0-6.5-5.3-11.7-11.7-11.7c-6.5,0-11.7,5.3-11.7,11.7v93.5
	c-33.7-6.9-68.4-6.9-102.1,0v-93.5c0-6.5-5.3-11.7-11.7-11.7c-6.5,0-11.7,5.3-11.7,11.7v93.5c-37.5-7.7-76.2-6.8-113.4,2.5V400.3
	c0-14.1,5.5-27.7,15.4-37.8c4.5-4.7,4.4-12.1-0.2-16.6s-12.1-4.4-16.6,0.2l0,0c-14.1,14.5-22,33.9-22,54.1v179.1
	c0,8.1,4.3,15.6,11.3,19.8v36.6c-0.1,41.1,33.1,74.6,74.2,74.7c25.6,0.1,49.4-12.9,63.1-34.5c22,34.7,68,45,102.7,23
	c9.3-5.9,17.1-13.7,23-23c5.5,8.6,12.6,15.9,21,21.7c-8.8,16-13.4,34-13.4,52.3c0,20,16.2,36.2,36.1,36.2h117.3
	c6.1,0,11.6,0.1,16.5,0.2c3.4,0.1,6.7,0.1,9.7,0.1c27.5,0,40.2-3.2,64.8-26.8c22.5,5,42.6-15.1,50.8-23.3
	C848.3,705.5,842.8,674.7,832.2,646z M753.3,599.9v36.2c0,23.2-15.6,43.6-38,49.6l-0.2,0.1c-4.2,1.1-8.6,1.7-12.9,1.7
	c-28.3-0.1-51.1-23.1-51.1-51.3v-36.2C684.8,592.3,719.7,592.3,753.3,599.9z M376.4,635.8c0.4,28.2-22.2,51.4-50.4,51.8
	c-28.2,0.4-51.4-22.2-51.8-50.4c0-0.5,0-1,0-1.4v-35.9c33.6-7.6,68.5-7.6,102.1,0V635.8L376.4,635.8z M451,687.1
	c-28.3-0.1-51.1-23.1-51.1-51.3l0,0v-35.9c33.6-7.6,68.5-7.6,102.1,0v35.9C502.1,664,479.3,687,451,687.1z M525.6,599.9
	c33.6-7.6,68.5-7.6,102.2,0v35.9c0,28.3-22.8,51.2-51.1,51.3c-6.9,0-13.8-1.4-20.1-4.1c-0.3-0.1-0.5-0.3-0.8-0.4
	c-18.4-8.3-30.2-26.6-30.2-46.8L525.6,599.9z M544.9,750c0-3,0.2-5.9,0.5-8.9h71.5c6,0,10.8,4.9,10.8,10.8c0,0,0,0,0,0v10.8h-70.1
	C550.5,762.8,544.9,757,544.9,750C544.9,750,544.9,750,544.9,750z M691.7,763c-5-0.1-10.6-0.2-16.8-0.2h-23.7V752
	c0-18.9-15.3-34.3-34.3-34.3h-65.7c1.4-3.4,3.1-6.8,4.9-10c31.6,9.1,65.5-3.8,83.2-31.5c16.2,25.8,46.6,39.1,76.5,33.4
	c13.7,10,24.4,19.9,32.6,34.3C728,763.5,721.3,763.4,691.7,763z M800.2,719.8l-0.1,0.1c-8.2,8.2-19.7,18.4-28.8,16.9
	c-8-15.5-18-27-29.9-37.1c22-13.7,35.4-37.7,35.4-63.7v-37c3.3-2,6-4.7,8-8c8.9,21,17.8,42.3,25.4,63
	C820,680.7,821.3,699.1,800.2,719.8L800.2,719.8z"/>
<path class="st0" d="M729.3,435c6.5,0,11.7-5.3,11.7-11.7l0,0c0-6.5-5.3-11.7-11.7-11.7c-6.5,0-11.7,5.3-11.7,11.7
	S722.9,435,729.3,435C729.3,435,729.3,435,729.3,435z"/>
<path class="st0" d="M717.6,540.7c-0.2,6.5,4.9,11.9,11.4,12.1c6.5,0.2,11.9-4.9,12.1-11.4c0-0.2,0-0.5,0-0.7v-70.4
	c0.2-6.5-4.9-11.9-11.4-12.1c-6.5-0.2-11.9,4.9-12.1,11.4c0,0.2,0,0.5,0,0.7V540.7z"/>
<path class="st0" d="M316.9,346.2c6.5-0.2,11.6-5.6,11.4-12.1c-0.2-6.2-5.2-11.2-11.4-11.4l0,0c-6.5-0.2-11.9,4.9-12.1,11.4
	c-0.2,6.5,4.9,11.9,11.4,12.1C316.4,346.2,316.7,346.2,316.9,346.2z"/>
<circle class="st1" cx="540" cy="540" r="418.2"/>
<path class="st1" d="M271.4,219.5c-1.2,1,519,655.5,519,655.5"/>
</svg>
