<?xml version="1.0" encoding="utf-8"?>
<!-- Generator: Adobe Illustrator 24.1.0, SVG Export Plug-In . SVG Version: 6.00 Build 0)  -->
<svg version="1.1" id="Capa_1" xmlns="http://www.w3.org/2000/svg" xmlns:xlink="http://www.w3.org/1999/xlink" x="0px" y="0px"
	 viewBox="0 0 1080 1080" style="enable-background:new 0 0 1080 1080;" xml:space="preserve">
<style type="text/css">
	.st0{fill:#FFFFFF;}
	.st1{fill:#FFFFFF;stroke:#FFFFFF;stroke-width:2.87;stroke-miterlimit:10;}
</style>
<path class="st0" d="M441.5,432.4c-7.7-9.2-20-13.9-32.3-13.9c-24.6,0-44.7,18.5-44.7,43.1c0,7.6,6.1,13.8,13.7,13.9c0,0,0,0,0,0
	h0.1c7.6,0,13.8-6.1,13.9-13.7c0,0,0,0,0,0v-0.1c0-8.5,6.9-15.4,15.4-15.4c4.1-0.1,8.1,1.6,10.8,4.7c4.6,6.1,13.9,6.1,20,1.5
	C447.7,447.8,447.7,438.6,441.5,432.4z"/>
<path class="st0" d="M517,478.6c-4.7-10.8-12.3-18.5-23.1-21.6c-21.6-7.7-44.7,3.1-52.4,23.1c-3.1,7.7,1.5,15.4,7.7,18.5
	c1.5,0,3.1,1.5,4.6,1.5c6.2,0,10.8-3.1,13.9-9.2c3.1-6.2,9.2-9.2,15.4-7.7c3.1,1.5,6.2,3.1,6.2,6.2c3.1,7.6,10.8,10.8,18.5,7.6
	C517,494,520.1,486.3,517,478.6z"/>
<path class="st0" d="M607.9,353.9c-6.2-6.2-13.9-6.2-20,0L574,367.8c-6.2,6.1-6.2,13.9,0,20c3.1,3.1,6.2,4.6,9.2,4.6
	c3.1,0,7.7-1.5,9.2-4.6l13.9-13.9C614,367.8,614,358.5,607.9,353.9z"/>
<path class="st0" d="M520.1,535.6h-18.5c-7.7-0.2-14,5.8-14.2,13.5c-0.2,7.7,5.8,14,13.5,14.2c0.3,0,0.5,0,0.8,0h18.5
	c7.6,0,13.8-6.1,13.8-13.7c0,0,0,0,0,0v-0.1C535.5,541.8,527.8,535.6,520.1,535.6z"/>
<path class="st0" d="M664.8,535.6h-18.5c-7.7-0.2-14,5.8-14.2,13.5c-0.2,7.7,5.8,14,13.5,14.2c0.3,0,0.5,0,0.8,0h18.5
	c7.7-0.2,13.7-6.6,13.5-14.2C678.1,541.7,672.2,535.8,664.8,535.6L664.8,535.6z"/>
<path class="st0" d="M860.4,551.4l-2.2-14.6c-2.2-9-10.1-15.8-19.1-15.8h-3.4l-55.1,10.1l24.8-16.9c6.7-4.5,10.1-12.4,7.9-20.2
	c0-2.1-0.8-4.1-2.2-5.6l-7.9-13.5c-2.5-4.7-7.1-8.1-12.4-9c-2.5-1.1-5.4-1.1-7.9,0c2.2-15.7,4.5-30.4,4.5-46.1
	c0-6.8-4.5-13.5-10.1-15.8c7.7-19.1,8.1-40.3,1.1-59.6c-1.1-1.1-1.1-3.4-2.2-4.5c-1.1-1.4-2.7-2.2-4.5-2.2
	c-9.3-3.6-19.3-5.5-29.3-5.6h-3.4c-1-29-24.9-52-54-51.7c-3.4,0-7.9,0-11.2,1.1c2.4-15.1,0.9-30.6-4.5-45c-1.1-1.1-1.1-3.4-3.4-4.5
	c-1.3-1.4-2.8-2.5-4.5-3.4c-10.1-4.5-20.2-5.6-31.5-5.6c-16,0-31.7,4.7-45,13.5c-4.5-14.6-13.5-28.1-24.7-39.4
	c-3.4-3.4-7.9-5.6-12.4-5.6c-4.7,0.2-9.1,2.2-12.4,5.6l-49.5,50.6c-9.6-8.5-22-13.3-34.9-13.5c-3-0.2-6.1,0.2-9,1.1
	c-11.2,2.2-20.2,6.8-28.1,14.6c-10.1-4.5-21.4-6.8-31.5-4.5c-2.2,0-4.5,1.1-6.8,2.2v-38.2c0-27-21.4-48.4-47.2-48.4v-21.4
	c7.9-1.1,14.6-9,14.6-16.9V73.5c-0.2-9.2-7.6-16.6-16.9-16.9h-84.3c-9.2,0.2-16.7,7.6-16.9,16.9V123c0,9,5.6,15.8,14.6,16.9v21.4
	c-25.9,0-47.2,22.5-47.2,48.4V511c-20.2,19.1-33.7,45-33.7,73.1c0,56.2,49.5,102.3,110.2,102.3h412.7c14.6,0,27-6.7,36-16.9
	s12.4-23.6,10.1-37.1l82.1,14.6h3.4c4,0.1,7.9-1.1,11.2-3.4c4.5-3.4,6.7-7.9,7.9-13.5l2.2-14.6v-6.8c-1.1-7.9-6.8-13.5-14.6-15.8
	l-29.2-6.8l55.1-10.1c5.6-1.1,10.1-3.4,12.4-7.9C860.4,561.5,861.5,555.9,860.4,551.4z M743.4,351.3c6.2-0.1,12.3,1.1,18,3.4
	c5.4,15.7,3.7,32.9-4.5,47.2h-28.1l9-9c4.5-4.5,4.5-10.1,0-14.6s-10.1-4.5-14.6,0l-4.5,4.5c-2.2-7.2-6-13.7-11.2-19.1
	C717.7,355.6,730.4,351.2,743.4,351.3z M685,299.5c18.6,0,33.7,15.1,33.7,33.7v1.1c-11.2,3.4-21.4,9-29.2,18c-1.1,0-2.2-1.1-4.5-1.1
	c-3.4-16.9-13.5-29.2-28.1-36C662.9,305.5,673.5,299.6,685,299.5z M629.9,242.2c6.9,0,13.7,1.2,20.3,3.4c5.5,15.4,4.7,32.4-2.2,47.2
	c-5.5,5.2-10,11.3-13.5,18c-1.9-0.2-3.9,0.2-5.6,1.1c-8.3,1.2-16.1,4.7-22.5,10.1c-2.2-3.4-4.5-7.9-7.9-11.2l23.6-23.6
	c4.5-4.5,4.5-10.1,0-14.6s-10.1-4.5-14.6,0l-25.9,25.9c-4.5-2.2-10.1-4.5-15.8-4.5c2.2-12.4,7.9-23.6,18-33.7
	C597.2,249,613,242.2,629.9,242.2L629.9,242.2z M551.1,401.9h-9c-1.1-3.4-5.6-6.8-10.1-6.8s-7.9,2.2-10.1,6.8h-10.1
	c2.2-4.5,2.2-9-1.1-12.4c-4.5-4.5-10.1-4.5-14.6,0l-10.1,10.1c-1.1,1.1-1.1,2.2-2.2,3.4h-21.4c-8-12.5-12.6-26.8-13.5-41.6H613
	c-0.9,14.8-5.5,29.1-13.5,41.6h-21.4c0-1.1-1.1-2.2-2.2-3.4l-10.1-10.1c-4.5-4.5-10.1-4.5-14.6,0
	C548.9,392.9,548.9,397.4,551.1,401.9L551.1,401.9z M527.5,338.9c3.4-14.6,16.9-24.7,32.6-24.7s29.2,10.1,32.6,24.7H527.5z
	 M547.8,213c9.8,9.9,16.4,22.4,19.1,36c-5.5,5.6-10,12.1-13.5,19.1c-1.1-1.1-3.4-1.1-5.6-1.1h-13.5c-5.6,0.2-10,4.9-9.8,10.4
	c0.2,5.3,4.5,9.6,9.8,9.8h12.4c-0.9,2.9-1.3,6-1.1,9c-4.5,1.1-7.9,2.2-11.2,4.5c-6.8-12.4-18-20.2-31.5-24.7l0,0
	c-1.1-4.5-2.2-9-4.5-13.5L547.8,213z M361.1,305.2c-0.9-1.7-1.3-3.7-1.1-5.6c-3.4-16.9,9-33.7,25.9-36h5.6c7,0,13.7,2.4,19.1,6.8
	c2.2,2.2,5.6,2.2,7.9,2.2s5.6-2.2,6.8-4.5c4.9-7.3,12.7-12.2,21.4-13.5h5.6c15.2-0.1,28.1,10.9,30.4,25.9v5.6c0,5.6,4.5,10.1,9,10.1
	c11.2,1.1,21.4,7.9,25.9,18c-5.6,7.9-10.1,15.8-12.4,25.9h-58.4c-7.2-0.2-13.6,4.4-15.7,11.2c-12.9-8.8-28.2-13.5-43.8-13.5
	c-10,0.1-19.9,2-29.2,5.6c-1.1,1.1-3.4,1.1-4.5,2.2c-1.4,1.1-2.2,2.7-2.2,4.5c-2.2,5.6-4.5,12.4-4.5,18c-3.4-4.5-6.7-9-7.9-15.8
	c-2.2-13.5,4.5-28.1,18-33.7C361.1,316.4,363.4,310.8,361.1,305.2z M392.6,398.5l3.4,3.4h-24.7c-5.8-13.1-6.6-27.9-2.2-41.6
	c5.7-2.2,11.8-3.3,18-3.4c15.7,0,30.4,5.6,41.6,16.9l4.5,4.5c2.2,7.9,4.5,15.8,7.9,22.5h-15.8l-16.9-16.9c-4.5-4.5-10.1-4.5-14.6,0
	C388.1,388.4,388.1,395.1,392.6,398.5L392.6,398.5z M348.7,401.9h-37.1c1.1-10.1,7.9-18,15.7-23.6c4.7,7,11.4,12.4,19.1,15.7
	C346.7,396.7,347.5,399.4,348.7,401.9L348.7,401.9z M244.1,73.5h77.6v42.7h-77.6V73.5z M307.1,136.5v21.4h-48.4v-21.4L307.1,136.5z
	 M210.4,249h67.5c5.6,0.2,10.2-4.3,10.4-9.8c0.2-5.6-4.3-10.2-9.8-10.4h-68v-21.4c-0.2-15.4,12.2-28,27.5-28.1c0,0,0,0,0,0h88.3
	c15.4-0.1,28,12.2,28.1,27.6c0,0,0,0,0,0c0,0.2,0,0.4,0,0.6v21.4h-19.1c-5.6,0-10.1,4.5-10.1,10.1c0,5.6,4.5,10.1,10.1,10.1h19.1v9
	c-12.4,11.2-18,28.1-14.6,46.1l0,0c-16.9,11.2-25.9,31.5-21.4,51.7c-0.2,1.2,0.3,2.5,1.1,3.4c-5.6,3.4-10.1,6.8-13.5,11.2h-94.5
	L210.4,249z M210.4,390.7h82.1c-1.4,3.6-2.1,7.4-2.2,11.2H288c-9.2,0.2-16.6,7.6-16.9,16.9c0,16.9,1.1,32.6,4.5,48.4h-9
	c-12.4,0-24.8,2.2-33.7,5.6c-13.5,5.6-18,13.5-19.1,19.1c-1.1,1.1-3.4,1.1-4.5,2.2C210.4,493,210.4,390.7,210.4,390.7L210.4,390.7z
	 M342,517.7c3.4,3.4,5.6,5.6,6.7,7.9l0,0c-5.6,0-16.9-2.2-28.1-9c-4.5-2.2-9-5.6-12.4-7.9c-3.4-3.4-9-3.4-13.5,0
	c-3.4,2.2-7.9,5.6-12.4,7.9c-12.4,6.8-22.5,9-28.1,9l0,0c1.1-2.2,3.4-4.5,6.8-7.9c3.4-2.2,4.5-6.8,3.4-11.2s-4.5-6.8-9-7.9
	c-10.1-1.1-16.9-3.4-19.1-5.6c3.4-2.2,13.5-6.7,30.4-6.7c14.6,0,24.8,3.4,29.2,5.6c3,2.2,7.1,2.2,10.1,0c4.5-2.2,15.8-5.6,29.2-5.6
	c16.9,0,27,4.5,30.4,6.7c-3.4,2.2-9,4.5-19.1,5.6c-4.5,0-7.9,3.4-9,7.9C336.5,510.8,338.3,515.2,342,517.7z M320.6,643.7v2.2
	c0.9,6.6,3.7,12.8,7.9,18h-61.8c-49.5,0-90-37.1-90-82.1c0-30.4,19.1-57.4,46.1-72c3.4,2.2,6.8,4.5,12.4,5.6
	c-2.1,3-3.3,6.5-3.4,10.1c0,4.5,1.1,9,4.5,12.4c4.5,4.5,10.1,6.8,18,6.8c11.3,0,24.7-4.5,38.2-11.2c3.4-1.1,5.6-3.4,9-5.6
	c2.2,2.2,5.6,3.4,9,5.6c13.5,6.7,27,11.2,38.2,11.2l0,0c7.9,0,14.6-2.2,18-6.8c3.4-3.4,4.5-7.9,4.5-12.4c-0.1-3.6-1.3-7.2-3.4-10.1
	c4.4-1.2,8.6-3.1,12.4-5.6c22.5,11.2,38.2,30.4,43.9,52.8L351,590.8C329.6,598.7,316.1,621.2,320.6,643.7z M700.7,653.8
	c-5.6,5.6-12.4,10.1-20.2,10.1h-11.2l-6.8-36c-1.1-5.6-6.6-9.3-12.2-8.2s-9.3,6.6-8.2,12.2c0,0.2,0.1,0.3,0.1,0.5l5.7,32.6h-36
	l-4.5-24.7c-1.2-5.6-6.8-9.1-12.4-7.9s-9.1,6.8-7.9,12.4l3.4,21.4h-82.1l-6.8-33.7c-1.1-5.6-6.6-9.3-12.2-8.2s-9.3,6.6-8.2,12.2
	c0,0.2,0.1,0.3,0.1,0.5l5.6,30.4H366.7c-12.6-0.1-23.4-9-25.9-21.4v-2.2c-2.3-12.6,4.8-25,16.9-29.2l40.5-15.7l3.4,16.9
	c1.1,4.5,5.6,9,10.1,9h2.2c5.6-1.2,9.1-6.8,7.9-12.3c0,0,0,0,0,0l-3.4-20.2l60.7-22.5c5.6-2.2,7.9-7.9,5.6-13.5s-7.9-7.9-13.5-5.6
	l-28.1,10.1c-7.9-28.1-28.1-50.6-55.1-64.1c-1.1-5.6-4.5-13.5-19.1-19.1c-9-3.4-21.4-5.6-33.7-5.6c-7.9,0.1-15.8,0.8-23.6,2.2v-6.7
	c0-5.6-4.5-10.1-10.1-10.1h-0.1c-2.2,0-4.5,1.1-6.8,2.2c-1.1-11.2-2.2-21.4-2.2-32.6h336.2c5.6,0,10.1-4.5,10.1-10.1
	c0-5.6-4.5-10.1-10.1-10.1c0,0,0,0,0,0h-4.5c6.8-13.5,10.1-29.2,10.1-45c0-9.1-6.7-16.8-15.8-18c3.4-3.4,9-5.6,14.6-6.8h4.5
	c13.5,0,24.7,9,27,22.5v4.5c0,5.6,4.5,10.1,9,10.1c12.4,1,22.5,10.3,24.7,22.5v9h-11.2c-5.6-0.2-10.3,4.1-10.5,9.7
	c-0.2,5.6,4.1,10.3,9.7,10.5c0.1,0,0.2,0,0.3,0h80.4c0.1,18.6-2.2,37.1-6.7,55.1l-56.2,32.6c-3.4-12.4-11.2-22.5-22.5-28.1
	c-12.4-6.7-27.1-7.9-40.5-3.4l-114.7,43.9c-5.6,2.2-7.9,7.9-5.6,13.5s7.9,7.9,13.5,5.6l14.6-5.6l4.5,25.8c1.1,4.5,5.6,9,10.1,9h2.2
	c5.6-1.2,9.1-6.8,7.9-12.3c0,0,0,0,0,0l-5.6-29.2l81-30.4c7.9-3.4,15.8-2.2,22.5,1.1s11.2,10.1,13.5,18l21.4,112.5
	C707.6,640.8,705.5,648.2,700.7,653.8L700.7,653.8z M737.8,572.8c-4.5,1.1-7.9,4.5-9,10.1c0.1,4.7,3.3,8.8,7.9,10.1l76.5,18
	l-2.2,12.4l-88.9-15.8l-13.5-75.4l77.6-46.1l6.8,11.2l-65.2,43.8c-4.5,2.2-5.6,7.9-3.4,12.4c2.2,4.2,6.5,6.8,11.3,6.8l102.3-19.1
	l2.2,12.4L737.8,572.8z"/>
<path class="st1" d="M469.7,806.4v62.2c-0.2,58,46.7,105.1,104.7,105.3c0,0,0,0,0.1,0h0.5c44.4,0,76.1,12.7,106.6,25.4
	c29.2,12.7,57.1,24.1,93.9,24.1c79.9,0,145.9-64.7,145.9-145.9v-62.2c0-79.9-64.7-145.9-145.9-145.9C745,669.4,665,671.9,594,691
	c-36.8,10.1-66,24.1-86.3,39.3C482.4,753.1,469.7,777.2,469.7,806.4z M515.4,869.8c-17.7-16.3-27.9-39.3-27.9-63.4
	c0-44.4,38-76.1,111.6-96.4c68.5-19,145.9-20.3,176.3-20.3c70.8,0.6,127.6,58.5,127,129.3c-0.6,69.9-57.1,126.4-127,127
	c-33,0-59.6-11.4-87.5-22.8c-31.7-14-64.7-26.6-112.9-26.6h-7.6c-5.1,0-8.9,2.5-10.2,7.6c0,5.1,2.5,8.9,7.6,10.2H575
	c44.4,0,76.1,12.7,106.6,25.4c29.2,12.7,57.1,24.1,93.9,24.1c53.1,0.1,101.9-29.2,126.9-76.1c-3.8,66-59.6,119.2-126.9,119.2
	c-33,0-59.6-11.4-87.5-22.8c-31.7-14-64.7-26.6-112.9-26.6c-48.3-0.1-87.4-39.2-87.5-87.5V866l15.2,19c3.8,3.8,8.9,2.5,12.7,0
	C519.2,878.7,519.2,873.7,515.4,869.8L515.4,869.8z"/>
<path class="st1" d="M526.8,900.3c1.3,0,2.5,1.3,3.8,1.3c3.8,0,6.3-1.3,7.6-5.1c2.5-3.8,0-10.2-3.8-11.4l0,0
	c-3.8-2.5-10.2,0-11.4,3.8C520.4,892.7,523,897.8,526.8,900.3z"/>
<path class="st1" d="M704.4,717.6c0,5.1,3.8,7.6,8.9,7.6h1.3c5.1,0,8.9-5.1,7.6-8.9c0-5.1-5.1-8.9-8.9-7.6l0,0
	C706.9,708.8,703.1,713.8,704.4,717.6z"/>
<path class="st1" d="M505.2,806.4c-0.1,38.4,31,69.7,69.4,69.8c0,0,0,0,0,0h0.4c27.9,0,54.5,5.1,81.2,14c12.7,3.8,24.1,8.9,35.5,14
	c7.6,3.8,16.5,6.3,24.1,10.2c22.8,8.9,39.3,12.7,58.4,12.7c61-0.6,109.9-50.5,109.3-111.4c-0.6-60.1-49.2-108.8-109.3-109.3h-35.5
	c-4.9,0-8.9,4-8.9,8.9s4,8.9,8.9,8.9h35.5c50.7,0,92.6,41.9,92.6,92.6s-41.9,92.6-92.6,92.6c-16.5,0-31.7-3.8-52-11.4
	c-8.3-2.9-16.4-6.3-24.2-10.2c-12-5.4-24.2-10.1-36.8-14c-28.1-10-57.7-15.1-87.5-15.2c-29.4-0.2-53.1-23.9-53.3-53.3
	c0-6.3,1.3-11.4,3.8-15.2c11.4-22.8,53.3-43.1,112.9-54.5c10.2-2.5,21.6-3.8,31.7-5.1c5.1-1.3,7.6-5.1,7.6-10.2
	c-1.3-5.1-5.1-7.6-10.2-7.6c-11.4,1.3-22.8,3.8-33,5.1c-17.8,3.8-44.4,10.1-68.5,19c-29.2,12.7-49.5,26.6-58.4,44.4
	C507.7,789.9,505.2,797.5,505.2,806.4z"/>
<path class="st1" d="M722.1,781c0,22.8,20.3,40.6,44.4,40.6S811,803.9,811,781s-20.3-40.6-44.4-40.6
	C742.4,741.7,722.1,759.5,722.1,781z M739.9,781c0-12.7,12.7-22.8,26.6-22.8s26.6,10.2,26.6,22.8s-12.7,22.8-26.6,22.8
	S739.9,793.7,739.9,781z"/>
</svg>
