<?xml version="1.0" encoding="utf-8"?>
<!-- Generator: Adobe Illustrator 24.1.0, SVG Export Plug-In . SVG Version: 6.00 Build 0)  -->
<svg version="1.1" id="Capa_1" xmlns="http://www.w3.org/2000/svg" xmlns:xlink="http://www.w3.org/1999/xlink" x="0px" y="0px"
	 viewBox="0 0 1080 1080" style="enable-background:new 0 0 1080 1080;" xml:space="preserve">
<style type="text/css">
	.st0{fill:#FFFFFF;}
	.st1{fill:#FFFFFF;stroke:#FFFFFF;stroke-width:8;stroke-miterlimit:10;}
</style>
<path class="st0" d="M358.1,232.6c3.8,6.1,10.4,9.8,17.6,10.1c3.5-0.1,6.9-0.9,10.1-2.5c10-6.3,13.8-18.9,7.5-28.9l-42.7-72.9
	c-6.3-10.1-18.9-13.8-28.9-7.6c-10.1,6.3-13.8,18.9-7.5,28.9L358.1,232.6z M284,358.3c6.3-10.1,2.5-22.6-7.5-28.9l-72.9-42.7
	c-10.1-6.3-22.6-2.5-28.9,7.5s-2.5,22.6,7.5,28.9l72.9,42.7c3.8,2.5,6.3,2.5,10.1,2.5C273.9,369.6,280.2,365.9,284,358.3z
	 M695.1,241.4c3.8,2.5,6.3,2.5,10.1,2.5c7.3,0.1,14-3.8,17.6-10.1l42.7-72.9c6.3-10.1,2.5-22.6-7.5-28.9c-10-6.3-22.6-2.5-28.9,7.5
	l-42.7,72.9C681.2,222.6,685,235.1,695.1,241.4z M540.4,220.1c11.7,0.1,21.3-9.3,21.4-21c0-0.1,0-0.2,0-0.4v-84.2
	c0-11.8-9.6-21.4-21.4-21.4c-11.8,0-21.3,9.6-21.4,21.4v84.2C520.3,211.2,529.1,220.1,540.4,220.1z M906.3,295.5
	c-6.3-10.1-18.8-13.8-28.9-7.5l-72.9,42.7c-10,6.3-13.8,18.9-7.5,28.9c3.9,6,10.4,9.8,17.6,10c3.5-0.1,6.9-0.9,10.1-2.5l72.9-42.7
	C907.5,318.1,911.3,305.5,906.3,295.5z"/>
<path class="st1" d="M519.9,580.9c20.1-10.1,39,0,40.2,0c6.3,2.5,12.6,1.3,16.3-5c2.5-6.3,1.3-12.6-5-16.3c-1.3,0-13.8-7.5-32.7-7.5
	c-8.8,0-20.1,2.5-30.2,7.5c-6.3,2.5-7.5,10-5,16.3S513.7,583.4,519.9,580.9 M718.6,590.9L491,701.5c-0.7,0-1.2,0.5-1.3,1.2
	c0,0,0,0,0,0.1l-128.3-80.5V489.1c0-98.1,80.5-178.5,178.5-178.5S718.5,391,718.5,489.1L718.6,590.9L718.6,590.9z M718.6,784.5
	c0,18.9-2.5,37.7-8.8,54.1l-196.1-122l204.9-99.3V784.5L718.6,784.5z M540,963c-57.8,0-108.1-27.7-140.8-69.2L597.8,797l103.1,64.1
	C672,921.5,610.4,963,540,963 M385.4,873.8c-15.7-27.1-23.9-57.9-23.9-89.3V650l212.5,132L385.4,873.8z M540,286.7
	c-111.7-0.1-202.3,90.4-202.4,202.1c0,0.1,0,0.2,0,0.3v295.4c0,111.8,90.6,202.4,202.4,202.4s202.4-90.6,202.4-202.4V489.1
	c0.1-111.7-90.4-202.3-202.1-202.4C540.2,286.7,540.1,286.7,540,286.7 M560.1,422.5c16.4-15.1,26.4-31.5,32.7-41.5
	c29.3,15.3,51.4,41.5,61.6,72.9C615.4,452.7,584,441.3,560.1,422.5 M659.4,489.1c0,65.4-54.1,119.4-119.4,119.4
	s-119.4-54.1-119.4-119.5c0-7.5,1.3-15.1,2.5-22.6c10.1,1.2,18.9,2.5,27.7,2.5c39,0,69.1-12.6,91.8-28.9
	c21.4,18.9,59.1,37.7,116.9,40.2V489.1 M540,368.4c10.1,0,21.4,1.2,30.2,3.8c-15.1,25.1-56.6,80.5-140.8,69.1
	C447,399.8,489.7,368.4,540,368.4 M540,344.5c-79.2,0-143.3,64.2-143.3,143.3S460.8,631.2,540,631.2S683.3,567,683.3,487.8v0
	C683.3,409.9,619.2,344.5,540,344.5"/>
</svg>
