<?xml version="1.0" encoding="utf-8"?>
<!-- Generator: Adobe Illustrator 24.1.0, SVG Export Plug-In . SVG Version: 6.00 Build 0)  -->
<svg version="1.1" id="Capa_1" xmlns="http://www.w3.org/2000/svg" xmlns:xlink="http://www.w3.org/1999/xlink" x="0px" y="0px"
	 viewBox="0 0 1080 1080" style="enable-background:new 0 0 1080 1080;" xml:space="preserve">
<style type="text/css">
	.st0{fill:#FFFFFF;}
</style>
<path class="st0" d="M417.1,192.4c-18-19.6-35.9-44.1-31-71.9c3.3-18-14.7-29.4-29.4-16.3c-35.9,26.1-63.7,63.7-58.8,106.2
	c-13.1-1.6-22.9,1.6-31,9.8L208,275.7c-26.1-11.4-57.2,6.5-57.2,35.9c0,11.4,3.3,21.2,11.4,27.8c214,225.4,199.3,214,210.7,218.9
	l124.1,47.4c4.9,13.1-16.4-13.1,334.9,357.7c9.8,11.4,24.5,16.3,39.2,18c50.6,1.6,76.7-58.8,42.4-96.4l-214-225.4
	c-4.9-6.5-14.7-6.5-21.2,0s-6.5,14.7,0,21.2l161.7,171.5l-39.2,37.6L582,658l39.2-37.6l22.9,24.5c4.9,6.5,14.7,6.5,21.2,0
	s6.5-14.7,0-21.2l-76.8-80c-16.3-18-44.1-21.2-65.3-11.4l-114.3-44.2l-24.5-26.1c1.6-1.6,53.9-52.3,55.5-52.3
	c9.8-8.2,13.1-21.2,11.4-35.9c13.1,0,26.1-6.5,35.9-16.3c24.5-22.9,24.5-62.1,1.6-84.9L417.1,192.4L417.1,192.4z M286.4,241.4
	c3.3-3.3,9.8-3.3,13.1,0l13.1,13.1l-63.7,58.8l-19.6-19.6L286.4,241.4L286.4,241.4z M332.1,275.7l19.6,19.6L288,354.1l-19.6-19.6
	C270.1,336.2,332.1,275.7,332.1,275.7L332.1,275.7z M859.7,870.3l31,32.7c5,5.3,7.9,12.3,8.2,19.6c0,22.9-29.4,34.3-47.4,18
	l-31-32.7L859.7,870.3z M533,555c11.4-6.5,24.5-4.9,32.7,4.9l32.7,34.3l-39.2,37.6l-32.7-34.3C518.3,587.7,516.7,568.1,533,555z
	 M498.7,550.1c-3.3,4.9-6.5,13.1-6.5,19.6c-116-44.1-111.1-40.8-112.7-44.1C167.1,301.9,180.2,316.6,180.2,310
	c0-9.8,11.4-13.1,18-6.5C405.6,522.4,392.6,509.3,397.5,511L498.7,550.1z M327.2,396.6L307.6,377l63.7-58.8l19.6,19.6L327.2,396.6z
	 M420.3,370.5c3.3,3.3,3.3,9.8,0,13.1l-55.5,52.3l-16.3-18l63.7-58.8L420.3,370.5L420.3,370.5z M395.8,212l73.5,78.4
	c11.4,11.4,11.4,31-1.6,44.1c-11.4,11.5-27.8,11.5-40.8,1.7c-8.2-8.2-73.5-76.8-84.9-89.8c-29.4-35.9-21.2-71.9,13.1-104.5
	C358.3,158.1,368.1,182.6,395.8,212z"/>
</svg>
