<?xml version="1.0" encoding="utf-8"?>
<!-- Generator: Adobe Illustrator 24.1.0, SVG Export Plug-In . SVG Version: 6.00 Build 0)  -->
<svg version="1.1" id="Capa_1" xmlns="http://www.w3.org/2000/svg" xmlns:xlink="http://www.w3.org/1999/xlink" x="0px" y="0px"
	 viewBox="0 0 1080 1080" style="enable-background:new 0 0 1080 1080;" xml:space="preserve">
<style type="text/css">
	.st0{fill:none;stroke:#FFFFFF;stroke-width:27.0093;stroke-miterlimit:10;}
	.st1{fill:#FFFFFF;}
</style>
<g>
	<path class="st0" d="M642.9,893.9c-2-43.5-42.9-77.3-91.5-75.5c-45.9,1.6-82.6,34.5-84.5,75.5l-1.7,39H287.4
		c-10.5,0-19.2-8.4-19.5-18.9c-1.7-69.9-9.9-135.8-6.3-186.9l355.5-5.3c12.1,0.3,22.2-8.2,22.5-19.1c0.3-10.8-9.2-19.8-21.3-20.1
		c-0.4,0-0.8,0-1.2,0H276.2c0.8-8.8,2.1-24.8,3.2-31.7h546.7c1,6.7,2.4,23.6,3.2,31.7h-44.7c-12.1-0.3-22.2,8.2-22.5,19.1
		c-0.3,10.8,9.2,19.8,21.3,20.1c0.4,0,0.8,0,1.2,0h47.6c3.5,49.6-0.8,118-1.1,186c-0.1,13.9-11.3,25.1-25.2,25.1H644.7L642.9,893.9z
		"/>
	<path class="st1" d="M537.3,561.7c-8.5,0-15.4-6.9-15.4-15.4s6.9-15.4,15.4-15.4c4.1,0,8,1.6,10.9,4.5
		C557.8,545.1,551,561.7,537.3,561.7z"/>
	<path class="st1" d="M426,565.7c5.8,0,11.4-0.7,16.7-2c25.1-6.3,39.2-25.6,47.5-39.7c0.2-0.3,0.4-0.6,0.5-1
		c10.2-19.5,13.2-58-22.3-78.7L301.1,346l54.8-127.8c4.4-10.2-0.4-22.1-10.6-26.5s-22.1,0.4-26.5,10.6L257,346.5
		c-4,9.3-0.4,20.2,8.3,25.4l182.8,107.4c14.1,8.2,8.5,21.8,7.1,24.7c-9.5,15.7-16.9,19.3-22.3,20.6c-13.7,3.4-35.8-4-65.7-22.1
		c-0.4-0.2-0.7-0.4-1.1-0.6L305,470.1h-0.1l-89.5-46.6c-2.6-1.4-5.2-2.7-7.8-4c-22.3-11.3-31.4-16.5-33.7-34.2
		c-2.6-19.8,2.6-38.6,8.5-60.3l49.7-183.2c2.9-10.8-3.4-21.8-14.2-24.8c-10.8-2.9-21.8,3.4-24.8,14.2l-49.7,183.1
		c-6.5,23.8-13.3,48.4-9.6,76.2c5.2,39.5,31.9,53,55.5,64.9c2.4,1.2,4.9,2.5,7.4,3.8l75.3,39.2c-2.1,7.4-4.3,14.8-6.4,22.1
		c-22.2,75.2-39.6,233.8-18.7,412.8c1.2,10.3,9.9,17.8,20,17.8c0.8,0,1.6,0,2.4-0.1c11.1-1.3,19-11.3,17.7-22.4
		c-19.9-170.8-4.7-322.1,17.3-396.7c1.4-4.8,2.8-9.7,4.2-14.5l38.3,20C378.7,556.4,404.3,565.7,426,565.7z"/>
	<path class="st1" d="M936.6,314.1L886.9,131c-2.9-10.8-14-17.1-24.8-14.2s-17.1,14-14.2,24.8l48,177l1.7,6.3
		c6,21.7,11.1,40.5,8.5,60.3c-2.3,17.6-11.4,22.9-33.7,34.2c-2.6,1.3-5.2,2.6-7.8,4l-150.8,78.5c-0.4,0.2-0.7,0.4-1.1,0.6
		c-29.9,18.1-52.1,25.5-65.7,22.1c-5.4-1.4-12.8-4.9-22.3-20.6c-1.4-2.9-7-16.5,7.2-24.8l182.7-107.3c8.8-5.1,12.3-16,8.3-25.4
		l-61.8-144.1c-4.4-10.2-16.3-15-26.5-10.6s-15,16.3-10.6,26.5L778.9,346l-167.4,98.3C576,465,579,503.6,589.2,523
		c0.2,0.3,0.4,0.7,0.5,1c8.4,14,22.4,33.4,47.5,39.7c5.3,1.3,10.8,2,16.7,2c21.7,0,47.4-9.3,79.1-28.4l39.8-20.7
		c1.3,4.6,2.7,9.2,4,13.8c22.6,77,49.5,216.1,27.6,394.1c-1.4,11.1,6.5,21.1,17.6,22.5c0.8,0.1,1.7,0.2,2.5,0.2
		c10,0,18.7-7.5,20-17.7c22.9-186.2-6.1-332.8-28.9-410.4c-2.1-7.1-4.2-14.3-6.2-21.5l73.9-38.5c2.5-1.3,4.9-2.5,7.4-3.8
		c23.6-11.9,50.3-25.4,55.5-64.9C949.9,362.5,943.1,337.9,936.6,314.1z"/>
	<path class="st1" d="M587.6,436.4c2.1,0,4.3-0.5,6.3-1.5l75.3-37.6c5.1-2.5,8.2-7.9,7.8-13.6s-4.2-10.6-9.6-12.4l-21.5-7.2
		l45.5-22.7c7-3.5,9.8-11.9,6.3-18.9s-11.9-9.8-18.9-6.3L603,354.1c-5.1,2.5-8.2,7.9-7.8,13.6s4.2,10.6,9.6,12.4l21.5,7.2
		l-44.9,22.4c-7,3.5-9.8,11.9-6.3,18.9C577.5,433.5,582.5,436.4,587.6,436.4z"/>
	<path class="st1" d="M404,341.5l45.5,22.7l-21.5,7.2c-5.4,1.8-9.2,6.7-9.6,12.4c-0.4,5.7,2.7,11,7.8,13.6l75.3,37.6
		c2,1,4.2,1.5,6.3,1.5c5.2,0,10.2-2.9,12.6-7.8c3.5-7,0.6-15.4-6.3-18.9l-44.9-22.4l21.5-7.2c5.4-1.8,9.2-6.7,9.6-12.4
		c0.4-5.7-2.7-11-7.8-13.6l-75.9-37.9c-7-3.5-15.4-0.7-18.9,6.3C394.2,329.5,397,338,404,341.5z"/>
</g>
</svg>
