<?xml version="1.0" encoding="utf-8"?>
<!-- Generator: Adobe Illustrator 24.1.0, SVG Export Plug-In . SVG Version: 6.00 Build 0)  -->
<svg version="1.1" id="Capa_1" xmlns="http://www.w3.org/2000/svg" xmlns:xlink="http://www.w3.org/1999/xlink" x="0px" y="0px"
	 viewBox="0 0 1080 1080" style="enable-background:new 0 0 1080 1080;" xml:space="preserve">
<style type="text/css">
	.st0{fill:#FFFFFF;}
</style>
<path class="st0" d="M865.5,131.1H618.2c-35.1-0.3-63.8,28-64.1,63.1c0,0.3,0,0.6,0,0.9V426c-0.2,35.1,28,63.8,63.2,64
	c0.3,0,0.6,0,0.9,0h247.3c35.1,0.2,63.8-28,64-63.1c0-0.3,0-0.6,0-0.9V195.1C929.6,160.9,901.3,131.1,865.5,131.1z M898.3,426.1
	c-0.2,18-14.7,32.6-32.8,32.8H618.2c-18.1-0.2-32.7-14.8-32.8-32.8V195.1c0.2-18,14.7-32.6,32.8-32.8h247.3
	c18,0.2,32.6,14.7,32.8,32.8V426.1z"/>
<path class="st0" d="M741.9,198.1c-62.5,0-113.2,50.7-113.2,113.2s50.7,113.2,113.2,113.2c62.5,0,113.2-50.7,113.2-113.2
	c0-62.5-50.6-113.2-113.1-113.2C741.9,198.1,741.9,198.1,741.9,198.1z M741.9,391.8c-44.4,0-80.5-36-80.5-80.4
	c0-44.4,36-80.5,80.4-80.5c44.4,0,80.5,36,80.5,80.4c0,0,0,0,0,0c0.2,44.2-35.5,80.3-79.8,80.4C742.3,391.8,742.1,391.8,741.9,391.8
	L741.9,391.8z"/>
<path class="st0" d="M704.6,278.5c-9,0.1-16.3,7.4-16.4,16.4v32.8c-0.2,9,6.9,16.6,16,16.8c9,0.2,16.6-6.9,16.8-16
	c0-0.3,0-0.5,0-0.8v-32.8C720.9,285.9,713.6,278.6,704.6,278.5z"/>
<path class="st0" d="M779.1,278.5c-9,0.1-16.3,7.4-16.4,16.4v32.8c0,9.1,7.3,16.4,16.4,16.4s16.4-7.3,16.4-16.4v-32.8
	C795.4,285.9,788.1,278.6,779.1,278.5z"/>
<path class="st0" d="M813.4,917.7H619.7c-25.5-0.1-46.1-20.7-46.2-46.2V741.9c0-37.2-31.3-68.5-68.5-68.5s-68.5,31.3-68.5,68.5
	v129.6c0,25.5-20.6,46.2-46.2,46.2c-25.5,0-46.2-20.6-46.2-46.2c0,0,0,0,0-0.1V738.9c19.4-1.5,35.8-17.9,35.8-37.2v-17.9h1.5
	c49.2,0,87.9-40.2,87.9-87.9v-98.3h19.4c8.9,0,17.9-7.5,17.9-17.9v-29.8c-0.1-24.7-20-44.6-44.7-44.7H432V287.5
	c0-23-18.6-41.7-41.5-41.7c-0.1,0-0.1,0-0.2,0c-23.8,0-41.7,17.9-41.7,41.7v117.7h-40.2V287.5c-0.4-23-19.3-41.4-42.4-41.1
	c-22.5,0.3-40.7,18.5-41.1,41.1v117.7h-29.8c-24.7,0.1-44.6,20-44.7,44.7v29.8c0,8.9,7.4,17.9,17.9,17.9h19.4v98.3
	c0,49.2,40.2,87.9,87.9,87.9h1.5v16.4c0,20.8,16.4,37.2,35.8,37.2V870c0,43.2,35.8,79,79,79s79-35.8,79-79V740.4
	c0-19.4,16.4-35.8,35.8-35.8s35.8,16.4,35.8,35.8V870c-0.3,42.5,33.9,77.2,76.4,77.5c0.4,0,0.7,0,1.1,0h193.6
	c9-0.1,16.3-7.4,16.4-16.4C829.8,922.1,822.3,917.7,813.4,917.7z M378.4,286c0-6,4.5-8.9,8.9-8.9c6,0,8.9,4.5,8.9,8.9v117.7h-19.4
	V286H378.4z M256.2,286c0-6,4.5-8.9,8.9-8.9c6,0,8.9,4.5,8.9,8.9v117.7h-19.4V286H256.2z M217.5,595.9v-98.3h84.9
	c9,0.2,16.6-6.9,16.8-16s-6.9-16.6-16-16.8c-0.3,0-0.5,0-0.8,0H180.2v-16.4c-0.1-6.5,5.1-11.8,11.6-11.9c0.1,0,0.2,0,0.4,0h266.7
	c6.5-0.1,11.8,5.1,11.9,11.6c0,0.1,0,0.2,0,0.4v16.4H429c-9-0.2-16.6,6.9-16.8,16s6.9,16.6,16,16.8c0.3,0,0.5,0,0.8,0h4.5v98.3
	c0,31.2-25.3,56.6-56.5,56.6c0,0,0,0-0.1,0H271.1C242.8,651,217.5,625.7,217.5,595.9z M306.9,700.1v-16.4h40.2v16.4
	c-0.2,3.2-2.8,5.8-6,6h-28.3C309.6,705.9,307.1,703.3,306.9,700.1L306.9,700.1z"/>
<path class="st0" d="M367.9,496L367.9,496c9.1,0,16.4-7.3,16.4-16.4s-7.3-16.4-16.4-16.4s-16.4,7.3-16.4,16.4c0,0,0,0,0,0
	C351.5,490.1,359,496,367.9,496z"/>
</svg>
