<?xml version="1.0" encoding="utf-8"?>
<!-- Generator: Adobe Illustrator 24.1.0, SVG Export Plug-In . SVG Version: 6.00 Build 0)  -->
<svg version="1.1" id="Capa_1" xmlns="http://www.w3.org/2000/svg" xmlns:xlink="http://www.w3.org/1999/xlink" x="0px" y="0px"
	 viewBox="0 0 1080 1080" style="enable-background:new 0 0 1080 1080;" xml:space="preserve">
<style type="text/css">
	.st0{fill:#FFFFFF;stroke:#FFFFFF;stroke-width:6.86;stroke-miterlimit:10;}
	.st1{fill:none;stroke:#FFFFFF;stroke-width:36.14;stroke-miterlimit:10;}
</style>
<path class="st0" d="M405.2,715.1c-4.7-4.7-11-4.7-15.8,0l-41,41c-4.7,4.7-4.7,11,0,15.8c4.4,4.2,11.4,4.2,15.8,0l41-41
	C408.3,726.1,408.3,719.9,405.2,715.1z"/>
<path class="st0" d="M376.8,688.3c-1.6-6.3-7.9-7.9-14.2-6.3l-52,18.9c-6.3,1.6-7.9,7.9-6.3,14.2c1.6,4.7,6.3,6.3,9.5,6.3h3.2
	l52-18.9C375.2,699.3,378.4,693,376.8,688.3z"/>
<path class="st0" d="M432,743.5c-6.3-1.6-11,1.6-14.2,6.3l-18.9,52c-1.6,6.3,1.6,11,6.3,14.2h3.1c4.7,0,7.9-3.2,9.5-6.3l18.9-52
	C439.9,751.3,438.3,745,432,743.5z"/>
<path class="st0" d="M687.4,715.1c-4.7-4.7-11-4.7-15.8,0s-4.7,11,0,15.8l41,41c4.4,4.2,11.3,4.2,15.8,0c4.7-4.7,4.7-11,0-15.8
	L687.4,715.1z"/>
<path class="st0" d="M767.8,700.9l-52-18.9c-6.3-1.6-11,1.6-14.2,6.3c-1.6,6.3,1.6,11,6.3,14.2l52,18.9h3.2c4.7,0,7.9-3.2,9.5-6.3
	C775.7,708.8,772.6,702.5,767.8,700.9z"/>
<path class="st0" d="M659,749.8c-1.6-6.3-7.9-7.9-14.2-6.3s-7.9,7.9-6.3,14.2l18.9,52c1.6,4.7,6.3,6.3,9.5,6.3h3.2
	c6.3-1.6,7.9-7.9,6.3-14.2L659,749.8z"/>
<path class="st0" d="M638.5,699.3c-3.2-4.7-9.5-6.3-15.8-3.2c-14.2,9.5-28.4,17.3-42.6,22.1c-15.8,6.3-30,9.5-42.6,9.5
	c-12.6,0-26.8-3.1-42.6-9.5c-64.6-23.7-121.4-93-130.9-153v-1.5c-1.6-4.7-1.6-11-1.6-15.8v-61.5c25.2-25.2,44.1-33.1,72.5-41
	c15.8-4.7,22.1-1.6,36.3,1.6c3.1,1.6,7.9,1.6,12.6,3.1c94.6,25.2,132.5,28.4,208.1,37.8c7.9,1.6,14.2,1.6,23.7,3.1v56.8
	c0,25.2-9.5,53.6-26.8,82c-3.1,4.8-1.7,11.1,3.1,14.2c0,0,0,0,0,0c1.6,1.6,3.2,1.6,6.3,1.6s6.3-1.6,9.5-4.7
	c12.6-20.5,22.1-42.6,26.8-64.6h7.9c31.5,0,50.5-30,50.5-58.3c0-12.6-3.2-23.6-9.5-31.5c-7.9-11-18.9-15.8-31.5-15.8h-14.2
	l-6.3-53.6c-1.6-17.3,0-18.9,4.7-25.2c1.6-1.6,4.7-4.7,7.9-6.3c14.2-12.6,33.1-28.4,34.7-69.4c0-3.1-1.6-6.3-3.2-9.5
	s-6.3-3.1-9.5-1.6c-6.3,1.6-11,3.2-15.8,4.7c-34.7,9.5-42.6,11-75.7-7.9c-53.6-33.1-100.9-44.1-145.1-34.7
	c-37.8,7.9-66.2,28.4-88.3,45.7l-4.7,4.7c-17.3-4.7-36.3-3.2-52,6.3c-18.9,11-31.5,31.5-36.3,55.2c-4.7,34.7-6.3,47.3-6.3,93h-14.2
	c-12.6,0-23.6,6.3-31.5,15.8c-6.3,7.9-9.5,20.5-9.5,31.5c0,28.4,17.3,58.3,50.5,58.3h7.9c6.3,26.8,20.5,55.2,39.4,82
	c28.4,36.3,64.6,64.6,104.1,78.8c18.9,6.3,34.7,9.5,50.5,9.5s31.5-3.2,50.5-9.5c16.7-6.5,32.6-15,47.3-25.2
	C640.2,710.3,641.7,704,638.5,699.3L638.5,699.3z M736.3,547.9v-55.2h14.2c6.3,0,9.5,1.6,12.6,6.3s4.7,12.6,4.7,20.5
	c0,14.2-7.9,36.3-28.4,36.3h-4.7C735.9,553.4,736.4,550.6,736.3,547.9z M368.9,380.8c3.1-17.4,12.6-31.5,25.2-39.4
	c7.9-4.7,22.1-9.5,39.4-3.2c3.1,1.6,7.9,0,9.5-1.6c3.1-1.6,6.3-4.7,9.5-7.9c42.6-33.1,100.9-77.3,208.1-9.5
	c41,25.2,56.8,20.5,91.5,11l0,0c-4.7,20.5-15.8,30-25.2,39.4c-3.2,3.1-6.3,4.7-7.9,7.9c-12.6,12.6-14.2,23.7-11,42.6l4.7,48.9
	c-6.3,0-12.6-1.6-18.9-1.6c-74.1-7.9-112-12.6-205-37.8c-4.7-1.6-7.9-1.6-11-3.2c-9.5-3.1-17.4-4.7-26.8-4.7
	c-6.3,0-12.6,1.6-20.5,3.2c-25.2,7.9-45.7,15.8-67.8,33.1C362.7,423.3,364.2,410.7,368.9,380.8L368.9,380.8z M337.4,555.8
	c-20.5,0-28.4-22.1-28.4-36.3c0-7.9,1.6-15.8,4.7-20.5s7.9-6.3,12.6-6.3h14.2v63.1H337.4z"/>
<path class="st0" d="M506.1,685.1h66.2c16.5,0,30-13.3,30-29.9c0,0,0-0.1,0-0.1c0-34.8-28.2-63.1-63.1-63.1s-63.1,28.2-63.1,63.1
	l0,0C476.1,672.5,488.8,685.1,506.1,685.1z M539.2,614.1c23.4-0.1,42.5,18.8,42.6,42.2c0,0.1,0,0.2,0,0.4c0.3,4.1-2.9,7.6-7,7.9
	c-0.3,0-0.6,0-0.9,0h-66.2c-4.7,0-7.9-4.7-7.9-7.9C496.6,633,515.6,614.1,539.2,614.1L539.2,614.1z"/>
<path class="st0" d="M646.4,579.5c3.2,0,7.9-1.6,9.5-6.3c3.2-4.7,0-11-4.7-14.2l-26.8-14.2l26.8-14.2c4.7-3.2,7.9-9.5,4.7-14.2
	s-9.5-7.9-14.2-4.7L596,535.3c-3.2,1.6-6.3,6.3-6.3,9.5c0,4.7,1.6,7.9,6.3,9.5l45.7,23.7C643.3,579.5,644.9,579.5,646.4,579.5z"/>
<path class="st0" d="M421,573.2c1.6,3.2,6.3,6.3,9.5,6.3c1.6,0,3.2,0,4.7-1.6l45.7-23.7c3.1-1.6,6.3-6.3,6.3-9.5s-1.6-7.9-6.3-9.5
	l-45.7-23.6c-4.7-3.1-11,0-14.2,4.7c-3.2,4.7,0,11,4.7,14.2l26.8,14.2L425.7,559C420.9,562.2,417.8,568.5,421,573.2L421,573.2z"/>
<circle class="st1" cx="540" cy="540" r="408.9"/>
<line class="st1" x1="277.2" y1="225.6" x2="798.3" y2="855.9"/>
</svg>
