<?xml version="1.0" encoding="utf-8"?>
<!-- Generator: Adobe Illustrator 24.1.0, SVG Export Plug-In . SVG Version: 6.00 Build 0)  -->
<svg version="1.1" id="Capa_1" xmlns="http://www.w3.org/2000/svg" xmlns:xlink="http://www.w3.org/1999/xlink" x="0px" y="0px"
	 viewBox="0 0 1080 1080" style="enable-background:new 0 0 1080 1080;" xml:space="preserve">
<style type="text/css">
	.st0{fill:#FFFFFF;}
</style>
<path class="st0" d="M1001.8,471.6c-1.3-3.9-2.6-7.7-6.4-10.3c-30.8-25.7-35.9-53.9-39.8-77v-2.6c-1.4-7.8-7.6-14-15.4-15.4h-9
	c-18,0-42.4,7.7-57.8,23.1c-2.6,2.6-3.8,6.4-5.1,10.3c-1.3,10.3-2.6,19.2-2.6,27c-2.6,29.5-3.8,33.4-12.8,35.9
	c-5.5,1.7-9.9,6-11.6,11.6c-9,28.2-20.5,53.9-33.4,79.6c-6.4-12.8-14.1-24.4-21.8-36c-16.7-27-30.8-47.5-25.7-73.2
	c15.4-84.8,7.7-147.7-23.1-188.8c-16.7-23.1-41.1-38.5-69.3-46.2c5.1-44.9,37.2-65.5,53.9-69.3c9.6-2.5,15.3-12.3,12.8-21.8
	s-12.3-15.3-21.8-12.8l0,0c-36,9-73.2,44.9-80.9,100.1c-29.5,0-55.2,9-77,25.7c-39.8,32.1-64.2,91.2-71.9,175.9
	c-2.6,25.7-19.3,41.1-41.1,61.6c-19.3,16.7-39.8,36-56.5,64.2c-20.5-9-43.6-14.1-66.8-15.4c6.4-43.7,37.2-62.9,53.9-66.8
	c9.6-2.5,15.3-12.3,12.8-21.8c-2.5-9.6-12.3-15.3-21.8-12.8c-9.7,2.7-18.8,7-27,12.8c-4.1-21-14.3-40.2-29.5-55.2
	c-27.4-27.8-67.6-38.6-105.2-28.2c-6.5,1.3-11.5,6.4-12.8,12.8c-10.3,37.2,1.3,77,28.2,104c19.3,19.3,43.6,29.5,70.6,32.1
	c-2.6,7.7-3.9,15.4-5.1,24.4C164.7,528.1,72.3,627,72.3,746.4c0,125.8,102.7,228.5,228.5,228.5c46.2,0,91.1-14.1,129.7-39.8
	c6.4,2.6,11.5,5.1,18,7.7c55.2,21.8,110.4,32.1,165.6,32.1c88.6,0,169.5-28.2,236.2-83.5C919.6,835,971,750.2,998,648.8
	C1005.7,614.2,1013.4,534.5,1001.8,471.6z M465.2,496c24.4-21.8,50.1-44.9,53.9-84.7c6.4-74.5,25.7-125.8,57.8-150.2
	c19.3-15.4,42.4-20.5,69.3-16.7s47.5,15.4,61.6,34.7c24.4,32.1,29.5,87.3,16.7,160.5c-7.7,39.8,12.8,70.6,30.8,100.1
	c10.3,16.7,21.8,33.4,29.5,52.6c-61.6,88.6-155.3,154.1-258,177.2c1.3-7.7,1.3-16.7,1.3-24.4c0.1-79.9-41.8-154-110.4-195.1
	C431.8,526.8,448.5,511.4,465.2,496z M243.1,435.7c-15.4-15.4-23.1-37.2-20.5-57.8h7.7c18.7,0,36.8,7.3,50.1,20.5
	c15.4,15.4,23.1,37.2,20.5,57.8h-7.7C274.4,456.3,256.4,448.9,243.1,435.7z M299.5,936.4c-105.3,0-191.3-86-191.3-191.3
	s86-191.3,191.3-191.3s191.3,86,191.3,191.3c0,10.3-1.3,20.5-2.6,30.8c-11.6,1.3-23.1,2.6-36,2.6c2.5-11.4,3.8-23,3.9-34.7
	c0-20.7-3.9-41.1-11.5-60.3c-3.4-9.8-14.1-14.9-23.8-11.5c-9.8,3.4-14.9,14.1-11.5,23.8c0.2,0.6,0.5,1.2,0.7,1.8
	c6.4,14.1,9,29.5,9,46.2c0,11.5-1.3,23.1-5.1,33.4c-25.7-1.3-52.6-6.4-78.3-12.8c-5.1-1.3-10.3,0-15.4,2.6
	c-16.7,11.6-32.1,25.7-42.4,53.9c-2.4,7.3-0.4,15.2,5.1,20.5c32.5,27.6,67.8,51.7,105.3,71.9C362.5,928.7,331.6,936.4,299.5,936.4z
	 M960.7,637.3c-50.1,187.4-181,299.1-349.2,299.1c-98.9,0-201.6-39.8-292.7-114.3c4.2-7.5,9.9-14.1,16.7-19.3
	c34,8.7,68.9,13,104,12.8c97.6,0,192.6-33.4,273.5-96.3c41.1-32.1,77-70.6,105.3-114.3l1.3-1.3c23.1-34.7,41.1-70.6,53.9-109.1
	c25.7-12.8,27-38.5,29.5-64.2c0-6.4,1.3-11.6,1.3-18c5.4-3.9,11.5-6.5,18-7.7c5.1,23.1,14.1,52.6,44.9,80.9
	C974.8,538.4,969.7,607.7,960.7,637.3z"/>
<path class="st0" d="M660.3,281.6c-9-3.9-20.5,0-24.4,10.3c-3.8,9,0,20.5,10.3,24.4c12.8,5.1,20.5,46.2,9,111.7
	c-1.3,10.3,5.1,19.3,15.4,21.8h3.8c9,0.1,16.7-6.5,18-15.4C702.7,374.1,705.2,299.6,660.3,281.6z"/>
<path class="st0" d="M782.3,804.2c-6.4-7.7-18-10.3-25.7-3.9l0,0c-7.7,6.4-10.3,18-3.8,25.7c3.5,5,9.3,7.9,15.4,7.7
	c3.8,0.1,7.5-1.3,10.3-3.8l0,0C786.1,824.7,787.4,813.1,782.3,804.2z"/>
<path class="st0" d="M739.9,833.7c-5.1-9-15.4-12.8-24.4-7.7c-62.9,32.1-115.5,30.8-116.8,30.8c-10.3,0-18,7.7-19.3,18
	c0,10.3,7.7,18,18,19.2h2.6c12.8,0,68-2.6,131-34.7C741.2,854.2,745,842.7,739.9,833.7z"/>
<path class="st0" d="M411.2,633.4L411.2,633.4c-7.1-7.5-18.8-7.8-26.3-0.7c-0.2,0.2-0.5,0.5-0.7,0.7c-7.7,7.7-7.7,19.2,0,25.7l0,0
	c3.9,3.8,7.7,5.1,12.8,5.1s9-1.3,12.8-5.1C417.7,652.7,418.9,641.1,411.2,633.4z"/>
<rect x="159.6" y="678.3" class="st0" width="24.4" height="24.4"/>
<rect x="196.8" y="628.3" class="st0" width="24.4" height="24.4"/>
<rect x="209.7" y="691.2" class="st0" width="24.4" height="24.4"/>
<rect x="209.7" y="691.2" class="st0" width="24.4" height="24.4"/>
<rect x="148.1" y="745.1" class="st0" width="24.4" height="24.4"/>
<rect x="196.8" y="756.7" class="st0" width="24.4" height="24.4"/>
<rect x="172.4" y="804.2" class="st0" width="24.4" height="24.4"/>
<rect x="479.3" y="526.8" class="st0" width="24.4" height="24.4"/>
<rect x="515.2" y="481.9" class="st0" width="24.4" height="24.4"/>
<rect x="526.8" y="538.4" class="st0" width="24.4" height="24.4"/>
<rect x="515.2" y="596.2" class="st0" width="24.4" height="24.4"/>
<rect x="567.9" y="560.2" class="st0" width="24.4" height="24.4"/>
<rect x="567.9" y="603.9" class="st0" width="24.4" height="24.4"/>
<rect x="539.6" y="652.7" class="st0" width="24.4" height="24.4"/>
<rect x="929.9" y="560.2" class="st0" width="24.4" height="24.4"/>
<rect x="917.1" y="615.4" class="st0" width="24.4" height="24.4"/>
<rect x="892.7" y="665.5" class="st0" width="24.4" height="24.4"/>
<rect x="869.6" y="715.6" class="st0" width="24.4" height="24.4"/>
<rect x="845.2" y="756.7" class="st0" width="24.4" height="24.4"/>
<rect x="823.3" y="702.7" class="st0" width="24.4" height="24.4"/>
<rect x="856.7" y="657.8" class="st0" width="24.4" height="24.4"/>
<rect x="881.1" y="609" class="st0" width="24.4" height="24.4"/>
<rect x="892.7" y="558.9" class="st0" width="24.4" height="24.4"/>
<rect x="917.1" y="519.1" class="st0" width="24.4" height="24.4"/>
</svg>
