<?xml version="1.0" encoding="utf-8"?>
<!-- Generator: Adobe Illustrator 24.1.0, SVG Export Plug-In . SVG Version: 6.00 Build 0)  -->
<svg version="1.1" id="Capa_1" xmlns="http://www.w3.org/2000/svg" xmlns:xlink="http://www.w3.org/1999/xlink" x="0px" y="0px"
	 viewBox="0 0 1080 1080" style="enable-background:new 0 0 1080 1080;" xml:space="preserve">
<style type="text/css">
	.st0{fill:#FFFFFF;}
</style>
<path class="st0" d="M269.9,392.2c29.4-18.2,58.8-15.4,77,4.2C321.7,407.6,296.5,397.8,269.9,392.2 M323.2,509.8
	c-1.4-35,19.6-67.2,53.2-81.2C373.6,466.4,348.4,487.4,323.2,509.8 M645.3,437c0-32.2,25.2-57.4,56-57.4s57.4,25.2,57.4,56
	S732.1,493,701.3,493C670.4,492.9,645.4,467.9,645.3,437 M545.8,266.1c16.8,5.6,30.8,12.6,44.8,15.4c11.2,2.8,12.6,7,11.2,16.8
	c-4.2,50.4-39.2,95.2-88.2,109.2c-23.8,7-49,8.4-74.2-2.8C495.4,372.6,526.2,322.2,545.8,266.1 M769.9,683.5l49,49
	c11.2,12.6,9.8,32.2-2.8,43.4s-32.2,12.6-43.4,2.8c-15.4-14-33.6-21-54.6-21c-36.4,0-71.4-1.4-107.8,0c-11.2,0-15.4-4.2-16.8-15.4
	c-2.8-23.8,1.4-29.4,25.2-32.2c4.2,0,7,0,11.2-1.4c36.4-1.4,74.2-2.8,110.6-4.2C753.1,705.9,765.7,701.7,769.9,683.5 M730.7,668.1
	H620.1c4.2-33.6,8.4-67.2,15.4-100.8c4.2-26.6,26.6-39.2,53.2-35c32.2,5.6,50.4,23.8,49,50.4C734.9,609.3,732.1,637.3,730.7,668.1
	 M688.7,946.8H362.4c7-85.4,12.6-168.1,19.6-249.3c2.8,5.6,4.2,12.6,5.6,18.2c7,43.4,14,85.4,22.4,128.8c9.8,51.8,39.2,74.2,91,74.2
	h183.5C685.9,930,687.3,938.4,688.7,946.8 M589.3,242.3c-12.6-8.4-25.2-15.4-37.8-23.8c-16.8-11.2-29.4-5.6-36.4,12.6
	c-8.4,23.8-16.8,49-29.4,71.4c-16.8,32.2-42,57.4-75.6,72.8c-9.8,4.2-15.4,2.8-22.4-5.6c-43.4-49-40.6-127.4,11.2-172.3
	C464.6,140.1,559.8,168.1,589.3,242.3 M555.7,708.7c-5.6-29.4-11.2-60.2-16.8-89.6c-2.8-14-9.8-21-23.8-18.2s-16.8,12.6-15.4,26.6
	c8.4,46.2,16.8,92.4,25.2,138.7c4.2,25.2,8.4,28,33.6,29.4c53.2,0,105,1.4,158.3,1.4c16.8,0,28,7,33.6,22.4
	c9.8,29.4-9.8,58.8-40.6,58.8H494c-19.6,0-30.8-7-39.2-23.8c-4.2-8.4-7-16.8-9.8-25.2c-11.2-50.4-22.4-100.8-30.8-151.3
	c-8.4-49-15.4-99.4-19.6-149.9c-2.8-36.4,14-57.4,47.6-67.2c56-16.8,130.2,8.4,166.7,54.6c1.4,2.8,1.4,8.4,0,12.6
	c-5.6,16.8-11.2,35-16.8,51.8C580.9,623.3,593.5,672.3,555.7,708.7 M725.1,918.8c51.8-9.8,64.4-46.2,68.6-92.4
	c7-1.4,12.6-1.4,19.6-2.8c51.8-14,71.4-79.8,32.2-117.6c-21-21-42-42-63-64.4c-4.2-5.6-7-14-8.4-21c-1.4-5.6,0-12.6,0-18.2
	c5.6-30.8,1.4-58.8-23.8-81.2c26.6-18.2,43.4-40.6,46.2-71.4c2.8-22.4-1.4-42-12.6-60.2c-25.2-39.2-68.6-56-112-42
	c-44.8,15.4-67.2,54.6-64.4,114.8c-15.4-9.8-30.8-18.2-47.6-28c50.4-32.2,79.8-77,82.6-135.9c1.4-37.8-9.8-71.4-32.2-102.2
	c-43.5-57.5-123.3-79.9-189.1-53.3c-61.6,25.2-120.5,93.8-95.2,198.9c-49,2.8-84,28-116.2,61.6c33.6,14,64.4,26.6,95.2,39.2
	c-15.4,39.2-12.6,78.4-8.4,117.6c21-11.2,39.2-21,60.2-32.2c-1.4,25.2-2.8,46.2-4.2,67.2c-9.8,119-18.2,239.5-28,358.5
	c-2.8,28,2.8,33.6,30.8,33.6l348.7,4.2c26.6,0,33.6-8.4,28-33.6c-2.8-11.2-4.2-22.4-7-33.6C723.8,921.6,723.8,921.6,725.1,918.8"/>
</svg>
