<?xml version="1.0" encoding="utf-8"?>
<!-- Generator: Adobe Illustrator 24.1.0, SVG Export Plug-In . SVG Version: 6.00 Build 0)  -->
<svg version="1.1" id="Capa_1" xmlns="http://www.w3.org/2000/svg" xmlns:xlink="http://www.w3.org/1999/xlink" x="0px" y="0px"
	 viewBox="0 0 1080 1080" style="enable-background:new 0 0 1080 1080;" xml:space="preserve">
<style type="text/css">
	.st0{fill:#FFFFFF;}
	.st1{fill:#FFFFFF;stroke:#FFFFFF;stroke-width:7;stroke-miterlimit:10;}
</style>
<path class="st0" d="M405.4,223.3l-10.9-80.8c-2.4-20.5-24.1-33.8-43.4-26.5c-20.5,7.2-28.9,32.6-16.9,50.7l44.6,66.3
	C387.4,245,407.9,237.7,405.4,223.3z M356,152.1c-2.4-3.6-1.2-6-1.2-7.2c2.4-8.4,14.5-7.2,15.7,0l4.8,35L356,152.1z"/>
<path class="st0" d="M337.9,260.6l-44.6-66.3c-20.5-30.1-66.3-12.1-61.5,22.9c1.3,9.7,7.1,18.2,15.7,22.9
	c73.6,42.2,71.1,42.2,77.2,42.2C336.7,283.6,343.9,270.3,337.9,260.6z M260.7,218.4c-1.9-0.9-3.3-2.7-3.6-4.8
	c-1.2-8.4,10.9-12.1,15.7-4.8l18.1,27.7L260.7,218.4z"/>
<path class="st0" d="M290.9,312.5l-77.2-22.9c-33.8-9.6-57.9,33.8-31.4,56.7c7.2,7.2,18.1,9.6,27.7,7.2l79.6-14.5
	C304.1,337.8,305.4,316.1,290.9,312.5z M206.5,329.4c-4.8,1.2-9.6-3.6-9.6-8.4c0.1-4.3,3.7-7.6,8-7.5c0.6,0,1.1,0.1,1.7,0.2
	l32.5,9.6L206.5,329.4z"/>
<path class="st0" d="M675.5,116c-19.3-7.2-41,6-43.4,26.5l-10.8,79.6c-2.4,14.5,18.1,21.7,26.5,9.6l44.6-66.3
	C703.3,148.5,696,124.4,675.5,116z M670.7,152.2l-19.3,27.7l4.8-33.8c1.2-8.4,12.1-9.6,15.7-1.2
	C671.9,146.1,673.1,149.7,670.7,152.2L670.7,152.2z"/>
<path class="st0" d="M785.3,188.3c-14.5-15.7-38.6-13.3-50.7,3.6l-45.8,67.5c-3.6,6-3.6,13.3,1.2,18.1c4.7,4.9,12.2,5.9,18.1,2.4
	l68.7-39.8C796.1,230.5,799.7,205.2,785.3,188.3z M764.8,219.7l-28.9,16.9l19.3-28.9c2.4-3.6,8.4-4.8,10.8-1.2
	c3.4,2.7,4.1,7.6,1.4,11.1C766.7,218.4,765.8,219.1,764.8,219.7L764.8,219.7z"/>
<path class="st0" d="M811.8,289.6l-76,21.7c-6,2.4-10.8,7.2-9.7,14.5c0,7.2,4.8,12.1,12.1,13.3l80.8,14.5c9.7,1.2,19.3-1.2,26.5-7.2
	C870.9,323.4,846.8,279.9,811.8,289.6z M822.6,329.4l-35-6l31.4-9.7c3.6-1.2,6,0,8.4,1.2C833.5,320.9,829.9,330.6,822.6,329.4
	L822.6,329.4z"/>
<path class="st1" d="M899.8,727.3l-18.1-24.1l4.8-77.2c1.3-24.9-3.7-49.8-14.5-72.3c-2.9-6.4-10.4-9.3-16.7-6.4
	c-6.4,2.9-9.3,10.4-6.4,16.7c0.1,0.2,0.2,0.3,0.2,0.5c8.4,18.1,13.3,38.6,12,59.1c-4.8,84.4-8.4,83.2-3.6,90.4l20.5,27.7
	c7.2,9.7,4.8,24.1-4.8,31.3l-80.8,60.3c-6,3.6-7.2,12.1-2.4,18.1c2.4,3.6,6,4.8,9.7,4.8c2.4,0,4.8-1.2,7.2-2.4l80.8-60.3
	C910.7,778,915.5,749,899.8,727.3z"/>
<path class="st1" d="M837.1,504.2c-3.6-6-31.3-31.4-54.3-97.7c-12.1-32.6-28.9-51.9-62.7-39.8c-18.1,6-28.9,20.5-32.5,38.6
	l-95.3-129c-26.5-35-79.6-27.7-94.1,13.3c-32.5-30.1-85.6-12.1-90.4,32.6c-45.8-13.3-84.4,35-62.7,76c-42.2,2.4-65.1,50.6-39.8,86.8
	l13.3,16.9c-42.2,2.4-63.9,51.9-38.6,86.8l32.6,43.3c3.6,6,12.1,7.2,18.1,2.4c6-3.6,7.2-12,2.4-18.1L300.5,573
	c-14.5-20.5,0-48.2,25.3-45.8c7.2,1.2,14.5,3.6,19.3,9.6l0,0c2.4,4.8-8.4-10.8,200.2,271.3c21.3,28.7,51.4,49.9,85.6,60.3
	c12.1,3.6,24.1,12,31.4,22.9c7.2,9.7,10.9,16.9,21.7,22.9l-31.3,22.9c-4.8,3.6-11,4.9-16.9,3.6c-13.3-2.4-16.9-13.3-21.7-19.3
	c-10.6-15.4-26.5-26.6-44.6-31.3c-29.3-8.6-54.8-26.9-72.4-51.8c-2.4-3.6-115.8-156.8-129-174.8c-3.6-6-12.1-7.2-18.1-2.4
	c-6,3.6-7.2,12.1-2.4,18.1c27.7,38.6,101.3,137.5,129,174.8c21.3,28.7,51.4,49.9,85.6,60.3c25.3,7.2,35,27.7,38.6,32.6
	c15.7,21.7,45.8,25.3,66.3,9.7l50.6-37.4c15.7-3.6,21.7-12.1,45.8-28.9c6-3.6,7.2-12.1,2.4-18.1c-3.6-6-12-7.2-18.1-2.4
	c-26.5,19.3-28.9,24.1-38.6,25.3c-7.2,1.2-13.3-1.2-18.1-6c-7.2-6-19.3-33.8-55.5-44.6c-29.3-8.6-54.8-26.9-72.3-51.8
	C350,504.2,363.2,524.7,362,513.9c-4.8-30.1,33.8-45.8,50.6-21.7l90.4,123c2.1,3.2,5.8,5,9.6,4.8c9.7,0,15.7-12.1,9.7-20.5
	C381.3,409,388.5,421,387.4,412.6c-2.4-6-1.2-13.3,1.2-19.3c3.6-10.9,15.7-19.3,28.9-18.1c5.2,0.1,10.3,1.8,14.5,4.8
	c6,4.8,0-2.4,137.5,183.3c2.1,3.2,5.8,5,9.6,4.8c9.7,0,15.7-12.1,9.7-20.5c-9.7-13.3,25.3,35-131.4-177.3
	c-24.2-31.4-21.8-30.1-23-31.4c-3.5-5.8-4.8-12.6-3.6-19.3c3.6-25.3,36.2-32.6,51.9-12.1c16.9,24.1,130.2,176.1,151.9,206.2
	c2.2,3.2,5.8,5,9.7,4.8c9.6,0,15.7-12.1,9.6-20.5c-13.3-18.1-117-159.2-131.4-177.2c-4.8-7.2-6-14.5-4.8-22.9
	c4.8-25.3,36.2-31.4,51.8-10.9l123,166.4c8.4,10.9,26.5,2.4,21.7-10.9c-1.2-6-2.4-7.2-2.4-8.4c-2.4-8.4-9.6-38.6,14.5-48.2
	c12.1-4.8,19.3-4.8,30.2,24.1c12.1,33.8,30.1,71.1,53,97.7c1.9,1.8,3.5,3.8,4.8,6c3.6,6,12.1,6,18.1,2.4
	C840.7,517.5,841.9,509,837.1,504.2z M339.1,488.6l-14.5-20.5c-9.6-12.1-7.2-30.1,3.6-39.8c12.1-10.9,30.1-8.4,39.8,2.4
	c3.6,6,6,8.4,16.9,22.9C364.4,456,346.4,470.5,339.1,488.6L339.1,488.6z M372.9,371.6c-3.3,3.4-5.7,7.5-7.2,12
	c-2.6-5.2-3.5-11.1-2.4-16.9c3.6-22.9,30.1-31.4,48.2-16.9C410.3,351.1,383.7,358.3,372.9,371.6L372.9,371.6z"/>
</svg>
