<?xml version="1.0" encoding="utf-8"?>
<!-- Generator: Adobe Illustrator 24.1.0, SVG Export Plug-In . SVG Version: 6.00 Build 0)  -->
<svg version="1.1" id="Capa_1" xmlns="http://www.w3.org/2000/svg" xmlns:xlink="http://www.w3.org/1999/xlink" x="0px" y="0px"
	 viewBox="0 0 1080 1080" style="enable-background:new 0 0 1080 1080;" xml:space="preserve">
<style type="text/css">
	.st0{fill:#FFFFFF;}
</style>
<path class="st0" d="M612.7,918c-8.5-2.8-18.3,1.4-22.6,9.9c-3,7.5-10.2,12.6-18.3,12.7h-62.1c-8.5,0-15.5-4.2-18.3-12.7
	s-14.1-12.7-22.6-9.9s-12.7,14.1-9.9,22.6c8.5,19.8,28.2,33.9,49.4,33.9h62.1c22.6,0,42.3-12.7,49.4-33.9
	C625.3,932.2,621.1,922.3,612.7,918z"/>
<path class="st0" d="M813,830.6c-4.4-24-19.4-44.8-40.9-56.4c4.2-2.8,7-7,11.3-9.9c15.5-18.3,22.6-43.7,19.8-67.7
	c-5.6-39.5-22.6-76.2-49.4-107.2c-19.6-22.5-43.6-40.8-70.5-53.6c33.7-36.5,52.4-84.3,52.2-134c0-88.9-60.7-165-142.5-187.6
	c11.3-12.7,16.9-29.6,16.9-48c0.2-34.1-27.3-61.9-61.3-62.1c-0.2,0-0.5,0-0.7,0l0,0c-14.1,0-26.8,4.2-36.7,12.7
	c-11.3,8.5-16.9,22.6-16.9,36.7c0,9.9,7.1,16.9,16.9,16.9s16.9-7,16.9-16.9c-0.1-3.8,1.4-7.4,4.2-9.9c4.2-2.8,8.5-4.2,15.5-4.2l0,0
	c15.6,0.1,28.2,12.7,28.2,28.2c0.2,10.5-3.9,20.7-11.3,28.2c-7.1,7.1-18.3,11.3-28.2,11.3h-1.4c-105.8,2.8-190.5,88.9-190.5,194.7
	c-0.2,49.7,18.5,97.5,52.2,134c-26.9,12.8-50.9,31.1-70.5,53.6c-25.4,30.9-42.4,67.8-49.4,107.2c-4.3,24.4,3,49.4,19.8,67.7
	c2.8,4.2,7,7,11.3,9.9c-21.1,12.7-35.3,32.4-40.9,56.4c-4.4,24,1.8,48.7,16.9,67.7l36.7,46.5c14.1,18.3,36.7,29.6,59.2,29.6
	c13.3,0.1,26.5-3.3,38.1-9.9c32.5-18.3,46.5-59.2,32.5-94.5l-22.6-55c-1.4-4.2-2.8-7.1-5.6-9.9h125.5c9.9,0,16.9-7,16.9-16.9
	s-7.1-16.9-16.9-16.9H391.2v-35.3c0-4.2,4.2-8.5,8.5-8.5h282.1c4.2,0,8.5,4.2,8.5,8.5v38.1c-16.9,9.9-29.6,24-38.1,42.3l-22.6,55
	c-14.1,35.3,0,74.8,32.5,94.5c11.3,7.1,25.4,9.9,38.1,9.9c22.6,0,45.1-9.9,59.2-29.6l36.6-46.5C811.2,880.1,817.4,855,813,830.6z
	 M379.9,400.4c0-88.8,72-160.8,160.8-160.8s160.8,72,160.8,160.8c0,88.8-72,160.8-160.8,160.8c0,0,0,0,0,0
	C451.8,562.6,379.9,490.6,379.9,400.4z M398.2,827.8l22.6,55c7.1,19.8,0,40.9-18.3,52.2c-18.3,9.9-40.9,5.6-53.6-9.9l-36.7-46.5
	c-8.5-11.3-12.7-26.8-9.9-40.9s11.3-26.8,24-33.9s28.2-8.5,40.9-4.2C381.3,803.8,392.6,815.1,398.2,827.8L398.2,827.8z M681.8,658.5
	c-9.9,0-16.9,7-16.9,16.9v16.9H418v-16.9c0-9.9-7-16.9-16.9-16.9s-16.9,7-16.9,16.9v21.2c-15.5,7-25.4,21.2-25.4,39.5v24
	c-12.7-1.4-25.4-7-33.9-16.9c-10-11.1-14.2-26.3-11.3-40.9c9.6-64.3,53.3-118.4,114.2-141.1c32.4,24,71.9,36.7,114.3,36.7
	s81.8-14.1,114.2-36.7c60.7,24,104.4,76.2,114.3,141.1c2.8,14.1-1.4,29.6-11.3,40.9c-8.5,9.9-21.2,15.5-33.8,16.9v-24
	c0-17-9.9-32.4-25.4-39.5v-21.1C698.7,665.5,690.2,658.5,681.8,658.5z M769.2,877.1l-36.7,46.5c-12.7,16.9-35.3,21.2-53.6,9.9
	c-18.3-9.9-25.4-32.4-18.3-52.2l22.6-55c5.2-13.3,16.1-23.6,29.6-28.2c5.6-1.4,11.3-2.8,16.9-2.8c8.5,0,16.9,2.8,25.4,7
	c12.7,7.1,21.2,19.8,24,33.9C781.8,850.6,778.2,865.5,769.2,877.1L769.2,877.1z"/>
<path class="st0" d="M629.6,775.6c-3.3-3.5-7.9-5.5-12.7-5.6c-5.6,0-8.5,1.4-12.7,5.6c-3.5,3.3-5.5,7.9-5.6,12.7
	c0,4.2,1.4,8.5,5.6,12.7c3.3,3.5,7.9,5.5,12.7,5.6c5.6,0,8.5-1.4,12.7-5.6c7-6.3,7.6-17.1,1.3-24.1C630.4,776.4,630,776,629.6,775.6
	z"/>
<path class="st0" d="M587.3,459.6c-7.1-5.6-18.3-4.2-24,2.8c-9.4,12.5-27,15-39.5,5.6c-2.1-1.6-4-3.5-5.6-5.6
	c-5.7-7.1-16.9-8.5-24-2.8s-8.5,16.9-2.8,24c12.7,15.5,29.6,24,49.4,24s36.7-8.5,49.4-24C595.7,475.1,594.3,465.2,587.3,459.6z"/>
</svg>
