<?xml version="1.0" encoding="utf-8"?>
<!-- Generator: Adobe Illustrator 24.1.0, SVG Export Plug-In . SVG Version: 6.00 Build 0)  -->
<svg version="1.1" id="Capa_1" xmlns="http://www.w3.org/2000/svg" xmlns:xlink="http://www.w3.org/1999/xlink" x="0px" y="0px"
	 viewBox="0 0 1080 1080" style="enable-background:new 0 0 1080 1080;" xml:space="preserve">
<style type="text/css">
	.st0{fill:#FFFFFF;}
	.st1{fill:#FFFFFF;stroke:#FFFFFF;stroke-width:13.1;stroke-miterlimit:10;}
</style>
<path class="st0" d="M833.8,793.8c-2.6,3.9-2.6,6.5-2.6,10.5c0,7.9,2.6,14.4,9.2,18.3l73.4,48.5c10.5,6.5,23.6,3.9,30.1-6.6
	s3.9-23.6-6.5-30.1L863.9,786C854.8,780.7,840.3,783.3,833.8,793.8z"/>
<path class="st0" d="M848.2,956.3c10.5-6.5,15.7-18.3,9.2-30.1l-40.6-78.6c-6.5-10.5-18.3-15.7-30.1-9.2
	c-6.5,3.9-10.5,11.8-11.8,18.3c0.1,3.6,1,7.2,2.6,10.5l40.6,78.6C824.6,956.3,836.4,961.6,848.2,956.3z"/>
<path class="st0" d="M296.5,859.3c-3.9-2.6-6.5-2.6-10.5-2.6c-7.6-0.1-14.6,3.9-18.4,10.5l-47.2,74.7c-6.6,10.5-3.9,23.6,6.6,30.1
	s23.6,3.9,30.1-6.5l47.2-74.7C311,880.3,307,867.2,296.5,859.3z"/>
<path class="st0" d="M134.1,876.4c6.6,10.5,19.7,14.4,30.1,9.2l77.3-41.9c10.5-6.5,14.4-19.7,9.2-30.1c-4-6.3-10.9-10.2-18.3-10.5
	c-3.6,0.1-7.2,1-10.5,2.6l-77.3,41.9C134.1,852.8,130.1,865.9,134.1,876.4z"/>
<path class="st1" d="M542.9,927.5h24.9v-114h-24.9V927.5z M466.9,927.5h24.9v-114h-24.9V927.5z M710.6,699.5
	c-107.1,95.7-269,95.7-376.1,0l135-311.9c33.3,17,72.8,17,106.1,0L710.6,699.5z M671.3,546.2c43.1-42.8,43.3-112.4,0.5-155.4
	c-0.2-0.2-0.3-0.3-0.5-0.5l0,0l-17,17c30.1,31.5,32.8,79.9,5.2,114l-74.7-173c-34.7,35.1-91.3,35.4-126.4,0.7
	c-0.2-0.2-0.5-0.5-0.7-0.7l-74.7,173c-27.5-34.1-24.9-82.5,6.5-114l-17-17c-43.1,42.8-43.3,112.4-0.5,155.5c0.2,0.2,0.3,0.3,0.5,0.5
	l1.3-1.3L304.4,706c119.5,120.1,313.8,120.6,434,1c0.3-0.3,0.7-0.7,1-1l0,0l-68.1-161.2V546.2z M428.9,213.4v-3.9
	c6.6-51.1,55-87.8,106.1-79.9c40.6,5.2,73.4,38,79.9,78.6c0,2.6,0,5.2,1.3,7.9v6.6c-0.5,52.1-43.2,93.9-95.3,93.4
	c-51.3-0.5-92.8-42-93.4-93.4C427.6,218.6,427.6,216,428.9,213.4L428.9,213.4z M367.3,265.8c14.4,0,28.3-5.1,39.3-14.4
	c15.7,64.2,79.9,102.2,144.1,86.5c43.2-10.5,76-44.5,86.5-86.5c26.7,21.7,65.9,17.7,87.6-9c0.1-0.1,0.1-0.1,0.2-0.2
	c9.2-10.5,13.1-24.9,14.4-38h-24.9c0,21-15.7,38-36.7,38c-18.3,0-34.1-11.8-36.7-30.1c0-1.3,0-3.9-1.3-5.2s0-1.3,0-2.6
	c-10.5-64.2-72.1-108.8-136.3-98.3c-49.8,7.9-90.4,47.2-98.3,98.3c0,2.6,0,5.2-1.3,6.6c-3.9,21-22.3,34.1-43.2,31.4
	c-18.4-2.6-31.5-19.6-31.5-38h-24.9C304.4,237,333.2,265.8,367.3,265.8z"/>
</svg>
