<?xml version="1.0" encoding="utf-8"?>
<!-- Generator: Adobe Illustrator 24.1.0, SVG Export Plug-In . SVG Version: 6.00 Build 0)  -->
<svg version="1.1" id="Capa_1" xmlns="http://www.w3.org/2000/svg" xmlns:xlink="http://www.w3.org/1999/xlink" x="0px" y="0px"
	 viewBox="0 0 1080 1080" style="enable-background:new 0 0 1080 1080;" xml:space="preserve">
<style type="text/css">
	.st0{fill:#FFFFFF;}
</style>
<path class="st0" d="M243.4,285.8c-30.4,0-55.6,25.3-55.6,55.6s25.3,55.6,55.6,55.6s55.6-25.3,55.6-55.6S273.8,285.8,243.4,285.8z
	 M243.4,363c-11.2,0-20.2-9.1-20.2-20.2c0-11.2,9.1-20.2,20.2-20.2c11.2,0,20.2,9.1,20.2,20.2c0,0,0,0,0,0
	C263.7,352.8,254.8,363,243.4,363L243.4,363z"/>
<path class="st0" d="M832.8,285.8c-30.4,0-55.7,25.3-55.7,55.6s25.3,55.6,55.7,55.6s55.6-25.3,55.6-55.6S863.1,285.8,832.8,285.8z
	 M832.8,363c-11.2,0-20.2-9.1-20.2-20.2s9.1-20.2,20.2-20.2c11.2,0,20.2,9.1,20.2,20.2c0,0,0,0,0,0C853,352.8,844.1,363,832.8,363
	L832.8,363z"/>
<path class="st0" d="M963,199.8c-17.7-20.2-44.3-31.6-75.9-31.6c-32.9,0-72.1,12.6-110,34.1c-50.6-20.2-125.2-29.1-239-29.1
	c-115.1,0-189.7,8.9-239,29.1c-36.7-21.5-75.9-34.1-110-34.1c-31.6,0-58.2,11.4-75.9,31.6C93,222.6,82.8,256.7,82.8,301v298.4
	c0,70.8,27.8,136.6,78.4,185.9c45.5,44.3,103.7,69.6,161.9,70.8c26.1,14.9,53.7,27.2,82.2,36.7c1.3,0,1.3,0,2.5,1.3
	c39.2,12.6,80.9,17.7,131.5,17.7c48,0,88.5-5.1,126.5-15.2h2.5c29.1-8.8,58.2-21.5,88.5-39.2c58.2-1.3,116.3-26.6,161.9-70.8
	c50.6-49.3,78.4-115.1,78.4-185.9V302.2C993.4,255.5,983.2,221.3,963,199.8z M117,299.7c0-35.4,7.6-60.7,21.5-77.1
	c11.4-12.7,27.8-19,49.3-19c69.5,0,158.1,67,168.2,105l0,0c12.6,48-5.1,93.6-55.6,140.4c-15.2,13.9-31.6,26.6-49.3,39.2l0,0
	c-37.9,26.6-80.9,50.6-118.9,72.1c-4.8,2.3-9.4,4.8-13.9,7.6C117,567.8,117,299.7,117,299.7z M118.3,609.6
	c10.1-5.1,20.2-11.4,31.6-17.7c32.9-17.7,68.3-37.9,101.2-59.4c5.1,20.2,11.4,37.9,15.2,53.1c20.2,67,31.6,106.2,40.5,234
	C214.4,808.1,123.3,727.2,118.3,609.6L118.3,609.6z M641.8,863.7c-31.6,7.6-64.5,11.4-103.7,11.4c-41.7,0-77.1-3.8-108.8-12.7V732.2
	c-0.6-58.7,46.5-106.7,105.2-107.3s106.7,46.5,107.3,105.2c0,0.7,0,1.4,0,2.1V863.7z M731.6,827.1c-19,10.1-36.7,19-54.4,25.3V732.2
	c0-78.9-64-142.9-142.9-142.9s-142.9,64-142.9,142.9l0,0v117.6c-17.1-6.5-33.7-14.5-49.3-24c-10.1-140.4-22.8-183.4-43-252.9
	c-5-19-11.4-39.2-19-64.5c7.6-5,15.2-11.4,21.5-16.4c3.8,8.9,8.9,20.2,13.9,32.9c2.5,7.6,8.9,11.4,16.4,11.4
	c2.2,0.2,4.4-0.2,6.3-1.3c8.9-3.8,13.9-13.9,10.1-22.8c-3.8-11.4-11.4-29.1-19-45.5c48.1-46.8,77.1-102.4,59.4-169.4
	c-6.3-22.8-26.6-49.3-56.9-73.4c45.5-12.6,110-19,202.3-19s156.8,6.3,202.3,19c-10.1,8.9-20.2,16.4-27.8,25.3
	c-17.7-3.8-39.2-6.3-50.6-7.6c-9.1-1.3-17.5,5-18.8,14.1c-0.1,0.8-0.2,1.5-0.2,2.3c0,10.1,6.3,19,16.4,19
	c11.4,1.3,22.8,2.5,31.6,3.8c-2.5,5-5.1,10.1-6.3,15.2c-24,87.3,34.2,155.5,110,211.2c-6.3,25.3-12.6,45.5-19,64.5
	C754.3,643.7,741.7,686.7,731.6,827.1L731.6,827.1z M768.3,818.2c8.8-127.7,20.2-166.9,40.5-234c5.1-15.2,10.1-32.9,15.2-53.1
	c34.2,21.5,69.6,41.7,101.2,59.4c11.4,6.3,21.5,11.4,31.6,17.7C951.6,727.2,860.6,808.1,768.3,818.2L768.3,818.2z M956.7,567.8
	c-5.1-2.5-8.9-5.1-13.9-7.6c-39.2-21.5-80.9-45.5-118.9-72.1l0,0c-17.7-12.6-34.1-25.3-49.3-39.2c-50.6-46.8-68.3-92.3-55.6-140.4
	l0,0c10.1-37.9,98.6-105,168.2-105c21.5,0,37.9,6.3,49.3,19c13.9,16.4,21.5,41.7,21.5,77.2L956.7,567.8L956.7,567.8z"/>
<path class="st0" d="M367.4,565.3L367.4,565.3c-2.5-10.1-12.6-16.4-21.5-13.9c-10.1,2.5-15.2,11.4-12.6,21.5v1.3
	c2.5,7.6,8.9,13.9,17.7,13.9h3.8C363.6,584.3,369.9,575.4,367.4,565.3z"/>
<path class="st0" d="M608.9,241.6h-1.3c-10.1,0-17.7,8.9-17.7,17.7c-0.3,9.5,7.3,17.5,16.8,17.7c0.3,0,0.6,0,0.9,0h1.3
	c10.1,0,17.7-8.9,17.7-17.7C626.6,249.1,617.8,241.6,608.9,241.6z"/>
</svg>
