<?xml version="1.0" encoding="utf-8"?>
<!-- Generator: Adobe Illustrator 24.1.0, SVG Export Plug-In . SVG Version: 6.00 Build 0)  -->
<svg version="1.1" id="Capa_1" xmlns="http://www.w3.org/2000/svg" xmlns:xlink="http://www.w3.org/1999/xlink" x="0px" y="0px"
	 viewBox="0 0 1080 1080" style="enable-background:new 0 0 1080 1080;" xml:space="preserve">
<style type="text/css">
	.st0{fill:#FFFFFF;stroke:#FFFFFF;stroke-width:8;stroke-miterlimit:10;}
</style>
<g id="Outline">
	<path class="st0" d="M539.8,112c-77.9,0-154.4,21.1-221.3,61l14.2,24.1c31.1-18.5,64.5-32.8,99.3-42.6l93.6,51.1v154.6l-141.9,78
		l-141.9-78v-85.1c15.3-17.9,32.4-34,51.1-48.2l-17-22.7C90.1,350.4,58.9,620,206.4,805.8c141.9,178.8,400.1,215.6,585.9,80.9
		l-17-22.7c-38.3,28.4-80.9,48.2-126.3,61l-93.6-51.1V719.3l141.9-78l141.9,78v85.1c-11.7,13.4-24.5,25.7-38.3,36.9l18.4,21.3
		c178.8-154.6,197.2-424.2,42.6-603C781.1,166,663.5,112.1,539.8,112z M474.6,144.7c43.2-7.1,87.3-7.1,130.5,0l-65.3,35.5
		L474.6,144.7z M212.1,310.7v48.2l-38.3,21.3C183.7,356.1,196.5,333.4,212.1,310.7L212.1,310.7z M212.1,767.5
		c-15.6-21.3-28.4-45.4-38.3-69.5l38.3,21.3V767.5z M226.3,693.7l-68.1-36.9c-24.1-76.7-24.1-158.9,0-235.5l68.1-36.9l95.1,52.5
		l46.8,25.5v154.6l-46.8,25.5L226.3,693.7z M257.5,821.4c-6-5.8-11.7-12-17-18.4v-85.1l141.9-78l141.9,78v154.6l-93.6,51.1
		C365.3,905.1,305.7,869.7,257.5,821.4L257.5,821.4z M605.1,933.5c-43.2,7.1-87.3,7.1-130.5,0l65.3-35.5L605.1,933.5z M681.7,615.7
		l-141.9,78l-141.8-78V461.1l141.9-78l141.9,78L681.7,615.7z M554,360.3V205.7l93.6-51.1c66,18.4,126.2,53.6,174.5,102.1
		c6,5.8,11.7,12,17,18.5v85.1l-141.9,78L554,360.3z M867.6,766.1v-48.2l38.3-21.3C896.2,721.3,883.4,744.7,867.6,766.1z
		 M867.6,310.7c15.6,21.3,28.4,45.4,38.3,69.5l-38.3-21.3V310.7z M921.5,421.3c24.1,76.7,24.1,158.9,0,235.5l-68.1,36.9l-95-52.5
		l-46.9-25.5V461.1l46.8-25.5l95-52.5L921.5,421.3z M443.4,210c-11.4,2.8-21.3,7-31.2,11.3l-9.9-27c11.4-4.3,22.7-8.5,34-11.4
		L443.4,210z M254.7,302.2c34.1-39.7,75.2-72.4,122-95.1l12.8,25.5c-42.9,21.4-81.1,51.4-112.1,88L254.7,302.2z M183.7,435.5l27,8.5
		c-3.2,10.7-5.6,21.6-7.1,32.6l-28.4-5.7C178.1,458.2,180.9,446.9,183.7,435.5L183.7,435.5z M197.9,539.1c0,32.6,4.3,65.3,14.2,96.5
		l-27,8.5C175.2,610,171,576,171,540.5c0-14.2,1.4-28.4,2.8-42.6l28.4,2.8C197.9,513.5,197.9,526.3,197.9,539.1L197.9,539.1z
		 M416.4,858.3l-9.9,27c-57.2-22.8-108.3-58.8-149-105l21.3-18.5C317.1,804.4,363.9,838.4,416.4,858.3z"/>
</g>
</svg>
