<?xml version="1.0" encoding="utf-8"?>
<!-- Generator: Adobe Illustrator 24.1.0, SVG Export Plug-In . SVG Version: 6.00 Build 0)  -->
<svg version="1.1" id="Capa_1" xmlns="http://www.w3.org/2000/svg" xmlns:xlink="http://www.w3.org/1999/xlink" x="0px" y="0px"
	 viewBox="0 0 1080 1080" style="enable-background:new 0 0 1080 1080;" xml:space="preserve">
<style type="text/css">
	.st0{fill:#FFFFFF;}
</style>
<path class="st0" d="M774.1,559.7c2.7-6.8,0-15-6.8-17.7s-15,0-17.7,6.8c-15,36.8-42.2,66.8-77.7,87.2c-36.8,20.5-81.8,30-133.6,30
	c-68.1,0-125.4-17.7-164.9-53.2c-40.9-35.5-61.4-87.3-61.4-151.3c0-75,19.1-148.6,53.2-200.4c40.9-62.7,99.5-95.4,174.5-95.4
	s133.6,32.7,174.5,95.4c34.1,51.8,53.2,125.4,53.2,200.4c0,13.6-1.4,25.9-2.7,38.2c-1.4,6.8,4.1,15,12.3,15c6.8,1.4,15-4.1,15-12.3
	c1.4-13.6,2.7-27.3,2.7-42.2c0-24.5-1.4-49.1-5.5-72.2c31.3-76.3,31.3-148.6,28.6-185.4c-4.1-61.3-21.8-106.3-46.3-122.7
	c-8.2-5.4-19.1-6.8-28.6-5.4c-35.4,8.2-76.3,62.7-92.7,88.6c-33.8-17-71.2-25.9-109-25.9c-39.5,0-76.3,8.2-109,25.9
	c-5.5-8.2-15-20.4-24.5-34.1c-25.9-32.7-47.7-50.4-68.2-54.5c-10.9-2.7-20.5-1.4-28.6,5.4c-24.5,16.4-35.4,55.9-40.9,79.1
	c-1.4,6.8,2.7,15,10.9,16.4c6.8,1.4,15-2.7,16.4-10.9c8.2-36.8,20.5-55.9,28.6-61.3c1.4-1.4,4.1-1.4,8.2-1.4c21.8,5.4,54.5,45,75,75
	c-24.5,17.7-46.4,40.9-65.4,68.2c-18.2,28.2-32,59-40.9,91.3c-10.9-38.2-15-79.1-13.6-119.9c0-8.2-5.5-13.6-13.6-13.6
	s-13.6,5.4-13.6,13.6c-2.7,60,8.2,121.3,30,173.1c-4.1,23.2-5.5,47.7-5.5,72.2c0,77.7,28.6,140.4,81.8,179.9
	c-12.3,25.9-43.6,99.5-66.8,186.7c-1.4,6.8,2.7,15,9.5,16.4h4.1c5.5,0,12.3-4.1,13.6-10.9c10.9-43.6,24.5-83.2,36.8-115.9
	c36.8,19.1,77.7,31.3,125.4,36.8c-8.2,10.9-13.7,24.5-13.7,38.1c0,35.4,28.7,64.1,64.1,64.1s64.1-28.7,64.1-64.1
	c0.1-13.9-4.7-27.5-13.6-38.2c46.3-5.5,88.6-17.7,125.4-36.8c25.9,66.8,57.2,169,60,261.7H305.2c1.4-28.6,4.1-60,10.9-94
	c1.4-6.8-4.1-15-10.9-16.4s-15,4.1-16.4,10.9c-8.2,40.9-12.3,79.1-12.3,113.1c0,7.5,6.1,13.6,13.6,13.6h498.9
	c7.5,0,13.6-6.1,13.6-13.6c0-145.9-70.9-310.8-90-353C738.6,621.1,760.4,593.8,774.1,559.7L774.1,559.7z M745.5,103.1
	c4.1-1.4,6.8,0,8.2,1.4c28.6,19.1,50.4,128.1,21.8,234.4c-8.9-32.4-22.7-63.2-40.9-91.3c-17.7-28.6-39.5-51.8-65.4-68.2
	C691,148.1,723.7,108.6,745.5,103.1z M538.3,832.4c-20.3,0-36.8-16.5-36.8-36.8s16.5-36.8,36.8-36.8s36.8,16.5,36.8,36.8
	c0,0,0,0,0,0C575.1,816,557.4,832.4,538.3,832.4z M703.2,694.7c-45,24.5-100.9,36.8-164.9,36.8s-120-12.3-164.9-36.8
	c6.8-15,12.3-27.3,15-36.8c39.5,23.2,91.3,35.5,149.9,35.5c55.9,0,106.3-10.9,145.9-34.1c1.4-1.4,2.7-1.4,4.1-2.7
	C692.3,667.4,697.8,679.7,703.2,694.7z"/>
<path class="st0" d="M538.3,591.1c7.5,0,13.6-6.1,13.6-13.6v-47.7c9.5-2.7,19.1-6.8,27.3-13.6c9.5-6.8,24.5-20.4,24.5-39.5
	c0-10.9-2.7-20.4-9.5-27.3c-10.9-10.9-28.6-16.3-57.3-16.3s-46.4,5.5-57.2,16.4c-6.8,6.8-9.5,16.4-9.5,27.3
	c1.4,17.7,16.4,32.7,24.5,39.5c8.3,5.9,17.5,10.5,27.3,13.6v47.7C524.7,584.3,530.1,591.1,538.3,591.1L538.3,591.1z M498.8,473.9
	c0-4.1,1.4-6.8,2.7-6.8c2.7-2.7,10.9-8.2,36.8-8.2s34.1,5.5,36.8,8.2c1.4,1.4,2.7,2.7,2.7,6.8c0,10.9-24.5,28.6-39.5,28.6
	C523.3,503.9,498.8,484.8,498.8,473.9z"/>
<path class="st0" d="M423.8,355.3v34.1c0,7.5,6.1,13.6,13.6,13.6c6.8,0,13.6-6.8,13.6-13.6v-34.1c0-7.5-6.1-13.6-13.6-13.6
	S423.8,347.8,423.8,355.3z"/>
<path class="st0" d="M624.2,355.3v34.1c0,7.5,6.1,13.6,13.6,13.6c6.8,0,13.6-6.8,13.6-13.6v-34.1c0-7.5-6.1-13.6-13.6-13.6
	S624.2,347.8,624.2,355.3z"/>
</svg>
