<?xml version="1.0" encoding="utf-8"?>
<!-- Generator: Adobe Illustrator 24.1.0, SVG Export Plug-In . SVG Version: 6.00 Build 0)  -->
<svg version="1.1" id="Capa_1" xmlns="http://www.w3.org/2000/svg" xmlns:xlink="http://www.w3.org/1999/xlink" x="0px" y="0px"
	 viewBox="0 0 1080 1080" style="enable-background:new 0 0 1080 1080;" xml:space="preserve">
<style type="text/css">
	.st0{fill:#FFFFFF;}
	.st1{fill:none;stroke:#FFFFFF;stroke-width:35.64;stroke-miterlimit:10;}
</style>
<path class="st0" d="M519.8,775.3c-8.4,27.9-33.5,47.5-75.4,60c-1.4,0-2.8,1.4-4.2,1.4c-5.6,0-12.6-4.2-14-9.8
	c-2.8-7,1.4-15.4,8.4-16.8c32.1-9.8,51.7-23.7,57.2-40.5c2.8-7,9.8-12.6,16.8-8.4C517,761.3,521.2,768.3,519.8,775.3z M452.8,762.7
	c0-7.7-6.3-14-14-14c-29.3,0-53-23.7-53.1-52.9c0,0,0-0.1,0-0.1V564.4c0-19.8,4.3-39.3,12.6-57.3c2.8-7-1.4-15.4-7-18.1
	c-7-2.8-15.4,1.4-18.2,7c-8.4,22.4-14,44.7-14,68.4v131.2c0,44.7,36.3,81,81,81C447.2,775.3,452.8,769.7,452.8,762.7L452.8,762.7z
	 M539.3,382.9c-34.9,0-68.4,9.8-99.1,29.3c-7,4.2-8.4,12.6-4.2,18.1c4.2,7,12.6,8.4,18.2,4.2c25.1-16.8,53.1-25.1,83.8-25.1
	c83.8,0,153.6,68.4,153.6,153.6v131.3c0,29.3-23.7,53-52.9,53.1c0,0-0.1,0-0.1,0c-7.7,0.6-13.5,7.3-12.9,15
	c0.5,6.9,6,12.4,12.9,12.9c44.7,0,81-36.3,81-81V563C720.9,465.3,639.9,382.9,539.3,382.9z M655.2,599.3c0-22.3-2.8-40.5-9.8-58.7
	c0-1.4,0-1.4-1.4-1.4c-1.1-2.5-3.1-4.5-5.6-5.6l0,0l-1.4-1.4l0,0c-2.8-1.4-7-2.8-9.8-1.4c-1.4,0-1.4,0-1.4,1.4
	c-1.4,1.4-1.4,1.4-2.8,1.4c-19.5,14-50.3,22.3-83.8,22.3c-7.7-0.5-14.4,5.3-15,13c-0.5,7.7,5.3,14.4,13,15c0.7,0,1.3,0,2,0l0,0
	c28.7-0.2,57.2-5.8,83.8-16.8c2.8,9.8,2.8,22.3,2.8,33.5c0,40.5-22.3,79.6-55.8,99.2c-14,7-23.7,9.8-32.1,12.6
	c-8.4,0-18.2-2.8-32.1-12.6c-33.5-19.5-55.8-58.6-55.8-99.1c0.1-11.2,1-22.4,2.8-33.5c2.8,1.4,5.6,2.8,7,2.8l1.4,1.4
	c8.4,4.2,15.4,7,23.7,2.8c7-4.2,9.8-9.8,14-16.8c1.4-1.4,1.4-2.8,2.8-5.6c2.8-8.4,7-19.5,8.4-25.1c1.4-7-2.8-15.4-8.4-16.8
	c-7-2.8-15.4,2.8-16.8,8.4c-1.4,4.2-5.6,14-8.4,22.3c-1.4,1.4-1.4,2.8-1.4,5.6h-1.4l-1.4-1.4c-7-2.8-14-5.6-18.2-9.8
	c-1.4-1.4-1.4-1.4-2.8-1.4c-0.8,0-1.4-0.6-1.4-1.3c0,0,0,0,0-0.1l0,0c-3.2-1.6-7.1-1.1-9.8,1.4l0,0l-1.4,1.4l-5.6,5.6
	c0,0.8-0.6,1.4-1.3,1.4c0,0,0,0-0.1,0c-7,16.8-9.8,37.7-9.8,58.7c0,51.7,26.5,97.8,68.4,122.9c16.7,9.8,32,15.4,46,15.4l0,0
	c14,0,29.3-5.6,46.1-15.4C628.7,695.7,655.2,649.6,655.2,599.3L655.2,599.3z M642.7,810.2c-32.1-9.8-51.7-23.7-57.2-40.5
	c-2.8-7-9.8-12.6-16.8-8.4c-7,2.8-12.6,9.8-8.4,16.8c8.4,27.9,33.5,47.5,75.4,60c1.4,0,2.8,1.4,4.2,1.4c5.6,0,12.6-4.2,14-9.8
	C653.8,820,649.6,813,642.7,810.2z M518.4,656.6c-5.6,5.6-5.6,14-1.4,18.2c5.6,5.6,14,5.6,18.2,1.4c1.4-1.4,1.4-1.4,2.8-1.4
	s1.4,1.4,2.8,1.4c5.6,5.6,14,5.6,18.2-1.4c5.6-5.6,5.6-14-1.4-18.2c-4.2-4.2-12.6-8.4-21-8.4C531,648.2,524,652.4,518.4,656.6z"/>
<path class="st0" d="M431.8,322.9c2.1,3.4,5.8,5.4,9.8,5.6c2.8,0,4.2-1.4,5.6-1.4c5.6-4.2,8.4-11.2,4.2-16.8L426.2,267
	c-4.2-5.6-11.2-8.4-16.8-4.2s-8.4,11.2-4.2,16.8L431.8,322.9z"/>
<path class="st0" d="M387.1,398.3c4.2-5.6,1.4-14-4.2-16.8l-43.3-25.1c-5.6-4.2-14-1.4-16.8,4.2s-1.4,14,4.2,16.8l43.3,25.1
	c1.7,1,3.6,1.5,5.6,1.4C381.5,403.9,385.7,402.5,387.1,398.3z"/>
<path class="st0" d="M631.5,328.4c1.7,1,3.6,1.5,5.6,1.4c4.2,0,8.4-2.8,9.8-5.6L672,281c4.2-5.6,1.4-14-4.2-16.8
	c-5.6-4.2-14-1.4-16.8,4.2l-25.2,43.3C623.1,317.3,625.9,324.3,631.5,328.4z"/>
<path class="st0" d="M539.3,315.9c6.9,0,12.5-5.6,12.6-12.5c0,0,0-0.1,0-0.1V253c0.2-6.9-5.3-12.7-12.2-12.9s-12.7,5.3-12.9,12.2
	c0,0.2,0,0.5,0,0.7v50.3C528.2,310.3,533.7,315.9,539.3,315.9z"/>
<path class="st0" d="M757.2,360.6c-4.2-5.6-11.2-8.4-16.8-4.2l-43.3,25.1c-5.6,4.2-8.4,11.2-4.2,16.8c2.1,3.4,5.8,5.4,9.8,5.6
	c2.8,0,4.2-1.4,5.6-1.4l43.3-25.1C758.6,373.1,760,366.1,757.2,360.6z"/>
<circle class="st1" cx="540" cy="540" r="388.5"/>
<line class="st1" x1="276.3" y1="254.9" x2="775.2" y2="847.7"/>
</svg>
