<?xml version="1.0" encoding="utf-8"?>
<!-- Generator: Adobe Illustrator 24.1.0, SVG Export Plug-In . SVG Version: 6.00 Build 0)  -->
<svg version="1.1" id="Capa_1" xmlns="http://www.w3.org/2000/svg" xmlns:xlink="http://www.w3.org/1999/xlink" x="0px" y="0px"
	 viewBox="0 0 1080 1080" style="enable-background:new 0 0 1080 1080;" xml:space="preserve">
<style type="text/css">
	.st0{fill:#FFFFFF;}
</style>
<path class="st0" d="M260.5,437h-10.2c-33.3,0-65.3,14.1-88.3,37.1c-47.3,47.6-47.1,124.5,0.5,171.8c22.7,22.5,53.3,35.2,85.2,35.4
	c10.2,0,19.2-3.8,25.6-12.8c6.4-7.7,9-17.9,6.4-26.9c-3.8-20.5-6.4-40.9-6.4-61.4c0-34.5,5.1-66.5,16.6-98.5
	c3.8-10.2,2.6-21.7-3.8-29.4C281,442.2,270.7,437,260.5,437z M263.1,471.6c-12.8,34.8-19.3,71.6-19.2,108.7
	c0,22.8,2.5,45.6,7.7,67.8v2.6c-0.7,0.7-1.6,1.1-2.6,1.3c-50.4,0.2-91.6-40.4-92.1-90.8c0-24.3,9-47.3,26.9-63.9
	c17.9-17.9,42.2-28.2,66.5-28.2h10.2C261.8,469,261.8,469,263.1,471.6L263.1,471.6z M1017.6,357.8c-2.6-5.4-8.1-8.9-14.1-9h-61.4
	c-2.6,0-3.8,0-6.4,1.3l-95.9,43.5C788.7,320.7,712,270.8,623.7,256.7c8.2-11.1,12.7-24.6,12.8-38.4c0-35.8-28.1-63.9-64-63.9
	s-63.9,28.1-63.9,63.9c0.1,13.4,4.6,26.4,12.8,37.1c-81,12.7-154.1,55.7-204.6,120.2h-74.2C142.8,375.7,61,457.5,61,557.3
	c0,48.6,19.2,93.4,53.7,127.9s79.3,53.7,127.9,53.7h43.5c28.1,48.6,67.8,90.8,116.4,118.9c-1.3,1.3-1.3,3.8-1.3,6.4v25.6
	c0,19.7,15.9,35.8,35.7,35.8c0,0,0.1,0,0.1,0h268.6c19.7,0,35.8-15.9,35.8-35.7c0,0,0-0.1,0-0.1v-25.6c0-2.6,0-3.8-1.3-6.4
	c97.2-58.8,158.6-165,158.6-280.1c0-19.2-1.3-38.4-5.1-57.5l122.8-149.6C1018.9,369.3,1020.2,362.9,1017.6,357.8z M562.3,283.6h3.8
	c7.7-1.3,14.1-6.4,14.1-15.4c0.2-7.6-5.3-14.1-12.8-15.4c-16.6-2.6-29.4-16.6-29.4-33.2c0.3-19.1,16-34.3,35.1-33.9
	c18.6,0.3,33.6,15.3,33.9,33.9c-0.2,10.4-4.9,20.2-12.8,26.9c-3.8,2.6-5.1,7.7-5.1,11.5v12.8c0,7.7,6.4,14.1,14.1,15.3h1.3
	c38.4,3.8,75.5,15.4,108.7,32H437C471.5,296.4,516.3,284.9,562.3,283.6L562.3,283.6z M864.2,508.7L864.2,508.7
	c-1.3,1.3-1.3,1.3-1.3,2.5v1.3l0,0v1.3l0,0v2.6l0,0v1.3l0,0v2.6l0,0v1.3l0,0c3.8,19.2,6.4,39.6,6.4,58.8
	c0,106.2-57.5,204.6-149.6,257.1c-7.7,3.8-10.2,12.8-5.1,20.5l0,0c-1.3,2.6-2.6,5.1-2.6,7.7v25.6c-0.2,2.7-2.4,4.9-5.1,5.1H438.3
	c-2.7-0.2-4.9-2.4-5.1-5.1v-25.6h170.1c9,0,15.3-6.4,15.3-15.3s-6.4-15.3-15.3-15.3H421.6C374.3,806.7,336,767,310.4,717.1l-1.3-1.3
	l0,0l-1.3-1.3l0,0l-1.3-1.3l0,0l-1.3-1.3l0,0c-1.3,0-2.6-1.3-3.8-1.3h-58.8c-40.9,0-78-15.3-107.4-44.8
	c-28.6-28.4-44.7-67.1-44.8-107.4c0-83.1,67.8-150.9,150.9-150.9h81.9c7.7,0,12.8-5.1,15.3-11.5c14.2-18.1,30.5-34.4,48.6-48.6
	h369.6c25.3,20.4,47.3,44.5,65.2,71.6l19.2,42.2c3.9,7.7,12.8,11.5,20.5,7.7s11.5-12.8,7.7-20.5l-12.8-29.4l92.1-40.9h26.8
	L864.2,508.7z M783.6,733.8c-6.1,8.7-13,16.8-20.5,24.3c-3,3.2-7.1,5-11.5,5.1c-3.8,0.1-7.4-1.3-10.2-3.8
	c-6.4-5.1-6.4-15.3-1.3-21.7c6.7-6.7,12.6-13.9,17.9-21.7c4.9-6.2,13.6-7.8,20.5-3.8C786.1,718.4,788.7,727.4,783.6,733.8z
	 M833.5,580.3c0.1,33.8-6.4,67.2-19.2,98.5c-2.6,6.4-7.7,9-14.1,9c-1.3,0-3.8,0-5.1-1.3c-7.7-2.6-11.5-11.5-9-19.2
	c11.2-27.6,16.8-57.2,16.6-87c0-66.5-28.1-130.5-78-173.9c-6.4-5.1-6.4-15.3-1.3-21.7s15.3-6.4,21.7-1.3
	C801.5,433.3,833.6,505,833.5,580.3L833.5,580.3z"/>
</svg>
