<?xml version="1.0" encoding="utf-8"?>
<!-- Generator: Adobe Illustrator 24.1.0, SVG Export Plug-In . SVG Version: 6.00 Build 0)  -->
<svg version="1.1" id="Capa_1" xmlns="http://www.w3.org/2000/svg" xmlns:xlink="http://www.w3.org/1999/xlink" x="0px" y="0px"
	 viewBox="0 0 1080 1080" style="enable-background:new 0 0 1080 1080;" xml:space="preserve">
<style type="text/css">
	.st0{fill:#FFFFFF;}
</style>
<path class="st0" d="M791.3,103.5c-8.7-8.6-21.6-14.4-34.6-15.8H324.5c-13,1.4-24.5,7.2-34.6,15.8c-10.1,10.1-15.9,21.6-15.9,36v5.8
	l17.3,190.2v1.4c0,4.3,1.4,10.1,1.4,14.4l51.9,589.2c1.3,13.8,6.9,26.9,15.9,37.5l1.5,1.4c10.1,8.6,21.6,13,36,13h283.8
	c14.1,0,27.6-5.7,37.5-15.8c10.1-10.1,15.8-21.6,15.8-37.5L787,349.8c1.4-4.3,1.4-10.1,1.4-14.4V334l17.3-193v-4.3
	C807.1,125.1,801.4,112.1,791.3,103.5z M687.6,934.7c-1.4,2.9-1.4,4.3-2.9,5.8s-1.4,1.4-2.9,1.4H399.4c-1.4,0-1.4,0-1.4-1.4
	c-1.4-1.4-1.4-4.3-2.9-5.8l-2.9-33.1l299.7,1.4L687.6,934.7z M694.8,854.1l-308.3-1.4l-38.9-440.8c7.8,2.9,16.1,4.4,24.5,4.3
	c21,0.1,41.2-8.2,56.2-23c31.2,30.7,81.2,30.7,112.4,0c31.2,30.7,81.2,30.7,112.4,0c14.9,14.8,35.1,23.1,56.2,23
	c8.7,0,15.8-1.4,24.5-4.3L694.8,854.1z M740.9,342.6c-1.4,6-4.4,11.4-8.6,15.9c-5.8,5.8-13,10.1-21.6,10.1s-15.8-4.3-21.6-8.6
	c-5.8-5.8-8.6-13-8.6-21.6c0-13.5-11-24.5-24.5-24.5s-24.5,11-24.5,24.5c0,8.6-4.3,15.9-10.1,21.6S608.3,370,599.7,370
	s-15.8-4.3-21.6-8.6c-5.8-5.8-8.6-13-8.6-21.6c0.1-13.4-10.7-24.4-24.1-24.5c-0.1,0-0.3,0-0.4,0c-14.4,0-24.5,10.1-24.5,24.5
	c0,8.6-4.3,15.9-8.6,21.6c-5.8,5.8-13,10.1-21.6,10.1s-15.9-4.3-21.6-10.1s-10.1-13-10.1-21.6c0.1-13.4-10.7-24.4-24.1-24.5
	c-0.1,0-0.3,0-0.4,0c-14.4,0-24.5,10.1-24.5,24.5c0,8.7-2.9,15.9-8.6,21.6l-1.4,1.4c-5.8,5.8-13,10.1-21.6,10.1s-15.9-4.3-21.6-8.6
	c-4.2-4.4-7.2-9.9-8.6-15.9l-18.7-201.7v-1.4l-2.9-4.3c1.4-1.4,1.4-1.4,4.3-1.4h427.8c1.4,0,2.9,1.4,4.3,1.4l1.4,1.4L740.9,342.6z"
	/>
</svg>
