<?xml version="1.0" encoding="utf-8"?>
<!-- Generator: Adobe Illustrator 24.1.0, SVG Export Plug-In . SVG Version: 6.00 Build 0)  -->
<svg version="1.1" id="Capa_1" xmlns="http://www.w3.org/2000/svg" xmlns:xlink="http://www.w3.org/1999/xlink" x="0px" y="0px"
	 viewBox="0 0 1080 1080" style="enable-background:new 0 0 1080 1080;" xml:space="preserve">
<style type="text/css">
	.st0{fill:#FFFFFF;}
</style>
<path class="st0" d="M473.1,489c-7-8.5-18.3-12.7-29.6-12.7c-22.6,0-40.9,16.9-40.9,39.5c0,7,5.6,12.7,12.6,12.7c0,0,0.1,0,0.1,0
	l0,0c7,0,12.7-5.6,12.7-12.6c0,0,0-0.1,0-0.1c0-7.8,6.3-14.1,14.1-14.1c3.8-0.1,7.4,1.5,9.9,4.3c4.2,5.6,12.7,5.6,18.3,1.4
	C478.8,503.1,478.8,494.7,473.1,489z"/>
<path class="st0" d="M542.3,531.3c-4.3-9.9-11.3-16.9-21.2-19.7c-19.8-7-40.9,2.8-48,21.2c-2.8,7.1,1.4,14.1,7,16.9
	c1.4,0,2.8,1.4,4.2,1.4c5.6,0,9.9-2.8,12.7-8.5c2.8-5.7,8.5-8.5,14.1-7.1c2.8,1.4,5.6,2.8,5.6,5.7c2.8,7,9.9,9.9,16.9,7
	C542.3,545.5,545.1,538.4,542.3,531.3z"/>
<path class="st0" d="M625.5,417.1c-5.6-5.6-12.7-5.6-18.3,0l-12.7,12.7c-5.6,5.6-5.6,12.7,0,18.3c2.8,2.8,5.6,4.2,8.5,4.2
	c2.8,0,7-1.4,8.5-4.2l12.7-12.7C631.1,429.8,631.1,421.3,625.5,417.1z"/>
<path class="st0" d="M545.1,583.5h-16.9c-7-0.2-12.9,5.3-13.1,12.3c-0.2,7,5.3,12.9,12.3,13.1c0.2,0,0.5,0,0.7,0h16.9
	c7,0,12.7-5.6,12.7-12.6c0,0,0-0.1,0-0.1C559.2,589.2,552.1,583.5,545.1,583.5z"/>
<path class="st0" d="M677.7,583.5h-16.9c-7-0.2-12.9,5.3-13.1,12.3c-0.2,7,5.3,12.9,12.3,13.1c0.2,0,0.5,0,0.7,0h16.9
	c7-0.2,12.5-6,12.3-13.1C689.8,589.2,684.4,583.7,677.7,583.5z"/>
<path class="st0" d="M1012.1,782.3l-3-19.7c-3-12.1-13.6-21.2-25.7-21.2h-4.5L904.6,755l33.3-22.7c9.1-6,13.6-16.7,10.6-27.2
	c0-2.8-1.1-5.5-3-7.6l-10.6-18.2c-3-6.1-9.1-10.6-16.7-12.1c-3.4-1.5-7.2-1.5-10.6,0c3-21.2,6.1-40.9,6.1-62.1
	c0-9.1-6.1-18.2-13.6-21.2c10.6-25.7,10.6-54.5,1.5-80.2c-1.5-1.5-1.5-4.5-3-6.1s-3-3-6.1-3c-12.6-4.8-25.9-7.4-39.4-7.6h-4.5
	c-1.5-39.4-33.3-69.7-72.7-69.7c-4.5,0-10.6,0-15.1,1.5c3-19.7,1.5-40.9-6.1-60.6c-1.5-1.5-1.5-4.5-4.5-6.1
	c-1.7-1.9-3.8-3.4-6.1-4.5c-13.6-6.1-27.3-7.6-42.4-7.6c-21.5,0-42.6,6.3-60.6,18.2c-6-19.7-18.2-37.9-33.3-53
	c-4.5-4.5-10.6-7.6-16.7-7.6s-12.1,3-16.7,7.6l-66.6,68.2c-12.1-10.6-28.8-18.2-46.9-18.2c-4.5,0-7.6,0-12.1,1.5
	c-15.1,3-27.2,9.1-37.9,19.7c-13.6-6.1-28.8-9.1-42.4-6.1c-3,0-6.1,1.5-9.1,3V322c0-36.3-28.8-65.1-63.6-65.1v-28.8
	c10.6-1.5,19.7-12.1,19.7-22.7v-66.6c0-12.1-10.6-22.7-22.7-22.7H179.3c-12.1,0-22.7,10.6-22.7,22.7v66.6c0,12.1,7.6,21.2,19.7,22.7
	v28.8c-34.8,0-63.6,30.3-63.6,65.1v405.8c-27.3,25.7-45.4,60.6-45.4,98.4c0,75.7,66.6,137.8,148.4,137.8h555.7
	c19.7,0,36.3-9.1,48.5-22.7s16.7-31.8,13.6-50L944,911h4.5c5.4,0.1,10.7-1.5,15.1-4.5c6-4.5,9.1-10.6,10.6-18.2l3-19.7v-9.1
	c-1.5-10.6-9.1-18.2-19.7-21.2l-39.4-9.1l74.2-13.6c7.6-1.5,13.6-4.5,16.7-10.6C1012.1,795.9,1013.7,788.3,1012.1,782.3z
	 M854.7,512.8c8.3-0.1,16.5,1.4,24.2,4.5c7.6,21.2,4.5,45.4-6.1,63.6H835l12.1-12.1c6.1-6.1,6.1-13.6,0-19.7s-13.6-6.1-19.7,0
	l-6.1,6c-3-9.1-7.6-18.2-15.1-25.7C820.1,518.5,837.1,512.7,854.7,512.8z M775.9,443.1c25.1,0.1,45.4,20.4,45.4,45.4v1.5
	c-15.1,4.5-28.8,12.1-39.4,24.2c-1.5,0-3-1.5-6-1.5c-4.5-22.7-18.2-39.4-37.9-48.5C746.2,451.1,760.5,443.1,775.9,443.1z
	 M701.7,365.9c9.3,0,18.5,1.6,27.3,4.5c7.4,20.8,6.3,43.6-3,63.6c-7.6,7.6-13.6,15.1-18.2,24.2c-3,0-4.5,0-7.6,1.5
	c-11.2,1.7-21.6,6.4-30.3,13.6c-3-4.5-6-10.6-10.6-15.1l31.8-31.8c6.1-6.1,6.1-13.6,0-19.7s-13.6-6-19.7,0l-34.8,34.8
	c-6.1-3-13.6-6.1-21.2-6.1c3-16.6,10.6-31.8,24.2-45.4C657.8,375,679,365.9,701.7,365.9z M595.7,580.9h-12.1
	c-1.5-4.5-7.6-9.1-13.6-9.1s-10.6,3-13.6,9.1h-13.6c3-6.1,3-12.1-1.5-16.7c-6.1-6.1-13.6-6.1-19.7,0l-13.6,13.6
	c-1.5,1.5-1.5,3-3,4.5h-28.8c-10.6-16.7-16.7-34.8-18.2-56H679c-1.5,21.2-7.6,39.4-18.2,56h-28.8c0-1.5-1.5-3-3-4.5l-13.6-13.6
	c-6.1-6.1-13.6-6.1-19.7,0C592.7,568.8,592.7,574.8,595.7,580.9L595.7,580.9z M563.9,496.1c4.5-19.7,22.7-33.3,43.9-33.3
	s39.4,13.6,43.9,33.3H563.9z M591.2,326.5c13.6,13.6,22.7,31.8,25.7,48.5c-7.4,7.6-13.5,16.3-18.2,25.8c-1.5-1.5-4.5-1.5-7.6-1.5
	H573c-7.5,0-13.6,6.1-13.6,13.6s6.1,13.6,13.6,13.6h16.7c-1.5,4.5-1.5,7.6-1.5,12.1c-6.1,1.5-10.6,3-15.1,6.1
	c-9.1-16.7-24.2-27.3-42.4-33.3l0,0c-1.5-6.1-3-12.1-6.1-18.2L591.2,326.5z M339.8,450.7c-1.5-3-1.5-4.5-1.5-7.6
	c-4.5-22.7,12.1-45.4,34.8-48.5h7.6c9.4,0,18.4,3.2,25.7,9.1c3,3,7.6,3,10.6,3s7.6-3,9.1-6.1c6.1-9.1,16.6-16.6,28.8-18.2h7.6
	c20.4-0.2,37.8,14.7,40.9,34.8v7.6c0,7.6,6.1,13.6,12.1,13.6c15.1,1.5,28.8,10.6,34.8,24.2c-7.6,10.6-13.6,21.2-16.7,34.8h-78.7
	c-10.6,0-18.2,6.1-21.2,15.1c-18.2-12.1-37.8-18.2-59-18.2c-13.5,0.2-26.8,2.7-39.4,7.6c-1.5,1.5-4.5,1.5-6.1,3s-3,3-3,6.1
	c-3,7.6-6.1,16.7-6.1,24.2c-4.5-6.1-9.1-12.1-10.6-21.2c-3-18.2,6.1-37.9,24.2-45.4C339.8,465.8,342.9,458.2,339.8,450.7z
	 M382.2,576.3l4.5,4.5h-33.3c-7.6-16.7-9.1-37.8-3-56c7.7-3,15.9-4.5,24.2-4.5c21.2,0,40.9,7.6,56,22.7l6.1,6.1
	c3,10.6,6,21.2,10.6,30.3h-21.2l-22.7-22.7c-6-6.1-13.6-6.1-19.7,0C376.2,562.7,376.2,571.8,382.2,576.3L382.2,576.3z M323.2,580.9
	h-50c1.5-13.6,10.6-24.2,21.2-31.8c6.4,9.4,15.3,16.7,25.8,21.2C320.1,573.3,321.7,577.9,323.2,580.9L323.2,580.9z M182.4,138.7
	h104.5v57.5H182.4V138.7z M267.2,223.5v28.8H202v-28.8H267.2z M136.9,375h90.9c7.5,0.2,13.8-5.7,14-13.3c0.2-7.5-5.7-13.8-13.3-14
	c-0.2,0-0.5,0-0.7,0h-90.9v-28.8c-0.2-20.7,16.4-37.7,37.1-37.9c0.2,0,0.5,0,0.7,0h118.1c20.7-0.2,37.7,16.4,37.9,37.1
	c0,0.2,0,0.5,0,0.7v28.8H305c-7.5,0-13.6,6.1-13.6,13.6S297.5,375,305,375l0,0h25.7v12.1c-16.6,15.1-24.2,37.9-19.7,62.1l0,0
	c-22.7,15.1-34.8,42.4-28.8,69.7c0,1.5,0,3,1.5,4.5c-7.6,4.5-13.6,9.1-18.2,15.2H138.4L136.9,375z M136.9,565.8h110.5
	c-1.5,4.5-3,9.1-3,15.2h-3c-12.1,0-22.7,10.6-22.7,22.7c0,22.7,1.5,43.9,6.1,65.1h-12.2c-16.7,0-33.3,3-45.4,7.6
	c-18.2,7.5-24.2,18.1-25.7,25.7c-1.5,1.5-4.5,1.5-6.1,3C136.9,703.5,136.9,565.7,136.9,565.8L136.9,565.8z M314.1,736.8
	c4.5,4.5,7.6,7.6,9.1,10.6l0,0c-7.6,0-22.7-3-37.9-12.1c-6.1-3-12.1-7.6-16.7-10.6c-4.5-4.5-12.1-4.5-18.2,0
	c-4.5,3-10.6,7.6-16.6,10.6c-16.7,9.1-30.3,12.1-37.9,12.1l0,0c1.5-3,4.5-6.1,9.1-10.6c4.5-3,6.1-9.1,4.5-15.1s-6.1-9.1-12.1-10.6
	c-13.6-1.5-22.7-4.5-25.7-7.6c4.6-3,18.2-9.1,40.9-9.1c19.7,0,33.4,4.6,39.4,7.6c4.5,3,9.1,3,13.6,0c6.1-3,21.2-7.6,39.4-7.6
	c22.7,0,36.3,6.1,40.9,9.1c-4.5,3-12.1,6.1-25.8,7.6c-6,0-10.6,4.5-12.1,10.6C306.7,727.5,309.1,733.5,314.1,736.8z M285.3,906.4v3
	c1.3,8.9,4.9,17.3,10.6,24.2h-83.3c-66.6,0-121.1-50-121.1-110.5c0-40.9,25.7-77.2,62.1-96.9c4.6,3,9.1,6,16.7,7.6
	c-2.8,4-4.4,8.7-4.5,13.6c0,6,1.5,12.1,6.1,16.7c6.1,6.1,13.6,9.1,24.2,9.1c15.1,0,33.3-6.1,51.5-15.1c4.6-1.5,7.6-4.5,12.1-7.6
	c3,3,7.6,4.5,12.1,7.6c18.2,9.1,36.3,15.1,51.5,15.1l0,0c10.6,0,19.7-3,24.2-9.1c4.5-4.5,6.1-10.6,6.1-16.7
	c-0.1-4.9-1.7-9.6-4.5-13.6c5.9-1.6,11.6-4.2,16.7-7.6c30.3,15.1,51.5,40.9,59,71.2l-98.4,37.9C297.4,845.9,279.3,876.2,285.3,906.4
	z M797.1,920.1c-7.6,7.6-16.7,13.6-27.3,13.6h-15.1l-9.1-48.5c-1.5-7.6-9.1-12.1-16.7-10.6s-12.1,9.1-10.6,16.7l7.6,43.9h-48.5
	l-6.1-33.3c-1.5-7.6-9.1-12.1-16.7-10.6s-12.1,9.1-10.6,16.7l4.5,28.8H538.2l-9.1-45.4c-1.5-7.6-9.1-12.1-16.7-10.6
	s-12.1,9.1-10.6,16.7l7.6,40.9h-162c-16.6,0-31.8-12.1-34.8-28.8v-3c-3.1-16.9,6.5-33.6,22.7-39.4l54.5-21.2l4.5,22.7
	c1.5,6.1,7.6,12.1,13.6,12.1h3c7.6-1.5,12.1-9.1,10.6-16.7l-4.5-27.3l81.8-30.3c7.6-3,10.6-10.6,7.6-18.2s-10.6-10.6-18.2-7.6
	l-37.9,13.6c-10.6-37.9-37.9-68.1-74.2-86.3c-1.5-7.6-6.1-18.2-25.7-25.8c-12.1-4.5-28.8-7.6-45.4-7.6c-10.7,0.1-21.3,1.1-31.8,3
	v-9.1c0-7.5-6-13.6-13.5-13.6c0,0-0.1,0-0.1,0c-3,0-6.1,1.5-9.1,3c-1.5-15.1-3-28.8-3-43.9h452.7c7.5,0,13.6-6.1,13.6-13.6
	s-6.1-13.6-13.6-13.6h-6.1c9.1-18.2,13.6-39.4,13.6-60.6c0-12.2-9.1-22.6-21.2-24.2c4.5-4.5,12.1-7.6,19.7-9.1h6
	c18.2,0,33.3,12.1,36.3,30.3v6.1c0,7.6,6.1,13.6,12.1,13.6c16.7,1.4,30.3,13.8,33.3,30.3v12.1H779c-7.5-0.2-13.8,5.7-14,13.3
	c-0.2,7.5,5.7,13.8,13.3,14c0.2,0,0.5,0,0.7,0h107.5c0.1,25-3,49.9-9.1,74.2l-75.7,43.9c-4.5-16.7-15.1-30.3-30.3-37.8
	c-16.7-9-36.5-10.7-54.5-4.5l-154.5,59.1c-7.6,3-10.6,10.6-7.6,18.2s10.6,10.6,18.2,7.6l19.7-7.6l6.1,34.8
	c1.5,6.1,7.6,12.1,13.6,12.1h3c7.6-1.6,12.1-9.1,10.6-16.7l-7.6-39.4l109-40.9c10.6-4.5,21.2-3,30.3,1.5s15.1,13.6,18.2,24.2
	l28.8,151.4C806.2,900.4,804.7,911,797.1,920.1z M847.1,811.1c-6,1.5-10.6,6.1-12.1,13.6c0.2,6.4,4.5,11.9,10.6,13.6l103,24.2
	l-3,16.7L825.9,858l-18.2-101.5l104.5-62.1l9.1,15.1l-87.8,59c-6.1,3-7.6,10.6-4.5,16.7c2.9,5.7,8.8,9.2,15.2,9.1l137.8-25.8l3,16.7
	L847.1,811.1z"/>
</svg>
