<svg id="Grupo_1051" data-name="Grupo 1051" xmlns="http://www.w3.org/2000/svg" width="87.422" height="79.857" viewBox="0 0 87.422 79.857">
  <defs>
    <style>
      .cls-1 {
        opacity: 0.16;
        mix-blend-mode: multiply;
        isolation: isolate;
      }

      .cls-2 {
        fill: #fff;
      }

      .cls-3 {
        fill: #fafafa;
      }

      .cls-4 {
        fill: #f5f5f5;
      }

      .cls-5 {
        fill: #f0f0f0;
      }

      .cls-6 {
        fill: #ebebeb;
      }

      .cls-7 {
        fill: #e6e6e6;
      }

      .cls-8 {
        fill: #e1e1e1;
      }

      .cls-9 {
        fill: #dcdcdc;
      }

      .cls-10 {
        fill: #d7d7d7;
      }

      .cls-11 {
        fill: #d2d2d2;
      }

      .cls-12 {
        fill: #cdcdcd;
      }

      .cls-13 {
        fill: #c8c8c8;
      }

      .cls-14 {
        fill: #c3c3c3;
      }

      .cls-15 {
        fill: #bebebe;
      }

      .cls-16 {
        fill: #b9b9b9;
      }

      .cls-17 {
        fill: #b4b4b4;
      }

      .cls-18 {
        fill: #afafaf;
      }

      .cls-19 {
        fill: #aaa;
      }

      .cls-20 {
        fill: #a5a5a5;
      }

      .cls-21 {
        fill: #a0a0a0;
      }

      .cls-22 {
        fill: #9b9b9b;
      }

      .cls-23 {
        fill: #969696;
      }

      .cls-24 {
        fill: #919191;
      }

      .cls-25 {
        fill: #8c8c8c;
      }

      .cls-26 {
        fill: #878787;
      }

      .cls-27 {
        fill: #828282;
      }

      .cls-28 {
        fill: #7d7d7d;
      }

      .cls-29 {
        fill: #787878;
      }

      .cls-30 {
        fill: #737373;
      }

      .cls-31 {
        fill: #6e6e6e;
      }

      .cls-32 {
        fill: #696969;
      }

      .cls-33 {
        fill: #646464;
      }

      .cls-34 {
        fill: #5f5f5f;
      }

      .cls-35 {
        fill: #5a5a5a;
      }

      .cls-36 {
        fill: #555;
      }

      .cls-37 {
        fill: #505050;
      }

      .cls-38 {
        fill: #4b4b4b;
      }

      .cls-39 {
        fill: #464646;
      }

      .cls-40 {
        fill: #414141;
      }

      .cls-41 {
        fill: #3c3c3c;
      }

      .cls-42 {
        fill: #373737;
      }

      .cls-43 {
        fill: #323232;
      }

      .cls-44 {
        fill: #2d2d2d;
      }

      .cls-45 {
        fill: #282828;
      }

      .cls-46 {
        fill: #232323;
      }

      .cls-47 {
        fill: #1e1e1e;
      }

      .cls-48 {
        fill: #191919;
      }

      .cls-49 {
        fill: #141414;
      }

      .cls-50 {
        fill: #0f0f0f;
      }

      .cls-51 {
        fill: #0a0a0a;
      }

      .cls-52 {
        fill: #050505;
      }

      .cls-53 {
        fill: #eb477a;
      }
    </style>
  </defs>
  <g id="Grupo_55" data-name="Grupo 55" transform="translate(0 0)">
    <g id="Grupo_54" data-name="Grupo 54" transform="translate(0 0)">
      <g id="Grupo_48" data-name="Grupo 48" class="cls-1" transform="translate(0)">
        <circle id="Elipse_116" data-name="Elipse 116" class="cls-2" cx="27.691" cy="27.691" r="27.691" transform="translate(0 67.133) rotate(-76.717)"/>
        <ellipse id="Elipse_117" data-name="Elipse 117" class="cls-3" cx="27.691" cy="27.691" rx="27.691" ry="27.691" transform="translate(1.825 69.161) rotate(-80.783)"/>
        <circle id="Elipse_118" data-name="Elipse 118" class="cls-4" cx="27.691" cy="27.691" r="27.691" transform="translate(0.563 66.57) rotate(-76.717)"/>
        <ellipse id="Elipse_119" data-name="Elipse 119" class="cls-5" cx="27.691" cy="27.691" rx="27.691" ry="27.691" transform="translate(2.388 68.598) rotate(-80.783)"/>
        <ellipse id="Elipse_120" data-name="Elipse 120" class="cls-6" cx="27.691" cy="27.691" rx="27.691" ry="27.691" transform="translate(6.748 17.727)"/>
        <ellipse id="Elipse_121" data-name="Elipse 121" class="cls-7" cx="27.691" cy="27.691" rx="27.691" ry="27.691" transform="translate(2.951 68.035) rotate(-80.783)"/>
        <ellipse id="Elipse_122" data-name="Elipse 122" class="cls-8" cx="27.691" cy="27.691" rx="27.691" ry="27.691" transform="translate(7.311 17.164)"/>
        <circle id="Elipse_123" data-name="Elipse 123" class="cls-9" cx="27.691" cy="27.691" r="27.691" transform="translate(1.971 65.162) rotate(-76.717)"/>
        <ellipse id="Elipse_124" data-name="Elipse 124" class="cls-10" cx="27.691" cy="27.691" rx="27.691" ry="27.691" transform="translate(7.874 16.601)"/>
        <circle id="Elipse_125" data-name="Elipse 125" class="cls-11" cx="27.691" cy="27.691" r="27.691" transform="translate(2.534 64.599) rotate(-76.717)"/>
        <ellipse id="Elipse_126" data-name="Elipse 126" class="cls-12" cx="27.691" cy="27.691" rx="27.691" ry="27.691" transform="translate(4.359 66.627) rotate(-80.783)"/>
        <circle id="Elipse_127" data-name="Elipse 127" class="cls-13" cx="27.691" cy="27.691" r="27.691" transform="translate(3.097 64.036) rotate(-76.717)"/>
        <ellipse id="Elipse_128" data-name="Elipse 128" class="cls-14" cx="27.691" cy="27.691" rx="27.691" ry="27.691" transform="translate(4.922 66.064) rotate(-80.783)"/>
        <ellipse id="Elipse_129" data-name="Elipse 129" class="cls-15" cx="27.691" cy="27.691" rx="27.691" ry="27.691" transform="translate(9.281 15.194)"/>
        <ellipse id="Elipse_130" data-name="Elipse 130" class="cls-16" cx="27.691" cy="27.691" rx="27.691" ry="27.691" transform="translate(5.485 65.501) rotate(-80.783)"/>
        <ellipse id="Elipse_131" data-name="Elipse 131" class="cls-17" cx="27.691" cy="27.691" rx="27.691" ry="27.691" transform="translate(9.844 14.631)"/>
        <circle id="Elipse_132" data-name="Elipse 132" class="cls-18" cx="27.691" cy="27.691" r="27.691" transform="translate(4.505 62.628) rotate(-76.717)"/>
        <ellipse id="Elipse_133" data-name="Elipse 133" class="cls-19" cx="27.691" cy="27.691" rx="27.691" ry="27.691" transform="translate(10.407 14.067)"/>
        <circle id="Elipse_134" data-name="Elipse 134" class="cls-20" cx="27.691" cy="27.691" r="27.691" transform="translate(5.068 62.065) rotate(-76.717)"/>
        <ellipse id="Elipse_135" data-name="Elipse 135" class="cls-21" cx="27.691" cy="27.691" rx="27.691" ry="27.691" transform="translate(6.892 64.093) rotate(-80.783)"/>
        <circle id="Elipse_136" data-name="Elipse 136" class="cls-22" cx="27.691" cy="27.691" r="27.691" transform="translate(5.631 61.502) rotate(-76.717)"/>
        <ellipse id="Elipse_137" data-name="Elipse 137" class="cls-23" cx="27.691" cy="27.691" rx="27.691" ry="27.691" transform="translate(7.456 63.53) rotate(-80.783)"/>
        <ellipse id="Elipse_138" data-name="Elipse 138" class="cls-24" cx="27.691" cy="27.691" rx="27.691" ry="27.691" transform="translate(11.815 12.66)"/>
        <ellipse id="Elipse_139" data-name="Elipse 139" class="cls-25" cx="27.691" cy="27.691" rx="27.691" ry="27.691" transform="translate(8.019 62.967) rotate(-80.783)"/>
        <ellipse id="Elipse_140" data-name="Elipse 140" class="cls-26" cx="27.691" cy="27.691" rx="27.691" ry="27.691" transform="translate(12.378 12.097)"/>
        <circle id="Elipse_141" data-name="Elipse 141" class="cls-27" cx="27.691" cy="27.691" r="27.691" transform="translate(7.038 60.095) rotate(-76.717)"/>
        <ellipse id="Elipse_142" data-name="Elipse 142" class="cls-28" cx="27.691" cy="27.691" rx="27.691" ry="27.691" transform="translate(12.941 11.534)"/>
        <circle id="Elipse_143" data-name="Elipse 143" class="cls-29" cx="27.691" cy="27.691" r="27.691" transform="translate(7.601 59.531) rotate(-76.717)"/>
        <ellipse id="Elipse_144" data-name="Elipse 144" class="cls-30" cx="27.691" cy="27.691" rx="27.691" ry="27.691" transform="translate(9.426 61.56) rotate(-80.783)"/>
        <circle id="Elipse_145" data-name="Elipse 145" class="cls-31" cx="27.691" cy="27.691" r="27.691" transform="translate(8.165 58.968) rotate(-76.717)"/>
        <ellipse id="Elipse_146" data-name="Elipse 146" class="cls-32" cx="27.691" cy="27.691" rx="27.691" ry="27.691" transform="translate(9.989 60.997) rotate(-80.783)"/>
        <ellipse id="Elipse_147" data-name="Elipse 147" class="cls-33" cx="27.691" cy="27.691" rx="27.691" ry="27.691" transform="translate(14.349 10.126)"/>
        <ellipse id="Elipse_148" data-name="Elipse 148" class="cls-34" cx="27.691" cy="27.691" rx="27.691" ry="27.691" transform="translate(10.552 60.434) rotate(-80.783)"/>
        <ellipse id="Elipse_149" data-name="Elipse 149" class="cls-35" cx="27.691" cy="27.691" rx="27.691" ry="27.691" transform="translate(14.912 9.563)"/>
        <circle id="Elipse_150" data-name="Elipse 150" class="cls-36" cx="27.691" cy="27.691" r="27.691" transform="translate(9.572 57.561) rotate(-76.717)"/>
        <ellipse id="Elipse_151" data-name="Elipse 151" class="cls-37" cx="27.691" cy="27.691" rx="27.691" ry="27.691" transform="translate(15.475 9)"/>
        <circle id="Elipse_152" data-name="Elipse 152" class="cls-38" cx="27.691" cy="27.691" r="27.691" transform="translate(10.135 56.998) rotate(-76.717)"/>
        <ellipse id="Elipse_153" data-name="Elipse 153" class="cls-39" cx="27.691" cy="27.691" rx="27.691" ry="27.691" transform="translate(11.96 59.026) rotate(-80.783)"/>
        <circle id="Elipse_154" data-name="Elipse 154" class="cls-40" cx="27.691" cy="27.691" r="27.691" transform="translate(10.698 56.435) rotate(-76.717)"/>
        <ellipse id="Elipse_155" data-name="Elipse 155" class="cls-41" cx="27.691" cy="27.691" rx="27.691" ry="27.691" transform="translate(12.523 58.463) rotate(-80.783)"/>
        <ellipse id="Elipse_156" data-name="Elipse 156" class="cls-42" cx="27.691" cy="27.691" rx="27.691" ry="27.691" transform="translate(16.883 7.592)"/>
        <ellipse id="Elipse_157" data-name="Elipse 157" class="cls-43" cx="27.691" cy="27.691" rx="27.691" ry="27.691" transform="translate(13.086 57.9) rotate(-80.783)"/>
        <ellipse id="Elipse_158" data-name="Elipse 158" class="cls-44" cx="27.691" cy="27.691" rx="27.691" ry="27.691" transform="translate(17.446 7.029)"/>
        <circle id="Elipse_159" data-name="Elipse 159" class="cls-45" cx="27.691" cy="27.691" r="27.691" transform="translate(12.106 55.027) rotate(-76.717)"/>
        <ellipse id="Elipse_160" data-name="Elipse 160" class="cls-46" cx="27.691" cy="27.691" rx="27.691" ry="27.691" transform="translate(18.009 6.466)"/>
        <circle id="Elipse_161" data-name="Elipse 161" class="cls-47" cx="27.691" cy="27.691" r="27.691" transform="translate(12.669 54.464) rotate(-76.717)"/>
        <ellipse id="Elipse_162" data-name="Elipse 162" class="cls-48" cx="27.691" cy="27.691" rx="27.691" ry="27.691" transform="translate(14.494 56.492) rotate(-80.783)"/>
        <circle id="Elipse_163" data-name="Elipse 163" class="cls-49" cx="27.691" cy="27.691" r="27.691" transform="translate(13.232 53.901) rotate(-76.717)"/>
        <ellipse id="Elipse_164" data-name="Elipse 164" class="cls-50" cx="27.691" cy="27.691" rx="27.691" ry="27.691" transform="translate(15.057 55.929) rotate(-80.783)"/>
        <ellipse id="Elipse_165" data-name="Elipse 165" class="cls-51" cx="27.691" cy="27.691" rx="27.691" ry="27.691" transform="translate(19.417 5.058)"/>
        <ellipse id="Elipse_166" data-name="Elipse 166" class="cls-52" cx="27.691" cy="27.691" rx="27.691" ry="27.691" transform="translate(15.62 55.366) rotate(-80.783)"/>
        <ellipse id="Elipse_167" data-name="Elipse 167" cx="27.691" cy="27.691" rx="27.691" ry="27.691" transform="translate(19.98 4.495)"/>
      </g>
      <g id="Grupo_49" data-name="Grupo 49" transform="translate(19.739 4.255)">
        <ellipse id="Elipse_168" data-name="Elipse 168" class="cls-53" cx="27.691" cy="27.691" rx="27.691" ry="27.691" transform="translate(0.241 0.241)"/>
        <path id="Trazado_190" data-name="Trazado 190" class="cls-53" d="M666.933-181.563A27.963,27.963,0,0,1,639-209.494a27.963,27.963,0,0,1,27.932-27.932,27.964,27.964,0,0,1,27.932,27.932A27.963,27.963,0,0,1,666.933-181.563Zm0-55.382a27.482,27.482,0,0,0-27.45,27.45,27.482,27.482,0,0,0,27.45,27.451,27.482,27.482,0,0,0,27.45-27.451A27.482,27.482,0,0,0,666.933-236.945Z" transform="translate(-639.001 237.426)"/>
      </g>
      <g id="Grupo_53" data-name="Grupo 53" transform="translate(22.305 2.19)">
        <g id="Grupo_50" data-name="Grupo 50">
          <path id="Trazado_191" data-name="Trazado 191" d="M675.43-181.478a31.133,31.133,0,0,1-31.1-31.1,29.174,29.174,0,0,1,29.141-29.141,27.34,27.34,0,0,1,27.309,27.309,25.623,25.623,0,0,1-25.594,25.594,23.942,23.942,0,0,1-23.962-22.861.313.313,0,0,1,.3-.327.318.318,0,0,1,.327.3,23.318,23.318,0,0,0,23.337,22.265,25,25,0,0,0,24.968-24.969,26.714,26.714,0,0,0-26.684-26.684,28.548,28.548,0,0,0-28.516,28.516A30.507,30.507,0,0,0,675.43-182.1a32.42,32.42,0,0,0,32.542-31.455.317.317,0,0,1,.323-.3.313.313,0,0,1,.3.323,33,33,0,0,1-10.075,22.707A33.015,33.015,0,0,1,675.43-181.478Z" transform="translate(-644.333 241.717)"/>
        </g>
        <g id="Grupo_51" data-name="Grupo 51" transform="translate(62.766 27.052)">
          <path id="Trazado_192" data-name="Trazado 192" d="M774.785-184.346a1.176,1.176,0,0,1,1.2-1.146,1.176,1.176,0,0,1,1.146,1.205,1.176,1.176,0,0,1-1.205,1.146A1.175,1.175,0,0,1,774.785-184.346Z" transform="translate(-774.785 185.493)"/>
        </g>
        <g id="Grupo_52" data-name="Grupo 52" transform="translate(6.065 28.914)">
          <path id="Trazado_193" data-name="Trazado 193" d="M659.289-180.505a1.176,1.176,0,0,0-1.234-1.115,1.176,1.176,0,0,0-1.115,1.234,1.176,1.176,0,0,0,1.234,1.115A1.176,1.176,0,0,0,659.289-180.505Z" transform="translate(-656.939 181.622)"/>
        </g>
      </g>
    </g>
  </g>
  <g id="Grupo_75" data-name="Grupo 75" transform="translate(38.311 17.76)">
    <path id="Trazado_220" data-name="Trazado 220" class="cls-2" d="M168.828,368.986h-5.554a.487.487,0,0,0,0,.974h5.554a.487.487,0,0,0,0-.974Z" transform="translate(-155.678 -351.147)"/>
    <path id="Trazado_221" data-name="Trazado 221" class="cls-2" d="M119.127,421.1a.487.487,0,0,0,.487.487h2.718a.487.487,0,0,0,0-.974h-2.718A.487.487,0,0,0,119.127,421.1Z" transform="translate(-114.129 -400.282)"/>
    <path id="Trazado_222" data-name="Trazado 222" class="cls-2" d="M265.124,421.1a.487.487,0,0,0,.487.487h2.718a.487.487,0,0,0,0-.974h-2.718A.487.487,0,0,0,265.124,421.1Z" transform="translate(-253.067 -400.282)"/>
    <path id="Trazado_223" data-name="Trazado 223" class="cls-2" d="M220.619,420.617a.487.487,0,0,0,0,.974h.01a.487.487,0,0,0,0-.974Z" transform="translate(-210.25 -400.282)"/>
    <path id="Trazado_224" data-name="Trazado 224" class="cls-2" d="M16.229,147.177a.487.487,0,0,0,.487-.487v-.01a.487.487,0,1,0-.974,0v.01A.487.487,0,0,0,16.229,147.177Z" transform="translate(-15.742 -139.126)"/>
    <path id="Trazado_225" data-name="Trazado 225" class="cls-2" d="M38.4,19.208,36.213,17.02V4.691c0-.016,0-.031,0-.046s0-.013,0-.019,0-.017,0-.026,0-.015-.005-.023l-.005-.021-.008-.024-.007-.019-.01-.023-.009-.018-.011-.021-.011-.019-.012-.019-.015-.019L36.1,4.378l0,0L32.47.169l-.01-.01L32.439.136,32.424.123,32.4.1,32.385.091,32.36.074l-.016-.01L32.314.049,32.3.042,32.266.029l-.013,0-.037-.01-.012,0L32.164,0l-.01,0L32.1,0H17.919a2.18,2.18,0,0,0-2.177,2.179V5.385a.487.487,0,1,0,.974,0V2.179a1.206,1.206,0,0,1,1.2-1.205h13.7V4.112a1.068,1.068,0,0,0,1.068,1.066h2.557V16.047L34.17,14.978l-.008-.009-.009-.008-2.3-2.3a6.479,6.479,0,1,0-10.479,1.42.485.485,0,0,0,.077.081,6.467,6.467,0,0,0,7.655,1.247l2.295,2.3.008.009.009.008,3.817,3.818v1.03a1.206,1.206,0,0,1-1.2,1.205H17.919a1.206,1.206,0,0,1-1.2-1.205V9.725a.487.487,0,1,0-.974,0V22.574a2.18,2.18,0,0,0,2.177,2.179H34.036a2.18,2.18,0,0,0,2.177-2.179v-.2a1.74,1.74,0,0,0,.8.2A2,2,0,0,0,38.4,19.208Zm-5.812-15.1V1.8L34.664,4.2H32.683A.1.1,0,0,1,32.589,4.112Zm-6.473.051a5.5,5.5,0,0,1,4.76,8.268.484.484,0,0,0-.08.133q-.144.232-.309.448a5.068,5.068,0,0,0-2.639-2.317,2.892,2.892,0,1,0-3.619,0,5.063,5.063,0,0,0-2.573,2.2,5.5,5.5,0,0,1,4.459-8.732ZM24.122,8.441a1.918,1.918,0,1,1,1.919,1.918,1.921,1.921,0,0,1-1.919-1.918Zm-1.776,5.237a4.081,4.081,0,0,1,7.432.1,5.54,5.54,0,0,1-.768.575.485.485,0,0,0-.135.081,5.494,5.494,0,0,1-6.53-.754Zm8.3.615a.485.485,0,0,0,.088-.088,6.533,6.533,0,0,0,.59-.692l1.8,1.8-1.371,1.371-1.8-1.8a6.53,6.53,0,0,0,.692-.59ZM37.667,21.3a.871.871,0,0,1-1.327-.032l-3.894-3.9L33.818,16l1.555,1.555.019.019,2.32,2.32a.971.971,0,0,1-.044,1.4Z" transform="translate(-15.742)"/>
  </g>
</svg>
