<svg id="Grupo_77" data-name="Grupo 77" xmlns="http://www.w3.org/2000/svg" width="90.29" height="85.592" viewBox="0 0 90.29 85.592">
  <g id="Grupo_39" data-name="Grupo 39" transform="translate(0 0)">
    <g id="Grupo_33" data-name="Grupo 33" transform="translate(0 0)" opacity="0.16" style="mix-blend-mode: multiply;isolation: isolate">
      <ellipse id="Elipse_10" data-name="Elipse 10" cx="27.691" cy="27.691" rx="27.691" ry="27.691" transform="translate(0 34.426) rotate(-22.5)" fill="#fff"/>
      <ellipse id="Elipse_11" data-name="Elipse 11" cx="27.691" cy="27.691" rx="27.691" ry="27.691" transform="translate(3.149 69.719) rotate(-76.717)" fill="#fafafa"/>
      <ellipse id="Elipse_12" data-name="Elipse 12" cx="27.691" cy="27.691" rx="27.691" ry="27.691" transform="translate(0.563 33.863) rotate(-22.5)" fill="#f5f5f5"/>
      <ellipse id="Elipse_13" data-name="Elipse 13" cx="27.691" cy="27.691" rx="27.691" ry="27.691" transform="translate(3.712 69.156) rotate(-76.717)" fill="#f0f0f0"/>
      <ellipse id="Elipse_14" data-name="Elipse 14" cx="27.691" cy="27.691" rx="27.691" ry="27.691" transform="translate(9.615 20.595)" fill="#ebebeb"/>
      <ellipse id="Elipse_15" data-name="Elipse 15" cx="27.691" cy="27.691" rx="27.691" ry="27.691" transform="translate(4.275 68.593) rotate(-76.717)" fill="#e6e6e6"/>
      <ellipse id="Elipse_16" data-name="Elipse 16" cx="27.691" cy="27.691" rx="27.691" ry="27.691" transform="translate(10.178 20.032)" fill="#e1e1e1"/>
      <ellipse id="Elipse_17" data-name="Elipse 17" cx="27.691" cy="27.691" rx="27.691" ry="27.691" transform="translate(1.971 32.455) rotate(-22.5)" fill="#dcdcdc"/>
      <ellipse id="Elipse_18" data-name="Elipse 18" cx="27.691" cy="27.691" rx="27.691" ry="27.691" transform="translate(10.741 19.469)" fill="#d7d7d7"/>
      <ellipse id="Elipse_19" data-name="Elipse 19" cx="27.691" cy="27.691" rx="27.691" ry="27.691" transform="translate(2.534 31.892) rotate(-22.5)" fill="#d2d2d2"/>
      <ellipse id="Elipse_20" data-name="Elipse 20" cx="27.691" cy="27.691" rx="27.691" ry="27.691" transform="translate(5.683 67.185) rotate(-76.717)" fill="#cdcdcd"/>
      <ellipse id="Elipse_21" data-name="Elipse 21" cx="27.691" cy="27.691" rx="27.691" ry="27.691" transform="translate(3.097 31.329) rotate(-22.5)" fill="#c8c8c8"/>
      <ellipse id="Elipse_22" data-name="Elipse 22" cx="27.691" cy="27.691" rx="27.691" ry="27.691" transform="translate(6.246 66.622) rotate(-76.717)" fill="#c3c3c3"/>
      <ellipse id="Elipse_23" data-name="Elipse 23" cx="27.691" cy="27.691" rx="27.691" ry="27.691" transform="translate(12.149 18.061)" fill="#bebebe"/>
      <ellipse id="Elipse_24" data-name="Elipse 24" cx="27.691" cy="27.691" rx="27.691" ry="27.691" transform="translate(6.809 66.059) rotate(-76.717)" fill="#b9b9b9"/>
      <ellipse id="Elipse_25" data-name="Elipse 25" cx="27.691" cy="27.691" rx="27.691" ry="27.691" transform="translate(12.712 17.498)" fill="#b4b4b4"/>
      <ellipse id="Elipse_26" data-name="Elipse 26" cx="27.691" cy="27.691" rx="27.691" ry="27.691" transform="translate(4.505 29.921) rotate(-22.5)" fill="#afafaf"/>
      <ellipse id="Elipse_27" data-name="Elipse 27" cx="27.691" cy="27.691" rx="27.691" ry="27.691" transform="translate(13.275 16.935)" fill="#aaa"/>
      <ellipse id="Elipse_28" data-name="Elipse 28" cx="27.691" cy="27.691" rx="27.691" ry="27.691" transform="translate(5.068 29.358) rotate(-22.5)" fill="#a5a5a5"/>
      <ellipse id="Elipse_29" data-name="Elipse 29" cx="27.691" cy="27.691" rx="27.691" ry="27.691" transform="translate(8.217 64.651) rotate(-76.717)" fill="#a0a0a0"/>
      <ellipse id="Elipse_30" data-name="Elipse 30" cx="27.691" cy="27.691" rx="27.691" ry="27.691" transform="translate(5.631 28.795) rotate(-22.5)" fill="#9b9b9b"/>
      <ellipse id="Elipse_31" data-name="Elipse 31" cx="27.691" cy="27.691" rx="27.691" ry="27.691" transform="translate(8.78 64.088) rotate(-76.717)" fill="#969696"/>
      <ellipse id="Elipse_32" data-name="Elipse 32" cx="27.691" cy="27.691" rx="27.691" ry="27.691" transform="translate(14.683 15.527)" fill="#919191"/>
      <ellipse id="Elipse_33" data-name="Elipse 33" cx="27.691" cy="27.691" rx="27.691" ry="27.691" transform="translate(9.343 63.525) rotate(-76.717)" fill="#8c8c8c"/>
      <ellipse id="Elipse_34" data-name="Elipse 34" cx="27.691" cy="27.691" rx="27.691" ry="27.691" transform="translate(15.246 14.964)" fill="#878787"/>
      <ellipse id="Elipse_35" data-name="Elipse 35" cx="27.691" cy="27.691" rx="27.691" ry="27.691" transform="translate(7.038 27.388) rotate(-22.5)" fill="#828282"/>
      <ellipse id="Elipse_36" data-name="Elipse 36" cx="27.691" cy="27.691" rx="27.691" ry="27.691" transform="translate(15.809 14.401)" fill="#7d7d7d"/>
      <ellipse id="Elipse_37" data-name="Elipse 37" cx="27.691" cy="27.691" rx="27.691" ry="27.691" transform="translate(7.601 26.825) rotate(-22.5)" fill="#787878"/>
      <ellipse id="Elipse_38" data-name="Elipse 38" cx="27.691" cy="27.691" rx="27.691" ry="27.691" transform="translate(10.751 62.118) rotate(-76.717)" fill="#737373"/>
      <ellipse id="Elipse_39" data-name="Elipse 39" cx="27.691" cy="27.691" rx="27.691" ry="27.691" transform="translate(8.165 26.262) rotate(-22.5)" fill="#6e6e6e"/>
      <ellipse id="Elipse_40" data-name="Elipse 40" cx="27.691" cy="27.691" rx="27.691" ry="27.691" transform="translate(11.314 61.554) rotate(-76.717)" fill="#696969"/>
      <ellipse id="Elipse_41" data-name="Elipse 41" cx="27.691" cy="27.691" rx="27.691" ry="27.691" transform="translate(17.217 12.994)" fill="#646464"/>
      <ellipse id="Elipse_42" data-name="Elipse 42" cx="27.691" cy="27.691" rx="27.691" ry="27.691" transform="translate(11.877 60.991) rotate(-76.717)" fill="#5f5f5f"/>
      <ellipse id="Elipse_43" data-name="Elipse 43" cx="27.691" cy="27.691" rx="27.691" ry="27.691" transform="translate(17.78 12.431)" fill="#5a5a5a"/>
      <ellipse id="Elipse_44" data-name="Elipse 44" cx="27.691" cy="27.691" rx="27.691" ry="27.691" transform="translate(9.572 24.854) rotate(-22.5)" fill="#555"/>
      <ellipse id="Elipse_45" data-name="Elipse 45" cx="27.691" cy="27.691" rx="27.691" ry="27.691" transform="translate(18.343 11.867)" fill="#505050"/>
      <ellipse id="Elipse_46" data-name="Elipse 46" cx="27.691" cy="27.691" rx="27.691" ry="27.691" transform="translate(10.135 24.291) rotate(-22.5)" fill="#4b4b4b"/>
      <ellipse id="Elipse_47" data-name="Elipse 47" cx="27.691" cy="27.691" rx="27.691" ry="27.691" transform="translate(13.285 59.584) rotate(-76.717)" fill="#464646"/>
      <ellipse id="Elipse_48" data-name="Elipse 48" cx="27.691" cy="27.691" rx="27.691" ry="27.691" transform="translate(10.698 23.728) rotate(-22.5)" fill="#414141"/>
      <ellipse id="Elipse_49" data-name="Elipse 49" cx="27.691" cy="27.691" rx="27.691" ry="27.691" transform="translate(13.848 59.021) rotate(-76.717)" fill="#3c3c3c"/>
      <ellipse id="Elipse_50" data-name="Elipse 50" cx="27.691" cy="27.691" rx="27.691" ry="27.691" transform="translate(19.75 10.46)" fill="#373737"/>
      <ellipse id="Elipse_51" data-name="Elipse 51" cx="27.691" cy="27.691" rx="27.691" ry="27.691" transform="translate(14.411 58.458) rotate(-76.717)" fill="#323232"/>
      <ellipse id="Elipse_52" data-name="Elipse 52" cx="27.691" cy="27.691" rx="27.691" ry="27.691" transform="translate(20.314 9.897)" fill="#2d2d2d"/>
      <ellipse id="Elipse_53" data-name="Elipse 53" cx="27.691" cy="27.691" rx="27.691" ry="27.691" transform="translate(12.106 22.32) rotate(-22.5)" fill="#282828"/>
      <ellipse id="Elipse_54" data-name="Elipse 54" cx="27.691" cy="27.691" rx="27.691" ry="27.691" transform="translate(20.877 9.334)" fill="#232323"/>
      <ellipse id="Elipse_55" data-name="Elipse 55" cx="27.691" cy="27.691" rx="27.691" ry="27.691" transform="translate(12.669 21.757) rotate(-22.5)" fill="#1e1e1e"/>
      <ellipse id="Elipse_56" data-name="Elipse 56" cx="27.691" cy="27.691" rx="27.691" ry="27.691" transform="translate(15.818 57.05) rotate(-76.717)" fill="#191919"/>
      <ellipse id="Elipse_57" data-name="Elipse 57" cx="27.691" cy="27.691" rx="27.691" ry="27.691" transform="translate(13.232 21.194) rotate(-22.5)" fill="#141414"/>
      <ellipse id="Elipse_58" data-name="Elipse 58" cx="27.691" cy="27.691" rx="27.691" ry="27.691" transform="translate(16.381 56.487) rotate(-76.717)" fill="#0f0f0f"/>
      <ellipse id="Elipse_59" data-name="Elipse 59" cx="27.691" cy="27.691" rx="27.691" ry="27.691" transform="translate(22.284 7.926)" fill="#0a0a0a"/>
      <ellipse id="Elipse_60" data-name="Elipse 60" cx="27.691" cy="27.691" rx="27.691" ry="27.691" transform="translate(16.944 55.924) rotate(-76.717)" fill="#050505"/>
      <ellipse id="Elipse_61" data-name="Elipse 61" cx="27.691" cy="27.691" rx="27.691" ry="27.691" transform="translate(22.847 7.363)"/>
    </g>
    <g id="Grupo_34" data-name="Grupo 34" transform="translate(22.607 7.122)">
      <ellipse id="Elipse_62" data-name="Elipse 62" cx="27.691" cy="27.691" rx="27.691" ry="27.691" transform="translate(0.24 0.241)" fill="#7dc7c5"/>
      <path id="Trazado_182" data-name="Trazado 182" d="M269.8-174.77A27.963,27.963,0,0,1,241.866-202.7,27.963,27.963,0,0,1,269.8-230.633,27.963,27.963,0,0,1,297.729-202.7,27.963,27.963,0,0,1,269.8-174.77Zm0-55.382a27.482,27.482,0,0,0-27.451,27.45,27.482,27.482,0,0,0,27.451,27.45,27.482,27.482,0,0,0,27.45-27.45A27.482,27.482,0,0,0,269.8-230.152Z" transform="translate(-241.866 230.633)" fill="#7dc7c5"/>
    </g>
    <g id="Grupo_38" data-name="Grupo 38" transform="translate(25.172 5.058)">
      <g id="Grupo_35" data-name="Grupo 35" transform="translate(0)">
        <path id="Trazado_183" data-name="Trazado 183" d="M278.3-174.686a31.132,31.132,0,0,1-31.1-31.1,29.174,29.174,0,0,1,29.141-29.141,27.34,27.34,0,0,1,27.309,27.309,25.623,25.623,0,0,1-25.594,25.594,23.943,23.943,0,0,1-23.962-22.861.313.313,0,0,1,.3-.327.312.312,0,0,1,.327.3,23.318,23.318,0,0,0,23.337,22.265,25,25,0,0,0,24.969-24.969A26.715,26.715,0,0,0,276.339-234.3a28.548,28.548,0,0,0-28.516,28.516A30.506,30.506,0,0,0,278.3-175.311a32.42,32.42,0,0,0,32.542-31.455.316.316,0,0,1,.323-.3.313.313,0,0,1,.3.323,33,33,0,0,1-10.075,22.706A33.013,33.013,0,0,1,278.3-174.686Z" transform="translate(-247.198 234.924)"/>
      </g>
      <g id="Grupo_36" data-name="Grupo 36" transform="translate(62.766 27.052)">
        <path id="Trazado_184" data-name="Trazado 184" d="M377.651-177.554a1.176,1.176,0,0,1,1.2-1.146A1.176,1.176,0,0,1,380-177.494a1.176,1.176,0,0,1-1.205,1.146A1.175,1.175,0,0,1,377.651-177.554Z" transform="translate(-377.65 178.7)"/>
      </g>
      <g id="Grupo_37" data-name="Grupo 37" transform="translate(6.065 28.914)">
        <path id="Trazado_185" data-name="Trazado 185" d="M262.154-173.712a1.176,1.176,0,0,0-1.234-1.115,1.176,1.176,0,0,0-1.115,1.234,1.176,1.176,0,0,0,1.234,1.115A1.176,1.176,0,0,0,262.154-173.712Z" transform="translate(-259.804 174.829)"/>
      </g>
    </g>
  </g>
  <g id="Outline" transform="translate(38.311 21.901)">
    <path id="Trazado_203" data-name="Trazado 203" d="M28.328,218.647a5.3,5.3,0,1,0-3.854-1.669l-2.215,3.5a1.325,1.325,0,0,0,2.224,1.439l.015-.023,2.214-3.5a5.272,5.272,0,0,0,1.615.253ZM24.6,210.988a4.416,4.416,0,1,1,1.371,6.093A4.416,4.416,0,0,1,24.6,210.988Zm-.853,10.433a.442.442,0,0,1-.757-.455l.011-.017,2.135-3.374q.175.132.363.252c.126.079.254.152.383.22Z" transform="translate(-22.046 -197.452)" fill="#fff"/>
    <path id="Trazado_204" data-name="Trazado 204" d="M73.5,246.51a3.533,3.533,0,1,0-1.1-4.874h0a3.511,3.511,0,0,0,1.061,4.851Zm-.351-4.4a2.649,2.649,0,1,1,.822,3.656A2.65,2.65,0,0,1,73.147,242.108Z" transform="translate(-69.097 -227.628)" fill="#fff"/>
    <path id="Trazado_205" data-name="Trazado 205" d="M318.564,161.68a3.531,3.531,0,1,0-1.1,4.874A3.531,3.531,0,0,0,318.564,161.68Zm-1.569,4.128a2.649,2.649,0,1,1,.822-3.656h0a2.652,2.652,0,0,1-.822,3.655Z" transform="translate(-296.041 -152.087)" fill="#fff"/>
    <path id="Trazado_206" data-name="Trazado 206" d="M291.731,140.861l-2.215-3.5a5.286,5.286,0,1,0-2.239,1.416l2.214,3.5a1.325,1.325,0,0,0,2.239-1.416Zm-9.809-4.768a4.416,4.416,0,1,1,6.093,1.371A4.416,4.416,0,0,1,281.922,136.092Zm9.12,5.573a.442.442,0,0,1-.8.139L288.1,138.43c.129-.068.257-.14.383-.22s.247-.164.363-.252l2.135,3.374a.439.439,0,0,1,.058.333Z" transform="translate(-266.117 -122.25)" fill="#fff"/>
    <path id="Trazado_207" data-name="Trazado 207" d="M115.871,355.091h-2.208V352h-.883v4.857a1.755,1.755,0,0,0,.238.883H97.766a.884.884,0,0,1-.883-.883v-.883H96v.883a1.768,1.768,0,0,0,1.766,1.766h16.78a1.768,1.768,0,0,0,1.766-1.766v-1.325A.442.442,0,0,0,115.871,355.091Zm-.442,1.766a.883.883,0,1,1-1.766,0v-.883h1.766Z" transform="translate(-91.918 -333.454)" fill="#fff"/>
    <path id="Trazado_208" data-name="Trazado 208" d="M96.883,48.883h15.9v2.649h.883V48.442a.442.442,0,0,0-.442-.442H96.442a.442.442,0,0,0-.442.442V56.39h.883Z" transform="translate(-91.918 -46.234)" fill="#fff"/>
    <path id="Trazado_209" data-name="Trazado 209" d="M160,96h.883v.883H160Z" transform="translate(-152.385 -91.584)" fill="#fff"/>
    <path id="Trazado_210" data-name="Trazado 210" d="M144,128h8.39v.883H144Z" transform="translate(-137.268 -121.818)" fill="#fff"/>
    <path id="Trazado_211" data-name="Trazado 211" d="M144,160h7.065v.883H144Z" transform="translate(-137.268 -152.052)" fill="#fff"/>
    <path id="Trazado_212" data-name="Trazado 212" d="M192,192h3.974v.883H192Z" transform="translate(-182.619 -182.285)" fill="#fff"/>
    <path id="Trazado_213" data-name="Trazado 213" d="M192,96h9.715v.883H192Z" transform="translate(-182.619 -91.584)" fill="#fff"/>
    <path id="Trazado_214" data-name="Trazado 214" d="M248,344h.883v.883H248Z" transform="translate(-235.528 -325.895)" fill="#fff"/>
    <path id="Trazado_215" data-name="Trazado 215" d="M224,376h7.948v.883H224Z" transform="translate(-212.853 -356.129)" fill="#fff"/>
    <path id="Trazado_216" data-name="Trazado 216" d="M192,408h9.715v.883H192Z" transform="translate(-182.619 -386.363)" fill="#fff"/>
    <path id="Trazado_217" data-name="Trazado 217" d="M280,344h4.857v.883H280Z" transform="translate(-265.762 -325.895)" fill="#fff"/>
    <path id="Trazado_218" data-name="Trazado 218" d="M136,16h10.6v.883H136Z" transform="translate(-129.71 -16)" fill="#fff"/>
    <path id="Trazado_219" data-name="Trazado 219" d="M344,16h.883v.883H344Z" transform="translate(-326.229 -16)" fill="#fff"/>
  </g>
</svg>
