<svg id="Grupo_1052" data-name="Grupo 1052" xmlns="http://www.w3.org/2000/svg" width="88.319" height="82.496" viewBox="0 0 88.319 82.496">
  <g id="Grupo_47" data-name="Grupo 47" transform="translate(0 0)">
    <g id="Grupo_46" data-name="Grupo 46" transform="translate(0 0)">
      <g id="Grupo_40" data-name="Grupo 40" transform="translate(0)" opacity="0.16" style="mix-blend-mode: multiply;isolation: isolate">
        <circle id="Elipse_63" data-name="Elipse 63" cx="27.691" cy="27.691" r="27.691" transform="translate(0.897 68.874) rotate(-76.717)" fill="#fff"/>
        <ellipse id="Elipse_64" data-name="Elipse 64" cx="27.691" cy="27.691" rx="27.691" ry="27.691" transform="matrix(0.23, -0.973, 0.973, 0.23, 1.178, 68.593)" fill="#fafafa"/>
        <circle id="Elipse_65" data-name="Elipse 65" cx="27.691" cy="27.691" r="27.691" transform="translate(1.46 68.311) rotate(-76.717)" fill="#f5f5f5"/>
        <ellipse id="Elipse_66" data-name="Elipse 66" cx="27.691" cy="27.691" rx="27.691" ry="27.691" transform="matrix(0.23, -0.973, 0.973, 0.23, 1.742, 68.03)" fill="#f0f0f0"/>
        <ellipse id="Elipse_67" data-name="Elipse 67" cx="27.691" cy="27.691" rx="27.691" ry="27.691" transform="translate(7.644 19.469)" fill="#ebebeb"/>
        <ellipse id="Elipse_68" data-name="Elipse 68" cx="27.691" cy="27.691" rx="27.691" ry="27.691" transform="translate(3.848 69.777) rotate(-80.783)" fill="#e6e6e6"/>
        <ellipse id="Elipse_69" data-name="Elipse 69" cx="27.691" cy="27.691" rx="27.691" ry="27.691" transform="translate(8.208 18.906)" fill="#e1e1e1"/>
        <ellipse id="Elipse_70" data-name="Elipse 70" cx="27.691" cy="27.691" rx="27.691" ry="27.691" transform="translate(0 31.329) rotate(-22.5)" fill="#dcdcdc"/>
        <ellipse id="Elipse_71" data-name="Elipse 71" cx="27.691" cy="27.691" rx="27.691" ry="27.691" transform="translate(8.771 18.343)" fill="#d7d7d7"/>
        <circle id="Elipse_72" data-name="Elipse 72" cx="27.691" cy="27.691" r="27.691" transform="translate(3.431 66.341) rotate(-76.717)" fill="#d2d2d2"/>
        <ellipse id="Elipse_73" data-name="Elipse 73" cx="27.691" cy="27.691" rx="27.691" ry="27.691" transform="matrix(0.23, -0.973, 0.973, 0.23, 3.712, 66.059)" fill="#cdcdcd"/>
        <circle id="Elipse_74" data-name="Elipse 74" cx="27.691" cy="27.691" r="27.691" transform="translate(3.994 65.778) rotate(-76.717)" fill="#c8c8c8"/>
        <ellipse id="Elipse_75" data-name="Elipse 75" cx="27.691" cy="27.691" rx="27.691" ry="27.691" transform="matrix(0.23, -0.973, 0.973, 0.23, 4.275, 65.496)" fill="#c3c3c3"/>
        <ellipse id="Elipse_76" data-name="Elipse 76" cx="27.691" cy="27.691" rx="27.691" ry="27.691" transform="translate(10.178 16.935)" fill="#bebebe"/>
        <ellipse id="Elipse_77" data-name="Elipse 77" cx="27.691" cy="27.691" rx="27.691" ry="27.691" transform="translate(6.382 67.243) rotate(-80.783)" fill="#b9b9b9"/>
        <ellipse id="Elipse_78" data-name="Elipse 78" cx="27.691" cy="27.691" rx="27.691" ry="27.691" transform="translate(10.741 16.372)" fill="#b4b4b4"/>
        <ellipse id="Elipse_79" data-name="Elipse 79" cx="27.691" cy="27.691" rx="27.691" ry="27.691" transform="translate(2.534 28.795) rotate(-22.5)" fill="#afafaf"/>
        <ellipse id="Elipse_80" data-name="Elipse 80" cx="27.691" cy="27.691" rx="27.691" ry="27.691" transform="translate(11.304 15.809)" fill="#aaa"/>
        <circle id="Elipse_81" data-name="Elipse 81" cx="27.691" cy="27.691" r="27.691" transform="translate(5.965 63.807) rotate(-76.717)" fill="#a5a5a5"/>
        <ellipse id="Elipse_82" data-name="Elipse 82" cx="27.691" cy="27.691" rx="27.691" ry="27.691" transform="matrix(0.23, -0.973, 0.973, 0.23, 6.246, 63.525)" fill="#a0a0a0"/>
        <circle id="Elipse_83" data-name="Elipse 83" cx="27.691" cy="27.691" r="27.691" transform="translate(6.528 63.244) rotate(-76.717)" fill="#9b9b9b"/>
        <ellipse id="Elipse_84" data-name="Elipse 84" cx="27.691" cy="27.691" rx="27.691" ry="27.691" transform="matrix(0.23, -0.973, 0.973, 0.23, 6.809, 62.962)" fill="#969696"/>
        <ellipse id="Elipse_85" data-name="Elipse 85" cx="27.691" cy="27.691" rx="27.691" ry="27.691" transform="translate(12.712 14.401)" fill="#919191"/>
        <ellipse id="Elipse_86" data-name="Elipse 86" cx="27.691" cy="27.691" rx="27.691" ry="27.691" transform="translate(8.916 64.709) rotate(-80.783)" fill="#8c8c8c"/>
        <ellipse id="Elipse_87" data-name="Elipse 87" cx="27.691" cy="27.691" rx="27.691" ry="27.691" transform="translate(13.275 13.838)" fill="#878787"/>
        <ellipse id="Elipse_88" data-name="Elipse 88" cx="27.691" cy="27.691" rx="27.691" ry="27.691" transform="translate(5.068 26.262) rotate(-22.5)" fill="#828282"/>
        <ellipse id="Elipse_89" data-name="Elipse 89" cx="27.691" cy="27.691" rx="27.691" ry="27.691" transform="translate(13.838 13.275)" fill="#7d7d7d"/>
        <circle id="Elipse_90" data-name="Elipse 90" cx="27.691" cy="27.691" r="27.691" transform="translate(8.498 61.273) rotate(-76.717)" fill="#787878"/>
        <ellipse id="Elipse_91" data-name="Elipse 91" cx="27.691" cy="27.691" rx="27.691" ry="27.691" transform="matrix(0.23, -0.973, 0.973, 0.23, 8.78, 60.991)" fill="#737373"/>
        <circle id="Elipse_92" data-name="Elipse 92" cx="27.691" cy="27.691" r="27.691" transform="translate(9.061 60.71) rotate(-76.717)" fill="#6e6e6e"/>
        <ellipse id="Elipse_93" data-name="Elipse 93" cx="27.691" cy="27.691" rx="27.691" ry="27.691" transform="matrix(0.23, -0.973, 0.973, 0.23, 9.343, 60.428)" fill="#696969"/>
        <ellipse id="Elipse_94" data-name="Elipse 94" cx="27.691" cy="27.691" rx="27.691" ry="27.691" transform="translate(15.246 11.867)" fill="#646464"/>
        <ellipse id="Elipse_95" data-name="Elipse 95" cx="27.691" cy="27.691" rx="27.691" ry="27.691" transform="translate(11.449 62.175) rotate(-80.783)" fill="#5f5f5f"/>
        <ellipse id="Elipse_96" data-name="Elipse 96" cx="27.691" cy="27.691" rx="27.691" ry="27.691" transform="translate(15.809 11.304)" fill="#5a5a5a"/>
        <ellipse id="Elipse_97" data-name="Elipse 97" cx="27.691" cy="27.691" rx="27.691" ry="27.691" transform="translate(7.601 23.728) rotate(-22.5)" fill="#555"/>
        <ellipse id="Elipse_98" data-name="Elipse 98" cx="27.691" cy="27.691" rx="27.691" ry="27.691" transform="translate(16.372 10.741)" fill="#505050"/>
        <circle id="Elipse_99" data-name="Elipse 99" cx="27.691" cy="27.691" r="27.691" transform="translate(11.032 58.739) rotate(-76.717)" fill="#4b4b4b"/>
        <ellipse id="Elipse_100" data-name="Elipse 100" cx="27.691" cy="27.691" rx="27.691" ry="27.691" transform="matrix(0.23, -0.973, 0.973, 0.23, 11.314, 58.458)" fill="#464646"/>
        <circle id="Elipse_101" data-name="Elipse 101" cx="27.691" cy="27.691" r="27.691" transform="translate(11.595 58.176) rotate(-76.717)" fill="#414141"/>
        <ellipse id="Elipse_102" data-name="Elipse 102" cx="27.691" cy="27.691" rx="27.691" ry="27.691" transform="matrix(0.23, -0.973, 0.973, 0.23, 11.877, 57.895)" fill="#3c3c3c"/>
        <ellipse id="Elipse_103" data-name="Elipse 103" cx="27.691" cy="27.691" rx="27.691" ry="27.691" transform="translate(17.78 9.334)" fill="#373737"/>
        <ellipse id="Elipse_104" data-name="Elipse 104" cx="27.691" cy="27.691" rx="27.691" ry="27.691" transform="translate(13.983 59.641) rotate(-80.783)" fill="#323232"/>
        <ellipse id="Elipse_105" data-name="Elipse 105" cx="27.691" cy="27.691" rx="27.691" ry="27.691" transform="translate(18.343 8.771)" fill="#2d2d2d"/>
        <ellipse id="Elipse_106" data-name="Elipse 106" cx="27.691" cy="27.691" rx="27.691" ry="27.691" transform="translate(10.135 21.194) rotate(-22.5)" fill="#282828"/>
        <ellipse id="Elipse_107" data-name="Elipse 107" cx="27.691" cy="27.691" rx="27.691" ry="27.691" transform="translate(18.906 8.208)" fill="#232323"/>
        <circle id="Elipse_108" data-name="Elipse 108" cx="27.691" cy="27.691" r="27.691" transform="translate(13.566 56.205) rotate(-76.717)" fill="#1e1e1e"/>
        <ellipse id="Elipse_109" data-name="Elipse 109" cx="27.691" cy="27.691" rx="27.691" ry="27.691" transform="matrix(0.23, -0.973, 0.973, 0.23, 13.848, 55.924)" fill="#191919"/>
        <circle id="Elipse_110" data-name="Elipse 110" cx="27.691" cy="27.691" r="27.691" transform="translate(14.129 55.642) rotate(-76.717)" fill="#141414"/>
        <ellipse id="Elipse_111" data-name="Elipse 111" cx="27.691" cy="27.691" rx="27.691" ry="27.691" transform="matrix(0.23, -0.973, 0.973, 0.23, 14.411, 55.361)" fill="#0f0f0f"/>
        <ellipse id="Elipse_112" data-name="Elipse 112" cx="27.691" cy="27.691" rx="27.691" ry="27.691" transform="translate(20.314 6.8)" fill="#0a0a0a"/>
        <ellipse id="Elipse_113" data-name="Elipse 113" cx="27.691" cy="27.691" rx="27.691" ry="27.691" transform="translate(16.517 57.107) rotate(-80.783)" fill="#050505"/>
        <ellipse id="Elipse_114" data-name="Elipse 114" cx="27.691" cy="27.691" rx="27.691" ry="27.691" transform="translate(20.877 6.237)"/>
      </g>
      <g id="Grupo_41" data-name="Grupo 41" transform="translate(20.636 5.996)">
        <ellipse id="Elipse_115" data-name="Elipse 115" cx="27.691" cy="27.691" rx="27.691" ry="27.691" transform="translate(0.24 0.241)" fill="#f7b919"/>
        <path id="Trazado_186" data-name="Trazado 186" d="M462.539-168.461a27.963,27.963,0,0,1-27.931-27.932,27.963,27.963,0,0,1,27.931-27.932,27.964,27.964,0,0,1,27.932,27.932A27.963,27.963,0,0,1,462.539-168.461Zm0-55.382a27.481,27.481,0,0,0-27.45,27.451,27.481,27.481,0,0,0,27.45,27.45,27.482,27.482,0,0,0,27.451-27.45A27.482,27.482,0,0,0,462.539-223.843Z" transform="translate(-434.608 224.324)" fill="#f7b919"/>
      </g>
      <g id="Grupo_45" data-name="Grupo 45" transform="translate(23.202 3.932)">
        <g id="Grupo_42" data-name="Grupo 42">
          <path id="Trazado_187" data-name="Trazado 187" d="M471.037-168.376a31.132,31.132,0,0,1-31.1-31.1,29.174,29.174,0,0,1,29.141-29.141,27.34,27.34,0,0,1,27.31,27.309A25.623,25.623,0,0,1,470.8-175.712a23.943,23.943,0,0,1-23.962-22.861.313.313,0,0,1,.3-.327.32.32,0,0,1,.327.3A23.318,23.318,0,0,0,470.8-176.337a25,25,0,0,0,24.969-24.969,26.714,26.714,0,0,0-26.684-26.684,28.548,28.548,0,0,0-28.516,28.516A30.507,30.507,0,0,0,471.037-169a32.42,32.42,0,0,0,32.543-31.454.316.316,0,0,1,.323-.3.313.313,0,0,1,.3.323,33.006,33.006,0,0,1-10.075,22.707A33.017,33.017,0,0,1,471.037-168.376Z" transform="translate(-439.94 228.615)"/>
        </g>
        <g id="Grupo_43" data-name="Grupo 43" transform="translate(62.765 27.052)">
          <path id="Trazado_188" data-name="Trazado 188" d="M570.392-171.244a1.176,1.176,0,0,1,1.205-1.146,1.176,1.176,0,0,1,1.146,1.205,1.177,1.177,0,0,1-1.205,1.146A1.176,1.176,0,0,1,570.392-171.244Z" transform="translate(-570.391 172.391)"/>
        </g>
        <g id="Grupo_44" data-name="Grupo 44" transform="translate(6.065 28.914)">
          <path id="Trazado_189" data-name="Trazado 189" d="M454.9-167.4a1.176,1.176,0,0,0-1.234-1.115,1.176,1.176,0,0,0-1.115,1.234,1.176,1.176,0,0,0,1.234,1.115A1.176,1.176,0,0,0,454.9-167.4Z" transform="translate(-452.546 168.52)"/>
        </g>
      </g>
    </g>
    <g id="Grupo_1050" data-name="Grupo 1050">
      <g id="Grupo_40-2" data-name="Grupo 40" transform="translate(0)" opacity="0.16" style="mix-blend-mode: multiply;isolation: isolate">
        <circle id="Elipse_63-2" data-name="Elipse 63" cx="27.691" cy="27.691" r="27.691" transform="translate(0.897 68.874) rotate(-76.717)" fill="#fff"/>
        <ellipse id="Elipse_64-2" data-name="Elipse 64" cx="27.691" cy="27.691" rx="27.691" ry="27.691" transform="matrix(0.23, -0.973, 0.973, 0.23, 1.178, 68.593)" fill="#fafafa"/>
        <circle id="Elipse_65-2" data-name="Elipse 65" cx="27.691" cy="27.691" r="27.691" transform="translate(1.46 68.311) rotate(-76.717)" fill="#f5f5f5"/>
        <ellipse id="Elipse_66-2" data-name="Elipse 66" cx="27.691" cy="27.691" rx="27.691" ry="27.691" transform="matrix(0.23, -0.973, 0.973, 0.23, 1.742, 68.03)" fill="#f0f0f0"/>
        <ellipse id="Elipse_67-2" data-name="Elipse 67" cx="27.691" cy="27.691" rx="27.691" ry="27.691" transform="translate(7.644 19.469)" fill="#ebebeb"/>
        <ellipse id="Elipse_68-2" data-name="Elipse 68" cx="27.691" cy="27.691" rx="27.691" ry="27.691" transform="translate(3.848 69.777) rotate(-80.783)" fill="#e6e6e6"/>
        <ellipse id="Elipse_69-2" data-name="Elipse 69" cx="27.691" cy="27.691" rx="27.691" ry="27.691" transform="translate(8.208 18.906)" fill="#e1e1e1"/>
        <ellipse id="Elipse_70-2" data-name="Elipse 70" cx="27.691" cy="27.691" rx="27.691" ry="27.691" transform="translate(0 31.329) rotate(-22.5)" fill="#dcdcdc"/>
        <ellipse id="Elipse_71-2" data-name="Elipse 71" cx="27.691" cy="27.691" rx="27.691" ry="27.691" transform="translate(8.771 18.343)" fill="#d7d7d7"/>
        <circle id="Elipse_72-2" data-name="Elipse 72" cx="27.691" cy="27.691" r="27.691" transform="translate(3.431 66.341) rotate(-76.717)" fill="#d2d2d2"/>
        <ellipse id="Elipse_73-2" data-name="Elipse 73" cx="27.691" cy="27.691" rx="27.691" ry="27.691" transform="matrix(0.23, -0.973, 0.973, 0.23, 3.712, 66.059)" fill="#cdcdcd"/>
        <circle id="Elipse_74-2" data-name="Elipse 74" cx="27.691" cy="27.691" r="27.691" transform="translate(3.994 65.778) rotate(-76.717)" fill="#c8c8c8"/>
        <ellipse id="Elipse_75-2" data-name="Elipse 75" cx="27.691" cy="27.691" rx="27.691" ry="27.691" transform="matrix(0.23, -0.973, 0.973, 0.23, 4.275, 65.496)" fill="#c3c3c3"/>
        <ellipse id="Elipse_76-2" data-name="Elipse 76" cx="27.691" cy="27.691" rx="27.691" ry="27.691" transform="translate(10.178 16.935)" fill="#bebebe"/>
        <ellipse id="Elipse_77-2" data-name="Elipse 77" cx="27.691" cy="27.691" rx="27.691" ry="27.691" transform="translate(6.382 67.243) rotate(-80.783)" fill="#b9b9b9"/>
        <ellipse id="Elipse_78-2" data-name="Elipse 78" cx="27.691" cy="27.691" rx="27.691" ry="27.691" transform="translate(10.741 16.372)" fill="#b4b4b4"/>
        <ellipse id="Elipse_79-2" data-name="Elipse 79" cx="27.691" cy="27.691" rx="27.691" ry="27.691" transform="translate(2.534 28.795) rotate(-22.5)" fill="#afafaf"/>
        <ellipse id="Elipse_80-2" data-name="Elipse 80" cx="27.691" cy="27.691" rx="27.691" ry="27.691" transform="translate(11.304 15.809)" fill="#aaa"/>
        <circle id="Elipse_81-2" data-name="Elipse 81" cx="27.691" cy="27.691" r="27.691" transform="translate(5.965 63.807) rotate(-76.717)" fill="#a5a5a5"/>
        <ellipse id="Elipse_82-2" data-name="Elipse 82" cx="27.691" cy="27.691" rx="27.691" ry="27.691" transform="matrix(0.23, -0.973, 0.973, 0.23, 6.246, 63.525)" fill="#a0a0a0"/>
        <circle id="Elipse_83-2" data-name="Elipse 83" cx="27.691" cy="27.691" r="27.691" transform="translate(6.528 63.244) rotate(-76.717)" fill="#9b9b9b"/>
        <ellipse id="Elipse_84-2" data-name="Elipse 84" cx="27.691" cy="27.691" rx="27.691" ry="27.691" transform="matrix(0.23, -0.973, 0.973, 0.23, 6.809, 62.962)" fill="#969696"/>
        <ellipse id="Elipse_85-2" data-name="Elipse 85" cx="27.691" cy="27.691" rx="27.691" ry="27.691" transform="translate(12.712 14.401)" fill="#919191"/>
        <ellipse id="Elipse_86-2" data-name="Elipse 86" cx="27.691" cy="27.691" rx="27.691" ry="27.691" transform="translate(8.916 64.709) rotate(-80.783)" fill="#8c8c8c"/>
        <ellipse id="Elipse_87-2" data-name="Elipse 87" cx="27.691" cy="27.691" rx="27.691" ry="27.691" transform="translate(13.275 13.838)" fill="#878787"/>
        <ellipse id="Elipse_88-2" data-name="Elipse 88" cx="27.691" cy="27.691" rx="27.691" ry="27.691" transform="translate(5.068 26.262) rotate(-22.5)" fill="#828282"/>
        <ellipse id="Elipse_89-2" data-name="Elipse 89" cx="27.691" cy="27.691" rx="27.691" ry="27.691" transform="translate(13.838 13.275)" fill="#7d7d7d"/>
        <circle id="Elipse_90-2" data-name="Elipse 90" cx="27.691" cy="27.691" r="27.691" transform="translate(8.498 61.273) rotate(-76.717)" fill="#787878"/>
        <ellipse id="Elipse_91-2" data-name="Elipse 91" cx="27.691" cy="27.691" rx="27.691" ry="27.691" transform="matrix(0.23, -0.973, 0.973, 0.23, 8.78, 60.991)" fill="#737373"/>
        <circle id="Elipse_92-2" data-name="Elipse 92" cx="27.691" cy="27.691" r="27.691" transform="translate(9.061 60.71) rotate(-76.717)" fill="#6e6e6e"/>
        <ellipse id="Elipse_93-2" data-name="Elipse 93" cx="27.691" cy="27.691" rx="27.691" ry="27.691" transform="matrix(0.23, -0.973, 0.973, 0.23, 9.343, 60.428)" fill="#696969"/>
        <ellipse id="Elipse_94-2" data-name="Elipse 94" cx="27.691" cy="27.691" rx="27.691" ry="27.691" transform="translate(15.246 11.867)" fill="#646464"/>
        <ellipse id="Elipse_95-2" data-name="Elipse 95" cx="27.691" cy="27.691" rx="27.691" ry="27.691" transform="translate(11.449 62.175) rotate(-80.783)" fill="#5f5f5f"/>
        <ellipse id="Elipse_96-2" data-name="Elipse 96" cx="27.691" cy="27.691" rx="27.691" ry="27.691" transform="translate(15.809 11.304)" fill="#5a5a5a"/>
        <ellipse id="Elipse_97-2" data-name="Elipse 97" cx="27.691" cy="27.691" rx="27.691" ry="27.691" transform="translate(7.601 23.728) rotate(-22.5)" fill="#555"/>
        <ellipse id="Elipse_98-2" data-name="Elipse 98" cx="27.691" cy="27.691" rx="27.691" ry="27.691" transform="translate(16.372 10.741)" fill="#505050"/>
        <circle id="Elipse_99-2" data-name="Elipse 99" cx="27.691" cy="27.691" r="27.691" transform="translate(11.032 58.739) rotate(-76.717)" fill="#4b4b4b"/>
        <ellipse id="Elipse_100-2" data-name="Elipse 100" cx="27.691" cy="27.691" rx="27.691" ry="27.691" transform="matrix(0.23, -0.973, 0.973, 0.23, 11.314, 58.458)" fill="#464646"/>
        <circle id="Elipse_101-2" data-name="Elipse 101" cx="27.691" cy="27.691" r="27.691" transform="translate(11.595 58.176) rotate(-76.717)" fill="#414141"/>
        <ellipse id="Elipse_102-2" data-name="Elipse 102" cx="27.691" cy="27.691" rx="27.691" ry="27.691" transform="matrix(0.23, -0.973, 0.973, 0.23, 11.877, 57.895)" fill="#3c3c3c"/>
        <ellipse id="Elipse_103-2" data-name="Elipse 103" cx="27.691" cy="27.691" rx="27.691" ry="27.691" transform="translate(17.78 9.334)" fill="#373737"/>
        <ellipse id="Elipse_104-2" data-name="Elipse 104" cx="27.691" cy="27.691" rx="27.691" ry="27.691" transform="translate(13.983 59.641) rotate(-80.783)" fill="#323232"/>
        <ellipse id="Elipse_105-2" data-name="Elipse 105" cx="27.691" cy="27.691" rx="27.691" ry="27.691" transform="translate(18.343 8.771)" fill="#2d2d2d"/>
        <ellipse id="Elipse_106-2" data-name="Elipse 106" cx="27.691" cy="27.691" rx="27.691" ry="27.691" transform="translate(10.135 21.194) rotate(-22.5)" fill="#282828"/>
        <ellipse id="Elipse_107-2" data-name="Elipse 107" cx="27.691" cy="27.691" rx="27.691" ry="27.691" transform="translate(18.906 8.208)" fill="#232323"/>
        <circle id="Elipse_108-2" data-name="Elipse 108" cx="27.691" cy="27.691" r="27.691" transform="translate(13.566 56.205) rotate(-76.717)" fill="#1e1e1e"/>
        <ellipse id="Elipse_109-2" data-name="Elipse 109" cx="27.691" cy="27.691" rx="27.691" ry="27.691" transform="matrix(0.23, -0.973, 0.973, 0.23, 13.848, 55.924)" fill="#191919"/>
        <circle id="Elipse_110-2" data-name="Elipse 110" cx="27.691" cy="27.691" r="27.691" transform="translate(14.129 55.642) rotate(-76.717)" fill="#141414"/>
        <ellipse id="Elipse_111-2" data-name="Elipse 111" cx="27.691" cy="27.691" rx="27.691" ry="27.691" transform="matrix(0.23, -0.973, 0.973, 0.23, 14.411, 55.361)" fill="#0f0f0f"/>
        <ellipse id="Elipse_112-2" data-name="Elipse 112" cx="27.691" cy="27.691" rx="27.691" ry="27.691" transform="translate(20.314 6.8)" fill="#0a0a0a"/>
        <ellipse id="Elipse_113-2" data-name="Elipse 113" cx="27.691" cy="27.691" rx="27.691" ry="27.691" transform="translate(16.517 57.107) rotate(-80.783)" fill="#050505"/>
        <ellipse id="Elipse_114-2" data-name="Elipse 114" cx="27.691" cy="27.691" rx="27.691" ry="27.691" transform="translate(20.877 6.237)"/>
      </g>
      <g id="Grupo_41-2" data-name="Grupo 41" transform="translate(20.636 5.996)">
        <ellipse id="Elipse_115-2" data-name="Elipse 115" cx="27.691" cy="27.691" rx="27.691" ry="27.691" transform="translate(0.24 0.241)" fill="#f7b919"/>
        <path id="Trazado_186-2" data-name="Trazado 186" d="M462.539-168.461a27.963,27.963,0,0,1-27.931-27.932,27.963,27.963,0,0,1,27.931-27.932,27.964,27.964,0,0,1,27.932,27.932A27.963,27.963,0,0,1,462.539-168.461Zm0-55.382a27.481,27.481,0,0,0-27.45,27.451,27.481,27.481,0,0,0,27.45,27.45,27.482,27.482,0,0,0,27.451-27.45A27.482,27.482,0,0,0,462.539-223.843Z" transform="translate(-434.608 224.324)" fill="#f7b919"/>
      </g>
      <g id="Grupo_45-2" data-name="Grupo 45" transform="translate(23.202 3.932)">
        <g id="Grupo_42-2" data-name="Grupo 42">
          <path id="Trazado_187-2" data-name="Trazado 187" d="M471.037-168.376a31.132,31.132,0,0,1-31.1-31.1,29.174,29.174,0,0,1,29.141-29.141,27.34,27.34,0,0,1,27.31,27.309A25.623,25.623,0,0,1,470.8-175.712a23.943,23.943,0,0,1-23.962-22.861.313.313,0,0,1,.3-.327.32.32,0,0,1,.327.3A23.318,23.318,0,0,0,470.8-176.337a25,25,0,0,0,24.969-24.969,26.714,26.714,0,0,0-26.684-26.684,28.548,28.548,0,0,0-28.516,28.516A30.507,30.507,0,0,0,471.037-169a32.42,32.42,0,0,0,32.543-31.454.316.316,0,0,1,.323-.3.313.313,0,0,1,.3.323,33.006,33.006,0,0,1-10.075,22.707A33.017,33.017,0,0,1,471.037-168.376Z" transform="translate(-439.94 228.615)"/>
        </g>
        <g id="Grupo_43-2" data-name="Grupo 43" transform="translate(62.765 27.052)">
          <path id="Trazado_188-2" data-name="Trazado 188" d="M570.392-171.244a1.176,1.176,0,0,1,1.205-1.146,1.176,1.176,0,0,1,1.146,1.205,1.177,1.177,0,0,1-1.205,1.146A1.176,1.176,0,0,1,570.392-171.244Z" transform="translate(-570.391 172.391)"/>
        </g>
        <g id="Grupo_44-2" data-name="Grupo 44" transform="translate(6.065 28.914)">
          <path id="Trazado_189-2" data-name="Trazado 189" d="M454.9-167.4a1.176,1.176,0,0,0-1.234-1.115,1.176,1.176,0,0,0-1.115,1.234,1.176,1.176,0,0,0,1.234,1.115A1.176,1.176,0,0,0,454.9-167.4Z" transform="translate(-452.546 168.52)"/>
        </g>
      </g>
    </g>
  </g>
  <g id="Grupo_74" data-name="Grupo 74" transform="translate(37.276 16.567)">
    <g id="Grupo_57" data-name="Grupo 57" transform="translate(3.912 24.036)">
      <g id="Grupo_56" data-name="Grupo 56">
        <path id="Trazado_194" data-name="Trazado 194" d="M78.319,472.089l-.769-1.083a.511.511,0,1,0-.833.591l.769,1.083a.511.511,0,0,0,.833-.591Z" transform="translate(-76.624 -470.791)" fill="#fff"/>
      </g>
    </g>
    <g id="Grupo_59" data-name="Grupo 59" transform="translate(0 7.988)">
      <g id="Grupo_58" data-name="Grupo 58">
        <path id="Trazado_195" data-name="Trazado 195" d="M11.5,173.988,10.662,170a7.519,7.519,0,0,0-3.18-4.72L5.7,164.08a1.8,1.8,0,0,0-2.277.232v-6.152A1.709,1.709,0,0,0,.64,156.828,1.7,1.7,0,0,0,0,158.161v7.916a4.945,4.945,0,0,0,.918,2.878l.91,1.283a.511.511,0,1,0,.833-.591l-.91-1.283a3.93,3.93,0,0,1-.729-2.287v-7.916a.688.688,0,1,1,1.376,0v6.281a3.567,3.567,0,0,0,.92,2.4c.025.03.052.061.079.09l1.113,1.182.526.559.005.005.788.839a.511.511,0,1,0,.744-.7l-1.289-1.372-1.171-1.246-.009-.01a.862.862,0,0,1,.017-1.129.772.772,0,0,1,1.005-.128l1.786,1.2a6.5,6.5,0,0,1,2.75,4.083L10.5,174.2a.511.511,0,1,0,1-.21Z" transform="translate(-0.001 -156.451)" fill="#fff"/>
      </g>
    </g>
    <g id="Grupo_61" data-name="Grupo 61" transform="translate(2.853 22.545)">
      <g id="Grupo_60" data-name="Grupo 60">
        <path id="Trazado_196" data-name="Trazado 196" d="M56.814,441.794l0,0a.511.511,0,1,0-.831.593l0,0a.511.511,0,1,0,.831-.593Z" transform="translate(-55.884 -441.575)" fill="#fff"/>
      </g>
    </g>
    <g id="Grupo_63" data-name="Grupo 63" transform="translate(14.631 7.988)">
      <g id="Grupo_62" data-name="Grupo 62">
        <path id="Trazado_197" data-name="Trazado 197" d="M297.449,156.83a1.709,1.709,0,0,0-2.779,1.333v6.152a1.8,1.8,0,0,0-2.277-.232l-1.786,1.2a7.519,7.519,0,0,0-3.18,4.72l-.836,3.987a.511.511,0,1,0,1,.21l.836-3.987a6.5,6.5,0,0,1,2.75-4.083l1.786-1.2a.772.772,0,0,1,1.005.128.861.861,0,0,1,.018,1.128l-.01.011-2.46,2.618a.511.511,0,1,0,.744.7c.007-.007,2.093-2.226,2.432-2.585.028-.029.054-.059.079-.09a3.568,3.568,0,0,0,.92-2.4v-6.281a.688.688,0,1,1,1.376,0v7.916a3.93,3.93,0,0,1-.729,2.287l-3.857,5.434a.511.511,0,1,0,.833.591l3.857-5.434a4.946,4.946,0,0,0,.918-2.878v-7.916A1.7,1.7,0,0,0,297.449,156.83Z" transform="translate(-286.58 -156.454)" fill="#fff"/>
      </g>
    </g>
    <g id="Grupo_65" data-name="Grupo 65" transform="translate(4.768 2.757)">
      <g id="Grupo_64" data-name="Grupo 64">
        <path id="Trazado_198" data-name="Trazado 198" d="M108.159,61.028l-.908-.217v-.163a2.284,2.284,0,0,0,.977-1.872V57.6a2.283,2.283,0,0,0-3.768-1.737,2.981,2.981,0,0,0-5.525,0A2.283,2.283,0,0,0,95.163,57.6v1.181a2.284,2.284,0,0,0,.977,1.872v.163l-.908.217a2.392,2.392,0,0,0-1.842,2.334v.954a.511.511,0,0,0,.511.511h2.346c0,.062-.006.124-.006.187v1.836a.511.511,0,0,0,.511.511H99.82a.511.511,0,1,0,0-1.021h-.528V65.283a.511.511,0,1,0-1.021,0v1.055h-1.01V65.013a2.114,2.114,0,0,1,1.626-2.062l1.4-.336.938,2.133a.511.511,0,0,0,.467.305h0a.511.511,0,0,0,.467-.305l.937-2.13,1.4.334a2.114,2.114,0,0,1,1.628,2.062v1.324h-1.01V65.283a.511.511,0,1,0-1.021,0v1.055h-.579a.511.511,0,1,0,0,1.021h3.12a.511.511,0,0,0,.511-.511V65.015c0-.063,0-.126-.006-.188h2.353a.511.511,0,0,0,.511-.511v-.954A2.392,2.392,0,0,0,108.159,61.028Zm-2.216-4.7a1.266,1.266,0,0,1,1.261,1.181h-.71a3.721,3.721,0,0,1-1.712-.417A1.266,1.266,0,0,1,105.943,56.331Zm-1.264,2.37c0-.025,0-.05,0-.075v-.455a4.743,4.743,0,0,0,1.813.361h.713v.243a1.264,1.264,0,1,1-2.528,0Zm-4.941-1.719h0a1.961,1.961,0,0,1,3.9-.312l-.86-.5a.51.51,0,0,0-.65.112,2.2,2.2,0,0,1-1.69.789h-.7v-.084Zm-2.29-.651a1.266,1.266,0,0,1,1.16.763,3.721,3.721,0,0,1-1.712.417h-.71A1.266,1.266,0,0,1,97.448,56.331Zm-1.264,2.2H96.9a4.743,4.743,0,0,0,1.815-.362v.6a1.264,1.264,0,0,1-2.528,0v-.243Zm2.466,3.425a3.131,3.131,0,0,0-2.17,1.847H94.411v-.443a1.374,1.374,0,0,1,1.058-1.341l1.3-.311a.511.511,0,0,0,.392-.5v-.172a2.215,2.215,0,0,0,.571,0v.146c0,.008,0,.015,0,.023a.511.511,0,0,0,.415.5l.762.182Zm1.424-.793a2.4,2.4,0,0,0-.409-.138l-.912-.219V60.65a2.3,2.3,0,0,0,.442-.4,3.006,3.006,0,0,0,.878.88v.039Zm2.217.75-.6,1.359-.6-1.362v-.364a2.992,2.992,0,0,0,1.2,0Zm-.593-1.328a1.963,1.963,0,0,1-1.961-1.961v-.539h.7a3.217,3.217,0,0,0,2.169-.838l1.053.619V58.7A1.963,1.963,0,0,1,101.7,60.588Zm1.614.579v-.035a3,3,0,0,0,.886-.883,2.3,2.3,0,0,0,.439.4v.159l-.912.219A2.4,2.4,0,0,0,103.313,61.167Zm5.667,2.638H106.9a3.131,3.131,0,0,0-2.171-1.846l-.256-.061.766-.184a.511.511,0,0,0,.417-.5s0-.008,0-.012v-.157a2.215,2.215,0,0,0,.571,0v.172a.511.511,0,0,0,.392.5l1.3.311a1.374,1.374,0,0,1,1.058,1.341v.443Z" transform="translate(-93.39 -54)" fill="#fff"/>
      </g>
    </g>
    <g id="Grupo_67" data-name="Grupo 67" transform="translate(12.56 15.096)">
      <g id="Grupo_66" data-name="Grupo 66">
        <path id="Trazado_199" data-name="Trazado 199" d="M246.871,295.819a.511.511,0,1,0,.15.361A.515.515,0,0,0,246.871,295.819Z" transform="translate(-246 -295.67)" fill="#fff"/>
      </g>
    </g>
    <g id="Grupo_69" data-name="Grupo 69" transform="translate(12.559)">
      <g id="Grupo_68" data-name="Grupo 68">
        <path id="Trazado_200" data-name="Trazado 200" d="M246.5,0a.511.511,0,0,0-.511.511v.764a.511.511,0,1,0,1.021,0V.511A.511.511,0,0,0,246.5,0Z" transform="translate(-245.993 0)" fill="#fff"/>
      </g>
    </g>
    <g id="Grupo_71" data-name="Grupo 71" transform="translate(9.782 0.981)">
      <g id="Grupo_70" data-name="Grupo 70">
        <path id="Trazado_201" data-name="Trazado 201" d="M193.006,19.9l-.536-.535a.511.511,0,1,0-.722.722l.536.535a.511.511,0,1,0,.722-.722Z" transform="translate(-191.599 -19.213)" fill="#fff"/>
      </g>
    </g>
    <g id="Grupo_73" data-name="Grupo 73" transform="translate(14.793 0.994)">
      <g id="Grupo_72" data-name="Grupo 72">
        <path id="Trazado_202" data-name="Trazado 202" d="M291.149,19.619a.51.51,0,0,0-.722,0l-.531.532a.511.511,0,1,0,.722.722l.531-.532A.511.511,0,0,0,291.149,19.619Z" transform="translate(-289.746 -19.469)" fill="#fff"/>
      </g>
    </g>
  </g>
</svg>
