<svg xmlns="http://www.w3.org/2000/svg" width="64.253" height="316.203" viewBox="0 0 64.253 316.203">
  <g id="Grupo_1053" data-name="Grupo 1053" transform="translate(-128.716 -117.054)">
    <path id="Trazado_644" data-name="Trazado 644" d="M348.1,216.124a3.8,3.8,0,0,1-3.509-3.546h-.048a3.8,3.8,0,0,1-3.7,3.565v.019a3.8,3.8,0,0,1,3.684,3.451h.073a3.79,3.79,0,0,1,3.5-3.432Z" transform="translate(-155.134 15.795)" fill="#fff"/>
    <path id="Trazado_646" data-name="Trazado 646" d="M348.1,216.124a3.8,3.8,0,0,1-3.509-3.546h-.048a3.8,3.8,0,0,1-3.7,3.565v.019a3.8,3.8,0,0,1,3.684,3.451h.073a3.79,3.79,0,0,1,3.5-3.432Z" transform="translate(-162.134 -55.205)" fill="#fff"/>
    <path id="Trazado_647" data-name="Trazado 647" d="M348.1,216.124a3.8,3.8,0,0,1-3.509-3.546h-.048a3.8,3.8,0,0,1-3.7,3.565v.019a3.8,3.8,0,0,1,3.684,3.451h.073a3.79,3.79,0,0,1,3.5-3.432Z" transform="translate(-212.134 139.795)" fill="#fff"/>
    <path id="Trazado_642" data-name="Trazado 642" d="M265.337,437.973a3.8,3.8,0,0,1-3.508-3.546h-.048a3.8,3.8,0,0,1-3.7,3.565v.019a3.8,3.8,0,0,1,3.684,3.451h.072a3.792,3.792,0,0,1,3.5-3.432Z" transform="translate(-86.134 -116.205)" fill="#fff"/>
    <path id="Trazado_649" data-name="Trazado 649" d="M265.337,437.973a3.8,3.8,0,0,1-3.508-3.546h-.048a3.8,3.8,0,0,1-3.7,3.565v.019a3.8,3.8,0,0,1,3.684,3.451h.072a3.792,3.792,0,0,1,3.5-3.432Z" transform="translate(-118.134 -8.205)" fill="#fff"/>
    <path id="Trazado_643" data-name="Trazado 643" d="M158.976,437.944a1.842,1.842,0,1,0-1.842-1.843,1.843,1.843,0,0,0,1.842,1.843" transform="translate(-8.134 -160.205)" fill="#fff"/>
    <path id="Trazado_648" data-name="Trazado 648" d="M158.976,437.944a1.842,1.842,0,1,0-1.842-1.843,1.843,1.843,0,0,0,1.842,1.843" transform="translate(19.866 -44.205)" fill="#fff"/>
    <path id="Trazado_645" data-name="Trazado 645" d="M158.976,437.944a1.842,1.842,0,1,0-1.842-1.843,1.843,1.843,0,0,0,1.842,1.843" transform="translate(1.866 -243.205)" fill="#fff"/>
    <path id="Trazado_650" data-name="Trazado 650" d="M158.976,437.944a1.842,1.842,0,1,0-1.842-1.843,1.843,1.843,0,0,0,1.842,1.843" transform="translate(3.866 -317.205)" fill="#fff"/>
  </g>
</svg>
