<svg xmlns="http://www.w3.org/2000/svg" width="115.25" height="345.223" viewBox="0 0 115.25 345.223">
  <g id="Grupo_1052" data-name="Grupo 1052" transform="translate(-103 -103.127)">
    <path id="Trazado_631" data-name="Trazado 631" d="M320.384,375.878a3.8,3.8,0,0,1-3.508-3.546h-.048a3.8,3.8,0,0,1-3.7,3.565v.019a3.8,3.8,0,0,1,3.684,3.451h.072a3.792,3.792,0,0,1,3.5-3.432Z" transform="translate(-102.134 -269.205)" fill="#fff"/>
    <path id="Trazado_632" data-name="Trazado 632" d="M515.967,219.641a3.8,3.8,0,0,1-3.508-3.546h-.048a3.8,3.8,0,0,1-3.7,3.565v.019a3.8,3.8,0,0,1,3.684,3.451h.072a3.792,3.792,0,0,1,3.5-3.432Z" transform="translate(-370.134 182.795)" fill="#fff"/>
    <path id="Trazado_633" data-name="Trazado 633" d="M218.783,330.991a3.8,3.8,0,0,1-3.509-3.546h-.048a3.8,3.8,0,0,1-3.7,3.565v.019a3.8,3.8,0,0,1,3.684,3.451h.072a3.792,3.792,0,0,1,3.5-3.432Z" transform="translate(-105.134 -74.205)" fill="#fff"/>
    <path id="Trazado_634" data-name="Trazado 634" d="M348.1,216.124a3.8,3.8,0,0,1-3.509-3.546h-.048a3.8,3.8,0,0,1-3.7,3.565v.019a3.8,3.8,0,0,1,3.684,3.451h.073a3.79,3.79,0,0,1,3.5-3.432Z" transform="translate(-185.134 33.795)" fill="#fff"/>
    <path id="Trazado_635" data-name="Trazado 635" d="M170.705,248.786a3.8,3.8,0,0,1-3.508-3.546h-.048a3.8,3.8,0,0,1-3.7,3.565v.019a3.8,3.8,0,0,1,3.684,3.451h.072a3.792,3.792,0,0,1,3.5-3.432Z" transform="translate(-54.134 -69.205)" fill="#fff"/>
    <path id="Trazado_636" data-name="Trazado 636" d="M425.1,327.473a3.8,3.8,0,0,1-3.508-3.546h-.048a3.8,3.8,0,0,1-3.7,3.565v.019a3.8,3.8,0,0,1,3.684,3.451h.072a3.792,3.792,0,0,1,3.5-3.432Z" transform="translate(-225.134 -14.205)" fill="#fff"/>
    <path id="Trazado_637" data-name="Trazado 637" d="M265.337,437.973a3.8,3.8,0,0,1-3.508-3.546h-.048a3.8,3.8,0,0,1-3.7,3.565v.019a3.8,3.8,0,0,1,3.684,3.451h.072a3.792,3.792,0,0,1,3.5-3.432Z" transform="translate(-127.134 -128.205)" fill="#fff"/>
    <path id="Trazado_638" data-name="Trazado 638" d="M454.921,238.066a3.8,3.8,0,0,1-3.509-3.546h-.048a3.8,3.8,0,0,1-3.7,3.565v.019a3.8,3.8,0,0,1,3.684,3.451h.072a3.792,3.792,0,0,1,3.5-3.432Z" transform="translate(-342.134 206.795)" fill="#fff"/>
    <path id="Trazado_639" data-name="Trazado 639" d="M158.976,437.944a1.842,1.842,0,1,0-1.842-1.843,1.843,1.843,0,0,0,1.842,1.843" transform="translate(-54.134 -86.205)" fill="#fff"/>
    <path id="Trazado_640" data-name="Trazado 640" d="M467.94,135.658a2.727,2.727,0,1,0-2.726-2.727,2.727,2.727,0,0,0,2.726,2.727" transform="translate(-322.134 -4.205)" fill="#fff"/>
    <path id="Trazado_641" data-name="Trazado 641" d="M338.389,287.138a1.842,1.842,0,1,0-1.842-1.842,1.842,1.842,0,0,0,1.842,1.842" transform="translate(-175.134 -100.205)" fill="#fff"/>
  </g>
</svg>
